ISO-10303-21;
HEADER;
FILE_DESCRIPTION (( 'STEP AP214' ),
    '1' );
FILE_NAME ('L61 Г-соединитель 60х60.STEP',
    '2019-11-19T13:51:44',
    ( 'Windows User' ),
    ( '' ),
    'SwSTEP 2.0',
    'SolidWorks 2019',
    '' );
FILE_SCHEMA (( 'AUTOMOTIVE_DESIGN' ));
ENDSEC;

DATA;
#1 = EDGE_CURVE ( 'NONE', #626, #754, #132, .T. ) ;
#2 = AXIS2_PLACEMENT_3D ( 'NONE', #582, #446, #122 ) ;
#3 = PRESENTATION_STYLE_ASSIGNMENT (( #584 ) ) ;
#4 = EDGE_LOOP ( 'NONE', ( #752, #57 ) ) ;
#5 = CARTESIAN_POINT ( 'NONE',  ( 40.00000000000000000, 0.0000000000000000000, -2.599999999999985434 ) ) ;
#6 = VERTEX_POINT ( 'NONE', #468 ) ;
#7 = EDGE_CURVE ( 'NONE', #331, #787, #677, .T. ) ;
#8 = ORIENTED_EDGE ( 'NONE', *, *, #97, .T. ) ;
#9 = DIRECTION ( 'NONE',  ( 0.0000000000000000000, 1.000000000000000000, 0.0000000000000000000 ) ) ;
#10 = LINE ( 'NONE', #525, #306 ) ;
#11 = PRODUCT_DEFINITION_CONTEXT ( 'detailed design', #427, 'design' ) ;
#12 = AXIS2_PLACEMENT_3D ( 'NONE', #43, #298, #439 ) ;
#13 = CIRCLE ( 'NONE', #542, 2.600000000000000089 ) ;
#14 = DIRECTION ( 'NONE',  ( 0.0000000000000000000, 0.0000000000000000000, 1.000000000000000000 ) ) ;
#15 = EDGE_LOOP ( 'NONE', ( #811, #294, #560, #543, #64, #190, #289, #223, #537, #697 ) ) ;
#16 = EDGE_CURVE ( 'NONE', #465, #787, #73, .T. ) ;
#17 = VECTOR ( 'NONE', #398, 1000.000000000000000 ) ;
#18 = CYLINDRICAL_SURFACE ( 'NONE', #494, 2.599999999999998312 ) ;
#19 = CYLINDRICAL_SURFACE ( 'NONE', #470, 2.599999999999999645 ) ;
#20 = DIRECTION ( 'NONE',  ( 0.0000000000000000000, 0.0000000000000000000, 1.000000000000000000 ) ) ;
#21 = DIRECTION ( 'NONE',  ( -0.0000000000000000000, 1.000000000000000000, 0.0000000000000000000 ) ) ;
#22 = CARTESIAN_POINT ( 'NONE',  ( 48.49999999999993605, 2.000000000000000000, -8.500000000000044409 ) ) ;
#23 = EDGE_CURVE ( 'NONE', #369, #465, #385, .T. ) ;
#24 = VECTOR ( 'NONE', #486, 1000.000000000000000 ) ;
#25 = CIRCLE ( 'NONE', #149, 2.500000000000000444 ) ;
#26 = EDGE_CURVE ( 'NONE', #331, #369, #77, .T. ) ;
#27 = CARTESIAN_POINT ( 'NONE',  ( 22.57537879754124432, 2.000000000000000000, 22.57537879754125498 ) ) ;
#28 = ORIENTED_EDGE ( 'NONE', *, *, #764, .T. ) ;
#29 = FACE_BOUND ( 'NONE', #4, .T. ) ;
#30 = ORIENTED_EDGE ( 'NONE', *, *, #344, .F. ) ;
#31 = ORIENTED_EDGE ( 'NONE', *, *, #49, .F. ) ;
#32 = DIRECTION ( 'NONE',  ( 0.0000000000000000000, 0.0000000000000000000, 1.000000000000000000 ) ) ;
#33 = CARTESIAN_POINT ( 'NONE',  ( 8.343145750507684255, 2.000000000000000000, 45.99999999999995737 ) ) ;
#34 = CARTESIAN_POINT ( 'NONE',  ( 48.49999999999992895, 2.000000000000000000, 8.343145750507668268 ) ) ;
#35 = ADVANCED_BREP_SHAPE_REPRESENTATION ( 'L61 +-ёюхфшэшЄхы№ 60ї60', ( #60, #186 ), #619 ) ;
#36 = CARTESIAN_POINT ( 'NONE',  ( 48.49999999999992895, 2.000000000000000000, 9.378679656440393586 ) ) ;
#37 = DIRECTION ( 'NONE',  ( 0.0000000000000000000, 1.000000000000000000, 0.0000000000000000000 ) ) ;
#38 = EDGE_LOOP ( 'NONE', ( #230, #51 ) ) ;
#39 = ADVANCED_FACE ( 'NONE', ( #203 ), #659, .F. ) ;
#40 = VERTEX_POINT ( 'NONE', #415 ) ;
#41 = PRODUCT_DEFINITION ( 'UNKNOWN', '', #420, #11 ) ;
#42 = AXIS2_PLACEMENT_3D ( 'NONE', #408, #151, #217 ) ;
#43 = CARTESIAN_POINT ( 'NONE',  ( 22.57537879754124432, 0.0000000000000000000, 22.57537879754125498 ) ) ;
#44 = VERTEX_POINT ( 'NONE', #356 ) ;
#45 = CARTESIAN_POINT ( 'NONE',  ( 10.11091270347405136, 2.000000000000000000, 47.76776695296632624 ) ) ;
#46 = DIRECTION ( 'NONE',  ( -1.000000000000000000, 0.0000000000000000000, 1.217349807703022609E-16 ) ) ;
#47 = CYLINDRICAL_SURFACE ( 'NONE', #252, 2.600000000000001421 ) ;
#48 = CARTESIAN_POINT ( 'NONE',  ( -1.040834085586084257E-14, 2.000000000000000000, 42.60000000000000853 ) ) ;
#49 = EDGE_CURVE ( 'NONE', #169, #673, #548, .T. ) ;
#50 = LINE ( 'NONE', #639, #277 ) ;
#51 = ORIENTED_EDGE ( 'NONE', *, *, #246, .T. ) ;
#52 = AXIS2_PLACEMENT_3D ( 'NONE', #242, #304, #102 ) ;
#53 = DIRECTION ( 'NONE',  ( 0.0000000000000000000, 0.0000000000000000000, 1.000000000000000000 ) ) ;
#54 = VECTOR ( 'NONE', #670, 1000.000000000000000 ) ;
#55 = ADVANCED_FACE ( 'NONE', ( #539 ), #531, .T. ) ;
#56 = VECTOR ( 'NONE', #58, 1000.000000000000000 ) ;
#57 = ORIENTED_EDGE ( 'NONE', *, *, #135, .T. ) ;
#58 = DIRECTION ( 'NONE',  ( 0.0000000000000000000, 1.000000000000000000, -0.0000000000000000000 ) ) ;
#59 = ORIENTED_EDGE ( 'NONE', *, *, #487, .T. ) ;
#60 = MANIFOLD_SOLID_BREP ( 'Вырез-Вытянуть3', #163 ) ;
#61 =( LENGTH_UNIT ( ) NAMED_UNIT ( * ) SI_UNIT ( .MILLI., .METRE. ) );
#62 = ORIENTED_EDGE ( 'NONE', *, *, #246, .F. ) ;
#63 = FACE_OUTER_BOUND ( 'NONE', #799, .T. ) ;
#64 = ORIENTED_EDGE ( 'NONE', *, *, #721, .F. ) ;
#65 = ORIENTED_EDGE ( 'NONE', *, *, #156, .T. ) ;
#66 = CARTESIAN_POINT ( 'NONE',  ( 9.378679656440418455, 0.0000000000000000000, 48.49999999999995737 ) ) ;
#67 = CARTESIAN_POINT ( 'NONE',  ( -1.040834085586084257E-14, 0.0000000000000000000, 40.00000000000000711 ) ) ;
#68 = AXIS2_PLACEMENT_3D ( 'NONE', #669, #87, #14 ) ;
#69 = VECTOR ( 'NONE', #281, 1000.000000000000000 ) ;
#70 = LINE ( 'NONE', #666, #728 ) ;
#71 = VERTEX_POINT ( 'NONE', #204 ) ;
#72 = ORIENTED_EDGE ( 'NONE', *, *, #764, .F. ) ;
#73 = LINE ( 'NONE', #85, #17 ) ;
#74 = EDGE_LOOP ( 'NONE', ( #449, #326, #600, #197 ) ) ;
#75 = ADVANCED_FACE ( 'NONE', ( #750, #756, #144, #678, #162, #671, #210 ), #78, .F. ) ;
#76 = DIRECTION ( 'NONE',  ( 0.0000000000000000000, -1.000000000000000000, 0.0000000000000000000 ) ) ;
#77 = LINE ( 'NONE', #267, #120 ) ;
#78 = PLANE ( 'NONE',  #227 ) ;
#79 = DIRECTION ( 'NONE',  ( 0.0000000000000000000, 0.0000000000000000000, 1.000000000000000000 ) ) ;
#80 = ORIENTED_EDGE ( 'NONE', *, *, #749, .F. ) ;
#81 = AXIS2_PLACEMENT_3D ( 'NONE', #357, #94, #215 ) ;
#82 = CARTESIAN_POINT ( 'NONE',  ( 48.49999999999992895, 0.0000000000000000000, 9.378679656440393586 ) ) ;
#83 = DIRECTION ( 'NONE',  ( -0.0000000000000000000, 1.000000000000000000, -0.0000000000000000000 ) ) ;
#84 = EDGE_CURVE ( 'NONE', #787, #626, #633, .T. ) ;
#85 = CARTESIAN_POINT ( 'NONE',  ( -8.500000000000060396, 0.0000000000000000000, 45.99999999999995737 ) ) ;
#86 = DIRECTION ( 'NONE',  ( -0.0000000000000000000, 1.000000000000000000, -0.0000000000000000000 ) ) ;
#87 = DIRECTION ( 'NONE',  ( 0.0000000000000000000, 1.000000000000000000, 0.0000000000000000000 ) ) ;
#88 = ORIENTED_EDGE ( 'NONE', *, *, #171, .F. ) ;
#89 = CARTESIAN_POINT ( 'NONE',  ( -1.008993268808253055E-14, 0.0000000000000000000, 37.40000000000001279 ) ) ;
#90 = DIRECTION ( 'NONE',  ( 0.0000000000000000000, 0.0000000000000000000, 1.000000000000000000 ) ) ;
#91 = EDGE_CURVE ( 'NONE', #730, #331, #355, .T. ) ;
#92 = CIRCLE ( 'NONE', #68, 2.600000000000000089 ) ;
#93 = DIRECTION ( 'NONE',  ( 0.0000000000000000000, 0.0000000000000000000, 1.000000000000000000 ) ) ;
#94 = DIRECTION ( 'NONE',  ( -0.0000000000000000000, 1.000000000000000000, -0.0000000000000000000 ) ) ;
#95 = AXIS2_PLACEMENT_3D ( 'NONE', #303, #836, #172 ) ;
#96 = AXIS2_PLACEMENT_3D ( 'NONE', #101, #495, #361 ) ;
#97 = EDGE_CURVE ( 'NONE', #443, #71, #409, .T. ) ;
#98 = DIRECTION ( 'NONE',  ( 0.0000000000000000000, 0.0000000000000000000, 1.000000000000000000 ) ) ;
#99 = DIRECTION ( 'NONE',  ( 0.0000000000000000000, 1.000000000000000000, 0.0000000000000000000 ) ) ;
#100 = EDGE_CURVE ( 'NONE', #635, #244, #842, .T. ) ;
#101 = CARTESIAN_POINT ( 'NONE',  ( 8.343145750507684255, 0.0000000000000000000, 45.99999999999995737 ) ) ;
#102 = DIRECTION ( 'NONE',  ( 0.0000000000000000000, 0.0000000000000000000, -1.000000000000000000 ) ) ;
#103 = ADVANCED_FACE ( 'NONE', ( #708 ), #425, .T. ) ;
#104 = DIRECTION ( 'NONE',  ( -1.000000000000000000, 0.0000000000000000000, 1.217349807703022609E-16 ) ) ;
#105 = CIRCLE ( 'NONE', #586, 2.500000000000000444 ) ;
#106 = EDGE_CURVE ( 'NONE', #387, #574, #367, .T. ) ;
#107 = AXIS2_PLACEMENT_3D ( 'NONE', #67, #390, #453 ) ;
#108 = DIRECTION ( 'NONE',  ( 0.0000000000000000000, 0.0000000000000000000, 1.000000000000000000 ) ) ;
#109 = DIRECTION ( 'NONE',  ( 0.0000000000000000000, 0.0000000000000000000, -1.000000000000000000 ) ) ;
#110 = VECTOR ( 'NONE', #615, 1000.000000000000000 ) ;
#111 = CARTESIAN_POINT ( 'NONE',  ( 40.00000000000000000, 0.0000000000000000000, 1.046169551231100233E-14 ) ) ;
#112 = FACE_OUTER_BOUND ( 'NONE', #185, .T. ) ;
#113 = DIRECTION ( 'NONE',  ( 0.0000000000000000000, 0.0000000000000000000, 1.000000000000000000 ) ) ;
#114 = EDGE_CURVE ( 'NONE', #426, #791, #649, .T. ) ;
#115 = CARTESIAN_POINT ( 'NONE',  ( 48.49999999999993605, 0.0000000000000000000, -8.500000000000044409 ) ) ;
#116 = DIRECTION ( 'NONE',  ( -3.043374519257556522E-17, 0.0000000000000000000, 1.000000000000000000 ) ) ;
#117 = AXIS2_PLACEMENT_3D ( 'NONE', #232, #713, #832 ) ;
#118 = SURFACE_STYLE_FILL_AREA ( #440 ) ;
#119 = SHAPE_DEFINITION_REPRESENTATION ( #479, #35 ) ;
#120 = VECTOR ( 'NONE', #530, 1000.000000000000000 ) ;
#121 = DIRECTION ( 'NONE',  ( 0.7071067811865479058, 0.0000000000000000000, 0.7071067811865471286 ) ) ;
#122 = DIRECTION ( 'NONE',  ( 0.0000000000000000000, 0.0000000000000000000, 1.000000000000000000 ) ) ;
#123 = ORIENTED_EDGE ( 'NONE', *, *, #360, .F. ) ;
#124 = CARTESIAN_POINT ( 'NONE',  ( 40.00000000000000000, 0.0000000000000000000, 1.046169551231100233E-14 ) ) ;
#125 = ORIENTED_EDGE ( 'NONE', *, *, #727, .F. ) ;
#126 = ADVANCED_FACE ( 'NONE', ( #840 ), #307, .T. ) ;
#127 = ORIENTED_EDGE ( 'NONE', *, *, #347, .F. ) ;
#128 = DIRECTION ( 'NONE',  ( 0.0000000000000000000, -1.000000000000000000, 0.0000000000000000000 ) ) ;
#129 = VECTOR ( 'NONE', #681, 1000.000000000000114 ) ;
#130 = AXIS2_PLACEMENT_3D ( 'NONE', #818, #157, #90 ) ;
#131 = ORIENTED_EDGE ( 'NONE', *, *, #7, .F. ) ;
#132 = LINE ( 'NONE', #209, #819 ) ;
#133 = VECTOR ( 'NONE', #558, 1000.000000000000000 ) ;
#134 = ORIENTED_EDGE ( 'NONE', *, *, #779, .F. ) ;
#135 = EDGE_CURVE ( 'NONE', #493, #276, #165, .T. ) ;
#136 = DIRECTION ( 'NONE',  ( 0.0000000000000000000, -1.000000000000000000, 0.0000000000000000000 ) ) ;
#137 = ORIENTED_EDGE ( 'NONE', *, *, #657, .T. ) ;
#138 = CYLINDRICAL_SURFACE ( 'NONE', #442, 2.500000000000000444 ) ;
#139 = EDGE_LOOP ( 'NONE', ( #286, #8, #137, #534 ) ) ;
#140 = ORIENTED_EDGE ( 'NONE', *, *, #84, .F. ) ;
#141 = DIRECTION ( 'NONE',  ( 0.0000000000000000000, 0.0000000000000000000, -1.000000000000000000 ) ) ;
#142 = EDGE_LOOP ( 'NONE', ( #255, #309, #577, #503 ) ) ;
#143 = EDGE_LOOP ( 'NONE', ( #354, #259, #547, #65 ) ) ;
#144 = FACE_BOUND ( 'NONE', #377, .T. ) ;
#145 = FACE_OUTER_BOUND ( 'NONE', #628, .T. ) ;
#146 = ORIENTED_EDGE ( 'NONE', *, *, #293, .T. ) ;
#147 = VECTOR ( 'NONE', #726, 1000.000000000000000 ) ;
#148 = AXIS2_PLACEMENT_3D ( 'NONE', #765, #237, #113 ) ;
#149 = AXIS2_PLACEMENT_3D ( 'NONE', #767, #174, #109 ) ;
#150 = CARTESIAN_POINT ( 'NONE',  ( 45.99999999999993605, 0.0000000000000000000, -6.000000000000043521 ) ) ;
#151 = DIRECTION ( 'NONE',  ( -0.0000000000000000000, 1.000000000000000000, -0.0000000000000000000 ) ) ;
#152 = DIRECTION ( 'NONE',  ( -0.0000000000000000000, 1.000000000000000000, -0.0000000000000000000 ) ) ;
#153 = DIRECTION ( 'NONE',  ( -1.000000000000000000, 0.0000000000000000000, 1.217349807703022609E-16 ) ) ;
#154 = ORIENTED_EDGE ( 'NONE', *, *, #592, .F. ) ;
#155 = CARTESIAN_POINT ( 'NONE',  ( 48.49999999999992895, 0.0000000000000000000, 9.378679656440393586 ) ) ;
#156 = EDGE_CURVE ( 'NONE', #791, #426, #459, .T. ) ;
#157 = DIRECTION ( 'NONE',  ( -0.0000000000000000000, 1.000000000000000000, -0.0000000000000000000 ) ) ;
#158 = VERTEX_POINT ( 'NONE', #48 ) ;
#159 = ORIENTED_EDGE ( 'NONE', *, *, #91, .T. ) ;
#160 = ORIENTED_EDGE ( 'NONE', *, *, #418, .F. ) ;
#161 = EDGE_LOOP ( 'NONE', ( #847, #218, #127, #576 ) ) ;
#162 = FACE_BOUND ( 'NONE', #766, .T. ) ;
#163 = CLOSED_SHELL ( 'NONE', ( #240, #834, #433, #545, #641, #301, #710, #570, #667, #206, #55, #231, #75, #39, #319, #828, #660, #599, #551, #103, #806, #428, #126, #515 ) ) ;
#164 = ORIENTED_EDGE ( 'NONE', *, *, #222, .T. ) ;
#165 = CIRCLE ( 'NONE', #268, 2.599999999999996092 ) ;
#166 = EDGE_CURVE ( 'NONE', #754, #821, #760, .T. ) ;
#167 = CARTESIAN_POINT ( 'NONE',  ( -6.000000000000054179, 0.0000000000000000000, -8.500000000000037303 ) ) ;
#168 = CARTESIAN_POINT ( 'NONE',  ( 45.99999999999992895, 2.000000000000000000, 8.343145750507666492 ) ) ;
#169 = VERTEX_POINT ( 'NONE', #241 ) ;
#170 = DIRECTION ( 'NONE',  ( 0.0000000000000000000, 1.000000000000000000, 0.0000000000000000000 ) ) ;
#171 = EDGE_CURVE ( 'NONE', #410, #829, #623, .T. ) ;
#172 = DIRECTION ( 'NONE',  ( 0.0000000000000000000, 0.0000000000000000000, 1.000000000000000000 ) ) ;
#173 = DIRECTION ( 'NONE',  ( 0.0000000000000000000, 1.000000000000000000, 0.0000000000000000000 ) ) ;
#174 = DIRECTION ( 'NONE',  ( 0.0000000000000000000, -1.000000000000000000, 0.0000000000000000000 ) ) ;
#175 = EDGE_CURVE ( 'NONE', #798, #314, #630, .T. ) ;
#176 = CIRCLE ( 'NONE', #12, 2.599999999999998312 ) ;
#177 = EDGE_CURVE ( 'NONE', #620, #754, #322, .T. ) ;
#178 = CARTESIAN_POINT ( 'NONE',  ( 22.57537879754124432, 2.000000000000000000, 25.17537879754125285 ) ) ;
#179 = DIRECTION ( 'NONE',  ( 0.0000000000000000000, 1.000000000000000000, 0.0000000000000000000 ) ) ;
#180 = CARTESIAN_POINT ( 'NONE',  ( 40.00000000000000000, 0.0000000000000000000, 1.046169551231100233E-14 ) ) ;
#181 = CYLINDRICAL_SURFACE ( 'NONE', #2, 2.599999999999999645 ) ;
#182 = EDGE_CURVE ( 'NONE', #40, #580, #774, .T. ) ;
#183 = CARTESIAN_POINT ( 'NONE',  ( 40.00000000000000000, 2.000000000000000000, 1.046169551231100233E-14 ) ) ;
#184 = EDGE_LOOP ( 'NONE', ( #30, #213, #353, #160 ) ) ;
#185 = EDGE_LOOP ( 'NONE', ( #532, #88, #379, #285 ) ) ;
#186 = AXIS2_PLACEMENT_3D ( 'NONE', #441, #53, #716 ) ;
#187 = APPLICATION_PROTOCOL_DEFINITION ( 'draft international standard', 'automotive_design', 1998, #427 ) ;
#188 = AXIS2_PLACEMENT_3D ( 'NONE', #280, #152, #686 ) ;
#189 = VERTEX_POINT ( 'NONE', #395 ) ;
#190 = ORIENTED_EDGE ( 'NONE', *, *, #344, .T. ) ;
#191 = DIRECTION ( 'NONE',  ( 0.0000000000000000000, 0.0000000000000000000, 1.000000000000000000 ) ) ;
#192 = DIRECTION ( 'NONE',  ( 0.0000000000000000000, 0.0000000000000000000, 1.000000000000000000 ) ) ;
#193 = CIRCLE ( 'NONE', #742, 2.500000000000000444 ) ;
#194 = AXIS2_PLACEMENT_3D ( 'NONE', #365, #99, #776 ) ;
#195 = PRODUCT_RELATED_PRODUCT_CATEGORY ( 'part', '', ( #771 ) ) ;
#196 = EDGE_LOOP ( 'NONE', ( #333, #72 ) ) ;
#197 = ORIENTED_EDGE ( 'NONE', *, *, #609, .T. ) ;
#198 = CARTESIAN_POINT ( 'NONE',  ( 20.00000000000000355, 0.0000000000000000000, 1.040834085586084257E-14 ) ) ;
#199 = AXIS2_PLACEMENT_3D ( 'NONE', #66, #121, #444 ) ;
#200 = CARTESIAN_POINT ( 'NONE',  ( 48.49999999999993605, 0.0000000000000000000, -6.000000000000041744 ) ) ;
#201 = VERTEX_POINT ( 'NONE', #311 ) ;
#202 = CARTESIAN_POINT ( 'NONE',  ( 20.00000000000000355, 0.0000000000000000000, 1.040834085586084257E-14 ) ) ;
#203 = FACE_OUTER_BOUND ( 'NONE', #376, .T. ) ;
#204 = CARTESIAN_POINT ( 'NONE',  ( -1.008993268808253055E-14, 2.000000000000000000, 37.40000000000001279 ) ) ;
#205 = DIRECTION ( 'NONE',  ( 1.000000000000000000, 0.0000000000000000000, 0.0000000000000000000 ) ) ;
#206 = ADVANCED_FACE ( 'NONE', ( #718 ), #504, .T. ) ;
#207 = FACE_BOUND ( 'NONE', #717, .T. ) ;
#208 = CARTESIAN_POINT ( 'NONE',  ( -8.500000000000058620, 2.000000000000000000, -6.000000000000036415 ) ) ;
#209 = CARTESIAN_POINT ( 'NONE',  ( -8.500000000000060396, 2.000000000000000000, 48.49999999999995737 ) ) ;
#210 = FACE_OUTER_BOUND ( 'NONE', #692, .T. ) ;
#211 = VECTOR ( 'NONE', #463, 1000.000000000000000 ) ;
#212 = LINE ( 'NONE', #155, #211 ) ;
#213 = ORIENTED_EDGE ( 'NONE', *, *, #374, .F. ) ;
#214 = STYLED_ITEM ( 'NONE', ( #475 ), #60 ) ;
#215 = DIRECTION ( 'NONE',  ( 0.0000000000000000000, 0.0000000000000000000, -1.000000000000000000 ) ) ;
#216 = ORIENTED_EDGE ( 'NONE', *, *, #135, .F. ) ;
#217 = DIRECTION ( 'NONE',  ( 0.0000000000000000000, 0.0000000000000000000, 1.000000000000000000 ) ) ;
#218 = ORIENTED_EDGE ( 'NONE', *, *, #49, .T. ) ;
#219 = ORIENTED_EDGE ( 'NONE', *, *, #347, .T. ) ;
#220 = FACE_BOUND ( 'NONE', #655, .T. ) ;
#221 = LINE ( 'NONE', #288, #508 ) ;
#222 = EDGE_CURVE ( 'NONE', #688, #747, #843, .T. ) ;
#223 = ORIENTED_EDGE ( 'NONE', *, *, #812, .T. ) ;
#224 = AXIS2_PLACEMENT_3D ( 'NONE', #202, #461, #607 ) ;
#225 = CIRCLE ( 'NONE', #567, 2.599999999999998312 ) ;
#226 = CARTESIAN_POINT ( 'NONE',  ( 40.00000000000000000, 0.0000000000000000000, -2.599999999999985434 ) ) ;
#227 = AXIS2_PLACEMENT_3D ( 'NONE', #338, #402, #351 ) ;
#228 = DIRECTION ( 'NONE',  ( 0.0000000000000000000, 1.000000000000000000, 0.0000000000000000000 ) ) ;
#229 = PLANE ( 'NONE',  #251 ) ;
#230 = ORIENTED_EDGE ( 'NONE', *, *, #171, .T. ) ;
#231 = ADVANCED_FACE ( 'NONE', ( #668 ), #853, .T. ) ;
#232 = CARTESIAN_POINT ( 'NONE',  ( 40.00000000000000000, 0.0000000000000000000, 1.046169551231100233E-14 ) ) ;
#233 = ORIENTED_EDGE ( 'NONE', *, *, #721, .T. ) ;
#234 = LINE ( 'NONE', #115, #389 ) ;
#235 = VECTOR ( 'NONE', #391, 1000.000000000000000 ) ;
#236 = CIRCLE ( 'NONE', #52, 2.500000000000002220 ) ;
#237 = DIRECTION ( 'NONE',  ( 0.0000000000000000000, 1.000000000000000000, 0.0000000000000000000 ) ) ;
#238 = FACE_OUTER_BOUND ( 'NONE', #724, .T. ) ;
#239 = AXIS2_PLACEMENT_3D ( 'NONE', #257, #317, #384 ) ;
#240 = ADVANCED_FACE ( 'NONE', ( #518 ), #848, .F. ) ;
#241 = CARTESIAN_POINT ( 'NONE',  ( 47.76776695296629072, 0.0000000000000000000, 10.11091270347403537 ) ) ;
#242 = CARTESIAN_POINT ( 'NONE',  ( 8.343145750507684255, 0.0000000000000000000, 45.99999999999995737 ) ) ;
#243 = ORIENTED_EDGE ( 'NONE', *, *, #758, .T. ) ;
#244 = VERTEX_POINT ( 'NONE', #248 ) ;
#245 = DIRECTION ( 'NONE',  ( 0.0000000000000000000, 1.000000000000000000, 0.0000000000000000000 ) ) ;
#246 = EDGE_CURVE ( 'NONE', #829, #410, #650, .T. ) ;
#247 = ORIENTED_EDGE ( 'NONE', *, *, #106, .T. ) ;
#248 = CARTESIAN_POINT ( 'NONE',  ( 22.57537879754124432, 2.000000000000000000, 19.97537879754125711 ) ) ;
#249 = AXIS2_PLACEMENT_3D ( 'NONE', #516, #788, #191 ) ;
#250 = CARTESIAN_POINT ( 'NONE',  ( 40.00000000000000000, 0.0000000000000000000, 2.600000000000006306 ) ) ;
#251 = AXIS2_PLACEMENT_3D ( 'NONE', #434, #363, #46 ) ;
#252 = AXIS2_PLACEMENT_3D ( 'NONE', #305, #568, #32 ) ;
#253 =( NAMED_UNIT ( * ) PLANE_ANGLE_UNIT ( ) SI_UNIT ( $, .RADIAN. ) );
#254 = DIRECTION ( 'NONE',  ( -1.000000000000000000, 0.0000000000000000000, -3.043374519257556522E-17 ) ) ;
#255 = ORIENTED_EDGE ( 'NONE', *, *, #1, .F. ) ;
#256 = ORIENTED_EDGE ( 'NONE', *, *, #156, .F. ) ;
#257 = CARTESIAN_POINT ( 'NONE',  ( -1.040834085586084257E-14, 2.000000000000000000, 20.00000000000000355 ) ) ;
#258 = CARTESIAN_POINT ( 'NONE',  ( 20.00000000000000355, 2.000000000000000000, -2.599999999999988987 ) ) ;
#259 = ORIENTED_EDGE ( 'NONE', *, *, #796, .F. ) ;
#260 = VERTEX_POINT ( 'NONE', #658 ) ;
#261 = CARTESIAN_POINT ( 'NONE',  ( -1.040834085586084257E-14, 0.0000000000000000000, 20.00000000000000355 ) ) ;
#262 = DIRECTION ( 'NONE',  ( 0.7071067811865470176, 0.0000000000000000000, -0.7071067811865479058 ) ) ;
#263 = ORIENTED_EDGE ( 'NONE', *, *, #358, .F. ) ;
#264 = EDGE_LOOP ( 'NONE', ( #696, #852, #714, #282 ) ) ;
#265 = CARTESIAN_POINT ( 'NONE',  ( 47.76776695296629072, 2.000000000000000000, 10.11091270347403537 ) ) ;
#266 = DIRECTION ( 'NONE',  ( 0.0000000000000000000, 0.0000000000000000000, -1.000000000000000000 ) ) ;
#267 = CARTESIAN_POINT ( 'NONE',  ( -8.500000000000058620, 0.0000000000000000000, -6.000000000000036415 ) ) ;
#268 = AXIS2_PLACEMENT_3D ( 'NONE', #180, #762, #436 ) ;
#269 = EDGE_CURVE ( 'NONE', #493, #460, #782, .T. ) ;
#270 = CARTESIAN_POINT ( 'NONE',  ( -8.500000000000058620, 0.0000000000000000000, -6.000000000000036415 ) ) ;
#271 = CARTESIAN_POINT ( 'NONE',  ( 48.49999999999993605, 2.000000000000000000, -6.000000000000041744 ) ) ;
#272 = LINE ( 'NONE', #22, #815 ) ;
#273 = EDGE_CURVE ( 'NONE', #406, #387, #386, .T. ) ;
#274 = CARTESIAN_POINT ( 'NONE',  ( -1.040834085586084257E-14, 0.0000000000000000000, 40.00000000000000711 ) ) ;
#275 = FACE_OUTER_BOUND ( 'NONE', #732, .T. ) ;
#276 = VERTEX_POINT ( 'NONE', #521 ) ;
#277 = VECTOR ( 'NONE', #566, 1000.000000000000000 ) ;
#278 = FACE_BOUND ( 'NONE', #348, .T. ) ;
#279 = AXIS2_PLACEMENT_3D ( 'NONE', #345, #753, #816 ) ;
#280 = CARTESIAN_POINT ( 'NONE',  ( -6.000000000000054179, 2.000000000000000000, -6.000000000000036415 ) ) ;
#281 = DIRECTION ( 'NONE',  ( -0.0000000000000000000, 1.000000000000000000, -0.0000000000000000000 ) ) ;
#282 = ORIENTED_EDGE ( 'NONE', *, *, #487, .F. ) ;
#283 = VERTEX_POINT ( 'NONE', #594 ) ;
#284 = CARTESIAN_POINT ( 'NONE',  ( 22.57537879754124432, 2.000000000000000000, 22.57537879754125498 ) ) ;
#285 = ORIENTED_EDGE ( 'NONE', *, *, #592, .T. ) ;
#286 = ORIENTED_EDGE ( 'NONE', *, *, #293, .F. ) ;
#287 = CARTESIAN_POINT ( 'NONE',  ( 40.00000000000000000, 2.000000000000000000, 1.046169551231100233E-14 ) ) ;
#288 = CARTESIAN_POINT ( 'NONE',  ( -1.008993268808253055E-14, 0.0000000000000000000, 17.40000000000000213 ) ) ;
#289 = ORIENTED_EDGE ( 'NONE', *, *, #687, .F. ) ;
#290 = CIRCLE ( 'NONE', #224, 2.599999999999999645 ) ;
#291 = AXIS2_PLACEMENT_3D ( 'NONE', #346, #540, #20 ) ;
#292 = FACE_OUTER_BOUND ( 'NONE', #74, .T. ) ;
#293 = EDGE_CURVE ( 'NONE', #443, #260, #552, .T. ) ;
#294 = ORIENTED_EDGE ( 'NONE', *, *, #360, .T. ) ;
#295 = DIRECTION ( 'NONE',  ( 0.0000000000000000000, 0.0000000000000000000, 1.000000000000000000 ) ) ;
#296 = ORIENTED_EDGE ( 'NONE', *, *, #273, .F. ) ;
#297 = DIRECTION ( 'NONE',  ( -0.0000000000000000000, 1.000000000000000000, -0.0000000000000000000 ) ) ;
#298 = DIRECTION ( 'NONE',  ( 0.0000000000000000000, -1.000000000000000000, 0.0000000000000000000 ) ) ;
#299 = EDGE_LOOP ( 'NONE', ( #337, #328, #739, #684 ) ) ;
#300 = EDGE_LOOP ( 'NONE', ( #618, #549, #593, #520 ) ) ;
#301 = ADVANCED_FACE ( 'NONE', ( #533 ), #800, .F. ) ;
#302 = LINE ( 'NONE', #167, #405 ) ;
#303 = CARTESIAN_POINT ( 'NONE',  ( 45.99999999999993605, 0.0000000000000000000, -6.000000000000043521 ) ) ;
#304 = DIRECTION ( 'NONE',  ( 0.0000000000000000000, -1.000000000000000000, 0.0000000000000000000 ) ) ;
#305 = CARTESIAN_POINT ( 'NONE',  ( -1.040834085586084257E-14, 0.0000000000000000000, 20.00000000000000355 ) ) ;
#306 = VECTOR ( 'NONE', #205, 1000.000000000000000 ) ;
#307 = CYLINDRICAL_SURFACE ( 'NONE', #96, 2.500000000000002220 ) ;
#308 = DIRECTION ( 'NONE',  ( -0.0000000000000000000, 1.000000000000000000, -0.0000000000000000000 ) ) ;
#309 = ORIENTED_EDGE ( 'NONE', *, *, #327, .T. ) ;
#310 = ORIENTED_EDGE ( 'NONE', *, *, #758, .F. ) ;
#311 = CARTESIAN_POINT ( 'NONE',  ( 3.184081677783118191E-16, 2.000000000000000000, -2.600000000000000089 ) ) ;
#312 = EDGE_CURVE ( 'NONE', #44, #189, #290, .T. ) ;
#313 = CARTESIAN_POINT ( 'NONE',  ( -6.000000000000059508, 0.0000000000000000000, 45.99999999999995737 ) ) ;
#314 = VERTEX_POINT ( 'NONE', #271 ) ;
#315 = ORIENTED_EDGE ( 'NONE', *, *, #114, .T. ) ;
#316 = EDGE_LOOP ( 'NONE', ( #329, #321 ) ) ;
#317 = DIRECTION ( 'NONE',  ( 0.0000000000000000000, 1.000000000000000000, 0.0000000000000000000 ) ) ;
#318 = ORIENTED_EDGE ( 'NONE', *, *, #23, .T. ) ;
#319 = ADVANCED_FACE ( 'NONE', ( #675 ), #19, .F. ) ;
#320 = EDGE_LOOP ( 'NONE', ( #759, #591, #233, #394 ) ) ;
#321 = ORIENTED_EDGE ( 'NONE', *, *, #182, .F. ) ;
#322 = LINE ( 'NONE', #438, #56 ) ;
#323 = AXIS2_PLACEMENT_3D ( 'NONE', #274, #341, #93 ) ;
#324 = CARTESIAN_POINT ( 'NONE',  ( -1.040834085586084257E-14, 2.000000000000000000, 40.00000000000000711 ) ) ;
#325 = ORIENTED_EDGE ( 'NONE', *, *, #565, .F. ) ;
#326 = ORIENTED_EDGE ( 'NONE', *, *, #612, .F. ) ;
#327 = EDGE_CURVE ( 'NONE', #626, #761, #467, .T. ) ;
#328 = ORIENTED_EDGE ( 'NONE', *, *, #418, .T. ) ;
#329 = ORIENTED_EDGE ( 'NONE', *, *, #621, .F. ) ;
#330 = LINE ( 'NONE', #801, #689 ) ;
#331 = VERTEX_POINT ( 'NONE', #208 ) ;
#332 = EDGE_CURVE ( 'NONE', #201, #574, #92, .T. ) ;
#333 = ORIENTED_EDGE ( 'NONE', *, *, #609, .F. ) ;
#334 = EDGE_LOOP ( 'NONE', ( #597, #437, #738, #31 ) ) ;
#335 = CARTESIAN_POINT ( 'NONE',  ( 0.0000000000000000000, 0.0000000000000000000, 2.600000000000000089 ) ) ;
#336 = LINE ( 'NONE', #407, #129 ) ;
#337 = ORIENTED_EDGE ( 'NONE', *, *, #687, .T. ) ;
#338 = CARTESIAN_POINT ( 'NONE',  ( 0.0000000000000000000, 2.000000000000000000, 0.0000000000000000000 ) ) ;
#339 = FACE_OUTER_BOUND ( 'NONE', #139, .T. ) ;
#340 = AXIS2_PLACEMENT_3D ( 'NONE', #287, #179, #839 ) ;
#341 = DIRECTION ( 'NONE',  ( 0.0000000000000000000, 1.000000000000000000, 0.0000000000000000000 ) ) ;
#342 = DIRECTION ( 'NONE',  ( 0.0000000000000000000, 0.0000000000000000000, 1.000000000000000000 ) ) ;
#343 = CARTESIAN_POINT ( 'NONE',  ( -8.500000000000058620, 0.0000000000000000000, -8.500000000000037303 ) ) ;
#344 = EDGE_CURVE ( 'NONE', #644, #602, #193, .T. ) ;
#345 = CARTESIAN_POINT ( 'NONE',  ( -8.500000000000060396, 0.0000000000000000000, 48.49999999999995737 ) ) ;
#346 = CARTESIAN_POINT ( 'NONE',  ( 22.57537879754124432, -8.000000000000000000, 22.57537879754125498 ) ) ;
#347 = EDGE_CURVE ( 'NONE', #821, #673, #336, .T. ) ;
#348 = EDGE_LOOP ( 'NONE', ( #613, #610 ) ) ;
#349 = DIRECTION ( 'NONE',  ( 0.0000000000000000000, 0.0000000000000000000, 1.000000000000000000 ) ) ;
#350 = ORIENTED_EDGE ( 'NONE', *, *, #222, .F. ) ;
#351 = DIRECTION ( 'NONE',  ( 0.0000000000000000000, -0.0000000000000000000, -1.000000000000000000 ) ) ;
#352 = FACE_OUTER_BOUND ( 'NONE', #605, .T. ) ;
#353 = ORIENTED_EDGE ( 'NONE', *, *, #452, .F. ) ;
#354 = ORIENTED_EDGE ( 'NONE', *, *, #362, .F. ) ;
#355 = CIRCLE ( 'NONE', #188, 2.500000000000000444 ) ;
#356 = CARTESIAN_POINT ( 'NONE',  ( 20.00000000000000355, 0.0000000000000000000, -2.599999999999988987 ) ) ;
#357 = CARTESIAN_POINT ( 'NONE',  ( 45.99999999999993605, 2.000000000000000000, -6.000000000000043521 ) ) ;
#358 = EDGE_CURVE ( 'NONE', #369, #804, #105, .T. ) ;
#359 = LINE ( 'NONE', #773, #24 ) ;
#360 = EDGE_CURVE ( 'NONE', #761, #465, #813, .T. ) ;
#361 = DIRECTION ( 'NONE',  ( 0.0000000000000000000, 0.0000000000000000000, 1.000000000000000000 ) ) ;
#362 = EDGE_CURVE ( 'NONE', #44, #426, #529, .T. ) ;
#363 = DIRECTION ( 'NONE',  ( -1.217349807703022609E-16, 0.0000000000000000000, -1.000000000000000000 ) ) ;
#364 = ORIENTED_EDGE ( 'NONE', *, *, #26, .T. ) ;
#365 = CARTESIAN_POINT ( 'NONE',  ( 20.00000000000000355, 0.0000000000000000000, 1.040834085586084257E-14 ) ) ;
#366 = AXIS2_PLACEMENT_3D ( 'NONE', #111, #173, #368 ) ;
#367 = LINE ( 'NONE', #491, #527 ) ;
#368 = DIRECTION ( 'NONE',  ( 0.0000000000000000000, 0.0000000000000000000, 1.000000000000000000 ) ) ;
#369 = VERTEX_POINT ( 'NONE', #270 ) ;
#370 = CARTESIAN_POINT ( 'NONE',  ( 20.00000000000000355, 0.0000000000000000000, 2.600000000000009859 ) ) ;
#371 = DIRECTION ( 'NONE',  ( -0.0000000000000000000, 1.000000000000000000, -0.0000000000000000000 ) ) ;
#372 = DIRECTION ( 'NONE',  ( 0.0000000000000000000, 0.0000000000000000000, 1.000000000000000000 ) ) ;
#373 = CARTESIAN_POINT ( 'NONE',  ( 20.00000000000000355, 2.000000000000000000, 2.600000000000009859 ) ) ;
#374 = EDGE_CURVE ( 'NONE', #647, #644, #70, .T. ) ;
#375 = AXIS2_PLACEMENT_3D ( 'NONE', #183, #704, #488 ) ;
#376 = EDGE_LOOP ( 'NONE', ( #325, #383, #247, #243 ) ) ;
#377 = EDGE_LOOP ( 'NONE', ( #134, #416 ) ) ;
#378 = CARTESIAN_POINT ( 'NONE',  ( 45.99999999999993605, 0.0000000000000000000, -8.500000000000044409 ) ) ;
#379 = ORIENTED_EDGE ( 'NONE', *, *, #727, .T. ) ;
#380 = DIRECTION ( 'NONE',  ( -0.0000000000000000000, 1.000000000000000000, -0.0000000000000000000 ) ) ;
#381 = APPLICATION_CONTEXT ( 'automotive_design' ) ;
#382 =( NAMED_UNIT ( * ) SI_UNIT ( $, .STERADIAN. ) SOLID_ANGLE_UNIT ( ) );
#383 = ORIENTED_EDGE ( 'NONE', *, *, #563, .F. ) ;
#384 = DIRECTION ( 'NONE',  ( 0.0000000000000000000, 0.0000000000000000000, 1.000000000000000000 ) ) ;
#385 = LINE ( 'NONE', #343, #54 ) ;
#387 = VERTEX_POINT ( 'NONE', #335 ) ;
#386 = CIRCLE ( 'NONE', #249, 2.600000000000000089 ) ;
#388 = CARTESIAN_POINT ( 'NONE',  ( -1.040834085586084257E-14, 0.0000000000000000000, 40.00000000000000711 ) ) ;
#389 = VECTOR ( 'NONE', #104, 1000.000000000000000 ) ;
#390 = DIRECTION ( 'NONE',  ( -0.0000000000000000000, 1.000000000000000000, -0.0000000000000000000 ) ) ;
#391 = DIRECTION ( 'NONE',  ( -0.0000000000000000000, 1.000000000000000000, -0.0000000000000000000 ) ) ;
#392 = EDGE_CURVE ( 'NONE', #6, #169, #330, .T. ) ;
#393 = AXIS2_PLACEMENT_3D ( 'NONE', #500, #484, #98 ) ;
#394 = ORIENTED_EDGE ( 'NONE', *, *, #741, .T. ) ;
#395 = CARTESIAN_POINT ( 'NONE',  ( 20.00000000000000355, 0.0000000000000000000, 2.600000000000009859 ) ) ;
#396 = DIRECTION ( 'NONE',  ( -3.043374519257556522E-17, 0.0000000000000000000, 1.000000000000000000 ) ) ;
#397 = CARTESIAN_POINT ( 'NONE',  ( -6.000000000000059508, 0.0000000000000000000, 45.99999999999995737 ) ) ;
#398 = DIRECTION ( 'NONE',  ( 0.0000000000000000000, 1.000000000000000000, 0.0000000000000000000 ) ) ;
#399 = CARTESIAN_POINT ( 'NONE',  ( 45.99999999999992895, 0.0000000000000000000, 8.343145750507666492 ) ) ;
#400 = ORIENTED_EDGE ( 'NONE', *, *, #182, .T. ) ;
#401 = CARTESIAN_POINT ( 'NONE',  ( -6.000000000000059508, 0.0000000000000000000, 48.49999999999995737 ) ) ;
#402 = DIRECTION ( 'NONE',  ( 0.0000000000000000000, -1.000000000000000000, 0.0000000000000000000 ) ) ;
#403 = CYLINDRICAL_SURFACE ( 'NONE', #291, 2.599999999999998312 ) ;
#404 = CIRCLE ( 'NONE', #148, 2.600000000000000089 ) ;
#405 = VECTOR ( 'NONE', #170, 1000.000000000000000 ) ;
#406 = VERTEX_POINT ( 'NONE', #797 ) ;
#407 = CARTESIAN_POINT ( 'NONE',  ( 9.378679656440418455, 2.000000000000000000, 48.49999999999995737 ) ) ;
#408 = CARTESIAN_POINT ( 'NONE',  ( 0.0000000000000000000, 0.0000000000000000000, 0.0000000000000000000 ) ) ;
#409 = LINE ( 'NONE', #89, #110 ) ;
#410 = VERTEX_POINT ( 'NONE', #596 ) ;
#411 = FACE_OUTER_BOUND ( 'NONE', #15, .T. ) ;
#412 = CARTESIAN_POINT ( 'NONE',  ( 47.76776695296629782, 0.0000000000000000000, 10.11091270347403537 ) ) ;
#413 = LINE ( 'NONE', #683, #645 ) ;
#414 = EDGE_CURVE ( 'NONE', #761, #620, #10, .T. ) ;
#415 = CARTESIAN_POINT ( 'NONE',  ( 22.57537879754124432, 0.0000000000000000000, 19.97537879754125711 ) ) ;
#416 = ORIENTED_EDGE ( 'NONE', *, *, #657, .F. ) ;
#417 = VECTOR ( 'NONE', #466, 1000.000000000000000 ) ;
#418 = EDGE_CURVE ( 'NONE', #602, #314, #672, .T. ) ;
#419 = ORIENTED_EDGE ( 'NONE', *, *, #699, .F. ) ;
#420 = PRODUCT_DEFINITION_FORMATION_WITH_SPECIFIED_SOURCE ( 'ANY', '', #771, .NOT_KNOWN. ) ;
#421 = AXIS2_PLACEMENT_3D ( 'NONE', #768, #831, #700 ) ;
#422 = CARTESIAN_POINT ( 'NONE',  ( -1.040834085586084257E-14, 0.0000000000000000000, 42.60000000000000853 ) ) ;
#423 = ORIENTED_EDGE ( 'NONE', *, *, #16, .T. ) ;
#424 = CARTESIAN_POINT ( 'NONE',  ( 8.343145750507684255, 2.000000000000000000, 48.49999999999995737 ) ) ;
#425 = CYLINDRICAL_SURFACE ( 'NONE', #95, 2.500000000000000000 ) ;
#426 = VERTEX_POINT ( 'NONE', #258 ) ;
#427 = APPLICATION_CONTEXT ( 'automotive_design' ) ;
#428 = ADVANCED_FACE ( 'NONE', ( #735 ), #138, .T. ) ;
#429 = CARTESIAN_POINT ( 'NONE',  ( 48.49999999999993605, 0.0000000000000000000, -6.000000000000041744 ) ) ;
#430 = ORIENTED_EDGE ( 'NONE', *, *, #16, .F. ) ;
#431 = CIRCLE ( 'NONE', #631, 2.600000000000001421 ) ;
#432 = VECTOR ( 'NONE', #371, 1000.000000000000000 ) ;
#433 = ADVANCED_FACE ( 'NONE', ( #339 ), #18, .F. ) ;
#434 = CARTESIAN_POINT ( 'NONE',  ( 48.49999999999993605, 0.0000000000000000000, -8.500000000000044409 ) ) ;
#435 = FACE_OUTER_BOUND ( 'NONE', #457, .T. ) ;
#436 = DIRECTION ( 'NONE',  ( 0.0000000000000000000, 0.0000000000000000000, 1.000000000000000000 ) ) ;
#437 = ORIENTED_EDGE ( 'NONE', *, *, #844, .F. ) ;
#438 = CARTESIAN_POINT ( 'NONE',  ( 8.343145750507684255, 0.0000000000000000000, 48.49999999999995737 ) ) ;
#439 = DIRECTION ( 'NONE',  ( 0.0000000000000000000, 0.0000000000000000000, -1.000000000000000000 ) ) ;
#440 = FILL_AREA_STYLE ('',( #579 ) ) ;
#441 = CARTESIAN_POINT ( 'NONE',  ( 0.0000000000000000000, 0.0000000000000000000, 0.0000000000000000000 ) ) ;
#442 = AXIS2_PLACEMENT_3D ( 'NONE', #399, #604, #79 ) ;
#443 = VERTEX_POINT ( 'NONE', #679 ) ;
#444 = DIRECTION ( 'NONE',  ( 0.7071067811865471286, 0.0000000000000000000, -0.7071067811865479058 ) ) ;
#445 = AXIS2_PLACEMENT_3D ( 'NONE', #703, #632, #711 ) ;
#446 = DIRECTION ( 'NONE',  ( -0.0000000000000000000, 1.000000000000000000, -0.0000000000000000000 ) ) ;
#447 = ORIENTED_EDGE ( 'NONE', *, *, #91, .F. ) ;
#448 = EDGE_CURVE ( 'NONE', #829, #688, #221, .T. ) ;
#449 = ORIENTED_EDGE ( 'NONE', *, *, #269, .F. ) ;
#450 = UNCERTAINTY_MEASURE_WITH_UNIT (LENGTH_MEASURE( 1.000000000000000082E-05 ), #651, 'distance_accuracy_value', 'NONE');
#451 = ORIENTED_EDGE ( 'NONE', *, *, #779, .T. ) ;
#452 = EDGE_CURVE ( 'NONE', #314, #647, #676, .T. ) ;
#453 = DIRECTION ( 'NONE',  ( 0.0000000000000000000, 0.0000000000000000000, 1.000000000000000000 ) ) ;
#454 = CARTESIAN_POINT ( 'NONE',  ( 20.00000000000000355, 0.0000000000000000000, -2.599999999999988987 ) ) ;
#455 = VECTOR ( 'NONE', #808, 1000.000000000000000 ) ;
#456 = CIRCLE ( 'NONE', #691, 2.599999999999998312 ) ;
#457 = EDGE_LOOP ( 'NONE', ( #263, #838, #447, #526 ) ) ;
#458 = EDGE_LOOP ( 'NONE', ( #794, #648 ) ) ;
#459 = CIRCLE ( 'NONE', #802, 2.599999999999999645 ) ;
#460 = VERTEX_POINT ( 'NONE', #824 ) ;
#461 = DIRECTION ( 'NONE',  ( 0.0000000000000000000, 1.000000000000000000, 0.0000000000000000000 ) ) ;
#462 = EDGE_CURVE ( 'NONE', #244, #635, #456, .T. ) ;
#463 = DIRECTION ( 'NONE',  ( 3.881099744078489710E-16, 0.0000000000000000000, -1.000000000000000000 ) ) ;
#464 = CARTESIAN_POINT ( 'NONE',  ( -6.000000000000054179, 0.0000000000000000000, -6.000000000000036415 ) ) ;
#465 = VERTEX_POINT ( 'NONE', #536 ) ;
#466 = DIRECTION ( 'NONE',  ( -0.0000000000000000000, 1.000000000000000000, 0.0000000000000000000 ) ) ;
#467 = LINE ( 'NONE', #401, #455 ) ;
#468 = CARTESIAN_POINT ( 'NONE',  ( 10.11091270347405136, 0.0000000000000000000, 47.76776695296632624 ) ) ;
#469 = SURFACE_SIDE_STYLE ('',( #820 ) ) ;
#470 = AXIS2_PLACEMENT_3D ( 'NONE', #198, #83, #342 ) ;
#471 = VECTOR ( 'NONE', #723, 1000.000000000000000 ) ;
#472 = AXIS2_PLACEMENT_3D ( 'NONE', #124, #514, #507 ) ;
#473 = ORIENTED_EDGE ( 'NONE', *, *, #561, .T. ) ;
#474 = PLANE ( 'NONE',  #770 ) ;
#475 = PRESENTATION_STYLE_ASSIGNMENT (( #690 ) ) ;
#476 = DIRECTION ( 'NONE',  ( -0.0000000000000000000, -1.000000000000000000, -0.0000000000000000000 ) ) ;
#477 = EDGE_CURVE ( 'NONE', #821, #6, #413, .T. ) ;
#478 = EDGE_LOOP ( 'NONE', ( #541, #846, #315, #80 ) ) ;
#479 = PRODUCT_DEFINITION_SHAPE ( 'NONE', 'NONE',  #41 ) ;
#480 = ORIENTED_EDGE ( 'NONE', *, *, #524, .T. ) ;
#481 = AXIS2_PLACEMENT_3D ( 'NONE', #313, #562, #849 ) ;
#482 = LINE ( 'NONE', #370, #432 ) ;
#483 = ORIENTED_EDGE ( 'NONE', *, *, #699, .T. ) ;
#484 = DIRECTION ( 'NONE',  ( 0.0000000000000000000, 1.000000000000000000, 0.0000000000000000000 ) ) ;
#485 = LINE ( 'NONE', #422, #554 ) ;
#486 = DIRECTION ( 'NONE',  ( -0.0000000000000000000, 1.000000000000000000, -0.0000000000000000000 ) ) ;
#487 = EDGE_CURVE ( 'NONE', #580, #635, #625, .T. ) ;
#488 = DIRECTION ( 'NONE',  ( 0.0000000000000000000, 0.0000000000000000000, 1.000000000000000000 ) ) ;
#489 = ORIENTED_EDGE ( 'NONE', *, *, #636, .F. ) ;
#490 = CARTESIAN_POINT ( 'NONE',  ( -6.000000000000054179, 2.000000000000000000, -8.500000000000037303 ) ) ;
#491 = CARTESIAN_POINT ( 'NONE',  ( 0.0000000000000000000, 0.0000000000000000000, 2.600000000000000089 ) ) ;
#492 = LINE ( 'NONE', #496, #616 ) ;
#493 = VERTEX_POINT ( 'NONE', #226 ) ;
#494 = AXIS2_PLACEMENT_3D ( 'NONE', #740, #380, #656 ) ;
#495 = DIRECTION ( 'NONE',  ( 0.0000000000000000000, 1.000000000000000000, -0.0000000000000000000 ) ) ;
#496 = CARTESIAN_POINT ( 'NONE',  ( 3.184081677783118191E-16, 0.0000000000000000000, -2.600000000000000089 ) ) ;
#497 = COLOUR_RGB ( '',0.5686274509803921351, 0.5882352941176470784, 0.6039215686274509443 ) ;
#498 = AXIS2_PLACEMENT_3D ( 'NONE', #261, #245, #665 ) ;
#499 = CYLINDRICAL_SURFACE ( 'NONE', #472, 2.599999999999996092 ) ;
#500 = CARTESIAN_POINT ( 'NONE',  ( -1.040834085586084257E-14, 0.0000000000000000000, 20.00000000000000355 ) ) ;
#501 = FACE_OUTER_BOUND ( 'NONE', #320, .T. ) ;
#502 = EDGE_CURVE ( 'NONE', #260, #158, #485, .T. ) ;
#503 = ORIENTED_EDGE ( 'NONE', *, *, #177, .T. ) ;
#504 = PLANE ( 'NONE',  #199 ) ;
#505 = CYLINDRICAL_SURFACE ( 'NONE', #107, 2.599999999999998312 ) ;
#506 = ORIENTED_EDGE ( 'NONE', *, *, #175, .T. ) ;
#507 = DIRECTION ( 'NONE',  ( 0.0000000000000000000, 0.0000000000000000000, 1.000000000000000000 ) ) ;
#508 = VECTOR ( 'NONE', #611, 1000.000000000000000 ) ;
#509 = CARTESIAN_POINT ( 'NONE',  ( 22.57537879754124432, 0.0000000000000000000, 22.57537879754125498 ) ) ;
#510 = CIRCLE ( 'NONE', #746, 2.599999999999998312 ) ;
#511 = DIRECTION ( 'NONE',  ( 0.0000000000000000000, 1.000000000000000000, 0.0000000000000000000 ) ) ;
#512 = ORIENTED_EDGE ( 'NONE', *, *, #7, .T. ) ;
#513 = MECHANICAL_DESIGN_GEOMETRIC_PRESENTATION_REPRESENTATION (  '', ( #214 ), #622 ) ;
#514 = DIRECTION ( 'NONE',  ( -0.0000000000000000000, 1.000000000000000000, -0.0000000000000000000 ) ) ;
#515 = ADVANCED_FACE ( 'NONE', ( #145 ), #403, .F. ) ;
#516 = CARTESIAN_POINT ( 'NONE',  ( 0.0000000000000000000, 0.0000000000000000000, 0.0000000000000000000 ) ) ;
#517 = LINE ( 'NONE', #250, #471 ) ;
#518 = FACE_OUTER_BOUND ( 'NONE', #264, .T. ) ;
#519 = DIRECTION ( 'NONE',  ( -0.0000000000000000000, -1.000000000000000000, -0.0000000000000000000 ) ) ;
#520 = ORIENTED_EDGE ( 'NONE', *, *, #177, .F. ) ;
#521 = CARTESIAN_POINT ( 'NONE',  ( 40.00000000000000000, 0.0000000000000000000, 2.600000000000006306 ) ) ;
#522 = CIRCLE ( 'NONE', #375, 2.599999999999996092 ) ;
#523 = DIRECTION ( 'NONE',  ( 1.000000000000000000, 0.0000000000000000000, 0.0000000000000000000 ) ) ;
#524 = EDGE_CURVE ( 'NONE', #647, #730, #272, .T. ) ;
#525 = CARTESIAN_POINT ( 'NONE',  ( -8.500000000000060396, 0.0000000000000000000, 48.49999999999995737 ) ) ;
#526 = ORIENTED_EDGE ( 'NONE', *, *, #741, .F. ) ;
#527 = VECTOR ( 'NONE', #297, 1000.000000000000000 ) ;
#528 = AXIS2_PLACEMENT_3D ( 'NONE', #589, #254, #116 ) ;
#529 = LINE ( 'NONE', #454, #235 ) ;
#530 = DIRECTION ( 'NONE',  ( -0.0000000000000000000, -1.000000000000000000, -0.0000000000000000000 ) ) ;
#531 = PLANE ( 'NONE',  #279 ) ;
#532 = ORIENTED_EDGE ( 'NONE', *, *, #448, .F. ) ;
#533 = FACE_OUTER_BOUND ( 'NONE', #781, .T. ) ;
#534 = ORIENTED_EDGE ( 'NONE', *, *, #502, .F. ) ;
#535 = FILL_AREA_STYLE_COLOUR ( '', #497 ) ;
#536 = CARTESIAN_POINT ( 'NONE',  ( -8.500000000000060396, 0.0000000000000000000, 45.99999999999995737 ) ) ;
#537 = ORIENTED_EDGE ( 'NONE', *, *, #392, .F. ) ;
#538 = FACE_BOUND ( 'NONE', #316, .T. ) ;
#539 = FACE_OUTER_BOUND ( 'NONE', #142, .T. ) ;
#540 = DIRECTION ( 'NONE',  ( -0.0000000000000000000, 1.000000000000000000, -0.0000000000000000000 ) ) ;
#541 = ORIENTED_EDGE ( 'NONE', *, *, #312, .F. ) ;
#542 = AXIS2_PLACEMENT_3D ( 'NONE', #642, #698, #295 ) ;
#543 = ORIENTED_EDGE ( 'NONE', *, *, #358, .T. ) ;
#544 = DIRECTION ( 'NONE',  ( 0.0000000000000000000, -0.0000000000000000000, -1.000000000000000000 ) ) ;
#545 = ADVANCED_FACE ( 'NONE', ( #275 ), #617, .F. ) ;
#546 = CYLINDRICAL_SURFACE ( 'NONE', #481, 2.500000000000002220 ) ;
#547 = ORIENTED_EDGE ( 'NONE', *, *, #749, .T. ) ;
#548 = LINE ( 'NONE', #412, #606 ) ;
#549 = ORIENTED_EDGE ( 'NONE', *, *, #477, .F. ) ;
#550 = CARTESIAN_POINT ( 'NONE',  ( -8.500000000000060396, 2.000000000000000000, 45.99999999999995737 ) ) ;
#551 = ADVANCED_FACE ( 'NONE', ( #352 ), #546, .T. ) ;
#552 = CIRCLE ( 'NONE', #674, 2.599999999999998312 ) ;
#553 = ORIENTED_EDGE ( 'NONE', *, *, #97, .F. ) ;
#554 = VECTOR ( 'NONE', #810, 1000.000000000000000 ) ;
#555 = STYLED_ITEM ( 'NONE', ( #3 ), #35 ) ;
#556 = DIRECTION ( 'NONE',  ( 0.0000000000000000000, 0.0000000000000000000, 1.000000000000000000 ) ) ;
#557 = PRESENTATION_LAYER_ASSIGNMENT (  '', '', ( #214 ) ) ;
#558 = DIRECTION ( 'NONE',  ( 3.881099744078489710E-16, 0.0000000000000000000, -1.000000000000000000 ) ) ;
#559 = CYLINDRICAL_SURFACE ( 'NONE', #117, 2.599999999999996092 ) ;
#560 = ORIENTED_EDGE ( 'NONE', *, *, #23, .F. ) ;
#561 = EDGE_CURVE ( 'NONE', #673, #798, #783, .T. ) ;
#562 = DIRECTION ( 'NONE',  ( 0.0000000000000000000, 1.000000000000000000, 0.0000000000000000000 ) ) ;
#563 = EDGE_CURVE ( 'NONE', #387, #406, #404, .T. ) ;
#564 = CARTESIAN_POINT ( 'NONE',  ( -6.000000000000059508, 0.0000000000000000000, 48.49999999999995737 ) ) ;
#565 = EDGE_CURVE ( 'NONE', #406, #201, #492, .T. ) ;
#566 = DIRECTION ( 'NONE',  ( -0.0000000000000000000, 1.000000000000000000, -0.0000000000000000000 ) ) ;
#567 = AXIS2_PLACEMENT_3D ( 'NONE', #324, #511, #654 ) ;
#568 = DIRECTION ( 'NONE',  ( -0.0000000000000000000, 1.000000000000000000, -0.0000000000000000000 ) ) ;
#569 = MECHANICAL_DESIGN_GEOMETRIC_PRESENTATION_REPRESENTATION (  '', ( #555 ), #646 ) ;
#570 = ADVANCED_FACE ( 'NONE', ( #501 ), #229, .T. ) ;
#571 = DIRECTION ( 'NONE',  ( 0.0000000000000000000, 0.0000000000000000000, -1.000000000000000000 ) ) ;
#572 = ORIENTED_EDGE ( 'NONE', *, *, #269, .T. ) ;
#573 = VECTOR ( 'NONE', #396, 1000.000000000000000 ) ;
#574 = VERTEX_POINT ( 'NONE', #643 ) ;
#575 = AXIS2_PLACEMENT_3D ( 'NONE', #33, #777, #571 ) ;
#576 = ORIENTED_EDGE ( 'NONE', *, *, #477, .T. ) ;
#577 = ORIENTED_EDGE ( 'NONE', *, *, #414, .T. ) ;
#578 = ORIENTED_EDGE ( 'NONE', *, *, #100, .T. ) ;
#579 = FILL_AREA_STYLE_COLOUR ( '', #663 ) ;
#580 = VERTEX_POINT ( 'NONE', #701 ) ;
#581 = CARTESIAN_POINT ( 'NONE',  ( 22.57537879754124432, -8.000000000000000000, 22.57537879754125498 ) ) ;
#582 = CARTESIAN_POINT ( 'NONE',  ( 20.00000000000000355, 0.0000000000000000000, 1.040834085586084257E-14 ) ) ;
#583 = EDGE_CURVE ( 'NONE', #6, #620, #236, .T. ) ;
#584 = SURFACE_STYLE_USAGE ( .BOTH. , #790 ) ;
#585 = AXIS2_PLACEMENT_3D ( 'NONE', #803, #601, #737 ) ;
#586 = AXIS2_PLACEMENT_3D ( 'NONE', #464, #136, #266 ) ;
#587 = AXIS2_PLACEMENT_3D ( 'NONE', #82, #807, #680 ) ;
#588 = ORIENTED_EDGE ( 'NONE', *, *, #114, .F. ) ;
#589 = CARTESIAN_POINT ( 'NONE',  ( -8.500000000000058620, 0.0000000000000000000, -8.500000000000037303 ) ) ;
#590 = FACE_OUTER_BOUND ( 'NONE', #299, .T. ) ;
#591 = ORIENTED_EDGE ( 'NONE', *, *, #374, .T. ) ;
#592 = EDGE_CURVE ( 'NONE', #747, #688, #431, .T. ) ;
#593 = ORIENTED_EDGE ( 'NONE', *, *, #166, .F. ) ;
#594 = CARTESIAN_POINT ( 'NONE',  ( 40.00000000000000000, 2.000000000000000000, 2.600000000000006306 ) ) ;
#595 = ORIENTED_EDGE ( 'NONE', *, *, #166, .T. ) ;
#596 = CARTESIAN_POINT ( 'NONE',  ( -1.040834085586084257E-14, 0.0000000000000000000, 22.60000000000000497 ) ) ;
#597 = ORIENTED_EDGE ( 'NONE', *, *, #812, .F. ) ;
#598 = DIRECTION ( 'NONE',  ( -0.0000000000000000000, 1.000000000000000000, -0.0000000000000000000 ) ) ;
#599 = ADVANCED_FACE ( 'NONE', ( #292 ), #559, .F. ) ;
#600 = ORIENTED_EDGE ( 'NONE', *, *, #653, .T. ) ;
#601 = DIRECTION ( 'NONE',  ( -0.0000000000000000000, 1.000000000000000000, -0.0000000000000000000 ) ) ;
#602 = VERTEX_POINT ( 'NONE', #429 ) ;
#603 =( NAMED_UNIT ( * ) PLANE_ANGLE_UNIT ( ) SI_UNIT ( $, .RADIAN. ) );
#604 = DIRECTION ( 'NONE',  ( 0.0000000000000000000, 1.000000000000000000, 0.0000000000000000000 ) ) ;
#605 = EDGE_LOOP ( 'NONE', ( #123, #664, #140, #430 ) ) ;
#606 = VECTOR ( 'NONE', #21, 1000.000000000000000 ) ;
#607 = DIRECTION ( 'NONE',  ( 0.0000000000000000000, 0.0000000000000000000, 1.000000000000000000 ) ) ;
#608 =( LENGTH_UNIT ( ) NAMED_UNIT ( * ) SI_UNIT ( .MILLI., .METRE. ) );
#609 = EDGE_CURVE ( 'NONE', #283, #460, #522, .T. ) ;
#610 = ORIENTED_EDGE ( 'NONE', *, *, #273, .T. ) ;
#611 = DIRECTION ( 'NONE',  ( -0.0000000000000000000, 1.000000000000000000, -0.0000000000000000000 ) ) ;
#612 = EDGE_CURVE ( 'NONE', #276, #493, #729, .T. ) ;
#613 = ORIENTED_EDGE ( 'NONE', *, *, #563, .T. ) ;
#614 = AXIS2_PLACEMENT_3D ( 'NONE', #397, #76, #141 ) ;
#615 = DIRECTION ( 'NONE',  ( -0.0000000000000000000, 1.000000000000000000, -0.0000000000000000000 ) ) ;
#616 = VECTOR ( 'NONE', #837, 1000.000000000000000 ) ;
#617 = CYLINDRICAL_SURFACE ( 'NONE', #130, 2.600000000000001421 ) ;
#618 = ORIENTED_EDGE ( 'NONE', *, *, #583, .F. ) ;
#619 =( GEOMETRIC_REPRESENTATION_CONTEXT ( 3 ) GLOBAL_UNCERTAINTY_ASSIGNED_CONTEXT ( ( #789 ) ) GLOBAL_UNIT_ASSIGNED_CONTEXT ( ( #61, #780, #382 ) ) REPRESENTATION_CONTEXT ( 'NONE', 'WORKASPACE' ) );
#620 = VERTEX_POINT ( 'NONE', #634 ) ;
#621 = EDGE_CURVE ( 'NONE', #580, #40, #176, .T. ) ;
#622 =( GEOMETRIC_REPRESENTATION_CONTEXT ( 3 ) GLOBAL_UNCERTAINTY_ASSIGNED_CONTEXT ( ( #662 ) ) GLOBAL_UNIT_ASSIGNED_CONTEXT ( ( #608, #603, #823 ) ) REPRESENTATION_CONTEXT ( 'NONE', 'WORKASPACE' ) );
#623 = CIRCLE ( 'NONE', #393, 2.600000000000001421 ) ;
#624 = ORIENTED_EDGE ( 'NONE', *, *, #1, .T. ) ;
#625 = LINE ( 'NONE', #757, #69 ) ;
#626 = VERTEX_POINT ( 'NONE', #769 ) ;
#627 = ORIENTED_EDGE ( 'NONE', *, *, #565, .T. ) ;
#628 = EDGE_LOOP ( 'NONE', ( #489, #400, #59, #578 ) ) ;
#629 = CYLINDRICAL_SURFACE ( 'NONE', #445, 2.500000000000000000 ) ;
#630 = LINE ( 'NONE', #36, #133 ) ;
#631 = AXIS2_PLACEMENT_3D ( 'NONE', #778, #37, #108 ) ;
#632 = DIRECTION ( 'NONE',  ( 0.0000000000000000000, 1.000000000000000000, 0.0000000000000000000 ) ) ;
#633 = CIRCLE ( 'NONE', #719, 2.500000000000002220 ) ;
#634 = CARTESIAN_POINT ( 'NONE',  ( 8.343145750507684255, 0.0000000000000000000, 48.49999999999995737 ) ) ;
#635 = VERTEX_POINT ( 'NONE', #178 ) ;
#636 = EDGE_CURVE ( 'NONE', #40, #244, #50, .T. ) ;
#637 = CARTESIAN_POINT ( 'NONE',  ( 48.49999999999992895, 0.0000000000000000000, 8.343145750507668268 ) ) ;
#638 = APPLICATION_PROTOCOL_DEFINITION ( 'draft international standard', 'automotive_design', 1998, #381 ) ;
#639 = CARTESIAN_POINT ( 'NONE',  ( 22.57537879754124432, -8.000000000000000000, 19.97537879754125711 ) ) ;
#640 = ORIENTED_EDGE ( 'NONE', *, *, #312, .T. ) ;
#641 = ADVANCED_FACE ( 'NONE', ( #775 ), #181, .F. ) ;
#642 = CARTESIAN_POINT ( 'NONE',  ( 0.0000000000000000000, 2.000000000000000000, 0.0000000000000000000 ) ) ;
#643 = CARTESIAN_POINT ( 'NONE',  ( 0.0000000000000000000, 2.000000000000000000, 2.600000000000000089 ) ) ;
#644 = VERTEX_POINT ( 'NONE', #378 ) ;
#645 = VECTOR ( 'NONE', #476, 1000.000000000000000 ) ;
#646 =( GEOMETRIC_REPRESENTATION_CONTEXT ( 3 ) GLOBAL_UNCERTAINTY_ASSIGNED_CONTEXT ( ( #450 ) ) GLOBAL_UNIT_ASSIGNED_CONTEXT ( ( #651, #253, #851 ) ) REPRESENTATION_CONTEXT ( 'NONE', 'WORKASPACE' ) );
#647 = VERTEX_POINT ( 'NONE', #854 ) ;
#648 = ORIENTED_EDGE ( 'NONE', *, *, #462, .F. ) ;
#649 = CIRCLE ( 'NONE', #421, 2.599999999999999645 ) ;
#650 = CIRCLE ( 'NONE', #498, 2.600000000000001421 ) ;
#651 =( LENGTH_UNIT ( ) NAMED_UNIT ( * ) SI_UNIT ( .MILLI., .METRE. ) );
#652 = EDGE_LOOP ( 'NONE', ( #154, #350 ) ) ;
#653 = EDGE_CURVE ( 'NONE', #276, #283, #517, .T. ) ;
#654 = DIRECTION ( 'NONE',  ( 0.0000000000000000000, 0.0000000000000000000, 1.000000000000000000 ) ) ;
#655 = EDGE_LOOP ( 'NONE', ( #725, #640 ) ) ;
#656 = DIRECTION ( 'NONE',  ( 0.0000000000000000000, 0.0000000000000000000, 1.000000000000000000 ) ) ;
#657 = EDGE_CURVE ( 'NONE', #71, #158, #225, .T. ) ;
#658 = CARTESIAN_POINT ( 'NONE',  ( -1.040834085586084257E-14, 0.0000000000000000000, 42.60000000000000853 ) ) ;
#659 = CYLINDRICAL_SURFACE ( 'NONE', #42, 2.600000000000000089 ) ;
#660 = ADVANCED_FACE ( 'NONE', ( #63 ), #505, .F. ) ;
#661 = ORIENTED_EDGE ( 'NONE', *, *, #653, .F. ) ;
#662 = UNCERTAINTY_MEASURE_WITH_UNIT (LENGTH_MEASURE( 1.000000000000000082E-05 ), #608, 'distance_accuracy_value', 'NONE');
#663 = COLOUR_RGB ( '',0.5686274509803921351, 0.5882352941176470784, 0.6039215686274509443 ) ;
#664 = ORIENTED_EDGE ( 'NONE', *, *, #327, .F. ) ;
#665 = DIRECTION ( 'NONE',  ( 0.0000000000000000000, 0.0000000000000000000, 1.000000000000000000 ) ) ;
#666 = CARTESIAN_POINT ( 'NONE',  ( 45.99999999999993605, 0.0000000000000000000, -8.500000000000044409 ) ) ;
#667 = ADVANCED_FACE ( 'NONE', ( #590 ), #793, .T. ) ;
#668 = FACE_OUTER_BOUND ( 'NONE', #733, .T. ) ;
#669 = CARTESIAN_POINT ( 'NONE',  ( 0.0000000000000000000, 2.000000000000000000, 0.0000000000000000000 ) ) ;
#670 = DIRECTION ( 'NONE',  ( -3.043374519257556522E-17, 0.0000000000000000000, 1.000000000000000000 ) ) ;
#671 = FACE_BOUND ( 'NONE', #694, .T. ) ;
#672 = LINE ( 'NONE', #200, #417 ) ;
#673 = VERTEX_POINT ( 'NONE', #265 ) ;
#674 = AXIS2_PLACEMENT_3D ( 'NONE', #388, #9, #192 ) ;
#675 = FACE_OUTER_BOUND ( 'NONE', #143, .T. ) ;
#676 = CIRCLE ( 'NONE', #81, 2.500000000000000444 ) ;
#677 = LINE ( 'NONE', #744, #573 ) ;
#678 = FACE_BOUND ( 'NONE', #652, .T. ) ;
#679 = CARTESIAN_POINT ( 'NONE',  ( -1.008993268808253055E-14, 0.0000000000000000000, 37.40000000000001279 ) ) ;
#680 = DIRECTION ( 'NONE',  ( 3.881099744078489710E-16, 0.0000000000000000000, -1.000000000000000000 ) ) ;
#681 = DIRECTION ( 'NONE',  ( 0.7071067811865470176, 0.0000000000000000000, -0.7071067811865479058 ) ) ;
#682 = DIRECTION ( 'NONE',  ( 0.0000000000000000000, 1.000000000000000000, 0.0000000000000000000 ) ) ;
#683 = CARTESIAN_POINT ( 'NONE',  ( 10.11091270347405136, 0.0000000000000000000, 47.76776695296632624 ) ) ;
#684 = ORIENTED_EDGE ( 'NONE', *, *, #844, .T. ) ;
#685 = DIRECTION ( 'NONE',  ( 0.0000000000000000000, -1.000000000000000000, 0.0000000000000000000 ) ) ;
#686 = DIRECTION ( 'NONE',  ( 0.0000000000000000000, 0.0000000000000000000, -1.000000000000000000 ) ) ;
#687 = EDGE_CURVE ( 'NONE', #755, #602, #212, .T. ) ;
#688 = VERTEX_POINT ( 'NONE', #736 ) ;
#689 = VECTOR ( 'NONE', #262, 1000.000000000000114 ) ;
#690 = SURFACE_STYLE_USAGE ( .BOTH. , #469 ) ;
#691 = AXIS2_PLACEMENT_3D ( 'NONE', #284, #751, #827 ) ;
#692 = EDGE_LOOP ( 'NONE', ( #512, #702, #624, #595, #219, #473, #506, #845, #480, #159 ) ) ;
#693 = AXIS2_PLACEMENT_3D ( 'NONE', #581, #598, #795 ) ;
#694 = EDGE_LOOP ( 'NONE', ( #310, #772 ) ) ;
#695 = CARTESIAN_POINT ( 'NONE',  ( 20.00000000000000355, 2.000000000000000000, 1.040834085586084257E-14 ) ) ;
#696 = ORIENTED_EDGE ( 'NONE', *, *, #621, .T. ) ;
#697 = ORIENTED_EDGE ( 'NONE', *, *, #583, .T. ) ;
#698 = DIRECTION ( 'NONE',  ( 0.0000000000000000000, 1.000000000000000000, 0.0000000000000000000 ) ) ;
#699 = EDGE_CURVE ( 'NONE', #260, #443, #706, .T. ) ;
#700 = DIRECTION ( 'NONE',  ( 0.0000000000000000000, 0.0000000000000000000, 1.000000000000000000 ) ) ;
#701 = CARTESIAN_POINT ( 'NONE',  ( 22.57537879754124432, 0.0000000000000000000, 25.17537879754125285 ) ) ;
#702 = ORIENTED_EDGE ( 'NONE', *, *, #84, .T. ) ;
#703 = CARTESIAN_POINT ( 'NONE',  ( -6.000000000000054179, 0.0000000000000000000, -6.000000000000036415 ) ) ;
#704 = DIRECTION ( 'NONE',  ( 0.0000000000000000000, 1.000000000000000000, 0.0000000000000000000 ) ) ;
#705 = AXIS2_PLACEMENT_3D ( 'NONE', #168, #308, #709 ) ;
#706 = CIRCLE ( 'NONE', #323, 2.599999999999998312 ) ;
#707 = AXIS2_PLACEMENT_3D ( 'NONE', #27, #682, #349 ) ;
#708 = FACE_OUTER_BOUND ( 'NONE', #184, .T. ) ;
#709 = DIRECTION ( 'NONE',  ( -2.775557561562890957E-15, 0.0000000000000000000, -1.000000000000000000 ) ) ;
#710 = ADVANCED_FACE ( 'NONE', ( #538, #29, #207, #814, #220, #278, #411 ), #474, .T. ) ;
#711 = DIRECTION ( 'NONE',  ( 0.0000000000000000000, 0.0000000000000000000, 1.000000000000000000 ) ) ;
#712 = DIRECTION ( 'NONE',  ( 0.0000000000000000000, 1.000000000000000000, 0.0000000000000000000 ) ) ;
#713 = DIRECTION ( 'NONE',  ( -0.0000000000000000000, 1.000000000000000000, -0.0000000000000000000 ) ) ;
#714 = ORIENTED_EDGE ( 'NONE', *, *, #462, .T. ) ;
#715 = CIRCLE ( 'NONE', #340, 2.599999999999996092 ) ;
#716 = DIRECTION ( 'NONE',  ( 1.000000000000000000, 0.0000000000000000000, 0.0000000000000000000 ) ) ;
#717 = EDGE_LOOP ( 'NONE', ( #483, #146 ) ) ;
#718 = FACE_OUTER_BOUND ( 'NONE', #161, .T. ) ;
#719 = AXIS2_PLACEMENT_3D ( 'NONE', #745, #86, #809 ) ;
#720 = DIRECTION ( 'NONE',  ( 0.0000000000000000000, -1.000000000000000000, -0.0000000000000000000 ) ) ;
#721 = EDGE_CURVE ( 'NONE', #644, #804, #234, .T. ) ;
#722 = ORIENTED_EDGE ( 'NONE', *, *, #502, .T. ) ;
#723 = DIRECTION ( 'NONE',  ( -0.0000000000000000000, 1.000000000000000000, -0.0000000000000000000 ) ) ;
#724 = EDGE_LOOP ( 'NONE', ( #216, #572, #28, #661 ) ) ;
#725 = ORIENTED_EDGE ( 'NONE', *, *, #796, .T. ) ;
#726 = DIRECTION ( 'NONE',  ( -0.0000000000000000000, 1.000000000000000000, -0.0000000000000000000 ) ) ;
#727 = EDGE_CURVE ( 'NONE', #410, #747, #359, .T. ) ;
#728 = VECTOR ( 'NONE', #519, 1000.000000000000000 ) ;
#729 = CIRCLE ( 'NONE', #366, 2.599999999999996092 ) ;
#730 = VERTEX_POINT ( 'NONE', #490 ) ;
#731 = AXIS2_PLACEMENT_3D ( 'NONE', #509, #128, #792 ) ;
#732 = EDGE_LOOP ( 'NONE', ( #62, #825, #164, #125 ) ) ;
#733 = EDGE_LOOP ( 'NONE', ( #318, #423, #131, #364 ) ) ;
#734 = DIRECTION ( 'NONE',  ( 0.0000000000000000000, 0.0000000000000000000, -1.000000000000000000 ) ) ;
#735 = FACE_OUTER_BOUND ( 'NONE', #334, .T. ) ;
#736 = CARTESIAN_POINT ( 'NONE',  ( -1.008993268808253055E-14, 2.000000000000000000, 17.40000000000000213 ) ) ;
#737 = DIRECTION ( 'NONE',  ( 0.0000000000000000000, 0.0000000000000000000, 1.000000000000000000 ) ) ;
#738 = ORIENTED_EDGE ( 'NONE', *, *, #561, .F. ) ;
#739 = ORIENTED_EDGE ( 'NONE', *, *, #175, .F. ) ;
#740 = CARTESIAN_POINT ( 'NONE',  ( -1.040834085586084257E-14, 0.0000000000000000000, 40.00000000000000711 ) ) ;
#741 = EDGE_CURVE ( 'NONE', #804, #730, #302, .T. ) ;
#742 = AXIS2_PLACEMENT_3D ( 'NONE', #150, #743, #734 ) ;
#743 = DIRECTION ( 'NONE',  ( 0.0000000000000000000, -1.000000000000000000, 0.0000000000000000000 ) ) ;
#744 = CARTESIAN_POINT ( 'NONE',  ( -8.500000000000058620, 2.000000000000000000, -8.500000000000037303 ) ) ;
#745 = CARTESIAN_POINT ( 'NONE',  ( -6.000000000000059508, 2.000000000000000000, 45.99999999999995737 ) ) ;
#746 = AXIS2_PLACEMENT_3D ( 'NONE', #826, #228, #556 ) ;
#747 = VERTEX_POINT ( 'NONE', #835 ) ;
#748 = CARTESIAN_POINT ( 'NONE',  ( 0.0000000000000000000, 0.0000000000000000000, 0.0000000000000000000 ) ) ;
#749 = EDGE_CURVE ( 'NONE', #189, #791, #482, .T. ) ;
#750 = FACE_BOUND ( 'NONE', #458, .T. ) ;
#751 = DIRECTION ( 'NONE',  ( 0.0000000000000000000, 1.000000000000000000, 0.0000000000000000000 ) ) ;
#752 = ORIENTED_EDGE ( 'NONE', *, *, #612, .T. ) ;
#753 = DIRECTION ( 'NONE',  ( -0.0000000000000000000, 0.0000000000000000000, 1.000000000000000000 ) ) ;
#754 = VERTEX_POINT ( 'NONE', #424 ) ;
#755 = VERTEX_POINT ( 'NONE', #637 ) ;
#756 = FACE_BOUND ( 'NONE', #196, .T. ) ;
#757 = CARTESIAN_POINT ( 'NONE',  ( 22.57537879754124432, -8.000000000000000000, 25.17537879754125285 ) ) ;
#758 = EDGE_CURVE ( 'NONE', #574, #201, #13, .T. ) ;
#759 = ORIENTED_EDGE ( 'NONE', *, *, #524, .F. ) ;
#760 = CIRCLE ( 'NONE', #575, 2.500000000000002220 ) ;
#761 = VERTEX_POINT ( 'NONE', #564 ) ;
#762 = DIRECTION ( 'NONE',  ( 0.0000000000000000000, 1.000000000000000000, 0.0000000000000000000 ) ) ;
#763 = CARTESIAN_POINT ( 'NONE',  ( -6.000000000000054179, 0.0000000000000000000, -8.500000000000037303 ) ) ;
#764 = EDGE_CURVE ( 'NONE', #460, #283, #715, .T. ) ;
#765 = CARTESIAN_POINT ( 'NONE',  ( 0.0000000000000000000, 0.0000000000000000000, 0.0000000000000000000 ) ) ;
#766 = EDGE_LOOP ( 'NONE', ( #256, #588 ) ) ;
#767 = CARTESIAN_POINT ( 'NONE',  ( 45.99999999999992895, 0.0000000000000000000, 8.343145750507666492 ) ) ;
#768 = CARTESIAN_POINT ( 'NONE',  ( 20.00000000000000355, 2.000000000000000000, 1.040834085586084257E-14 ) ) ;
#769 = CARTESIAN_POINT ( 'NONE',  ( -6.000000000000059508, 2.000000000000000000, 48.49999999999995737 ) ) ;
#770 = AXIS2_PLACEMENT_3D ( 'NONE', #748, #685, #544 ) ;
#771 = PRODUCT ( 'L61 Г-соединитель 60х60', 'L61 Г-соединитель 60х60', '', ( #786 ) ) ;
#772 = ORIENTED_EDGE ( 'NONE', *, *, #332, .F. ) ;
#773 = CARTESIAN_POINT ( 'NONE',  ( -1.040834085586084257E-14, 0.0000000000000000000, 22.60000000000000497 ) ) ;
#774 = CIRCLE ( 'NONE', #731, 2.599999999999998312 ) ;
#775 = FACE_OUTER_BOUND ( 'NONE', #478, .T. ) ;
#776 = DIRECTION ( 'NONE',  ( 0.0000000000000000000, 0.0000000000000000000, 1.000000000000000000 ) ) ;
#777 = DIRECTION ( 'NONE',  ( -0.0000000000000000000, 1.000000000000000000, -0.0000000000000000000 ) ) ;
#778 = CARTESIAN_POINT ( 'NONE',  ( -1.040834085586084257E-14, 2.000000000000000000, 20.00000000000000355 ) ) ;
#779 = EDGE_CURVE ( 'NONE', #158, #71, #510, .T. ) ;
#780 =( NAMED_UNIT ( * ) PLANE_ANGLE_UNIT ( ) SI_UNIT ( $, .RADIAN. ) );
#781 = EDGE_LOOP ( 'NONE', ( #296, #627, #822, #833 ) ) ;
#782 = LINE ( 'NONE', #5, #147 ) ;
#783 = CIRCLE ( 'NONE', #705, 2.500000000000000444 ) ;
#784 = CARTESIAN_POINT ( 'NONE',  ( 48.49999999999992895, 0.0000000000000000000, 8.343145750507668268 ) ) ;
#785 = PRESENTATION_LAYER_ASSIGNMENT (  '', '', ( #555 ) ) ;
#786 = PRODUCT_CONTEXT ( 'NONE', #381, 'mechanical' ) ;
#787 = VERTEX_POINT ( 'NONE', #550 ) ;
#788 = DIRECTION ( 'NONE',  ( 0.0000000000000000000, 1.000000000000000000, 0.0000000000000000000 ) ) ;
#789 = UNCERTAINTY_MEASURE_WITH_UNIT (LENGTH_MEASURE( 1.000000000000000082E-05 ), #61, 'distance_accuracy_value', 'NONE');
#790 = SURFACE_SIDE_STYLE ('',( #118 ) ) ;
#791 = VERTEX_POINT ( 'NONE', #373 ) ;
#792 = DIRECTION ( 'NONE',  ( 0.0000000000000000000, 0.0000000000000000000, -1.000000000000000000 ) ) ;
#793 = PLANE ( 'NONE',  #587 ) ;
#794 = ORIENTED_EDGE ( 'NONE', *, *, #100, .F. ) ;
#795 = DIRECTION ( 'NONE',  ( 0.0000000000000000000, 0.0000000000000000000, 1.000000000000000000 ) ) ;
#796 = EDGE_CURVE ( 'NONE', #189, #44, #830, .T. ) ;
#797 = CARTESIAN_POINT ( 'NONE',  ( 3.184081677783118191E-16, 0.0000000000000000000, -2.600000000000000089 ) ) ;
#798 = VERTEX_POINT ( 'NONE', #34 ) ;
#799 = EDGE_LOOP ( 'NONE', ( #553, #419, #722, #451 ) ) ;
#800 = CYLINDRICAL_SURFACE ( 'NONE', #585, 2.600000000000000089 ) ;
#801 = CARTESIAN_POINT ( 'NONE',  ( 9.378679656440418455, 0.0000000000000000000, 48.49999999999995737 ) ) ;
#802 = AXIS2_PLACEMENT_3D ( 'NONE', #695, #712, #372 ) ;
#803 = CARTESIAN_POINT ( 'NONE',  ( 0.0000000000000000000, 0.0000000000000000000, 0.0000000000000000000 ) ) ;
#804 = VERTEX_POINT ( 'NONE', #763 ) ;
#805 = FILL_AREA_STYLE ('',( #535 ) ) ;
#806 = ADVANCED_FACE ( 'NONE', ( #435 ), #629, .T. ) ;
#807 = DIRECTION ( 'NONE',  ( 1.000000000000000000, 0.0000000000000000000, 3.881099744078489710E-16 ) ) ;
#808 = DIRECTION ( 'NONE',  ( -0.0000000000000000000, -1.000000000000000000, -0.0000000000000000000 ) ) ;
#809 = DIRECTION ( 'NONE',  ( 0.0000000000000000000, 0.0000000000000000000, -1.000000000000000000 ) ) ;
#810 = DIRECTION ( 'NONE',  ( -0.0000000000000000000, 1.000000000000000000, -0.0000000000000000000 ) ) ;
#811 = ORIENTED_EDGE ( 'NONE', *, *, #414, .F. ) ;
#812 = EDGE_CURVE ( 'NONE', #755, #169, #25, .T. ) ;
#813 = CIRCLE ( 'NONE', #614, 2.500000000000002220 ) ;
#814 = FACE_BOUND ( 'NONE', #38, .T. ) ;
#815 = VECTOR ( 'NONE', #153, 1000.000000000000000 ) ;
#816 = DIRECTION ( 'NONE',  ( 1.000000000000000000, 0.0000000000000000000, 0.0000000000000000000 ) ) ;
#817 = VECTOR ( 'NONE', #720, 1000.000000000000000 ) ;
#818 = CARTESIAN_POINT ( 'NONE',  ( -1.040834085586084257E-14, 0.0000000000000000000, 20.00000000000000355 ) ) ;
#819 = VECTOR ( 'NONE', #523, 1000.000000000000000 ) ;
#820 = SURFACE_STYLE_FILL_AREA ( #805 ) ;
#821 = VERTEX_POINT ( 'NONE', #45 ) ;
#822 = ORIENTED_EDGE ( 'NONE', *, *, #332, .T. ) ;
#823 =( NAMED_UNIT ( * ) SI_UNIT ( $, .STERADIAN. ) SOLID_ANGLE_UNIT ( ) );
#824 = CARTESIAN_POINT ( 'NONE',  ( 40.00000000000000000, 2.000000000000000000, -2.599999999999985434 ) ) ;
#825 = ORIENTED_EDGE ( 'NONE', *, *, #448, .T. ) ;
#826 = CARTESIAN_POINT ( 'NONE',  ( -1.040834085586084257E-14, 2.000000000000000000, 40.00000000000000711 ) ) ;
#827 = DIRECTION ( 'NONE',  ( 0.0000000000000000000, 0.0000000000000000000, 1.000000000000000000 ) ) ;
#828 = ADVANCED_FACE ( 'NONE', ( #112 ), #47, .F. ) ;
#829 = VERTEX_POINT ( 'NONE', #841 ) ;
#830 = CIRCLE ( 'NONE', #194, 2.599999999999999645 ) ;
#831 = DIRECTION ( 'NONE',  ( 0.0000000000000000000, 1.000000000000000000, 0.0000000000000000000 ) ) ;
#832 = DIRECTION ( 'NONE',  ( 0.0000000000000000000, 0.0000000000000000000, 1.000000000000000000 ) ) ;
#833 = ORIENTED_EDGE ( 'NONE', *, *, #106, .F. ) ;
#834 = ADVANCED_FACE ( 'NONE', ( #238 ), #499, .F. ) ;
#835 = CARTESIAN_POINT ( 'NONE',  ( -1.040834085586084257E-14, 2.000000000000000000, 22.60000000000000497 ) ) ;
#836 = DIRECTION ( 'NONE',  ( 0.0000000000000000000, 1.000000000000000000, 0.0000000000000000000 ) ) ;
#837 = DIRECTION ( 'NONE',  ( -0.0000000000000000000, 1.000000000000000000, -0.0000000000000000000 ) ) ;
#838 = ORIENTED_EDGE ( 'NONE', *, *, #26, .F. ) ;
#839 = DIRECTION ( 'NONE',  ( 0.0000000000000000000, 0.0000000000000000000, 1.000000000000000000 ) ) ;
#840 = FACE_OUTER_BOUND ( 'NONE', #300, .T. ) ;
#841 = CARTESIAN_POINT ( 'NONE',  ( -1.008993268808253055E-14, 0.0000000000000000000, 17.40000000000000213 ) ) ;
#842 = CIRCLE ( 'NONE', #707, 2.599999999999998312 ) ;
#843 = CIRCLE ( 'NONE', #239, 2.600000000000001421 ) ;
#844 = EDGE_CURVE ( 'NONE', #798, #755, #850, .T. ) ;
#845 = ORIENTED_EDGE ( 'NONE', *, *, #452, .T. ) ;
#846 = ORIENTED_EDGE ( 'NONE', *, *, #362, .T. ) ;
#847 = ORIENTED_EDGE ( 'NONE', *, *, #392, .T. ) ;
#848 = CYLINDRICAL_SURFACE ( 'NONE', #693, 2.599999999999998312 ) ;
#849 = DIRECTION ( 'NONE',  ( 0.0000000000000000000, 0.0000000000000000000, 1.000000000000000000 ) ) ;
#850 = LINE ( 'NONE', #784, #817 ) ;
#851 =( NAMED_UNIT ( * ) SI_UNIT ( $, .STERADIAN. ) SOLID_ANGLE_UNIT ( ) );
#852 = ORIENTED_EDGE ( 'NONE', *, *, #636, .T. ) ;
#853 = PLANE ( 'NONE',  #528 ) ;
#854 = CARTESIAN_POINT ( 'NONE',  ( 45.99999999999993605, 2.000000000000000000, -8.500000000000044409 ) ) ;
ENDSEC;
END-ISO-10303-21;
