ISO-10303-21;
HEADER;
FILE_DESCRIPTION(('STEP AP203'),
    '1');
FILE_NAME('ƒержатель–ычага',
    '',
    ('UNSPECIFIED'),
    ('UNSPECIFIED'),
    'C3D Converter',
    'C3D Toolkit',
    '');
FILE_SCHEMA(('CONFIG_CONTROL_DESIGN'));
ENDSEC;

DATA;
#1=PRODUCT_DEFINITION('','UNSPECIFIED',#28,#31);
#2=SHAPE_DEFINITION_REPRESENTATION(#26,#3);
#3=SHAPE_REPRESENTATION('NONE',(#4),#8);
#4=AXIS2_PLACEMENT_3D('',#5,#6,#7);
#5=CARTESIAN_POINT('',(0.,0.,0.));
#6=DIRECTION('',(0.,0.,1.));
#7=DIRECTION('',(1.,0.,0.));
#8=(GEOMETRIC_REPRESENTATION_CONTEXT(3)GLOBAL_UNCERTAINTY_ASSIGNED_CONTEXT((#10))
GLOBAL_UNIT_ASSIGNED_CONTEXT((#9,#11,#12))REPRESENTATION_CONTEXT('NONE','NONE'));
#9=(LENGTH_UNIT()NAMED_UNIT(*)SI_UNIT(.MILLI.,.METRE.));
#10=UNCERTAINTY_MEASURE_WITH_UNIT(LENGTH_MEASURE(1.E-5),#9,'NONE','NONE');
#11=(NAMED_UNIT(*)PLANE_ANGLE_UNIT()SI_UNIT($,.RADIAN.));
#12=(NAMED_UNIT(*)SI_UNIT($,.STERADIAN.)SOLID_ANGLE_UNIT());
#13=MANIFOLD_SOLID_BREP('',#14);
#14=CLOSED_SHELL('',(#53,#54,#55,#56,#57,#58,#59,#60,#61,#62,#63,#64,#65,#66,#67,
#68,#69,#70,#71,#72,#73,#74,#75,#76,#77,#78,#79,#80,#81,#82,#83,#84,#85));
#15=COLOUR_RGB('',0.6,0.,0.);
#16=FILL_AREA_STYLE_COLOUR('',#15);
#17=FILL_AREA_STYLE($,(#16));
#18=SURFACE_STYLE_FILL_AREA(#17);
#19=SURFACE_SIDE_STYLE('',(#18));
#20=SURFACE_STYLE_USAGE(.BOTH.,#19);
#21=PRESENTATION_STYLE_ASSIGNMENT((#20));
#22=MECHANICAL_DESIGN_GEOMETRIC_PRESENTATION_REPRESENTATION('NONE',(#23),#8);
#23=STYLED_ITEM('',(#21),#13);
#24=ADVANCED_BREP_SHAPE_REPRESENTATION('NONE',(#13),#8);
#25=SHAPE_REPRESENTATION_RELATIONSHIP('','',#3,#24);
#26=PRODUCT_DEFINITION_SHAPE('NONE','NONE',#1);
#27=MECHANICAL_CONTEXT('NONE',#32,'mechanical');
#28=PRODUCT_DEFINITION_FORMATION_WITH_SPECIFIED_SOURCE('ANY','UNSPECIFIED',#29,.NOT_KNOWN.);
#29=PRODUCT('-03','\X2\0414043504400436043004420435043B044C0420044B0447043004330430\X0\_\X2\043304300439043A0430\X0\',
'NONE',(#27));
#30=PRODUCT_RELATED_PRODUCT_CATEGORY('detail','',(#29));
#31=DESIGN_CONTEXT('detailed design',#32,'design');
#32=APPLICATION_CONTEXT('configuration controlled 3d designs of mechanical parts and assemblies');
#33=APPLICATION_PROTOCOL_DEFINITION('international standard','config_control_design',
1994,#32);
#34=CC_DESIGN_DATE_AND_TIME_ASSIGNMENT(#35,#39,(#1));
#35=DATE_AND_TIME(#36,#37);
#36=CALENDAR_DATE(0,1,1);
#37=LOCAL_TIME(0,0,0.,#38);
#38=COORDINATED_UNIVERSAL_TIME_OFFSET(0,0,.AHEAD.);
#39=DATE_TIME_ROLE('creation_date');
#40=CC_DESIGN_APPROVAL(#41,(#1));
#41=APPROVAL(#42,'UNSPECIFIED');
#42=APPROVAL_STATUS('not_yet_approved');
#43=APPROVAL_DATE_TIME(#44,#41);
#44=DATE_AND_TIME(#45,#46);
#45=CALENDAR_DATE(0,1,1);
#46=LOCAL_TIME(0,0,0.,#47);
#47=COORDINATED_UNIVERSAL_TIME_OFFSET(0,0,.AHEAD.);
#48=PERSON('UNSPECIFIED','UNSPECIFIED','UNSPECIFIED',('UNSPECIFIED'),('UNSPECIFIED'),
('UNSPECIFIED'));
#49=ORGANIZATION('UNSPECIFIED','UNSPECIFIED','UNSPECIFIED');
#50=PERSON_AND_ORGANIZATION(#48,#49);
#51=PERSON_AND_ORGANIZATION_ROLE('creator');
#52=CC_DESIGN_PERSON_AND_ORGANIZATION_ASSIGNMENT(#50,#51,(#28,#1));
#53=ADVANCED_FACE('',(#86,#88),#90,.F.);
#54=ADVANCED_FACE('',(#95),#97,.T.);
#55=ADVANCED_FACE('',(#102),#104,.T.);
#56=ADVANCED_FACE('',(#109),#111,.F.);
#57=ADVANCED_FACE('',(#116),#118,.F.);
#58=ADVANCED_FACE('',(#123,#125,#127,#129,#131),#133,.T.);
#59=ADVANCED_FACE('',(#138),#140,.T.);
#60=ADVANCED_FACE('',(#145),#147,.T.);
#61=ADVANCED_FACE('',(#152),#154,.T.);
#62=ADVANCED_FACE('',(#159),#161,.T.);
#63=ADVANCED_FACE('',(#166),#168,.F.);
#64=ADVANCED_FACE('',(#173),#175,.T.);
#65=ADVANCED_FACE('',(#180,#182,#184),#186,.F.);
#66=ADVANCED_FACE('',(#191),#193,.T.);
#67=ADVANCED_FACE('',(#198),#200,.F.);
#68=ADVANCED_FACE('',(#205),#207,.F.);
#69=ADVANCED_FACE('',(#212),#214,.T.);
#70=ADVANCED_FACE('',(#219),#221,.T.);
#71=ADVANCED_FACE('',(#226),#228,.T.);
#72=ADVANCED_FACE('',(#233),#235,.T.);
#73=ADVANCED_FACE('',(#240),#242,.T.);
#74=ADVANCED_FACE('',(#247,#249),#251,.F.);
#75=ADVANCED_FACE('',(#256,#258),#260,.F.);
#76=ADVANCED_FACE('',(#265,#267),#269,.F.);
#77=ADVANCED_FACE('',(#274,#276,#278,#280),#282,.F.);
#78=ADVANCED_FACE('',(#287),#289,.T.);
#79=ADVANCED_FACE('',(#294),#296,.F.);
#80=ADVANCED_FACE('',(#301,#303),#305,.F.);
#81=ADVANCED_FACE('',(#310,#312),#314,.F.);
#82=ADVANCED_FACE('',(#319),#321,.T.);
#83=ADVANCED_FACE('',(#326),#328,.T.);
#84=ADVANCED_FACE('',(#359),#361,.F.);
#85=ADVANCED_FACE('',(#386),#388,.T.);
#86=FACE_BOUND('',#87,.T.);
#87=EDGE_LOOP('',(#393,#394,#395,#396));
#88=FACE_OUTER_BOUND('',#89,.T.);
#89=EDGE_LOOP('',(#397));
#90=CYLINDRICAL_SURFACE('',#91,4.15);
#91=AXIS2_PLACEMENT_3D('',#92,#93,#94);
#92=CARTESIAN_POINT('',(-3.42901103761259E-16,0.,2.8));
#93=DIRECTION('',(1.22464679914735E-16,0.,-1.));
#94=DIRECTION('',(-1.,0.,-1.22464679914735E-16));
#95=FACE_BOUND('',#96,.T.);
#96=EDGE_LOOP('',(#398,#399,#400,#401,#402,#403));
#97=CYLINDRICAL_SURFACE('',#98,9.);
#98=AXIS2_PLACEMENT_3D('',#99,#100,#101);
#99=CARTESIAN_POINT('',(-3.42901103761259E-16,0.,2.8));
#100=DIRECTION('',(1.22464679914735E-16,0.,-1.));
#101=DIRECTION('',(0.877268487978537,0.479999999999845,1.07434404579575E-16));
#102=FACE_BOUND('',#103,.T.);
#103=EDGE_LOOP('',(#404,#405,#406,#407,#408,#409));
#104=PLANE('',#105);
#105=AXIS2_PLACEMENT_3D('',#106,#107,#108);
#106=CARTESIAN_POINT('',(-2.58452403410323E-16,-9.,2.8));
#107=DIRECTION('',(0.,-1.,0.));
#108=DIRECTION('',(-1.,0.,-1.1842378929335E-16));
#109=FACE_BOUND('',#110,.T.);
#110=EDGE_LOOP('',(#410,#411,#412,#413,#414,#415,#416,#417,#418,#419,#420,#421,#422,
#423,#424,#425,#426,#427));
#111=PLANE('',#112);
#112=AXIS2_PLACEMENT_3D('',#113,#114,#115);
#113=CARTESIAN_POINT('',(-3.42901103761259E-16,0.,2.8));
#114=DIRECTION('',(1.22464679914735E-16,0.,-1.));
#115=DIRECTION('',(-1.,0.,-1.22464679914735E-16));
#116=FACE_BOUND('',#117,.T.);
#117=EDGE_LOOP('',(#428,#429,#430,#431,#432));
#118=CYLINDRICAL_SURFACE('',#119,7.);
#119=AXIS2_PLACEMENT_3D('',#120,#121,#122);
#120=CARTESIAN_POINT('',(1.03325330731044E-15,5.15,8.4371535370248));
#121=DIRECTION('',(0.,-1.,0.));
#122=DIRECTION('',(-0.592857142857196,0.,-0.805307648146472));
#123=FACE_BOUND('',#124,.T.);
#124=EDGE_LOOP('',(#433,#434,#435,#436,#437,#438,#439,#440));
#125=FACE_BOUND('',#126,.T.);
#126=EDGE_LOOP('',(#441));
#127=FACE_BOUND('',#128,.T.);
#128=EDGE_LOOP('',(#442));
#129=FACE_BOUND('',#130,.T.);
#130=EDGE_LOOP('',(#443));
#131=FACE_BOUND('',#132,.T.);
#132=EDGE_LOOP('',(#444));
#133=PLANE('',#134);
#134=AXIS2_PLACEMENT_3D('',#135,#136,#137);
#135=CARTESIAN_POINT('',(0.,0.,0.));
#136=DIRECTION('',(1.22464679914735E-16,0.,-1.));
#137=DIRECTION('',(-1.,0.,-1.22464679914735E-16));
#138=FACE_BOUND('',#139,.T.);
#139=EDGE_LOOP('',(#445,#446,#447,#448));
#140=PLANE('',#141);
#141=AXIS2_PLACEMENT_3D('',#142,#143,#144);
#142=CARTESIAN_POINT('',(2.63180546393573,13.9399999999998,2.8));
#143=DIRECTION('',(0.877268487978441,0.480000000000021,1.39137667733109E-16));
#144=DIRECTION('',(0.480000000000021,-0.877268487978441,4.04974500678447E-17));
#145=FACE_BOUND('',#146,.T.);
#146=EDGE_LOOP('',(#449,#450,#451,#452,#453));
#147=CYLINDRICAL_SURFACE('',#148,5.);
#148=AXIS2_PLACEMENT_3D('',#149,#150,#151);
#149=CARTESIAN_POINT('',(-15.,-4.,14.));
#150=DIRECTION('',(1.22464679914735E-16,0.,-1.));
#151=DIRECTION('',(3.5527136788005E-16,-1.,4.35081943503005E-32));
#152=FACE_BOUND('',#153,.T.);
#153=EDGE_LOOP('',(#454,#455,#456,#457,#458,#459,#460,#461));
#154=CYLINDRICAL_SURFACE('',#155,3.);
#155=AXIS2_PLACEMENT_3D('',#156,#157,#158);
#156=CARTESIAN_POINT('',(-2.51052593825207E-15,12.5,14.));
#157=DIRECTION('',(1.22464679914735E-16,0.,-1.));
#158=DIRECTION('',(-6.12323399573677E-17,1.,-7.49879891330929E-33));
#159=FACE_BOUND('',#160,.T.);
#160=EDGE_LOOP('',(#462,#463,#464,#465));
#161=CYLINDRICAL_SURFACE('',#162,0.5);
#162=AXIS2_PLACEMENT_3D('',#163,#164,#165);
#163=CARTESIAN_POINT('',(2.4754352829351,12.1504,16.));
#164=DIRECTION('',(-1.1686558153949E-16,0.,1.));
#165=DIRECTION('',(-0.199631877656057,-0.979870967741936,-2.33300954760954E-17));
#166=FACE_BOUND('',#167,.T.);
#167=EDGE_LOOP('',(#466,#467,#468,#469));
#168=CYLINDRICAL_SURFACE('',#169,11.9);
#169=AXIS2_PLACEMENT_3D('',#170,#171,#172);
#170=CARTESIAN_POINT('',(0.,0.,12.));
#171=DIRECTION('',(0.,0.,-1.));
#172=DIRECTION('',(1.85240692308003E-16,1.,0.));
#173=FACE_BOUND('',#174,.T.);
#174=EDGE_LOOP('',(#470,#471,#472,#473));
#175=CYLINDRICAL_SURFACE('',#176,0.5);
#176=AXIS2_PLACEMENT_3D('',#177,#178,#179);
#177=CARTESIAN_POINT('',(2.08178385045134,12.224,16.));
#178=DIRECTION('',(1.31473779231926E-16,0.,-1.));
#179=DIRECTION('',(-0.167885794391237,-0.985806451612903,-2.20725798679701E-17));
#180=FACE_OUTER_BOUND('',#181,.T.);
#181=EDGE_LOOP('',(#474));
#182=FACE_OUTER_BOUND('',#183,.T.);
#183=EDGE_LOOP('',(#475));
#184=FACE_BOUND('',#185,.T.);
#185=EDGE_LOOP('',(#476,#477,#478,#479));
#186=CYLINDRICAL_SURFACE('',#187,1.6);
#187=AXIS2_PLACEMENT_3D('',#188,#189,#190);
#188=CARTESIAN_POINT('',(-2.51052593825207E-15,12.5,14.));
#189=DIRECTION('',(1.22464679914735E-16,0.,-1.));
#190=DIRECTION('',(-1.,0.,-1.22464679914735E-16));
#191=FACE_BOUND('',#192,.T.);
#192=EDGE_LOOP('',(#480,#481,#482,#483));
#193=CYLINDRICAL_SURFACE('',#194,0.5);
#194=AXIS2_PLACEMENT_3D('',#195,#196,#197);
#195=CARTESIAN_POINT('',(-2.08178385045134,12.224,16.));
#196=DIRECTION('',(0.,-1.1686558153949E-16,1.));
#197=DIRECTION('',(0.167885794391241,-0.985806451612903,-1.15206844253123E-16));
#198=FACE_BOUND('',#199,.T.);
#199=EDGE_LOOP('',(#484,#485,#486,#487));
#200=CYLINDRICAL_SURFACE('',#201,11.9);
#201=AXIS2_PLACEMENT_3D('',#202,#203,#204);
#202=CARTESIAN_POINT('',(0.,0.,12.));
#203=DIRECTION('',(0.,0.,-1.));
#204=DIRECTION('',(1.85240692308003E-16,1.,0.));
#205=FACE_BOUND('',#206,.T.);
#206=EDGE_LOOP('',(#488,#489,#490,#491,#492,#493));
#207=CYLINDRICAL_SURFACE('',#208,9.);
#208=AXIS2_PLACEMENT_3D('',#209,#210,#211);
#209=CARTESIAN_POINT('',(-3.,0.500000000000001,14.));
#210=DIRECTION('',(-1.22464679914735E-16,0.,1.));
#211=DIRECTION('',(-4.93432455388958E-17,1.,-6.04280477087507E-33));
#212=FACE_BOUND('',#213,.T.);
#213=EDGE_LOOP('',(#494,#495,#496,#497));
#214=PLANE('',#215);
#215=AXIS2_PLACEMENT_3D('',#216,#217,#218);
#216=CARTESIAN_POINT('',(-12.,0.500000000000001,14.));
#217=DIRECTION('',(1.,0.,1.26882631385732E-16));
#218=DIRECTION('',(0.,-1.,0.));
#219=FACE_BOUND('',#220,.T.);
#220=EDGE_LOOP('',(#498,#499,#500,#501));
#221=CYLINDRICAL_SURFACE('',#222,3.);
#222=AXIS2_PLACEMENT_3D('',#223,#224,#225);
#223=CARTESIAN_POINT('',(-15.,-6.,14.));
#224=DIRECTION('',(1.22464679914735E-16,0.,-1.));
#225=DIRECTION('',(1.,0.,1.22464679914735E-16));
#226=FACE_BOUND('',#227,.T.);
#227=EDGE_LOOP('',(#502,#503,#504,#505));
#228=PLANE('',#229);
#229=AXIS2_PLACEMENT_3D('',#230,#231,#232);
#230=CARTESIAN_POINT('',(-20.,-4.,14.));
#231=DIRECTION('',(-1.,0.,0.));
#232=DIRECTION('',(0.,1.,0.));
#233=FACE_BOUND('',#234,.T.);
#234=EDGE_LOOP('',(#506,#507,#508,#509));
#235=CYLINDRICAL_SURFACE('',#236,16.033021797562);
#236=AXIS2_PLACEMENT_3D('',#237,#238,#239);
#237=CARTESIAN_POINT('',(-3.96697820243796,-0.533021797562046,14.));
#238=DIRECTION('',(1.22464679914735E-16,0.,-1.));
#239=DIRECTION('',(-1.,0.,-1.22464679914735E-16));
#240=FACE_BOUND('',#241,.T.);
#241=EDGE_LOOP('',(#510,#511,#512,#513));
#242=PLANE('',#243);
#243=AXIS2_PLACEMENT_3D('',#244,#245,#246);
#244=CARTESIAN_POINT('',(-3.96697820243796,15.5,14.));
#245=DIRECTION('',(0.,1.,0.));
#246=DIRECTION('',(1.,0.,0.));
#247=FACE_OUTER_BOUND('',#248,.T.);
#248=EDGE_LOOP('',(#514));
#249=FACE_OUTER_BOUND('',#250,.T.);
#250=EDGE_LOOP('',(#515));
#251=CONICAL_SURFACE('',#252,2.225,0.785398163397449);
#252=AXIS2_PLACEMENT_3D('',#253,#254,#255);
#253=CARTESIAN_POINT('',(-12.0470021181109,8.38363828919465,0.624999999999998));
#254=DIRECTION('',(1.22464679914735E-16,0.,-1.));
#255=DIRECTION('',(-1.,0.,-1.22464679914735E-16));
#256=FACE_OUTER_BOUND('',#257,.T.);
#257=EDGE_LOOP('',(#516));
#258=FACE_OUTER_BOUND('',#259,.T.);
#259=EDGE_LOOP('',(#517));
#260=CONICAL_SURFACE('',#261,2.225,0.785398163397448);
#261=AXIS2_PLACEMENT_3D('',#262,#263,#264);
#262=CARTESIAN_POINT('',(-8.72560844392489E-16,12.5,0.625));
#263=DIRECTION('',(1.22464679914735E-16,0.,-1.));
#264=DIRECTION('',(-1.,0.,-1.22464679914735E-16));
#265=FACE_OUTER_BOUND('',#266,.T.);
#266=EDGE_LOOP('',(#518));
#267=FACE_OUTER_BOUND('',#268,.T.);
#268=EDGE_LOOP('',(#519));
#269=CONICAL_SURFACE('',#270,2.225,0.785398163397448);
#270=AXIS2_PLACEMENT_3D('',#271,#272,#273);
#271=CARTESIAN_POINT('',(-15.,-4.,0.624999999999998));
#272=DIRECTION('',(1.22464679914735E-16,0.,-1.));
#273=DIRECTION('',(-1.,0.,-1.22464679914735E-16));
#274=FACE_BOUND('',#275,.T.);
#275=EDGE_LOOP('',(#520,#521,#522,#523,#524,#525,#526,#527,#528));
#276=FACE_BOUND('',#277,.T.);
#277=EDGE_LOOP('',(#529));
#278=FACE_BOUND('',#279,.T.);
#279=EDGE_LOOP('',(#530));
#280=FACE_BOUND('',#281,.T.);
#281=EDGE_LOOP('',(#531));
#282=PLANE('',#283);
#283=AXIS2_PLACEMENT_3D('',#284,#285,#286);
#284=CARTESIAN_POINT('',(-1.71450551880629E-15,0.,14.));
#285=DIRECTION('',(1.22464679914735E-16,0.,-1.));
#286=DIRECTION('',(-1.,0.,-1.22464679914735E-16));
#287=FACE_BOUND('',#288,.T.);
#288=EDGE_LOOP('',(#532,#533,#534,#535));
#289=PLANE('',#290);
#290=AXIS2_PLACEMENT_3D('',#291,#292,#293);
#291=CARTESIAN_POINT('',(-2.62665440280302E-15,9.5,14.));
#292=DIRECTION('',(0.,-1.,0.));
#293=DIRECTION('',(-1.,0.,0.));
#294=FACE_BOUND('',#295,.T.);
#295=EDGE_LOOP('',(#536,#537,#538,#539,#540,#541,#542,#543,#544));
#296=PLANE('',#297);
#297=AXIS2_PLACEMENT_3D('',#298,#299,#300);
#298=CARTESIAN_POINT('',(0.,0.,12.));
#299=DIRECTION('',(0.,0.,1.));
#300=DIRECTION('',(1.85240692308003E-16,1.,0.));
#301=FACE_OUTER_BOUND('',#302,.T.);
#302=EDGE_LOOP('',(#545));
#303=FACE_OUTER_BOUND('',#304,.T.);
#304=EDGE_LOOP('',(#546));
#305=CYLINDRICAL_SURFACE('',#306,1.6);
#306=AXIS2_PLACEMENT_3D('',#307,#308,#309);
#307=CARTESIAN_POINT('',(-12.0470021181109,8.38363828919465,14.));
#308=DIRECTION('',(1.22464679914735E-16,0.,-1.));
#309=DIRECTION('',(-1.,0.,-1.22464679914735E-16));
#310=FACE_OUTER_BOUND('',#311,.T.);
#311=EDGE_LOOP('',(#547));
#312=FACE_OUTER_BOUND('',#313,.T.);
#313=EDGE_LOOP('',(#548));
#314=CYLINDRICAL_SURFACE('',#315,1.6);
#315=AXIS2_PLACEMENT_3D('',#316,#317,#318);
#316=CARTESIAN_POINT('',(-15.,-4.,14.));
#317=DIRECTION('',(1.22464679914735E-16,0.,-1.));
#318=DIRECTION('',(-1.,0.,-1.22464679914735E-16));
#319=FACE_BOUND('',#320,.T.);
#320=EDGE_LOOP('',(#549,#550,#551,#552));
#321=CYLINDRICAL_SURFACE('',#322,1.5);
#322=AXIS2_PLACEMENT_3D('',#323,#324,#325);
#323=CARTESIAN_POINT('',(-4.61638813239684,6.00000000006667,1.3));
#324=DIRECTION('',(0.,-1.,0.));
#325=DIRECTION('',(0.543104486164334,0.,0.839665122002918));
#326=FACE_BOUND('',#327,.T.);
#327=EDGE_LOOP('',(#553,#554,#555));
#328=(BOUNDED_SURFACE()B_SPLINE_SURFACE(3,2,(
(#329,#330,#331),
(#332,#333,#334),
(#335,#336,#337),
(#338,#339,#340),
(#341,#342,#343),
(#344,#345,#346),
(#347,#348,#349),
(#350,#351,#352),
(#353,#354,#355),
(#356,#357,#358)),
.UNSPECIFIED.,.F.,.F.,.F.)B_SPLINE_SURFACE_WITH_KNOTS((4,1,1,1,1,1,1,4),
(3,3),
(0.,1.28652899652076,1.71611780118953,2.12402228695276,2.53192677271598,2.95541295623947,
3.35382570666093,3.75762298373472),
(0.,1.),
.UNSPECIFIED.)GEOMETRIC_REPRESENTATION_ITEM()RATIONAL_B_SPLINE_SURFACE((
(1.,1.,1.),
(1.,1.00000409625028,1.),
(1.,0.997659765347072,1.),
(1.,0.991136091763029,1.),
(1.,0.986346069861164,1.),
(1.,0.980660803769828,1.),
(1.,0.974194938181522,1.),
(1.,0.966962569850473,1.),
(1.,0.961781930118112,1.),
(1.,0.959078300811451,1.)))REPRESENTATION_ITEM('')SURFACE());
#329=CARTESIAN_POINT('',(-4.15000000000019,-9.52317631496214E-16,2.8));
#330=CARTESIAN_POINT('',(-4.15000000000009,-9.84387237394259E-16,2.8));
#331=CARTESIAN_POINT('',(-4.15,-1.0164568432923E-15,2.8));
#332=CARTESIAN_POINT('',(-4.24862569953916,-0.191053420222025,2.8));
#333=CARTESIAN_POINT('',(-4.20122715359947,-0.198381580325231,2.7999976099794));
#334=CARTESIAN_POINT('',(-4.14996940378757,-0.19125317819514,2.80002037765969));
#335=CARTESIAN_POINT('',(-4.36562014776373,-0.453393976511219,2.8));
#336=CARTESIAN_POINT('',(-4.25016875960066,-0.462678170087221,2.80000367732948));
#337=CARTESIAN_POINT('',(-4.13183658490473,-0.453183327492126,2.78651431939677));
#338=CARTESIAN_POINT('',(-4.47390975780279,-0.773812636356436,2.8));
#339=CARTESIAN_POINT('',(-4.2732394789008,-0.782246432441426,2.79999647708869));
#340=CARTESIAN_POINT('',(-4.07885529113232,-0.77399817849135,2.74824549792299));
#341=CARTESIAN_POINT('',(-4.52756048683365,-0.966637932156566,2.8));
#342=CARTESIAN_POINT('',(-4.27572367163933,-0.967234175654946,2.79999580508753));
#343=CARTESIAN_POINT('',(-4.03732585737644,-0.966625565442519,2.7186780210363));
#344=CARTESIAN_POINT('',(-4.5675956910628,-1.1482280587099,2.8));
#345=CARTESIAN_POINT('',(-4.26715826486684,-1.14916231581214,2.79999353497192));
#346=CARTESIAN_POINT('',(-3.98939758690453,-1.14839490658627,2.6851087521441));
#347=CARTESIAN_POINT('',(-4.59478426689872,-1.31822210513645,2.8));
#348=CARTESIAN_POINT('',(-4.24744013632683,-1.32586053349533,2.80000327022668));
#349=CARTESIAN_POINT('',(-3.93639362231407,-1.31807570085154,2.64869045422407));
#350=CARTESIAN_POINT('',(-4.61225721997956,-1.49059235213485,2.8));
#351=CARTESIAN_POINT('',(-4.2164587283049,-1.49887735292109,2.79999857330331));
#352=CARTESIAN_POINT('',(-3.87447850494566,-1.49065557438687,2.60702184459398));
#353=CARTESIAN_POINT('',(-4.61639109034799,-1.60273332898421,2.8));
#354=CARTESIAN_POINT('',(-4.18908320008104,-1.6093601222741,2.8000000253123));
#355=CARTESIAN_POINT('',(-3.82861507893392,-1.60271869645616,2.57688620005069));
#356=CARTESIAN_POINT('',(-4.61638815309222,-1.66414246899382,2.8));
#357=CARTESIAN_POINT('',(-4.17355655375243,-1.66414258601428,2.80000000468828));
#358=CARTESIAN_POINT('',(-3.80172712401125,-1.66414268455477,2.55949491521988));
#359=FACE_BOUND('',#360,.T.);
#360=EDGE_LOOP('',(#556,#557,#558));
#361=(BOUNDED_SURFACE()B_SPLINE_SURFACE(3,2,(
(#362,#363,#364),
(#365,#366,#367),
(#368,#369,#370),
(#371,#372,#373),
(#374,#375,#376),
(#377,#378,#379),
(#380,#381,#382),
(#383,#384,#385)),
.UNSPECIFIED.,.F.,.F.,.F.)B_SPLINE_SURFACE_WITH_KNOTS((4,1,1,1,1,4),
(3,3),
(0.,1.28072855728315,1.79591053135747,2.30401804960596,2.81212556785445,3.75825149149413),
(0.,1.),
.UNSPECIFIED.)GEOMETRIC_REPRESENTATION_ITEM()RATIONAL_B_SPLINE_SURFACE((
(1.,1.,1.),
(1.,0.999862186876683,1.),
(1.,0.997584313568118,1.),
(1.,0.990324537576551,1.),
(1.,0.984055902688568,1.),
(1.,0.974319392093793,1.),
(1.,0.965411912803673,1.),
(1.,0.959078534787581,1.)))REPRESENTATION_ITEM('')SURFACE());
#362=CARTESIAN_POINT('',(4.15000000000019,6.98203420673138E-16,2.8));
#363=CARTESIAN_POINT('',(4.15000000000009,6.03215921159645E-16,2.8));
#364=CARTESIAN_POINT('',(4.15,5.08228421646152E-16,2.8));
#365=CARTESIAN_POINT('',(4.24948524638461,-0.192714978040456,2.8));
#366=CARTESIAN_POINT('',(4.20091776166727,-0.196808843693089,2.8000087008461));
#367=CARTESIAN_POINT('',(4.15007436025468,-0.192535610909617,2.80009520328265));
#368=CARTESIAN_POINT('',(4.37224963897543,-0.46847475968913,2.8));
#369=CARTESIAN_POINT('',(4.25223671881988,-0.474242496164791,2.79998614523726));
#370=CARTESIAN_POINT('',(4.13062617834639,-0.468758585983443,2.78561543812998));
#371=CARTESIAN_POINT('',(4.48730995615168,-0.815368520317408,2.8));
#372=CARTESIAN_POINT('',(4.27561157111285,-0.820130560489164,2.80000338322505));
#373=CARTESIAN_POINT('',(4.07149594160228,-0.815268726130612,2.74294105843377));
#374=CARTESIAN_POINT('',(4.54786328183908,-1.04814713609411,2.8));
#375=CARTESIAN_POINT('',(4.27433438388191,-1.0472791963367,2.79999111546326));
#376=CARTESIAN_POINT('',(4.01768143613356,-1.04834993040666,2.70479303680353));
#377=CARTESIAN_POINT('',(4.60099878392477,-1.33306337654839,2.8));
#378=CARTESIAN_POINT('',(4.25090702674714,-1.33240440860084,2.80000756811949));
#379=CARTESIAN_POINT('',(3.93486558947184,-1.33275577473789,2.64735869230088));
#380=CARTESIAN_POINT('',(4.61641411963209,-1.53705758146006,2.8));
#381=CARTESIAN_POINT('',(4.20981606146157,-1.53631199116891,2.79999625742768));
#382=CARTESIAN_POINT('',(3.85731724936796,-1.53722126389377,2.59544965700872));
#383=CARTESIAN_POINT('',(4.61638825400109,-1.66414254591826,2.8));
#384=CARTESIAN_POINT('',(4.1735566059196,-1.66414259840276,2.80000002756086));
#385=CARTESIAN_POINT('',(3.80172714246488,-1.66414264239752,2.5594949271558));
#386=FACE_BOUND('',#387,.T.);
#387=EDGE_LOOP('',(#559,#560,#561,#562));
#388=CYLINDRICAL_SURFACE('',#389,1.5);
#389=AXIS2_PLACEMENT_3D('',#390,#391,#392);
#390=CARTESIAN_POINT('',(4.61638813239684,6.0000000001,1.3));
#391=DIRECTION('',(-5.22885994777573E-17,1.,0.));
#392=DIRECTION('',(-0.543104486164335,-2.83981729516201E-17,0.839665122002917));
#393=ORIENTED_EDGE('',*,*,#563,.F.);
#394=ORIENTED_EDGE('',*,*,#564,.F.);
#395=ORIENTED_EDGE('',*,*,#565,.T.);
#396=ORIENTED_EDGE('',*,*,#566,.F.);
#397=ORIENTED_EDGE('',*,*,#567,.F.);
#398=ORIENTED_EDGE('',*,*,#568,.F.);
#399=ORIENTED_EDGE('',*,*,#569,.T.);
#400=ORIENTED_EDGE('',*,*,#570,.T.);
#401=ORIENTED_EDGE('',*,*,#571,.F.);
#402=ORIENTED_EDGE('',*,*,#572,.F.);
#403=ORIENTED_EDGE('',*,*,#573,.T.);
#404=ORIENTED_EDGE('',*,*,#574,.F.);
#405=ORIENTED_EDGE('',*,*,#575,.T.);
#406=ORIENTED_EDGE('',*,*,#576,.T.);
#407=ORIENTED_EDGE('',*,*,#577,.F.);
#408=ORIENTED_EDGE('',*,*,#570,.F.);
#409=ORIENTED_EDGE('',*,*,#578,.T.);
#410=ORIENTED_EDGE('',*,*,#579,.T.);
#411=ORIENTED_EDGE('',*,*,#580,.T.);
#412=ORIENTED_EDGE('',*,*,#573,.F.);
#413=ORIENTED_EDGE('',*,*,#581,.F.);
#414=ORIENTED_EDGE('',*,*,#582,.T.);
#415=ORIENTED_EDGE('',*,*,#583,.F.);
#416=ORIENTED_EDGE('',*,*,#584,.F.);
#417=ORIENTED_EDGE('',*,*,#585,.F.);
#418=ORIENTED_EDGE('',*,*,#586,.F.);
#419=ORIENTED_EDGE('',*,*,#587,.F.);
#420=ORIENTED_EDGE('',*,*,#588,.F.);
#421=ORIENTED_EDGE('',*,*,#589,.T.);
#422=ORIENTED_EDGE('',*,*,#590,.T.);
#423=ORIENTED_EDGE('',*,*,#591,.T.);
#424=ORIENTED_EDGE('',*,*,#575,.F.);
#425=ORIENTED_EDGE('',*,*,#592,.T.);
#426=ORIENTED_EDGE('',*,*,#593,.T.);
#427=ORIENTED_EDGE('',*,*,#563,.T.);
#428=ORIENTED_EDGE('',*,*,#594,.F.);
#429=ORIENTED_EDGE('',*,*,#565,.F.);
#430=ORIENTED_EDGE('',*,*,#595,.F.);
#431=ORIENTED_EDGE('',*,*,#578,.F.);
#432=ORIENTED_EDGE('',*,*,#569,.F.);
#433=ORIENTED_EDGE('',*,*,#596,.T.);
#434=ORIENTED_EDGE('',*,*,#597,.T.);
#435=ORIENTED_EDGE('',*,*,#598,.T.);
#436=ORIENTED_EDGE('',*,*,#599,.T.);
#437=ORIENTED_EDGE('',*,*,#600,.T.);
#438=ORIENTED_EDGE('',*,*,#601,.T.);
#439=ORIENTED_EDGE('',*,*,#571,.T.);
#440=ORIENTED_EDGE('',*,*,#577,.T.);
#441=ORIENTED_EDGE('',*,*,#602,.T.);
#442=ORIENTED_EDGE('',*,*,#603,.T.);
#443=ORIENTED_EDGE('',*,*,#567,.T.);
#444=ORIENTED_EDGE('',*,*,#604,.T.);
#445=ORIENTED_EDGE('',*,*,#605,.T.);
#446=ORIENTED_EDGE('',*,*,#581,.T.);
#447=ORIENTED_EDGE('',*,*,#572,.T.);
#448=ORIENTED_EDGE('',*,*,#601,.F.);
#449=ORIENTED_EDGE('',*,*,#576,.F.);
#450=ORIENTED_EDGE('',*,*,#606,.F.);
#451=ORIENTED_EDGE('',*,*,#607,.T.);
#452=ORIENTED_EDGE('',*,*,#608,.T.);
#453=ORIENTED_EDGE('',*,*,#596,.F.);
#454=ORIENTED_EDGE('',*,*,#609,.T.);
#455=ORIENTED_EDGE('',*,*,#582,.F.);
#456=ORIENTED_EDGE('',*,*,#605,.F.);
#457=ORIENTED_EDGE('',*,*,#600,.F.);
#458=ORIENTED_EDGE('',*,*,#610,.F.);
#459=ORIENTED_EDGE('',*,*,#611,.T.);
#460=ORIENTED_EDGE('',*,*,#612,.T.);
#461=ORIENTED_EDGE('',*,*,#613,.T.);
#462=ORIENTED_EDGE('',*,*,#609,.F.);
#463=ORIENTED_EDGE('',*,*,#614,.T.);
#464=ORIENTED_EDGE('',*,*,#615,.T.);
#465=ORIENTED_EDGE('',*,*,#583,.T.);
#466=ORIENTED_EDGE('',*,*,#615,.F.);
#467=ORIENTED_EDGE('',*,*,#616,.F.);
#468=ORIENTED_EDGE('',*,*,#617,.F.);
#469=ORIENTED_EDGE('',*,*,#584,.T.);
#470=ORIENTED_EDGE('',*,*,#618,.F.);
#471=ORIENTED_EDGE('',*,*,#585,.T.);
#472=ORIENTED_EDGE('',*,*,#617,.T.);
#473=ORIENTED_EDGE('',*,*,#619,.T.);
#474=ORIENTED_EDGE('',*,*,#620,.F.);
#475=ORIENTED_EDGE('',*,*,#621,.F.);
#476=ORIENTED_EDGE('',*,*,#622,.T.);
#477=ORIENTED_EDGE('',*,*,#586,.T.);
#478=ORIENTED_EDGE('',*,*,#618,.T.);
#479=ORIENTED_EDGE('',*,*,#623,.T.);
#480=ORIENTED_EDGE('',*,*,#622,.F.);
#481=ORIENTED_EDGE('',*,*,#624,.T.);
#482=ORIENTED_EDGE('',*,*,#625,.T.);
#483=ORIENTED_EDGE('',*,*,#587,.T.);
#484=ORIENTED_EDGE('',*,*,#625,.F.);
#485=ORIENTED_EDGE('',*,*,#626,.F.);
#486=ORIENTED_EDGE('',*,*,#627,.F.);
#487=ORIENTED_EDGE('',*,*,#588,.T.);
#488=ORIENTED_EDGE('',*,*,#627,.T.);
#489=ORIENTED_EDGE('',*,*,#628,.T.);
#490=ORIENTED_EDGE('',*,*,#629,.F.);
#491=ORIENTED_EDGE('',*,*,#630,.T.);
#492=ORIENTED_EDGE('',*,*,#631,.T.);
#493=ORIENTED_EDGE('',*,*,#589,.F.);
#494=ORIENTED_EDGE('',*,*,#590,.F.);
#495=ORIENTED_EDGE('',*,*,#631,.F.);
#496=ORIENTED_EDGE('',*,*,#632,.T.);
#497=ORIENTED_EDGE('',*,*,#633,.T.);
#498=ORIENTED_EDGE('',*,*,#591,.F.);
#499=ORIENTED_EDGE('',*,*,#633,.F.);
#500=ORIENTED_EDGE('',*,*,#634,.T.);
#501=ORIENTED_EDGE('',*,*,#606,.T.);
#502=ORIENTED_EDGE('',*,*,#635,.T.);
#503=ORIENTED_EDGE('',*,*,#636,.T.);
#504=ORIENTED_EDGE('',*,*,#597,.F.);
#505=ORIENTED_EDGE('',*,*,#608,.F.);
#506=ORIENTED_EDGE('',*,*,#637,.T.);
#507=ORIENTED_EDGE('',*,*,#638,.T.);
#508=ORIENTED_EDGE('',*,*,#598,.F.);
#509=ORIENTED_EDGE('',*,*,#636,.F.);
#510=ORIENTED_EDGE('',*,*,#639,.T.);
#511=ORIENTED_EDGE('',*,*,#610,.T.);
#512=ORIENTED_EDGE('',*,*,#599,.F.);
#513=ORIENTED_EDGE('',*,*,#638,.F.);
#514=ORIENTED_EDGE('',*,*,#640,.T.);
#515=ORIENTED_EDGE('',*,*,#602,.F.);
#516=ORIENTED_EDGE('',*,*,#621,.T.);
#517=ORIENTED_EDGE('',*,*,#603,.F.);
#518=ORIENTED_EDGE('',*,*,#641,.T.);
#519=ORIENTED_EDGE('',*,*,#604,.F.);
#520=ORIENTED_EDGE('',*,*,#611,.F.);
#521=ORIENTED_EDGE('',*,*,#639,.F.);
#522=ORIENTED_EDGE('',*,*,#637,.F.);
#523=ORIENTED_EDGE('',*,*,#635,.F.);
#524=ORIENTED_EDGE('',*,*,#607,.F.);
#525=ORIENTED_EDGE('',*,*,#634,.F.);
#526=ORIENTED_EDGE('',*,*,#632,.F.);
#527=ORIENTED_EDGE('',*,*,#630,.F.);
#528=ORIENTED_EDGE('',*,*,#642,.F.);
#529=ORIENTED_EDGE('',*,*,#620,.T.);
#530=ORIENTED_EDGE('',*,*,#643,.T.);
#531=ORIENTED_EDGE('',*,*,#644,.T.);
#532=ORIENTED_EDGE('',*,*,#645,.T.);
#533=ORIENTED_EDGE('',*,*,#612,.F.);
#534=ORIENTED_EDGE('',*,*,#642,.T.);
#535=ORIENTED_EDGE('',*,*,#629,.T.);
#536=ORIENTED_EDGE('',*,*,#614,.F.);
#537=ORIENTED_EDGE('',*,*,#613,.F.);
#538=ORIENTED_EDGE('',*,*,#645,.F.);
#539=ORIENTED_EDGE('',*,*,#628,.F.);
#540=ORIENTED_EDGE('',*,*,#626,.T.);
#541=ORIENTED_EDGE('',*,*,#624,.F.);
#542=ORIENTED_EDGE('',*,*,#623,.F.);
#543=ORIENTED_EDGE('',*,*,#619,.F.);
#544=ORIENTED_EDGE('',*,*,#616,.T.);
#545=ORIENTED_EDGE('',*,*,#644,.F.);
#546=ORIENTED_EDGE('',*,*,#640,.F.);
#547=ORIENTED_EDGE('',*,*,#643,.F.);
#548=ORIENTED_EDGE('',*,*,#641,.F.);
#549=ORIENTED_EDGE('',*,*,#592,.F.);
#550=ORIENTED_EDGE('',*,*,#574,.T.);
#551=ORIENTED_EDGE('',*,*,#595,.T.);
#552=ORIENTED_EDGE('',*,*,#646,.T.);
#553=ORIENTED_EDGE('',*,*,#564,.T.);
#554=ORIENTED_EDGE('',*,*,#593,.F.);
#555=ORIENTED_EDGE('',*,*,#646,.F.);
#556=ORIENTED_EDGE('',*,*,#579,.F.);
#557=ORIENTED_EDGE('',*,*,#566,.T.);
#558=ORIENTED_EDGE('',*,*,#647,.T.);
#559=ORIENTED_EDGE('',*,*,#580,.F.);
#560=ORIENTED_EDGE('',*,*,#647,.F.);
#561=ORIENTED_EDGE('',*,*,#594,.T.);
#562=ORIENTED_EDGE('',*,*,#568,.T.);
#563=EDGE_CURVE('',#648,#649,#650,.T.);
#564=EDGE_CURVE('',#651,#648,#652,.F.);
#565=EDGE_CURVE('',#651,#653,#654,.T.);
#566=EDGE_CURVE('',#649,#653,#655,.T.);
#567=EDGE_CURVE('',#656,#656,#657,.F.);
#568=EDGE_CURVE('',#658,#659,#660,.F.);
#569=EDGE_CURVE('',#658,#661,#662,.F.);
#570=EDGE_CURVE('',#661,#663,#664,.T.);
#571=EDGE_CURVE('',#665,#663,#666,.T.);
#572=EDGE_CURVE('',#667,#665,#668,.T.);
#573=EDGE_CURVE('',#667,#659,#669,.T.);
#574=EDGE_CURVE('',#670,#671,#672,.F.);
#575=EDGE_CURVE('',#670,#673,#674,.T.);
#576=EDGE_CURVE('',#673,#675,#676,.T.);
#577=EDGE_CURVE('',#663,#675,#677,.T.);
#578=EDGE_CURVE('',#661,#671,#678,.F.);
#579=EDGE_CURVE('',#649,#679,#680,.T.);
#580=EDGE_CURVE('',#679,#659,#681,.T.);
#581=EDGE_CURVE('',#682,#667,#683,.T.);
#582=EDGE_CURVE('',#682,#684,#685,.T.);
#583=EDGE_CURVE('',#686,#684,#687,.F.);
#584=EDGE_CURVE('',#688,#686,#689,.T.);
#585=EDGE_CURVE('',#690,#688,#691,.F.);
#586=EDGE_CURVE('',#692,#690,#693,.F.);
#587=EDGE_CURVE('',#694,#692,#695,.F.);
#588=EDGE_CURVE('',#696,#694,#697,.T.);
#589=EDGE_CURVE('',#696,#698,#699,.T.);
#590=EDGE_CURVE('',#698,#700,#701,.F.);
#591=EDGE_CURVE('',#700,#673,#702,.T.);
#592=EDGE_CURVE('',#670,#703,#704,.F.);
#593=EDGE_CURVE('',#703,#648,#705,.F.);
#594=EDGE_CURVE('',#653,#658,#706,.T.);
#595=EDGE_CURVE('',#671,#651,#707,.F.);
#596=EDGE_CURVE('',#675,#708,#709,.T.);
#597=EDGE_CURVE('',#708,#710,#711,.T.);
#598=EDGE_CURVE('',#710,#712,#713,.T.);
#599=EDGE_CURVE('',#712,#714,#715,.T.);
#600=EDGE_CURVE('',#714,#716,#717,.T.);
#601=EDGE_CURVE('',#716,#665,#718,.T.);
#602=EDGE_CURVE('',#719,#719,#720,.F.);
#603=EDGE_CURVE('',#721,#721,#722,.F.);
#604=EDGE_CURVE('',#723,#723,#724,.F.);
#605=EDGE_CURVE('',#716,#682,#725,.F.);
#606=EDGE_CURVE('',#726,#673,#727,.T.);
#607=EDGE_CURVE('',#726,#728,#729,.T.);
#608=EDGE_CURVE('',#728,#708,#730,.T.);
#609=EDGE_CURVE('',#731,#684,#732,.T.);
#610=EDGE_CURVE('',#733,#714,#734,.T.);
#611=EDGE_CURVE('',#733,#735,#736,.T.);
#612=EDGE_CURVE('',#735,#737,#738,.T.);
#613=EDGE_CURVE('',#737,#731,#739,.F.);
#614=EDGE_CURVE('',#731,#740,#741,.F.);
#615=EDGE_CURVE('',#740,#686,#742,.T.);
#616=EDGE_CURVE('',#743,#740,#744,.T.);
#617=EDGE_CURVE('',#688,#743,#745,.F.);
#618=EDGE_CURVE('',#690,#746,#747,.F.);
#619=EDGE_CURVE('',#743,#746,#748,.F.);
#620=EDGE_CURVE('',#749,#749,#750,.T.);
#621=EDGE_CURVE('',#751,#751,#752,.F.);
#622=EDGE_CURVE('',#753,#692,#754,.T.);
#623=EDGE_CURVE('',#746,#753,#755,.T.);
#624=EDGE_CURVE('',#753,#756,#757,.F.);
#625=EDGE_CURVE('',#756,#694,#758,.T.);
#626=EDGE_CURVE('',#759,#756,#760,.T.);
#627=EDGE_CURVE('',#696,#759,#761,.F.);
#628=EDGE_CURVE('',#759,#762,#763,.F.);
#629=EDGE_CURVE('',#764,#762,#765,.T.);
#630=EDGE_CURVE('',#764,#766,#767,.T.);
#631=EDGE_CURVE('',#766,#698,#768,.T.);
#632=EDGE_CURVE('',#766,#769,#770,.T.);
#633=EDGE_CURVE('',#769,#700,#771,.T.);
#634=EDGE_CURVE('',#769,#726,#772,.T.);
#635=EDGE_CURVE('',#728,#773,#774,.T.);
#636=EDGE_CURVE('',#773,#710,#775,.T.);
#637=EDGE_CURVE('',#773,#776,#777,.T.);
#638=EDGE_CURVE('',#776,#712,#778,.T.);
#639=EDGE_CURVE('',#776,#733,#779,.T.);
#640=EDGE_CURVE('',#780,#780,#781,.F.);
#641=EDGE_CURVE('',#782,#782,#783,.F.);
#642=EDGE_CURVE('',#735,#764,#784,.T.);
#643=EDGE_CURVE('',#785,#785,#786,.T.);
#644=EDGE_CURVE('',#787,#787,#788,.T.);
#645=EDGE_CURVE('',#762,#737,#789,.F.);
#646=EDGE_CURVE('',#651,#703,#790,.F.);
#647=EDGE_CURVE('',#653,#679,#791,.F.);
#648=VERTEX_POINT('',#792);
#649=VERTEX_POINT('',#793);
#650=CIRCLE('',#794,4.15);
#651=VERTEX_POINT('',#798);
#652=B_SPLINE_CURVE_WITH_KNOTS('',3,
(#799,#800,#801,#802,#803,#804,#805,#806,#807,#808,#809,#810,#811,#812,#813,#814,
#815,#816,#817,#818,#819,#820,#821,#822,#823),
.UNSPECIFIED.,.F.,.F.,
(4,1,1,1,1,1,1,1,1,1,1,1,1,1,1,1,1,1,1,1,1,1,4),
(0.,0.0613667434607864,0.121998434670227,0.181884048507479,0.24031962543711,0.298112485988877,
0.371453345200979,0.442549692797487,0.511285184793809,0.574181509665604,0.633443192362397,
0.688991084569175,0.726162922854166,0.761108774412371,0.79319085281628,0.824596327763644,
0.853855497829942,0.881664310502514,0.90727558331258,0.932141792439164,0.955516055987788,
0.97813472908038,1.),
.UNSPECIFIED.);
#653=VERTEX_POINT('',#824);
#654=B_SPLINE_CURVE_WITH_KNOTS('',3,
(#825,#826,#827,#828,#829,#830,#831,#832,#833,#834,#835,#836,#837,#838,#839,#840,
#841,#842,#843,#844,#845,#846,#847,#848,#849,#850,#851,#852,#853,#854,#855,#856,
#857,#858,#859,#860,#861,#862,#863,#864,#865,#866,#867,#868,#869,#870,#871,#872,
#873,#874,#875,#876,#877,#878,#879,#880,#881,#882,#883,#884,#885,#886,#887,#888,
#889,#890,#891,#892,#893,#894,#895,#896,#897,#898,#899,#900,#901,#902,#903,#904,
#905,#906,#907,#908,#909,#910,#911,#912,#913,#914,#915,#916,#917,#918,#919,#920,
#921,#922,#923,#924,#925,#926,#927,#928,#929,#930,#931,#932,#933,#934,#935,#936,
#937,#938,#939,#940,#941),
.UNSPECIFIED.,.F.,.F.,
(4,1,1,1,1,1,1,1,1,1,1,1,1,1,1,1,1,1,1,1,1,1,1,1,1,1,1,1,1,1,1,1,1,1,1,1,1,1,1,1,
1,1,1,1,1,1,1,1,1,1,1,1,1,1,1,1,1,1,1,1,1,1,1,1,1,1,1,1,1,1,1,1,1,1,1,1,1,1,1,1,
1,1,1,1,1,1,1,1,1,1,1,1,1,1,1,1,1,1,1,1,1,1,1,1,1,1,1,1,1,1,1,1,1,1,4),
(0.,0.0117493230071619,0.0233252652969398,0.0348205703323485,0.046362846233219,0.0579856412595536,
0.069688956358379,0.0814205278621048,0.0931822198518941,0.104964158403588,0.116752529009624,
0.12851933620917,0.140217290295354,0.151879851620393,0.163433301946253,0.174903267358474,
0.186228366682491,0.197494098896065,0.212115741553655,0.226439343624882,0.240448620198364,
0.250563191495074,0.26048775622483,0.270137443767715,0.279705309148215,0.288963923098353,
0.297995014430523,0.306668784410032,0.315204764481558,0.323380300500147,0.331335002812223,
0.338993375827405,0.346573526745632,0.356302736988109,0.365817421704443,0.375110682088035,
0.381875481650868,0.388548734325501,0.395121306259463,0.401684633673214,0.408238703081049,
0.414789755117039,0.421334417917166,0.427879322640958,0.434419794570862,0.440957685257652,
0.447491782109434,0.454025119115618,0.460553041937432,0.467075588607892,0.473588228574578,
0.480094378181695,0.48658868941152,0.493074801675672,0.499553808863788,0.500191742140587,
0.506036771718849,0.512529823863313,0.519027835277629,0.525521446858693,0.532008013600784,
0.538469756629202,0.5449087948582,0.551315834560426,0.557710643806611,0.564105979875935,
0.570505470031838,0.57690024232757,0.583292743714293,0.591774300345787,0.600222811085185,
0.608633411684677,0.614934127910524,0.621243912227236,0.62757276665558,0.63391368036047,
0.64029153656179,0.646693425894346,0.653132648319099,0.659581482839718,0.666165188284434,
0.672872208150614,0.682177241458146,0.69176111032669,0.701618363498021,0.709350261512033,
0.717158363665128,0.725293662940333,0.73367468512889,0.742454332240098,0.751387624027517,
0.760703506016171,0.770247344308542,0.783459460387233,0.796869947425332,0.810464124366989,
0.820854664588607,0.83129372415911,0.841772646347913,0.852244968903289,0.862660970719289,
0.873027287636635,0.886449779759234,0.902670074952484,0.918301845819709,0.93029131162696,
0.938827043620973,0.947260279001005,0.955375288246198,0.963270238976522,0.970835462459104,
0.978289830533133,0.985572178710385,0.992803393419955,1.),
.UNSPECIFIED.);
#655=B_SPLINE_CURVE_WITH_KNOTS('',3,
(#942,#943,#944,#945,#946,#947,#948,#949,#950,#951,#952,#953,#954,#955,#956,#957,
#958,#959,#960,#961,#962,#963,#964,#965,#966,#967,#968),
.UNSPECIFIED.,.F.,.F.,
(4,1,1,1,1,1,1,1,1,1,1,1,1,1,1,1,1,1,1,1,1,1,1,1,4),
(0.,0.0418005086229191,0.0836201225671692,0.125460659352023,0.167344270732976,0.209231378598704,
0.251123485817497,0.293054876516532,0.334974472171334,0.376854170134883,0.41862324281782,
0.460309396104936,0.501998876312127,0.543719016647031,0.58539522963354,0.627000418283648,
0.668480574006306,0.709888517062041,0.751329655291133,0.792819471129752,0.834320943695642,
0.875804378827602,0.917227964371558,0.958549296689588,1.),
.UNSPECIFIED.);
#656=VERTEX_POINT('',#969);
#657=CIRCLE('',#970,4.15);
#658=VERTEX_POINT('',#974);
#659=VERTEX_POINT('',#975);
#660=B_SPLINE_CURVE_WITH_KNOTS('',3,
(#976,#977,#978,#979,#980,#981,#982,#983,#984,#985,#986,#987,#988,#989,#990,#991,
#992,#993,#994,#995,#996),
.UNSPECIFIED.,.F.,.F.,
(4,1,1,1,1,1,1,1,1,1,1,1,1,1,1,1,1,1,4),
(0.,0.0246452375947681,0.0501597806991978,0.0765489551277367,0.104713213636743,0.133752703969238,
0.186384243811296,0.276601611496559,0.415742001959293,0.570478771621164,0.694674885520785,
0.776964434187153,0.821756754116855,0.860188218070965,0.89100616639438,0.920695450938631,
0.948299517422083,0.974754227328446,1.),
.UNSPECIFIED.);
#661=VERTEX_POINT('',#997);
#662=B_SPLINE_CURVE_WITH_KNOTS('',3,
(#998,#999,#1000,#1001,#1002,#1003,#1004,#1005,#1006,#1007,#1008,#1009,#1010,#1011,
#1012,#1013,#1014,#1015,#1016,#1017,#1018,#1019,#1020,#1021,#1022,#1023,#1024,#1025,
#1026,#1027,#1028,#1029,#1030,#1031,#1032,#1033,#1034),
.UNSPECIFIED.,.F.,.F.,
(4,1,1,1,1,1,1,1,1,1,1,1,1,1,1,1,1,1,1,1,1,1,1,1,1,1,1,1,1,1,1,1,1,1,4),
(0.,0.0305707171758103,0.0611423317001944,0.0917162880638762,0.122316321913045,0.152923703880365,
0.183615075921891,0.214369711924006,0.245291798712871,0.276324064880716,0.307351203014724,
0.338286358418876,0.368944998349167,0.399405043963589,0.429334782574385,0.458948221538491,
0.488130667910368,0.517184799658896,0.548230931950049,0.581407828775364,0.616009853505187,
0.649888293708689,0.682437096940225,0.714350027491404,0.744324704795314,0.773011893372639,
0.808483969491077,0.85092942721988,0.889905053801829,0.917365625749442,0.934255607574634,
0.951005187812962,0.967473251564243,0.983813003425073,1.),
.UNSPECIFIED.);
#663=VERTEX_POINT('',#1035);
#664=LINE('',#1036,#1037);
#665=VERTEX_POINT('',#1039);
#666=CIRCLE('',#1040,9.);
#667=VERTEX_POINT('',#1044);
#668=LINE('',#1045,#1046);
#669=CIRCLE('',#1048,9.);
#670=VERTEX_POINT('',#1052);
#671=VERTEX_POINT('',#1053);
#672=CIRCLE('',#1054,1.5);
#673=VERTEX_POINT('',#1058);
#674=LINE('',#1059,#1060);
#675=VERTEX_POINT('',#1062);
#676=LINE('',#1063,#1064);
#677=LINE('',#1066,#1067);
#678=CIRCLE('',#1069,7.);
#679=VERTEX_POINT('',#1073);
#680=B_SPLINE_CURVE_WITH_KNOTS('',3,
(#1074,#1075,#1076,#1077,#1078,#1079,#1080,#1081,#1082,#1083,#1084,#1085,#1086,#1087,
#1088,#1089,#1090,#1091),
.UNSPECIFIED.,.F.,.F.,
(4,2,2,2,2,2,2,2,4),
(0.,0.0486542419524841,0.164885606421961,0.29930795418539,0.480497534172859,0.678985622130045,
0.83658313285751,0.918291566428755,1.),
.UNSPECIFIED.);
#681=LINE('',#1092,#1093);
#682=VERTEX_POINT('',#1095);
#683=LINE('',#1096,#1097);
#684=VERTEX_POINT('',#1099);
#685=CIRCLE('',#1100,3.);
#686=VERTEX_POINT('',#1104);
#687=CIRCLE('',#1105,0.5);
#688=VERTEX_POINT('',#1109);
#689=CIRCLE('',#1110,11.9);
#690=VERTEX_POINT('',#1114);
#691=CIRCLE('',#1115,0.5);
#692=VERTEX_POINT('',#1119);
#693=CIRCLE('',#1120,1.6);
#694=VERTEX_POINT('',#1124);
#695=CIRCLE('',#1125,0.499999999999998);
#696=VERTEX_POINT('',#1129);
#697=CIRCLE('',#1130,11.9);
#698=VERTEX_POINT('',#1134);
#699=CIRCLE('',#1135,9.);
#700=VERTEX_POINT('',#1139);
#701=LINE('',#1140,#1141);
#702=CIRCLE('',#1143,3.);
#703=VERTEX_POINT('',#1147);
#704=LINE('',#1148,#1149);
#705=B_SPLINE_CURVE_WITH_KNOTS('',3,
(#1151,#1152,#1153,#1154,#1155,#1156,#1157,#1158,#1159,#1160,#1161,#1162,#1163,#1164,
#1165,#1166,#1167,#1168,#1169,#1170,#1171,#1172),
.UNSPECIFIED.,.F.,.F.,
(4,2,2,2,2,2,2,2,2,2,4),
(0.,0.0461617754872719,0.225108076332325,0.34257855366723,0.529077544865106,0.732683903764754,
0.868764160606195,0.934382080303097,0.967191040151549,0.986045020130944,1.),
.UNSPECIFIED.);
#706=LINE('',#1173,#1174);
#707=LINE('',#1176,#1177);
#708=VERTEX_POINT('',#1179);
#709=CIRCLE('',#1180,5.);
#710=VERTEX_POINT('',#1184);
#711=LINE('',#1185,#1186);
#712=VERTEX_POINT('',#1188);
#713=CIRCLE('',#1189,16.033021797562);
#714=VERTEX_POINT('',#1193);
#715=LINE('',#1194,#1195);
#716=VERTEX_POINT('',#1197);
#717=CIRCLE('',#1198,3.);
#718=LINE('',#1202,#1203);
#719=VERTEX_POINT('',#1205);
#720=CIRCLE('',#1206,2.85);
#721=VERTEX_POINT('',#1210);
#722=CIRCLE('',#1211,2.85);
#723=VERTEX_POINT('',#1215);
#724=CIRCLE('',#1216,2.85);
#725=LINE('',#1220,#1221);
#726=VERTEX_POINT('',#1223);
#727=LINE('',#1224,#1225);
#728=VERTEX_POINT('',#1227);
#729=CIRCLE('',#1228,5.);
#730=LINE('',#1232,#1233);
#731=VERTEX_POINT('',#1235);
#732=LINE('',#1236,#1237);
#733=VERTEX_POINT('',#1239);
#734=LINE('',#1240,#1241);
#735=VERTEX_POINT('',#1243);
#736=CIRCLE('',#1244,3.);
#737=VERTEX_POINT('',#1248);
#738=LINE('',#1249,#1250);
#739=CIRCLE('',#1252,3.);
#740=VERTEX_POINT('',#1256);
#741=CIRCLE('',#1257,0.499999999999999);
#742=LINE('',#1261,#1262);
#743=VERTEX_POINT('',#1264);
#744=CIRCLE('',#1265,11.9);
#745=LINE('',#1269,#1270);
#746=VERTEX_POINT('',#1272);
#747=LINE('',#1273,#1274);
#748=CIRCLE('',#1276,0.499999999999999);
#749=VERTEX_POINT('',#1280);
#750=CIRCLE('',#1281,1.6);
#751=VERTEX_POINT('',#1285);
#752=CIRCLE('',#1286,1.6);
#753=VERTEX_POINT('',#1290);
#754=LINE('',#1291,#1292);
#755=CIRCLE('',#1294,1.6);
#756=VERTEX_POINT('',#1298);
#757=CIRCLE('',#1299,0.499999999999996);
#758=LINE('',#1303,#1304);
#759=VERTEX_POINT('',#1306);
#760=CIRCLE('',#1307,11.9);
#761=LINE('',#1311,#1312);
#762=VERTEX_POINT('',#1314);
#763=CIRCLE('',#1315,9.);
#764=VERTEX_POINT('',#1319);
#765=LINE('',#1320,#1321);
#766=VERTEX_POINT('',#1323);
#767=CIRCLE('',#1324,9.);
#768=LINE('',#1328,#1329);
#769=VERTEX_POINT('',#1331);
#770=LINE('',#1332,#1333);
#771=LINE('',#1335,#1336);
#772=CIRCLE('',#1338,3.);
#773=VERTEX_POINT('',#1342);
#774=LINE('',#1343,#1344);
#775=LINE('',#1346,#1347);
#776=VERTEX_POINT('',#1349);
#777=CIRCLE('',#1350,16.033021797562);
#778=LINE('',#1354,#1355);
#779=LINE('',#1357,#1358);
#780=VERTEX_POINT('',#1360);
#781=CIRCLE('',#1361,1.6);
#782=VERTEX_POINT('',#1365);
#783=CIRCLE('',#1366,1.6);
#784=LINE('',#1370,#1371);
#785=VERTEX_POINT('',#1373);
#786=CIRCLE('',#1374,1.6);
#787=VERTEX_POINT('',#1378);
#788=CIRCLE('',#1379,1.6);
#789=LINE('',#1383,#1384);
#790=CIRCLE('',#1386,1.5);
#791=CIRCLE('',#1390,1.5);
#792=CARTESIAN_POINT('',(-4.15000000000006,-7.40962895203864E-16,2.8));
#793=CARTESIAN_POINT('',(4.15000000000008,5.84218421256946E-16,2.8));
#794=AXIS2_PLACEMENT_3D('',#795,#796,#797);
#795=CARTESIAN_POINT('',(-3.42901103761259E-16,0.,2.8));
#796=DIRECTION('',(1.22464679914735E-16,0.,-1.));
#797=DIRECTION('',(-1.,0.,-1.22464679914735E-16));
#798=CARTESIAN_POINT('',(-3.80173140314668,-1.66413290885555,2.55949768300201));
#799=CARTESIAN_POINT('',(-4.15000000000019,-9.52317631496214E-16,2.79999999999975));
#800=CARTESIAN_POINT('',(-4.15000020964974,-0.0355591421868777,2.80000062960643));
#801=CARTESIAN_POINT('',(-4.14909124344894,-0.106205978464294,2.79933059645275));
#802=CARTESIAN_POINT('',(-4.14505519331702,-0.211319557029016,2.79636185147966));
#803=CARTESIAN_POINT('',(-4.13849150775284,-0.314459522521595,2.79154296043969));
#804=CARTESIAN_POINT('',(-4.12954257557739,-0.415622475255406,2.7849920430211));
#805=CARTESIAN_POINT('',(-4.11729607241011,-0.524082416852177,2.77606073220571));
#806=CARTESIAN_POINT('',(-4.10111053147117,-0.639178668367839,2.76431662081419));
#807=CARTESIAN_POINT('',(-4.08046716172678,-0.75967078227763,2.74944464701616));
#808=CARTESIAN_POINT('',(-4.05757816028093,-0.873387826454535,2.73308961385801));
#809=CARTESIAN_POINT('',(-4.03317903513933,-0.979594972482703,2.71581000210304));
#810=CARTESIAN_POINT('',(-4.00804284881221,-1.07763272405042,2.69817148737205));
#811=CARTESIAN_POINT('',(-3.98462827792807,-1.16074996091287,2.68189622636858));
#812=CARTESIAN_POINT('',(-3.96367948754829,-1.2300395198764,2.66745620706372));
#813=CARTESIAN_POINT('',(-3.94577728926732,-1.28624266517704,2.65519937436553));
#814=CARTESIAN_POINT('',(-3.92816753859936,-1.33901605837133,2.64322167668416));
#815=CARTESIAN_POINT('',(-3.91095840756554,-1.3884460161779,2.63159176158799));
#816=CARTESIAN_POINT('',(-3.89398577672441,-1.43532203809871,2.62019478379683));
#817=CARTESIAN_POINT('',(-3.87764038681214,-1.47887865386317,2.60928691760252));
#818=CARTESIAN_POINT('',(-3.86173836172526,-1.51989455571587,2.59873824702131));
#819=CARTESIAN_POINT('',(-3.84636165840137,-1.55838091980636,2.58859704338683));
#820=CARTESIAN_POINT('',(-3.83126695683973,-1.59511481876717,2.57869823174207));
#821=CARTESIAN_POINT('',(-3.81650288635809,-1.63011355790069,2.56906971290883));
#822=CARTESIAN_POINT('',(-3.80663046457455,-1.65294095470879,2.56266644881351));
#823=CARTESIAN_POINT('',(-3.80173140314303,-1.66413290886159,2.55949768299965));
#824=CARTESIAN_POINT('',(3.80173140315661,-1.66413290883057,2.55949768300843));
#825=CARTESIAN_POINT('',(-3.80173140314668,-1.66413290885324,2.55949768300201));
#826=CARTESIAN_POINT('',(-3.78664648986401,-1.69859417596623,2.54974062614973));
#827=CARTESIAN_POINT('',(-3.75582174673892,-1.7664821006769,2.5299663076454));
#828=CARTESIAN_POINT('',(-3.707248025391,-1.86624047095871,2.49935528377032));
#829=CARTESIAN_POINT('',(-3.65649040370857,-1.96381945932573,2.46795660349699));
#830=CARTESIAN_POINT('',(-3.60323122513626,-2.05991734044589,2.43564734964593));
#831=CARTESIAN_POINT('',(-3.54723061394684,-2.15493141170189,2.40236832939458));
#832=CARTESIAN_POINT('',(-3.48851291560863,-2.24874980317504,2.36822627640554));
#833=CARTESIAN_POINT('',(-3.42716707032514,-2.34118178622272,2.3333641969156));
#834=CARTESIAN_POINT('',(-3.36331557652563,-2.43202017523531,2.29793984201249));
#835=CARTESIAN_POINT('',(-3.29702162262334,-2.52116317321861,2.26207459657096));
#836=CARTESIAN_POINT('',(-3.2284097565308,-2.60844305950143,2.22591936118508));
#837=CARTESIAN_POINT('',(-3.15769301419413,-2.6936119326534,2.18966382488871));
#838=CARTESIAN_POINT('',(-3.08500980283929,-2.77655331014597,2.15344800644414));
#839=CARTESIAN_POINT('',(-3.01060368293404,-2.85705286847396,2.11745549575006));
#840=CARTESIAN_POINT('',(-2.93457786267615,-2.93507683643018,2.08179095082359));
#841=CARTESIAN_POINT('',(-2.85725411935919,-3.01039034974181,2.04665037002057));
#842=CARTESIAN_POINT('',(-2.77860670954034,-3.08312084931689,2.01205997698863));
#843=CARTESIAN_POINT('',(-2.69057831684933,-3.16042765481345,1.97463210535417));
#844=CARTESIAN_POINT('',(-2.59289628904715,-3.24124138444852,1.93474527899095));
#845=CARTESIAN_POINT('',(-2.48556073801441,-3.32423018133381,1.89296471953075));
#846=CARTESIAN_POINT('',(-2.38692958667544,-3.39550999310158,1.85642936010859));
#847=CARTESIAN_POINT('',(-2.29769843893466,-3.45631543126282,1.82482104132001));
#848=CARTESIAN_POINT('',(-2.21854981407074,-3.5076264180881,1.79785047058459));
#849=CARTESIAN_POINT('',(-2.13959250411593,-3.55632624602606,1.77198872214363));
#850=CARTESIAN_POINT('',(-2.06124451265443,-3.60228838729792,1.7473472876776));
#851=CARTESIAN_POINT('',(-1.98348360885308,-3.64566331219623,1.72388697576084));
#852=CARTESIAN_POINT('',(-1.9071984588755,-3.68612400449501,1.70182477891949));
#853=CARTESIAN_POINT('',(-1.83202355481973,-3.724040923031,1.68099558294427));
#854=CARTESIAN_POINT('',(-1.75844572039354,-3.75932670282681,1.66147878228412));
#855=CARTESIAN_POINT('',(-1.68617029766878,-3.79227596104188,1.64313948487908));
#856=CARTESIAN_POINT('',(-1.61576039489476,-3.82279011474046,1.62605767922144));
#857=CARTESIAN_POINT('',(-1.54646682733698,-3.85133244796218,1.60999531820367));
#858=CARTESIAN_POINT('',(-1.47121390220394,-3.88077298537365,1.59334653615452));
#859=CARTESIAN_POINT('',(-1.38958794736025,-3.910814725975,1.57626796539304));
#860=CARTESIAN_POINT('',(-1.3018664286379,-3.9408693015825,1.5590894370051));
#861=CARTESIAN_POINT('',(-1.22251734141617,-3.96610932873182,1.54459193856184));
#862=CARTESIAN_POINT('',(-1.15144737959369,-3.98724367442015,1.5324060284255));
#863=CARTESIAN_POINT('',(-1.08850067920431,-4.00488111432077,1.52220534246203));
#864=CARTESIAN_POINT('',(-1.02582647409547,-4.02138875862519,1.51263106949771));
#865=CARTESIAN_POINT('',(-0.963185374087166,-4.03685044589209,1.50363984222171));
#866=CARTESIAN_POINT('',(-0.900299773077108,-4.05133909654631,1.49519376802565));
#867=CARTESIAN_POINT('',(-0.837191967885692,-4.06484910616326,1.48730022087451));
#868=CARTESIAN_POINT('',(-0.77386282564788,-4.07737972681333,1.47996346035656));
#869=CARTESIAN_POINT('',(-0.710348365620396,-4.08892338771808,1.47319145789139));
#870=CARTESIAN_POINT('',(-0.646668475372014,-4.09947654719836,1.46698955365604));
#871=CARTESIAN_POINT('',(-0.582868726636228,-4.10903278010397,1.46136450859134));
#872=CARTESIAN_POINT('',(-0.518969976670835,-4.11759082350722,1.45631976772651));
#873=CARTESIAN_POINT('',(-0.455014482883406,-4.12514766413291,1.4518595221264));
#874=CARTESIAN_POINT('',(-0.391003115352481,-4.13170612528996,1.44798423157699));
#875=CARTESIAN_POINT('',(-0.326961454573587,-4.13726630908004,1.44469567176299));
#876=CARTESIAN_POINT('',(-0.262888868314855,-4.1418309642905,1.44199376819189));
#877=CARTESIAN_POINT('',(-0.198802367414012,-4.14540110752564,1.43987918667068));
#878=CARTESIAN_POINT('',(-0.134691836557273,-4.14797899634826,1.43835157870677));
#879=CARTESIAN_POINT('',(-0.0705547997519321,-4.14956557226708,1.43741109757875));
#880=CARTESIAN_POINT('',(-0.0256355178249533,-4.14998206299977,1.43716417105007));
#881=CARTESIAN_POINT('',(0.017212926096649,-4.15001473153096,1.43714480332819));
#882=CARTESIAN_POINT('',(0.0601483228613392,-4.14971506547566,1.43732246737903));
#883=CARTESIAN_POINT('',(0.122547062804967,-4.14835792650879,1.43812698060697));
#884=CARTESIAN_POINT('',(0.187127672519296,-4.14594701764671,1.4395557441419));
#885=CARTESIAN_POINT('',(0.251673731732911,-4.14252966846318,1.44158002468744));
#886=CARTESIAN_POINT('',(0.31604053000619,-4.13811584069903,1.44419296756536));
#887=CARTESIAN_POINT('',(0.380122400566292,-4.13272056734904,1.44738445429723));
#888=CARTESIAN_POINT('',(0.443793240871441,-4.12636707477985,1.45113928333383));
#889=CARTESIAN_POINT('',(0.507052165205971,-4.11907052497003,1.45544680154798));
#890=CARTESIAN_POINT('',(0.569933922363965,-4.11084077547235,1.46029927046682));
#891=CARTESIAN_POINT('',(0.632551806632084,-4.10167178435903,1.46569807867167));
#892=CARTESIAN_POINT('',(0.69492428242092,-4.09156562853771,1.47163956340674));
#893=CARTESIAN_POINT('',(0.757036156526325,-4.08052939733517,1.47811687373372));
#894=CARTESIAN_POINT('',(0.82560275793367,-4.06726920253998,1.48588508057094));
#895=CARTESIAN_POINT('',(0.90041708238784,-4.05142650637414,1.49514480854416));
#896=CARTESIAN_POINT('',(0.98122770800238,-4.03261387071789,1.50610813958544));
#897=CARTESIAN_POINT('',(1.05463769368795,-4.01397369170758,1.51693615501505));
#898=CARTESIAN_POINT('',(1.12089023613864,-3.99591997925664,1.52739125593069));
#899=CARTESIAN_POINT('',(1.18027201130019,-3.97878528684096,1.53728661068913));
#900=CARTESIAN_POINT('',(1.23945243859362,-3.96074934967013,1.54767176080922));
#901=CARTESIAN_POINT('',(1.29849917475732,-3.94178696166642,1.55855629295397));
#902=CARTESIAN_POINT('',(1.35740752583998,-3.92189219405415,1.56993829526777));
#903=CARTESIAN_POINT('',(1.41623410001035,-3.90103620365853,1.58182852975316));
#904=CARTESIAN_POINT('',(1.47487381160984,-3.87924676532755,1.59420509528081));
#905=CARTESIAN_POINT('',(1.53364057431134,-3.85639474304491,1.60713476182681));
#906=CARTESIAN_POINT('',(1.59276784463525,-3.83235875753793,1.62067831499958));
#907=CARTESIAN_POINT('',(1.6599143902364,-3.80384061944778,1.63667673108317));
#908=CARTESIAN_POINT('',(1.73522619060986,-3.77018087679497,1.65545541195456));
#909=CARTESIAN_POINT('',(1.8187796562795,-3.73061206434775,1.67737718606376));
#910=CARTESIAN_POINT('',(1.89672825362082,-3.69151966654871,1.69887009360709));
#911=CARTESIAN_POINT('',(1.96868196262767,-3.65357989981071,1.71957567444269));
#912=CARTESIAN_POINT('',(2.03499752536391,-3.61707493616452,1.73936284061896));
#913=CARTESIAN_POINT('',(2.10231611523693,-3.57838625391501,1.76018057027602));
#914=CARTESIAN_POINT('',(2.17142911226367,-3.5368962649905,1.78232851329308));
#915=CARTESIAN_POINT('',(2.2417460488397,-3.4927714407849,1.80567923172137));
#916=CARTESIAN_POINT('',(2.31351875175852,-3.44567075669474,1.83037075393394));
#917=CARTESIAN_POINT('',(2.38617316114297,-3.3957850119113,1.85625641694787));
#918=CARTESIAN_POINT('',(2.46861904054587,-3.33651631530494,1.88667056389833));
#919=CARTESIAN_POINT('',(2.55965819957877,-3.26740695479796,1.92163810356761));
#920=CARTESIAN_POINT('',(2.65832120163055,-3.1876731994604,1.96126953872252));
#921=CARTESIAN_POINT('',(2.74759637834598,-3.11086994602196,1.99871006162449));
#922=CARTESIAN_POINT('',(2.82772605069548,-3.03803922705604,2.03355880847572));
#923=CARTESIAN_POINT('',(2.89896214395182,-2.97014453169336,2.06549585828856));
#924=CARTESIAN_POINT('',(2.9687083863602,-2.90043408978311,2.09769738199466));
#925=CARTESIAN_POINT('',(3.03670319455999,-2.82916242295778,2.12999250287719));
#926=CARTESIAN_POINT('',(3.10274202999186,-2.75657129379166,2.16222366169833));
#927=CARTESIAN_POINT('',(3.1731253818776,-2.67544085895736,2.19748278597058));
#928=CARTESIAN_POINT('',(3.25288758824238,-2.57832248848227,2.23860896713004));
#929=CARTESIAN_POINT('',(3.33946533010964,-2.46535986277685,2.28480401513911));
#930=CARTESIAN_POINT('',(3.41938846403329,-2.35286912715267,2.3289485364085));
#931=CARTESIAN_POINT('',(3.48244555428461,-2.25792983453282,2.36477273954926));
#932=CARTESIAN_POINT('',(3.53122109037282,-2.1806264955924,2.39304275812588));
#933=CARTESIAN_POINT('',(3.5722196133804,-2.11277110610937,2.41718956142287));
#934=CARTESIAN_POINT('',(3.6109680625356,-2.04580996267977,2.44035874627677));
#935=CARTESIAN_POINT('',(3.64720558166909,-1.98045344077027,2.46233515107964));
#936=CARTESIAN_POINT('',(3.68135067870208,-1.91621123883356,2.4833177664775));
#937=CARTESIAN_POINT('',(3.71355380561207,-1.85301605939011,2.50335410689698));
#938=CARTESIAN_POINT('',(3.74426943725626,-1.79012650492555,2.52269118013972));
#939=CARTESIAN_POINT('',(3.77363604714286,-1.72735776881234,2.54138724642503));
#940=CARTESIAN_POINT('',(3.79249198768718,-1.68524040374729,2.55352153485342));
#941=CARTESIAN_POINT('',(3.80173140315661,-1.66413290883057,2.55949768300843));
#942=CARTESIAN_POINT('',(4.15000000000019,6.98203420673138E-16,2.79999999999975));
#943=CARTESIAN_POINT('',(4.15000005097979,-0.0241976092610923,2.80000014242415));
#944=CARTESIAN_POINT('',(4.14957659147736,-0.0725872518524341,2.79968820667861));
#945=CARTESIAN_POINT('',(4.147673572255,-0.14511372721198,2.79828778591231));
#946=CARTESIAN_POINT('',(4.14450356369299,-0.217586828926589,2.79595707378494));
#947=CARTESIAN_POINT('',(4.14006875386579,-0.289971471536141,2.79270106303932));
#948=CARTESIAN_POINT('',(4.13437267458712,-0.362232591685346,2.78852689559322));
#949=CARTESIAN_POINT('',(4.12741991887574,-0.434342149743055,2.78344377807353));
#950=CARTESIAN_POINT('',(4.11921606734645,-0.506265554874924,2.77746285527631));
#951=CARTESIAN_POINT('',(4.10977022223232,-0.577952109401025,2.77059901919039));
#952=CARTESIAN_POINT('',(4.09910348666528,-0.649292160693052,2.76287693585956));
#953=CARTESIAN_POINT('',(4.08723644311669,-0.720219201579827,2.75432179139551));
#954=CARTESIAN_POINT('',(4.07418112819118,-0.790732413381309,2.74495344437224));
#955=CARTESIAN_POINT('',(4.05993619896856,-0.860885708126874,2.73478310083449));
#956=CARTESIAN_POINT('',(4.04450800236265,-0.930674729967258,2.72382847099022));
#957=CARTESIAN_POINT('',(4.02791814789636,-1.00003285829938,2.71211885925978));
#958=CARTESIAN_POINT('',(4.01020397055278,-1.06885023400544,2.69969507324477));
#959=CARTESIAN_POINT('',(3.99138953811016,-1.13708944317997,2.6865888275989));
#960=CARTESIAN_POINT('',(3.97147898216584,-1.20478623220038,2.67281833419551));
#961=CARTESIAN_POINT('',(3.95045956489715,-1.27201469800238,2.65839096157789));
#962=CARTESIAN_POINT('',(3.92832879942159,-1.33879831793972,2.64332206296959));
#963=CARTESIAN_POINT('',(3.90510815286477,-1.40508771810872,2.6276437983194));
#964=CARTESIAN_POINT('',(3.88083303516599,-1.47080460943583,2.61139772833669));
#965=CARTESIAN_POINT('',(3.85554421374298,-1.53587003111769,2.5946286636432));
#966=CARTESIAN_POINT('',(3.82923141345198,-1.6003431973152,2.57734733426249));
#967=CARTESIAN_POINT('',(3.81101876591588,-1.64291594515244,2.56550485053108));
#968=CARTESIAN_POINT('',(3.80173140316287,-1.66413290881626,2.55949768301248));
#969=CARTESIAN_POINT('',(-4.15,-5.08228421646152E-16,-5.08228421646152E-16));
#970=AXIS2_PLACEMENT_3D('',#971,#972,#973);
#971=CARTESIAN_POINT('',(0.,0.,0.));
#972=DIRECTION('',(1.22464679914735E-16,0.,-1.));
#973=DIRECTION('',(-1.,0.,-1.22464679914735E-16));
#974=CARTESIAN_POINT('',(3.80173140315033,-8.15762455242338,2.55949768300437));
#975=CARTESIAN_POINT('',(4.61638813239684,-7.72586309813121,2.8));
#976=CARTESIAN_POINT('',(4.61638813105872,-7.72586309893077,2.8));
#977=CARTESIAN_POINT('',(4.60958917292985,-7.72992564318518,2.80000000250646));
#978=CARTESIAN_POINT('',(4.59573961665069,-7.73817628920604,2.7999059157194));
#979=CARTESIAN_POINT('',(4.57457070570073,-7.75071038964477,2.7994686302866));
#980=CARTESIAN_POINT('',(4.55239693235569,-7.76375634715238,2.79869172730317));
#981=CARTESIAN_POINT('',(4.52921682202796,-7.77730339019108,2.79752821032513));
#982=CARTESIAN_POINT('',(4.49872509896904,-7.79499851920614,2.79551130029404));
#983=CARTESIAN_POINT('',(4.45094547020671,-7.82244789661357,2.7912584591707));
#984=CARTESIAN_POINT('',(4.37247039437118,-7.86673858932816,2.7811062402652));
#985=CARTESIAN_POINT('',(4.26569733385249,-7.92529266702414,2.76023032201345));
#986=CARTESIAN_POINT('',(4.15034650971861,-7.98625047090028,2.72747711327119));
#987=CARTESIAN_POINT('',(4.05210674136016,-8.03637805559524,2.6908087603831));
#988=CARTESIAN_POINT('',(3.98485708005924,-8.06982052058482,2.66097212302426));
#989=CARTESIAN_POINT('',(3.94109771352259,-8.09124183436618,2.63956541559219));
#990=CARTESIAN_POINT('',(3.9112119859163,-8.10572165894903,2.62402520495253));
#991=CARTESIAN_POINT('',(3.88548963975173,-8.1180783858535,2.609972920642));
#992=CARTESIAN_POINT('',(3.86275076083915,-8.12892096546681,2.59701525984741));
#993=CARTESIAN_POINT('',(3.84129724493976,-8.13907918923527,2.5843009632345));
#994=CARTESIAN_POINT('',(3.82113073845336,-8.14856532275376,2.57190594437939));
#995=CARTESIAN_POINT('',(3.80808021506244,-8.15466579294889,2.56360416744929));
#996=CARTESIAN_POINT('',(3.80173140315033,-8.15762455242338,2.55949768300437));
#997=CARTESIAN_POINT('',(5.3235761705049E-16,-9.,1.4371535370248));
#998=CARTESIAN_POINT('',(1.09476019448028E-15,-9.,1.4371535370248));
#999=CARTESIAN_POINT('',(0.0421789198157685,-9.00000014735217,1.43715341798123));
#1000=CARTESIAN_POINT('',(0.12650703780371,-8.99940685142039,1.43791609938465));
#1001=CARTESIAN_POINT('',(0.252858750987925,-8.9967428059852,1.44134167378755));
#1002=CARTESIAN_POINT('',(0.379055145856479,-8.99230932303526,1.4470438778237));
#1003=CARTESIAN_POINT('',(0.505053037531222,-8.98611269499843,1.45501688695364));
#1004=CARTESIAN_POINT('',(0.630912369858734,-8.9781538916196,1.46526252235936));
#1005=CARTESIAN_POINT('',(0.756631849720571,-8.96843414736053,1.47778318512613));
#1006=CARTESIAN_POINT('',(0.882376390474492,-8.95693763454245,1.49260419407061));
#1007=CARTESIAN_POINT('',(1.00812683723399,-8.94365824792539,1.5097393429328));
#1008=CARTESIAN_POINT('',(1.13373463445645,-8.92860450253754,1.52918458882665));
#1009=CARTESIAN_POINT('',(1.25878763636958,-8.91183137729499,1.55087673717777));
#1010=CARTESIAN_POINT('',(1.38271070919704,-8.89344138788911,1.57469166880236));
#1011=CARTESIAN_POINT('',(1.50519825157936,-8.8735253174243,1.60052069217783));
#1012=CARTESIAN_POINT('',(1.62562918176934,-8.85224524083325,1.62816267554726));
#1013=CARTESIAN_POINT('',(1.74392612477697,-8.8296921322606,1.65750848083659));
#1014=CARTESIAN_POINT('',(1.8597668922915,-8.80601225625307,1.68837665212759));
#1015=CARTESIAN_POINT('',(1.97366042268297,-8.78118005344244,1.72080965152947));
#1016=CARTESIAN_POINT('',(2.08855862506169,-8.75457767010246,1.75562593768963));
#1017=CARTESIAN_POINT('',(2.20764099777698,-8.72534479839335,1.79397109952095));
#1018=CARTESIAN_POINT('',(2.33267954777186,-8.69278224972194,1.83679359717214));
#1019=CARTESIAN_POINT('',(2.46002897844427,-8.6576070922553,1.88318608532201));
#1020=CARTESIAN_POINT('',(2.58526272611885,-8.62101503527711,1.93159876050688));
#1021=CARTESIAN_POINT('',(2.70585811020191,-8.58390519773144,1.98085565674952));
#1022=CARTESIAN_POINT('',(2.82040591921781,-8.54692616968676,2.03010251284749));
#1023=CARTESIAN_POINT('',(2.92908398214841,-8.51026316948709,2.07909372546698));
#1024=CARTESIAN_POINT('',(3.04084155882578,-8.47101885797628,2.13171110915639));
#1025=CARTESIAN_POINT('',(3.16590859928132,-8.42520603484334,2.19337199191474));
#1026=CARTESIAN_POINT('',(3.30102039746508,-8.37322030792173,2.26368813194013));
#1027=CARTESIAN_POINT('',(3.42486401404505,-8.32317769117513,2.33175305653761));
#1028=CARTESIAN_POINT('',(3.51836052682706,-8.283921078609,2.38540607844222));
#1029=CARTESIAN_POINT('',(3.58628226290826,-8.25468457143688,2.42549890404053));
#1030=CARTESIAN_POINT('',(3.64158489951511,-8.23043474847976,2.45884009408346));
#1031=CARTESIAN_POINT('',(3.69588718758716,-8.20619128307112,2.49226059277353));
#1032=CARTESIAN_POINT('',(3.74918626416192,-8.18197594014148,2.52573157780194));
#1033=CARTESIAN_POINT('',(3.78431401723633,-8.16574165489594,2.54823192509478));
#1034=CARTESIAN_POINT('',(3.80173140315033,-8.15762455242338,2.55949768300437));
#1035=CARTESIAN_POINT('',(8.68860939599931E-16,-9.,1.06404776858522E-31));
#1036=CARTESIAN_POINT('',(5.3235761705049E-16,-9.,1.4371535370248));
#1037=VECTOR('',#1038,1.);
#1038=DIRECTION('',(1.22464679914735E-16,0.,-1.));
#1039=CARTESIAN_POINT('',(7.89541639180705,4.31999999999872,9.66909641216205E-16));
#1040=AXIS2_PLACEMENT_3D('',#1041,#1042,#1043);
#1041=CARTESIAN_POINT('',(0.,0.,0.));
#1042=DIRECTION('',(1.22464679914735E-16,0.,-1.));
#1043=DIRECTION('',(0.877268487978537,0.479999999999845,1.07434404579575E-16));
#1044=CARTESIAN_POINT('',(7.89541639180705,4.31999999999872,2.8));
#1045=CARTESIAN_POINT('',(7.89541639180705,4.31999999999872,2.8));
#1046=VECTOR('',#1047,1.);
#1047=DIRECTION('',(0.,0.,-1.));
#1048=AXIS2_PLACEMENT_3D('',#1049,#1050,#1051);
#1049=CARTESIAN_POINT('',(-3.42901103761259E-16,0.,2.8));
#1050=DIRECTION('',(1.22464679914735E-16,0.,-1.));
#1051=DIRECTION('',(0.877268487978537,0.479999999999845,1.07434404579575E-16));
#1052=CARTESIAN_POINT('',(-4.61638813239684,-9.00000000005833,2.8));
#1053=CARTESIAN_POINT('',(-3.80173140315034,-9.00000000004167,2.55949768300438));
#1054=AXIS2_PLACEMENT_3D('',#1055,#1056,#1057);
#1055=CARTESIAN_POINT('',(-4.61638813239684,-9.,1.3));
#1056=DIRECTION('',(0.,-1.,0.));
#1057=DIRECTION('',(0.543104486164334,0.,0.839665122002918));
#1058=CARTESIAN_POINT('',(-15.,-9.,2.8));
#1059=CARTESIAN_POINT('',(-4.61638813239684,-9.,2.8));
#1060=VECTOR('',#1061,1.);
#1061=DIRECTION('',(-1.,0.,-1.28304837135415E-16));
#1062=CARTESIAN_POINT('',(-15.,-9.,-1.79656129250718E-15));
#1063=CARTESIAN_POINT('',(-15.,-9.,2.8));
#1064=VECTOR('',#1065,1.);
#1065=DIRECTION('',(6.34413156928661E-16,0.,-1.));
#1066=CARTESIAN_POINT('',(8.44487003509359E-17,-9.,5.17099152884638E-33));
#1067=VECTOR('',#1068,1.);
#1068=DIRECTION('',(-1.,0.,-1.20444234604043E-16));
#1069=AXIS2_PLACEMENT_3D('',#1070,#1071,#1072);
#1070=CARTESIAN_POINT('',(1.03325330731044E-15,-9.,8.4371535370248));
#1071=DIRECTION('',(0.,-1.,0.));
#1072=DIRECTION('',(-0.543104486164334,0.,-0.839665122002918));
#1073=CARTESIAN_POINT('',(4.61638813239684,-1.66413290884489,2.8));
#1074=CARTESIAN_POINT('',(4.15000000000019,6.98203420673138E-16,2.8));
#1075=CARTESIAN_POINT('',(4.16436641609315,-0.0281236224377438,2.8));
#1076=CARTESIAN_POINT('',(4.17873283218611,-0.0562472448754883,2.8));
#1077=CARTESIAN_POINT('',(4.22588728131866,-0.151478814610427,2.8));
#1078=CARTESIAN_POINT('',(4.25750491772496,-0.218604154447733,2.8));
#1079=CARTESIAN_POINT('',(4.32155752623604,-0.362822353817889,2.8));
#1080=CARTESIAN_POINT('',(4.35365750865824,-0.440140366850176,2.8));
#1081=CARTESIAN_POINT('',(4.42246717016351,-0.620206595019955,2.8));
#1082=CARTESIAN_POINT('',(4.45748972355179,-0.723130805954902,2.8));
#1083=CARTESIAN_POINT('',(4.51981812549049,-0.935832363608938,2.8));
#1084=CARTESIAN_POINT('',(4.54660759219008,-1.04613610584861,2.8));
#1085=CARTESIAN_POINT('',(4.58308588981317,-1.24014397537699,2.8));
#1086=CARTESIAN_POINT('',(4.59534273494752,-1.32505175724126,2.8));
#1087=CARTESIAN_POINT('',(4.60785440015598,-1.45189621672965,2.8));
#1088=CARTESIAN_POINT('',(4.61105934726933,-1.49492916560496,2.8));
#1089=CARTESIAN_POINT('',(4.6153279157286,-1.5801112871672,2.8));
#1090=CARTESIAN_POINT('',(4.61585802406272,-1.62212209800605,2.8));
#1091=CARTESIAN_POINT('',(4.61638813239684,-1.66413290884489,2.8));
#1092=CARTESIAN_POINT('',(4.61638813239684,-1.66413290884489,2.8));
#1093=VECTOR('',#1094,1.);
#1094=DIRECTION('',(0.,-1.,0.));
#1095=CARTESIAN_POINT('',(2.63180546393563,13.9399999999997,2.8));
#1096=CARTESIAN_POINT('',(2.63180546393573,13.9399999999998,2.8));
#1097=VECTOR('',#1098,1.);
#1098=DIRECTION('',(0.480000000000021,-0.877268487978441,4.04974500678447E-17));
#1099=CARTESIAN_POINT('',(2.97052233952212,12.08048,2.8));
#1100=AXIS2_PLACEMENT_3D('',#1101,#1102,#1103);
#1101=CARTESIAN_POINT('',(-1.13892152320704E-15,12.5,2.8));
#1102=DIRECTION('',(1.22464679914735E-16,0.,-1.));
#1103=DIRECTION('',(0.87726848797851,0.479999999999895,1.07434404579572E-16));
#1104=CARTESIAN_POINT('',(2.37561934410707,11.660464516129,2.8));
#1105=AXIS2_PLACEMENT_3D('',#1106,#1107,#1108);
#1106=CARTESIAN_POINT('',(2.4754352829351,12.1504,2.8));
#1107=DIRECTION('',(1.22464679914735E-16,0.,-1.));
#1108=DIRECTION('',(0.990174113174041,-0.139840000000003,1.21261355829716E-16));
#1109=CARTESIAN_POINT('',(1.99784095325572,11.7310967741935,2.8));
#1110=AXIS2_PLACEMENT_3D('',#1111,#1112,#1113);
#1111=CARTESIAN_POINT('',(-1.97215226305253E-31,0.,2.8));
#1112=DIRECTION('',(1.22464679914735E-16,0.,-1.));
#1113=DIRECTION('',(0.167885794391237,0.985806451612903,2.05600800723539E-17));
#1114=CARTESIAN_POINT('',(1.5861210289153,12.2897142857143,2.8));
#1115=AXIS2_PLACEMENT_3D('',#1116,#1117,#1118);
#1116=CARTESIAN_POINT('',(2.08178385045134,12.224,2.8));
#1117=DIRECTION('',(1.22464679914735E-16,0.,-1.));
#1118=DIRECTION('',(-0.167885794391239,-0.985806451612903,-2.05600800723542E-17));
#1119=CARTESIAN_POINT('',(-1.58612102891531,12.2897142857143,2.8));
#1120=AXIS2_PLACEMENT_3D('',#1121,#1122,#1123);
#1121=CARTESIAN_POINT('',(-1.13892152320704E-15,12.5,2.8));
#1122=DIRECTION('',(1.22464679914735E-16,0.,-1.));
#1123=DIRECTION('',(0.991325643072066,-0.131428571428571,1.2140237757009E-16));
#1124=CARTESIAN_POINT('',(-1.99784095325571,11.7310967741935,2.8));
#1125=AXIS2_PLACEMENT_3D('',#1126,#1127,#1128);
#1126=CARTESIAN_POINT('',(-2.08178385045134,12.224,2.8));
#1127=DIRECTION('',(1.22464679914735E-16,0.,-1.));
#1128=DIRECTION('',(0.991325643072066,0.131428571428572,1.2140237757009E-16));
#1129=CARTESIAN_POINT('',(-10.8164523294568,4.96128602325944,2.8));
#1130=AXIS2_PLACEMENT_3D('',#1131,#1132,#1133);
#1131=CARTESIAN_POINT('',(-1.97215226305253E-31,0.,2.8));
#1132=DIRECTION('',(1.22464679914735E-16,0.,-1.));
#1133=DIRECTION('',(-0.908945573903929,0.41691479187054,-1.1131372876806E-16));
#1134=CARTESIAN_POINT('',(-12.,0.500000000000001,2.8));
#1135=AXIS2_PLACEMENT_3D('',#1136,#1137,#1138);
#1136=CARTESIAN_POINT('',(-3.,0.500000000000001,2.8));
#1137=DIRECTION('',(-1.22464679914735E-16,0.,1.));
#1138=DIRECTION('',(-0.868494703272973,0.495698447028828,-1.06359925843968E-16));
#1139=CARTESIAN_POINT('',(-12.,-6.,2.8));
#1140=CARTESIAN_POINT('',(-12.,-6.,2.8));
#1141=VECTOR('',#1142,1.);
#1142=DIRECTION('',(0.,1.,0.));
#1143=AXIS2_PLACEMENT_3D('',#1144,#1145,#1146);
#1144=CARTESIAN_POINT('',(-15.,-6.,2.8));
#1145=DIRECTION('',(1.22464679914735E-16,0.,-1.));
#1146=DIRECTION('',(1.,0.,1.22464679914735E-16));
#1147=CARTESIAN_POINT('',(-4.61638813239684,-1.6641329088603,2.8));
#1148=CARTESIAN_POINT('',(-4.61638813239684,-1.66413290885876,2.8));
#1149=VECTOR('',#1150,1.);
#1150=DIRECTION('',(0.,-1.,0.));
#1151=CARTESIAN_POINT('',(-4.15000000000019,-9.52317631496214E-16,2.8));
#1152=CARTESIAN_POINT('',(-4.16366473027499,-0.0267359458056887,2.8));
#1153=CARTESIAN_POINT('',(-4.17732946054979,-0.0534718916113765,2.8));
#1154=CARTESIAN_POINT('',(-4.24192420884753,-0.18366564386474,2.8));
#1155=CARTESIAN_POINT('',(-4.28928507428652,-0.286913271998576,2.8));
#1156=CARTESIAN_POINT('',(-4.36010720913718,-0.456879523190968,2.8));
#1157=CARTESIAN_POINT('',(-4.38641375004215,-0.524163375263565,2.8));
#1158=CARTESIAN_POINT('',(-4.44887737669152,-0.69694977394294,2.8));
#1159=CARTESIAN_POINT('',(-4.48233380576603,-0.802392532927072,2.8));
#1160=CARTESIAN_POINT('',(-4.54054662517036,-1.01956749551457,2.8));
#1161=CARTESIAN_POINT('',(-4.56471087983376,-1.1318124469422,2.8));
#1162=CARTESIAN_POINT('',(-4.59371945929446,-1.31519762066218,2.8));
#1163=CARTESIAN_POINT('',(-4.60241547294396,-1.38786337777191,2.8));
#1164=CARTESIAN_POINT('',(-4.61088481224416,-1.494128328009,2.8));
#1165=CARTESIAN_POINT('',(-4.61295291582983,-1.52853165288121,2.8));
#1166=CARTESIAN_POINT('',(-4.6150164376881,-1.57968274048012,2.8));
#1167=CARTESIAN_POINT('',(-4.61553097707808,-1.5966740670945,2.8));
#1168=CARTESIAN_POINT('',(-4.61607128965138,-1.62331133430364,2.8));
#1169=CARTESIAN_POINT('',(-4.61621146320486,-1.63300850747492,2.8));
#1170=CARTESIAN_POINT('',(-4.61635720472912,-1.64984602018128,2.8));
#1171=CARTESIAN_POINT('',(-4.61637266856298,-1.65698946452233,2.8));
#1172=CARTESIAN_POINT('',(-4.61638813239684,-1.66413290886338,2.8));
#1173=CARTESIAN_POINT('',(3.80173140315034,-1.66413290884489,2.55949768300438));
#1174=VECTOR('',#1175,1.);
#1175=DIRECTION('',(0.,-1.,0.));
#1176=CARTESIAN_POINT('',(-3.80173140315034,-1.66413290884489,2.55949768300438));
#1177=VECTOR('',#1178,1.);
#1178=DIRECTION('',(0.,-1.,0.));
#1179=CARTESIAN_POINT('',(-20.,-4.,-2.44929359829471E-15));
#1180=AXIS2_PLACEMENT_3D('',#1181,#1182,#1183);
#1181=CARTESIAN_POINT('',(-15.,-4.,-1.83697019872103E-15));
#1182=DIRECTION('',(1.22464679914735E-16,0.,-1.));
#1183=DIRECTION('',(3.5527136788005E-16,-1.,4.35081943503005E-32));
#1184=CARTESIAN_POINT('',(-20.,-0.533021797562046,-2.44929359829471E-15));
#1185=CARTESIAN_POINT('',(-20.,-4.,-2.11282521884748E-15));
#1186=VECTOR('',#1187,1.);
#1187=DIRECTION('',(0.,1.,0.));
#1188=CARTESIAN_POINT('',(-3.96697820243796,15.5,-4.85814715790296E-16));
#1189=AXIS2_PLACEMENT_3D('',#1190,#1191,#1192);
#1190=CARTESIAN_POINT('',(-3.96697820243795,-0.533021797562046,-4.85814715790296E-16));
#1191=DIRECTION('',(1.22464679914735E-16,0.,-1.));
#1192=DIRECTION('',(-1.,0.,-1.22464679914735E-16));
#1193=CARTESIAN_POINT('',(-8.87868926612438E-16,15.5,-1.08732583903832E-31));
#1194=CARTESIAN_POINT('',(-3.96697820243795,15.5,-2.42907357895148E-16));
#1195=VECTOR('',#1196,1.);
#1196=DIRECTION('',(1.,0.,6.12323399573677E-17));
#1197=CARTESIAN_POINT('',(2.63180546393563,13.9399999999997,1.8144927288792E-16));
#1198=AXIS2_PLACEMENT_3D('',#1199,#1200,#1201);
#1199=CARTESIAN_POINT('',(-7.9602041944578E-16,12.5,-9.74843858730207E-32));
#1200=DIRECTION('',(1.22464679914735E-16,0.,-1.));
#1201=DIRECTION('',(-6.12323399573677E-17,1.,-7.49879891330929E-33));
#1202=CARTESIAN_POINT('',(2.63180546393573,13.9399999999998,3.83196211794401E-16));
#1203=VECTOR('',#1204,1.);
#1204=DIRECTION('',(0.480000000000021,-0.877268487978441,4.96402482134601E-17));
#1205=CARTESIAN_POINT('',(-14.8970021181109,8.38363828919465,-2.02503965013269E-15));
#1206=AXIS2_PLACEMENT_3D('',#1207,#1208,#1209);
#1207=CARTESIAN_POINT('',(-12.0470021181109,8.38363828919465,-1.47533225832659E-15));
#1208=DIRECTION('',(1.22464679914735E-16,0.,-1.));
#1209=DIRECTION('',(-1.,0.,-1.22464679914735E-16));
#1210=CARTESIAN_POINT('',(-2.85,12.5,-3.49024337756996E-16));
#1211=AXIS2_PLACEMENT_3D('',#1212,#1213,#1214);
#1212=CARTESIAN_POINT('',(-7.9602041944578E-16,12.5,-9.74843858730208E-32));
#1213=DIRECTION('',(1.22464679914735E-16,0.,-1.));
#1214=DIRECTION('',(-1.,0.,-1.22464679914735E-16));
#1215=CARTESIAN_POINT('',(-17.85,-4.,-2.14558563026417E-15));
#1216=AXIS2_PLACEMENT_3D('',#1217,#1218,#1219);
#1217=CARTESIAN_POINT('',(-15.,-4.,-1.83697019872103E-15));
#1218=DIRECTION('',(1.22464679914735E-16,0.,-1.));
#1219=DIRECTION('',(-1.,0.,-1.22464679914735E-16));
#1220=CARTESIAN_POINT('',(2.63180546393563,13.9399999999997,2.8));
#1221=VECTOR('',#1222,1.);
#1222=DIRECTION('',(0.,0.,-1.));
#1223=CARTESIAN_POINT('',(-15.,-9.,14.));
#1224=CARTESIAN_POINT('',(-15.,-9.,14.));
#1225=VECTOR('',#1226,1.);
#1226=DIRECTION('',(1.58603289232165E-16,0.,-1.));
#1227=CARTESIAN_POINT('',(-20.,-4.,14.));
#1228=AXIS2_PLACEMENT_3D('',#1229,#1230,#1231);
#1229=CARTESIAN_POINT('',(-15.,-4.,14.));
#1230=DIRECTION('',(1.22464679914735E-16,0.,-1.));
#1231=DIRECTION('',(3.5527136788005E-16,-1.,4.35081943503005E-32));
#1232=CARTESIAN_POINT('',(-20.,-4.,14.));
#1233=VECTOR('',#1234,1.);
#1234=DIRECTION('',(0.,0.,-1.));
#1235=CARTESIAN_POINT('',(2.97052233952212,12.08048,12.));
#1236=CARTESIAN_POINT('',(2.97052233952212,12.08048,12.));
#1237=VECTOR('',#1238,1.);
#1238=DIRECTION('',(9.65411325761006E-17,0.,-1.));
#1239=CARTESIAN_POINT('',(-2.60237444541873E-15,15.5,14.));
#1240=CARTESIAN_POINT('',(-2.67937910861228E-15,15.5,14.));
#1241=VECTOR('',#1242,1.);
#1242=DIRECTION('',(1.24673655650234E-16,0.,-1.));
#1243=CARTESIAN_POINT('',(-2.29304464071939E-15,9.5,14.));
#1244=AXIS2_PLACEMENT_3D('',#1245,#1246,#1247);
#1245=CARTESIAN_POINT('',(-2.51052593825207E-15,12.5,14.));
#1246=DIRECTION('',(1.22464679914735E-16,0.,-1.));
#1247=DIRECTION('',(-6.12323399573677E-17,1.,-7.49879891330929E-33));
#1248=CARTESIAN_POINT('',(-2.04811528088992E-15,9.5,12.));
#1249=CARTESIAN_POINT('',(-2.29304464071939E-15,9.5,14.));
#1250=VECTOR('',#1251,1.);
#1251=DIRECTION('',(1.22464679914735E-16,0.,-1.));
#1252=AXIS2_PLACEMENT_3D('',#1253,#1254,#1255);
#1253=CARTESIAN_POINT('',(-2.2655965784226E-15,12.5,12.));
#1254=DIRECTION('',(0.,0.,-1.));
#1255=DIRECTION('',(0.990174113174042,-0.13984,0.));
#1256=CARTESIAN_POINT('',(2.37561934410707,11.660464516129,12.));
#1257=AXIS2_PLACEMENT_3D('',#1258,#1259,#1260);
#1258=CARTESIAN_POINT('',(2.4754352829351,12.1504,12.));
#1259=DIRECTION('',(0.,0.,1.));
#1260=DIRECTION('',(-0.199631877656057,-0.979870967741936,0.));
#1261=CARTESIAN_POINT('',(2.37561934410707,11.660464516129,12.));
#1262=VECTOR('',#1263,1.);
#1263=DIRECTION('',(0.,0.,-1.));
#1264=CARTESIAN_POINT('',(1.99784095325572,11.7310967741935,12.));
#1265=AXIS2_PLACEMENT_3D('',#1266,#1267,#1268);
#1266=CARTESIAN_POINT('',(0.,0.,12.));
#1267=DIRECTION('',(0.,0.,-1.));
#1268=DIRECTION('',(0.167885794391237,0.985806451612903,0.));
#1269=CARTESIAN_POINT('',(1.99784095325572,11.7310967741935,12.));
#1270=VECTOR('',#1271,1.);
#1271=DIRECTION('',(0.,0.,-1.));
#1272=CARTESIAN_POINT('',(1.5861210289153,12.2897142857143,12.));
#1273=CARTESIAN_POINT('',(1.5861210289153,12.2897142857143,12.));
#1274=VECTOR('',#1275,1.);
#1275=DIRECTION('',(1.20676415720126E-16,0.,-1.));
#1276=AXIS2_PLACEMENT_3D('',#1277,#1278,#1279);
#1277=CARTESIAN_POINT('',(2.08178385045134,12.224,12.));
#1278=DIRECTION('',(0.,0.,1.));
#1279=DIRECTION('',(-0.991325643072065,0.131428571428575,0.));
#1280=CARTESIAN_POINT('',(-1.6,12.5,14.));
#1281=AXIS2_PLACEMENT_3D('',#1282,#1283,#1284);
#1282=CARTESIAN_POINT('',(-2.51052593825207E-15,12.5,14.));
#1283=DIRECTION('',(1.22464679914735E-16,0.,-1.));
#1284=DIRECTION('',(-1.,0.,-1.22464679914735E-16));
#1285=CARTESIAN_POINT('',(-1.6,12.5,1.25));
#1286=AXIS2_PLACEMENT_3D('',#1287,#1288,#1289);
#1287=CARTESIAN_POINT('',(-9.49101269339199E-16,12.5,1.25));
#1288=DIRECTION('',(1.22464679914735E-16,0.,-1.));
#1289=DIRECTION('',(-1.,0.,-1.22464679914735E-16));
#1290=CARTESIAN_POINT('',(-1.58612102891531,12.2897142857143,12.));
#1291=CARTESIAN_POINT('',(-1.58612102891531,12.2897142857143,12.));
#1292=VECTOR('',#1293,1.);
#1293=DIRECTION('',(1.20676415720126E-16,0.,-1.));
#1294=AXIS2_PLACEMENT_3D('',#1295,#1296,#1297);
#1295=CARTESIAN_POINT('',(-2.2655965784226E-15,12.5,12.));
#1296=DIRECTION('',(0.,0.,-1.));
#1297=DIRECTION('',(0.991325643072066,-0.13142857142857,0.));
#1298=CARTESIAN_POINT('',(-1.99784095325572,11.7310967741935,12.));
#1299=AXIS2_PLACEMENT_3D('',#1300,#1301,#1302);
#1300=CARTESIAN_POINT('',(-2.08178385045134,12.224,12.));
#1301=DIRECTION('',(0.,0.,1.));
#1302=DIRECTION('',(0.167885794391241,-0.985806451612903,0.));
#1303=CARTESIAN_POINT('',(-1.99784095325572,11.7310967741935,12.));
#1304=VECTOR('',#1305,1.);
#1305=DIRECTION('',(0.,0.,-1.));
#1306=CARTESIAN_POINT('',(-10.8164523294568,4.96128602325945,12.));
#1307=AXIS2_PLACEMENT_3D('',#1308,#1309,#1310);
#1308=CARTESIAN_POINT('',(0.,0.,12.));
#1309=DIRECTION('',(0.,0.,-1.));
#1310=DIRECTION('',(-0.908945573903929,0.416914791870542,0.));
#1311=CARTESIAN_POINT('',(-10.8164523294568,4.96128602325945,12.));
#1312=VECTOR('',#1313,1.);
#1313=DIRECTION('',(1.93082265152201E-16,0.,-1.));
#1314=CARTESIAN_POINT('',(-3.,9.5,12.));
#1315=AXIS2_PLACEMENT_3D('',#1316,#1317,#1318);
#1316=CARTESIAN_POINT('',(-3.,0.500000000000001,12.));
#1317=DIRECTION('',(0.,0.,1.));
#1318=DIRECTION('',(-4.93432455388958E-17,1.,0.));
#1319=CARTESIAN_POINT('',(-3.,9.5,14.));
#1320=CARTESIAN_POINT('',(-3.,9.5,14.));
#1321=VECTOR('',#1322,1.);
#1322=DIRECTION('',(4.44089209850062E-16,0.,-1.));
#1323=CARTESIAN_POINT('',(-12.,0.500000000000001,14.));
#1324=AXIS2_PLACEMENT_3D('',#1325,#1326,#1327);
#1325=CARTESIAN_POINT('',(-3.,0.500000000000001,14.));
#1326=DIRECTION('',(-1.22464679914735E-16,0.,1.));
#1327=DIRECTION('',(-4.93432455388958E-17,1.,-6.04280477087507E-33));
#1328=CARTESIAN_POINT('',(-12.,0.500000000000001,14.));
#1329=VECTOR('',#1330,1.);
#1330=DIRECTION('',(1.58603289232165E-16,0.,-1.));
#1331=CARTESIAN_POINT('',(-12.,-6.,14.));
#1332=CARTESIAN_POINT('',(-12.,0.500000000000001,14.));
#1333=VECTOR('',#1334,1.);
#1334=DIRECTION('',(0.,-1.,0.));
#1335=CARTESIAN_POINT('',(-12.,-6.,14.));
#1336=VECTOR('',#1337,1.);
#1337=DIRECTION('',(1.58603289232165E-16,0.,-1.));
#1338=AXIS2_PLACEMENT_3D('',#1339,#1340,#1341);
#1339=CARTESIAN_POINT('',(-15.,-6.,14.));
#1340=DIRECTION('',(1.22464679914735E-16,0.,-1.));
#1341=DIRECTION('',(1.,0.,1.22464679914735E-16));
#1342=CARTESIAN_POINT('',(-20.,-0.533021797562046,14.));
#1343=CARTESIAN_POINT('',(-20.,-4.,14.));
#1344=VECTOR('',#1345,1.);
#1345=DIRECTION('',(0.,1.,0.));
#1346=CARTESIAN_POINT('',(-20.,-0.533021797562046,14.));
#1347=VECTOR('',#1348,1.);
#1348=DIRECTION('',(0.,0.,-1.));
#1349=CARTESIAN_POINT('',(-3.96697820243796,15.5,14.));
#1350=AXIS2_PLACEMENT_3D('',#1351,#1352,#1353);
#1351=CARTESIAN_POINT('',(-3.96697820243796,-0.533021797562046,14.));
#1352=DIRECTION('',(1.22464679914735E-16,0.,-1.));
#1353=DIRECTION('',(-1.,0.,-1.22464679914735E-16));
#1354=CARTESIAN_POINT('',(-3.96697820243796,15.5,14.));
#1355=VECTOR('',#1356,1.);
#1356=DIRECTION('',(1.26882631385732E-16,0.,-1.));
#1357=CARTESIAN_POINT('',(-3.96697820243796,15.5,14.));
#1358=VECTOR('',#1359,1.);
#1359=DIRECTION('',(1.,0.,0.));
#1360=CARTESIAN_POINT('',(-13.6470021181109,8.38363828919465,1.25));
#1361=AXIS2_PLACEMENT_3D('',#1362,#1363,#1364);
#1362=CARTESIAN_POINT('',(-12.0470021181109,8.38363828919465,1.25));
#1363=DIRECTION('',(1.22464679914735E-16,0.,-1.));
#1364=DIRECTION('',(-1.,0.,-1.22464679914735E-16));
#1365=CARTESIAN_POINT('',(-16.6,-4.,1.25));
#1366=AXIS2_PLACEMENT_3D('',#1367,#1368,#1369);
#1367=CARTESIAN_POINT('',(-15.,-4.,1.25));
#1368=DIRECTION('',(1.22464679914735E-16,0.,-1.));
#1369=DIRECTION('',(-1.,0.,-1.22464679914735E-16));
#1370=CARTESIAN_POINT('',(-2.62665440280302E-15,9.5,14.));
#1371=VECTOR('',#1372,1.);
#1372=DIRECTION('',(-1.,0.,0.));
#1373=CARTESIAN_POINT('',(-16.6,-4.,14.));
#1374=AXIS2_PLACEMENT_3D('',#1375,#1376,#1377);
#1375=CARTESIAN_POINT('',(-15.,-4.,14.));
#1376=DIRECTION('',(1.22464679914735E-16,0.,-1.));
#1377=DIRECTION('',(-1.,0.,-1.22464679914735E-16));
#1378=CARTESIAN_POINT('',(-13.6470021181109,8.38363828919465,14.));
#1379=AXIS2_PLACEMENT_3D('',#1380,#1381,#1382);
#1380=CARTESIAN_POINT('',(-12.0470021181109,8.38363828919465,14.));
#1381=DIRECTION('',(1.22464679914735E-16,0.,-1.));
#1382=DIRECTION('',(-1.,0.,-1.22464679914735E-16));
#1383=CARTESIAN_POINT('',(-9.1214888399673E-16,9.5,12.));
#1384=VECTOR('',#1385,1.);
#1385=DIRECTION('',(-1.,0.,0.));
#1386=AXIS2_PLACEMENT_3D('',#1387,#1388,#1389);
#1387=CARTESIAN_POINT('',(-4.61638813239684,-1.66413290885414,1.3));
#1388=DIRECTION('',(0.,1.,0.));
#1389=DIRECTION('',(-6.10622663543836E-16,0.,1.));
#1390=AXIS2_PLACEMENT_3D('',#1391,#1392,#1393);
#1391=CARTESIAN_POINT('',(4.61638813239684,-1.66413290884489,1.3));
#1392=DIRECTION('',(5.22885994777573E-17,-1.,6.16297582203915E-33));
#1393=DIRECTION('',(-1.33226762955019E-15,-6.47112461314111E-32,1.));
ENDSEC;
END-ISO-10303-21;
