ISO-10303-21;
HEADER;
FILE_DESCRIPTION(('STEP AP203'),
    '1');
FILE_NAME('ƒержатель–ычага',
    '',
    ('UNSPECIFIED'),
    ('UNSPECIFIED'),
    'C3D Converter',
    'C3D Toolkit',
    '');
FILE_SCHEMA(('CONFIG_CONTROL_DESIGN'));
ENDSEC;

DATA;
#1=PRODUCT_DEFINITION('','UNSPECIFIED',#28,#31);
#2=SHAPE_DEFINITION_REPRESENTATION(#26,#3);
#3=SHAPE_REPRESENTATION('NONE',(#4),#8);
#4=AXIS2_PLACEMENT_3D('',#5,#6,#7);
#5=CARTESIAN_POINT('',(0.,0.,0.));
#6=DIRECTION('',(0.,0.,1.));
#7=DIRECTION('',(1.,0.,0.));
#8=(GEOMETRIC_REPRESENTATION_CONTEXT(3)GLOBAL_UNCERTAINTY_ASSIGNED_CONTEXT((#10))
GLOBAL_UNIT_ASSIGNED_CONTEXT((#9,#11,#12))REPRESENTATION_CONTEXT('NONE','NONE'));
#9=(LENGTH_UNIT()NAMED_UNIT(*)SI_UNIT(.MILLI.,.METRE.));
#10=UNCERTAINTY_MEASURE_WITH_UNIT(LENGTH_MEASURE(1.E-5),#9,'NONE','NONE');
#11=(NAMED_UNIT(*)PLANE_ANGLE_UNIT()SI_UNIT($,.RADIAN.));
#12=(NAMED_UNIT(*)SI_UNIT($,.STERADIAN.)SOLID_ANGLE_UNIT());
#13=MANIFOLD_SOLID_BREP('',#14);
#14=CLOSED_SHELL('',(#53,#54,#55,#56,#57,#58,#59,#60,#61,#62,#63,#64,#65,#66,#67,
#68,#69,#70,#71,#72,#73,#74));
#15=COLOUR_RGB('',0.6,0.,0.);
#16=FILL_AREA_STYLE_COLOUR('',#15);
#17=FILL_AREA_STYLE($,(#16));
#18=SURFACE_STYLE_FILL_AREA(#17);
#19=SURFACE_SIDE_STYLE('',(#18));
#20=SURFACE_STYLE_USAGE(.BOTH.,#19);
#21=PRESENTATION_STYLE_ASSIGNMENT((#20));
#22=MECHANICAL_DESIGN_GEOMETRIC_PRESENTATION_REPRESENTATION('NONE',(#23),#8);
#23=STYLED_ITEM('',(#21),#13);
#24=ADVANCED_BREP_SHAPE_REPRESENTATION('NONE',(#13),#8);
#25=SHAPE_REPRESENTATION_RELATIONSHIP('','',#3,#24);
#26=PRODUCT_DEFINITION_SHAPE('NONE','NONE',#1);
#27=MECHANICAL_CONTEXT('NONE',#32,'mechanical');
#28=PRODUCT_DEFINITION_FORMATION_WITH_SPECIFIED_SOURCE('ANY','UNSPECIFIED',#29,.NOT_KNOWN.);
#29=PRODUCT('-02','\X2\0414043504400436043004420435043B044C0420044B0447043004330430041F044004300432044B0439\X0\',
'NONE',(#27));
#30=PRODUCT_RELATED_PRODUCT_CATEGORY('detail','',(#29));
#31=DESIGN_CONTEXT('detailed design',#32,'design');
#32=APPLICATION_CONTEXT('configuration controlled 3d designs of mechanical parts and assemblies');
#33=APPLICATION_PROTOCOL_DEFINITION('international standard','config_control_design',
1994,#32);
#34=CC_DESIGN_DATE_AND_TIME_ASSIGNMENT(#35,#39,(#1));
#35=DATE_AND_TIME(#36,#37);
#36=CALENDAR_DATE(0,1,1);
#37=LOCAL_TIME(0,0,0.,#38);
#38=COORDINATED_UNIVERSAL_TIME_OFFSET(0,0,.AHEAD.);
#39=DATE_TIME_ROLE('creation_date');
#40=CC_DESIGN_APPROVAL(#41,(#1));
#41=APPROVAL(#42,'UNSPECIFIED');
#42=APPROVAL_STATUS('not_yet_approved');
#43=APPROVAL_DATE_TIME(#44,#41);
#44=DATE_AND_TIME(#45,#46);
#45=CALENDAR_DATE(0,1,1);
#46=LOCAL_TIME(0,0,0.,#47);
#47=COORDINATED_UNIVERSAL_TIME_OFFSET(0,0,.AHEAD.);
#48=PERSON('UNSPECIFIED','UNSPECIFIED','UNSPECIFIED',('UNSPECIFIED'),('UNSPECIFIED'),
('UNSPECIFIED'));
#49=ORGANIZATION('UNSPECIFIED','UNSPECIFIED','UNSPECIFIED');
#50=PERSON_AND_ORGANIZATION(#48,#49);
#51=PERSON_AND_ORGANIZATION_ROLE('creator');
#52=CC_DESIGN_PERSON_AND_ORGANIZATION_ASSIGNMENT(#50,#51,(#28,#1));
#53=ADVANCED_FACE('',(#75,#77,#79,#81,#83),#85,.F.);
#54=ADVANCED_FACE('',(#90),#92,.T.);
#55=ADVANCED_FACE('',(#97),#99,.F.);
#56=ADVANCED_FACE('',(#104),#106,.T.);
#57=ADVANCED_FACE('',(#111),#113,.T.);
#58=ADVANCED_FACE('',(#118),#120,.T.);
#59=ADVANCED_FACE('',(#125),#127,.T.);
#60=ADVANCED_FACE('',(#132),#134,.T.);
#61=ADVANCED_FACE('',(#139),#141,.T.);
#62=ADVANCED_FACE('',(#146,#148),#150,.T.);
#63=ADVANCED_FACE('',(#155),#157,.T.);
#64=ADVANCED_FACE('',(#162),#164,.T.);
#65=ADVANCED_FACE('',(#169),#171,.T.);
#66=ADVANCED_FACE('',(#176),#178,.T.);
#67=ADVANCED_FACE('',(#183,#185),#187,.F.);
#68=ADVANCED_FACE('',(#192,#194),#196,.F.);
#69=ADVANCED_FACE('',(#201,#203),#205,.F.);
#70=ADVANCED_FACE('',(#210,#212),#214,.F.);
#71=ADVANCED_FACE('',(#219,#221,#223,#225),#227,.T.);
#72=ADVANCED_FACE('',(#232,#234),#236,.F.);
#73=ADVANCED_FACE('',(#241,#243),#245,.F.);
#74=ADVANCED_FACE('',(#250,#252),#254,.F.);
#75=FACE_BOUND('',#76,.T.);
#76=EDGE_LOOP('',(#259,#260,#261,#262,#263,#264,#265,#266));
#77=FACE_BOUND('',#78,.T.);
#78=EDGE_LOOP('',(#267));
#79=FACE_BOUND('',#80,.T.);
#80=EDGE_LOOP('',(#268));
#81=FACE_BOUND('',#82,.T.);
#82=EDGE_LOOP('',(#269));
#83=FACE_BOUND('',#84,.T.);
#84=EDGE_LOOP('',(#270));
#85=PLANE('',#86);
#86=AXIS2_PLACEMENT_3D('',#87,#88,#89);
#87=CARTESIAN_POINT('',(0.,0.,0.));
#88=DIRECTION('',(1.22464679914735E-16,0.,-1.));
#89=DIRECTION('',(-1.,0.,-1.22464679914735E-16));
#90=FACE_BOUND('',#91,.T.);
#91=EDGE_LOOP('',(#271,#272,#273,#274));
#92=PLANE('',#93);
#93=AXIS2_PLACEMENT_3D('',#94,#95,#96);
#94=CARTESIAN_POINT('',(-9.1214888399673E-16,9.5,-1.11706021113243E-31));
#95=DIRECTION('',(0.,-1.,0.));
#96=DIRECTION('',(-1.,0.,-1.22464679914735E-16));
#97=FACE_BOUND('',#98,.T.);
#98=EDGE_LOOP('',(#275,#276,#277,#278));
#99=CYLINDRICAL_SURFACE('',#100,9.);
#100=AXIS2_PLACEMENT_3D('',#101,#102,#103);
#101=CARTESIAN_POINT('',(-3.,0.500000000000001,-3.67394039744206E-16));
#102=DIRECTION('',(-1.22464679914735E-16,0.,1.));
#103=DIRECTION('',(-4.93432455388958E-17,1.,-6.04280477087507E-33));
#104=FACE_BOUND('',#105,.T.);
#105=EDGE_LOOP('',(#279,#280,#281,#282));
#106=PLANE('',#107);
#107=AXIS2_PLACEMENT_3D('',#108,#109,#110);
#108=CARTESIAN_POINT('',(-12.,0.500000000000001,-1.46957615897682E-15));
#109=DIRECTION('',(1.,0.,1.26882631385732E-16));
#110=DIRECTION('',(0.,-1.,0.));
#111=FACE_BOUND('',#112,.T.);
#112=EDGE_LOOP('',(#283,#284,#285,#286));
#113=CYLINDRICAL_SURFACE('',#114,3.);
#114=AXIS2_PLACEMENT_3D('',#115,#116,#117);
#115=CARTESIAN_POINT('',(-15.,-6.,-1.83697019872103E-15));
#116=DIRECTION('',(1.22464679914735E-16,0.,-1.));
#117=DIRECTION('',(1.,0.,1.22464679914735E-16));
#118=FACE_BOUND('',#119,.T.);
#119=EDGE_LOOP('',(#287,#288,#289,#290,#291));
#120=CYLINDRICAL_SURFACE('',#121,5.);
#121=AXIS2_PLACEMENT_3D('',#122,#123,#124);
#122=CARTESIAN_POINT('',(-15.,-4.,-1.83697019872103E-15));
#123=DIRECTION('',(1.22464679914735E-16,0.,-1.));
#124=DIRECTION('',(3.5527136788005E-16,-1.,4.35081943503005E-32));
#125=FACE_BOUND('',#126,.T.);
#126=EDGE_LOOP('',(#292,#293,#294,#295,#296,#297));
#127=CYLINDRICAL_SURFACE('',#128,3.);
#128=AXIS2_PLACEMENT_3D('',#129,#130,#131);
#129=CARTESIAN_POINT('',(-7.9602041944578E-16,12.5,-9.74843858730207E-32));
#130=DIRECTION('',(1.22464679914735E-16,0.,-1.));
#131=DIRECTION('',(-6.12323399573677E-17,1.,-7.49879891330929E-33));
#132=FACE_BOUND('',#133,.T.);
#133=EDGE_LOOP('',(#298,#299,#300,#301));
#134=PLANE('',#135);
#135=AXIS2_PLACEMENT_3D('',#136,#137,#138);
#136=CARTESIAN_POINT('',(2.63180546393573,13.9399999999998,3.2230321373874E-16));
#137=DIRECTION('',(0.877268487978441,0.480000000000021,1.39137667733109E-16));
#138=DIRECTION('',(0.480000000000021,-0.877268487978441,5.87830463590755E-17));
#139=FACE_BOUND('',#140,.T.);
#140=EDGE_LOOP('',(#302,#303,#304,#305));
#141=PLANE('',#142);
#142=AXIS2_PLACEMENT_3D('',#143,#144,#145);
#143=CARTESIAN_POINT('',(8.44487003509358E-17,-9.,1.03419830576928E-32));
#144=DIRECTION('',(0.,-1.,0.));
#145=DIRECTION('',(-1.,0.,-1.22464679914735E-16));
#146=FACE_BOUND('',#147,.T.);
#147=EDGE_LOOP('',(#306,#307,#308,#309,#310,#311,#312,#313));
#148=FACE_BOUND('',#149,.T.);
#149=EDGE_LOOP('',(#314));
#150=PLANE('',#151);
#151=AXIS2_PLACEMENT_3D('',#152,#153,#154);
#152=CARTESIAN_POINT('',(3.42901103761259E-16,0.,-2.8));
#153=DIRECTION('',(1.22464679914735E-16,0.,-1.));
#154=DIRECTION('',(-1.,0.,-1.22464679914735E-16));
#155=FACE_BOUND('',#156,.T.);
#156=EDGE_LOOP('',(#315,#316,#317,#318));
#157=PLANE('',#158);
#158=AXIS2_PLACEMENT_3D('',#159,#160,#161);
#159=CARTESIAN_POINT('',(-3.96697820243795,15.5,-4.85814715790296E-16));
#160=DIRECTION('',(0.,1.,0.));
#161=DIRECTION('',(1.,0.,1.22464679914735E-16));
#162=FACE_BOUND('',#163,.T.);
#163=EDGE_LOOP('',(#319,#320,#321,#322));
#164=CYLINDRICAL_SURFACE('',#165,16.033021797562);
#165=AXIS2_PLACEMENT_3D('',#166,#167,#168);
#166=CARTESIAN_POINT('',(-3.96697820243795,-0.533021797562046,-4.85814715790296E-16));
#167=DIRECTION('',(1.22464679914735E-16,0.,-1.));
#168=DIRECTION('',(-1.,0.,-1.22464679914735E-16));
#169=FACE_BOUND('',#170,.T.);
#170=EDGE_LOOP('',(#323,#324,#325,#326));
#171=PLANE('',#172);
#172=AXIS2_PLACEMENT_3D('',#173,#174,#175);
#173=CARTESIAN_POINT('',(-20.,-4.,-2.44929359829471E-15));
#174=DIRECTION('',(-1.,0.,0.));
#175=DIRECTION('',(0.,1.,0.));
#176=FACE_BOUND('',#177,.T.);
#177=EDGE_LOOP('',(#327,#328,#329,#330));
#178=CYLINDRICAL_SURFACE('',#179,9.);
#179=AXIS2_PLACEMENT_3D('',#180,#181,#182);
#180=CARTESIAN_POINT('',(0.,0.,0.));
#181=DIRECTION('',(1.22464679914735E-16,0.,-1.));
#182=DIRECTION('',(0.877268487978537,0.479999999999845,1.07434404579575E-16));
#183=FACE_OUTER_BOUND('',#184,.T.);
#184=EDGE_LOOP('',(#331));
#185=FACE_OUTER_BOUND('',#186,.T.);
#186=EDGE_LOOP('',(#332));
#187=CYLINDRICAL_SURFACE('',#188,1.6);
#188=AXIS2_PLACEMENT_3D('',#189,#190,#191);
#189=CARTESIAN_POINT('',(-7.9602041944578E-16,12.5,-9.74843858730207E-32));
#190=DIRECTION('',(1.22464679914735E-16,0.,-1.));
#191=DIRECTION('',(-1.,0.,-1.22464679914735E-16));
#192=FACE_OUTER_BOUND('',#193,.T.);
#193=EDGE_LOOP('',(#333));
#194=FACE_OUTER_BOUND('',#195,.T.);
#195=EDGE_LOOP('',(#334));
#196=CYLINDRICAL_SURFACE('',#197,1.6);
#197=AXIS2_PLACEMENT_3D('',#198,#199,#200);
#198=CARTESIAN_POINT('',(-15.,-4.,-1.83697019872103E-15));
#199=DIRECTION('',(1.22464679914735E-16,0.,-1.));
#200=DIRECTION('',(-1.,0.,-1.22464679914735E-16));
#201=FACE_OUTER_BOUND('',#202,.T.);
#202=EDGE_LOOP('',(#335));
#203=FACE_OUTER_BOUND('',#204,.T.);
#204=EDGE_LOOP('',(#336));
#205=CYLINDRICAL_SURFACE('',#206,1.6);
#206=AXIS2_PLACEMENT_3D('',#207,#208,#209);
#207=CARTESIAN_POINT('',(-12.0470021181109,8.38363828919465,-1.47533225832659E-15));
#208=DIRECTION('',(1.22464679914735E-16,0.,-1.));
#209=DIRECTION('',(-1.,0.,-1.22464679914735E-16));
#210=FACE_OUTER_BOUND('',#211,.T.);
#211=EDGE_LOOP('',(#337));
#212=FACE_OUTER_BOUND('',#213,.T.);
#213=EDGE_LOOP('',(#338));
#214=CYLINDRICAL_SURFACE('',#215,4.15);
#215=AXIS2_PLACEMENT_3D('',#216,#217,#218);
#216=CARTESIAN_POINT('',(0.,0.,0.));
#217=DIRECTION('',(1.22464679914735E-16,0.,-1.));
#218=DIRECTION('',(-1.,0.,-1.22464679914735E-16));
#219=FACE_BOUND('',#220,.T.);
#220=EDGE_LOOP('',(#339,#340,#341,#342,#343,#344,#345,#346,#347));
#221=FACE_BOUND('',#222,.T.);
#222=EDGE_LOOP('',(#348));
#223=FACE_BOUND('',#224,.T.);
#224=EDGE_LOOP('',(#349));
#225=FACE_BOUND('',#226,.T.);
#226=EDGE_LOOP('',(#350));
#227=PLANE('',#228);
#228=AXIS2_PLACEMENT_3D('',#229,#230,#231);
#229=CARTESIAN_POINT('',(1.71450551880629E-15,0.,-14.));
#230=DIRECTION('',(1.22464679914735E-16,0.,-1.));
#231=DIRECTION('',(-1.,0.,-1.22464679914735E-16));
#232=FACE_OUTER_BOUND('',#233,.T.);
#233=EDGE_LOOP('',(#351));
#234=FACE_OUTER_BOUND('',#235,.T.);
#235=EDGE_LOOP('',(#352));
#236=CONICAL_SURFACE('',#237,2.225,0.785398163397448);
#237=AXIS2_PLACEMENT_3D('',#238,#239,#240);
#238=CARTESIAN_POINT('',(-7.1947999449907E-16,12.5,-0.625));
#239=DIRECTION('',(-1.22464679914735E-16,0.,1.));
#240=DIRECTION('',(1.,0.,1.22464679914735E-16));
#241=FACE_OUTER_BOUND('',#242,.T.);
#242=EDGE_LOOP('',(#353));
#243=FACE_OUTER_BOUND('',#244,.T.);
#244=EDGE_LOOP('',(#354));
#245=CONICAL_SURFACE('',#246,2.225,0.785398163397448);
#246=AXIS2_PLACEMENT_3D('',#247,#248,#249);
#247=CARTESIAN_POINT('',(-15.,-4.,-0.625000000000002));
#248=DIRECTION('',(-1.22464679914735E-16,0.,1.));
#249=DIRECTION('',(1.,0.,1.22464679914735E-16));
#250=FACE_OUTER_BOUND('',#251,.T.);
#251=EDGE_LOOP('',(#355));
#252=FACE_OUTER_BOUND('',#253,.T.);
#253=EDGE_LOOP('',(#356));
#254=CONICAL_SURFACE('',#255,2.225,0.785398163397448);
#255=AXIS2_PLACEMENT_3D('',#256,#257,#258);
#256=CARTESIAN_POINT('',(-12.0470021181109,8.38363828919465,-0.625000000000001));
#257=DIRECTION('',(-1.22464679914735E-16,0.,1.));
#258=DIRECTION('',(1.,0.,1.22464679914735E-16));
#259=ORIENTED_EDGE('',*,*,#357,.F.);
#260=ORIENTED_EDGE('',*,*,#358,.F.);
#261=ORIENTED_EDGE('',*,*,#359,.F.);
#262=ORIENTED_EDGE('',*,*,#360,.F.);
#263=ORIENTED_EDGE('',*,*,#361,.F.);
#264=ORIENTED_EDGE('',*,*,#362,.F.);
#265=ORIENTED_EDGE('',*,*,#363,.F.);
#266=ORIENTED_EDGE('',*,*,#364,.F.);
#267=ORIENTED_EDGE('',*,*,#365,.T.);
#268=ORIENTED_EDGE('',*,*,#366,.T.);
#269=ORIENTED_EDGE('',*,*,#367,.T.);
#270=ORIENTED_EDGE('',*,*,#368,.T.);
#271=ORIENTED_EDGE('',*,*,#369,.F.);
#272=ORIENTED_EDGE('',*,*,#370,.T.);
#273=ORIENTED_EDGE('',*,*,#371,.F.);
#274=ORIENTED_EDGE('',*,*,#372,.F.);
#275=ORIENTED_EDGE('',*,*,#373,.F.);
#276=ORIENTED_EDGE('',*,*,#374,.T.);
#277=ORIENTED_EDGE('',*,*,#375,.F.);
#278=ORIENTED_EDGE('',*,*,#370,.F.);
#279=ORIENTED_EDGE('',*,*,#376,.F.);
#280=ORIENTED_EDGE('',*,*,#377,.T.);
#281=ORIENTED_EDGE('',*,*,#378,.F.);
#282=ORIENTED_EDGE('',*,*,#374,.F.);
#283=ORIENTED_EDGE('',*,*,#379,.F.);
#284=ORIENTED_EDGE('',*,*,#380,.T.);
#285=ORIENTED_EDGE('',*,*,#381,.F.);
#286=ORIENTED_EDGE('',*,*,#377,.F.);
#287=ORIENTED_EDGE('',*,*,#382,.F.);
#288=ORIENTED_EDGE('',*,*,#361,.T.);
#289=ORIENTED_EDGE('',*,*,#383,.T.);
#290=ORIENTED_EDGE('',*,*,#384,.F.);
#291=ORIENTED_EDGE('',*,*,#380,.F.);
#292=ORIENTED_EDGE('',*,*,#385,.F.);
#293=ORIENTED_EDGE('',*,*,#372,.T.);
#294=ORIENTED_EDGE('',*,*,#386,.F.);
#295=ORIENTED_EDGE('',*,*,#387,.F.);
#296=ORIENTED_EDGE('',*,*,#357,.T.);
#297=ORIENTED_EDGE('',*,*,#388,.F.);
#298=ORIENTED_EDGE('',*,*,#388,.T.);
#299=ORIENTED_EDGE('',*,*,#364,.T.);
#300=ORIENTED_EDGE('',*,*,#389,.T.);
#301=ORIENTED_EDGE('',*,*,#390,.F.);
#302=ORIENTED_EDGE('',*,*,#382,.T.);
#303=ORIENTED_EDGE('',*,*,#391,.F.);
#304=ORIENTED_EDGE('',*,*,#392,.F.);
#305=ORIENTED_EDGE('',*,*,#362,.T.);
#306=ORIENTED_EDGE('',*,*,#385,.T.);
#307=ORIENTED_EDGE('',*,*,#390,.T.);
#308=ORIENTED_EDGE('',*,*,#393,.T.);
#309=ORIENTED_EDGE('',*,*,#391,.T.);
#310=ORIENTED_EDGE('',*,*,#379,.T.);
#311=ORIENTED_EDGE('',*,*,#376,.T.);
#312=ORIENTED_EDGE('',*,*,#373,.T.);
#313=ORIENTED_EDGE('',*,*,#369,.T.);
#314=ORIENTED_EDGE('',*,*,#394,.T.);
#315=ORIENTED_EDGE('',*,*,#358,.T.);
#316=ORIENTED_EDGE('',*,*,#387,.T.);
#317=ORIENTED_EDGE('',*,*,#395,.F.);
#318=ORIENTED_EDGE('',*,*,#396,.F.);
#319=ORIENTED_EDGE('',*,*,#359,.T.);
#320=ORIENTED_EDGE('',*,*,#396,.T.);
#321=ORIENTED_EDGE('',*,*,#397,.F.);
#322=ORIENTED_EDGE('',*,*,#398,.F.);
#323=ORIENTED_EDGE('',*,*,#360,.T.);
#324=ORIENTED_EDGE('',*,*,#398,.T.);
#325=ORIENTED_EDGE('',*,*,#399,.F.);
#326=ORIENTED_EDGE('',*,*,#383,.F.);
#327=ORIENTED_EDGE('',*,*,#363,.T.);
#328=ORIENTED_EDGE('',*,*,#392,.T.);
#329=ORIENTED_EDGE('',*,*,#393,.F.);
#330=ORIENTED_EDGE('',*,*,#389,.F.);
#331=ORIENTED_EDGE('',*,*,#400,.F.);
#332=ORIENTED_EDGE('',*,*,#401,.F.);
#333=ORIENTED_EDGE('',*,*,#402,.F.);
#334=ORIENTED_EDGE('',*,*,#403,.F.);
#335=ORIENTED_EDGE('',*,*,#404,.F.);
#336=ORIENTED_EDGE('',*,*,#405,.F.);
#337=ORIENTED_EDGE('',*,*,#367,.F.);
#338=ORIENTED_EDGE('',*,*,#394,.F.);
#339=ORIENTED_EDGE('',*,*,#371,.T.);
#340=ORIENTED_EDGE('',*,*,#375,.T.);
#341=ORIENTED_EDGE('',*,*,#378,.T.);
#342=ORIENTED_EDGE('',*,*,#381,.T.);
#343=ORIENTED_EDGE('',*,*,#384,.T.);
#344=ORIENTED_EDGE('',*,*,#399,.T.);
#345=ORIENTED_EDGE('',*,*,#397,.T.);
#346=ORIENTED_EDGE('',*,*,#395,.T.);
#347=ORIENTED_EDGE('',*,*,#386,.T.);
#348=ORIENTED_EDGE('',*,*,#401,.T.);
#349=ORIENTED_EDGE('',*,*,#403,.T.);
#350=ORIENTED_EDGE('',*,*,#405,.T.);
#351=ORIENTED_EDGE('',*,*,#400,.T.);
#352=ORIENTED_EDGE('',*,*,#366,.F.);
#353=ORIENTED_EDGE('',*,*,#402,.T.);
#354=ORIENTED_EDGE('',*,*,#368,.F.);
#355=ORIENTED_EDGE('',*,*,#404,.T.);
#356=ORIENTED_EDGE('',*,*,#365,.F.);
#357=EDGE_CURVE('',#406,#407,#408,.T.);
#358=EDGE_CURVE('',#409,#406,#410,.T.);
#359=EDGE_CURVE('',#411,#409,#412,.T.);
#360=EDGE_CURVE('',#413,#411,#414,.T.);
#361=EDGE_CURVE('',#415,#413,#416,.T.);
#362=EDGE_CURVE('',#417,#415,#418,.T.);
#363=EDGE_CURVE('',#419,#417,#420,.T.);
#364=EDGE_CURVE('',#407,#419,#421,.T.);
#365=EDGE_CURVE('',#422,#422,#423,.T.);
#366=EDGE_CURVE('',#424,#424,#425,.T.);
#367=EDGE_CURVE('',#426,#426,#427,.T.);
#368=EDGE_CURVE('',#428,#428,#429,.T.);
#369=EDGE_CURVE('',#430,#431,#432,.T.);
#370=EDGE_CURVE('',#430,#433,#434,.T.);
#371=EDGE_CURVE('',#435,#433,#436,.T.);
#372=EDGE_CURVE('',#431,#435,#437,.T.);
#373=EDGE_CURVE('',#438,#430,#439,.F.);
#374=EDGE_CURVE('',#438,#440,#441,.T.);
#375=EDGE_CURVE('',#433,#440,#442,.T.);
#376=EDGE_CURVE('',#443,#438,#444,.T.);
#377=EDGE_CURVE('',#443,#445,#446,.T.);
#378=EDGE_CURVE('',#440,#445,#447,.T.);
#379=EDGE_CURVE('',#448,#443,#449,.F.);
#380=EDGE_CURVE('',#448,#450,#451,.T.);
#381=EDGE_CURVE('',#445,#450,#452,.T.);
#382=EDGE_CURVE('',#415,#448,#453,.T.);
#383=EDGE_CURVE('',#413,#454,#455,.T.);
#384=EDGE_CURVE('',#450,#454,#456,.T.);
#385=EDGE_CURVE('',#431,#457,#458,.F.);
#386=EDGE_CURVE('',#459,#435,#460,.T.);
#387=EDGE_CURVE('',#406,#459,#461,.T.);
#388=EDGE_CURVE('',#457,#407,#462,.F.);
#389=EDGE_CURVE('',#419,#463,#464,.T.);
#390=EDGE_CURVE('',#457,#463,#465,.T.);
#391=EDGE_CURVE('',#466,#448,#467,.T.);
#392=EDGE_CURVE('',#417,#466,#468,.T.);
#393=EDGE_CURVE('',#463,#466,#469,.T.);
#394=EDGE_CURVE('',#470,#470,#471,.F.);
#395=EDGE_CURVE('',#472,#459,#473,.T.);
#396=EDGE_CURVE('',#409,#472,#474,.T.);
#397=EDGE_CURVE('',#475,#472,#476,.T.);
#398=EDGE_CURVE('',#411,#475,#477,.T.);
#399=EDGE_CURVE('',#454,#475,#478,.T.);
#400=EDGE_CURVE('',#479,#479,#480,.T.);
#401=EDGE_CURVE('',#481,#481,#482,.F.);
#402=EDGE_CURVE('',#483,#483,#484,.T.);
#403=EDGE_CURVE('',#485,#485,#486,.F.);
#404=EDGE_CURVE('',#487,#487,#488,.T.);
#405=EDGE_CURVE('',#489,#489,#490,.F.);
#406=VERTEX_POINT('',#491);
#407=VERTEX_POINT('',#492);
#408=CIRCLE('',#493,3.);
#409=VERTEX_POINT('',#497);
#410=LINE('',#498,#499);
#411=VERTEX_POINT('',#501);
#412=CIRCLE('',#502,16.033021797562);
#413=VERTEX_POINT('',#506);
#414=LINE('',#507,#508);
#415=VERTEX_POINT('',#510);
#416=CIRCLE('',#511,5.);
#417=VERTEX_POINT('',#515);
#418=LINE('',#516,#517);
#419=VERTEX_POINT('',#519);
#420=CIRCLE('',#520,9.);
#421=LINE('',#524,#525);
#422=VERTEX_POINT('',#527);
#423=CIRCLE('',#528,2.85);
#424=VERTEX_POINT('',#532);
#425=CIRCLE('',#533,2.85);
#426=VERTEX_POINT('',#537);
#427=CIRCLE('',#538,4.15);
#428=VERTEX_POINT('',#542);
#429=CIRCLE('',#543,2.85);
#430=VERTEX_POINT('',#547);
#431=VERTEX_POINT('',#548);
#432=LINE('',#549,#550);
#433=VERTEX_POINT('',#552);
#434=LINE('',#553,#554);
#435=VERTEX_POINT('',#556);
#436=LINE('',#557,#558);
#437=LINE('',#560,#561);
#438=VERTEX_POINT('',#563);
#439=CIRCLE('',#564,9.);
#440=VERTEX_POINT('',#568);
#441=LINE('',#569,#570);
#442=CIRCLE('',#572,9.);
#443=VERTEX_POINT('',#576);
#444=LINE('',#577,#578);
#445=VERTEX_POINT('',#580);
#446=LINE('',#581,#582);
#447=LINE('',#584,#585);
#448=VERTEX_POINT('',#587);
#449=CIRCLE('',#588,3.);
#450=VERTEX_POINT('',#592);
#451=LINE('',#593,#594);
#452=CIRCLE('',#596,3.);
#453=LINE('',#600,#601);
#454=VERTEX_POINT('',#603);
#455=LINE('',#604,#605);
#456=CIRCLE('',#607,5.);
#457=VERTEX_POINT('',#611);
#458=CIRCLE('',#612,3.);
#459=VERTEX_POINT('',#616);
#460=CIRCLE('',#617,3.);
#461=LINE('',#621,#622);
#462=LINE('',#624,#625);
#463=VERTEX_POINT('',#627);
#464=LINE('',#628,#629);
#465=LINE('',#631,#632);
#466=VERTEX_POINT('',#634);
#467=LINE('',#635,#636);
#468=LINE('',#638,#639);
#469=CIRCLE('',#641,9.);
#470=VERTEX_POINT('',#645);
#471=CIRCLE('',#646,4.15);
#472=VERTEX_POINT('',#650);
#473=LINE('',#651,#652);
#474=LINE('',#654,#655);
#475=VERTEX_POINT('',#657);
#476=CIRCLE('',#658,16.033021797562);
#477=LINE('',#662,#663);
#478=LINE('',#665,#666);
#479=VERTEX_POINT('',#668);
#480=CIRCLE('',#669,1.6);
#481=VERTEX_POINT('',#673);
#482=CIRCLE('',#674,1.6);
#483=VERTEX_POINT('',#678);
#484=CIRCLE('',#679,1.6);
#485=VERTEX_POINT('',#683);
#486=CIRCLE('',#684,1.6);
#487=VERTEX_POINT('',#688);
#488=CIRCLE('',#689,1.6);
#489=VERTEX_POINT('',#693);
#490=CIRCLE('',#694,1.6);
#491=CARTESIAN_POINT('',(-8.87868926612438E-16,15.5,-1.08732583903832E-31));
#492=CARTESIAN_POINT('',(2.63180546393563,13.9399999999997,3.22303213738727E-16));
#493=AXIS2_PLACEMENT_3D('',#494,#495,#496);
#494=CARTESIAN_POINT('',(-7.9602041944578E-16,12.5,-9.74843858730207E-32));
#495=DIRECTION('',(1.22464679914735E-16,0.,-1.));
#496=DIRECTION('',(-6.12323399573677E-17,1.,-7.49879891330929E-33));
#497=CARTESIAN_POINT('',(-3.96697820243796,15.5,-4.85814715790296E-16));
#498=CARTESIAN_POINT('',(-3.96697820243795,15.5,-4.85814715790296E-16));
#499=VECTOR('',#500,1.);
#500=DIRECTION('',(1.,0.,1.22464679914735E-16));
#501=CARTESIAN_POINT('',(-20.,-0.533021797562046,-2.44929359829471E-15));
#502=AXIS2_PLACEMENT_3D('',#503,#504,#505);
#503=CARTESIAN_POINT('',(-3.96697820243795,-0.533021797562046,-4.85814715790296E-16));
#504=DIRECTION('',(1.22464679914735E-16,0.,-1.));
#505=DIRECTION('',(-1.,0.,-1.22464679914735E-16));
#506=CARTESIAN_POINT('',(-20.,-4.,-2.44929359829471E-15));
#507=CARTESIAN_POINT('',(-20.,-4.,-2.44929359829471E-15));
#508=VECTOR('',#509,1.);
#509=DIRECTION('',(0.,1.,0.));
#510=CARTESIAN_POINT('',(-15.,-9.,-1.83697019872103E-15));
#511=AXIS2_PLACEMENT_3D('',#512,#513,#514);
#512=CARTESIAN_POINT('',(-15.,-4.,-1.83697019872103E-15));
#513=DIRECTION('',(1.22464679914735E-16,0.,-1.));
#514=DIRECTION('',(3.5527136788005E-16,-1.,4.35081943503005E-32));
#515=CARTESIAN_POINT('',(8.68860939599931E-16,-9.,1.06404776858522E-31));
#516=CARTESIAN_POINT('',(8.44487003509358E-17,-9.,1.03419830576928E-32));
#517=VECTOR('',#518,1.);
#518=DIRECTION('',(-1.,0.,-1.22464679914735E-16));
#519=CARTESIAN_POINT('',(7.89541639180705,4.31999999999872,9.66909641216205E-16));
#520=AXIS2_PLACEMENT_3D('',#521,#522,#523);
#521=CARTESIAN_POINT('',(0.,0.,0.));
#522=DIRECTION('',(1.22464679914735E-16,0.,-1.));
#523=DIRECTION('',(0.877268487978537,0.479999999999845,1.07434404579575E-16));
#524=CARTESIAN_POINT('',(2.63180546393573,13.9399999999998,3.2230321373874E-16));
#525=VECTOR('',#526,1.);
#526=DIRECTION('',(0.480000000000021,-0.877268487978441,5.87830463590755E-17));
#527=CARTESIAN_POINT('',(-14.8970021181109,8.38363828919465,-1.82435659608358E-15));
#528=AXIS2_PLACEMENT_3D('',#529,#530,#531);
#529=CARTESIAN_POINT('',(-12.0470021181109,8.38363828919465,-1.47533225832659E-15));
#530=DIRECTION('',(1.22464679914735E-16,0.,-1.));
#531=DIRECTION('',(-1.,0.,-1.22464679914735E-16));
#532=CARTESIAN_POINT('',(-2.85,12.5,-3.49024337756996E-16));
#533=AXIS2_PLACEMENT_3D('',#534,#535,#536);
#534=CARTESIAN_POINT('',(-7.9602041944578E-16,12.5,-9.74843858730207E-32));
#535=DIRECTION('',(1.22464679914735E-16,0.,-1.));
#536=DIRECTION('',(-1.,0.,-1.22464679914735E-16));
#537=CARTESIAN_POINT('',(-4.15,-5.08228421646152E-16,-5.08228421646152E-16));
#538=AXIS2_PLACEMENT_3D('',#539,#540,#541);
#539=CARTESIAN_POINT('',(0.,0.,0.));
#540=DIRECTION('',(1.22464679914735E-16,0.,-1.));
#541=DIRECTION('',(-1.,0.,-1.22464679914735E-16));
#542=CARTESIAN_POINT('',(-17.85,-4.,-2.18599453647803E-15));
#543=AXIS2_PLACEMENT_3D('',#544,#545,#546);
#544=CARTESIAN_POINT('',(-15.,-4.,-1.83697019872103E-15));
#545=DIRECTION('',(1.22464679914735E-16,0.,-1.));
#546=DIRECTION('',(-1.,0.,-1.22464679914735E-16));
#547=CARTESIAN_POINT('',(-3.,9.5,-2.8));
#548=CARTESIAN_POINT('',(-2.35638018151841E-16,9.5,-2.8));
#549=CARTESIAN_POINT('',(-3.,9.5,-2.8));
#550=VECTOR('',#551,1.);
#551=DIRECTION('',(1.,0.,1.48029736616688E-16));
#552=CARTESIAN_POINT('',(-3.,9.5,-14.));
#553=CARTESIAN_POINT('',(-3.,9.5,-2.8));
#554=VECTOR('',#555,1.);
#555=DIRECTION('',(1.18952466924124E-16,0.,-1.));
#556=CARTESIAN_POINT('',(1.13596639689319E-15,9.5,-14.));
#557=CARTESIAN_POINT('',(8.02356634809564E-16,9.5,-14.));
#558=VECTOR('',#559,1.);
#559=DIRECTION('',(-1.,0.,0.));
#560=CARTESIAN_POINT('',(-2.35638018151841E-16,9.5,-2.8));
#561=VECTOR('',#562,1.);
#562=DIRECTION('',(1.22464679914735E-16,0.,-1.));
#563=CARTESIAN_POINT('',(-12.,0.500000000000001,-2.8));
#564=AXIS2_PLACEMENT_3D('',#565,#566,#567);
#565=CARTESIAN_POINT('',(-3.,0.500000000000001,-2.8));
#566=DIRECTION('',(-1.22464679914735E-16,0.,1.));
#567=DIRECTION('',(-4.93432455388958E-17,1.,-6.04280477087507E-33));
#568=CARTESIAN_POINT('',(-12.,0.500000000000001,-14.));
#569=CARTESIAN_POINT('',(-12.,0.500000000000001,-2.8));
#570=VECTOR('',#571,1.);
#571=DIRECTION('',(1.58603289232165E-16,0.,-1.));
#572=AXIS2_PLACEMENT_3D('',#573,#574,#575);
#573=CARTESIAN_POINT('',(-3.,0.500000000000001,-14.));
#574=DIRECTION('',(-1.22464679914735E-16,0.,1.));
#575=DIRECTION('',(-4.93432455388958E-17,1.,-6.04280477087507E-33));
#576=CARTESIAN_POINT('',(-12.,-6.,-2.8));
#577=CARTESIAN_POINT('',(-12.,-6.,-2.8));
#578=VECTOR('',#579,1.);
#579=DIRECTION('',(0.,1.,0.));
#580=CARTESIAN_POINT('',(-12.,-6.,-14.));
#581=CARTESIAN_POINT('',(-12.,-6.,-2.8));
#582=VECTOR('',#583,1.);
#583=DIRECTION('',(1.58603289232165E-16,0.,-1.));
#584=CARTESIAN_POINT('',(-12.,0.500000000000001,-14.));
#585=VECTOR('',#586,1.);
#586=DIRECTION('',(0.,-1.,0.));
#587=CARTESIAN_POINT('',(-15.,-9.,-2.8));
#588=AXIS2_PLACEMENT_3D('',#589,#590,#591);
#589=CARTESIAN_POINT('',(-15.,-6.,-2.8));
#590=DIRECTION('',(1.22464679914735E-16,0.,-1.));
#591=DIRECTION('',(1.,0.,1.22464679914735E-16));
#592=CARTESIAN_POINT('',(-15.,-9.,-14.));
#593=CARTESIAN_POINT('',(-15.,-9.,-2.8));
#594=VECTOR('',#595,1.);
#595=DIRECTION('',(1.58603289232165E-16,0.,-1.));
#596=AXIS2_PLACEMENT_3D('',#597,#598,#599);
#597=CARTESIAN_POINT('',(-15.,-6.,-14.));
#598=DIRECTION('',(1.22464679914735E-16,0.,-1.));
#599=DIRECTION('',(1.,0.,1.22464679914735E-16));
#600=CARTESIAN_POINT('',(-15.,-9.,-1.83697019872103E-15));
#601=VECTOR('',#602,1.);
#602=DIRECTION('',(-6.34413156928661E-16,0.,-1.));
#603=CARTESIAN_POINT('',(-20.,-4.,-14.));
#604=CARTESIAN_POINT('',(-20.,-4.,-2.44929359829471E-15));
#605=VECTOR('',#606,1.);
#606=DIRECTION('',(0.,0.,-1.));
#607=AXIS2_PLACEMENT_3D('',#608,#609,#610);
#608=CARTESIAN_POINT('',(-15.,-4.,-14.));
#609=DIRECTION('',(1.22464679914735E-16,0.,-1.));
#610=DIRECTION('',(3.5527136788005E-16,-1.,4.35081943503005E-32));
#611=CARTESIAN_POINT('',(2.63180546393563,13.9399999999997,-2.8));
#612=AXIS2_PLACEMENT_3D('',#613,#614,#615);
#613=CARTESIAN_POINT('',(-4.53119315684521E-16,12.5,-2.8));
#614=DIRECTION('',(1.22464679914735E-16,0.,-1.));
#615=DIRECTION('',(0.87726848797851,0.479999999999895,1.07434404579572E-16));
#616=CARTESIAN_POINT('',(8.26636592193857E-16,15.5,-14.));
#617=AXIS2_PLACEMENT_3D('',#618,#619,#620);
#618=CARTESIAN_POINT('',(9.18485099360515E-16,12.5,-14.));
#619=DIRECTION('',(1.22464679914735E-16,0.,-1.));
#620=DIRECTION('',(-6.12323399573676E-17,1.,-7.49879891330928E-33));
#621=CARTESIAN_POINT('',(-9.33947929509004E-16,15.5,-1.09294197882788E-31));
#622=VECTOR('',#623,1.);
#623=DIRECTION('',(1.22464679914735E-16,0.,-1.));
#624=CARTESIAN_POINT('',(2.63180546393563,13.9399999999997,3.22303213738725E-16));
#625=VECTOR('',#626,1.);
#626=DIRECTION('',(3.1720657846433E-16,0.,-1.));
#627=CARTESIAN_POINT('',(7.89541639180705,4.31999999999872,-2.8));
#628=CARTESIAN_POINT('',(7.89541639180705,4.31999999999872,9.66909641216205E-16));
#629=VECTOR('',#630,1.);
#630=DIRECTION('',(0.,0.,-1.));
#631=CARTESIAN_POINT('',(2.63180546393573,13.9399999999998,-2.8));
#632=VECTOR('',#633,1.);
#633=DIRECTION('',(0.480000000000021,-0.877268487978441,4.04974500678447E-17));
#634=CARTESIAN_POINT('',(1.21176204336119E-15,-9.,-2.8));
#635=CARTESIAN_POINT('',(4.27349804112195E-16,-9.,-2.8));
#636=VECTOR('',#637,1.);
#637=DIRECTION('',(-1.,0.,-1.1842378929335E-16));
#638=CARTESIAN_POINT('',(7.08358164950562E-16,-9.,5.44747981051596E-32));
#639=VECTOR('',#640,1.);
#640=DIRECTION('',(1.22464679914735E-16,0.,-1.));
#641=AXIS2_PLACEMENT_3D('',#642,#643,#644);
#642=CARTESIAN_POINT('',(3.42901103761259E-16,0.,-2.8));
#643=DIRECTION('',(1.22464679914735E-16,0.,-1.));
#644=DIRECTION('',(0.877268487978537,0.479999999999845,1.07434404579575E-16));
#645=CARTESIAN_POINT('',(-4.15,-5.08228421646152E-16,-2.8));
#646=AXIS2_PLACEMENT_3D('',#647,#648,#649);
#647=CARTESIAN_POINT('',(3.42901103761259E-16,0.,-2.8));
#648=DIRECTION('',(1.22464679914735E-16,0.,-1.));
#649=DIRECTION('',(-1.,0.,-1.22464679914735E-16));
#650=CARTESIAN_POINT('',(-3.96697820243795,15.5,-14.));
#651=CARTESIAN_POINT('',(-3.96697820243795,15.5,-14.));
#652=VECTOR('',#653,1.);
#653=DIRECTION('',(1.,0.,0.));
#654=CARTESIAN_POINT('',(-3.96697820243796,15.5,-4.85814715790296E-16));
#655=VECTOR('',#656,1.);
#656=DIRECTION('',(1.26882631385732E-16,0.,-1.));
#657=CARTESIAN_POINT('',(-20.,-0.533021797562046,-14.));
#658=AXIS2_PLACEMENT_3D('',#659,#660,#661);
#659=CARTESIAN_POINT('',(-3.96697820243795,-0.533021797562046,-14.));
#660=DIRECTION('',(1.22464679914735E-16,0.,-1.));
#661=DIRECTION('',(-1.,0.,-1.22464679914735E-16));
#662=CARTESIAN_POINT('',(-20.,-0.533021797562046,-2.44929359829471E-15));
#663=VECTOR('',#664,1.);
#664=DIRECTION('',(0.,0.,-1.));
#665=CARTESIAN_POINT('',(-20.,-4.,-14.));
#666=VECTOR('',#667,1.);
#667=DIRECTION('',(0.,1.,0.));
#668=CARTESIAN_POINT('',(-1.6,12.5,-1.25));
#669=AXIS2_PLACEMENT_3D('',#670,#671,#672);
#670=CARTESIAN_POINT('',(-6.4293956955236E-16,12.5,-1.25));
#671=DIRECTION('',(1.22464679914735E-16,0.,-1.));
#672=DIRECTION('',(-1.,0.,-1.22464679914735E-16));
#673=CARTESIAN_POINT('',(-1.6,12.5,-14.));
#674=AXIS2_PLACEMENT_3D('',#675,#676,#677);
#675=CARTESIAN_POINT('',(9.18485099360515E-16,12.5,-14.));
#676=DIRECTION('',(1.22464679914735E-16,0.,-1.));
#677=DIRECTION('',(-1.,0.,-1.22464679914735E-16));
#678=CARTESIAN_POINT('',(-16.6,-4.,-1.25));
#679=AXIS2_PLACEMENT_3D('',#680,#681,#682);
#680=CARTESIAN_POINT('',(-15.,-4.,-1.25));
#681=DIRECTION('',(1.22464679914735E-16,0.,-1.));
#682=DIRECTION('',(-1.,0.,-1.22464679914735E-16));
#683=CARTESIAN_POINT('',(-16.6,-4.,-14.));
#684=AXIS2_PLACEMENT_3D('',#685,#686,#687);
#685=CARTESIAN_POINT('',(-15.,-4.,-14.));
#686=DIRECTION('',(1.22464679914735E-16,0.,-1.));
#687=DIRECTION('',(-1.,0.,-1.22464679914735E-16));
#688=CARTESIAN_POINT('',(-13.6470021181109,8.38363828919465,-1.25));
#689=AXIS2_PLACEMENT_3D('',#690,#691,#692);
#690=CARTESIAN_POINT('',(-12.0470021181109,8.38363828919465,-1.25));
#691=DIRECTION('',(1.22464679914735E-16,0.,-1.));
#692=DIRECTION('',(-1.,0.,-1.22464679914735E-16));
#693=CARTESIAN_POINT('',(-13.6470021181109,8.38363828919465,-14.));
#694=AXIS2_PLACEMENT_3D('',#695,#696,#697);
#695=CARTESIAN_POINT('',(-12.0470021181109,8.38363828919465,-14.));
#696=DIRECTION('',(1.22464679914735E-16,0.,-1.));
#697=DIRECTION('',(-1.,0.,-1.22464679914735E-16));
ENDSEC;
END-ISO-10303-21;
