ISO-10303-21;
HEADER;
FILE_DESCRIPTION(('STEP AP203'),
    '1');
FILE_NAME('ƒержатель–ычага',
    '',
    ('UNSPECIFIED'),
    ('UNSPECIFIED'),
    'C3D Converter',
    'C3D Toolkit',
    '');
FILE_SCHEMA(('CONFIG_CONTROL_DESIGN'));
ENDSEC;

DATA;
#1=PRODUCT_DEFINITION('','UNSPECIFIED',#28,#31);
#2=SHAPE_DEFINITION_REPRESENTATION(#26,#3);
#3=SHAPE_REPRESENTATION('NONE',(#4),#8);
#4=AXIS2_PLACEMENT_3D('',#5,#6,#7);
#5=CARTESIAN_POINT('',(0.,0.,0.));
#6=DIRECTION('',(0.,0.,1.));
#7=DIRECTION('',(1.,0.,0.));
#8=(GEOMETRIC_REPRESENTATION_CONTEXT(3)GLOBAL_UNCERTAINTY_ASSIGNED_CONTEXT((#10))
GLOBAL_UNIT_ASSIGNED_CONTEXT((#9,#11,#12))REPRESENTATION_CONTEXT('NONE','NONE'));
#9=(LENGTH_UNIT()NAMED_UNIT(*)SI_UNIT(.MILLI.,.METRE.));
#10=UNCERTAINTY_MEASURE_WITH_UNIT(LENGTH_MEASURE(1.E-5),#9,'NONE','NONE');
#11=(NAMED_UNIT(*)PLANE_ANGLE_UNIT()SI_UNIT($,.RADIAN.));
#12=(NAMED_UNIT(*)SI_UNIT($,.STERADIAN.)SOLID_ANGLE_UNIT());
#13=MANIFOLD_SOLID_BREP('',#14);
#14=CLOSED_SHELL('',(#53,#54,#55,#56,#57,#58,#59,#60,#61,#62,#63,#64,#65,#66,#67,
#68,#69,#70,#71,#72,#73,#74,#75,#76));
#15=COLOUR_RGB('',0.6,0.,0.);
#16=FILL_AREA_STYLE_COLOUR('',#15);
#17=FILL_AREA_STYLE($,(#16));
#18=SURFACE_STYLE_FILL_AREA(#17);
#19=SURFACE_SIDE_STYLE('',(#18));
#20=SURFACE_STYLE_USAGE(.BOTH.,#19);
#21=PRESENTATION_STYLE_ASSIGNMENT((#20));
#22=MECHANICAL_DESIGN_GEOMETRIC_PRESENTATION_REPRESENTATION('NONE',(#23),#8);
#23=STYLED_ITEM('',(#21),#13);
#24=ADVANCED_BREP_SHAPE_REPRESENTATION('NONE',(#13),#8);
#25=SHAPE_REPRESENTATION_RELATIONSHIP('','',#3,#24);
#26=PRODUCT_DEFINITION_SHAPE('NONE','NONE',#1);
#27=MECHANICAL_CONTEXT('NONE',#32,'mechanical');
#28=PRODUCT_DEFINITION_FORMATION_WITH_SPECIFIED_SOURCE('ANY','UNSPECIFIED',#29,.NOT_KNOWN.);
#29=PRODUCT('-03','\X2\0414043504400436043004420435043B044C0420044B0447043004330430\X0\_\X2\043304300439043A0430\X0\',
'NONE',(#27));
#30=PRODUCT_RELATED_PRODUCT_CATEGORY('detail','',(#29));
#31=DESIGN_CONTEXT('detailed design',#32,'design');
#32=APPLICATION_CONTEXT('configuration controlled 3d designs of mechanical parts and assemblies');
#33=APPLICATION_PROTOCOL_DEFINITION('international standard','config_control_design',
1994,#32);
#34=CC_DESIGN_DATE_AND_TIME_ASSIGNMENT(#35,#39,(#1));
#35=DATE_AND_TIME(#36,#37);
#36=CALENDAR_DATE(0,1,1);
#37=LOCAL_TIME(0,0,0.,#38);
#38=COORDINATED_UNIVERSAL_TIME_OFFSET(0,0,.AHEAD.);
#39=DATE_TIME_ROLE('creation_date');
#40=CC_DESIGN_APPROVAL(#41,(#1));
#41=APPROVAL(#42,'UNSPECIFIED');
#42=APPROVAL_STATUS('not_yet_approved');
#43=APPROVAL_DATE_TIME(#44,#41);
#44=DATE_AND_TIME(#45,#46);
#45=CALENDAR_DATE(0,1,1);
#46=LOCAL_TIME(0,0,0.,#47);
#47=COORDINATED_UNIVERSAL_TIME_OFFSET(0,0,.AHEAD.);
#48=PERSON('UNSPECIFIED','UNSPECIFIED','UNSPECIFIED',('UNSPECIFIED'),('UNSPECIFIED'),
('UNSPECIFIED'));
#49=ORGANIZATION('UNSPECIFIED','UNSPECIFIED','UNSPECIFIED');
#50=PERSON_AND_ORGANIZATION(#48,#49);
#51=PERSON_AND_ORGANIZATION_ROLE('creator');
#52=CC_DESIGN_PERSON_AND_ORGANIZATION_ASSIGNMENT(#50,#51,(#28,#1));
#53=ADVANCED_FACE('',(#77,#79),#81,.F.);
#54=ADVANCED_FACE('',(#86,#88,#90,#92),#94,.F.);
#55=ADVANCED_FACE('',(#99),#101,.T.);
#56=ADVANCED_FACE('',(#106),#108,.F.);
#57=ADVANCED_FACE('',(#113),#115,.F.);
#58=ADVANCED_FACE('',(#119),#121,.F.);
#59=ADVANCED_FACE('',(#126),#128,.T.);
#60=ADVANCED_FACE('',(#133),#135,.T.);
#61=ADVANCED_FACE('',(#140),#142,.T.);
#62=ADVANCED_FACE('',(#147),#149,.T.);
#63=ADVANCED_FACE('',(#154),#156,.T.);
#64=ADVANCED_FACE('',(#161,#163),#165,.F.);
#65=ADVANCED_FACE('',(#170),#172,.T.);
#66=ADVANCED_FACE('',(#177),#179,.T.);
#67=ADVANCED_FACE('',(#184),#186,.T.);
#68=ADVANCED_FACE('',(#191),#193,.T.);
#69=ADVANCED_FACE('',(#198,#200),#202,.F.);
#70=ADVANCED_FACE('',(#207,#209),#211,.F.);
#71=ADVANCED_FACE('',(#216,#218),#220,.F.);
#72=ADVANCED_FACE('',(#225,#227,#229,#231,#233),#235,.T.);
#73=ADVANCED_FACE('',(#240,#242),#244,.F.);
#74=ADVANCED_FACE('',(#249,#251),#253,.F.);
#75=ADVANCED_FACE('',(#258,#260),#262,.F.);
#76=ADVANCED_FACE('',(#267),#269,.T.);
#77=FACE_BOUND('',#78,.T.);
#78=EDGE_LOOP('',(#274,#275,#276,#277,#278,#279,#280,#281,#282,#283));
#79=FACE_BOUND('',#80,.T.);
#80=EDGE_LOOP('',(#284));
#81=PLANE('',#82);
#82=AXIS2_PLACEMENT_3D('',#83,#84,#85);
#83=CARTESIAN_POINT('',(-3.42901103761259E-16,0.,2.8));
#84=DIRECTION('',(1.22464679914735E-16,0.,-1.));
#85=DIRECTION('',(-1.,0.,-1.22464679914735E-16));
#86=FACE_BOUND('',#87,.T.);
#87=EDGE_LOOP('',(#285,#286,#287,#288,#289,#290,#291,#292,#293,#294,#295));
#88=FACE_BOUND('',#89,.T.);
#89=EDGE_LOOP('',(#296));
#90=FACE_BOUND('',#91,.T.);
#91=EDGE_LOOP('',(#297));
#92=FACE_BOUND('',#93,.T.);
#93=EDGE_LOOP('',(#298));
#94=PLANE('',#95);
#95=AXIS2_PLACEMENT_3D('',#96,#97,#98);
#96=CARTESIAN_POINT('',(-1.71450551880629E-15,0.,14.));
#97=DIRECTION('',(1.22464679914735E-16,0.,-1.));
#98=DIRECTION('',(-1.,0.,-1.22464679914735E-16));
#99=FACE_BOUND('',#100,.T.);
#100=EDGE_LOOP('',(#299,#300,#301,#302,#303,#304));
#101=CYLINDRICAL_SURFACE('',#102,3.);
#102=AXIS2_PLACEMENT_3D('',#103,#104,#105);
#103=CARTESIAN_POINT('',(-2.51052593825207E-15,12.5,14.));
#104=DIRECTION('',(1.22464679914735E-16,0.,-1.));
#105=DIRECTION('',(-6.12323399573677E-17,1.,-7.49879891330929E-33));
#106=FACE_BOUND('',#107,.T.);
#107=EDGE_LOOP('',(#305,#306,#307,#308));
#108=CYLINDRICAL_SURFACE('',#109,9.);
#109=AXIS2_PLACEMENT_3D('',#110,#111,#112);
#110=CARTESIAN_POINT('',(-3.,0.500000000000001,14.));
#111=DIRECTION('',(-1.22464679914735E-16,0.,1.));
#112=DIRECTION('',(-4.93432455388958E-17,1.,-6.04280477087507E-33));
#113=FACE_BOUND('',#114,.T.);
#114=EDGE_LOOP('',(#309,#310,#311,#312));
#115=SURFACE_OF_LINEAR_EXTRUSION('',#116,#117);
#116=B_SPLINE_CURVE_WITH_KNOTS('',3,
(#313,#314,#315,#316),
.UNSPECIFIED.,.F.,.F.,
(4,4),
(0.,1.),
.UNSPECIFIED.);
#117=VECTOR('',#118,12.2);
#118=DIRECTION('',(-1.22464679914735E-16,0.,1.));
#119=FACE_BOUND('',#120,.T.);
#120=EDGE_LOOP('',(#317,#318,#319,#320));
#121=PLANE('',#122);
#122=AXIS2_PLACEMENT_3D('',#123,#124,#125);
#123=CARTESIAN_POINT('',(2.27197779949208,10.5408887528741,1.8));
#124=DIRECTION('',(0.,1.,0.));
#125=DIRECTION('',(-1.,0.,-1.39446941459019E-16));
#126=FACE_BOUND('',#127,.T.);
#127=EDGE_LOOP('',(#321,#322,#323,#324));
#128=PLANE('',#129);
#129=AXIS2_PLACEMENT_3D('',#130,#131,#132);
#130=CARTESIAN_POINT('',(-12.,0.500000000000001,14.));
#131=DIRECTION('',(1.,0.,1.26882631385732E-16));
#132=DIRECTION('',(0.,-1.,0.));
#133=FACE_BOUND('',#134,.T.);
#134=EDGE_LOOP('',(#325,#326,#327,#328));
#135=CYLINDRICAL_SURFACE('',#136,3.);
#136=AXIS2_PLACEMENT_3D('',#137,#138,#139);
#137=CARTESIAN_POINT('',(-15.,-6.,14.));
#138=DIRECTION('',(1.22464679914735E-16,0.,-1.));
#139=DIRECTION('',(1.,0.,1.22464679914735E-16));
#140=FACE_BOUND('',#141,.T.);
#141=EDGE_LOOP('',(#329,#330,#331,#332));
#142=PLANE('',#143);
#143=AXIS2_PLACEMENT_3D('',#144,#145,#146);
#144=CARTESIAN_POINT('',(-2.58452403410323E-16,-9.,2.8));
#145=DIRECTION('',(0.,-1.,0.));
#146=DIRECTION('',(-1.,0.,-1.1842378929335E-16));
#147=FACE_BOUND('',#148,.T.);
#148=EDGE_LOOP('',(#333,#334,#335,#336));
#149=CYLINDRICAL_SURFACE('',#150,9.);
#150=AXIS2_PLACEMENT_3D('',#151,#152,#153);
#151=CARTESIAN_POINT('',(-3.42901103761259E-16,0.,2.8));
#152=DIRECTION('',(1.22464679914735E-16,0.,-1.));
#153=DIRECTION('',(0.877268487978537,0.479999999999845,1.07434404579575E-16));
#154=FACE_BOUND('',#155,.T.);
#155=EDGE_LOOP('',(#337,#338,#339,#340));
#156=PLANE('',#157);
#157=AXIS2_PLACEMENT_3D('',#158,#159,#160);
#158=CARTESIAN_POINT('',(2.63180546393573,13.9399999999998,2.8));
#159=DIRECTION('',(0.877268487978441,0.480000000000021,1.39137667733109E-16));
#160=DIRECTION('',(0.480000000000021,-0.877268487978441,4.04974500678447E-17));
#161=FACE_OUTER_BOUND('',#162,.T.);
#162=EDGE_LOOP('',(#341));
#163=FACE_OUTER_BOUND('',#164,.T.);
#164=EDGE_LOOP('',(#342));
#165=CYLINDRICAL_SURFACE('',#166,4.15);
#166=AXIS2_PLACEMENT_3D('',#167,#168,#169);
#167=CARTESIAN_POINT('',(-3.42901103761259E-16,0.,2.8));
#168=DIRECTION('',(1.22464679914735E-16,0.,-1.));
#169=DIRECTION('',(-1.,0.,-1.22464679914735E-16));
#170=FACE_BOUND('',#171,.T.);
#171=EDGE_LOOP('',(#343,#344,#345,#346));
#172=PLANE('',#173);
#173=AXIS2_PLACEMENT_3D('',#174,#175,#176);
#174=CARTESIAN_POINT('',(-3.96697820243796,15.5,14.));
#175=DIRECTION('',(0.,1.,0.));
#176=DIRECTION('',(1.,0.,0.));
#177=FACE_BOUND('',#178,.T.);
#178=EDGE_LOOP('',(#347,#348,#349,#350));
#179=CYLINDRICAL_SURFACE('',#180,16.033021797562);
#180=AXIS2_PLACEMENT_3D('',#181,#182,#183);
#181=CARTESIAN_POINT('',(-3.96697820243796,-0.533021797562046,14.));
#182=DIRECTION('',(1.22464679914735E-16,0.,-1.));
#183=DIRECTION('',(-1.,0.,-1.22464679914735E-16));
#184=FACE_BOUND('',#185,.T.);
#185=EDGE_LOOP('',(#351,#352,#353,#354));
#186=PLANE('',#187);
#187=AXIS2_PLACEMENT_3D('',#188,#189,#190);
#188=CARTESIAN_POINT('',(-20.,-4.,14.));
#189=DIRECTION('',(-1.,0.,0.));
#190=DIRECTION('',(0.,1.,0.));
#191=FACE_BOUND('',#192,.T.);
#192=EDGE_LOOP('',(#355,#356,#357,#358,#359));
#193=CYLINDRICAL_SURFACE('',#194,5.);
#194=AXIS2_PLACEMENT_3D('',#195,#196,#197);
#195=CARTESIAN_POINT('',(-15.,-4.,14.));
#196=DIRECTION('',(1.22464679914735E-16,0.,-1.));
#197=DIRECTION('',(3.5527136788005E-16,-1.,4.35081943503005E-32));
#198=FACE_OUTER_BOUND('',#199,.T.);
#199=EDGE_LOOP('',(#360));
#200=FACE_OUTER_BOUND('',#201,.T.);
#201=EDGE_LOOP('',(#361));
#202=CYLINDRICAL_SURFACE('',#203,1.6);
#203=AXIS2_PLACEMENT_3D('',#204,#205,#206);
#204=CARTESIAN_POINT('',(-12.0470021181109,8.38363828919465,14.));
#205=DIRECTION('',(1.22464679914735E-16,0.,-1.));
#206=DIRECTION('',(-1.,0.,-1.22464679914735E-16));
#207=FACE_OUTER_BOUND('',#208,.T.);
#208=EDGE_LOOP('',(#362));
#209=FACE_OUTER_BOUND('',#210,.T.);
#210=EDGE_LOOP('',(#363));
#211=CYLINDRICAL_SURFACE('',#212,1.6);
#212=AXIS2_PLACEMENT_3D('',#213,#214,#215);
#213=CARTESIAN_POINT('',(-15.,-4.,14.));
#214=DIRECTION('',(1.22464679914735E-16,0.,-1.));
#215=DIRECTION('',(-1.,0.,-1.22464679914735E-16));
#216=FACE_OUTER_BOUND('',#217,.T.);
#217=EDGE_LOOP('',(#364));
#218=FACE_OUTER_BOUND('',#219,.T.);
#219=EDGE_LOOP('',(#365));
#220=CYLINDRICAL_SURFACE('',#221,1.6);
#221=AXIS2_PLACEMENT_3D('',#222,#223,#224);
#222=CARTESIAN_POINT('',(-2.51052593825207E-15,12.5,14.));
#223=DIRECTION('',(1.22464679914735E-16,0.,-1.));
#224=DIRECTION('',(-1.,0.,-1.22464679914735E-16));
#225=FACE_BOUND('',#226,.T.);
#226=EDGE_LOOP('',(#366,#367,#368,#369,#370,#371,#372,#373));
#227=FACE_BOUND('',#228,.T.);
#228=EDGE_LOOP('',(#374));
#229=FACE_BOUND('',#230,.T.);
#230=EDGE_LOOP('',(#375));
#231=FACE_BOUND('',#232,.T.);
#232=EDGE_LOOP('',(#376));
#233=FACE_BOUND('',#234,.T.);
#234=EDGE_LOOP('',(#377));
#235=PLANE('',#236);
#236=AXIS2_PLACEMENT_3D('',#237,#238,#239);
#237=CARTESIAN_POINT('',(0.,0.,0.));
#238=DIRECTION('',(1.22464679914735E-16,0.,-1.));
#239=DIRECTION('',(-1.,0.,-1.22464679914735E-16));
#240=FACE_OUTER_BOUND('',#241,.T.);
#241=EDGE_LOOP('',(#378));
#242=FACE_OUTER_BOUND('',#243,.T.);
#243=EDGE_LOOP('',(#379));
#244=CONICAL_SURFACE('',#245,2.225,0.785398163397449);
#245=AXIS2_PLACEMENT_3D('',#246,#247,#248);
#246=CARTESIAN_POINT('',(-12.0470021181109,8.38363828919465,0.624999999999998));
#247=DIRECTION('',(1.22464679914735E-16,0.,-1.));
#248=DIRECTION('',(-1.,0.,-1.22464679914735E-16));
#249=FACE_OUTER_BOUND('',#250,.T.);
#250=EDGE_LOOP('',(#380));
#251=FACE_OUTER_BOUND('',#252,.T.);
#252=EDGE_LOOP('',(#381));
#253=CONICAL_SURFACE('',#254,2.225,0.785398163397448);
#254=AXIS2_PLACEMENT_3D('',#255,#256,#257);
#255=CARTESIAN_POINT('',(-15.,-4.,0.624999999999998));
#256=DIRECTION('',(1.22464679914735E-16,0.,-1.));
#257=DIRECTION('',(-1.,0.,-1.22464679914735E-16));
#258=FACE_OUTER_BOUND('',#259,.T.);
#259=EDGE_LOOP('',(#382));
#260=FACE_OUTER_BOUND('',#261,.T.);
#261=EDGE_LOOP('',(#383));
#262=CONICAL_SURFACE('',#263,2.225,0.785398163397448);
#263=AXIS2_PLACEMENT_3D('',#264,#265,#266);
#264=CARTESIAN_POINT('',(-8.72560844392489E-16,12.5,0.625));
#265=DIRECTION('',(1.22464679914735E-16,0.,-1.));
#266=DIRECTION('',(-1.,0.,-1.22464679914735E-16));
#267=FACE_BOUND('',#268,.T.);
#268=EDGE_LOOP('',(#384,#385,#386,#387));
#269=CYLINDRICAL_SURFACE('',#270,1.5);
#270=AXIS2_PLACEMENT_3D('',#271,#272,#273);
#271=CARTESIAN_POINT('',(1.42801150652315,12.0408887528741,17.));
#272=DIRECTION('',(-1.29095700537809E-16,0.,1.));
#273=DIRECTION('',(-1.48029736616687E-16,-1.,-1.91100025489586E-32));
#274=ORIENTED_EDGE('',*,*,#388,.F.);
#275=ORIENTED_EDGE('',*,*,#389,.F.);
#276=ORIENTED_EDGE('',*,*,#390,.F.);
#277=ORIENTED_EDGE('',*,*,#391,.T.);
#278=ORIENTED_EDGE('',*,*,#392,.T.);
#279=ORIENTED_EDGE('',*,*,#393,.T.);
#280=ORIENTED_EDGE('',*,*,#394,.F.);
#281=ORIENTED_EDGE('',*,*,#395,.F.);
#282=ORIENTED_EDGE('',*,*,#396,.F.);
#283=ORIENTED_EDGE('',*,*,#397,.T.);
#284=ORIENTED_EDGE('',*,*,#398,.T.);
#285=ORIENTED_EDGE('',*,*,#399,.F.);
#286=ORIENTED_EDGE('',*,*,#400,.F.);
#287=ORIENTED_EDGE('',*,*,#401,.F.);
#288=ORIENTED_EDGE('',*,*,#402,.F.);
#289=ORIENTED_EDGE('',*,*,#403,.F.);
#290=ORIENTED_EDGE('',*,*,#404,.F.);
#291=ORIENTED_EDGE('',*,*,#405,.F.);
#292=ORIENTED_EDGE('',*,*,#406,.F.);
#293=ORIENTED_EDGE('',*,*,#407,.F.);
#294=ORIENTED_EDGE('',*,*,#408,.T.);
#295=ORIENTED_EDGE('',*,*,#409,.T.);
#296=ORIENTED_EDGE('',*,*,#410,.T.);
#297=ORIENTED_EDGE('',*,*,#411,.T.);
#298=ORIENTED_EDGE('',*,*,#412,.T.);
#299=ORIENTED_EDGE('',*,*,#413,.T.);
#300=ORIENTED_EDGE('',*,*,#397,.F.);
#301=ORIENTED_EDGE('',*,*,#414,.F.);
#302=ORIENTED_EDGE('',*,*,#415,.F.);
#303=ORIENTED_EDGE('',*,*,#416,.F.);
#304=ORIENTED_EDGE('',*,*,#400,.T.);
#305=ORIENTED_EDGE('',*,*,#417,.T.);
#306=ORIENTED_EDGE('',*,*,#407,.T.);
#307=ORIENTED_EDGE('',*,*,#418,.T.);
#308=ORIENTED_EDGE('',*,*,#391,.F.);
#309=ORIENTED_EDGE('',*,*,#417,.F.);
#310=ORIENTED_EDGE('',*,*,#390,.T.);
#311=ORIENTED_EDGE('',*,*,#419,.T.);
#312=ORIENTED_EDGE('',*,*,#408,.F.);
#313=CARTESIAN_POINT('',(-0.912668670366646,10.5408887528741,1.8));
#314=CARTESIAN_POINT('',(-4.0520336579832,10.5408888061684,1.8));
#315=CARTESIAN_POINT('',(-7.22209021435734,9.11479575786743,1.8));
#316=CARTESIAN_POINT('',(-9.36396103067916,6.86396103067869,1.8));
#317=ORIENTED_EDGE('',*,*,#420,.F.);
#318=ORIENTED_EDGE('',*,*,#409,.F.);
#319=ORIENTED_EDGE('',*,*,#419,.F.);
#320=ORIENTED_EDGE('',*,*,#389,.T.);
#321=ORIENTED_EDGE('',*,*,#392,.F.);
#322=ORIENTED_EDGE('',*,*,#418,.F.);
#323=ORIENTED_EDGE('',*,*,#406,.T.);
#324=ORIENTED_EDGE('',*,*,#421,.T.);
#325=ORIENTED_EDGE('',*,*,#393,.F.);
#326=ORIENTED_EDGE('',*,*,#421,.F.);
#327=ORIENTED_EDGE('',*,*,#405,.T.);
#328=ORIENTED_EDGE('',*,*,#422,.T.);
#329=ORIENTED_EDGE('',*,*,#423,.T.);
#330=ORIENTED_EDGE('',*,*,#424,.F.);
#331=ORIENTED_EDGE('',*,*,#425,.F.);
#332=ORIENTED_EDGE('',*,*,#394,.T.);
#333=ORIENTED_EDGE('',*,*,#395,.T.);
#334=ORIENTED_EDGE('',*,*,#425,.T.);
#335=ORIENTED_EDGE('',*,*,#426,.F.);
#336=ORIENTED_EDGE('',*,*,#427,.F.);
#337=ORIENTED_EDGE('',*,*,#414,.T.);
#338=ORIENTED_EDGE('',*,*,#396,.T.);
#339=ORIENTED_EDGE('',*,*,#427,.T.);
#340=ORIENTED_EDGE('',*,*,#428,.F.);
#341=ORIENTED_EDGE('',*,*,#398,.F.);
#342=ORIENTED_EDGE('',*,*,#429,.F.);
#343=ORIENTED_EDGE('',*,*,#401,.T.);
#344=ORIENTED_EDGE('',*,*,#416,.T.);
#345=ORIENTED_EDGE('',*,*,#430,.F.);
#346=ORIENTED_EDGE('',*,*,#431,.F.);
#347=ORIENTED_EDGE('',*,*,#402,.T.);
#348=ORIENTED_EDGE('',*,*,#431,.T.);
#349=ORIENTED_EDGE('',*,*,#432,.F.);
#350=ORIENTED_EDGE('',*,*,#433,.F.);
#351=ORIENTED_EDGE('',*,*,#403,.T.);
#352=ORIENTED_EDGE('',*,*,#433,.T.);
#353=ORIENTED_EDGE('',*,*,#434,.F.);
#354=ORIENTED_EDGE('',*,*,#435,.F.);
#355=ORIENTED_EDGE('',*,*,#423,.F.);
#356=ORIENTED_EDGE('',*,*,#422,.F.);
#357=ORIENTED_EDGE('',*,*,#404,.T.);
#358=ORIENTED_EDGE('',*,*,#435,.T.);
#359=ORIENTED_EDGE('',*,*,#436,.F.);
#360=ORIENTED_EDGE('',*,*,#412,.F.);
#361=ORIENTED_EDGE('',*,*,#437,.F.);
#362=ORIENTED_EDGE('',*,*,#411,.F.);
#363=ORIENTED_EDGE('',*,*,#438,.F.);
#364=ORIENTED_EDGE('',*,*,#410,.F.);
#365=ORIENTED_EDGE('',*,*,#439,.F.);
#366=ORIENTED_EDGE('',*,*,#436,.T.);
#367=ORIENTED_EDGE('',*,*,#434,.T.);
#368=ORIENTED_EDGE('',*,*,#432,.T.);
#369=ORIENTED_EDGE('',*,*,#430,.T.);
#370=ORIENTED_EDGE('',*,*,#415,.T.);
#371=ORIENTED_EDGE('',*,*,#428,.T.);
#372=ORIENTED_EDGE('',*,*,#426,.T.);
#373=ORIENTED_EDGE('',*,*,#424,.T.);
#374=ORIENTED_EDGE('',*,*,#440,.T.);
#375=ORIENTED_EDGE('',*,*,#441,.T.);
#376=ORIENTED_EDGE('',*,*,#429,.T.);
#377=ORIENTED_EDGE('',*,*,#442,.T.);
#378=ORIENTED_EDGE('',*,*,#437,.T.);
#379=ORIENTED_EDGE('',*,*,#440,.F.);
#380=ORIENTED_EDGE('',*,*,#438,.T.);
#381=ORIENTED_EDGE('',*,*,#442,.F.);
#382=ORIENTED_EDGE('',*,*,#439,.T.);
#383=ORIENTED_EDGE('',*,*,#441,.F.);
#384=ORIENTED_EDGE('',*,*,#413,.F.);
#385=ORIENTED_EDGE('',*,*,#399,.T.);
#386=ORIENTED_EDGE('',*,*,#420,.T.);
#387=ORIENTED_EDGE('',*,*,#388,.T.);
#388=EDGE_CURVE('',#443,#444,#445,.F.);
#389=EDGE_CURVE('',#446,#443,#447,.T.);
#390=EDGE_CURVE('',#448,#446,#449,.F.);
#391=EDGE_CURVE('',#448,#450,#451,.T.);
#392=EDGE_CURVE('',#450,#452,#453,.F.);
#393=EDGE_CURVE('',#452,#454,#455,.T.);
#394=EDGE_CURVE('',#456,#454,#457,.T.);
#395=EDGE_CURVE('',#458,#456,#459,.T.);
#396=EDGE_CURVE('',#460,#458,#461,.T.);
#397=EDGE_CURVE('',#460,#444,#462,.T.);
#398=EDGE_CURVE('',#463,#463,#464,.T.);
#399=EDGE_CURVE('',#465,#466,#467,.F.);
#400=EDGE_CURVE('',#468,#465,#469,.T.);
#401=EDGE_CURVE('',#470,#468,#471,.T.);
#402=EDGE_CURVE('',#472,#470,#473,.T.);
#403=EDGE_CURVE('',#474,#472,#475,.T.);
#404=EDGE_CURVE('',#476,#474,#477,.T.);
#405=EDGE_CURVE('',#478,#476,#479,.T.);
#406=EDGE_CURVE('',#480,#478,#481,.T.);
#407=EDGE_CURVE('',#482,#480,#483,.T.);
#408=EDGE_CURVE('',#482,#484,#485,.F.);
#409=EDGE_CURVE('',#484,#466,#486,.T.);
#410=EDGE_CURVE('',#487,#487,#488,.T.);
#411=EDGE_CURVE('',#489,#489,#490,.T.);
#412=EDGE_CURVE('',#491,#491,#492,.T.);
#413=EDGE_CURVE('',#465,#444,#493,.T.);
#414=EDGE_CURVE('',#494,#460,#495,.F.);
#415=EDGE_CURVE('',#496,#494,#497,.T.);
#416=EDGE_CURVE('',#468,#496,#498,.T.);
#417=EDGE_CURVE('',#448,#482,#499,.F.);
#418=EDGE_CURVE('',#480,#450,#500,.T.);
#419=EDGE_CURVE('',#446,#484,#501,.T.);
#420=EDGE_CURVE('',#466,#443,#502,.T.);
#421=EDGE_CURVE('',#478,#452,#503,.T.);
#422=EDGE_CURVE('',#476,#454,#504,.T.);
#423=EDGE_CURVE('',#454,#505,#506,.T.);
#424=EDGE_CURVE('',#507,#505,#508,.T.);
#425=EDGE_CURVE('',#456,#507,#509,.T.);
#426=EDGE_CURVE('',#510,#507,#511,.T.);
#427=EDGE_CURVE('',#458,#510,#512,.T.);
#428=EDGE_CURVE('',#494,#510,#513,.T.);
#429=EDGE_CURVE('',#514,#514,#515,.F.);
#430=EDGE_CURVE('',#516,#496,#517,.T.);
#431=EDGE_CURVE('',#470,#516,#518,.T.);
#432=EDGE_CURVE('',#519,#516,#520,.T.);
#433=EDGE_CURVE('',#472,#519,#521,.T.);
#434=EDGE_CURVE('',#522,#519,#523,.T.);
#435=EDGE_CURVE('',#474,#522,#524,.T.);
#436=EDGE_CURVE('',#505,#522,#525,.T.);
#437=EDGE_CURVE('',#526,#526,#527,.F.);
#438=EDGE_CURVE('',#528,#528,#529,.F.);
#439=EDGE_CURVE('',#530,#530,#531,.F.);
#440=EDGE_CURVE('',#532,#532,#533,.F.);
#441=EDGE_CURVE('',#534,#534,#535,.F.);
#442=EDGE_CURVE('',#536,#536,#537,.F.);
#443=VERTEX_POINT('',#538);
#444=VERTEX_POINT('',#539);
#445=CIRCLE('',#540,1.5);
#446=VERTEX_POINT('',#544);
#447=LINE('',#545,#546);
#448=VERTEX_POINT('',#548);
#449=B_SPLINE_CURVE_WITH_KNOTS('',3,
(#549,#550,#551,#552),
.UNSPECIFIED.,.F.,.F.,
(4,4),
(0.,1.),
.UNSPECIFIED.);
#450=VERTEX_POINT('',#553);
#451=CIRCLE('',#554,9.);
#452=VERTEX_POINT('',#558);
#453=LINE('',#559,#560);
#454=VERTEX_POINT('',#562);
#455=CIRCLE('',#563,3.);
#456=VERTEX_POINT('',#567);
#457=LINE('',#568,#569);
#458=VERTEX_POINT('',#571);
#459=CIRCLE('',#572,9.);
#460=VERTEX_POINT('',#576);
#461=LINE('',#577,#578);
#462=CIRCLE('',#580,3.);
#463=VERTEX_POINT('',#584);
#464=CIRCLE('',#585,4.15);
#465=VERTEX_POINT('',#589);
#466=VERTEX_POINT('',#590);
#467=CIRCLE('',#591,1.5);
#468=VERTEX_POINT('',#595);
#469=CIRCLE('',#596,3.);
#470=VERTEX_POINT('',#600);
#471=LINE('',#601,#602);
#472=VERTEX_POINT('',#604);
#473=CIRCLE('',#605,16.033021797562);
#474=VERTEX_POINT('',#609);
#475=LINE('',#610,#611);
#476=VERTEX_POINT('',#613);
#477=CIRCLE('',#614,5.);
#478=VERTEX_POINT('',#618);
#479=CIRCLE('',#619,3.);
#480=VERTEX_POINT('',#623);
#481=LINE('',#624,#625);
#482=VERTEX_POINT('',#627);
#483=CIRCLE('',#628,9.);
#484=VERTEX_POINT('',#632);
#485=B_SPLINE_CURVE_WITH_KNOTS('',3,
(#633,#634,#635,#636),
.UNSPECIFIED.,.F.,.F.,
(4,4),
(0.,1.),
.UNSPECIFIED.);
#486=LINE('',#637,#638);
#487=VERTEX_POINT('',#640);
#488=CIRCLE('',#641,1.6);
#489=VERTEX_POINT('',#645);
#490=CIRCLE('',#646,1.6);
#491=VERTEX_POINT('',#650);
#492=CIRCLE('',#651,1.6);
#493=LINE('',#655,#656);
#494=VERTEX_POINT('',#658);
#495=LINE('',#659,#660);
#496=VERTEX_POINT('',#662);
#497=CIRCLE('',#663,3.);
#498=LINE('',#667,#668);
#499=LINE('',#670,#671);
#500=LINE('',#673,#674);
#501=LINE('',#676,#677);
#502=LINE('',#679,#680);
#503=LINE('',#682,#683);
#504=LINE('',#685,#686);
#505=VERTEX_POINT('',#688);
#506=LINE('',#689,#690);
#507=VERTEX_POINT('',#692);
#508=LINE('',#693,#694);
#509=LINE('',#696,#697);
#510=VERTEX_POINT('',#699);
#511=CIRCLE('',#700,9.);
#512=LINE('',#704,#705);
#513=LINE('',#707,#708);
#514=VERTEX_POINT('',#710);
#515=CIRCLE('',#711,4.15);
#516=VERTEX_POINT('',#715);
#517=LINE('',#716,#717);
#518=LINE('',#719,#720);
#519=VERTEX_POINT('',#722);
#520=CIRCLE('',#723,16.033021797562);
#521=LINE('',#727,#728);
#522=VERTEX_POINT('',#730);
#523=LINE('',#731,#732);
#524=LINE('',#734,#735);
#525=CIRCLE('',#737,5.);
#526=VERTEX_POINT('',#741);
#527=CIRCLE('',#742,1.6);
#528=VERTEX_POINT('',#746);
#529=CIRCLE('',#747,1.6);
#530=VERTEX_POINT('',#751);
#531=CIRCLE('',#752,1.6);
#532=VERTEX_POINT('',#756);
#533=CIRCLE('',#757,2.85);
#534=VERTEX_POINT('',#761);
#535=CIRCLE('',#762,2.85);
#536=VERTEX_POINT('',#766);
#537=CIRCLE('',#767,2.85);
#538=CARTESIAN_POINT('',(1.42801150652315,10.5408887528741,2.8));
#539=CARTESIAN_POINT('',(2.8560230130463,11.5817775057482,2.8));
#540=AXIS2_PLACEMENT_3D('',#541,#542,#543);
#541=CARTESIAN_POINT('',(1.42801150652315,12.0408887528741,2.8));
#542=DIRECTION('',(1.22464679914735E-16,0.,-1.));
#543=DIRECTION('',(0.952007671015434,-0.306074164750586,1.16587314707278E-16));
#544=CARTESIAN_POINT('',(-0.912668670366646,10.5408887528741,2.8));
#545=CARTESIAN_POINT('',(-0.912668670366646,10.5408887528741,2.8));
#546=VECTOR('',#547,1.);
#547=DIRECTION('',(1.,0.,0.));
#548=CARTESIAN_POINT('',(-9.36396103067916,6.86396103067869,2.8));
#549=CARTESIAN_POINT('',(-0.912668670366647,10.5408887528741,2.8));
#550=CARTESIAN_POINT('',(-4.0520336579832,10.5408888061684,2.8));
#551=CARTESIAN_POINT('',(-7.22209021435734,9.11479575786743,2.8));
#552=CARTESIAN_POINT('',(-9.36396103067916,6.86396103067869,2.8));
#553=CARTESIAN_POINT('',(-12.,0.500000000000001,2.8));
#554=AXIS2_PLACEMENT_3D('',#555,#556,#557);
#555=CARTESIAN_POINT('',(-3.,0.500000000000001,2.8));
#556=DIRECTION('',(-1.22464679914735E-16,0.,1.));
#557=DIRECTION('',(-0.707106781186574,0.707106781186521,-8.65956056235525E-17));
#558=CARTESIAN_POINT('',(-12.,-6.,2.8));
#559=CARTESIAN_POINT('',(-12.,-6.,2.8));
#560=VECTOR('',#561,1.);
#561=DIRECTION('',(0.,1.,0.));
#562=CARTESIAN_POINT('',(-15.,-9.,2.8));
#563=AXIS2_PLACEMENT_3D('',#564,#565,#566);
#564=CARTESIAN_POINT('',(-15.,-6.,2.8));
#565=DIRECTION('',(1.22464679914735E-16,0.,-1.));
#566=DIRECTION('',(1.,0.,1.22464679914735E-16));
#567=CARTESIAN_POINT('',(5.25959835838672E-16,-9.,2.8));
#568=CARTESIAN_POINT('',(-2.58452403410323E-16,-9.,2.8));
#569=VECTOR('',#570,1.);
#570=DIRECTION('',(-1.,0.,-1.1842378929335E-16));
#571=CARTESIAN_POINT('',(7.89541639180705,4.31999999999872,2.8));
#572=AXIS2_PLACEMENT_3D('',#573,#574,#575);
#573=CARTESIAN_POINT('',(-3.42901103761259E-16,0.,2.8));
#574=DIRECTION('',(1.22464679914735E-16,0.,-1.));
#575=DIRECTION('',(0.877268487978537,0.479999999999845,1.07434404579575E-16));
#576=CARTESIAN_POINT('',(2.63180546393563,13.9399999999997,2.8));
#577=CARTESIAN_POINT('',(2.63180546393573,13.9399999999998,2.8));
#578=VECTOR('',#579,1.);
#579=DIRECTION('',(0.480000000000021,-0.877268487978441,4.04974500678447E-17));
#580=AXIS2_PLACEMENT_3D('',#581,#582,#583);
#581=CARTESIAN_POINT('',(-1.13892152320704E-15,12.5,2.8));
#582=DIRECTION('',(1.22464679914735E-16,0.,-1.));
#583=DIRECTION('',(0.87726848797851,0.479999999999895,1.07434404579572E-16));
#584=CARTESIAN_POINT('',(-4.15,-5.08228421646152E-16,2.8));
#585=AXIS2_PLACEMENT_3D('',#586,#587,#588);
#586=CARTESIAN_POINT('',(-3.42901103761259E-16,0.,2.8));
#587=DIRECTION('',(1.22464679914735E-16,0.,-1.));
#588=DIRECTION('',(-1.,0.,-1.22464679914735E-16));
#589=CARTESIAN_POINT('',(2.8560230130463,11.5817775057482,14.));
#590=CARTESIAN_POINT('',(1.42801150652315,10.5408887528741,14.));
#591=AXIS2_PLACEMENT_3D('',#592,#593,#594);
#592=CARTESIAN_POINT('',(1.42801150652315,12.0408887528741,14.));
#593=DIRECTION('',(-1.22464679914735E-16,0.,1.));
#594=DIRECTION('',(1.48029736616687E-16,-1.,1.81284143126252E-32));
#595=CARTESIAN_POINT('',(-2.60237444541873E-15,15.5,14.));
#596=AXIS2_PLACEMENT_3D('',#597,#598,#599);
#597=CARTESIAN_POINT('',(-2.51052593825207E-15,12.5,14.));
#598=DIRECTION('',(1.22464679914735E-16,0.,-1.));
#599=DIRECTION('',(-6.12323399573677E-17,1.,-7.49879891330929E-33));
#600=CARTESIAN_POINT('',(-3.96697820243796,15.5,14.));
#601=CARTESIAN_POINT('',(-3.96697820243796,15.5,14.));
#602=VECTOR('',#603,1.);
#603=DIRECTION('',(1.,0.,0.));
#604=CARTESIAN_POINT('',(-20.,-0.533021797562046,14.));
#605=AXIS2_PLACEMENT_3D('',#606,#607,#608);
#606=CARTESIAN_POINT('',(-3.96697820243796,-0.533021797562046,14.));
#607=DIRECTION('',(1.22464679914735E-16,0.,-1.));
#608=DIRECTION('',(-1.,0.,-1.22464679914735E-16));
#609=CARTESIAN_POINT('',(-20.,-4.,14.));
#610=CARTESIAN_POINT('',(-20.,-4.,14.));
#611=VECTOR('',#612,1.);
#612=DIRECTION('',(0.,1.,0.));
#613=CARTESIAN_POINT('',(-15.,-9.,14.));
#614=AXIS2_PLACEMENT_3D('',#615,#616,#617);
#615=CARTESIAN_POINT('',(-15.,-4.,14.));
#616=DIRECTION('',(1.22464679914735E-16,0.,-1.));
#617=DIRECTION('',(3.5527136788005E-16,-1.,4.35081943503005E-32));
#618=CARTESIAN_POINT('',(-12.,-6.,14.));
#619=AXIS2_PLACEMENT_3D('',#620,#621,#622);
#620=CARTESIAN_POINT('',(-15.,-6.,14.));
#621=DIRECTION('',(1.22464679914735E-16,0.,-1.));
#622=DIRECTION('',(1.,0.,1.22464679914735E-16));
#623=CARTESIAN_POINT('',(-12.,0.500000000000001,14.));
#624=CARTESIAN_POINT('',(-12.,0.500000000000001,14.));
#625=VECTOR('',#626,1.);
#626=DIRECTION('',(0.,-1.,0.));
#627=CARTESIAN_POINT('',(-9.36396103067917,6.86396103067869,14.));
#628=AXIS2_PLACEMENT_3D('',#629,#630,#631);
#629=CARTESIAN_POINT('',(-3.,0.500000000000001,14.));
#630=DIRECTION('',(-1.22464679914735E-16,0.,1.));
#631=DIRECTION('',(-0.707106781186574,0.707106781186521,-8.65956056235525E-17));
#632=CARTESIAN_POINT('',(-0.912668670366648,10.5408887528741,14.));
#633=CARTESIAN_POINT('',(-0.912668670366648,10.5408887528741,14.));
#634=CARTESIAN_POINT('',(-4.0520336579832,10.5408888061684,14.));
#635=CARTESIAN_POINT('',(-7.22209021435734,9.11479575786743,14.));
#636=CARTESIAN_POINT('',(-9.36396103067916,6.86396103067869,14.));
#637=CARTESIAN_POINT('',(-0.912668670366648,10.5408887528741,14.));
#638=VECTOR('',#639,1.);
#639=DIRECTION('',(1.,0.,0.));
#640=CARTESIAN_POINT('',(-1.6,12.5,14.));
#641=AXIS2_PLACEMENT_3D('',#642,#643,#644);
#642=CARTESIAN_POINT('',(-2.51052593825207E-15,12.5,14.));
#643=DIRECTION('',(1.22464679914735E-16,0.,-1.));
#644=DIRECTION('',(-1.,0.,-1.22464679914735E-16));
#645=CARTESIAN_POINT('',(-16.6,-4.,14.));
#646=AXIS2_PLACEMENT_3D('',#647,#648,#649);
#647=CARTESIAN_POINT('',(-15.,-4.,14.));
#648=DIRECTION('',(1.22464679914735E-16,0.,-1.));
#649=DIRECTION('',(-1.,0.,-1.22464679914735E-16));
#650=CARTESIAN_POINT('',(-13.6470021181109,8.38363828919465,14.));
#651=AXIS2_PLACEMENT_3D('',#652,#653,#654);
#652=CARTESIAN_POINT('',(-12.0470021181109,8.38363828919465,14.));
#653=DIRECTION('',(1.22464679914735E-16,0.,-1.));
#654=DIRECTION('',(-1.,0.,-1.22464679914735E-16));
#655=CARTESIAN_POINT('',(2.8560230130463,11.5817775057482,14.));
#656=VECTOR('',#657,1.);
#657=DIRECTION('',(1.18952466924124E-16,0.,-1.));
#658=CARTESIAN_POINT('',(2.63180546393563,13.9399999999997,1.8144927288792E-16));
#659=CARTESIAN_POINT('',(2.63180546393563,13.9399999999997,2.8));
#660=VECTOR('',#661,1.);
#661=DIRECTION('',(0.,0.,-1.));
#662=CARTESIAN_POINT('',(-8.87868926612438E-16,15.5,-1.08732583903832E-31));
#663=AXIS2_PLACEMENT_3D('',#664,#665,#666);
#664=CARTESIAN_POINT('',(-7.9602041944578E-16,12.5,-9.74843858730207E-32));
#665=DIRECTION('',(1.22464679914735E-16,0.,-1.));
#666=DIRECTION('',(-6.12323399573677E-17,1.,-7.49879891330929E-33));
#667=CARTESIAN_POINT('',(-2.67937910861228E-15,15.5,14.));
#668=VECTOR('',#669,1.);
#669=DIRECTION('',(1.24673655650234E-16,0.,-1.));
#670=CARTESIAN_POINT('',(-9.36396103067917,6.86396103067869,14.));
#671=VECTOR('',#672,1.);
#672=DIRECTION('',(1.58603289232165E-16,0.,-1.));
#673=CARTESIAN_POINT('',(-12.,0.500000000000001,14.));
#674=VECTOR('',#675,1.);
#675=DIRECTION('',(1.58603289232165E-16,0.,-1.));
#676=CARTESIAN_POINT('',(-0.912668670366646,10.5408887528741,2.8));
#677=VECTOR('',#678,1.);
#678=DIRECTION('',(-1.09039761347114E-16,0.,1.));
#679=CARTESIAN_POINT('',(1.42801150652315,10.5408887528741,14.));
#680=VECTOR('',#681,1.);
#681=DIRECTION('',(1.18952466924124E-16,0.,-1.));
#682=CARTESIAN_POINT('',(-12.,-6.,14.));
#683=VECTOR('',#684,1.);
#684=DIRECTION('',(1.58603289232165E-16,0.,-1.));
#685=CARTESIAN_POINT('',(-15.,-9.,14.));
#686=VECTOR('',#687,1.);
#687=DIRECTION('',(1.58603289232165E-16,0.,-1.));
#688=CARTESIAN_POINT('',(-15.,-9.,-1.79656129250718E-15));
#689=CARTESIAN_POINT('',(-15.,-9.,2.8));
#690=VECTOR('',#691,1.);
#691=DIRECTION('',(6.34413156928661E-16,0.,-1.));
#692=CARTESIAN_POINT('',(8.68860939599931E-16,-9.,1.06404776858522E-31));
#693=CARTESIAN_POINT('',(8.44487003509359E-17,-9.,5.17099152884638E-33));
#694=VECTOR('',#695,1.);
#695=DIRECTION('',(-1.,0.,-1.20444234604043E-16));
#696=CARTESIAN_POINT('',(3.65457061189303E-16,-9.,2.8));
#697=VECTOR('',#698,1.);
#698=DIRECTION('',(1.22464679914735E-16,0.,-1.));
#699=CARTESIAN_POINT('',(7.89541639180705,4.31999999999872,9.66909641216205E-16));
#700=AXIS2_PLACEMENT_3D('',#701,#702,#703);
#701=CARTESIAN_POINT('',(0.,0.,0.));
#702=DIRECTION('',(1.22464679914735E-16,0.,-1.));
#703=DIRECTION('',(0.877268487978537,0.479999999999845,1.07434404579575E-16));
#704=CARTESIAN_POINT('',(7.89541639180705,4.31999999999872,2.8));
#705=VECTOR('',#706,1.);
#706=DIRECTION('',(0.,0.,-1.));
#707=CARTESIAN_POINT('',(2.63180546393573,13.9399999999998,3.83196211794401E-16));
#708=VECTOR('',#709,1.);
#709=DIRECTION('',(0.480000000000021,-0.877268487978441,4.96402482134601E-17));
#710=CARTESIAN_POINT('',(-4.15,-5.08228421646152E-16,-5.08228421646152E-16));
#711=AXIS2_PLACEMENT_3D('',#712,#713,#714);
#712=CARTESIAN_POINT('',(0.,0.,0.));
#713=DIRECTION('',(1.22464679914735E-16,0.,-1.));
#714=DIRECTION('',(-1.,0.,-1.22464679914735E-16));
#715=CARTESIAN_POINT('',(-3.96697820243796,15.5,-4.85814715790296E-16));
#716=CARTESIAN_POINT('',(-3.96697820243795,15.5,-2.42907357895148E-16));
#717=VECTOR('',#718,1.);
#718=DIRECTION('',(1.,0.,6.12323399573677E-17));
#719=CARTESIAN_POINT('',(-3.96697820243796,15.5,14.));
#720=VECTOR('',#721,1.);
#721=DIRECTION('',(1.26882631385732E-16,0.,-1.));
#722=CARTESIAN_POINT('',(-20.,-0.533021797562046,-2.44929359829471E-15));
#723=AXIS2_PLACEMENT_3D('',#724,#725,#726);
#724=CARTESIAN_POINT('',(-3.96697820243795,-0.533021797562046,-4.85814715790296E-16));
#725=DIRECTION('',(1.22464679914735E-16,0.,-1.));
#726=DIRECTION('',(-1.,0.,-1.22464679914735E-16));
#727=CARTESIAN_POINT('',(-20.,-0.533021797562046,14.));
#728=VECTOR('',#729,1.);
#729=DIRECTION('',(0.,0.,-1.));
#730=CARTESIAN_POINT('',(-20.,-4.,-2.44929359829471E-15));
#731=CARTESIAN_POINT('',(-20.,-4.,-2.11282521884748E-15));
#732=VECTOR('',#733,1.);
#733=DIRECTION('',(0.,1.,0.));
#734=CARTESIAN_POINT('',(-20.,-4.,14.));
#735=VECTOR('',#736,1.);
#736=DIRECTION('',(0.,0.,-1.));
#737=AXIS2_PLACEMENT_3D('',#738,#739,#740);
#738=CARTESIAN_POINT('',(-15.,-4.,-1.83697019872103E-15));
#739=DIRECTION('',(1.22464679914735E-16,0.,-1.));
#740=DIRECTION('',(3.5527136788005E-16,-1.,4.35081943503005E-32));
#741=CARTESIAN_POINT('',(-13.6470021181109,8.38363828919465,1.25));
#742=AXIS2_PLACEMENT_3D('',#743,#744,#745);
#743=CARTESIAN_POINT('',(-12.0470021181109,8.38363828919465,1.25));
#744=DIRECTION('',(1.22464679914735E-16,0.,-1.));
#745=DIRECTION('',(-1.,0.,-1.22464679914735E-16));
#746=CARTESIAN_POINT('',(-16.6,-4.,1.25));
#747=AXIS2_PLACEMENT_3D('',#748,#749,#750);
#748=CARTESIAN_POINT('',(-15.,-4.,1.25));
#749=DIRECTION('',(1.22464679914735E-16,0.,-1.));
#750=DIRECTION('',(-1.,0.,-1.22464679914735E-16));
#751=CARTESIAN_POINT('',(-1.6,12.5,1.25));
#752=AXIS2_PLACEMENT_3D('',#753,#754,#755);
#753=CARTESIAN_POINT('',(-9.49101269339199E-16,12.5,1.25));
#754=DIRECTION('',(1.22464679914735E-16,0.,-1.));
#755=DIRECTION('',(-1.,0.,-1.22464679914735E-16));
#756=CARTESIAN_POINT('',(-14.8970021181109,8.38363828919465,-2.02503965013269E-15));
#757=AXIS2_PLACEMENT_3D('',#758,#759,#760);
#758=CARTESIAN_POINT('',(-12.0470021181109,8.38363828919465,-1.47533225832659E-15));
#759=DIRECTION('',(1.22464679914735E-16,0.,-1.));
#760=DIRECTION('',(-1.,0.,-1.22464679914735E-16));
#761=CARTESIAN_POINT('',(-2.85,12.5,-3.49024337756996E-16));
#762=AXIS2_PLACEMENT_3D('',#763,#764,#765);
#763=CARTESIAN_POINT('',(-7.9602041944578E-16,12.5,-9.74843858730208E-32));
#764=DIRECTION('',(1.22464679914735E-16,0.,-1.));
#765=DIRECTION('',(-1.,0.,-1.22464679914735E-16));
#766=CARTESIAN_POINT('',(-17.85,-4.,-2.14558563026417E-15));
#767=AXIS2_PLACEMENT_3D('',#768,#769,#770);
#768=CARTESIAN_POINT('',(-15.,-4.,-1.83697019872103E-15));
#769=DIRECTION('',(1.22464679914735E-16,0.,-1.));
#770=DIRECTION('',(-1.,0.,-1.22464679914735E-16));
ENDSEC;
END-ISO-10303-21;
