ISO-10303-21;
HEADER;
FILE_DESCRIPTION(('STEP AP203'),
    '1');
FILE_NAME('ƒержатель–ычага',
    '',
    ('UNSPECIFIED'),
    ('UNSPECIFIED'),
    'C3D Converter',
    'C3D Toolkit',
    '');
FILE_SCHEMA(('CONFIG_CONTROL_DESIGN'));
ENDSEC;

DATA;
#1=PRODUCT_DEFINITION('','UNSPECIFIED',#28,#31);
#2=SHAPE_DEFINITION_REPRESENTATION(#26,#3);
#3=SHAPE_REPRESENTATION('NONE',(#4),#8);
#4=AXIS2_PLACEMENT_3D('',#5,#6,#7);
#5=CARTESIAN_POINT('',(0.,0.,0.));
#6=DIRECTION('',(0.,0.,1.));
#7=DIRECTION('',(1.,0.,0.));
#8=(GEOMETRIC_REPRESENTATION_CONTEXT(3)GLOBAL_UNCERTAINTY_ASSIGNED_CONTEXT((#10))
GLOBAL_UNIT_ASSIGNED_CONTEXT((#9,#11,#12))REPRESENTATION_CONTEXT('NONE','NONE'));
#9=(LENGTH_UNIT()NAMED_UNIT(*)SI_UNIT(.MILLI.,.METRE.));
#10=UNCERTAINTY_MEASURE_WITH_UNIT(LENGTH_MEASURE(1.E-5),#9,'NONE','NONE');
#11=(NAMED_UNIT(*)PLANE_ANGLE_UNIT()SI_UNIT($,.RADIAN.));
#12=(NAMED_UNIT(*)SI_UNIT($,.STERADIAN.)SOLID_ANGLE_UNIT());
#13=MANIFOLD_SOLID_BREP('',#14);
#14=CLOSED_SHELL('',(#53,#54,#55,#56,#57,#58,#59,#60,#61,#62,#63,#64,#65,#66,#67,
#68,#69,#70,#71,#72,#73,#74,#75,#76,#77,#78,#79,#80));
#15=COLOUR_RGB('',0.6,0.,0.);
#16=FILL_AREA_STYLE_COLOUR('',#15);
#17=FILL_AREA_STYLE($,(#16));
#18=SURFACE_STYLE_FILL_AREA(#17);
#19=SURFACE_SIDE_STYLE('',(#18));
#20=SURFACE_STYLE_USAGE(.BOTH.,#19);
#21=PRESENTATION_STYLE_ASSIGNMENT((#20));
#22=MECHANICAL_DESIGN_GEOMETRIC_PRESENTATION_REPRESENTATION('NONE',(#23),#8);
#23=STYLED_ITEM('',(#21),#13);
#24=ADVANCED_BREP_SHAPE_REPRESENTATION('NONE',(#13),#8);
#25=SHAPE_REPRESENTATION_RELATIONSHIP('','',#3,#24);
#26=PRODUCT_DEFINITION_SHAPE('NONE','NONE',#1);
#27=MECHANICAL_CONTEXT('NONE',#32,'mechanical');
#28=PRODUCT_DEFINITION_FORMATION_WITH_SPECIFIED_SOURCE('ANY','UNSPECIFIED',#29,.NOT_KNOWN.);
#29=PRODUCT('-03','\X2\0414043504400436043004420435043B044C0420044B0447043004330430\X0\_\X2\043304300439043A0430\X0\',
'NONE',(#27));
#30=PRODUCT_RELATED_PRODUCT_CATEGORY('detail','',(#29));
#31=DESIGN_CONTEXT('detailed design',#32,'design');
#32=APPLICATION_CONTEXT('configuration controlled 3d designs of mechanical parts and assemblies');
#33=APPLICATION_PROTOCOL_DEFINITION('international standard','config_control_design',
1994,#32);
#34=CC_DESIGN_DATE_AND_TIME_ASSIGNMENT(#35,#39,(#1));
#35=DATE_AND_TIME(#36,#37);
#36=CALENDAR_DATE(0,1,1);
#37=LOCAL_TIME(0,0,0.,#38);
#38=COORDINATED_UNIVERSAL_TIME_OFFSET(0,0,.AHEAD.);
#39=DATE_TIME_ROLE('creation_date');
#40=CC_DESIGN_APPROVAL(#41,(#1));
#41=APPROVAL(#42,'UNSPECIFIED');
#42=APPROVAL_STATUS('not_yet_approved');
#43=APPROVAL_DATE_TIME(#44,#41);
#44=DATE_AND_TIME(#45,#46);
#45=CALENDAR_DATE(0,1,1);
#46=LOCAL_TIME(0,0,0.,#47);
#47=COORDINATED_UNIVERSAL_TIME_OFFSET(0,0,.AHEAD.);
#48=PERSON('UNSPECIFIED','UNSPECIFIED','UNSPECIFIED',('UNSPECIFIED'),('UNSPECIFIED'),
('UNSPECIFIED'));
#49=ORGANIZATION('UNSPECIFIED','UNSPECIFIED','UNSPECIFIED');
#50=PERSON_AND_ORGANIZATION(#48,#49);
#51=PERSON_AND_ORGANIZATION_ROLE('creator');
#52=CC_DESIGN_PERSON_AND_ORGANIZATION_ASSIGNMENT(#50,#51,(#28,#1));
#53=ADVANCED_FACE('',(#81,#83),#85,.F.);
#54=ADVANCED_FACE('',(#90,#92,#94),#96,.F.);
#55=ADVANCED_FACE('',(#101),#103,.T.);
#56=ADVANCED_FACE('',(#108),#110,.F.);
#57=ADVANCED_FACE('',(#115),#117,.T.);
#58=ADVANCED_FACE('',(#122),#124,.F.);
#59=ADVANCED_FACE('',(#129),#131,.F.);
#60=ADVANCED_FACE('',(#136),#138,.F.);
#61=ADVANCED_FACE('',(#143),#145,.T.);
#62=ADVANCED_FACE('',(#150),#152,.T.);
#63=ADVANCED_FACE('',(#157),#159,.T.);
#64=ADVANCED_FACE('',(#164),#166,.T.);
#65=ADVANCED_FACE('',(#171),#173,.T.);
#66=ADVANCED_FACE('',(#178,#180),#182,.F.);
#67=ADVANCED_FACE('',(#187,#189),#191,.F.);
#68=ADVANCED_FACE('',(#196,#198,#200,#202),#204,.F.);
#69=ADVANCED_FACE('',(#209,#211,#213,#215,#217),#219,.T.);
#70=ADVANCED_FACE('',(#224),#226,.T.);
#71=ADVANCED_FACE('',(#231),#233,.T.);
#72=ADVANCED_FACE('',(#238),#240,.T.);
#73=ADVANCED_FACE('',(#245),#247,.T.);
#74=ADVANCED_FACE('',(#252,#254),#256,.F.);
#75=ADVANCED_FACE('',(#261,#263),#265,.F.);
#76=ADVANCED_FACE('',(#270,#272),#274,.F.);
#77=ADVANCED_FACE('',(#279,#281),#283,.F.);
#78=ADVANCED_FACE('',(#288),#290,.T.);
#79=ADVANCED_FACE('',(#295),#297,.T.);
#80=ADVANCED_FACE('',(#302),#304,.T.);
#81=FACE_BOUND('',#82,.T.);
#82=EDGE_LOOP('',(#309,#310,#311,#312,#313,#314,#315,#316,#317,#318,#319,#320,#321));
#83=FACE_BOUND('',#84,.T.);
#84=EDGE_LOOP('',(#322));
#85=PLANE('',#86);
#86=AXIS2_PLACEMENT_3D('',#87,#88,#89);
#87=CARTESIAN_POINT('',(-3.42901103761259E-16,0.,2.8));
#88=DIRECTION('',(1.22464679914735E-16,0.,-1.));
#89=DIRECTION('',(-1.,0.,-1.22464679914735E-16));
#90=FACE_OUTER_BOUND('',#91,.T.);
#91=EDGE_LOOP('',(#323));
#92=FACE_OUTER_BOUND('',#93,.T.);
#93=EDGE_LOOP('',(#324));
#94=FACE_BOUND('',#95,.T.);
#95=EDGE_LOOP('',(#325,#326,#327,#328));
#96=CYLINDRICAL_SURFACE('',#97,1.6);
#97=AXIS2_PLACEMENT_3D('',#98,#99,#100);
#98=CARTESIAN_POINT('',(-2.51052593825207E-15,12.5,14.));
#99=DIRECTION('',(1.22464679914735E-16,0.,-1.));
#100=DIRECTION('',(-1.,0.,-1.22464679914735E-16));
#101=FACE_BOUND('',#102,.T.);
#102=EDGE_LOOP('',(#329,#330,#331,#332,#333,#334,#335,#336));
#103=CYLINDRICAL_SURFACE('',#104,3.);
#104=AXIS2_PLACEMENT_3D('',#105,#106,#107);
#105=CARTESIAN_POINT('',(-2.51052593825207E-15,12.5,14.));
#106=DIRECTION('',(1.22464679914735E-16,0.,-1.));
#107=DIRECTION('',(-6.12323399573677E-17,1.,-7.49879891330929E-33));
#108=FACE_BOUND('',#109,.T.);
#109=EDGE_LOOP('',(#337,#338,#339,#340,#341,#342));
#110=CYLINDRICAL_SURFACE('',#111,9.);
#111=AXIS2_PLACEMENT_3D('',#112,#113,#114);
#112=CARTESIAN_POINT('',(-3.,0.500000000000001,14.));
#113=DIRECTION('',(-1.22464679914735E-16,0.,1.));
#114=DIRECTION('',(-4.93432455388958E-17,1.,-6.04280477087507E-33));
#115=FACE_BOUND('',#116,.T.);
#116=EDGE_LOOP('',(#343,#344,#345,#346));
#117=PLANE('',#118);
#118=AXIS2_PLACEMENT_3D('',#119,#120,#121);
#119=CARTESIAN_POINT('',(-2.62665440280302E-15,9.5,14.));
#120=DIRECTION('',(0.,-1.,0.));
#121=DIRECTION('',(-1.,0.,0.));
#122=FACE_BOUND('',#123,.T.);
#123=EDGE_LOOP('',(#347,#348,#349,#350,#351,#352,#353,#354,#355));
#124=PLANE('',#125);
#125=AXIS2_PLACEMENT_3D('',#126,#127,#128);
#126=CARTESIAN_POINT('',(0.,0.,12.));
#127=DIRECTION('',(0.,0.,1.));
#128=DIRECTION('',(1.85240692308003E-16,1.,0.));
#129=FACE_BOUND('',#130,.T.);
#130=EDGE_LOOP('',(#356,#357,#358,#359));
#131=CYLINDRICAL_SURFACE('',#132,11.9);
#132=AXIS2_PLACEMENT_3D('',#133,#134,#135);
#133=CARTESIAN_POINT('',(0.,0.,12.));
#134=DIRECTION('',(0.,0.,-1.));
#135=DIRECTION('',(1.85240692308003E-16,1.,0.));
#136=FACE_BOUND('',#137,.T.);
#137=EDGE_LOOP('',(#360,#361,#362,#363));
#138=CYLINDRICAL_SURFACE('',#139,11.9);
#139=AXIS2_PLACEMENT_3D('',#140,#141,#142);
#140=CARTESIAN_POINT('',(0.,0.,12.));
#141=DIRECTION('',(0.,0.,-1.));
#142=DIRECTION('',(1.85240692308003E-16,1.,0.));
#143=FACE_BOUND('',#144,.T.);
#144=EDGE_LOOP('',(#364,#365,#366,#367));
#145=PLANE('',#146);
#146=AXIS2_PLACEMENT_3D('',#147,#148,#149);
#147=CARTESIAN_POINT('',(-12.,0.500000000000001,14.));
#148=DIRECTION('',(1.,0.,1.26882631385732E-16));
#149=DIRECTION('',(0.,-1.,0.));
#150=FACE_BOUND('',#151,.T.);
#151=EDGE_LOOP('',(#368,#369,#370,#371));
#152=CYLINDRICAL_SURFACE('',#153,3.);
#153=AXIS2_PLACEMENT_3D('',#154,#155,#156);
#154=CARTESIAN_POINT('',(-15.,-6.,14.));
#155=DIRECTION('',(1.22464679914735E-16,0.,-1.));
#156=DIRECTION('',(1.,0.,1.22464679914735E-16));
#157=FACE_BOUND('',#158,.T.);
#158=EDGE_LOOP('',(#372,#373,#374,#375));
#159=PLANE('',#160);
#160=AXIS2_PLACEMENT_3D('',#161,#162,#163);
#161=CARTESIAN_POINT('',(-2.58452403410323E-16,-9.,2.8));
#162=DIRECTION('',(0.,-1.,0.));
#163=DIRECTION('',(-1.,0.,-1.1842378929335E-16));
#164=FACE_BOUND('',#165,.T.);
#165=EDGE_LOOP('',(#376,#377,#378,#379));
#166=CYLINDRICAL_SURFACE('',#167,9.);
#167=AXIS2_PLACEMENT_3D('',#168,#169,#170);
#168=CARTESIAN_POINT('',(-3.42901103761259E-16,0.,2.8));
#169=DIRECTION('',(1.22464679914735E-16,0.,-1.));
#170=DIRECTION('',(0.877268487978537,0.479999999999845,1.07434404579575E-16));
#171=FACE_BOUND('',#172,.T.);
#172=EDGE_LOOP('',(#380,#381,#382,#383));
#173=PLANE('',#174);
#174=AXIS2_PLACEMENT_3D('',#175,#176,#177);
#175=CARTESIAN_POINT('',(2.63180546393573,13.9399999999998,2.8));
#176=DIRECTION('',(0.877268487978441,0.480000000000021,1.39137667733109E-16));
#177=DIRECTION('',(0.480000000000021,-0.877268487978441,4.04974500678447E-17));
#178=FACE_OUTER_BOUND('',#179,.T.);
#179=EDGE_LOOP('',(#384));
#180=FACE_OUTER_BOUND('',#181,.T.);
#181=EDGE_LOOP('',(#385));
#182=CYLINDRICAL_SURFACE('',#183,4.15);
#183=AXIS2_PLACEMENT_3D('',#184,#185,#186);
#184=CARTESIAN_POINT('',(-3.42901103761259E-16,0.,2.8));
#185=DIRECTION('',(1.22464679914735E-16,0.,-1.));
#186=DIRECTION('',(-1.,0.,-1.22464679914735E-16));
#187=FACE_OUTER_BOUND('',#188,.T.);
#188=EDGE_LOOP('',(#386));
#189=FACE_OUTER_BOUND('',#190,.T.);
#190=EDGE_LOOP('',(#387));
#191=CONICAL_SURFACE('',#192,2.225,0.785398163397448);
#192=AXIS2_PLACEMENT_3D('',#193,#194,#195);
#193=CARTESIAN_POINT('',(-8.72560844392489E-16,12.5,0.625));
#194=DIRECTION('',(1.22464679914735E-16,0.,-1.));
#195=DIRECTION('',(-1.,0.,-1.22464679914735E-16));
#196=FACE_BOUND('',#197,.T.);
#197=EDGE_LOOP('',(#388,#389,#390,#391,#392,#393,#394,#395,#396));
#198=FACE_BOUND('',#199,.T.);
#199=EDGE_LOOP('',(#397));
#200=FACE_BOUND('',#201,.T.);
#201=EDGE_LOOP('',(#398));
#202=FACE_BOUND('',#203,.T.);
#203=EDGE_LOOP('',(#399));
#204=PLANE('',#205);
#205=AXIS2_PLACEMENT_3D('',#206,#207,#208);
#206=CARTESIAN_POINT('',(-1.71450551880629E-15,0.,14.));
#207=DIRECTION('',(1.22464679914735E-16,0.,-1.));
#208=DIRECTION('',(-1.,0.,-1.22464679914735E-16));
#209=FACE_BOUND('',#210,.T.);
#210=EDGE_LOOP('',(#400,#401,#402,#403,#404,#405,#406,#407));
#211=FACE_BOUND('',#212,.T.);
#212=EDGE_LOOP('',(#408));
#213=FACE_BOUND('',#214,.T.);
#214=EDGE_LOOP('',(#409));
#215=FACE_BOUND('',#216,.T.);
#216=EDGE_LOOP('',(#410));
#217=FACE_BOUND('',#218,.T.);
#218=EDGE_LOOP('',(#411));
#219=PLANE('',#220);
#220=AXIS2_PLACEMENT_3D('',#221,#222,#223);
#221=CARTESIAN_POINT('',(0.,0.,0.));
#222=DIRECTION('',(1.22464679914735E-16,0.,-1.));
#223=DIRECTION('',(-1.,0.,-1.22464679914735E-16));
#224=FACE_BOUND('',#225,.T.);
#225=EDGE_LOOP('',(#412,#413,#414,#415));
#226=PLANE('',#227);
#227=AXIS2_PLACEMENT_3D('',#228,#229,#230);
#228=CARTESIAN_POINT('',(-3.96697820243796,15.5,14.));
#229=DIRECTION('',(0.,1.,0.));
#230=DIRECTION('',(1.,0.,0.));
#231=FACE_BOUND('',#232,.T.);
#232=EDGE_LOOP('',(#416,#417,#418,#419,#420));
#233=CYLINDRICAL_SURFACE('',#234,5.);
#234=AXIS2_PLACEMENT_3D('',#235,#236,#237);
#235=CARTESIAN_POINT('',(-15.,-4.,14.));
#236=DIRECTION('',(1.22464679914735E-16,0.,-1.));
#237=DIRECTION('',(3.5527136788005E-16,-1.,4.35081943503005E-32));
#238=FACE_BOUND('',#239,.T.);
#239=EDGE_LOOP('',(#421,#422,#423,#424));
#240=CYLINDRICAL_SURFACE('',#241,16.033021797562);
#241=AXIS2_PLACEMENT_3D('',#242,#243,#244);
#242=CARTESIAN_POINT('',(-3.96697820243796,-0.533021797562046,14.));
#243=DIRECTION('',(1.22464679914735E-16,0.,-1.));
#244=DIRECTION('',(-1.,0.,-1.22464679914735E-16));
#245=FACE_BOUND('',#246,.T.);
#246=EDGE_LOOP('',(#425,#426,#427,#428));
#247=PLANE('',#248);
#248=AXIS2_PLACEMENT_3D('',#249,#250,#251);
#249=CARTESIAN_POINT('',(-20.,-4.,14.));
#250=DIRECTION('',(-1.,0.,0.));
#251=DIRECTION('',(0.,1.,0.));
#252=FACE_OUTER_BOUND('',#253,.T.);
#253=EDGE_LOOP('',(#429));
#254=FACE_OUTER_BOUND('',#255,.T.);
#255=EDGE_LOOP('',(#430));
#256=CYLINDRICAL_SURFACE('',#257,1.6);
#257=AXIS2_PLACEMENT_3D('',#258,#259,#260);
#258=CARTESIAN_POINT('',(-15.,-4.,14.));
#259=DIRECTION('',(1.22464679914735E-16,0.,-1.));
#260=DIRECTION('',(-1.,0.,-1.22464679914735E-16));
#261=FACE_OUTER_BOUND('',#262,.T.);
#262=EDGE_LOOP('',(#431));
#263=FACE_OUTER_BOUND('',#264,.T.);
#264=EDGE_LOOP('',(#432));
#265=CYLINDRICAL_SURFACE('',#266,1.6);
#266=AXIS2_PLACEMENT_3D('',#267,#268,#269);
#267=CARTESIAN_POINT('',(-12.0470021181109,8.38363828919465,14.));
#268=DIRECTION('',(1.22464679914735E-16,0.,-1.));
#269=DIRECTION('',(-1.,0.,-1.22464679914735E-16));
#270=FACE_OUTER_BOUND('',#271,.T.);
#271=EDGE_LOOP('',(#433));
#272=FACE_OUTER_BOUND('',#273,.T.);
#273=EDGE_LOOP('',(#434));
#274=CONICAL_SURFACE('',#275,2.225,0.785398163397449);
#275=AXIS2_PLACEMENT_3D('',#276,#277,#278);
#276=CARTESIAN_POINT('',(-12.0470021181109,8.38363828919465,0.624999999999998));
#277=DIRECTION('',(1.22464679914735E-16,0.,-1.));
#278=DIRECTION('',(-1.,0.,-1.22464679914735E-16));
#279=FACE_OUTER_BOUND('',#280,.T.);
#280=EDGE_LOOP('',(#435));
#281=FACE_OUTER_BOUND('',#282,.T.);
#282=EDGE_LOOP('',(#436));
#283=CONICAL_SURFACE('',#284,2.225,0.785398163397448);
#284=AXIS2_PLACEMENT_3D('',#285,#286,#287);
#285=CARTESIAN_POINT('',(-15.,-4.,0.624999999999998));
#286=DIRECTION('',(1.22464679914735E-16,0.,-1.));
#287=DIRECTION('',(-1.,0.,-1.22464679914735E-16));
#288=FACE_BOUND('',#289,.T.);
#289=EDGE_LOOP('',(#437,#438,#439,#440));
#290=CYLINDRICAL_SURFACE('',#291,0.5);
#291=AXIS2_PLACEMENT_3D('',#292,#293,#294);
#292=CARTESIAN_POINT('',(2.08178385045134,12.224,16.));
#293=DIRECTION('',(1.31473779231926E-16,0.,-1.));
#294=DIRECTION('',(-0.167885794391237,-0.985806451612903,-2.20725798679701E-17));
#295=FACE_BOUND('',#296,.T.);
#296=EDGE_LOOP('',(#441,#442,#443,#444));
#297=CYLINDRICAL_SURFACE('',#298,0.5);
#298=AXIS2_PLACEMENT_3D('',#299,#300,#301);
#299=CARTESIAN_POINT('',(-2.08178385045134,12.224,16.));
#300=DIRECTION('',(0.,-1.1686558153949E-16,1.));
#301=DIRECTION('',(0.167885794391241,-0.985806451612903,-1.15206844253123E-16));
#302=FACE_BOUND('',#303,.T.);
#303=EDGE_LOOP('',(#445,#446,#447,#448));
#304=CYLINDRICAL_SURFACE('',#305,0.5);
#305=AXIS2_PLACEMENT_3D('',#306,#307,#308);
#306=CARTESIAN_POINT('',(2.4754352829351,12.1504,16.));
#307=DIRECTION('',(-1.1686558153949E-16,0.,1.));
#308=DIRECTION('',(-0.199631877656057,-0.979870967741936,-2.33300954760954E-17));
#309=ORIENTED_EDGE('',*,*,#449,.F.);
#310=ORIENTED_EDGE('',*,*,#450,.F.);
#311=ORIENTED_EDGE('',*,*,#451,.F.);
#312=ORIENTED_EDGE('',*,*,#452,.F.);
#313=ORIENTED_EDGE('',*,*,#453,.F.);
#314=ORIENTED_EDGE('',*,*,#454,.F.);
#315=ORIENTED_EDGE('',*,*,#455,.T.);
#316=ORIENTED_EDGE('',*,*,#456,.T.);
#317=ORIENTED_EDGE('',*,*,#457,.T.);
#318=ORIENTED_EDGE('',*,*,#458,.F.);
#319=ORIENTED_EDGE('',*,*,#459,.F.);
#320=ORIENTED_EDGE('',*,*,#460,.F.);
#321=ORIENTED_EDGE('',*,*,#461,.T.);
#322=ORIENTED_EDGE('',*,*,#462,.T.);
#323=ORIENTED_EDGE('',*,*,#463,.F.);
#324=ORIENTED_EDGE('',*,*,#464,.F.);
#325=ORIENTED_EDGE('',*,*,#465,.T.);
#326=ORIENTED_EDGE('',*,*,#452,.T.);
#327=ORIENTED_EDGE('',*,*,#466,.T.);
#328=ORIENTED_EDGE('',*,*,#467,.T.);
#329=ORIENTED_EDGE('',*,*,#468,.T.);
#330=ORIENTED_EDGE('',*,*,#461,.F.);
#331=ORIENTED_EDGE('',*,*,#469,.F.);
#332=ORIENTED_EDGE('',*,*,#470,.F.);
#333=ORIENTED_EDGE('',*,*,#471,.F.);
#334=ORIENTED_EDGE('',*,*,#472,.T.);
#335=ORIENTED_EDGE('',*,*,#473,.T.);
#336=ORIENTED_EDGE('',*,*,#474,.T.);
#337=ORIENTED_EDGE('',*,*,#475,.T.);
#338=ORIENTED_EDGE('',*,*,#476,.T.);
#339=ORIENTED_EDGE('',*,*,#477,.F.);
#340=ORIENTED_EDGE('',*,*,#478,.T.);
#341=ORIENTED_EDGE('',*,*,#479,.T.);
#342=ORIENTED_EDGE('',*,*,#455,.F.);
#343=ORIENTED_EDGE('',*,*,#480,.T.);
#344=ORIENTED_EDGE('',*,*,#473,.F.);
#345=ORIENTED_EDGE('',*,*,#481,.T.);
#346=ORIENTED_EDGE('',*,*,#477,.T.);
#347=ORIENTED_EDGE('',*,*,#482,.F.);
#348=ORIENTED_EDGE('',*,*,#474,.F.);
#349=ORIENTED_EDGE('',*,*,#480,.F.);
#350=ORIENTED_EDGE('',*,*,#476,.F.);
#351=ORIENTED_EDGE('',*,*,#483,.T.);
#352=ORIENTED_EDGE('',*,*,#484,.F.);
#353=ORIENTED_EDGE('',*,*,#467,.F.);
#354=ORIENTED_EDGE('',*,*,#485,.F.);
#355=ORIENTED_EDGE('',*,*,#486,.T.);
#356=ORIENTED_EDGE('',*,*,#487,.F.);
#357=ORIENTED_EDGE('',*,*,#483,.F.);
#358=ORIENTED_EDGE('',*,*,#475,.F.);
#359=ORIENTED_EDGE('',*,*,#454,.T.);
#360=ORIENTED_EDGE('',*,*,#488,.F.);
#361=ORIENTED_EDGE('',*,*,#486,.F.);
#362=ORIENTED_EDGE('',*,*,#489,.F.);
#363=ORIENTED_EDGE('',*,*,#450,.T.);
#364=ORIENTED_EDGE('',*,*,#456,.F.);
#365=ORIENTED_EDGE('',*,*,#479,.F.);
#366=ORIENTED_EDGE('',*,*,#490,.T.);
#367=ORIENTED_EDGE('',*,*,#491,.T.);
#368=ORIENTED_EDGE('',*,*,#457,.F.);
#369=ORIENTED_EDGE('',*,*,#491,.F.);
#370=ORIENTED_EDGE('',*,*,#492,.T.);
#371=ORIENTED_EDGE('',*,*,#493,.T.);
#372=ORIENTED_EDGE('',*,*,#494,.T.);
#373=ORIENTED_EDGE('',*,*,#495,.F.);
#374=ORIENTED_EDGE('',*,*,#496,.F.);
#375=ORIENTED_EDGE('',*,*,#458,.T.);
#376=ORIENTED_EDGE('',*,*,#459,.T.);
#377=ORIENTED_EDGE('',*,*,#496,.T.);
#378=ORIENTED_EDGE('',*,*,#497,.F.);
#379=ORIENTED_EDGE('',*,*,#498,.F.);
#380=ORIENTED_EDGE('',*,*,#469,.T.);
#381=ORIENTED_EDGE('',*,*,#460,.T.);
#382=ORIENTED_EDGE('',*,*,#498,.T.);
#383=ORIENTED_EDGE('',*,*,#499,.F.);
#384=ORIENTED_EDGE('',*,*,#462,.F.);
#385=ORIENTED_EDGE('',*,*,#500,.F.);
#386=ORIENTED_EDGE('',*,*,#464,.T.);
#387=ORIENTED_EDGE('',*,*,#501,.F.);
#388=ORIENTED_EDGE('',*,*,#472,.F.);
#389=ORIENTED_EDGE('',*,*,#502,.F.);
#390=ORIENTED_EDGE('',*,*,#503,.F.);
#391=ORIENTED_EDGE('',*,*,#504,.F.);
#392=ORIENTED_EDGE('',*,*,#505,.F.);
#393=ORIENTED_EDGE('',*,*,#492,.F.);
#394=ORIENTED_EDGE('',*,*,#490,.F.);
#395=ORIENTED_EDGE('',*,*,#478,.F.);
#396=ORIENTED_EDGE('',*,*,#481,.F.);
#397=ORIENTED_EDGE('',*,*,#463,.T.);
#398=ORIENTED_EDGE('',*,*,#506,.T.);
#399=ORIENTED_EDGE('',*,*,#507,.T.);
#400=ORIENTED_EDGE('',*,*,#508,.T.);
#401=ORIENTED_EDGE('',*,*,#509,.T.);
#402=ORIENTED_EDGE('',*,*,#510,.T.);
#403=ORIENTED_EDGE('',*,*,#511,.T.);
#404=ORIENTED_EDGE('',*,*,#470,.T.);
#405=ORIENTED_EDGE('',*,*,#499,.T.);
#406=ORIENTED_EDGE('',*,*,#497,.T.);
#407=ORIENTED_EDGE('',*,*,#495,.T.);
#408=ORIENTED_EDGE('',*,*,#512,.T.);
#409=ORIENTED_EDGE('',*,*,#501,.T.);
#410=ORIENTED_EDGE('',*,*,#500,.T.);
#411=ORIENTED_EDGE('',*,*,#513,.T.);
#412=ORIENTED_EDGE('',*,*,#502,.T.);
#413=ORIENTED_EDGE('',*,*,#471,.T.);
#414=ORIENTED_EDGE('',*,*,#511,.F.);
#415=ORIENTED_EDGE('',*,*,#514,.F.);
#416=ORIENTED_EDGE('',*,*,#494,.F.);
#417=ORIENTED_EDGE('',*,*,#493,.F.);
#418=ORIENTED_EDGE('',*,*,#505,.T.);
#419=ORIENTED_EDGE('',*,*,#515,.T.);
#420=ORIENTED_EDGE('',*,*,#508,.F.);
#421=ORIENTED_EDGE('',*,*,#503,.T.);
#422=ORIENTED_EDGE('',*,*,#514,.T.);
#423=ORIENTED_EDGE('',*,*,#510,.F.);
#424=ORIENTED_EDGE('',*,*,#516,.F.);
#425=ORIENTED_EDGE('',*,*,#504,.T.);
#426=ORIENTED_EDGE('',*,*,#516,.T.);
#427=ORIENTED_EDGE('',*,*,#509,.F.);
#428=ORIENTED_EDGE('',*,*,#515,.F.);
#429=ORIENTED_EDGE('',*,*,#506,.F.);
#430=ORIENTED_EDGE('',*,*,#517,.F.);
#431=ORIENTED_EDGE('',*,*,#507,.F.);
#432=ORIENTED_EDGE('',*,*,#518,.F.);
#433=ORIENTED_EDGE('',*,*,#518,.T.);
#434=ORIENTED_EDGE('',*,*,#512,.F.);
#435=ORIENTED_EDGE('',*,*,#517,.T.);
#436=ORIENTED_EDGE('',*,*,#513,.F.);
#437=ORIENTED_EDGE('',*,*,#466,.F.);
#438=ORIENTED_EDGE('',*,*,#451,.T.);
#439=ORIENTED_EDGE('',*,*,#489,.T.);
#440=ORIENTED_EDGE('',*,*,#485,.T.);
#441=ORIENTED_EDGE('',*,*,#465,.F.);
#442=ORIENTED_EDGE('',*,*,#484,.T.);
#443=ORIENTED_EDGE('',*,*,#487,.T.);
#444=ORIENTED_EDGE('',*,*,#453,.T.);
#445=ORIENTED_EDGE('',*,*,#468,.F.);
#446=ORIENTED_EDGE('',*,*,#482,.T.);
#447=ORIENTED_EDGE('',*,*,#488,.T.);
#448=ORIENTED_EDGE('',*,*,#449,.T.);
#449=EDGE_CURVE('',#519,#520,#521,.F.);
#450=EDGE_CURVE('',#522,#519,#523,.T.);
#451=EDGE_CURVE('',#524,#522,#525,.F.);
#452=EDGE_CURVE('',#526,#524,#527,.F.);
#453=EDGE_CURVE('',#528,#526,#529,.F.);
#454=EDGE_CURVE('',#530,#528,#531,.T.);
#455=EDGE_CURVE('',#530,#532,#533,.T.);
#456=EDGE_CURVE('',#532,#534,#535,.F.);
#457=EDGE_CURVE('',#534,#536,#537,.T.);
#458=EDGE_CURVE('',#538,#536,#539,.T.);
#459=EDGE_CURVE('',#540,#538,#541,.T.);
#460=EDGE_CURVE('',#542,#540,#543,.T.);
#461=EDGE_CURVE('',#542,#520,#544,.T.);
#462=EDGE_CURVE('',#545,#545,#546,.T.);
#463=EDGE_CURVE('',#547,#547,#548,.T.);
#464=EDGE_CURVE('',#549,#549,#550,.F.);
#465=EDGE_CURVE('',#551,#526,#552,.T.);
#466=EDGE_CURVE('',#524,#553,#554,.F.);
#467=EDGE_CURVE('',#553,#551,#555,.T.);
#468=EDGE_CURVE('',#556,#520,#557,.T.);
#469=EDGE_CURVE('',#558,#542,#559,.F.);
#470=EDGE_CURVE('',#560,#558,#561,.T.);
#471=EDGE_CURVE('',#562,#560,#563,.T.);
#472=EDGE_CURVE('',#562,#564,#565,.T.);
#473=EDGE_CURVE('',#564,#566,#567,.T.);
#474=EDGE_CURVE('',#566,#556,#568,.F.);
#475=EDGE_CURVE('',#530,#569,#570,.F.);
#476=EDGE_CURVE('',#569,#571,#572,.F.);
#477=EDGE_CURVE('',#573,#571,#574,.T.);
#478=EDGE_CURVE('',#573,#575,#576,.T.);
#479=EDGE_CURVE('',#575,#532,#577,.T.);
#480=EDGE_CURVE('',#571,#566,#578,.F.);
#481=EDGE_CURVE('',#564,#573,#579,.T.);
#482=EDGE_CURVE('',#556,#580,#581,.F.);
#483=EDGE_CURVE('',#569,#582,#583,.T.);
#484=EDGE_CURVE('',#551,#582,#584,.F.);
#485=EDGE_CURVE('',#585,#553,#586,.F.);
#486=EDGE_CURVE('',#585,#580,#587,.T.);
#487=EDGE_CURVE('',#582,#528,#588,.T.);
#488=EDGE_CURVE('',#580,#519,#589,.T.);
#489=EDGE_CURVE('',#522,#585,#590,.F.);
#490=EDGE_CURVE('',#575,#591,#592,.T.);
#491=EDGE_CURVE('',#591,#534,#593,.T.);
#492=EDGE_CURVE('',#591,#594,#595,.T.);
#493=EDGE_CURVE('',#594,#536,#596,.T.);
#494=EDGE_CURVE('',#536,#597,#598,.T.);
#495=EDGE_CURVE('',#599,#597,#600,.T.);
#496=EDGE_CURVE('',#538,#599,#601,.T.);
#497=EDGE_CURVE('',#602,#599,#603,.T.);
#498=EDGE_CURVE('',#540,#602,#604,.T.);
#499=EDGE_CURVE('',#558,#602,#605,.T.);
#500=EDGE_CURVE('',#606,#606,#607,.F.);
#501=EDGE_CURVE('',#608,#608,#609,.F.);
#502=EDGE_CURVE('',#610,#562,#611,.T.);
#503=EDGE_CURVE('',#612,#610,#613,.T.);
#504=EDGE_CURVE('',#614,#612,#615,.T.);
#505=EDGE_CURVE('',#594,#614,#616,.T.);
#506=EDGE_CURVE('',#617,#617,#618,.T.);
#507=EDGE_CURVE('',#619,#619,#620,.T.);
#508=EDGE_CURVE('',#597,#621,#622,.T.);
#509=EDGE_CURVE('',#621,#623,#624,.T.);
#510=EDGE_CURVE('',#623,#625,#626,.T.);
#511=EDGE_CURVE('',#625,#560,#627,.T.);
#512=EDGE_CURVE('',#628,#628,#629,.F.);
#513=EDGE_CURVE('',#630,#630,#631,.F.);
#514=EDGE_CURVE('',#610,#625,#632,.T.);
#515=EDGE_CURVE('',#614,#621,#633,.T.);
#516=EDGE_CURVE('',#612,#623,#634,.T.);
#517=EDGE_CURVE('',#635,#635,#636,.F.);
#518=EDGE_CURVE('',#637,#637,#638,.F.);
#519=VERTEX_POINT('',#639);
#520=VERTEX_POINT('',#640);
#521=CIRCLE('',#641,0.5);
#522=VERTEX_POINT('',#645);
#523=CIRCLE('',#646,11.9);
#524=VERTEX_POINT('',#650);
#525=CIRCLE('',#651,0.5);
#526=VERTEX_POINT('',#655);
#527=CIRCLE('',#656,1.6);
#528=VERTEX_POINT('',#660);
#529=CIRCLE('',#661,0.499999999999998);
#530=VERTEX_POINT('',#665);
#531=CIRCLE('',#666,11.9);
#532=VERTEX_POINT('',#670);
#533=CIRCLE('',#671,9.);
#534=VERTEX_POINT('',#675);
#535=LINE('',#676,#677);
#536=VERTEX_POINT('',#679);
#537=CIRCLE('',#680,3.);
#538=VERTEX_POINT('',#684);
#539=LINE('',#685,#686);
#540=VERTEX_POINT('',#688);
#541=CIRCLE('',#689,9.);
#542=VERTEX_POINT('',#693);
#543=LINE('',#694,#695);
#544=CIRCLE('',#697,3.);
#545=VERTEX_POINT('',#701);
#546=CIRCLE('',#702,4.15);
#547=VERTEX_POINT('',#706);
#548=CIRCLE('',#707,1.6);
#549=VERTEX_POINT('',#711);
#550=CIRCLE('',#712,1.6);
#551=VERTEX_POINT('',#716);
#552=LINE('',#717,#718);
#553=VERTEX_POINT('',#720);
#554=LINE('',#721,#722);
#555=CIRCLE('',#724,1.6);
#556=VERTEX_POINT('',#728);
#557=LINE('',#729,#730);
#558=VERTEX_POINT('',#732);
#559=LINE('',#733,#734);
#560=VERTEX_POINT('',#736);
#561=CIRCLE('',#737,3.);
#562=VERTEX_POINT('',#741);
#563=LINE('',#742,#743);
#564=VERTEX_POINT('',#745);
#565=CIRCLE('',#746,3.);
#566=VERTEX_POINT('',#750);
#567=LINE('',#751,#752);
#568=CIRCLE('',#754,3.);
#569=VERTEX_POINT('',#758);
#570=LINE('',#759,#760);
#571=VERTEX_POINT('',#762);
#572=CIRCLE('',#763,9.);
#573=VERTEX_POINT('',#767);
#574=LINE('',#768,#769);
#575=VERTEX_POINT('',#771);
#576=CIRCLE('',#772,9.);
#577=LINE('',#776,#777);
#578=LINE('',#779,#780);
#579=LINE('',#782,#783);
#580=VERTEX_POINT('',#785);
#581=CIRCLE('',#786,0.499999999999999);
#582=VERTEX_POINT('',#790);
#583=CIRCLE('',#791,11.9);
#584=CIRCLE('',#795,0.499999999999996);
#585=VERTEX_POINT('',#799);
#586=CIRCLE('',#800,0.499999999999999);
#587=CIRCLE('',#804,11.9);
#588=LINE('',#808,#809);
#589=LINE('',#811,#812);
#590=LINE('',#814,#815);
#591=VERTEX_POINT('',#817);
#592=LINE('',#818,#819);
#593=LINE('',#821,#822);
#594=VERTEX_POINT('',#824);
#595=CIRCLE('',#825,3.);
#596=LINE('',#829,#830);
#597=VERTEX_POINT('',#832);
#598=LINE('',#833,#834);
#599=VERTEX_POINT('',#836);
#600=LINE('',#837,#838);
#601=LINE('',#840,#841);
#602=VERTEX_POINT('',#843);
#603=CIRCLE('',#844,9.);
#604=LINE('',#848,#849);
#605=LINE('',#851,#852);
#606=VERTEX_POINT('',#854);
#607=CIRCLE('',#855,4.15);
#608=VERTEX_POINT('',#859);
#609=CIRCLE('',#860,2.85);
#610=VERTEX_POINT('',#864);
#611=LINE('',#865,#866);
#612=VERTEX_POINT('',#868);
#613=CIRCLE('',#869,16.033021797562);
#614=VERTEX_POINT('',#873);
#615=LINE('',#874,#875);
#616=CIRCLE('',#877,5.);
#617=VERTEX_POINT('',#881);
#618=CIRCLE('',#882,1.6);
#619=VERTEX_POINT('',#886);
#620=CIRCLE('',#887,1.6);
#621=VERTEX_POINT('',#891);
#622=CIRCLE('',#892,5.);
#623=VERTEX_POINT('',#896);
#624=LINE('',#897,#898);
#625=VERTEX_POINT('',#900);
#626=CIRCLE('',#901,16.033021797562);
#627=LINE('',#905,#906);
#628=VERTEX_POINT('',#908);
#629=CIRCLE('',#909,2.85);
#630=VERTEX_POINT('',#913);
#631=CIRCLE('',#914,2.85);
#632=LINE('',#918,#919);
#633=LINE('',#921,#922);
#634=LINE('',#924,#925);
#635=VERTEX_POINT('',#927);
#636=CIRCLE('',#928,1.6);
#637=VERTEX_POINT('',#932);
#638=CIRCLE('',#933,1.6);
#639=CARTESIAN_POINT('',(2.37561934410707,11.660464516129,2.8));
#640=CARTESIAN_POINT('',(2.97052233952212,12.08048,2.8));
#641=AXIS2_PLACEMENT_3D('',#642,#643,#644);
#642=CARTESIAN_POINT('',(2.4754352829351,12.1504,2.8));
#643=DIRECTION('',(1.22464679914735E-16,0.,-1.));
#644=DIRECTION('',(0.990174113174041,-0.139840000000003,1.21261355829716E-16));
#645=CARTESIAN_POINT('',(1.99784095325572,11.7310967741935,2.8));
#646=AXIS2_PLACEMENT_3D('',#647,#648,#649);
#647=CARTESIAN_POINT('',(-1.97215226305253E-31,0.,2.8));
#648=DIRECTION('',(1.22464679914735E-16,0.,-1.));
#649=DIRECTION('',(0.167885794391237,0.985806451612903,2.05600800723539E-17));
#650=CARTESIAN_POINT('',(1.5861210289153,12.2897142857143,2.8));
#651=AXIS2_PLACEMENT_3D('',#652,#653,#654);
#652=CARTESIAN_POINT('',(2.08178385045134,12.224,2.8));
#653=DIRECTION('',(1.22464679914735E-16,0.,-1.));
#654=DIRECTION('',(-0.167885794391239,-0.985806451612903,-2.05600800723542E-17));
#655=CARTESIAN_POINT('',(-1.58612102891531,12.2897142857143,2.8));
#656=AXIS2_PLACEMENT_3D('',#657,#658,#659);
#657=CARTESIAN_POINT('',(-1.13892152320704E-15,12.5,2.8));
#658=DIRECTION('',(1.22464679914735E-16,0.,-1.));
#659=DIRECTION('',(0.991325643072066,-0.131428571428571,1.2140237757009E-16));
#660=CARTESIAN_POINT('',(-1.99784095325571,11.7310967741935,2.8));
#661=AXIS2_PLACEMENT_3D('',#662,#663,#664);
#662=CARTESIAN_POINT('',(-2.08178385045134,12.224,2.8));
#663=DIRECTION('',(1.22464679914735E-16,0.,-1.));
#664=DIRECTION('',(0.991325643072066,0.131428571428572,1.2140237757009E-16));
#665=CARTESIAN_POINT('',(-10.8164523294568,4.96128602325944,2.8));
#666=AXIS2_PLACEMENT_3D('',#667,#668,#669);
#667=CARTESIAN_POINT('',(-1.97215226305253E-31,0.,2.8));
#668=DIRECTION('',(1.22464679914735E-16,0.,-1.));
#669=DIRECTION('',(-0.908945573903929,0.41691479187054,-1.1131372876806E-16));
#670=CARTESIAN_POINT('',(-12.,0.500000000000001,2.8));
#671=AXIS2_PLACEMENT_3D('',#672,#673,#674);
#672=CARTESIAN_POINT('',(-3.,0.500000000000001,2.8));
#673=DIRECTION('',(-1.22464679914735E-16,0.,1.));
#674=DIRECTION('',(-0.868494703272973,0.495698447028828,-1.06359925843968E-16));
#675=CARTESIAN_POINT('',(-12.,-6.,2.8));
#676=CARTESIAN_POINT('',(-12.,-6.,2.8));
#677=VECTOR('',#678,1.);
#678=DIRECTION('',(0.,1.,0.));
#679=CARTESIAN_POINT('',(-15.,-9.,2.8));
#680=AXIS2_PLACEMENT_3D('',#681,#682,#683);
#681=CARTESIAN_POINT('',(-15.,-6.,2.8));
#682=DIRECTION('',(1.22464679914735E-16,0.,-1.));
#683=DIRECTION('',(1.,0.,1.22464679914735E-16));
#684=CARTESIAN_POINT('',(5.25959835838672E-16,-9.,2.8));
#685=CARTESIAN_POINT('',(-2.58452403410323E-16,-9.,2.8));
#686=VECTOR('',#687,1.);
#687=DIRECTION('',(-1.,0.,-1.1842378929335E-16));
#688=CARTESIAN_POINT('',(7.89541639180705,4.31999999999872,2.8));
#689=AXIS2_PLACEMENT_3D('',#690,#691,#692);
#690=CARTESIAN_POINT('',(-3.42901103761259E-16,0.,2.8));
#691=DIRECTION('',(1.22464679914735E-16,0.,-1.));
#692=DIRECTION('',(0.877268487978537,0.479999999999845,1.07434404579575E-16));
#693=CARTESIAN_POINT('',(2.63180546393563,13.9399999999997,2.8));
#694=CARTESIAN_POINT('',(2.63180546393573,13.9399999999998,2.8));
#695=VECTOR('',#696,1.);
#696=DIRECTION('',(0.480000000000021,-0.877268487978441,4.04974500678447E-17));
#697=AXIS2_PLACEMENT_3D('',#698,#699,#700);
#698=CARTESIAN_POINT('',(-1.13892152320704E-15,12.5,2.8));
#699=DIRECTION('',(1.22464679914735E-16,0.,-1.));
#700=DIRECTION('',(0.87726848797851,0.479999999999895,1.07434404579572E-16));
#701=CARTESIAN_POINT('',(-4.15,-5.08228421646152E-16,2.8));
#702=AXIS2_PLACEMENT_3D('',#703,#704,#705);
#703=CARTESIAN_POINT('',(-3.42901103761259E-16,0.,2.8));
#704=DIRECTION('',(1.22464679914735E-16,0.,-1.));
#705=DIRECTION('',(-1.,0.,-1.22464679914735E-16));
#706=CARTESIAN_POINT('',(-1.6,12.5,14.));
#707=AXIS2_PLACEMENT_3D('',#708,#709,#710);
#708=CARTESIAN_POINT('',(-2.51052593825207E-15,12.5,14.));
#709=DIRECTION('',(1.22464679914735E-16,0.,-1.));
#710=DIRECTION('',(-1.,0.,-1.22464679914735E-16));
#711=CARTESIAN_POINT('',(-1.6,12.5,1.25));
#712=AXIS2_PLACEMENT_3D('',#713,#714,#715);
#713=CARTESIAN_POINT('',(-9.49101269339199E-16,12.5,1.25));
#714=DIRECTION('',(1.22464679914735E-16,0.,-1.));
#715=DIRECTION('',(-1.,0.,-1.22464679914735E-16));
#716=CARTESIAN_POINT('',(-1.58612102891531,12.2897142857143,12.));
#717=CARTESIAN_POINT('',(-1.58612102891531,12.2897142857143,12.));
#718=VECTOR('',#719,1.);
#719=DIRECTION('',(1.20676415720126E-16,0.,-1.));
#720=CARTESIAN_POINT('',(1.5861210289153,12.2897142857143,12.));
#721=CARTESIAN_POINT('',(1.5861210289153,12.2897142857143,12.));
#722=VECTOR('',#723,1.);
#723=DIRECTION('',(1.20676415720126E-16,0.,-1.));
#724=AXIS2_PLACEMENT_3D('',#725,#726,#727);
#725=CARTESIAN_POINT('',(-2.2655965784226E-15,12.5,12.));
#726=DIRECTION('',(0.,0.,-1.));
#727=DIRECTION('',(0.991325643072066,-0.13142857142857,0.));
#728=CARTESIAN_POINT('',(2.97052233952212,12.08048,12.));
#729=CARTESIAN_POINT('',(2.97052233952212,12.08048,12.));
#730=VECTOR('',#731,1.);
#731=DIRECTION('',(9.65411325761006E-17,0.,-1.));
#732=CARTESIAN_POINT('',(2.63180546393563,13.9399999999997,1.8144927288792E-16));
#733=CARTESIAN_POINT('',(2.63180546393563,13.9399999999997,2.8));
#734=VECTOR('',#735,1.);
#735=DIRECTION('',(0.,0.,-1.));
#736=CARTESIAN_POINT('',(-8.87868926612438E-16,15.5,-1.08732583903832E-31));
#737=AXIS2_PLACEMENT_3D('',#738,#739,#740);
#738=CARTESIAN_POINT('',(-7.9602041944578E-16,12.5,-9.74843858730207E-32));
#739=DIRECTION('',(1.22464679914735E-16,0.,-1.));
#740=DIRECTION('',(-6.12323399573677E-17,1.,-7.49879891330929E-33));
#741=CARTESIAN_POINT('',(-2.60237444541873E-15,15.5,14.));
#742=CARTESIAN_POINT('',(-2.67937910861228E-15,15.5,14.));
#743=VECTOR('',#744,1.);
#744=DIRECTION('',(1.24673655650234E-16,0.,-1.));
#745=CARTESIAN_POINT('',(-2.29304464071939E-15,9.5,14.));
#746=AXIS2_PLACEMENT_3D('',#747,#748,#749);
#747=CARTESIAN_POINT('',(-2.51052593825207E-15,12.5,14.));
#748=DIRECTION('',(1.22464679914735E-16,0.,-1.));
#749=DIRECTION('',(-6.12323399573677E-17,1.,-7.49879891330929E-33));
#750=CARTESIAN_POINT('',(-2.04811528088992E-15,9.5,12.));
#751=CARTESIAN_POINT('',(-2.29304464071939E-15,9.5,14.));
#752=VECTOR('',#753,1.);
#753=DIRECTION('',(1.22464679914735E-16,0.,-1.));
#754=AXIS2_PLACEMENT_3D('',#755,#756,#757);
#755=CARTESIAN_POINT('',(-2.2655965784226E-15,12.5,12.));
#756=DIRECTION('',(0.,0.,-1.));
#757=DIRECTION('',(0.990174113174042,-0.13984,0.));
#758=CARTESIAN_POINT('',(-10.8164523294568,4.96128602325945,12.));
#759=CARTESIAN_POINT('',(-10.8164523294568,4.96128602325945,12.));
#760=VECTOR('',#761,1.);
#761=DIRECTION('',(1.93082265152201E-16,0.,-1.));
#762=CARTESIAN_POINT('',(-3.,9.5,12.));
#763=AXIS2_PLACEMENT_3D('',#764,#765,#766);
#764=CARTESIAN_POINT('',(-3.,0.500000000000001,12.));
#765=DIRECTION('',(0.,0.,1.));
#766=DIRECTION('',(-4.93432455388958E-17,1.,0.));
#767=CARTESIAN_POINT('',(-3.,9.5,14.));
#768=CARTESIAN_POINT('',(-3.,9.5,14.));
#769=VECTOR('',#770,1.);
#770=DIRECTION('',(4.44089209850062E-16,0.,-1.));
#771=CARTESIAN_POINT('',(-12.,0.500000000000001,14.));
#772=AXIS2_PLACEMENT_3D('',#773,#774,#775);
#773=CARTESIAN_POINT('',(-3.,0.500000000000001,14.));
#774=DIRECTION('',(-1.22464679914735E-16,0.,1.));
#775=DIRECTION('',(-4.93432455388958E-17,1.,-6.04280477087507E-33));
#776=CARTESIAN_POINT('',(-12.,0.500000000000001,14.));
#777=VECTOR('',#778,1.);
#778=DIRECTION('',(1.58603289232165E-16,0.,-1.));
#779=CARTESIAN_POINT('',(-9.1214888399673E-16,9.5,12.));
#780=VECTOR('',#781,1.);
#781=DIRECTION('',(-1.,0.,0.));
#782=CARTESIAN_POINT('',(-2.62665440280302E-15,9.5,14.));
#783=VECTOR('',#784,1.);
#784=DIRECTION('',(-1.,0.,0.));
#785=CARTESIAN_POINT('',(2.37561934410707,11.660464516129,12.));
#786=AXIS2_PLACEMENT_3D('',#787,#788,#789);
#787=CARTESIAN_POINT('',(2.4754352829351,12.1504,12.));
#788=DIRECTION('',(0.,0.,1.));
#789=DIRECTION('',(-0.199631877656057,-0.979870967741936,0.));
#790=CARTESIAN_POINT('',(-1.99784095325572,11.7310967741935,12.));
#791=AXIS2_PLACEMENT_3D('',#792,#793,#794);
#792=CARTESIAN_POINT('',(0.,0.,12.));
#793=DIRECTION('',(0.,0.,-1.));
#794=DIRECTION('',(-0.908945573903929,0.416914791870542,0.));
#795=AXIS2_PLACEMENT_3D('',#796,#797,#798);
#796=CARTESIAN_POINT('',(-2.08178385045134,12.224,12.));
#797=DIRECTION('',(0.,0.,1.));
#798=DIRECTION('',(0.167885794391241,-0.985806451612903,0.));
#799=CARTESIAN_POINT('',(1.99784095325572,11.7310967741935,12.));
#800=AXIS2_PLACEMENT_3D('',#801,#802,#803);
#801=CARTESIAN_POINT('',(2.08178385045134,12.224,12.));
#802=DIRECTION('',(0.,0.,1.));
#803=DIRECTION('',(-0.991325643072065,0.131428571428575,0.));
#804=AXIS2_PLACEMENT_3D('',#805,#806,#807);
#805=CARTESIAN_POINT('',(0.,0.,12.));
#806=DIRECTION('',(0.,0.,-1.));
#807=DIRECTION('',(0.167885794391237,0.985806451612903,0.));
#808=CARTESIAN_POINT('',(-1.99784095325572,11.7310967741935,12.));
#809=VECTOR('',#810,1.);
#810=DIRECTION('',(0.,0.,-1.));
#811=CARTESIAN_POINT('',(2.37561934410707,11.660464516129,12.));
#812=VECTOR('',#813,1.);
#813=DIRECTION('',(0.,0.,-1.));
#814=CARTESIAN_POINT('',(1.99784095325572,11.7310967741935,12.));
#815=VECTOR('',#816,1.);
#816=DIRECTION('',(0.,0.,-1.));
#817=CARTESIAN_POINT('',(-12.,-6.,14.));
#818=CARTESIAN_POINT('',(-12.,0.500000000000001,14.));
#819=VECTOR('',#820,1.);
#820=DIRECTION('',(0.,-1.,0.));
#821=CARTESIAN_POINT('',(-12.,-6.,14.));
#822=VECTOR('',#823,1.);
#823=DIRECTION('',(1.58603289232165E-16,0.,-1.));
#824=CARTESIAN_POINT('',(-15.,-9.,14.));
#825=AXIS2_PLACEMENT_3D('',#826,#827,#828);
#826=CARTESIAN_POINT('',(-15.,-6.,14.));
#827=DIRECTION('',(1.22464679914735E-16,0.,-1.));
#828=DIRECTION('',(1.,0.,1.22464679914735E-16));
#829=CARTESIAN_POINT('',(-15.,-9.,14.));
#830=VECTOR('',#831,1.);
#831=DIRECTION('',(1.58603289232165E-16,0.,-1.));
#832=CARTESIAN_POINT('',(-15.,-9.,-1.79656129250718E-15));
#833=CARTESIAN_POINT('',(-15.,-9.,2.8));
#834=VECTOR('',#835,1.);
#835=DIRECTION('',(6.34413156928661E-16,0.,-1.));
#836=CARTESIAN_POINT('',(8.68860939599931E-16,-9.,1.06404776858522E-31));
#837=CARTESIAN_POINT('',(8.44487003509359E-17,-9.,5.17099152884638E-33));
#838=VECTOR('',#839,1.);
#839=DIRECTION('',(-1.,0.,-1.20444234604043E-16));
#840=CARTESIAN_POINT('',(3.65457061189303E-16,-9.,2.8));
#841=VECTOR('',#842,1.);
#842=DIRECTION('',(1.22464679914735E-16,0.,-1.));
#843=CARTESIAN_POINT('',(7.89541639180705,4.31999999999872,9.66909641216205E-16));
#844=AXIS2_PLACEMENT_3D('',#845,#846,#847);
#845=CARTESIAN_POINT('',(0.,0.,0.));
#846=DIRECTION('',(1.22464679914735E-16,0.,-1.));
#847=DIRECTION('',(0.877268487978537,0.479999999999845,1.07434404579575E-16));
#848=CARTESIAN_POINT('',(7.89541639180705,4.31999999999872,2.8));
#849=VECTOR('',#850,1.);
#850=DIRECTION('',(0.,0.,-1.));
#851=CARTESIAN_POINT('',(2.63180546393573,13.9399999999998,3.83196211794401E-16));
#852=VECTOR('',#853,1.);
#853=DIRECTION('',(0.480000000000021,-0.877268487978441,4.96402482134601E-17));
#854=CARTESIAN_POINT('',(-4.15,-5.08228421646152E-16,-5.08228421646152E-16));
#855=AXIS2_PLACEMENT_3D('',#856,#857,#858);
#856=CARTESIAN_POINT('',(0.,0.,0.));
#857=DIRECTION('',(1.22464679914735E-16,0.,-1.));
#858=DIRECTION('',(-1.,0.,-1.22464679914735E-16));
#859=CARTESIAN_POINT('',(-2.85,12.5,-3.49024337756996E-16));
#860=AXIS2_PLACEMENT_3D('',#861,#862,#863);
#861=CARTESIAN_POINT('',(-7.9602041944578E-16,12.5,-9.74843858730208E-32));
#862=DIRECTION('',(1.22464679914735E-16,0.,-1.));
#863=DIRECTION('',(-1.,0.,-1.22464679914735E-16));
#864=CARTESIAN_POINT('',(-3.96697820243796,15.5,14.));
#865=CARTESIAN_POINT('',(-3.96697820243796,15.5,14.));
#866=VECTOR('',#867,1.);
#867=DIRECTION('',(1.,0.,0.));
#868=CARTESIAN_POINT('',(-20.,-0.533021797562046,14.));
#869=AXIS2_PLACEMENT_3D('',#870,#871,#872);
#870=CARTESIAN_POINT('',(-3.96697820243796,-0.533021797562046,14.));
#871=DIRECTION('',(1.22464679914735E-16,0.,-1.));
#872=DIRECTION('',(-1.,0.,-1.22464679914735E-16));
#873=CARTESIAN_POINT('',(-20.,-4.,14.));
#874=CARTESIAN_POINT('',(-20.,-4.,14.));
#875=VECTOR('',#876,1.);
#876=DIRECTION('',(0.,1.,0.));
#877=AXIS2_PLACEMENT_3D('',#878,#879,#880);
#878=CARTESIAN_POINT('',(-15.,-4.,14.));
#879=DIRECTION('',(1.22464679914735E-16,0.,-1.));
#880=DIRECTION('',(3.5527136788005E-16,-1.,4.35081943503005E-32));
#881=CARTESIAN_POINT('',(-16.6,-4.,14.));
#882=AXIS2_PLACEMENT_3D('',#883,#884,#885);
#883=CARTESIAN_POINT('',(-15.,-4.,14.));
#884=DIRECTION('',(1.22464679914735E-16,0.,-1.));
#885=DIRECTION('',(-1.,0.,-1.22464679914735E-16));
#886=CARTESIAN_POINT('',(-13.6470021181109,8.38363828919465,14.));
#887=AXIS2_PLACEMENT_3D('',#888,#889,#890);
#888=CARTESIAN_POINT('',(-12.0470021181109,8.38363828919465,14.));
#889=DIRECTION('',(1.22464679914735E-16,0.,-1.));
#890=DIRECTION('',(-1.,0.,-1.22464679914735E-16));
#891=CARTESIAN_POINT('',(-20.,-4.,-2.44929359829471E-15));
#892=AXIS2_PLACEMENT_3D('',#893,#894,#895);
#893=CARTESIAN_POINT('',(-15.,-4.,-1.83697019872103E-15));
#894=DIRECTION('',(1.22464679914735E-16,0.,-1.));
#895=DIRECTION('',(3.5527136788005E-16,-1.,4.35081943503005E-32));
#896=CARTESIAN_POINT('',(-20.,-0.533021797562046,-2.44929359829471E-15));
#897=CARTESIAN_POINT('',(-20.,-4.,-2.11282521884748E-15));
#898=VECTOR('',#899,1.);
#899=DIRECTION('',(0.,1.,0.));
#900=CARTESIAN_POINT('',(-3.96697820243796,15.5,-4.85814715790296E-16));
#901=AXIS2_PLACEMENT_3D('',#902,#903,#904);
#902=CARTESIAN_POINT('',(-3.96697820243795,-0.533021797562046,-4.85814715790296E-16));
#903=DIRECTION('',(1.22464679914735E-16,0.,-1.));
#904=DIRECTION('',(-1.,0.,-1.22464679914735E-16));
#905=CARTESIAN_POINT('',(-3.96697820243795,15.5,-2.42907357895148E-16));
#906=VECTOR('',#907,1.);
#907=DIRECTION('',(1.,0.,6.12323399573677E-17));
#908=CARTESIAN_POINT('',(-14.8970021181109,8.38363828919465,-2.02503965013269E-15));
#909=AXIS2_PLACEMENT_3D('',#910,#911,#912);
#910=CARTESIAN_POINT('',(-12.0470021181109,8.38363828919465,-1.47533225832659E-15));
#911=DIRECTION('',(1.22464679914735E-16,0.,-1.));
#912=DIRECTION('',(-1.,0.,-1.22464679914735E-16));
#913=CARTESIAN_POINT('',(-17.85,-4.,-2.14558563026417E-15));
#914=AXIS2_PLACEMENT_3D('',#915,#916,#917);
#915=CARTESIAN_POINT('',(-15.,-4.,-1.83697019872103E-15));
#916=DIRECTION('',(1.22464679914735E-16,0.,-1.));
#917=DIRECTION('',(-1.,0.,-1.22464679914735E-16));
#918=CARTESIAN_POINT('',(-3.96697820243796,15.5,14.));
#919=VECTOR('',#920,1.);
#920=DIRECTION('',(1.26882631385732E-16,0.,-1.));
#921=CARTESIAN_POINT('',(-20.,-4.,14.));
#922=VECTOR('',#923,1.);
#923=DIRECTION('',(0.,0.,-1.));
#924=CARTESIAN_POINT('',(-20.,-0.533021797562046,14.));
#925=VECTOR('',#926,1.);
#926=DIRECTION('',(0.,0.,-1.));
#927=CARTESIAN_POINT('',(-16.6,-4.,1.25));
#928=AXIS2_PLACEMENT_3D('',#929,#930,#931);
#929=CARTESIAN_POINT('',(-15.,-4.,1.25));
#930=DIRECTION('',(1.22464679914735E-16,0.,-1.));
#931=DIRECTION('',(-1.,0.,-1.22464679914735E-16));
#932=CARTESIAN_POINT('',(-13.6470021181109,8.38363828919465,1.25));
#933=AXIS2_PLACEMENT_3D('',#934,#935,#936);
#934=CARTESIAN_POINT('',(-12.0470021181109,8.38363828919465,1.25));
#935=DIRECTION('',(1.22464679914735E-16,0.,-1.));
#936=DIRECTION('',(-1.,0.,-1.22464679914735E-16));
ENDSEC;
END-ISO-10303-21;
