ISO-10303-21;
HEADER;
FILE_DESCRIPTION(('STEP AP203'),
    '1');
FILE_NAME('Крепление магнита',
    '',
    ('UNSPECIFIED'),
    ('UNSPECIFIED'),
    'C3D Converter',
    'C3D Toolkit',
    '');
FILE_SCHEMA(('CONFIG_CONTROL_DESIGN'));
ENDSEC;

DATA;
#1=PRODUCT_DEFINITION('','UNSPECIFIED',#28,#31);
#2=SHAPE_DEFINITION_REPRESENTATION(#26,#3);
#3=SHAPE_REPRESENTATION('NONE',(#4),#8);
#4=AXIS2_PLACEMENT_3D('',#5,#6,#7);
#5=CARTESIAN_POINT('',(0.,0.,0.));
#6=DIRECTION('',(0.,0.,1.));
#7=DIRECTION('',(1.,0.,0.));
#8=(GEOMETRIC_REPRESENTATION_CONTEXT(3)GLOBAL_UNCERTAINTY_ASSIGNED_CONTEXT((#10))
GLOBAL_UNIT_ASSIGNED_CONTEXT((#9,#11,#12))REPRESENTATION_CONTEXT('NONE','NONE'));
#9=(LENGTH_UNIT()NAMED_UNIT(*)SI_UNIT(.MILLI.,.METRE.));
#10=UNCERTAINTY_MEASURE_WITH_UNIT(LENGTH_MEASURE(1.E-5),#9,'NONE','NONE');
#11=(NAMED_UNIT(*)PLANE_ANGLE_UNIT()SI_UNIT($,.RADIAN.));
#12=(NAMED_UNIT(*)SI_UNIT($,.STERADIAN.)SOLID_ANGLE_UNIT());
#13=MANIFOLD_SOLID_BREP('',#14);
#14=CLOSED_SHELL('',(#53,#54,#55,#56,#57,#58,#59,#60,#61,#62,#63,#64,#65,#66,#67,
#68,#69,#70,#71,#72,#73,#74,#75,#76,#77,#78,#79,#80,#81,#82,#83,#84,#85,#86,#87,
#88,#89,#90,#91,#92,#93,#94,#95,#96));
#15=COLOUR_RGB('',0.,0.298039215686275,0.6);
#16=FILL_AREA_STYLE_COLOUR('',#15);
#17=FILL_AREA_STYLE($,(#16));
#18=SURFACE_STYLE_FILL_AREA(#17);
#19=SURFACE_SIDE_STYLE('',(#18));
#20=SURFACE_STYLE_USAGE(.BOTH.,#19);
#21=PRESENTATION_STYLE_ASSIGNMENT((#20));
#22=MECHANICAL_DESIGN_GEOMETRIC_PRESENTATION_REPRESENTATION('NONE',(#23),#8);
#23=STYLED_ITEM('',(#21),#13);
#24=ADVANCED_BREP_SHAPE_REPRESENTATION('NONE',(#13),#8);
#25=SHAPE_REPRESENTATION_RELATIONSHIP('','',#3,#24);
#26=PRODUCT_DEFINITION_SHAPE('NONE','NONE',#1);
#27=MECHANICAL_CONTEXT('NONE',#32,'mechanical');
#28=PRODUCT_DEFINITION_FORMATION_WITH_SPECIFIED_SOURCE('ANY','UNSPECIFIED',#29,.NOT_KNOWN.);
#29=PRODUCT('','\X2\041A04400435043F043B0435043D04380435\X0\ \X2\043C04300433043D043804420430\X0\',
'NONE',(#27));
#30=PRODUCT_RELATED_PRODUCT_CATEGORY('detail','',(#29));
#31=DESIGN_CONTEXT('detailed design',#32,'design');
#32=APPLICATION_CONTEXT('configuration controlled 3d designs of mechanical parts and assemblies');
#33=APPLICATION_PROTOCOL_DEFINITION('international standard','config_control_design',
1994,#32);
#34=CC_DESIGN_DATE_AND_TIME_ASSIGNMENT(#35,#39,(#1));
#35=DATE_AND_TIME(#36,#37);
#36=CALENDAR_DATE(0,1,1);
#37=LOCAL_TIME(0,0,0.,#38);
#38=COORDINATED_UNIVERSAL_TIME_OFFSET(0,0,.AHEAD.);
#39=DATE_TIME_ROLE('creation_date');
#40=CC_DESIGN_APPROVAL(#41,(#1));
#41=APPROVAL(#42,'UNSPECIFIED');
#42=APPROVAL_STATUS('not_yet_approved');
#43=APPROVAL_DATE_TIME(#44,#41);
#44=DATE_AND_TIME(#45,#46);
#45=CALENDAR_DATE(0,1,1);
#46=LOCAL_TIME(0,0,0.,#47);
#47=COORDINATED_UNIVERSAL_TIME_OFFSET(0,0,.AHEAD.);
#48=PERSON('UNSPECIFIED','User','UNSPECIFIED',('UNSPECIFIED'),('UNSPECIFIED'),('UNSPECIFIED'));
#49=ORGANIZATION('UNSPECIFIED','UNSPECIFIED','UNSPECIFIED');
#50=PERSON_AND_ORGANIZATION(#48,#49);
#51=PERSON_AND_ORGANIZATION_ROLE('creator');
#52=CC_DESIGN_PERSON_AND_ORGANIZATION_ASSIGNMENT(#50,#51,(#28,#1));
#53=ADVANCED_FACE('',(#97,#99),#101,.F.);
#54=ADVANCED_FACE('',(#106,#108),#110,.F.);
#55=ADVANCED_FACE('',(#115,#117),#119,.T.);
#56=ADVANCED_FACE('',(#124,#126,#128,#130),#132,.F.);
#57=ADVANCED_FACE('',(#137,#139),#141,.T.);
#58=ADVANCED_FACE('',(#146),#148,.T.);
#59=ADVANCED_FACE('',(#153,#155),#157,.T.);
#60=ADVANCED_FACE('',(#162),#164,.T.);
#61=ADVANCED_FACE('',(#169),#171,.T.);
#62=ADVANCED_FACE('',(#176),#178,.T.);
#63=ADVANCED_FACE('',(#183),#185,.T.);
#64=ADVANCED_FACE('',(#190),#192,.T.);
#65=ADVANCED_FACE('',(#197,#199),#201,.F.);
#66=ADVANCED_FACE('',(#206,#208),#210,.F.);
#67=ADVANCED_FACE('',(#215,#217),#219,.T.);
#68=ADVANCED_FACE('',(#224,#226),#228,.T.);
#69=ADVANCED_FACE('',(#233,#235),#237,.T.);
#70=ADVANCED_FACE('',(#242,#244),#246,.T.);
#71=ADVANCED_FACE('',(#251),#253,.F.);
#72=ADVANCED_FACE('',(#258),#260,.F.);
#73=ADVANCED_FACE('',(#265),#267,.F.);
#74=ADVANCED_FACE('',(#272),#274,.F.);
#75=ADVANCED_FACE('',(#279),#281,.F.);
#76=ADVANCED_FACE('',(#286),#288,.F.);
#77=ADVANCED_FACE('',(#293),#295,.F.);
#78=ADVANCED_FACE('',(#300),#302,.F.);
#79=ADVANCED_FACE('',(#307),#309,.F.);
#80=ADVANCED_FACE('',(#314),#316,.F.);
#81=ADVANCED_FACE('',(#321),#323,.F.);
#82=ADVANCED_FACE('',(#328),#330,.F.);
#83=ADVANCED_FACE('',(#335,#337),#339,.T.);
#84=ADVANCED_FACE('',(#344,#346),#348,.T.);
#85=ADVANCED_FACE('',(#353),#355,.F.);
#86=ADVANCED_FACE('',(#360),#362,.F.);
#87=ADVANCED_FACE('',(#367),#369,.F.);
#88=ADVANCED_FACE('',(#427),#429,.T.);
#89=ADVANCED_FACE('',(#434),#436,.T.);
#90=ADVANCED_FACE('',(#441),#443,.T.);
#91=ADVANCED_FACE('',(#448),#450,.T.);
#92=ADVANCED_FACE('',(#508),#510,.F.);
#93=ADVANCED_FACE('',(#568),#570,.T.);
#94=ADVANCED_FACE('',(#575),#577,.T.);
#95=ADVANCED_FACE('',(#582),#584,.T.);
#96=ADVANCED_FACE('',(#589),#591,.T.);
#97=FACE_OUTER_BOUND('',#98,.T.);
#98=EDGE_LOOP('',(#649));
#99=FACE_OUTER_BOUND('',#100,.T.);
#100=EDGE_LOOP('',(#650));
#101=CYLINDRICAL_SURFACE('',#102,5.15);
#102=AXIS2_PLACEMENT_3D('',#103,#104,#105);
#103=CARTESIAN_POINT('',(0.,0.,-1.2));
#104=DIRECTION('',(0.,0.,1.));
#105=DIRECTION('',(-1.,1.22464679914735E-16,0.));
#106=FACE_OUTER_BOUND('',#107,.T.);
#107=EDGE_LOOP('',(#651));
#108=FACE_OUTER_BOUND('',#109,.T.);
#109=EDGE_LOOP('',(#652));
#110=CYLINDRICAL_SURFACE('',#111,7.425);
#111=AXIS2_PLACEMENT_3D('',#112,#113,#114);
#112=CARTESIAN_POINT('',(0.,0.,0.));
#113=DIRECTION('',(0.,0.,1.));
#114=DIRECTION('',(-1.,1.22464679914735E-16,0.));
#115=FACE_BOUND('',#116,.T.);
#116=EDGE_LOOP('',(#653));
#117=FACE_BOUND('',#118,.T.);
#118=EDGE_LOOP('',(#654));
#119=PLANE('',#120);
#120=AXIS2_PLACEMENT_3D('',#121,#122,#123);
#121=CARTESIAN_POINT('',(-7.425,9.0930024836691E-16,2.1));
#122=DIRECTION('',(0.,0.,1.));
#123=DIRECTION('',(-1.22464679914735E-16,-1.,0.));
#124=FACE_BOUND('',#125,.T.);
#125=EDGE_LOOP('',(#655,#656,#657,#658,#659,#660,#661,#662));
#126=FACE_BOUND('',#127,.T.);
#127=EDGE_LOOP('',(#663));
#128=FACE_BOUND('',#129,.T.);
#129=EDGE_LOOP('',(#664));
#130=FACE_BOUND('',#131,.T.);
#131=EDGE_LOOP('',(#665));
#132=PLANE('',#133);
#133=AXIS2_PLACEMENT_3D('',#134,#135,#136);
#134=CARTESIAN_POINT('',(0.,0.,-1.2));
#135=DIRECTION('',(0.,0.,1.));
#136=DIRECTION('',(-1.,1.22464679914735E-16,0.));
#137=FACE_BOUND('',#138,.T.);
#138=EDGE_LOOP('',(#666));
#139=FACE_BOUND('',#140,.T.);
#140=EDGE_LOOP('',(#667));
#141=PLANE('',#142);
#142=AXIS2_PLACEMENT_3D('',#143,#144,#145);
#143=CARTESIAN_POINT('',(0.,0.,4.));
#144=DIRECTION('',(0.,0.,1.));
#145=DIRECTION('',(-1.,1.22464679914735E-16,0.));
#146=FACE_BOUND('',#147,.T.);
#147=EDGE_LOOP('',(#668,#669,#670,#671,#672));
#148=PLANE('',#149);
#149=AXIS2_PLACEMENT_3D('',#150,#151,#152);
#150=CARTESIAN_POINT('',(-3.19595833333332,8.60037646452743,-1.2));
#151=DIRECTION('',(-0.348333333333333,0.937370731828602,0.));
#152=DIRECTION('',(-0.937370731828602,-0.348333333333333,0.));
#153=FACE_BOUND('',#154,.T.);
#154=EDGE_LOOP('',(#673,#674,#675,#676,#677,#678,#679,#680));
#155=FACE_OUTER_BOUND('',#156,.T.);
#156=EDGE_LOOP('',(#681));
#157=CYLINDRICAL_SURFACE('',#158,9.175);
#158=AXIS2_PLACEMENT_3D('',#159,#160,#161);
#159=CARTESIAN_POINT('',(0.,0.,-1.2));
#160=DIRECTION('',(0.,0.,1.));
#161=DIRECTION('',(0.348333333333332,0.937370731828602,0.));
#162=FACE_BOUND('',#163,.T.);
#163=EDGE_LOOP('',(#682,#683,#684,#685,#686));
#164=PLANE('',#165);
#165=AXIS2_PLACEMENT_3D('',#166,#167,#168);
#166=CARTESIAN_POINT('',(16.3759166666667,3.70261439072298,-1.2));
#167=DIRECTION('',(0.348333333333334,0.937370731828602,0.));
#168=DIRECTION('',(-0.937370731828602,0.348333333333334,0.));
#169=FACE_BOUND('',#170,.T.);
#170=EDGE_LOOP('',(#687,#688,#689,#690));
#171=CYLINDRICAL_SURFACE('',#172,3.95);
#172=AXIS2_PLACEMENT_3D('',#173,#174,#175);
#173=CARTESIAN_POINT('',(15.,-1.83697019872103E-15,-1.2));
#174=DIRECTION('',(0.,0.,1.));
#175=DIRECTION('',(0.348333333333333,-0.937370731828602,0.));
#176=FACE_BOUND('',#177,.T.);
#177=EDGE_LOOP('',(#691,#692,#693,#694,#695));
#178=PLANE('',#179);
#179=AXIS2_PLACEMENT_3D('',#180,#181,#182);
#180=CARTESIAN_POINT('',(3.19595833333332,-8.60037646452743,-1.2));
#181=DIRECTION('',(0.348333333333334,-0.937370731828602,0.));
#182=DIRECTION('',(0.937370731828602,0.348333333333334,0.));
#183=FACE_BOUND('',#184,.T.);
#184=EDGE_LOOP('',(#696,#697,#698,#699,#700));
#185=PLANE('',#186);
#186=AXIS2_PLACEMENT_3D('',#187,#188,#189);
#187=CARTESIAN_POINT('',(-16.3759166666667,-3.70261439072297,-1.2));
#188=DIRECTION('',(-0.348333333333334,-0.937370731828602,0.));
#189=DIRECTION('',(0.937370731828602,-0.348333333333334,0.));
#190=FACE_BOUND('',#191,.T.);
#191=EDGE_LOOP('',(#701,#702,#703,#704));
#192=CYLINDRICAL_SURFACE('',#193,3.95);
#193=AXIS2_PLACEMENT_3D('',#194,#195,#196);
#194=CARTESIAN_POINT('',(-15.,3.67394039744238E-15,-1.2));
#195=DIRECTION('',(0.,0.,1.));
#196=DIRECTION('',(-0.348333333333333,0.937370731828602,0.));
#197=FACE_OUTER_BOUND('',#198,.T.);
#198=EDGE_LOOP('',(#705));
#199=FACE_OUTER_BOUND('',#200,.T.);
#200=EDGE_LOOP('',(#706));
#201=CYLINDRICAL_SURFACE('',#202,1.6);
#202=AXIS2_PLACEMENT_3D('',#203,#204,#205);
#203=CARTESIAN_POINT('',(15.,-1.83697019872103E-15,-1.2));
#204=DIRECTION('',(0.,0.,1.));
#205=DIRECTION('',(-1.,1.22464679914735E-16,0.));
#206=FACE_OUTER_BOUND('',#207,.T.);
#207=EDGE_LOOP('',(#707));
#208=FACE_OUTER_BOUND('',#209,.T.);
#209=EDGE_LOOP('',(#708));
#210=CYLINDRICAL_SURFACE('',#211,1.6);
#211=AXIS2_PLACEMENT_3D('',#212,#213,#214);
#212=CARTESIAN_POINT('',(-15.,3.67394039744238E-15,-1.2));
#213=DIRECTION('',(0.,0.,1.));
#214=DIRECTION('',(-1.,1.22464679914735E-16,0.));
#215=FACE_BOUND('',#216,.T.);
#216=EDGE_LOOP('',(#709,#710,#711,#712));
#217=FACE_BOUND('',#218,.T.);
#218=EDGE_LOOP('',(#713,#714,#715,#716,#717,#718));
#219=PLANE('',#220);
#220=AXIS2_PLACEMENT_3D('',#221,#222,#223);
#221=CARTESIAN_POINT('',(0.,0.,2.));
#222=DIRECTION('',(0.,0.,1.));
#223=DIRECTION('',(-1.,1.22464679914735E-16,0.));
#224=FACE_BOUND('',#225,.T.);
#225=EDGE_LOOP('',(#719,#720,#721,#722));
#226=FACE_BOUND('',#227,.T.);
#227=EDGE_LOOP('',(#723,#724,#725,#726,#727,#728));
#228=PLANE('',#229);
#229=AXIS2_PLACEMENT_3D('',#230,#231,#232);
#230=CARTESIAN_POINT('',(0.,0.,2.));
#231=DIRECTION('',(0.,0.,1.));
#232=DIRECTION('',(-1.,1.22464679914735E-16,0.));
#233=FACE_BOUND('',#234,.T.);
#234=EDGE_LOOP('',(#729,#730,#731,#732,#733,#734));
#235=FACE_BOUND('',#236,.T.);
#236=EDGE_LOOP('',(#735));
#237=PLANE('',#238);
#238=AXIS2_PLACEMENT_3D('',#239,#240,#241);
#239=CARTESIAN_POINT('',(0.,0.,0.));
#240=DIRECTION('',(0.,0.,1.));
#241=DIRECTION('',(-1.,1.22464679914735E-16,0.));
#242=FACE_BOUND('',#243,.T.);
#243=EDGE_LOOP('',(#736,#737,#738,#739,#740,#741));
#244=FACE_BOUND('',#245,.T.);
#245=EDGE_LOOP('',(#742));
#246=PLANE('',#247);
#247=AXIS2_PLACEMENT_3D('',#248,#249,#250);
#248=CARTESIAN_POINT('',(0.,0.,0.));
#249=DIRECTION('',(0.,0.,1.));
#250=DIRECTION('',(-1.,1.22464679914735E-16,0.));
#251=FACE_BOUND('',#252,.T.);
#252=EDGE_LOOP('',(#743,#744,#745,#746));
#253=PLANE('',#254);
#254=AXIS2_PLACEMENT_3D('',#255,#256,#257);
#255=CARTESIAN_POINT('',(-12.1,1.67431578064991,0.));
#256=DIRECTION('',(0.500000000000002,0.866025403784437,0.));
#257=DIRECTION('',(-0.866025403784437,0.500000000000002,0.));
#258=FACE_BOUND('',#259,.T.);
#259=EDGE_LOOP('',(#747,#748,#749,#750));
#260=PLANE('',#261);
#261=AXIS2_PLACEMENT_3D('',#262,#263,#264);
#262=CARTESIAN_POINT('',(-12.1,-1.67431578064991,0.));
#263=DIRECTION('',(1.,0.,0.));
#264=DIRECTION('',(0.,1.,0.));
#265=FACE_BOUND('',#266,.T.);
#266=EDGE_LOOP('',(#751,#752,#753,#754));
#267=PLANE('',#268);
#268=AXIS2_PLACEMENT_3D('',#269,#270,#271);
#269=CARTESIAN_POINT('',(-15.,-3.34863156129983,0.));
#270=DIRECTION('',(0.500000000000003,-0.866025403784437,0.));
#271=DIRECTION('',(0.866025403784437,0.500000000000003,0.));
#272=FACE_BOUND('',#273,.T.);
#273=EDGE_LOOP('',(#755,#756,#757,#758));
#274=PLANE('',#275);
#275=AXIS2_PLACEMENT_3D('',#276,#277,#278);
#276=CARTESIAN_POINT('',(-17.9,-1.67431578064991,0.));
#277=DIRECTION('',(-0.5,-0.866025403784439,0.));
#278=DIRECTION('',(0.866025403784439,-0.5,0.));
#279=FACE_BOUND('',#280,.T.);
#280=EDGE_LOOP('',(#759,#760,#761,#762));
#281=PLANE('',#282);
#282=AXIS2_PLACEMENT_3D('',#283,#284,#285);
#283=CARTESIAN_POINT('',(-17.9,1.67431578064992,0.));
#284=DIRECTION('',(-1.,5.3047246520926E-15,0.));
#285=DIRECTION('',(-5.3047246520926E-15,-1.,0.));
#286=FACE_BOUND('',#287,.T.);
#287=EDGE_LOOP('',(#763,#764,#765,#766));
#288=PLANE('',#289);
#289=AXIS2_PLACEMENT_3D('',#290,#291,#292);
#290=CARTESIAN_POINT('',(-15.,3.34863156129983,0.));
#291=DIRECTION('',(-0.500000000000001,0.866025403784438,0.));
#292=DIRECTION('',(-0.866025403784438,-0.500000000000001,0.));
#293=FACE_BOUND('',#294,.T.);
#294=EDGE_LOOP('',(#767,#768,#769,#770));
#295=PLANE('',#296);
#296=AXIS2_PLACEMENT_3D('',#297,#298,#299);
#297=CARTESIAN_POINT('',(12.1,-1.67431578064991,0.));
#298=DIRECTION('',(-0.5,-0.866025403784439,0.));
#299=DIRECTION('',(0.866025403784439,-0.5,0.));
#300=FACE_BOUND('',#301,.T.);
#301=EDGE_LOOP('',(#771,#772,#773,#774));
#302=PLANE('',#303);
#303=AXIS2_PLACEMENT_3D('',#304,#305,#306);
#304=CARTESIAN_POINT('',(12.1,1.67431578064991,0.));
#305=DIRECTION('',(-1.,0.,0.));
#306=DIRECTION('',(0.,-1.,0.));
#307=FACE_BOUND('',#308,.T.);
#308=EDGE_LOOP('',(#775,#776,#777,#778));
#309=PLANE('',#310);
#310=AXIS2_PLACEMENT_3D('',#311,#312,#313);
#311=CARTESIAN_POINT('',(15.,3.34863156129984,0.));
#312=DIRECTION('',(-0.500000000000002,0.866025403784437,0.));
#313=DIRECTION('',(-0.866025403784437,-0.500000000000002,0.));
#314=FACE_BOUND('',#315,.T.);
#315=EDGE_LOOP('',(#779,#780,#781,#782));
#316=PLANE('',#317);
#317=AXIS2_PLACEMENT_3D('',#318,#319,#320);
#318=CARTESIAN_POINT('',(17.9,1.67431578064992,0.));
#319=DIRECTION('',(0.5,0.866025403784439,0.));
#320=DIRECTION('',(-0.866025403784439,0.5,0.));
#321=FACE_BOUND('',#322,.T.);
#322=EDGE_LOOP('',(#783,#784,#785,#786));
#323=PLANE('',#324);
#324=AXIS2_PLACEMENT_3D('',#325,#326,#327);
#325=CARTESIAN_POINT('',(17.9,-1.67431578064992,0.));
#326=DIRECTION('',(1.,-2.12188986083703E-15,0.));
#327=DIRECTION('',(2.12188986083703E-15,1.,0.));
#328=FACE_BOUND('',#329,.T.);
#329=EDGE_LOOP('',(#787,#788,#789,#790));
#330=PLANE('',#331);
#331=AXIS2_PLACEMENT_3D('',#332,#333,#334);
#332=CARTESIAN_POINT('',(15.,-3.34863156129983,0.));
#333=DIRECTION('',(0.499999999999999,-0.866025403784439,0.));
#334=DIRECTION('',(0.866025403784439,0.499999999999999,0.));
#335=FACE_OUTER_BOUND('',#336,.T.);
#336=EDGE_LOOP('',(#791));
#337=FACE_OUTER_BOUND('',#338,.T.);
#338=EDGE_LOOP('',(#792));
#339=TOROIDAL_SURFACE('',#340,8.675,0.5);
#340=AXIS2_PLACEMENT_3D('',#341,#342,#343);
#341=CARTESIAN_POINT('',(0.,0.,3.5));
#342=DIRECTION('',(0.,0.,1.));
#343=DIRECTION('',(-0.348333333333332,-0.937370731828602,0.));
#344=FACE_OUTER_BOUND('',#345,.T.);
#345=EDGE_LOOP('',(#793));
#346=FACE_OUTER_BOUND('',#347,.T.);
#347=EDGE_LOOP('',(#794));
#348=TOROIDAL_SURFACE('',#349,5.65,0.5);
#349=AXIS2_PLACEMENT_3D('',#350,#351,#352);
#350=CARTESIAN_POINT('',(0.,0.,1.6));
#351=DIRECTION('',(0.,0.,1.));
#352=DIRECTION('',(-1.,2.23230520912539E-16,0.));
#353=FACE_BOUND('',#354,.T.);
#354=EDGE_LOOP('',(#795,#796,#797,#798));
#355=TOROIDAL_SURFACE('',#356,9.675,0.5);
#356=AXIS2_PLACEMENT_3D('',#357,#358,#359);
#357=CARTESIAN_POINT('',(0.,0.,2.5));
#358=DIRECTION('',(0.,0.,1.));
#359=DIRECTION('',(0.148522610631006,-0.988909012058921,0.));
#360=FACE_BOUND('',#361,.T.);
#361=EDGE_LOOP('',(#799,#800,#801,#802));
#362=TOROIDAL_SURFACE('',#363,9.675,0.5);
#363=AXIS2_PLACEMENT_3D('',#364,#365,#366);
#364=CARTESIAN_POINT('',(0.,0.,2.5));
#365=DIRECTION('',(0.,0.,1.));
#366=DIRECTION('',(-0.148522610631006,0.988909012058921,0.));
#367=FACE_BOUND('',#368,.T.);
#368=EDGE_LOOP('',(#803,#804,#805));
#369=(BOUNDED_SURFACE()B_SPLINE_SURFACE(3,2,(
(#370,#371,#372),
(#373,#374,#375),
(#376,#377,#378),
(#379,#380,#381),
(#382,#383,#384),
(#385,#386,#387),
(#388,#389,#390),
(#391,#392,#393),
(#394,#395,#396),
(#397,#398,#399),
(#400,#401,#402),
(#403,#404,#405),
(#406,#407,#408),
(#409,#410,#411),
(#412,#413,#414),
(#415,#416,#417),
(#418,#419,#420),
(#421,#422,#423),
(#424,#425,#426)),
.UNSPECIFIED.,.F.,.F.,.F.)B_SPLINE_SURFACE_WITH_KNOTS((4,1,1,1,1,1,1,1,1,1,1,1,1,
1,1,1,4),
(3,3),
(0.695107123883025,1.26461416795593,1.46652656579148,1.65117277586766,1.82623040951893,
2.00128804317019,2.19243948959568,2.40175320483472,2.65175224084936,2.91583564510799,
3.24796530684975,3.69374574413766,4.22767502626765,4.82638344808522,5.41649225137775,
5.97685127569643,7.),
(0.,1.),
.UNSPECIFIED.)GEOMETRIC_REPRESENTATION_ITEM()RATIONAL_B_SPLINE_SURFACE((
(1.,0.707088464889186,1.),
(1.,0.726388950656243,1.),
(1.,0.751140231563816,1.),
(1.,0.779192599775685,1.),
(1.,0.794885365866286,1.),
(1.,0.80909454189938,1.),
(1.,0.822775032414263,1.),
(1.,0.836728400361721,1.),
(1.,0.85166105115793,1.),
(1.,0.86739139416172,1.),
(1.,0.884587964330218,1.),
(1.,0.904101169614646,1.),
(1.,0.925997359469678,1.),
(1.,0.948462968173971,1.),
(1.,0.968203255117812,1.),
(1.,0.983336831760521,1.),
(1.,0.996303864126669,1.),
(1.,1.00000124436929,1.),
(1.,1.,1.)))REPRESENTATION_ITEM('')SURFACE());
#370=CARTESIAN_POINT('',(7.21137397766767,-7.10822072655038,1.50000009553839));
#371=CARTESIAN_POINT('',(7.21143550744841,-7.10819786166577,2.00002094421916));
#372=CARTESIAN_POINT('',(7.03729591876163,-6.63947594854271,2.00000000080708));
#373=CARTESIAN_POINT('',(7.08750476988394,-7.1542513658477,1.49973151508565));
#374=CARTESIAN_POINT('',(7.09849257670936,-7.15016822216979,1.97339519344414));
#375=CARTESIAN_POINT('',(6.93458566376652,-6.70556957215098,1.99999305134711));
#376=CARTESIAN_POINT('',(6.91287729434075,-7.21914412234424,1.50705067910119));
#377=CARTESIAN_POINT('',(6.93611272294103,-7.21050967919284,1.94649160183838));
#378=CARTESIAN_POINT('',(6.78772932022206,-6.79888110560702,2.00361398249054));
#379=CARTESIAN_POINT('',(6.69688600739135,-7.29940795222431,1.52653569408483));
#380=CARTESIAN_POINT('',(6.72702543575913,-7.28820793584698,1.92743455218154));
#381=CARTESIAN_POINT('',(6.60238048316112,-6.91406698802398,2.01315521292528));
#382=CARTESIAN_POINT('',(6.56646192306132,-7.34787442818627,1.54095750901407));
#383=CARTESIAN_POINT('',(6.60589260142719,-7.3332217201761,1.9204012361769));
#384=CARTESIAN_POINT('',(6.48924270306035,-6.9833785968343,2.02043296990509));
#385=CARTESIAN_POINT('',(6.44581322072835,-7.39270830577493,1.55651383687435));
#386=CARTESIAN_POINT('',(6.49115293855792,-7.37585975854841,1.91668189210837));
#387=CARTESIAN_POINT('',(6.3835357450591,-7.04734568599992,2.02835026024567));
#388=CARTESIAN_POINT('',(6.32496983279868,-7.43761452985419,1.57470420258405));
#389=CARTESIAN_POINT('',(6.37538388227528,-7.41888032650782,1.91602821608025));
#390=CARTESIAN_POINT('',(6.27667547213283,-7.11141266126504,2.03730906271176));
#391=CARTESIAN_POINT('',(6.19640716024485,-7.48538929255193,1.59590465848966));
#392=CARTESIAN_POINT('',(6.25222072938257,-7.46464859101002,1.91789337175194));
#393=CARTESIAN_POINT('',(6.16191963855784,-7.1792322193397,2.0479888108474));
#394=CARTESIAN_POINT('',(6.05567373723329,-7.53768678881938,1.6219036581366));
#395=CARTESIAN_POINT('',(6.11321455082707,-7.51630423150106,1.92362472377887));
#396=CARTESIAN_POINT('',(6.0349920615828,-7.25327756277435,2.06090600988012));
#397=CARTESIAN_POINT('',(5.89579235288089,-7.59709979763051,1.65409142685397));
#398=CARTESIAN_POINT('',(5.95812977632067,-7.5739347875007,1.93366868565311));
#399=CARTESIAN_POINT('',(5.88920187279834,-7.33684924038914,2.07710427695059));
#400=CARTESIAN_POINT('',(5.70879502144432,-7.66658927662956,1.69589609278819));
#401=CARTESIAN_POINT('',(5.77677280257192,-7.64132827125703,1.95009440292993));
#402=CARTESIAN_POINT('',(5.71646369403835,-7.4340800805444,2.09784330538901));
#403=CARTESIAN_POINT('',(5.48120487343891,-7.75116332209171,1.75101863846659));
#404=CARTESIAN_POINT('',(5.55403134485771,-7.72410051046035,1.97615703624867));
#405=CARTESIAN_POINT('',(5.50328454711194,-7.55100867957431,2.12562820063018));
#406=CARTESIAN_POINT('',(5.20389440952733,-7.85421377479155,1.82558427765051));
#407=CARTESIAN_POINT('',(5.27410070042454,-7.82812464004603,2.01743931828441));
#408=CARTESIAN_POINT('',(5.23879978260153,-7.69169627291464,2.16273332774472));
#409=CARTESIAN_POINT('',(4.88144318934855,-7.97403883924942,1.92007050605225));
#410=CARTESIAN_POINT('',(4.93784920660997,-7.95307797995909,2.07783422383081));
#411=CARTESIAN_POINT('',(4.92510924845792,-7.85168085686183,2.21001692725367));
#412=CARTESIAN_POINT('',(4.53185490246205,-8.10394822209084,2.03098648117725));
#413=CARTESIAN_POINT('',(4.57202184112541,-8.08902191475126,2.15453018878442));
#414=CARTESIAN_POINT('',(4.57775599131546,-8.02014241971136,2.26539515910087));
#415=CARTESIAN_POINT('',(4.17204434053663,-8.23765627179656,2.15140875621427));
#416=CARTESIAN_POINT('',(4.20197127401215,-8.22653521996509,2.24089652511438));
#417=CARTESIAN_POINT('',(4.21369838396913,-8.18693327234193,2.32593050790556));
#418=CARTESIAN_POINT('',(3.72618434855546,-8.40334087441243,2.30829005015324));
#419=CARTESIAN_POINT('',(3.74488723733703,-8.39639075385603,2.35506134516461));
#420=CARTESIAN_POINT('',(3.75392481791256,-8.38524162822274,2.40393941563258));
#421=CARTESIAN_POINT('',(3.40099381376309,-8.52418388679421,2.42550209753059));
#422=CARTESIAN_POINT('',(3.41063623509452,-8.5206006975077,2.44330770249271));
#423=CARTESIAN_POINT('',(3.41299380477521,-8.51971404632046,2.46289101485028));
#424=CARTESIAN_POINT('',(3.19595833333332,-8.60037646452743,2.5));
#425=CARTESIAN_POINT('',(3.19595833333332,-8.60037646452743,2.5));
#426=CARTESIAN_POINT('',(3.19595833333332,-8.60037646452743,2.5));
#427=FACE_BOUND('',#428,.T.);
#428=EDGE_LOOP('',(#806,#807,#808,#809));
#429=CYLINDRICAL_SURFACE('',#430,0.5);
#430=AXIS2_PLACEMENT_3D('',#431,#432,#433);
#431=CARTESIAN_POINT('',(4.02479361630713,-7.75896875878016,1.5));
#432=DIRECTION('',(0.937370731828602,0.348333333333334,0.));
#433=DIRECTION('',(-5.80011543837179E-16,1.5608206085618E-15,1.));
#434=FACE_BOUND('',#435,.T.);
#435=EDGE_LOOP('',(#810,#811,#812,#813));
#436=TOROIDAL_SURFACE('',#437,3.45,0.5);
#437=AXIS2_PLACEMENT_3D('',#438,#439,#440);
#438=CARTESIAN_POINT('',(15.,-1.83697019872103E-15,1.5));
#439=DIRECTION('',(0.,0.,1.));
#440=DIRECTION('',(0.0658896500770202,-0.997826915859022,0.));
#441=FACE_BOUND('',#442,.T.);
#442=EDGE_LOOP('',(#814,#815,#816,#817));
#443=CYLINDRICAL_SURFACE('',#444,0.5);
#444=AXIS2_PLACEMENT_3D('',#445,#446,#447);
#445=CARTESIAN_POINT('',(18.0764914636572,2.53726235814201,1.5));
#446=DIRECTION('',(-0.937370731828602,0.348333333333334,0.));
#447=DIRECTION('',(0.,0.,1.));
#448=FACE_BOUND('',#449,.T.);
#449=EDGE_LOOP('',(#818,#819,#820));
#450=(BOUNDED_SURFACE()B_SPLINE_SURFACE(3,2,(
(#451,#452,#453),
(#454,#455,#456),
(#457,#458,#459),
(#460,#461,#462),
(#463,#464,#465),
(#466,#467,#468),
(#469,#470,#471),
(#472,#473,#474),
(#475,#476,#477),
(#478,#479,#480),
(#481,#482,#483),
(#484,#485,#486),
(#487,#488,#489),
(#490,#491,#492),
(#493,#494,#495),
(#496,#497,#498),
(#499,#500,#501),
(#502,#503,#504),
(#505,#506,#507)),
.UNSPECIFIED.,.F.,.F.,.F.)B_SPLINE_SURFACE_WITH_KNOTS((4,1,1,1,1,1,1,1,1,1,1,1,1,
1,1,1,4),
(3,3),
(0.695107123882921,1.26461416797084,1.46652656580997,1.65117277588723,1.82623040953634,
2.00128804318545,2.19243948961069,2.40175320485182,2.65175224086571,2.91583564512374,
3.24796530686444,3.69374574415292,4.22767502628363,4.82638344810601,5.41649225137026,
5.97685127565231,7.),
(0.,1.),
.UNSPECIFIED.)GEOMETRIC_REPRESENTATION_ITEM()RATIONAL_B_SPLINE_SURFACE((
(1.,0.707088464889185,1.),
(1.,0.72638895065675,1.),
(1.,0.751140231564886,1.),
(1.,0.779192599777212,1.),
(1.,0.794885365867807,1.),
(1.,0.809094541900734,1.),
(1.,0.822775032415448,1.),
(1.,0.836728400362843,1.),
(1.,0.851661051159018,1.),
(1.,0.867391394162757,1.),
(1.,0.884587964331132,1.),
(1.,0.904101169615454,1.),
(1.,0.92599735947039,1.),
(1.,0.948462968174646,1.),
(1.,0.968203255118073,1.),
(1.,0.98333683176021,1.),
(1.,0.996303864126492,1.),
(1.,1.00000124436929,1.),
(1.,1.,1.)))REPRESENTATION_ITEM('')SURFACE());
#451=CARTESIAN_POINT('',(7.21137397766767,7.10822072655038,1.50000009553839));
#452=CARTESIAN_POINT('',(7.21143550744841,7.10819786166577,2.00002094421916));
#453=CARTESIAN_POINT('',(7.03729591876163,6.63947594854271,2.00000000080708));
#454=CARTESIAN_POINT('',(7.08750476988086,7.15425136584884,1.49973151508563));
#455=CARTESIAN_POINT('',(7.09849257670655,7.15016822217084,1.97339519344345));
#456=CARTESIAN_POINT('',(6.93458566376397,6.70556957215262,1.9999930513471));
#457=CARTESIAN_POINT('',(6.91287729433356,7.21914412234691,1.50705067910155));
#458=CARTESIAN_POINT('',(6.93611272293398,7.21050967919546,1.9464916018373));
#459=CARTESIAN_POINT('',(6.78772932021599,6.79888110561087,2.00361398249071));
#460=CARTESIAN_POINT('',(6.69688600738005,7.29940795222851,1.52653569408597));
#461=CARTESIAN_POINT('',(6.72702543574769,7.28820793585123,1.92743455218067));
#462=CARTESIAN_POINT('',(6.60238048315137,6.91406698803001,2.01315521292583));
#463=CARTESIAN_POINT('',(6.56646192304936,7.34787442819072,1.54095750901547));
#464=CARTESIAN_POINT('',(6.60589260141518,7.33322172018055,1.92040123617635));
#465=CARTESIAN_POINT('',(6.48924270304992,6.98337859684064,2.02043296990583));
#466=CARTESIAN_POINT('',(6.4458132207169,7.39270830577919,1.55651383687598));
#467=CARTESIAN_POINT('',(6.49115293854668,7.37585975855259,1.91668189210819));
#468=CARTESIAN_POINT('',(6.38353574504901,7.04734568600601,2.02835026024647));
#469=CARTESIAN_POINT('',(6.32496983278789,7.4376145298582,1.57470420258575));
#470=CARTESIAN_POINT('',(6.37538388226501,7.41888032651163,1.9160282160803));
#471=CARTESIAN_POINT('',(6.27667547212324,7.11141266127075,2.03730906271261));
#472=CARTESIAN_POINT('',(6.19640716023441,7.4853892925558,1.5959046584915));
#473=CARTESIAN_POINT('',(6.25222072937239,7.46464859101381,1.91789337175224));
#474=CARTESIAN_POINT('',(6.16191963854847,7.17923221934521,2.04798881084831));
#475=CARTESIAN_POINT('',(6.05567373722279,7.53768678882329,1.62190365813863));
#476=CARTESIAN_POINT('',(6.11321455081665,7.51630423150494,1.92362472377942));
#477=CARTESIAN_POINT('',(6.03499206157328,7.25327756277986,2.06090600988114));
#478=CARTESIAN_POINT('',(5.89579235287047,7.59709979763437,1.6540914268562));
#479=CARTESIAN_POINT('',(5.95812977631006,7.57393478750464,1.93366868565395));
#480=CARTESIAN_POINT('',(5.88920187278878,7.33684924039456,2.07710427695169));
#481=CARTESIAN_POINT('',(5.70879502143417,7.66658927663333,1.69589609279056));
#482=CARTESIAN_POINT('',(5.77677280256183,7.64132827126078,1.95009440293099));
#483=CARTESIAN_POINT('',(5.7164636940289,7.43408008054966,2.0978433053902));
#484=CARTESIAN_POINT('',(5.48120487342908,7.75116332209536,1.75101863846912));
#485=CARTESIAN_POINT('',(5.55403134484788,7.72410051046401,1.97615703624999));
#486=CARTESIAN_POINT('',(5.50328454710264,7.55100867957933,2.12562820063144));
#487=CARTESIAN_POINT('',(5.20389440951721,7.85421377479532,1.82558427765333));
#488=CARTESIAN_POINT('',(5.2741007004147,7.82812464004968,2.01743931828603));
#489=CARTESIAN_POINT('',(5.23879978259179,7.69169627291971,2.16273332774615));
#490=CARTESIAN_POINT('',(4.88144318933968,7.97403883925272,1.92007050605499));
#491=CARTESIAN_POINT('',(4.93784920659889,7.95307797996322,2.07783422383298));
#492=CARTESIAN_POINT('',(4.92510924844919,7.85168085686617,2.21001692725503));
#493=CARTESIAN_POINT('',(4.53185490245859,8.10394822209213,2.03098648117846));
#494=CARTESIAN_POINT('',(4.57202184111909,8.0890219147536,2.15453018878588));
#495=CARTESIAN_POINT('',(4.5777559913119,8.02014241971297,2.26539515910146));
#496=CARTESIAN_POINT('',(4.17204434054407,8.23765627179379,2.15140875621177));
#497=CARTESIAN_POINT('',(4.20197127401848,8.22653521996273,2.24089652511296));
#498=CARTESIAN_POINT('',(4.21369838397664,8.18693327233846,2.32593050790431));
#499=CARTESIAN_POINT('',(3.72618434856482,8.40334087440896,2.30829005014987));
#500=CARTESIAN_POINT('',(3.74488723734798,8.39639075385197,2.3550613451617));
#501=CARTESIAN_POINT('',(3.75392481792236,8.38524162821877,2.4039394156309));
#502=CARTESIAN_POINT('',(3.40099381377033,8.52418388679152,2.42550209752788));
#503=CARTESIAN_POINT('',(3.41063623510379,8.52060069750424,2.44330770249032));
#504=CARTESIAN_POINT('',(3.4129938047829,8.51971404631761,2.46289101484895));
#505=CARTESIAN_POINT('',(3.19595833333332,8.60037646452743,2.5));
#506=CARTESIAN_POINT('',(3.19595833333332,8.60037646452743,2.5));
#507=CARTESIAN_POINT('',(3.19595833333332,8.60037646452743,2.5));
#508=FACE_BOUND('',#509,.T.);
#509=EDGE_LOOP('',(#821,#822,#823));
#510=(BOUNDED_SURFACE()B_SPLINE_SURFACE(3,2,(
(#511,#512,#513),
(#514,#515,#516),
(#517,#518,#519),
(#520,#521,#522),
(#523,#524,#525),
(#526,#527,#528),
(#529,#530,#531),
(#532,#533,#534),
(#535,#536,#537),
(#538,#539,#540),
(#541,#542,#543),
(#544,#545,#546),
(#547,#548,#549),
(#550,#551,#552),
(#553,#554,#555),
(#556,#557,#558),
(#559,#560,#561),
(#562,#563,#564),
(#565,#566,#567)),
.UNSPECIFIED.,.F.,.F.,.F.)B_SPLINE_SURFACE_WITH_KNOTS((4,1,1,1,1,1,1,1,1,1,1,1,1,
1,1,1,4),
(3,3),
(0.695107123884175,1.26461416796141,1.4665265657998,1.65117277587676,1.82623040952451,
2.00128804317226,2.19243948959553,2.40175320483464,2.65175224084991,2.91583564510945,
3.24796530685317,3.69374574414384,4.22767502627682,4.82638344809511,5.41649225138084,
5.97685127569664,7.),
(0.,1.),
.UNSPECIFIED.)GEOMETRIC_REPRESENTATION_ITEM()RATIONAL_B_SPLINE_SURFACE((
(1.,0.707088464889185,1.),
(1.,0.726388950656393,1.),
(1.,0.751140231564193,1.),
(1.,0.779192599776257,1.),
(1.,0.794885365866834,1.),
(1.,0.809094541899736,1.),
(1.,0.82277503241438,1.),
(1.,0.836728400361702,1.),
(1.,0.851661051157883,1.),
(1.,0.867391394161712,1.),
(1.,0.884587964330284,1.),
(1.,0.90410116961481,1.),
(1.,0.925997359469947,1.),
(1.,0.948462968174281,1.),
(1.,0.968203255118014,1.),
(1.,0.9833368317606,1.),
(1.,0.996303864126672,1.),
(1.,1.0000012443693,1.),
(1.,1.,1.)))REPRESENTATION_ITEM('')SURFACE());
#511=CARTESIAN_POINT('',(-7.21137397766766,7.10822072655038,1.50000009553839));
#512=CARTESIAN_POINT('',(-7.21143550744841,7.10819786166577,2.00002094421916));
#513=CARTESIAN_POINT('',(-7.03729591876163,6.63947594854271,2.00000000080708));
#514=CARTESIAN_POINT('',(-7.08750476988302,7.15425136584804,1.49973151508565));
#515=CARTESIAN_POINT('',(-7.09849257670852,7.1501682221701,1.97339519344393));
#516=CARTESIAN_POINT('',(-6.93458566376577,6.70556957215147,1.99999305134711));
#517=CARTESIAN_POINT('',(-6.9128772943383,7.21914412234515,1.50705067910131));
#518=CARTESIAN_POINT('',(-6.93611272293856,7.21050967919376,1.94649160183799));
#519=CARTESIAN_POINT('',(-6.78772932021999,6.79888110560834,2.0036139824906));
#520=CARTESIAN_POINT('',(-6.69688600738742,7.29940795222577,1.52653569408523));
#521=CARTESIAN_POINT('',(-6.72702543575485,7.28820793584856,1.92743455218121));
#522=CARTESIAN_POINT('',(-6.60238048315773,6.91406698802608,2.01315521292547));
#523=CARTESIAN_POINT('',(-6.56646192305733,7.34787442818777,1.54095750901454));
#524=CARTESIAN_POINT('',(-6.60589260142284,7.33322172017771,1.9204012361767));
#525=CARTESIAN_POINT('',(-6.48924270305687,6.98337859683643,2.02043296990534));
#526=CARTESIAN_POINT('',(-6.4458132207255,7.39270830577599,1.55651383687477));
#527=CARTESIAN_POINT('',(-6.49115293855491,7.37585975854953,1.91668189210834));
#528=CARTESIAN_POINT('',(-6.38353574505658,7.04734568600144,2.02835026024587));
#529=CARTESIAN_POINT('',(-6.32496983279737,7.43761452985468,1.57470420258426));
#530=CARTESIAN_POINT('',(-6.37538388227422,7.41888032650821,1.91602821608027));
#531=CARTESIAN_POINT('',(-6.27667547213166,7.11141266126573,2.03730906271186));
#532=CARTESIAN_POINT('',(-6.19640716024471,7.48538929255198,1.59590465848969));
#533=CARTESIAN_POINT('',(-6.25222072938272,7.46464859100997,1.91789337175194));
#534=CARTESIAN_POINT('',(-6.16191963855771,7.17923221933978,2.04798881084741));
#535=CARTESIAN_POINT('',(-6.05567373723353,7.5376867888193,1.62190365813656));
#536=CARTESIAN_POINT('',(-6.11321455082753,7.5163042315009,1.92362472377884));
#537=CARTESIAN_POINT('',(-6.03499206158302,7.25327756277423,2.06090600988009));
#538=CARTESIAN_POINT('',(-5.89579235288083,7.59709979763052,1.65409142685398));
#539=CARTESIAN_POINT('',(-5.95812977632077,7.57393478750067,1.9336686856531));
#540=CARTESIAN_POINT('',(-5.88920187279829,7.33684924038916,2.07710427695059));
#541=CARTESIAN_POINT('',(-5.70879502144347,7.66658927662988,1.69589609278838));
#542=CARTESIAN_POINT('',(-5.77677280257124,7.64132827125728,1.95009440292999));
#543=CARTESIAN_POINT('',(-5.71646369403757,7.43408008054485,2.09784330538911));
#544=CARTESIAN_POINT('',(-5.48120487343682,7.75116332209247,1.75101863846711));
#545=CARTESIAN_POINT('',(-5.55403134485579,7.72410051046107,1.97615703624891));
#546=CARTESIAN_POINT('',(-5.50328454710997,7.55100867957537,2.12562820063044));
#547=CARTESIAN_POINT('',(-5.20389440952383,7.85421377479287,1.82558427765148));
#548=CARTESIAN_POINT('',(-5.27410070042093,7.82812464004737,2.01743931828498));
#549=CARTESIAN_POINT('',(-5.23879978259817,7.69169627291641,2.16273332774521));
#550=CARTESIAN_POINT('',(-4.88144318934425,7.97403883925102,1.92007050605357));
#551=CARTESIAN_POINT('',(-4.93784920660492,7.95307797996097,2.0778342238318));
#552=CARTESIAN_POINT('',(-4.92510924845369,7.85168085686394,2.21001692725433));
#553=CARTESIAN_POINT('',(-4.53185490245812,8.1039482220923,2.03098648117855));
#554=CARTESIAN_POINT('',(-4.57202184112094,8.08902191475292,2.15453018878543));
#555=CARTESIAN_POINT('',(-4.5777559913115,8.02014241971322,2.26539515910152));
#556=CARTESIAN_POINT('',(-4.17204434053341,8.23765627179775,2.15140875621538));
#557=CARTESIAN_POINT('',(-4.20197127400952,8.22653521996606,2.24089652511503));
#558=CARTESIAN_POINT('',(-4.21369838396583,8.18693327234338,2.32593050790612));
#559=CARTESIAN_POINT('',(-3.72618434855368,8.40334087441309,2.30829005015386));
#560=CARTESIAN_POINT('',(-3.74488723733642,8.39639075385626,2.35506134516477));
#561=CARTESIAN_POINT('',(-3.75392481791069,8.3852416282235,2.40393941563289));
#562=CARTESIAN_POINT('',(-3.40099381376217,8.52418388679456,2.42550209753101));
#563=CARTESIAN_POINT('',(-3.4106362350945,8.5206006975077,2.44330770249272));
#564=CARTESIAN_POINT('',(-3.41299380477423,8.51971404632083,2.46289101485048));
#565=CARTESIAN_POINT('',(-3.19595833333331,8.60037646452744,2.5));
#566=CARTESIAN_POINT('',(-3.19595833333331,8.60037646452744,2.5));
#567=CARTESIAN_POINT('',(-3.19595833333331,8.60037646452743,2.5));
#568=FACE_BOUND('',#569,.T.);
#569=EDGE_LOOP('',(#824,#825,#826,#827));
#570=CYLINDRICAL_SURFACE('',#571,0.5);
#571=AXIS2_PLACEMENT_3D('',#572,#573,#574);
#572=CARTESIAN_POINT('',(-4.02479361630707,7.75896875878018,1.5));
#573=DIRECTION('',(-0.937370731828602,-0.348333333333333,0.));
#574=DIRECTION('',(-5.80011543837179E-16,1.5608206085618E-15,1.));
#575=FACE_BOUND('',#576,.T.);
#576=EDGE_LOOP('',(#828,#829,#830,#831));
#577=TOROIDAL_SURFACE('',#578,3.45,0.5);
#578=AXIS2_PLACEMENT_3D('',#579,#580,#581);
#579=CARTESIAN_POINT('',(-15.,3.67394039744238E-15,1.5));
#580=DIRECTION('',(0.,0.,1.));
#581=DIRECTION('',(-0.0658896500770193,0.997826915859022,0.));
#582=FACE_BOUND('',#583,.T.);
#583=EDGE_LOOP('',(#832,#833,#834,#835));
#584=CYLINDRICAL_SURFACE('',#585,0.5);
#585=AXIS2_PLACEMENT_3D('',#586,#587,#588);
#586=CARTESIAN_POINT('',(-18.0764914636572,-2.53726235814201,1.5));
#587=DIRECTION('',(0.937370731828602,-0.348333333333334,0.));
#588=DIRECTION('',(0.,0.,1.));
#589=FACE_BOUND('',#590,.T.);
#590=EDGE_LOOP('',(#836,#837,#838));
#591=(BOUNDED_SURFACE()B_SPLINE_SURFACE(3,2,(
(#592,#593,#594),
(#595,#596,#597),
(#598,#599,#600),
(#601,#602,#603),
(#604,#605,#606),
(#607,#608,#609),
(#610,#611,#612),
(#613,#614,#615),
(#616,#617,#618),
(#619,#620,#621),
(#622,#623,#624),
(#625,#626,#627),
(#628,#629,#630),
(#631,#632,#633),
(#634,#635,#636),
(#637,#638,#639),
(#640,#641,#642),
(#643,#644,#645),
(#646,#647,#648)),
.UNSPECIFIED.,.F.,.F.,.F.)B_SPLINE_SURFACE_WITH_KNOTS((4,1,1,1,1,1,1,1,1,1,1,1,1,
1,1,1,4),
(3,3),
(0.695107123884016,1.26461416795344,1.46652656578801,1.65117277586386,1.82623040951595,
2.00128804316804,2.19243948959347,2.40175320483052,2.65175224084498,2.9158356451047,
3.24796530684957,3.69374574414116,4.22767502627618,4.82638344809648,5.41649225135713,
5.97685127561455,7.),
(0.,1.),
.UNSPECIFIED.)GEOMETRIC_REPRESENTATION_ITEM()RATIONAL_B_SPLINE_SURFACE((
(1.,0.707088464889185,1.),
(1.,0.726388950656129,1.),
(1.,0.751140231563571,1.),
(1.,0.77919259977533,1.),
(1.,0.794885365865938,1.),
(1.,0.809094541899088,1.),
(1.,0.822775032414024,1.),
(1.,0.836728400361466,1.),
(1.,0.851661051157641,1.),
(1.,0.86739139416143,1.),
(1.,0.884587964330032,1.),
(1.,0.904101169614622,1.),
(1.,0.925997359469848,1.),
(1.,0.948462968174263,1.),
(1.,0.968203255117753,1.),
(1.,0.983336831759725,1.),
(1.,0.996303864126323,1.),
(1.,1.0000012443693,1.),
(1.,1.,1.)))REPRESENTATION_ITEM('')SURFACE());
#592=CARTESIAN_POINT('',(-7.21137397766767,-7.10822072655038,1.50000009553839));
#593=CARTESIAN_POINT('',(-7.21143550744842,-7.10819786166576,2.00002094421916));
#594=CARTESIAN_POINT('',(-7.03729591876164,-6.6394759485427,2.00000000080708));
#595=CARTESIAN_POINT('',(-7.08750476988462,-7.15425136584744,1.49973151508565));
#596=CARTESIAN_POINT('',(-7.09849257671,-7.15016822216955,1.9733951934443));
#597=CARTESIAN_POINT('',(-6.93458566376709,-6.70556957215061,1.9999930513471));
#598=CARTESIAN_POINT('',(-6.91287729434239,-7.21914412234364,1.50705067910111));
#599=CARTESIAN_POINT('',(-6.93611272294265,-7.21050967919223,1.94649160183862));
#600=CARTESIAN_POINT('',(-6.78772932022344,-6.79888110560615,2.0036139824905));
#601=CARTESIAN_POINT('',(-6.69688600739394,-7.29940795222334,1.52653569408457));
#602=CARTESIAN_POINT('',(-6.72702543576178,-7.288207935846,1.92743455218174));
#603=CARTESIAN_POINT('',(-6.60238048316335,-6.9140669880226,2.01315521292515));
#604=CARTESIAN_POINT('',(-6.56646192306403,-7.34787442818527,1.54095750901375));
#605=CARTESIAN_POINT('',(-6.60589260142993,-7.33322172017508,1.92040123617702));
#606=CARTESIAN_POINT('',(-6.48924270306271,-6.98337859683288,2.02043296990493));
#607=CARTESIAN_POINT('',(-6.44581322073083,-7.39270830577401,1.556513836874));
#608=CARTESIAN_POINT('',(-6.49115293856036,-7.3758597585475,1.91668189210841));
#609=CARTESIAN_POINT('',(-6.38353574506129,-7.04734568599861,2.02835026024549));
#610=CARTESIAN_POINT('',(-6.32496983280101,-7.43761452985332,1.57470420258368));
#611=CARTESIAN_POINT('',(-6.37538388227735,-7.41888032650705,1.91602821608024));
#612=CARTESIAN_POINT('',(-6.27667547213489,-7.11141266126381,2.03730906271157));
#613=CARTESIAN_POINT('',(-6.19640716024727,-7.48538929255103,1.59590465848924));
#614=CARTESIAN_POINT('',(-6.25222072938488,-7.46464859100916,1.91789337175188));
#615=CARTESIAN_POINT('',(-6.16191963856001,-7.17923221933842,2.04798881084719));
#616=CARTESIAN_POINT('',(-6.055673737236,-7.53768678881837,1.62190365813609));
#617=CARTESIAN_POINT('',(-6.11321455082984,-7.51630423150004,1.92362472377873));
#618=CARTESIAN_POINT('',(-6.03499206158525,-7.25327756277294,2.06090600987986));
#619=CARTESIAN_POINT('',(-5.89579235288351,-7.59709979762952,1.65409142685341));
#620=CARTESIAN_POINT('',(-5.95812977632366,-7.57393478749958,1.93366868565287));
#621=CARTESIAN_POINT('',(-5.88920187280075,-7.33684924038776,2.07710427695031));
#622=CARTESIAN_POINT('',(-5.70879502144613,-7.66658927662889,1.69589609278776));
#623=CARTESIAN_POINT('',(-5.77677280257404,-7.64132827125624,1.95009440292969));
#624=CARTESIAN_POINT('',(-5.71646369404003,-7.43408008054348,2.09784330538879));
#625=CARTESIAN_POINT('',(-5.48120487343899,-7.75116332209167,1.75101863846655));
#626=CARTESIAN_POINT('',(-5.55403134485812,-7.7241005104602,1.97615703624859));
#627=CARTESIAN_POINT('',(-5.50328454711203,-7.55100867957426,2.12562820063016));
#628=CARTESIAN_POINT('',(-5.20389440952518,-7.85421377479236,1.82558427765109));
#629=CARTESIAN_POINT('',(-5.27410070042238,-7.82812464004682,2.01743931828474));
#630=CARTESIAN_POINT('',(-5.23879978259947,-7.69169627291574,2.16273332774502));
#631=CARTESIAN_POINT('',(-4.88144318934643,-7.9740388392502,1.92007050605291));
#632=CARTESIAN_POINT('',(-4.93784920660532,-7.95307797996083,2.07783422383171));
#633=CARTESIAN_POINT('',(-4.92510924845583,-7.85168085686286,2.210016927254));
#634=CARTESIAN_POINT('',(-4.53185490246704,-8.10394822208899,2.03098648117571));
#635=CARTESIAN_POINT('',(-4.57202184112568,-8.08902191475116,2.15453018878444));
#636=CARTESIAN_POINT('',(-4.57775599132037,-8.02014241970895,2.26539515910009));
#637=CARTESIAN_POINT('',(-4.17204434055561,-8.2376562717895,2.15140875620785));
#638=CARTESIAN_POINT('',(-4.20197127403134,-8.22653521995795,2.24089652510988));
#639=CARTESIAN_POINT('',(-4.2136983839884,-8.18693327233318,2.32593050790234));
#640=CARTESIAN_POINT('',(-3.72618434857414,-8.40334087440549,2.30829005014644));
#641=CARTESIAN_POINT('',(-3.74488723735891,-8.3963907538479,2.35506134515887));
#642=CARTESIAN_POINT('',(-3.75392481793212,-8.38524162821484,2.4039394156292));
#643=CARTESIAN_POINT('',(-3.40099381377548,-8.5241838867896,2.42550209752608));
#644=CARTESIAN_POINT('',(-3.41063623511173,-8.5206006975013,2.4433077024882));
#645=CARTESIAN_POINT('',(-3.41299380478836,-8.51971404631557,2.46289101484805));
#646=CARTESIAN_POINT('',(-3.19595833333332,-8.60037646452743,2.5));
#647=CARTESIAN_POINT('',(-3.19595833333332,-8.60037646452743,2.5));
#648=CARTESIAN_POINT('',(-3.19595833333332,-8.60037646452743,2.5));
#649=ORIENTED_EDGE('',*,*,#839,.F.);
#650=ORIENTED_EDGE('',*,*,#840,.F.);
#651=ORIENTED_EDGE('',*,*,#841,.F.);
#652=ORIENTED_EDGE('',*,*,#842,.F.);
#653=ORIENTED_EDGE('',*,*,#842,.T.);
#654=ORIENTED_EDGE('',*,*,#843,.T.);
#655=ORIENTED_EDGE('',*,*,#844,.F.);
#656=ORIENTED_EDGE('',*,*,#845,.F.);
#657=ORIENTED_EDGE('',*,*,#846,.F.);
#658=ORIENTED_EDGE('',*,*,#847,.F.);
#659=ORIENTED_EDGE('',*,*,#848,.F.);
#660=ORIENTED_EDGE('',*,*,#849,.F.);
#661=ORIENTED_EDGE('',*,*,#850,.F.);
#662=ORIENTED_EDGE('',*,*,#851,.F.);
#663=ORIENTED_EDGE('',*,*,#852,.T.);
#664=ORIENTED_EDGE('',*,*,#853,.T.);
#665=ORIENTED_EDGE('',*,*,#840,.T.);
#666=ORIENTED_EDGE('',*,*,#854,.T.);
#667=ORIENTED_EDGE('',*,*,#841,.T.);
#668=ORIENTED_EDGE('',*,*,#855,.F.);
#669=ORIENTED_EDGE('',*,*,#856,.T.);
#670=ORIENTED_EDGE('',*,*,#844,.T.);
#671=ORIENTED_EDGE('',*,*,#857,.T.);
#672=ORIENTED_EDGE('',*,*,#858,.F.);
#673=ORIENTED_EDGE('',*,*,#859,.F.);
#674=ORIENTED_EDGE('',*,*,#845,.T.);
#675=ORIENTED_EDGE('',*,*,#856,.F.);
#676=ORIENTED_EDGE('',*,*,#860,.F.);
#677=ORIENTED_EDGE('',*,*,#861,.F.);
#678=ORIENTED_EDGE('',*,*,#849,.T.);
#679=ORIENTED_EDGE('',*,*,#862,.F.);
#680=ORIENTED_EDGE('',*,*,#863,.F.);
#681=ORIENTED_EDGE('',*,*,#864,.F.);
#682=ORIENTED_EDGE('',*,*,#865,.F.);
#683=ORIENTED_EDGE('',*,*,#866,.F.);
#684=ORIENTED_EDGE('',*,*,#846,.T.);
#685=ORIENTED_EDGE('',*,*,#859,.T.);
#686=ORIENTED_EDGE('',*,*,#867,.F.);
#687=ORIENTED_EDGE('',*,*,#868,.F.);
#688=ORIENTED_EDGE('',*,*,#869,.F.);
#689=ORIENTED_EDGE('',*,*,#847,.T.);
#690=ORIENTED_EDGE('',*,*,#866,.T.);
#691=ORIENTED_EDGE('',*,*,#870,.F.);
#692=ORIENTED_EDGE('',*,*,#862,.T.);
#693=ORIENTED_EDGE('',*,*,#848,.T.);
#694=ORIENTED_EDGE('',*,*,#869,.T.);
#695=ORIENTED_EDGE('',*,*,#871,.F.);
#696=ORIENTED_EDGE('',*,*,#872,.F.);
#697=ORIENTED_EDGE('',*,*,#873,.F.);
#698=ORIENTED_EDGE('',*,*,#850,.T.);
#699=ORIENTED_EDGE('',*,*,#861,.T.);
#700=ORIENTED_EDGE('',*,*,#874,.F.);
#701=ORIENTED_EDGE('',*,*,#875,.F.);
#702=ORIENTED_EDGE('',*,*,#857,.F.);
#703=ORIENTED_EDGE('',*,*,#851,.T.);
#704=ORIENTED_EDGE('',*,*,#873,.T.);
#705=ORIENTED_EDGE('',*,*,#876,.F.);
#706=ORIENTED_EDGE('',*,*,#852,.F.);
#707=ORIENTED_EDGE('',*,*,#877,.F.);
#708=ORIENTED_EDGE('',*,*,#853,.F.);
#709=ORIENTED_EDGE('',*,*,#878,.T.);
#710=ORIENTED_EDGE('',*,*,#879,.T.);
#711=ORIENTED_EDGE('',*,*,#880,.T.);
#712=ORIENTED_EDGE('',*,*,#881,.T.);
#713=ORIENTED_EDGE('',*,*,#882,.T.);
#714=ORIENTED_EDGE('',*,*,#883,.T.);
#715=ORIENTED_EDGE('',*,*,#884,.T.);
#716=ORIENTED_EDGE('',*,*,#885,.T.);
#717=ORIENTED_EDGE('',*,*,#886,.T.);
#718=ORIENTED_EDGE('',*,*,#887,.T.);
#719=ORIENTED_EDGE('',*,*,#888,.T.);
#720=ORIENTED_EDGE('',*,*,#889,.T.);
#721=ORIENTED_EDGE('',*,*,#890,.T.);
#722=ORIENTED_EDGE('',*,*,#891,.T.);
#723=ORIENTED_EDGE('',*,*,#892,.T.);
#724=ORIENTED_EDGE('',*,*,#893,.T.);
#725=ORIENTED_EDGE('',*,*,#894,.T.);
#726=ORIENTED_EDGE('',*,*,#895,.T.);
#727=ORIENTED_EDGE('',*,*,#896,.T.);
#728=ORIENTED_EDGE('',*,*,#897,.T.);
#729=ORIENTED_EDGE('',*,*,#898,.F.);
#730=ORIENTED_EDGE('',*,*,#899,.F.);
#731=ORIENTED_EDGE('',*,*,#900,.F.);
#732=ORIENTED_EDGE('',*,*,#901,.F.);
#733=ORIENTED_EDGE('',*,*,#902,.F.);
#734=ORIENTED_EDGE('',*,*,#903,.F.);
#735=ORIENTED_EDGE('',*,*,#876,.T.);
#736=ORIENTED_EDGE('',*,*,#904,.F.);
#737=ORIENTED_EDGE('',*,*,#905,.F.);
#738=ORIENTED_EDGE('',*,*,#906,.F.);
#739=ORIENTED_EDGE('',*,*,#907,.F.);
#740=ORIENTED_EDGE('',*,*,#908,.F.);
#741=ORIENTED_EDGE('',*,*,#909,.F.);
#742=ORIENTED_EDGE('',*,*,#877,.T.);
#743=ORIENTED_EDGE('',*,*,#905,.T.);
#744=ORIENTED_EDGE('',*,*,#910,.T.);
#745=ORIENTED_EDGE('',*,*,#882,.F.);
#746=ORIENTED_EDGE('',*,*,#911,.F.);
#747=ORIENTED_EDGE('',*,*,#904,.T.);
#748=ORIENTED_EDGE('',*,*,#912,.T.);
#749=ORIENTED_EDGE('',*,*,#883,.F.);
#750=ORIENTED_EDGE('',*,*,#910,.F.);
#751=ORIENTED_EDGE('',*,*,#909,.T.);
#752=ORIENTED_EDGE('',*,*,#913,.T.);
#753=ORIENTED_EDGE('',*,*,#884,.F.);
#754=ORIENTED_EDGE('',*,*,#912,.F.);
#755=ORIENTED_EDGE('',*,*,#908,.T.);
#756=ORIENTED_EDGE('',*,*,#914,.T.);
#757=ORIENTED_EDGE('',*,*,#885,.F.);
#758=ORIENTED_EDGE('',*,*,#913,.F.);
#759=ORIENTED_EDGE('',*,*,#907,.T.);
#760=ORIENTED_EDGE('',*,*,#915,.T.);
#761=ORIENTED_EDGE('',*,*,#886,.F.);
#762=ORIENTED_EDGE('',*,*,#914,.F.);
#763=ORIENTED_EDGE('',*,*,#906,.T.);
#764=ORIENTED_EDGE('',*,*,#911,.T.);
#765=ORIENTED_EDGE('',*,*,#887,.F.);
#766=ORIENTED_EDGE('',*,*,#915,.F.);
#767=ORIENTED_EDGE('',*,*,#899,.T.);
#768=ORIENTED_EDGE('',*,*,#916,.T.);
#769=ORIENTED_EDGE('',*,*,#892,.F.);
#770=ORIENTED_EDGE('',*,*,#917,.F.);
#771=ORIENTED_EDGE('',*,*,#898,.T.);
#772=ORIENTED_EDGE('',*,*,#918,.T.);
#773=ORIENTED_EDGE('',*,*,#893,.F.);
#774=ORIENTED_EDGE('',*,*,#916,.F.);
#775=ORIENTED_EDGE('',*,*,#903,.T.);
#776=ORIENTED_EDGE('',*,*,#919,.T.);
#777=ORIENTED_EDGE('',*,*,#894,.F.);
#778=ORIENTED_EDGE('',*,*,#918,.F.);
#779=ORIENTED_EDGE('',*,*,#902,.T.);
#780=ORIENTED_EDGE('',*,*,#920,.T.);
#781=ORIENTED_EDGE('',*,*,#895,.F.);
#782=ORIENTED_EDGE('',*,*,#919,.F.);
#783=ORIENTED_EDGE('',*,*,#901,.T.);
#784=ORIENTED_EDGE('',*,*,#921,.T.);
#785=ORIENTED_EDGE('',*,*,#896,.F.);
#786=ORIENTED_EDGE('',*,*,#920,.F.);
#787=ORIENTED_EDGE('',*,*,#900,.T.);
#788=ORIENTED_EDGE('',*,*,#917,.T.);
#789=ORIENTED_EDGE('',*,*,#897,.F.);
#790=ORIENTED_EDGE('',*,*,#921,.F.);
#791=ORIENTED_EDGE('',*,*,#854,.F.);
#792=ORIENTED_EDGE('',*,*,#864,.T.);
#793=ORIENTED_EDGE('',*,*,#839,.T.);
#794=ORIENTED_EDGE('',*,*,#843,.F.);
#795=ORIENTED_EDGE('',*,*,#922,.T.);
#796=ORIENTED_EDGE('',*,*,#891,.F.);
#797=ORIENTED_EDGE('',*,*,#923,.T.);
#798=ORIENTED_EDGE('',*,*,#863,.T.);
#799=ORIENTED_EDGE('',*,*,#924,.T.);
#800=ORIENTED_EDGE('',*,*,#881,.F.);
#801=ORIENTED_EDGE('',*,*,#925,.T.);
#802=ORIENTED_EDGE('',*,*,#860,.T.);
#803=ORIENTED_EDGE('',*,*,#926,.T.);
#804=ORIENTED_EDGE('',*,*,#922,.F.);
#805=ORIENTED_EDGE('',*,*,#870,.T.);
#806=ORIENTED_EDGE('',*,*,#871,.T.);
#807=ORIENTED_EDGE('',*,*,#927,.T.);
#808=ORIENTED_EDGE('',*,*,#888,.F.);
#809=ORIENTED_EDGE('',*,*,#926,.F.);
#810=ORIENTED_EDGE('',*,*,#868,.T.);
#811=ORIENTED_EDGE('',*,*,#928,.T.);
#812=ORIENTED_EDGE('',*,*,#889,.F.);
#813=ORIENTED_EDGE('',*,*,#927,.F.);
#814=ORIENTED_EDGE('',*,*,#865,.T.);
#815=ORIENTED_EDGE('',*,*,#929,.T.);
#816=ORIENTED_EDGE('',*,*,#890,.F.);
#817=ORIENTED_EDGE('',*,*,#928,.F.);
#818=ORIENTED_EDGE('',*,*,#867,.T.);
#819=ORIENTED_EDGE('',*,*,#923,.F.);
#820=ORIENTED_EDGE('',*,*,#929,.F.);
#821=ORIENTED_EDGE('',*,*,#855,.T.);
#822=ORIENTED_EDGE('',*,*,#930,.T.);
#823=ORIENTED_EDGE('',*,*,#924,.F.);
#824=ORIENTED_EDGE('',*,*,#858,.T.);
#825=ORIENTED_EDGE('',*,*,#931,.T.);
#826=ORIENTED_EDGE('',*,*,#878,.F.);
#827=ORIENTED_EDGE('',*,*,#930,.F.);
#828=ORIENTED_EDGE('',*,*,#875,.T.);
#829=ORIENTED_EDGE('',*,*,#932,.T.);
#830=ORIENTED_EDGE('',*,*,#879,.F.);
#831=ORIENTED_EDGE('',*,*,#931,.F.);
#832=ORIENTED_EDGE('',*,*,#872,.T.);
#833=ORIENTED_EDGE('',*,*,#933,.T.);
#834=ORIENTED_EDGE('',*,*,#880,.F.);
#835=ORIENTED_EDGE('',*,*,#932,.F.);
#836=ORIENTED_EDGE('',*,*,#925,.F.);
#837=ORIENTED_EDGE('',*,*,#933,.F.);
#838=ORIENTED_EDGE('',*,*,#874,.T.);
#839=EDGE_CURVE('',#934,#934,#935,.F.);
#840=EDGE_CURVE('',#936,#936,#937,.T.);
#841=EDGE_CURVE('',#938,#938,#939,.F.);
#842=EDGE_CURVE('',#940,#940,#941,.T.);
#843=EDGE_CURVE('',#942,#942,#943,.F.);
#844=EDGE_CURVE('',#944,#945,#946,.T.);
#845=EDGE_CURVE('',#947,#944,#948,.T.);
#846=EDGE_CURVE('',#949,#947,#950,.T.);
#847=EDGE_CURVE('',#951,#949,#952,.T.);
#848=EDGE_CURVE('',#953,#951,#954,.T.);
#849=EDGE_CURVE('',#955,#953,#956,.T.);
#850=EDGE_CURVE('',#957,#955,#958,.T.);
#851=EDGE_CURVE('',#945,#957,#959,.T.);
#852=EDGE_CURVE('',#960,#960,#961,.T.);
#853=EDGE_CURVE('',#962,#962,#963,.T.);
#854=EDGE_CURVE('',#964,#964,#965,.T.);
#855=EDGE_CURVE('',#966,#967,#968,.F.);
#856=EDGE_CURVE('',#966,#944,#969,.F.);
#857=EDGE_CURVE('',#945,#970,#971,.T.);
#858=EDGE_CURVE('',#967,#970,#972,.T.);
#859=EDGE_CURVE('',#947,#973,#974,.T.);
#860=EDGE_CURVE('',#975,#966,#976,.F.);
#861=EDGE_CURVE('',#955,#975,#977,.T.);
#862=EDGE_CURVE('',#978,#953,#979,.F.);
#863=EDGE_CURVE('',#973,#978,#980,.F.);
#864=EDGE_CURVE('',#981,#981,#982,.T.);
#865=EDGE_CURVE('',#983,#984,#985,.T.);
#866=EDGE_CURVE('',#949,#983,#986,.T.);
#867=EDGE_CURVE('',#984,#973,#987,.T.);
#868=EDGE_CURVE('',#988,#983,#989,.T.);
#869=EDGE_CURVE('',#951,#988,#990,.T.);
#870=EDGE_CURVE('',#978,#991,#992,.F.);
#871=EDGE_CURVE('',#991,#988,#993,.T.);
#872=EDGE_CURVE('',#994,#995,#996,.T.);
#873=EDGE_CURVE('',#957,#994,#997,.T.);
#874=EDGE_CURVE('',#995,#975,#998,.T.);
#875=EDGE_CURVE('',#970,#994,#999,.T.);
#876=EDGE_CURVE('',#1000,#1000,#1001,.F.);
#877=EDGE_CURVE('',#1002,#1002,#1003,.F.);
#878=EDGE_CURVE('',#1004,#1005,#1006,.T.);
#879=EDGE_CURVE('',#1005,#1007,#1008,.T.);
#880=EDGE_CURVE('',#1007,#1009,#1010,.T.);
#881=EDGE_CURVE('',#1009,#1004,#1011,.F.);
#882=EDGE_CURVE('',#1012,#1013,#1014,.F.);
#883=EDGE_CURVE('',#1013,#1015,#1016,.F.);
#884=EDGE_CURVE('',#1015,#1017,#1018,.F.);
#885=EDGE_CURVE('',#1017,#1019,#1020,.F.);
#886=EDGE_CURVE('',#1019,#1021,#1022,.F.);
#887=EDGE_CURVE('',#1021,#1012,#1023,.F.);
#888=EDGE_CURVE('',#1024,#1025,#1026,.T.);
#889=EDGE_CURVE('',#1025,#1027,#1028,.T.);
#890=EDGE_CURVE('',#1027,#1029,#1030,.T.);
#891=EDGE_CURVE('',#1029,#1024,#1031,.F.);
#892=EDGE_CURVE('',#1032,#1033,#1034,.F.);
#893=EDGE_CURVE('',#1033,#1035,#1036,.F.);
#894=EDGE_CURVE('',#1035,#1037,#1038,.F.);
#895=EDGE_CURVE('',#1037,#1039,#1040,.F.);
#896=EDGE_CURVE('',#1039,#1041,#1042,.F.);
#897=EDGE_CURVE('',#1041,#1032,#1043,.F.);
#898=EDGE_CURVE('',#1044,#1045,#1046,.F.);
#899=EDGE_CURVE('',#1047,#1044,#1048,.F.);
#900=EDGE_CURVE('',#1049,#1047,#1050,.F.);
#901=EDGE_CURVE('',#1051,#1049,#1052,.F.);
#902=EDGE_CURVE('',#1053,#1051,#1054,.F.);
#903=EDGE_CURVE('',#1045,#1053,#1055,.F.);
#904=EDGE_CURVE('',#1056,#1057,#1058,.F.);
#905=EDGE_CURVE('',#1059,#1056,#1060,.F.);
#906=EDGE_CURVE('',#1061,#1059,#1062,.F.);
#907=EDGE_CURVE('',#1063,#1061,#1064,.F.);
#908=EDGE_CURVE('',#1065,#1063,#1066,.F.);
#909=EDGE_CURVE('',#1057,#1065,#1067,.F.);
#910=EDGE_CURVE('',#1056,#1013,#1068,.T.);
#911=EDGE_CURVE('',#1059,#1012,#1069,.T.);
#912=EDGE_CURVE('',#1057,#1015,#1070,.T.);
#913=EDGE_CURVE('',#1065,#1017,#1071,.T.);
#914=EDGE_CURVE('',#1063,#1019,#1072,.T.);
#915=EDGE_CURVE('',#1061,#1021,#1073,.T.);
#916=EDGE_CURVE('',#1044,#1033,#1074,.T.);
#917=EDGE_CURVE('',#1047,#1032,#1075,.T.);
#918=EDGE_CURVE('',#1045,#1035,#1076,.T.);
#919=EDGE_CURVE('',#1053,#1037,#1077,.T.);
#920=EDGE_CURVE('',#1051,#1039,#1078,.T.);
#921=EDGE_CURVE('',#1049,#1041,#1079,.T.);
#922=EDGE_CURVE('',#978,#1024,#1080,.F.);
#923=EDGE_CURVE('',#1029,#973,#1081,.T.);
#924=EDGE_CURVE('',#966,#1004,#1082,.F.);
#925=EDGE_CURVE('',#1009,#975,#1083,.T.);
#926=EDGE_CURVE('',#991,#1024,#1084,.T.);
#927=EDGE_CURVE('',#988,#1025,#1085,.T.);
#928=EDGE_CURVE('',#983,#1027,#1086,.T.);
#929=EDGE_CURVE('',#984,#1029,#1087,.T.);
#930=EDGE_CURVE('',#967,#1004,#1088,.T.);
#931=EDGE_CURVE('',#970,#1005,#1089,.T.);
#932=EDGE_CURVE('',#994,#1007,#1090,.T.);
#933=EDGE_CURVE('',#995,#1009,#1091,.T.);
#934=VERTEX_POINT('',#1092);
#935=CIRCLE('',#1093,5.15);
#936=VERTEX_POINT('',#1097);
#937=CIRCLE('',#1098,5.15);
#938=VERTEX_POINT('',#1102);
#939=CIRCLE('',#1103,7.425);
#940=VERTEX_POINT('',#1107);
#941=CIRCLE('',#1108,7.425);
#942=VERTEX_POINT('',#1112);
#943=CIRCLE('',#1113,5.65);
#944=VERTEX_POINT('',#1117);
#945=VERTEX_POINT('',#1118);
#946=LINE('',#1119,#1120);
#947=VERTEX_POINT('',#1122);
#948=CIRCLE('',#1123,9.175);
#949=VERTEX_POINT('',#1127);
#950=LINE('',#1128,#1129);
#951=VERTEX_POINT('',#1131);
#952=CIRCLE('',#1132,3.95);
#953=VERTEX_POINT('',#1136);
#954=LINE('',#1137,#1138);
#955=VERTEX_POINT('',#1140);
#956=CIRCLE('',#1141,9.175);
#957=VERTEX_POINT('',#1145);
#958=LINE('',#1146,#1147);
#959=CIRCLE('',#1149,3.95);
#960=VERTEX_POINT('',#1153);
#961=CIRCLE('',#1154,1.6);
#962=VERTEX_POINT('',#1158);
#963=CIRCLE('',#1159,1.6);
#964=VERTEX_POINT('',#1163);
#965=CIRCLE('',#1164,8.675);
#966=VERTEX_POINT('',#1168);
#967=VERTEX_POINT('',#1169);
#968=B_SPLINE_CURVE_WITH_KNOTS('',3,
(#1170,#1171,#1172,#1173,#1174,#1175,#1176,#1177,#1178,#1179,#1180,#1181,#1182,#1183,
#1184,#1185,#1186,#1187,#1188,#1189,#1190,#1191,#1192,#1193),
.UNSPECIFIED.,.F.,.F.,
(4,2,2,2,2,2,2,2,2,2,2,4),
(0.,0.0237962516299078,0.15674247060693,0.217428062655608,0.278908437647953,0.377797750304349,
0.47801244738997,0.592665586865403,0.708662682227121,0.894006444623031,0.977573411028397,
1.),
.UNSPECIFIED.);
#969=LINE('',#1194,#1195);
#970=VERTEX_POINT('',#1197);
#971=LINE('',#1198,#1199);
#972=LINE('',#1201,#1202);
#973=VERTEX_POINT('',#1204);
#974=LINE('',#1205,#1206);
#975=VERTEX_POINT('',#1208);
#976=CIRCLE('',#1209,9.175);
#977=LINE('',#1213,#1214);
#978=VERTEX_POINT('',#1216);
#979=LINE('',#1217,#1218);
#980=CIRCLE('',#1220,9.175);
#981=VERTEX_POINT('',#1224);
#982=CIRCLE('',#1225,9.175);
#983=VERTEX_POINT('',#1229);
#984=VERTEX_POINT('',#1230);
#985=LINE('',#1231,#1232);
#986=LINE('',#1234,#1235);
#987=B_SPLINE_CURVE_WITH_KNOTS('',3,
(#1237,#1238,#1239,#1240,#1241,#1242,#1243,#1244,#1245,#1246,#1247,#1248,#1249,#1250,
#1251,#1252,#1253,#1254,#1255,#1256,#1257,#1258,#1259,#1260),
.UNSPECIFIED.,.F.,.F.,
(4,2,2,2,2,2,2,2,2,2,2,4),
(0.,0.0237962516300108,0.15674247060692,0.217428062655598,0.278908437647944,0.377797750304339,
0.47801244738996,0.592665586865396,0.708662682227116,0.894006444623025,0.977573411028391,
1.),
.UNSPECIFIED.);
#988=VERTEX_POINT('',#1261);
#989=CIRCLE('',#1262,3.95);
#990=LINE('',#1266,#1267);
#991=VERTEX_POINT('',#1269);
#992=B_SPLINE_CURVE_WITH_KNOTS('',3,
(#1270,#1271,#1272,#1273,#1274,#1275,#1276,#1277,#1278,#1279,#1280,#1281,#1282,#1283,
#1284,#1285,#1286,#1287,#1288,#1289,#1290,#1291,#1292,#1293),
.UNSPECIFIED.,.F.,.F.,
(4,2,2,2,2,2,2,2,2,2,2,4),
(0.,0.0237962516300017,0.156742470606918,0.217428062655597,0.278908437647942,0.377797750304339,
0.478012447389961,0.592665586865396,0.708662682227116,0.894006444623026,0.977573411028394,
1.),
.UNSPECIFIED.);
#993=LINE('',#1294,#1295);
#994=VERTEX_POINT('',#1297);
#995=VERTEX_POINT('',#1298);
#996=LINE('',#1299,#1300);
#997=LINE('',#1302,#1303);
#998=B_SPLINE_CURVE_WITH_KNOTS('',3,
(#1305,#1306,#1307,#1308,#1309,#1310,#1311,#1312,#1313,#1314,#1315,#1316,#1317,#1318,
#1319,#1320,#1321,#1322,#1323,#1324,#1325,#1326,#1327,#1328),
.UNSPECIFIED.,.F.,.F.,
(4,2,2,2,2,2,2,2,2,2,2,4),
(0.,0.0237962516299213,0.156742470606929,0.217428062655609,0.278908437647953,0.37779775030435,
0.478012447389969,0.592665586865403,0.708662682227123,0.894006444623033,0.977573411028399,
1.),
.UNSPECIFIED.);
#999=CIRCLE('',#1329,3.95);
#1000=VERTEX_POINT('',#1333);
#1001=CIRCLE('',#1334,1.6);
#1002=VERTEX_POINT('',#1338);
#1003=CIRCLE('',#1339,1.6);
#1004=VERTEX_POINT('',#1343);
#1005=VERTEX_POINT('',#1344);
#1006=LINE('',#1345,#1346);
#1007=VERTEX_POINT('',#1348);
#1008=CIRCLE('',#1349,3.45);
#1009=VERTEX_POINT('',#1353);
#1010=LINE('',#1354,#1355);
#1011=CIRCLE('',#1357,9.675);
#1012=VERTEX_POINT('',#1361);
#1013=VERTEX_POINT('',#1362);
#1014=LINE('',#1363,#1364);
#1015=VERTEX_POINT('',#1366);
#1016=LINE('',#1367,#1368);
#1017=VERTEX_POINT('',#1370);
#1018=LINE('',#1371,#1372);
#1019=VERTEX_POINT('',#1374);
#1020=LINE('',#1375,#1376);
#1021=VERTEX_POINT('',#1378);
#1022=LINE('',#1379,#1380);
#1023=LINE('',#1382,#1383);
#1024=VERTEX_POINT('',#1385);
#1025=VERTEX_POINT('',#1386);
#1026=LINE('',#1387,#1388);
#1027=VERTEX_POINT('',#1390);
#1028=CIRCLE('',#1391,3.45);
#1029=VERTEX_POINT('',#1395);
#1030=LINE('',#1396,#1397);
#1031=CIRCLE('',#1399,9.675);
#1032=VERTEX_POINT('',#1403);
#1033=VERTEX_POINT('',#1404);
#1034=LINE('',#1405,#1406);
#1035=VERTEX_POINT('',#1408);
#1036=LINE('',#1409,#1410);
#1037=VERTEX_POINT('',#1412);
#1038=LINE('',#1413,#1414);
#1039=VERTEX_POINT('',#1416);
#1040=LINE('',#1417,#1418);
#1041=VERTEX_POINT('',#1420);
#1042=LINE('',#1421,#1422);
#1043=LINE('',#1424,#1425);
#1044=VERTEX_POINT('',#1427);
#1045=VERTEX_POINT('',#1428);
#1046=LINE('',#1429,#1430);
#1047=VERTEX_POINT('',#1432);
#1048=LINE('',#1433,#1434);
#1049=VERTEX_POINT('',#1436);
#1050=LINE('',#1437,#1438);
#1051=VERTEX_POINT('',#1440);
#1052=LINE('',#1441,#1442);
#1053=VERTEX_POINT('',#1444);
#1054=LINE('',#1445,#1446);
#1055=LINE('',#1448,#1449);
#1056=VERTEX_POINT('',#1451);
#1057=VERTEX_POINT('',#1452);
#1058=LINE('',#1453,#1454);
#1059=VERTEX_POINT('',#1456);
#1060=LINE('',#1457,#1458);
#1061=VERTEX_POINT('',#1460);
#1062=LINE('',#1461,#1462);
#1063=VERTEX_POINT('',#1464);
#1064=LINE('',#1465,#1466);
#1065=VERTEX_POINT('',#1468);
#1066=LINE('',#1469,#1470);
#1067=LINE('',#1472,#1473);
#1068=LINE('',#1475,#1476);
#1069=LINE('',#1478,#1479);
#1070=LINE('',#1481,#1482);
#1071=LINE('',#1484,#1485);
#1072=LINE('',#1487,#1488);
#1073=LINE('',#1490,#1491);
#1074=LINE('',#1493,#1494);
#1075=LINE('',#1496,#1497);
#1076=LINE('',#1499,#1500);
#1077=LINE('',#1502,#1503);
#1078=LINE('',#1505,#1506);
#1079=LINE('',#1508,#1509);
#1080=B_SPLINE_CURVE_WITH_KNOTS('',3,
(#1511,#1512,#1513,#1514,#1515,#1516,#1517,#1518,#1519,#1520,#1521,#1522,#1523,#1524,
#1525,#1526,#1527,#1528,#1529),
.UNSPECIFIED.,.F.,.F.,
(4,1,1,1,1,1,1,1,1,1,1,1,1,1,1,1,4),
(0.,0.0487575993931861,0.0903072568446593,0.122322369171705,0.151604454390896,0.179380942510413,
0.209704858832083,0.242901876539299,0.285439850685616,0.340575015944447,0.416715817512794,
0.511344752812887,0.611586009411809,0.705177175613097,0.794095653782706,0.891193830806317,
1.),
.UNSPECIFIED.);
#1081=B_SPLINE_CURVE_WITH_KNOTS('',3,
(#1530,#1531,#1532,#1533,#1534,#1535,#1536,#1537,#1538,#1539,#1540,#1541,#1542,#1543,
#1544,#1545,#1546,#1547,#1548),
.UNSPECIFIED.,.F.,.F.,
(4,1,1,1,1,1,1,1,1,1,1,1,1,1,1,1,4),
(0.,0.0487575993926361,0.0903072568435605,0.122322369170285,0.151604454389404,0.179380942509056,
0.209704858830848,0.242901876538082,0.285439850683437,0.340575015942549,0.416715817510624,
0.511344752808809,0.611586009404169,0.705177175601311,0.794095653767114,0.89119383079438,
1.),
.UNSPECIFIED.);
#1082=B_SPLINE_CURVE_WITH_KNOTS('',3,
(#1549,#1550,#1551,#1552,#1553,#1554,#1555,#1556,#1557,#1558,#1559,#1560,#1561,#1562,
#1563,#1564,#1565,#1566,#1567),
.UNSPECIFIED.,.F.,.F.,
(4,1,1,1,1,1,1,1,1,1,1,1,1,1,1,1,4),
(0.,0.0487575993924818,0.0903072568436618,0.122322369170675,0.151604454389908,0.179380942509364,
0.209704858831045,0.242901876538291,0.285439850683992,0.340575015943856,0.416715817514465,
0.511344752815564,0.611586009412293,0.705177175607721,0.794095653768678,0.891193830793768,
1.),
.UNSPECIFIED.);
#1083=B_SPLINE_CURVE_WITH_KNOTS('',3,
(#1568,#1569,#1570,#1571,#1572,#1573,#1574,#1575,#1576,#1577,#1578,#1579,#1580,#1581,
#1582,#1583,#1584,#1585,#1586),
.UNSPECIFIED.,.F.,.F.,
(4,1,1,1,1,1,1,1,1,1,1,1,1,1,1,1,4),
(0.,0.0487575993921145,0.0903072568430552,0.122322369169898,0.151604454389105,0.179380942508587,
0.209704858830568,0.242901876538423,0.285439850686233,0.340575015946226,0.41671581751642,
0.511344752817614,0.61158600941459,0.705177175609854,0.794095653769368,0.891193830794051,
1.),
.UNSPECIFIED.);
#1084=B_SPLINE_CURVE_WITH_KNOTS('',3,
(#1587,#1588,#1589,#1590,#1591,#1592,#1593,#1594,#1595,#1596,#1597,#1598,#1599),
.UNSPECIFIED.,.F.,.F.,
(4,1,1,1,1,1,1,1,1,1,4),
(0.,0.0710562942416485,0.169093808717466,0.286971275460466,0.411767258624459,0.529411054728232,
0.647054829291948,0.764698591672703,0.875885506731432,0.954322702831158,1.),
.UNSPECIFIED.);
#1085=CIRCLE('',#1600,0.5);
#1086=CIRCLE('',#1604,0.5);
#1087=B_SPLINE_CURVE_WITH_KNOTS('',3,
(#1608,#1609,#1610,#1611,#1612,#1613,#1614,#1615,#1616,#1617,#1618,#1619,#1620),
.UNSPECIFIED.,.F.,.F.,
(4,1,1,1,1,1,1,1,1,1,4),
(0.,0.071056294241651,0.169093808717468,0.286971275460468,0.411767258624461,0.529411054728234,
0.64705482929195,0.764698591672704,0.875885506731432,0.954322702831159,1.),
.UNSPECIFIED.);
#1088=B_SPLINE_CURVE_WITH_KNOTS('',3,
(#1621,#1622,#1623,#1624,#1625,#1626,#1627,#1628,#1629,#1630,#1631,#1632,#1633),
.UNSPECIFIED.,.F.,.F.,
(4,1,1,1,1,1,1,1,1,1,4),
(0.,0.0710562942416526,0.169093808717471,0.28697127546047,0.411767258624461,0.529411054728235,
0.647054829291952,0.764698591672708,0.875885506731436,0.954322702831163,1.),
.UNSPECIFIED.);
#1089=CIRCLE('',#1634,0.5);
#1090=CIRCLE('',#1638,0.5);
#1091=B_SPLINE_CURVE_WITH_KNOTS('',3,
(#1642,#1643,#1644,#1645,#1646,#1647,#1648,#1649,#1650,#1651,#1652,#1653,#1654),
.UNSPECIFIED.,.F.,.F.,
(4,1,1,1,1,1,1,1,1,1,4),
(0.,0.0710562942416523,0.16909380871747,0.286971275460468,0.411767258624459,0.529411054728233,
0.647054829291949,0.764698591672706,0.875885506731433,0.95432270283116,1.),
.UNSPECIFIED.);
#1092=CARTESIAN_POINT('',(-5.15,1.52085824369112E-15,1.6));
#1093=AXIS2_PLACEMENT_3D('',#1094,#1095,#1096);
#1094=CARTESIAN_POINT('',(0.,0.,1.6));
#1095=DIRECTION('',(0.,0.,1.));
#1096=DIRECTION('',(-1.,1.22464679914735E-16,0.));
#1097=CARTESIAN_POINT('',(-5.15,1.26138620312177E-15,-1.2));
#1098=AXIS2_PLACEMENT_3D('',#1099,#1100,#1101);
#1099=CARTESIAN_POINT('',(0.,0.,-1.2));
#1100=DIRECTION('',(0.,0.,1.));
#1101=DIRECTION('',(-1.,1.22464679914735E-16,0.));
#1102=CARTESIAN_POINT('',(-7.425,1.81860049673382E-15,4.));
#1103=AXIS2_PLACEMENT_3D('',#1104,#1105,#1106);
#1104=CARTESIAN_POINT('',(0.,0.,4.));
#1105=DIRECTION('',(0.,0.,1.));
#1106=DIRECTION('',(-1.,1.22464679914735E-16,0.));
#1107=CARTESIAN_POINT('',(-7.425,1.81860049673382E-15,2.1));
#1108=AXIS2_PLACEMENT_3D('',#1109,#1110,#1111);
#1109=CARTESIAN_POINT('',(0.,0.,2.1));
#1110=DIRECTION('',(0.,0.,1.));
#1111=DIRECTION('',(-1.,1.22464679914735E-16,0.));
#1112=CARTESIAN_POINT('',(-5.65,2.1093649382207E-15,2.1));
#1113=AXIS2_PLACEMENT_3D('',#1114,#1115,#1116);
#1114=CARTESIAN_POINT('',(0.,0.,2.1));
#1115=DIRECTION('',(0.,0.,1.));
#1116=DIRECTION('',(-1.,3.06161699786838E-16,0.));
#1117=CARTESIAN_POINT('',(-3.19595833333331,8.60037646452743,-1.2));
#1118=CARTESIAN_POINT('',(-16.3759166666667,3.70261439072298,-1.2));
#1119=CARTESIAN_POINT('',(-3.19595833333332,8.60037646452743,-1.2));
#1120=VECTOR('',#1121,1.);
#1121=DIRECTION('',(-0.937370731828602,-0.348333333333334,0.));
#1122=CARTESIAN_POINT('',(3.19595833333332,8.60037646452743,-1.2));
#1123=AXIS2_PLACEMENT_3D('',#1124,#1125,#1126);
#1124=CARTESIAN_POINT('',(0.,0.,-1.2));
#1125=DIRECTION('',(0.,0.,1.));
#1126=DIRECTION('',(0.348333333333332,0.937370731828602,0.));
#1127=CARTESIAN_POINT('',(16.3759166666667,3.70261439072298,-1.2));
#1128=CARTESIAN_POINT('',(16.3759166666667,3.70261439072298,-1.2));
#1129=VECTOR('',#1130,1.);
#1130=DIRECTION('',(-0.937370731828602,0.348333333333334,0.));
#1131=CARTESIAN_POINT('',(16.3759166666667,-3.70261439072298,-1.2));
#1132=AXIS2_PLACEMENT_3D('',#1133,#1134,#1135);
#1133=CARTESIAN_POINT('',(15.,-1.83697019872103E-15,-1.2));
#1134=DIRECTION('',(0.,0.,1.));
#1135=DIRECTION('',(0.348333333333333,-0.937370731828602,0.));
#1136=CARTESIAN_POINT('',(3.19595833333332,-8.60037646452743,-1.2));
#1137=CARTESIAN_POINT('',(3.19595833333332,-8.60037646452743,-1.2));
#1138=VECTOR('',#1139,1.);
#1139=DIRECTION('',(0.937370731828602,0.348333333333334,0.));
#1140=CARTESIAN_POINT('',(-3.19595833333332,-8.60037646452743,-1.2));
#1141=AXIS2_PLACEMENT_3D('',#1142,#1143,#1144);
#1142=CARTESIAN_POINT('',(0.,0.,-1.2));
#1143=DIRECTION('',(0.,0.,1.));
#1144=DIRECTION('',(-0.348333333333332,-0.937370731828602,0.));
#1145=CARTESIAN_POINT('',(-16.3759166666667,-3.70261439072297,-1.2));
#1146=CARTESIAN_POINT('',(-16.3759166666667,-3.70261439072297,-1.2));
#1147=VECTOR('',#1148,1.);
#1148=DIRECTION('',(0.937370731828602,-0.348333333333334,0.));
#1149=AXIS2_PLACEMENT_3D('',#1150,#1151,#1152);
#1150=CARTESIAN_POINT('',(-15.,3.67394039744238E-15,-1.2));
#1151=DIRECTION('',(0.,0.,1.));
#1152=DIRECTION('',(-0.348333333333333,0.937370731828602,0.));
#1153=CARTESIAN_POINT('',(13.4,-1.44508322299388E-15,-1.2));
#1154=AXIS2_PLACEMENT_3D('',#1155,#1156,#1157);
#1155=CARTESIAN_POINT('',(15.,-1.83697019872103E-15,-1.2));
#1156=DIRECTION('',(0.,0.,1.));
#1157=DIRECTION('',(-1.,1.22464679914735E-16,0.));
#1158=CARTESIAN_POINT('',(-16.6,4.06582737316953E-15,-1.2));
#1159=AXIS2_PLACEMENT_3D('',#1160,#1161,#1162);
#1160=CARTESIAN_POINT('',(-15.,3.67394039744238E-15,-1.2));
#1161=DIRECTION('',(0.,0.,1.));
#1162=DIRECTION('',(-1.,1.22464679914735E-16,0.));
#1163=CARTESIAN_POINT('',(-3.02179166666666,-8.13169109861313,4.));
#1164=AXIS2_PLACEMENT_3D('',#1165,#1166,#1167);
#1165=CARTESIAN_POINT('',(0.,0.,4.));
#1166=DIRECTION('',(0.,0.,1.));
#1167=DIRECTION('',(-0.348333333333332,-0.937370731828602,0.));
#1168=CARTESIAN_POINT('',(-3.19595833333331,8.60037646452743,2.5));
#1169=CARTESIAN_POINT('',(-7.21136396265142,7.10822444819847,1.5));
#1170=CARTESIAN_POINT('',(-7.21136396350415,7.10822444788159,1.5));
#1171=CARTESIAN_POINT('',(-7.17745450274011,7.12082543391454,1.49967649225971));
#1172=CARTESIAN_POINT('',(-7.14335374183633,7.1334975083793,1.50049129627441));
#1173=CARTESIAN_POINT('',(-6.9200059098908,7.21649508036727,1.50473617824526));
#1174=CARTESIAN_POINT('',(-6.72714524769231,7.28816341291849,1.52161741741962));
#1175=CARTESIAN_POINT('',(-6.45628086327774,7.38881845867648,1.55478184109625));
#1176=CARTESIAN_POINT('',(-6.37228766417482,7.42003090219259,1.56728121360537));
#1177=CARTESIAN_POINT('',(-6.20392990472249,7.48259378958738,1.59447807660025));
#1178=CARTESIAN_POINT('',(-6.11998633583389,7.51378779017861,1.60977810466919));
#1179=CARTESIAN_POINT('',(-5.90127877039762,7.59506100760136,1.65232004102252));
#1180=CARTESIAN_POINT('',(-5.76722593002874,7.64487595396458,1.68229162808664));
#1181=CARTESIAN_POINT('',(-5.49916725628881,7.74448837857122,1.74649702065728));
#1182=CARTESIAN_POINT('',(-5.36526311931591,7.79424806574206,1.78200886405664));
#1183=CARTESIAN_POINT('',(-5.07961505966107,7.90039682567364,1.86112298098982));
#1184=CARTESIAN_POINT('',(-4.92839187451028,7.95659238882943,1.90664091761449));
#1185=CARTESIAN_POINT('',(-4.62559865398585,8.06911240704064,2.0006409025477));
#1186=CARTESIAN_POINT('',(-4.47454613666541,8.12524454887098,2.05058946902124));
#1187=CARTESIAN_POINT('',(-4.08272124342974,8.27084934162732,2.18165826436934));
#1188=CARTESIAN_POINT('',(-3.84380601401487,8.35963186429456,2.26696848048651));
#1189=CARTESIAN_POINT('',(-3.49733618451371,8.48838240718183,2.39076632152141));
#1190=CARTESIAN_POINT('',(-3.38993179313832,8.52829460882423,2.42978210733716));
#1191=CARTESIAN_POINT('',(-3.25362759160064,8.57894617629566,2.47910659291784));
#1192=CARTESIAN_POINT('',(-3.22479296246698,8.58966132041155,2.48955329645892));
#1193=CARTESIAN_POINT('',(-3.19595833333331,8.60037646452744,2.5));
#1194=CARTESIAN_POINT('',(-3.19595833333332,8.60037646452743,-1.2));
#1195=VECTOR('',#1196,1.);
#1196=DIRECTION('',(1.08021699693258E-15,9.60192886162297E-16,1.));
#1197=CARTESIAN_POINT('',(-16.3759166666667,3.70261439072298,1.5));
#1198=CARTESIAN_POINT('',(-16.3759166666667,3.70261439072298,-1.2));
#1199=VECTOR('',#1200,1.);
#1200=DIRECTION('',(0.,0.,1.));
#1201=CARTESIAN_POINT('',(-7.21136396179869,7.10822444851535,1.5));
#1202=VECTOR('',#1203,1.);
#1203=DIRECTION('',(-0.937370731828602,-0.348333333333333,0.));
#1204=CARTESIAN_POINT('',(3.19595833333332,8.60037646452743,2.5));
#1205=CARTESIAN_POINT('',(3.19595833333332,8.60037646452743,-1.2));
#1206=VECTOR('',#1207,1.);
#1207=DIRECTION('',(4.80096443081149E-16,-4.80096443081149E-16,1.));
#1208=CARTESIAN_POINT('',(-3.19595833333332,-8.60037646452743,2.5));
#1209=AXIS2_PLACEMENT_3D('',#1210,#1211,#1212);
#1210=CARTESIAN_POINT('',(0.,0.,2.5));
#1211=DIRECTION('',(0.,0.,1.));
#1212=DIRECTION('',(-0.348333333333331,0.937370731828603,0.));
#1213=CARTESIAN_POINT('',(-3.19595833333332,-8.60037646452743,-1.2));
#1214=VECTOR('',#1215,1.);
#1215=DIRECTION('',(2.40048221540574E-16,0.,1.));
#1216=CARTESIAN_POINT('',(3.19595833333332,-8.60037646452743,2.5));
#1217=CARTESIAN_POINT('',(3.19595833333332,-8.60037646452743,-1.2));
#1218=VECTOR('',#1219,1.);
#1219=DIRECTION('',(2.40048221540574E-16,0.,1.));
#1220=AXIS2_PLACEMENT_3D('',#1221,#1222,#1223);
#1221=CARTESIAN_POINT('',(0.,0.,2.5));
#1222=DIRECTION('',(0.,0.,1.));
#1223=DIRECTION('',(0.348333333333332,-0.937370731828602,0.));
#1224=CARTESIAN_POINT('',(-3.19595833333332,-8.60037646452743,3.5));
#1225=AXIS2_PLACEMENT_3D('',#1226,#1227,#1228);
#1226=CARTESIAN_POINT('',(0.,0.,3.5));
#1227=DIRECTION('',(0.,0.,1.));
#1228=DIRECTION('',(-0.348333333333332,-0.937370731828602,0.));
#1229=CARTESIAN_POINT('',(16.3759166666667,3.70261439072298,1.5));
#1230=CARTESIAN_POINT('',(7.21136396265142,7.10822444819847,1.5));
#1231=CARTESIAN_POINT('',(16.3759166666667,3.70261439072298,1.5));
#1232=VECTOR('',#1233,1.);
#1233=DIRECTION('',(-0.937370731828602,0.348333333333334,0.));
#1234=CARTESIAN_POINT('',(16.3759166666667,3.70261439072298,-1.2));
#1235=VECTOR('',#1236,1.);
#1236=DIRECTION('',(0.,0.,1.));
#1237=CARTESIAN_POINT('',(7.21136396350415,7.10822444788159,1.5));
#1238=CARTESIAN_POINT('',(7.17745450273997,7.1208254339146,1.49967649225971));
#1239=CARTESIAN_POINT('',(7.14335374183604,7.13349750837941,1.50049129627441));
#1240=CARTESIAN_POINT('',(6.92000590989054,7.21649508036737,1.50473617824528));
#1241=CARTESIAN_POINT('',(6.72714524769221,7.28816341291853,1.52161741741964));
#1242=CARTESIAN_POINT('',(6.4562808632778,7.38881845867646,1.55478184109624));
#1243=CARTESIAN_POINT('',(6.37228766417488,7.42003090219257,1.56728121360536));
#1244=CARTESIAN_POINT('',(6.20392990472254,7.48259378958736,1.59447807660024));
#1245=CARTESIAN_POINT('',(6.11998633583394,7.51378779017858,1.60977810466918));
#1246=CARTESIAN_POINT('',(5.90127877039768,7.59506100760134,1.65232004102251));
#1247=CARTESIAN_POINT('',(5.76722593002879,7.64487595396456,1.68229162808663));
#1248=CARTESIAN_POINT('',(5.49916725628886,7.7444883785712,1.74649702065727));
#1249=CARTESIAN_POINT('',(5.36526311931596,7.79424806574204,1.78200886405663));
#1250=CARTESIAN_POINT('',(5.07961505966112,7.90039682567362,1.8611229809898));
#1251=CARTESIAN_POINT('',(4.92839187451032,7.95659238882941,1.90664091761448));
#1252=CARTESIAN_POINT('',(4.62559865398589,8.06911240704062,2.00064090254769));
#1253=CARTESIAN_POINT('',(4.47454613666545,8.12524454887097,2.05058946902122));
#1254=CARTESIAN_POINT('',(4.08272124342977,8.27084934162731,2.18165826436932));
#1255=CARTESIAN_POINT('',(3.84380601401491,8.35963186429455,2.26696848048653));
#1256=CARTESIAN_POINT('',(3.49733618451374,8.48838240718182,2.39076632152138));
#1257=CARTESIAN_POINT('',(3.38993179313833,8.52829460882423,2.42978210733704));
#1258=CARTESIAN_POINT('',(3.25362759160066,8.57894617629565,2.47910659291779));
#1259=CARTESIAN_POINT('',(3.22479296246699,8.58966132041154,2.4895532964589));
#1260=CARTESIAN_POINT('',(3.19595833333332,8.60037646452743,2.5));
#1261=CARTESIAN_POINT('',(16.3759166666667,-3.70261439072298,1.5));
#1262=AXIS2_PLACEMENT_3D('',#1263,#1264,#1265);
#1263=CARTESIAN_POINT('',(15.,-1.83697019872103E-15,1.5));
#1264=DIRECTION('',(0.,0.,1.));
#1265=DIRECTION('',(0.348333333333333,-0.937370731828602,0.));
#1266=CARTESIAN_POINT('',(16.3759166666667,-3.70261439072298,-1.2));
#1267=VECTOR('',#1268,1.);
#1268=DIRECTION('',(0.,0.,1.));
#1269=CARTESIAN_POINT('',(7.21136396265141,-7.10822444819847,1.5));
#1270=CARTESIAN_POINT('',(7.21136396350415,-7.10822444788159,1.5));
#1271=CARTESIAN_POINT('',(7.17745450273998,-7.12082543391459,1.49967649225971));
#1272=CARTESIAN_POINT('',(7.14335374183606,-7.1334975083794,1.50049129627441));
#1273=CARTESIAN_POINT('',(6.92000590989056,-7.21649508036736,1.50473617824528));
#1274=CARTESIAN_POINT('',(6.72714524769222,-7.28816341291853,1.52161741741963));
#1275=CARTESIAN_POINT('',(6.4562808632778,-7.38881845867646,1.55478184109624));
#1276=CARTESIAN_POINT('',(6.37228766417488,-7.42003090219257,1.56728121360536));
#1277=CARTESIAN_POINT('',(6.20392990472255,-7.48259378958736,1.59447807660024));
#1278=CARTESIAN_POINT('',(6.11998633583395,-7.51378779017858,1.60977810466918));
#1279=CARTESIAN_POINT('',(5.90127877039768,-7.59506100760134,1.65232004102251));
#1280=CARTESIAN_POINT('',(5.76722593002879,-7.64487595396456,1.68229162808663));
#1281=CARTESIAN_POINT('',(5.49916725628885,-7.7444883785712,1.74649702065727));
#1282=CARTESIAN_POINT('',(5.36526311931596,-7.79424806574204,1.78200886405663));
#1283=CARTESIAN_POINT('',(5.07961505966112,-7.90039682567362,1.8611229809898));
#1284=CARTESIAN_POINT('',(4.92839187451032,-7.95659238882941,1.90664091761448));
#1285=CARTESIAN_POINT('',(4.62559865398589,-8.06911240704062,2.00064090254769));
#1286=CARTESIAN_POINT('',(4.47454613666545,-8.12524454887097,2.05058946902123));
#1287=CARTESIAN_POINT('',(4.08272124342977,-8.27084934162731,2.18165826436933));
#1288=CARTESIAN_POINT('',(3.8438060140149,-8.35963186429455,2.26696848048651));
#1289=CARTESIAN_POINT('',(3.49733618451374,-8.48838240718182,2.39076632152139));
#1290=CARTESIAN_POINT('',(3.38993179313833,-8.52829460882423,2.42978210733708));
#1291=CARTESIAN_POINT('',(3.25362759160065,-8.57894617629565,2.47910659291781));
#1292=CARTESIAN_POINT('',(3.22479296246699,-8.58966132041154,2.4895532964589));
#1293=CARTESIAN_POINT('',(3.19595833333332,-8.60037646452743,2.5));
#1294=CARTESIAN_POINT('',(7.21136396179868,-7.10822444851535,1.5));
#1295=VECTOR('',#1296,1.);
#1296=DIRECTION('',(0.937370731828602,0.348333333333334,0.));
#1297=CARTESIAN_POINT('',(-16.3759166666667,-3.70261439072297,1.5));
#1298=CARTESIAN_POINT('',(-7.21136396265142,-7.10822444819846,1.5));
#1299=CARTESIAN_POINT('',(-16.3759166666667,-3.70261439072297,1.5));
#1300=VECTOR('',#1301,1.);
#1301=DIRECTION('',(0.937370731828602,-0.348333333333334,0.));
#1302=CARTESIAN_POINT('',(-16.3759166666667,-3.70261439072297,-1.2));
#1303=VECTOR('',#1304,1.);
#1304=DIRECTION('',(0.,0.,1.));
#1305=CARTESIAN_POINT('',(-7.21136396350415,-7.10822444788159,1.5));
#1306=CARTESIAN_POINT('',(-7.1774545027401,-7.12082543391455,1.49967649225971));
#1307=CARTESIAN_POINT('',(-7.1433537418363,-7.13349750837931,1.50049129627441));
#1308=CARTESIAN_POINT('',(-6.92000590989077,-7.21649508036728,1.50473617824526));
#1309=CARTESIAN_POINT('',(-6.7271452476923,-7.2881634129185,1.52161741741962));
#1310=CARTESIAN_POINT('',(-6.45628086327775,-7.38881845867648,1.55478184109624));
#1311=CARTESIAN_POINT('',(-6.37228766417483,-7.42003090219258,1.56728121360537));
#1312=CARTESIAN_POINT('',(-6.20392990472249,-7.48259378958737,1.59447807660025));
#1313=CARTESIAN_POINT('',(-6.1199863358339,-7.5137877901786,1.60977810466918));
#1314=CARTESIAN_POINT('',(-5.90127877039763,-7.59506100760136,1.65232004102252));
#1315=CARTESIAN_POINT('',(-5.76722593002875,-7.64487595396458,1.68229162808664));
#1316=CARTESIAN_POINT('',(-5.49916725628882,-7.74448837857121,1.74649702065728));
#1317=CARTESIAN_POINT('',(-5.36526311931592,-7.79424806574205,1.78200886405664));
#1318=CARTESIAN_POINT('',(-5.07961505966108,-7.90039682567364,1.86112298098981));
#1319=CARTESIAN_POINT('',(-4.92839187451028,-7.95659238882943,1.90664091761449));
#1320=CARTESIAN_POINT('',(-4.62559865398585,-8.06911240704063,2.0006409025477));
#1321=CARTESIAN_POINT('',(-4.47454613666542,-8.12524454887098,2.05058946902124));
#1322=CARTESIAN_POINT('',(-4.08272124342975,-8.27084934162732,2.18165826436934));
#1323=CARTESIAN_POINT('',(-3.84380601401488,-8.35963186429456,2.26696848048652));
#1324=CARTESIAN_POINT('',(-3.49733618451371,-8.48838240718183,2.3907663215214));
#1325=CARTESIAN_POINT('',(-3.38993179313832,-8.52829460882423,2.42978210733711));
#1326=CARTESIAN_POINT('',(-3.25362759160064,-8.57894617629566,2.47910659291782));
#1327=CARTESIAN_POINT('',(-3.22479296246698,-8.58966132041154,2.48955329645891));
#1328=CARTESIAN_POINT('',(-3.19595833333332,-8.60037646452743,2.5));
#1329=AXIS2_PLACEMENT_3D('',#1330,#1331,#1332);
#1330=CARTESIAN_POINT('',(-15.,3.67394039744238E-15,1.5));
#1331=DIRECTION('',(0.,0.,1.));
#1332=DIRECTION('',(-0.348333333333333,0.937370731828602,0.));
#1333=CARTESIAN_POINT('',(13.4,-1.44508322299388E-15,0.));
#1334=AXIS2_PLACEMENT_3D('',#1335,#1336,#1337);
#1335=CARTESIAN_POINT('',(15.,-1.83697019872103E-15,0.));
#1336=DIRECTION('',(0.,0.,1.));
#1337=DIRECTION('',(-1.,1.22464679914735E-16,0.));
#1338=CARTESIAN_POINT('',(-16.6,4.06582737316953E-15,0.));
#1339=AXIS2_PLACEMENT_3D('',#1340,#1341,#1342);
#1340=CARTESIAN_POINT('',(-15.,3.67394039744238E-15,0.));
#1341=DIRECTION('',(0.,0.,1.));
#1342=DIRECTION('',(-1.,1.22464679914735E-16,0.));
#1343=CARTESIAN_POINT('',(-7.03719729548187,6.63953908223024,2.));
#1344=CARTESIAN_POINT('',(-16.20175,3.23392902480868,2.));
#1345=CARTESIAN_POINT('',(-7.03719729513202,6.63953908260105,2.));
#1346=VECTOR('',#1347,1.);
#1347=DIRECTION('',(-0.937370731828602,-0.348333333333333,0.));
#1348=CARTESIAN_POINT('',(-16.20175,-3.23392902480867,2.));
#1349=AXIS2_PLACEMENT_3D('',#1350,#1351,#1352);
#1350=CARTESIAN_POINT('',(-15.,3.67394039744238E-15,2.));
#1351=DIRECTION('',(0.,0.,1.));
#1352=DIRECTION('',(-0.348333333333332,0.937370731828602,0.));
#1353=CARTESIAN_POINT('',(-7.03719729548188,-6.63953908223023,2.));
#1354=CARTESIAN_POINT('',(-16.20175,-3.23392902480867,2.));
#1355=VECTOR('',#1356,1.);
#1356=DIRECTION('',(0.937370731828602,-0.348333333333334,0.));
#1357=AXIS2_PLACEMENT_3D('',#1358,#1359,#1360);
#1358=CARTESIAN_POINT('',(0.,0.,2.));
#1359=DIRECTION('',(0.,0.,1.));
#1360=DIRECTION('',(-0.727358893611553,0.686257269458165,0.));
#1361=CARTESIAN_POINT('',(-15.,3.34863156129983,2.));
#1362=CARTESIAN_POINT('',(-12.1,1.67431578064991,2.));
#1363=CARTESIAN_POINT('',(-12.1,1.67431578064991,2.));
#1364=VECTOR('',#1365,1.);
#1365=DIRECTION('',(-0.866025403784437,0.500000000000002,0.));
#1366=CARTESIAN_POINT('',(-12.1,-1.67431578064991,2.));
#1367=CARTESIAN_POINT('',(-12.1,-1.67431578064991,2.));
#1368=VECTOR('',#1369,1.);
#1369=DIRECTION('',(0.,1.,0.));
#1370=CARTESIAN_POINT('',(-15.,-3.34863156129983,2.));
#1371=CARTESIAN_POINT('',(-15.,-3.34863156129983,2.));
#1372=VECTOR('',#1373,1.);
#1373=DIRECTION('',(0.866025403784437,0.500000000000003,0.));
#1374=CARTESIAN_POINT('',(-17.9,-1.67431578064991,2.));
#1375=CARTESIAN_POINT('',(-17.9,-1.67431578064991,2.));
#1376=VECTOR('',#1377,1.);
#1377=DIRECTION('',(0.866025403784439,-0.5,0.));
#1378=CARTESIAN_POINT('',(-17.9,1.67431578064992,2.));
#1379=CARTESIAN_POINT('',(-17.9,1.67431578064992,2.));
#1380=VECTOR('',#1381,1.);
#1381=DIRECTION('',(-6.36566958251112E-15,-1.,0.));
#1382=CARTESIAN_POINT('',(-15.,3.34863156129983,2.));
#1383=VECTOR('',#1384,1.);
#1384=DIRECTION('',(-0.866025403784438,-0.500000000000001,0.));
#1385=CARTESIAN_POINT('',(7.03719729548187,-6.63953908223024,2.));
#1386=CARTESIAN_POINT('',(16.20175,-3.23392902480868,2.));
#1387=CARTESIAN_POINT('',(7.03719729513201,-6.63953908260105,2.));
#1388=VECTOR('',#1389,1.);
#1389=DIRECTION('',(0.937370731828602,0.348333333333334,0.));
#1390=CARTESIAN_POINT('',(16.20175,3.23392902480867,2.));
#1391=AXIS2_PLACEMENT_3D('',#1392,#1393,#1394);
#1392=CARTESIAN_POINT('',(15.,-1.83697019872103E-15,2.));
#1393=DIRECTION('',(0.,0.,1.));
#1394=DIRECTION('',(0.348333333333332,-0.937370731828602,0.));
#1395=CARTESIAN_POINT('',(7.03719729548187,6.63953908223024,2.));
#1396=CARTESIAN_POINT('',(16.20175,3.23392902480867,2.));
#1397=VECTOR('',#1398,1.);
#1398=DIRECTION('',(-0.937370731828602,0.348333333333334,0.));
#1399=AXIS2_PLACEMENT_3D('',#1400,#1401,#1402);
#1400=CARTESIAN_POINT('',(0.,0.,2.));
#1401=DIRECTION('',(0.,0.,1.));
#1402=DIRECTION('',(0.727358893611554,-0.686257269458165,0.));
#1403=CARTESIAN_POINT('',(15.,-3.34863156129983,2.));
#1404=CARTESIAN_POINT('',(12.1,-1.67431578064991,2.));
#1405=CARTESIAN_POINT('',(12.1,-1.67431578064991,2.));
#1406=VECTOR('',#1407,1.);
#1407=DIRECTION('',(0.866025403784439,-0.5,0.));
#1408=CARTESIAN_POINT('',(12.1,1.67431578064991,2.));
#1409=CARTESIAN_POINT('',(12.1,1.67431578064991,2.));
#1410=VECTOR('',#1411,1.);
#1411=DIRECTION('',(0.,-1.,0.));
#1412=CARTESIAN_POINT('',(15.,3.34863156129984,2.));
#1413=CARTESIAN_POINT('',(15.,3.34863156129984,2.));
#1414=VECTOR('',#1415,1.);
#1415=DIRECTION('',(-0.866025403784437,-0.500000000000002,0.));
#1416=CARTESIAN_POINT('',(17.9,1.67431578064992,2.));
#1417=CARTESIAN_POINT('',(17.9,1.67431578064992,2.));
#1418=VECTOR('',#1419,1.);
#1419=DIRECTION('',(-0.866025403784438,0.5,0.));
#1420=CARTESIAN_POINT('',(17.9,-1.67431578064992,2.));
#1421=CARTESIAN_POINT('',(17.9,-1.67431578064992,2.));
#1422=VECTOR('',#1423,1.);
#1423=DIRECTION('',(2.12188986083703E-15,1.,0.));
#1424=CARTESIAN_POINT('',(15.,-3.34863156129983,2.));
#1425=VECTOR('',#1426,1.);
#1426=DIRECTION('',(0.866025403784439,0.499999999999999,0.));
#1427=CARTESIAN_POINT('',(12.1,-1.67431578064991,0.));
#1428=CARTESIAN_POINT('',(12.1,1.67431578064991,0.));
#1429=CARTESIAN_POINT('',(12.1,1.67431578064991,0.));
#1430=VECTOR('',#1431,1.);
#1431=DIRECTION('',(0.,-1.,0.));
#1432=CARTESIAN_POINT('',(15.,-3.34863156129983,0.));
#1433=CARTESIAN_POINT('',(12.1,-1.67431578064991,0.));
#1434=VECTOR('',#1435,1.);
#1435=DIRECTION('',(0.866025403784439,-0.5,0.));
#1436=CARTESIAN_POINT('',(17.9,-1.67431578064992,0.));
#1437=CARTESIAN_POINT('',(15.,-3.34863156129983,0.));
#1438=VECTOR('',#1439,1.);
#1439=DIRECTION('',(0.866025403784439,0.499999999999999,0.));
#1440=CARTESIAN_POINT('',(17.9,1.67431578064992,0.));
#1441=CARTESIAN_POINT('',(17.9,-1.67431578064992,0.));
#1442=VECTOR('',#1443,1.);
#1443=DIRECTION('',(2.12188986083703E-15,1.,0.));
#1444=CARTESIAN_POINT('',(15.,3.34863156129984,0.));
#1445=CARTESIAN_POINT('',(17.9,1.67431578064992,0.));
#1446=VECTOR('',#1447,1.);
#1447=DIRECTION('',(-0.866025403784438,0.5,0.));
#1448=CARTESIAN_POINT('',(15.,3.34863156129984,0.));
#1449=VECTOR('',#1450,1.);
#1450=DIRECTION('',(-0.866025403784437,-0.500000000000002,0.));
#1451=CARTESIAN_POINT('',(-12.1,1.67431578064991,0.));
#1452=CARTESIAN_POINT('',(-12.1,-1.67431578064991,0.));
#1453=CARTESIAN_POINT('',(-12.1,-1.67431578064991,0.));
#1454=VECTOR('',#1455,1.);
#1455=DIRECTION('',(0.,1.,0.));
#1456=CARTESIAN_POINT('',(-15.,3.34863156129983,0.));
#1457=CARTESIAN_POINT('',(-12.1,1.67431578064991,0.));
#1458=VECTOR('',#1459,1.);
#1459=DIRECTION('',(-0.866025403784437,0.500000000000002,0.));
#1460=CARTESIAN_POINT('',(-17.9,1.67431578064992,0.));
#1461=CARTESIAN_POINT('',(-15.,3.34863156129983,0.));
#1462=VECTOR('',#1463,1.);
#1463=DIRECTION('',(-0.866025403784438,-0.500000000000001,0.));
#1464=CARTESIAN_POINT('',(-17.9,-1.67431578064991,0.));
#1465=CARTESIAN_POINT('',(-17.9,1.67431578064992,0.));
#1466=VECTOR('',#1467,1.);
#1467=DIRECTION('',(-6.36566958251112E-15,-1.,0.));
#1468=CARTESIAN_POINT('',(-15.,-3.34863156129983,0.));
#1469=CARTESIAN_POINT('',(-17.9,-1.67431578064991,0.));
#1470=VECTOR('',#1471,1.);
#1471=DIRECTION('',(0.866025403784439,-0.5,0.));
#1472=CARTESIAN_POINT('',(-15.,-3.34863156129983,0.));
#1473=VECTOR('',#1474,1.);
#1474=DIRECTION('',(0.866025403784437,0.500000000000003,0.));
#1475=CARTESIAN_POINT('',(-12.1,1.67431578064991,0.));
#1476=VECTOR('',#1477,1.);
#1477=DIRECTION('',(0.,0.,1.));
#1478=CARTESIAN_POINT('',(-15.,3.34863156129983,0.));
#1479=VECTOR('',#1480,1.);
#1480=DIRECTION('',(0.,0.,1.));
#1481=CARTESIAN_POINT('',(-12.1,-1.67431578064991,0.));
#1482=VECTOR('',#1483,1.);
#1483=DIRECTION('',(0.,0.,1.));
#1484=CARTESIAN_POINT('',(-15.,-3.34863156129983,0.));
#1485=VECTOR('',#1486,1.);
#1486=DIRECTION('',(0.,0.,1.));
#1487=CARTESIAN_POINT('',(-17.9,-1.67431578064991,0.));
#1488=VECTOR('',#1489,1.);
#1489=DIRECTION('',(0.,0.,1.));
#1490=CARTESIAN_POINT('',(-17.9,1.67431578064992,0.));
#1491=VECTOR('',#1492,1.);
#1492=DIRECTION('',(0.,0.,1.));
#1493=CARTESIAN_POINT('',(12.1,-1.67431578064991,0.));
#1494=VECTOR('',#1495,1.);
#1495=DIRECTION('',(0.,0.,1.));
#1496=CARTESIAN_POINT('',(15.,-3.34863156129983,0.));
#1497=VECTOR('',#1498,1.);
#1498=DIRECTION('',(0.,0.,1.));
#1499=CARTESIAN_POINT('',(12.1,1.67431578064991,0.));
#1500=VECTOR('',#1501,1.);
#1501=DIRECTION('',(0.,0.,1.));
#1502=CARTESIAN_POINT('',(15.,3.34863156129984,0.));
#1503=VECTOR('',#1504,1.);
#1504=DIRECTION('',(0.,0.,1.));
#1505=CARTESIAN_POINT('',(17.9,1.67431578064992,0.));
#1506=VECTOR('',#1507,1.);
#1507=DIRECTION('',(0.,0.,1.));
#1508=CARTESIAN_POINT('',(17.9,-1.67431578064992,0.));
#1509=VECTOR('',#1510,1.);
#1510=DIRECTION('',(0.,0.,1.));
#1511=CARTESIAN_POINT('',(7.03719729569178,-6.63953908200775,2.));
#1512=CARTESIAN_POINT('',(6.97966455673417,-6.67636809463486,2.));
#1513=CARTESIAN_POINT('',(6.87177756641122,-6.74556657350616,2.00150071445249));
#1514=CARTESIAN_POINT('',(6.72288751494502,-6.83919185466693,2.00690504311627));
#1515=CARTESIAN_POINT('',(6.59675010786829,-6.91752981737443,2.01350362363843));
#1516=CARTESIAN_POINT('',(6.48752785194488,-6.98441674415442,2.02055880153928));
#1517=CARTESIAN_POINT('',(6.38084753386458,-7.0489712607714,2.02855653714558));
#1518=CARTESIAN_POINT('',(6.26909721239945,-7.11593979098871,2.03795860880104));
#1519=CARTESIAN_POINT('',(6.13883411259128,-7.19283993042614,2.05019258105263));
#1520=CARTESIAN_POINT('',(5.97737993365842,-7.28661686372721,2.06701275523168));
#1521=CARTESIAN_POINT('',(5.76058107574518,-7.40979854513819,2.09212180521709));
#1522=CARTESIAN_POINT('',(5.47611832028042,-7.5662787829789,2.12896217563323));
#1523=CARTESIAN_POINT('',(5.1304320309726,-7.7483190426779,2.17851146690879));
#1524=CARTESIAN_POINT('',(4.75744137293455,-7.93435372830313,2.23639365173877));
#1525=CARTESIAN_POINT('',(4.3873547631558,-8.10857883678732,2.29677745704955));
#1526=CARTESIAN_POINT('',(4.01716906788433,-8.27294594467461,2.35916991095482));
#1527=CARTESIAN_POINT('',(3.62248589672452,-8.43754343909456,2.42669826627807));
#1528=CARTESIAN_POINT('',(3.34388458858446,-8.54540606292482,2.47467320561601));
#1529=CARTESIAN_POINT('',(3.19595833333332,-8.60037646452743,2.5));
#1530=CARTESIAN_POINT('',(7.03719729569178,6.63953908200775,2.));
#1531=CARTESIAN_POINT('',(6.97966455673482,6.67636809463444,2.));
#1532=CARTESIAN_POINT('',(6.8717775664132,6.7455665735049,2.00150071445245));
#1533=CARTESIAN_POINT('',(6.72288751494878,6.83919185466458,2.00690504311611));
#1534=CARTESIAN_POINT('',(6.59675010787322,6.91752981737139,2.01350362363815));
#1535=CARTESIAN_POINT('',(6.48752785195011,6.98441674415125,2.02055880153891));
#1536=CARTESIAN_POINT('',(6.38084753386957,7.04897126076839,2.02855653714518));
#1537=CARTESIAN_POINT('',(6.26909721240412,7.11593979098594,2.03795860880062));
#1538=CARTESIAN_POINT('',(6.13883411259699,7.19283993042279,2.05019258105207));
#1539=CARTESIAN_POINT('',(5.97737993366499,7.28661686372344,2.06701275523096));
#1540=CARTESIAN_POINT('',(5.76058107575302,7.40979854513382,2.09212180521612));
#1541=CARTESIAN_POINT('',(5.47611832029073,7.56627878297332,2.12896217563184));
#1542=CARTESIAN_POINT('',(5.13043203099039,7.74831904266868,2.17851146690616));
#1543=CARTESIAN_POINT('',(4.75744137296507,7.93435372828818,2.23639365173395));
#1544=CARTESIAN_POINT('',(4.38735476320179,8.10857883676616,2.29677745704189));
#1545=CARTESIAN_POINT('',(4.01716906793674,8.27294594465204,2.35916991094594));
#1546=CARTESIAN_POINT('',(3.62248589676165,8.43754343907997,2.42669826627164));
#1547=CARTESIAN_POINT('',(3.34388458860064,8.54540606291881,2.47467320561322));
#1548=CARTESIAN_POINT('',(3.19595833333332,8.60037646452743,2.5));
#1549=CARTESIAN_POINT('',(-7.03719729569178,6.63953908200775,2.));
#1550=CARTESIAN_POINT('',(-6.97966455673499,6.67636809463433,2.));
#1551=CARTESIAN_POINT('',(-6.87177756641325,6.74556657350487,2.00150071445245));
#1552=CARTESIAN_POINT('',(-6.72288751494835,6.83919185466485,2.00690504311613));
#1553=CARTESIAN_POINT('',(-6.59675010787198,6.91752981737216,2.01350362363822));
#1554=CARTESIAN_POINT('',(-6.48752785194862,6.98441674415215,2.02055880153901));
#1555=CARTESIAN_POINT('',(-6.38084753386832,7.04897126076914,2.02855653714528));
#1556=CARTESIAN_POINT('',(-6.26909721240323,7.11593979098647,2.0379586088007));
#1557=CARTESIAN_POINT('',(-6.13883411259578,7.1928399304235,2.05019258105219));
#1558=CARTESIAN_POINT('',(-5.97737993366241,7.28661686372492,2.06701275523124));
#1559=CARTESIAN_POINT('',(-5.76058107574588,7.40979854513784,2.09212180521697));
#1560=CARTESIAN_POINT('',(-5.47611832027567,7.56627878298151,2.12896217563386));
#1561=CARTESIAN_POINT('',(-5.13043203096636,7.74831904268108,2.17851146690973));
#1562=CARTESIAN_POINT('',(-4.75744137293736,7.93435372830161,2.23639365173837));
#1563=CARTESIAN_POINT('',(-4.38735476318057,8.10857883677575,2.29677745704547));
#1564=CARTESIAN_POINT('',(-4.01716906792686,8.27294594465617,2.35916991094762));
#1565=CARTESIAN_POINT('',(-3.62248589676035,8.43754343908045,2.42669826627184));
#1566=CARTESIAN_POINT('',(-3.34388458860148,8.5454060629185,2.47467320561313));
#1567=CARTESIAN_POINT('',(-3.19595833333331,8.60037646452743,2.5));
#1568=CARTESIAN_POINT('',(-7.03719729569178,-6.63953908200774,2.));
#1569=CARTESIAN_POINT('',(-6.97966455673543,-6.67636809463405,2.));
#1570=CARTESIAN_POINT('',(-6.87177756641442,-6.74556657350412,2.00150071445243));
#1571=CARTESIAN_POINT('',(-6.7228875149505,-6.8391918546635,2.00690504311604));
#1572=CARTESIAN_POINT('',(-6.59675010787467,-6.9175298173705,2.01350362363806));
#1573=CARTESIAN_POINT('',(-6.4875278519515,-6.9844167441504,2.02055880153881));
#1574=CARTESIAN_POINT('',(-6.38084753387084,-7.04897126076762,2.02855653714508));
#1575=CARTESIAN_POINT('',(-6.26909721240462,-7.11593979098564,2.03795860880057));
#1576=CARTESIAN_POINT('',(-6.13883411259347,-7.19283993042487,2.0501925810524));
#1577=CARTESIAN_POINT('',(-5.97737993365654,-7.28661686372831,2.06701275523187));
#1578=CARTESIAN_POINT('',(-5.76058107573765,-7.40979854514244,2.09212180521799));
#1579=CARTESIAN_POINT('',(-5.4761183202676,-7.56627878298585,2.12896217563497));
#1580=CARTESIAN_POINT('',(-5.13043203095828,-7.74831904268523,2.17851146691094));
#1581=CARTESIAN_POINT('',(-4.75744137292894,-7.9343537283057,2.23639365173972));
#1582=CARTESIAN_POINT('',(-4.38735476317383,-8.1085788367788,2.2967774570466));
#1583=CARTESIAN_POINT('',(-4.01716906792272,-8.27294594465791,2.35916991094833));
#1584=CARTESIAN_POINT('',(-3.62248589675904,-8.43754343908097,2.42669826627208));
#1585=CARTESIAN_POINT('',(-3.3438845886011,-8.54540606291864,2.47467320561317));
#1586=CARTESIAN_POINT('',(-3.19595833333332,-8.60037646452743,2.5));
#1587=CARTESIAN_POINT('',(7.21136396265141,-7.10822444819847,1.5));
#1588=CARTESIAN_POINT('',(7.21136763610725,-7.10823378440782,1.5185979332476));
#1589=CARTESIAN_POINT('',(7.21050157352351,-7.10590199194015,1.56285703160387));
#1590=CARTESIAN_POINT('',(7.20558457627555,-7.09266861914059,1.63688207654679));
#1591=CARTESIAN_POINT('',(7.19464505626426,-7.06322868087816,1.72077826598817));
#1592=CARTESIAN_POINT('',(7.17742192608268,-7.0168800635021,1.80164763650589));
#1593=CARTESIAN_POINT('',(7.15520407705122,-6.95709128767963,1.87161290344449));
#1594=CARTESIAN_POINT('',(7.12940927619491,-6.88767757863431,1.92753460053138));
#1595=CARTESIAN_POINT('',(7.10100317362293,-6.8112374223492,1.96813972717874));
#1596=CARTESIAN_POINT('',(7.0739876892394,-6.73853997567732,1.99063183553239));
#1597=CARTESIAN_POINT('',(7.05267744947107,-6.68119504794282,1.99883269448292));
#1598=CARTESIAN_POINT('',(7.04136142721575,-6.65074442034204,2.00000247232901));
#1599=CARTESIAN_POINT('',(7.03719729541189,-6.6395390823044,2.));
#1600=AXIS2_PLACEMENT_3D('',#1601,#1602,#1603);
#1601=CARTESIAN_POINT('',(16.20175,-3.23392902480868,1.5));
#1602=DIRECTION('',(-0.937370731828602,-0.348333333333334,9.86076131526265E-32));
#1603=DIRECTION('',(0.348333333333334,-0.937370731828602,1.72633725049472E-15));
#1604=AXIS2_PLACEMENT_3D('',#1605,#1606,#1607);
#1605=CARTESIAN_POINT('',(16.20175,3.23392902480868,1.5));
#1606=DIRECTION('',(0.937370731828603,-0.348333333333331,0.));
#1607=DIRECTION('',(0.348333333333331,0.937370731828603,-4.44089209850063E-16));
#1608=CARTESIAN_POINT('',(7.21136396265142,7.10822444819847,1.5));
#1609=CARTESIAN_POINT('',(7.21136763610725,7.10823378440782,1.5185979332476));
#1610=CARTESIAN_POINT('',(7.21050157352351,7.10590199194014,1.56285703160387));
#1611=CARTESIAN_POINT('',(7.20558457627556,7.09266861914059,1.63688207654679));
#1612=CARTESIAN_POINT('',(7.19464505626427,7.06322868087816,1.72077826598817));
#1613=CARTESIAN_POINT('',(7.17742192608268,7.0168800635021,1.8016476365059));
#1614=CARTESIAN_POINT('',(7.15520407705121,6.95709128767963,1.87161290344449));
#1615=CARTESIAN_POINT('',(7.12940927619491,6.88767757863431,1.92753460053138));
#1616=CARTESIAN_POINT('',(7.10100317362294,6.8112374223492,1.96813972717874));
#1617=CARTESIAN_POINT('',(7.07398768923939,6.73853997567732,1.99063183553239));
#1618=CARTESIAN_POINT('',(7.05267744947107,6.68119504794282,1.99883269448292));
#1619=CARTESIAN_POINT('',(7.04136142721576,6.65074442034203,2.00000247232901));
#1620=CARTESIAN_POINT('',(7.0371972954119,6.6395390823044,2.));
#1621=CARTESIAN_POINT('',(-7.21136396265142,7.10822444819847,1.5));
#1622=CARTESIAN_POINT('',(-7.21136763610725,7.10823378440782,1.5185979332476));
#1623=CARTESIAN_POINT('',(-7.21050157352352,7.10590199194015,1.56285703160387));
#1624=CARTESIAN_POINT('',(-7.20558457627556,7.09266861914058,1.63688207654679));
#1625=CARTESIAN_POINT('',(-7.19464505626427,7.06322868087816,1.72077826598818));
#1626=CARTESIAN_POINT('',(-7.17742192608269,7.0168800635021,1.8016476365059));
#1627=CARTESIAN_POINT('',(-7.15520407705122,6.95709128767963,1.87161290344449));
#1628=CARTESIAN_POINT('',(-7.12940927619491,6.88767757863431,1.92753460053138));
#1629=CARTESIAN_POINT('',(-7.10100317362294,6.8112374223492,1.96813972717874));
#1630=CARTESIAN_POINT('',(-7.07398768923939,6.73853997567731,1.99063183553239));
#1631=CARTESIAN_POINT('',(-7.05267744947108,6.68119504794282,1.99883269448292));
#1632=CARTESIAN_POINT('',(-7.04136142721576,6.65074442034203,2.00000247232901));
#1633=CARTESIAN_POINT('',(-7.0371972954119,6.6395390823044,2.));
#1634=AXIS2_PLACEMENT_3D('',#1635,#1636,#1637);
#1635=CARTESIAN_POINT('',(-16.20175,3.23392902480868,1.5));
#1636=DIRECTION('',(0.937370731828602,0.348333333333333,9.86076131526265E-32));
#1637=DIRECTION('',(-0.348333333333333,0.937370731828602,-1.60387257057999E-15));
#1638=AXIS2_PLACEMENT_3D('',#1639,#1640,#1641);
#1639=CARTESIAN_POINT('',(-16.20175,-3.23392902480867,1.5));
#1640=DIRECTION('',(-0.937370731828602,0.348333333333334,0.));
#1641=DIRECTION('',(-0.348333333333334,-0.937370731828602,-4.44089209850062E-16));
#1642=CARTESIAN_POINT('',(-7.21136396265142,-7.10822444819846,1.5));
#1643=CARTESIAN_POINT('',(-7.21136763610726,-7.10823378440782,1.51859793324761));
#1644=CARTESIAN_POINT('',(-7.21050157352353,-7.10590199194014,1.56285703160387));
#1645=CARTESIAN_POINT('',(-7.20558457627556,-7.09266861914058,1.63688207654679));
#1646=CARTESIAN_POINT('',(-7.19464505626427,-7.06322868087816,1.72077826598818));
#1647=CARTESIAN_POINT('',(-7.17742192608269,-7.01688006350209,1.80164763650589));
#1648=CARTESIAN_POINT('',(-7.15520407705123,-6.95709128767962,1.87161290344449));
#1649=CARTESIAN_POINT('',(-7.12940927619491,-6.8876775786343,1.92753460053138));
#1650=CARTESIAN_POINT('',(-7.10100317362294,-6.8112374223492,1.96813972717874));
#1651=CARTESIAN_POINT('',(-7.07398768923939,-6.73853997567731,1.99063183553239));
#1652=CARTESIAN_POINT('',(-7.05267744947108,-6.68119504794281,1.99883269448292));
#1653=CARTESIAN_POINT('',(-7.04136142721577,-6.65074442034203,2.00000247232901));
#1654=CARTESIAN_POINT('',(-7.0371972954119,-6.6395390823044,2.));
ENDSEC;
END-ISO-10303-21;
