ISO-10303-21;
HEADER;
FILE_DESCRIPTION(('STEP AP203'),
    '1');
FILE_NAME('Крепление vl',
    '',
    ('UNSPECIFIED'),
    ('UNSPECIFIED'),
    'C3D Converter',
    'C3D Toolkit',
    '');
FILE_SCHEMA(('CONFIG_CONTROL_DESIGN'));
ENDSEC;

DATA;
#1=PRODUCT_DEFINITION('','UNSPECIFIED',#28,#31);
#2=SHAPE_DEFINITION_REPRESENTATION(#26,#3);
#3=SHAPE_REPRESENTATION('NONE',(#4),#8);
#4=AXIS2_PLACEMENT_3D('',#5,#6,#7);
#5=CARTESIAN_POINT('',(0.,0.,0.));
#6=DIRECTION('',(0.,0.,1.));
#7=DIRECTION('',(1.,0.,0.));
#8=(GEOMETRIC_REPRESENTATION_CONTEXT(3)GLOBAL_UNCERTAINTY_ASSIGNED_CONTEXT((#10))
GLOBAL_UNIT_ASSIGNED_CONTEXT((#9,#11,#12))REPRESENTATION_CONTEXT('NONE','NONE'));
#9=(LENGTH_UNIT()NAMED_UNIT(*)SI_UNIT(.MILLI.,.METRE.));
#10=UNCERTAINTY_MEASURE_WITH_UNIT(LENGTH_MEASURE(1.E-5),#9,'NONE','NONE');
#11=(NAMED_UNIT(*)PLANE_ANGLE_UNIT()SI_UNIT($,.RADIAN.));
#12=(NAMED_UNIT(*)SI_UNIT($,.STERADIAN.)SOLID_ANGLE_UNIT());
#13=MANIFOLD_SOLID_BREP('',#14);
#14=CLOSED_SHELL('',(#53,#54,#55,#56,#57,#58,#59,#60,#61,#62,#63,#64,#65,#66,#67,
#68,#69,#70,#71,#72,#73,#74,#75,#76,#77,#78,#79,#80,#81,#82,#83,#84,#85,#86,#87,
#88,#89,#90,#91,#92,#93,#94,#95,#96,#97));
#15=COLOUR_RGB('',0.564705882352941,0.564705882352941,0.564705882352941);
#16=FILL_AREA_STYLE_COLOUR('',#15);
#17=FILL_AREA_STYLE($,(#16));
#18=SURFACE_STYLE_FILL_AREA(#17);
#19=SURFACE_SIDE_STYLE('',(#18));
#20=SURFACE_STYLE_USAGE(.BOTH.,#19);
#21=PRESENTATION_STYLE_ASSIGNMENT((#20));
#22=MECHANICAL_DESIGN_GEOMETRIC_PRESENTATION_REPRESENTATION('NONE',(#23),#8);
#23=STYLED_ITEM('',(#21),#13);
#24=ADVANCED_BREP_SHAPE_REPRESENTATION('NONE',(#13),#8);
#25=SHAPE_REPRESENTATION_RELATIONSHIP('','',#3,#24);
#26=PRODUCT_DEFINITION_SHAPE('NONE','NONE',#1);
#27=MECHANICAL_CONTEXT('NONE',#32,'mechanical');
#28=PRODUCT_DEFINITION_FORMATION_WITH_SPECIFIED_SOURCE('ANY','UNSPECIFIED',#29,.NOT_KNOWN.);
#29=PRODUCT('','\X2\0414043504420430043B044C\X0\','NONE',(#27));
#30=PRODUCT_RELATED_PRODUCT_CATEGORY('detail','',(#29));
#31=DESIGN_CONTEXT('detailed design',#32,'design');
#32=APPLICATION_CONTEXT('configuration controlled 3d designs of mechanical parts and assemblies');
#33=APPLICATION_PROTOCOL_DEFINITION('international standard','config_control_design',
1994,#32);
#34=CC_DESIGN_DATE_AND_TIME_ASSIGNMENT(#35,#39,(#1));
#35=DATE_AND_TIME(#36,#37);
#36=CALENDAR_DATE(0,1,1);
#37=LOCAL_TIME(0,0,0.,#38);
#38=COORDINATED_UNIVERSAL_TIME_OFFSET(0,0,.AHEAD.);
#39=DATE_TIME_ROLE('creation_date');
#40=CC_DESIGN_APPROVAL(#41,(#1));
#41=APPROVAL(#42,'UNSPECIFIED');
#42=APPROVAL_STATUS('not_yet_approved');
#43=APPROVAL_DATE_TIME(#44,#41);
#44=DATE_AND_TIME(#45,#46);
#45=CALENDAR_DATE(0,1,1);
#46=LOCAL_TIME(0,0,0.,#47);
#47=COORDINATED_UNIVERSAL_TIME_OFFSET(0,0,.AHEAD.);
#48=PERSON('UNSPECIFIED','User','UNSPECIFIED',('UNSPECIFIED'),('UNSPECIFIED'),('UNSPECIFIED'));
#49=ORGANIZATION('UNSPECIFIED','UNSPECIFIED','UNSPECIFIED');
#50=PERSON_AND_ORGANIZATION(#48,#49);
#51=PERSON_AND_ORGANIZATION_ROLE('creator');
#52=CC_DESIGN_PERSON_AND_ORGANIZATION_ASSIGNMENT(#50,#51,(#28,#1));
#53=ADVANCED_FACE('',(#98,#100,#102),#104,.T.);
#54=ADVANCED_FACE('',(#109),#111,.F.);
#55=ADVANCED_FACE('',(#116),#118,.F.);
#56=ADVANCED_FACE('',(#123),#125,.F.);
#57=ADVANCED_FACE('',(#130,#132,#134),#136,.F.);
#58=ADVANCED_FACE('',(#141),#143,.T.);
#59=ADVANCED_FACE('',(#148),#150,.T.);
#60=ADVANCED_FACE('',(#155),#157,.F.);
#61=ADVANCED_FACE('',(#162),#164,.T.);
#62=ADVANCED_FACE('',(#169,#171,#173),#175,.T.);
#63=ADVANCED_FACE('',(#180),#182,.T.);
#64=ADVANCED_FACE('',(#187),#189,.F.);
#65=ADVANCED_FACE('',(#194),#196,.T.);
#66=ADVANCED_FACE('',(#201,#203),#205,.T.);
#67=ADVANCED_FACE('',(#210),#212,.T.);
#68=ADVANCED_FACE('',(#217,#219),#221,.F.);
#69=ADVANCED_FACE('',(#226),#228,.T.);
#70=ADVANCED_FACE('',(#233,#235),#237,.T.);
#71=ADVANCED_FACE('',(#242),#244,.T.);
#72=ADVANCED_FACE('',(#249,#251),#253,.F.);
#73=ADVANCED_FACE('',(#258),#260,.F.);
#74=ADVANCED_FACE('',(#265,#267,#269,#271),#273,.T.);
#75=ADVANCED_FACE('',(#278),#280,.F.);
#76=ADVANCED_FACE('',(#285),#287,.F.);
#77=ADVANCED_FACE('',(#292),#294,.T.);
#78=ADVANCED_FACE('',(#299),#301,.T.);
#79=ADVANCED_FACE('',(#306),#308,.T.);
#80=ADVANCED_FACE('',(#313),#315,.T.);
#81=ADVANCED_FACE('',(#320),#322,.T.);
#82=ADVANCED_FACE('',(#327),#329,.T.);
#83=ADVANCED_FACE('',(#334),#336,.T.);
#84=ADVANCED_FACE('',(#341),#343,.T.);
#85=ADVANCED_FACE('',(#348),#350,.T.);
#86=ADVANCED_FACE('',(#355,#357),#359,.F.);
#87=ADVANCED_FACE('',(#364,#366),#368,.F.);
#88=ADVANCED_FACE('',(#373,#375),#377,.F.);
#89=ADVANCED_FACE('',(#382,#384),#386,.F.);
#90=ADVANCED_FACE('',(#391),#393,.T.);
#91=ADVANCED_FACE('',(#398),#400,.T.);
#92=ADVANCED_FACE('',(#405,#407),#409,.F.);
#93=ADVANCED_FACE('',(#414),#416,.T.);
#94=ADVANCED_FACE('',(#421),#423,.T.);
#95=ADVANCED_FACE('',(#428,#430),#432,.F.);
#96=ADVANCED_FACE('',(#437),#439,.T.);
#97=ADVANCED_FACE('',(#444),#446,.T.);
#98=FACE_BOUND('',#99,.T.);
#99=EDGE_LOOP('',(#451,#452,#453,#454,#455,#456,#457,#458,#459,#460));
#100=FACE_BOUND('',#101,.T.);
#101=EDGE_LOOP('',(#461,#462,#463,#464));
#102=FACE_BOUND('',#103,.T.);
#103=EDGE_LOOP('',(#465,#466,#467,#468));
#104=PLANE('',#105);
#105=AXIS2_PLACEMENT_3D('',#106,#107,#108);
#106=CARTESIAN_POINT('',(-11.45,-7.,2.15239881164595));
#107=DIRECTION('',(0.,-1.,0.));
#108=DIRECTION('',(1.,0.,1.16355251489099E-16));
#109=FACE_BOUND('',#110,.T.);
#110=EDGE_LOOP('',(#469,#470,#471,#472));
#111=PLANE('',#112);
#112=AXIS2_PLACEMENT_3D('',#113,#114,#115);
#113=CARTESIAN_POINT('',(-7.79405647200739,-3.,2.15239881164595));
#114=DIRECTION('',(0.866025403784439,-5.55111512312577E-17,0.5));
#115=DIRECTION('',(-0.5,0.,0.866025403784439));
#116=FACE_BOUND('',#117,.T.);
#117=EDGE_LOOP('',(#473,#474,#475,#476));
#118=PLANE('',#119);
#119=AXIS2_PLACEMENT_3D('',#120,#121,#122);
#120=CARTESIAN_POINT('',(8.22568421935009,-3.,2.9));
#121=DIRECTION('',(-0.866025403784439,0.,0.5));
#122=DIRECTION('',(-0.5,0.,-0.866025403784439));
#123=FACE_BOUND('',#124,.T.);
#124=EDGE_LOOP('',(#477,#478,#479,#480,#481,#482,#483,#484));
#125=PLANE('',#126);
#126=AXIS2_PLACEMENT_3D('',#127,#128,#129);
#127=CARTESIAN_POINT('',(-7.85,-3.,-2.45));
#128=DIRECTION('',(-1.41429684665625E-16,-1.48029736616687E-16,1.));
#129=DIRECTION('',(1.,0.,1.41429684665625E-16));
#130=FACE_BOUND('',#131,.T.);
#131=EDGE_LOOP('',(#485,#486,#487,#488,#489,#490,#491,#492,#493,#494,#495,#496,#497,
#498,#499,#500,#501,#502,#503,#504,#505,#506));
#132=FACE_BOUND('',#133,.T.);
#133=EDGE_LOOP('',(#507));
#134=FACE_BOUND('',#135,.T.);
#135=EDGE_LOOP('',(#508));
#136=PLANE('',#137);
#137=AXIS2_PLACEMENT_3D('',#138,#139,#140);
#138=CARTESIAN_POINT('',(0.,-3.,-1.83697019872103E-16));
#139=DIRECTION('',(0.,1.,6.12323399573677E-17));
#140=DIRECTION('',(-1.,7.49879891330929E-33,-1.22464679914735E-16));
#141=FACE_BOUND('',#142,.T.);
#142=EDGE_LOOP('',(#509,#510,#511,#512));
#143=PLANE('',#144);
#144=AXIS2_PLACEMENT_3D('',#145,#146,#147);
#145=CARTESIAN_POINT('',(7.96587659821476,-3.,-2.45));
#146=DIRECTION('',(0.866025403784439,0.,0.5));
#147=DIRECTION('',(-0.5,0.,0.866025403784439));
#148=FACE_BOUND('',#149,.T.);
#149=EDGE_LOOP('',(#513,#514,#515,#516));
#150=PLANE('',#151);
#151=AXIS2_PLACEMENT_3D('',#152,#153,#154);
#152=CARTESIAN_POINT('',(-6.55136843870017,-3.,4.15455993335745E-15));
#153=DIRECTION('',(-0.866025403784438,-3.06161699786838E-17,0.500000000000001));
#154=DIRECTION('',(-0.500000000000001,0.,-0.866025403784438));
#155=FACE_BOUND('',#156,.T.);
#156=EDGE_LOOP('',(#517,#518,#519,#520));
#157=PLANE('',#158);
#158=AXIS2_PLACEMENT_3D('',#159,#160,#161);
#159=CARTESIAN_POINT('',(11.5743157806499,-3.,2.9));
#160=DIRECTION('',(-1.32618116302315E-16,0.,1.));
#161=DIRECTION('',(-1.,0.,-1.32618116302315E-16));
#162=FACE_BOUND('',#163,.T.);
#163=EDGE_LOOP('',(#521,#522,#523,#524,#525,#526));
#164=PLANE('',#165);
#165=AXIS2_PLACEMENT_3D('',#166,#167,#168);
#166=CARTESIAN_POINT('',(11.45,-7.,2.15239881164595));
#167=DIRECTION('',(1.,0.,0.));
#168=DIRECTION('',(0.,1.,0.));
#169=FACE_BOUND('',#170,.T.);
#170=EDGE_LOOP('',(#527,#528,#529,#530));
#171=FACE_BOUND('',#172,.T.);
#172=EDGE_LOOP('',(#531));
#173=FACE_BOUND('',#174,.T.);
#174=EDGE_LOOP('',(#532));
#175=PLANE('',#176);
#176=AXIS2_PLACEMENT_3D('',#177,#178,#179);
#177=CARTESIAN_POINT('',(-3.07930089266496E-16,0.,11.152398811646));
#178=DIRECTION('',(-1.02643363088832E-16,0.,1.));
#179=DIRECTION('',(-1.,1.22464679914735E-16,-1.02643363088832E-16));
#180=FACE_BOUND('',#181,.T.);
#181=EDGE_LOOP('',(#533,#534,#535,#536,#537,#538));
#182=PLANE('',#183);
#183=AXIS2_PLACEMENT_3D('',#184,#185,#186);
#184=CARTESIAN_POINT('',(-11.45,-3.7672577558801E-16,2.15239881164595));
#185=DIRECTION('',(-1.,-2.53765262771464E-16,0.));
#186=DIRECTION('',(2.53765262771464E-16,-1.,0.));
#187=FACE_BOUND('',#188,.T.);
#188=EDGE_LOOP('',(#539,#540,#541,#542));
#189=PLANE('',#190);
#190=AXIS2_PLACEMENT_3D('',#191,#192,#193);
#191=CARTESIAN_POINT('',(-8.22568421935009,-3.,2.90000000000001));
#192=DIRECTION('',(7.95708697813889E-16,-1.11022302462516E-16,1.));
#193=DIRECTION('',(-1.,0.,7.95708697813889E-16));
#194=FACE_BOUND('',#195,.T.);
#195=EDGE_LOOP('',(#543,#544,#545,#546));
#196=PLANE('',#197);
#197=AXIS2_PLACEMENT_3D('',#198,#199,#200);
#198=CARTESIAN_POINT('',(-4.35000000001384,-1.82568421937436,6.15239881164595));
#199=DIRECTION('',(-1.,-1.03316962760411E-12,0.));
#200=DIRECTION('',(1.03316962760411E-12,-1.,0.));
#201=FACE_BOUND('',#202,.T.);
#202=EDGE_LOOP('',(#547,#548,#549,#550,#551));
#203=FACE_BOUND('',#204,.T.);
#204=EDGE_LOOP('',(#552));
#205=PLANE('',#206);
#206=AXIS2_PLACEMENT_3D('',#207,#208,#209);
#207=CARTESIAN_POINT('',(-8.65305259855387,-3.,6.15239881164595));
#208=DIRECTION('',(-1.02643363088832E-16,0.,1.));
#209=DIRECTION('',(1.,0.,1.02643363088832E-16));
#210=FACE_BOUND('',#211,.T.);
#211=EDGE_LOOP('',(#553,#554,#555,#556));
#212=PLANE('',#213);
#213=AXIS2_PLACEMENT_3D('',#214,#215,#216);
#214=CARTESIAN_POINT('',(-10.15,-7.,6.15239881164595));
#215=DIRECTION('',(1.,-9.14901830056819E-13,0.));
#216=DIRECTION('',(9.14901830056819E-13,1.,0.));
#217=FACE_BOUND('',#218,.T.);
#218=EDGE_LOOP('',(#557,#558,#559,#560,#561));
#219=FACE_BOUND('',#220,.T.);
#220=EDGE_LOOP('',(#562));
#221=PLANE('',#222);
#222=AXIS2_PLACEMENT_3D('',#223,#224,#225);
#223=CARTESIAN_POINT('',(0.,0.,8.15239881164595));
#224=DIRECTION('',(-1.02643363088832E-16,0.,1.));
#225=DIRECTION('',(-1.,1.22464679914735E-16,-1.02643363088832E-16));
#226=FACE_BOUND('',#227,.T.);
#227=EDGE_LOOP('',(#563,#564,#565,#566));
#228=PLANE('',#229);
#229=AXIS2_PLACEMENT_3D('',#230,#231,#232);
#230=CARTESIAN_POINT('',(10.15,-1.8256842193604,6.15239881164595));
#231=DIRECTION('',(-1.,0.,0.));
#232=DIRECTION('',(0.,-1.,0.));
#233=FACE_BOUND('',#234,.T.);
#234=EDGE_LOOP('',(#567,#568,#569,#570,#571));
#235=FACE_BOUND('',#236,.T.);
#236=EDGE_LOOP('',(#572));
#237=PLANE('',#238);
#238=AXIS2_PLACEMENT_3D('',#239,#240,#241);
#239=CARTESIAN_POINT('',(-8.65305259855387,-3.,6.15239881164595));
#240=DIRECTION('',(-1.02643363088832E-16,0.,1.));
#241=DIRECTION('',(1.,0.,1.02643363088832E-16));
#242=FACE_BOUND('',#243,.T.);
#243=EDGE_LOOP('',(#573,#574,#575,#576));
#244=PLANE('',#245);
#245=AXIS2_PLACEMENT_3D('',#246,#247,#248);
#246=CARTESIAN_POINT('',(4.35000000000849,-7.,6.15239881164595));
#247=DIRECTION('',(1.,3.28334750570295E-12,0.));
#248=DIRECTION('',(-3.28334750570295E-12,1.,0.));
#249=FACE_BOUND('',#250,.T.);
#250=EDGE_LOOP('',(#577,#578,#579,#580,#581));
#251=FACE_BOUND('',#252,.T.);
#252=EDGE_LOOP('',(#582));
#253=PLANE('',#254);
#254=AXIS2_PLACEMENT_3D('',#255,#256,#257);
#255=CARTESIAN_POINT('',(0.,0.,8.15239881164595));
#256=DIRECTION('',(-1.02643363088832E-16,0.,1.));
#257=DIRECTION('',(-1.,1.22464679914735E-16,-1.02643363088832E-16));
#258=FACE_BOUND('',#259,.T.);
#259=EDGE_LOOP('',(#583,#584,#585,#586));
#260=PLANE('',#261);
#261=AXIS2_PLACEMENT_3D('',#262,#263,#264);
#262=CARTESIAN_POINT('',(-7.85,-3.,-5.35));
#263=DIRECTION('',(-1.,5.47382212626882E-48,-3.0626842058625E-16));
#264=DIRECTION('',(-3.0626842058625E-16,-1.53134210293125E-16,1.));
#265=FACE_BOUND('',#266,.T.);
#266=EDGE_LOOP('',(#587,#588,#589,#590,#591,#592,#593,#594,#595,#596,#597,#598));
#267=FACE_BOUND('',#268,.T.);
#268=EDGE_LOOP('',(#599,#600,#601,#602));
#269=FACE_BOUND('',#270,.T.);
#270=EDGE_LOOP('',(#603));
#271=FACE_BOUND('',#272,.T.);
#272=EDGE_LOOP('',(#604));
#273=PLANE('',#274);
#274=AXIS2_PLACEMENT_3D('',#275,#276,#277);
#275=CARTESIAN_POINT('',(0.,0.,0.));
#276=DIRECTION('',(0.,1.,6.12323399573677E-17));
#277=DIRECTION('',(-1.,7.49879891330929E-33,-1.22464679914735E-16));
#278=FACE_BOUND('',#279,.T.);
#279=EDGE_LOOP('',(#605,#606,#607,#608));
#280=PLANE('',#281);
#281=AXIS2_PLACEMENT_3D('',#282,#283,#284);
#282=CARTESIAN_POINT('',(7.85,-3.,-2.45));
#283=DIRECTION('',(1.,0.,3.0626842058625E-16));
#284=DIRECTION('',(3.0626842058625E-16,1.53134210293125E-16,-1.));
#285=FACE_BOUND('',#286,.T.);
#286=EDGE_LOOP('',(#609,#610,#611,#612));
#287=PLANE('',#288);
#288=AXIS2_PLACEMENT_3D('',#289,#290,#291);
#289=CARTESIAN_POINT('',(7.85,-3.,-5.35));
#290=DIRECTION('',(1.131437477325E-16,0.,-1.));
#291=DIRECTION('',(-1.,0.,-1.131437477325E-16));
#292=FACE_BOUND('',#293,.T.);
#293=EDGE_LOOP('',(#613,#614,#615,#616));
#294=CYLINDRICAL_SURFACE('',#295,3.25);
#295=AXIS2_PLACEMENT_3D('',#296,#297,#298);
#296=CARTESIAN_POINT('',(-9.9,-3.,-1.84018656087805E-15));
#297=DIRECTION('',(0.,1.,6.12323399573676E-17));
#298=DIRECTION('',(0.0543157844036094,6.11419492799143E-17,-0.998523808211212));
#299=FACE_BOUND('',#300,.T.);
#300=EDGE_LOOP('',(#617,#618,#619,#620));
#301=PLANE('',#302);
#302=AXIS2_PLACEMENT_3D('',#303,#304,#305);
#303=CARTESIAN_POINT('',(-8.47652629925815,-3.,-3.24520237668645));
#304=DIRECTION('',(0.,1.48029736616688E-16,-1.));
#305=DIRECTION('',(-1.,0.,0.));
#306=FACE_BOUND('',#307,.T.);
#307=EDGE_LOOP('',(#621,#622,#623,#624));
#308=PLANE('',#309);
#309=AXIS2_PLACEMENT_3D('',#310,#311,#312);
#310=CARTESIAN_POINT('',(-9.27652629925815,-3.,-6.14760118835405));
#311=DIRECTION('',(-1.,0.,0.));
#312=DIRECTION('',(0.,-1.53007645973679E-16,1.));
#313=FACE_BOUND('',#314,.T.);
#314=EDGE_LOOP('',(#625,#626,#627,#628));
#315=CYLINDRICAL_SURFACE('',#316,1.5);
#316=AXIS2_PLACEMENT_3D('',#317,#318,#319);
#317=CARTESIAN_POINT('',(-7.77652629925816,-9.,-5.44760118835405));
#318=DIRECTION('',(0.,-1.,1.1842378929335E-16));
#319=DIRECTION('',(-1.,1.40241938705958E-31,1.1842378929335E-15));
#320=FACE_BOUND('',#321,.T.);
#321=EDGE_LOOP('',(#629,#630,#631,#632));
#322=PLANE('',#323);
#323=AXIS2_PLACEMENT_3D('',#324,#325,#326);
#324=CARTESIAN_POINT('',(8.47652629925815,-3.,-6.94760118835405));
#325=DIRECTION('',(1.04780943082529E-16,0.,-1.));
#326=DIRECTION('',(-1.,0.,-1.04780943082529E-16));
#327=FACE_BOUND('',#328,.T.);
#328=EDGE_LOOP('',(#633,#634,#635,#636));
#329=CYLINDRICAL_SURFACE('',#330,1.5);
#330=AXIS2_PLACEMENT_3D('',#331,#332,#333);
#331=CARTESIAN_POINT('',(7.77652629925815,-9.,-5.44760118835405));
#332=DIRECTION('',(0.,-1.,1.1842378929335E-16));
#333=DIRECTION('',(0.,-1.1842378929335E-16,-1.));
#334=FACE_BOUND('',#335,.T.);
#335=EDGE_LOOP('',(#637,#638,#639,#640));
#336=PLANE('',#337);
#337=AXIS2_PLACEMENT_3D('',#338,#339,#340);
#338=CARTESIAN_POINT('',(9.27652629925815,-3.,-3.24520237668645));
#339=DIRECTION('',(1.,0.,0.));
#340=DIRECTION('',(0.,1.53007645973679E-16,-1.));
#341=FACE_BOUND('',#342,.T.);
#342=EDGE_LOOP('',(#641,#642,#643,#644));
#343=PLANE('',#344);
#344=AXIS2_PLACEMENT_3D('',#345,#346,#347);
#345=CARTESIAN_POINT('',(9.72347370068827,-3.,-3.24520237668645));
#346=DIRECTION('',(0.,1.48029736616688E-16,-1.));
#347=DIRECTION('',(-1.,0.,0.));
#348=FACE_BOUND('',#349,.T.);
#349=EDGE_LOOP('',(#645,#646,#647,#648));
#350=CYLINDRICAL_SURFACE('',#351,3.25);
#351=AXIS2_PLACEMENT_3D('',#352,#353,#354);
#352=CARTESIAN_POINT('',(9.9,-3.,5.84614101433714E-16));
#353=DIRECTION('',(0.,1.,6.12323399573676E-17));
#354=DIRECTION('',(-4.92855619417901E-12,-6.12323399573676E-17,1.));
#355=FACE_OUTER_BOUND('',#356,.T.);
#356=EDGE_LOOP('',(#649));
#357=FACE_OUTER_BOUND('',#358,.T.);
#358=EDGE_LOOP('',(#650));
#359=CYLINDRICAL_SURFACE('',#360,1.6);
#360=AXIS2_PLACEMENT_3D('',#361,#362,#363);
#361=CARTESIAN_POINT('',(-9.9,-3.,-1.84018656087805E-15));
#362=DIRECTION('',(0.,1.,6.12323399573676E-17));
#363=DIRECTION('',(-1.,7.49879891330929E-33,-1.22464679914735E-16));
#364=FACE_OUTER_BOUND('',#365,.T.);
#365=EDGE_LOOP('',(#651));
#366=FACE_OUTER_BOUND('',#367,.T.);
#367=EDGE_LOOP('',(#652));
#368=CYLINDRICAL_SURFACE('',#369,1.6);
#369=AXIS2_PLACEMENT_3D('',#370,#371,#372);
#370=CARTESIAN_POINT('',(9.9,-3.,5.84614101433714E-16));
#371=DIRECTION('',(0.,1.,6.12323399573676E-17));
#372=DIRECTION('',(-1.,7.49879891330929E-33,-1.22464679914735E-16));
#373=FACE_OUTER_BOUND('',#374,.T.);
#374=EDGE_LOOP('',(#653));
#375=FACE_OUTER_BOUND('',#376,.T.);
#376=EDGE_LOOP('',(#654));
#377=CYLINDRICAL_SURFACE('',#378,1.6);
#378=AXIS2_PLACEMENT_3D('',#379,#380,#381);
#379=CARTESIAN_POINT('',(-7.25,-3.5,3.15239881164595));
#380=DIRECTION('',(-1.02643363088832E-16,0.,1.));
#381=DIRECTION('',(1.,0.,1.02643363088832E-16));
#382=FACE_OUTER_BOUND('',#383,.T.);
#383=EDGE_LOOP('',(#655));
#384=FACE_OUTER_BOUND('',#385,.T.);
#385=EDGE_LOOP('',(#656));
#386=CYLINDRICAL_SURFACE('',#387,1.6);
#387=AXIS2_PLACEMENT_3D('',#388,#389,#390);
#388=CARTESIAN_POINT('',(7.25,-3.5,3.15239881164595));
#389=DIRECTION('',(-1.02643363088832E-16,0.,1.));
#390=DIRECTION('',(1.,0.,1.02643363088832E-16));
#391=FACE_BOUND('',#392,.T.);
#392=EDGE_LOOP('',(#657,#658,#659,#660));
#393=PLANE('',#394);
#394=AXIS2_PLACEMENT_3D('',#395,#396,#397);
#395=CARTESIAN_POINT('',(-7.25000000000137,-0.151368438696234,6.15239881164595));
#396=DIRECTION('',(-0.500000000007932,-0.866025403779859,0.));
#397=DIRECTION('',(0.866025403779859,-0.500000000007932,0.));
#398=FACE_BOUND('',#399,.T.);
#399=EDGE_LOOP('',(#661,#662,#663,#664));
#400=PLANE('',#401);
#401=AXIS2_PLACEMENT_3D('',#402,#403,#404);
#402=CARTESIAN_POINT('',(-10.1499999999953,-1.82568421935753,6.15239881164595));
#403=DIRECTION('',(0.50000000000334,-0.86602540378251,0.));
#404=DIRECTION('',(0.86602540378251,0.50000000000334,0.));
#405=FACE_OUTER_BOUND('',#406,.T.);
#406=EDGE_LOOP('',(#665));
#407=FACE_OUTER_BOUND('',#408,.T.);
#408=EDGE_LOOP('',(#666));
#409=CYLINDRICAL_SURFACE('',#410,1.6);
#410=AXIS2_PLACEMENT_3D('',#411,#412,#413);
#411=CARTESIAN_POINT('',(-7.25,-3.5,3.15239881164595));
#412=DIRECTION('',(-1.02643363088832E-16,0.,1.));
#413=DIRECTION('',(1.,0.,1.02643363088832E-16));
#414=FACE_BOUND('',#415,.T.);
#415=EDGE_LOOP('',(#667,#668,#669,#670));
#416=PLANE('',#417);
#417=AXIS2_PLACEMENT_3D('',#418,#419,#420);
#418=CARTESIAN_POINT('',(7.25000000001898,-0.151368438694003,6.15239881164595));
#419=DIRECTION('',(-0.500000000006146,-0.86602540378089,0.));
#420=DIRECTION('',(0.86602540378089,-0.500000000006146,0.));
#421=FACE_BOUND('',#422,.T.);
#422=EDGE_LOOP('',(#671,#672,#673,#674));
#423=PLANE('',#424);
#424=AXIS2_PLACEMENT_3D('',#425,#426,#427);
#425=CARTESIAN_POINT('',(4.34999999999151,-1.8256842193782,6.15239881164595));
#426=DIRECTION('',(0.500000000004125,-0.866025403782057,0.));
#427=DIRECTION('',(0.866025403782057,0.500000000004125,0.));
#428=FACE_OUTER_BOUND('',#429,.T.);
#429=EDGE_LOOP('',(#675));
#430=FACE_OUTER_BOUND('',#431,.T.);
#431=EDGE_LOOP('',(#676));
#432=CYLINDRICAL_SURFACE('',#433,1.6);
#433=AXIS2_PLACEMENT_3D('',#434,#435,#436);
#434=CARTESIAN_POINT('',(7.25,-3.5,3.15239881164595));
#435=DIRECTION('',(-1.02643363088832E-16,0.,1.));
#436=DIRECTION('',(1.,0.,1.02643363088832E-16));
#437=FACE_BOUND('',#438,.T.);
#438=EDGE_LOOP('',(#677));
#439=PLANE('',#440);
#440=AXIS2_PLACEMENT_3D('',#441,#442,#443);
#441=CARTESIAN_POINT('',(3.07930089266496E-16,0.,3.15239881164595));
#442=DIRECTION('',(-1.02643363088832E-16,0.,1.));
#443=DIRECTION('',(1.,0.,1.02643363088832E-16));
#444=FACE_BOUND('',#445,.T.);
#445=EDGE_LOOP('',(#678));
#446=PLANE('',#447);
#447=AXIS2_PLACEMENT_3D('',#448,#449,#450);
#448=CARTESIAN_POINT('',(3.07930089266496E-16,0.,3.15239881164595));
#449=DIRECTION('',(-1.02643363088832E-16,0.,1.));
#450=DIRECTION('',(1.,0.,1.02643363088832E-16));
#451=ORIENTED_EDGE('',*,*,#679,.T.);
#452=ORIENTED_EDGE('',*,*,#680,.T.);
#453=ORIENTED_EDGE('',*,*,#681,.F.);
#454=ORIENTED_EDGE('',*,*,#682,.F.);
#455=ORIENTED_EDGE('',*,*,#683,.T.);
#456=ORIENTED_EDGE('',*,*,#684,.T.);
#457=ORIENTED_EDGE('',*,*,#685,.T.);
#458=ORIENTED_EDGE('',*,*,#686,.T.);
#459=ORIENTED_EDGE('',*,*,#687,.T.);
#460=ORIENTED_EDGE('',*,*,#688,.T.);
#461=ORIENTED_EDGE('',*,*,#689,.F.);
#462=ORIENTED_EDGE('',*,*,#690,.F.);
#463=ORIENTED_EDGE('',*,*,#691,.T.);
#464=ORIENTED_EDGE('',*,*,#692,.T.);
#465=ORIENTED_EDGE('',*,*,#693,.F.);
#466=ORIENTED_EDGE('',*,*,#694,.F.);
#467=ORIENTED_EDGE('',*,*,#695,.T.);
#468=ORIENTED_EDGE('',*,*,#696,.T.);
#469=ORIENTED_EDGE('',*,*,#697,.F.);
#470=ORIENTED_EDGE('',*,*,#698,.T.);
#471=ORIENTED_EDGE('',*,*,#699,.T.);
#472=ORIENTED_EDGE('',*,*,#684,.F.);
#473=ORIENTED_EDGE('',*,*,#688,.F.);
#474=ORIENTED_EDGE('',*,*,#700,.F.);
#475=ORIENTED_EDGE('',*,*,#701,.T.);
#476=ORIENTED_EDGE('',*,*,#702,.T.);
#477=ORIENTED_EDGE('',*,*,#703,.T.);
#478=ORIENTED_EDGE('',*,*,#704,.F.);
#479=ORIENTED_EDGE('',*,*,#705,.F.);
#480=ORIENTED_EDGE('',*,*,#706,.T.);
#481=ORIENTED_EDGE('',*,*,#707,.T.);
#482=ORIENTED_EDGE('',*,*,#686,.F.);
#483=ORIENTED_EDGE('',*,*,#708,.F.);
#484=ORIENTED_EDGE('',*,*,#709,.T.);
#485=ORIENTED_EDGE('',*,*,#701,.F.);
#486=ORIENTED_EDGE('',*,*,#710,.F.);
#487=ORIENTED_EDGE('',*,*,#706,.F.);
#488=ORIENTED_EDGE('',*,*,#711,.T.);
#489=ORIENTED_EDGE('',*,*,#712,.T.);
#490=ORIENTED_EDGE('',*,*,#713,.T.);
#491=ORIENTED_EDGE('',*,*,#709,.F.);
#492=ORIENTED_EDGE('',*,*,#714,.F.);
#493=ORIENTED_EDGE('',*,*,#698,.F.);
#494=ORIENTED_EDGE('',*,*,#715,.T.);
#495=ORIENTED_EDGE('',*,*,#716,.F.);
#496=ORIENTED_EDGE('',*,*,#717,.F.);
#497=ORIENTED_EDGE('',*,*,#718,.F.);
#498=ORIENTED_EDGE('',*,*,#719,.F.);
#499=ORIENTED_EDGE('',*,*,#720,.F.);
#500=ORIENTED_EDGE('',*,*,#721,.F.);
#501=ORIENTED_EDGE('',*,*,#722,.F.);
#502=ORIENTED_EDGE('',*,*,#723,.F.);
#503=ORIENTED_EDGE('',*,*,#724,.F.);
#504=ORIENTED_EDGE('',*,*,#725,.F.);
#505=ORIENTED_EDGE('',*,*,#726,.F.);
#506=ORIENTED_EDGE('',*,*,#727,.T.);
#507=ORIENTED_EDGE('',*,*,#728,.T.);
#508=ORIENTED_EDGE('',*,*,#729,.T.);
#509=ORIENTED_EDGE('',*,*,#710,.T.);
#510=ORIENTED_EDGE('',*,*,#700,.T.);
#511=ORIENTED_EDGE('',*,*,#687,.F.);
#512=ORIENTED_EDGE('',*,*,#707,.F.);
#513=ORIENTED_EDGE('',*,*,#714,.T.);
#514=ORIENTED_EDGE('',*,*,#708,.T.);
#515=ORIENTED_EDGE('',*,*,#685,.F.);
#516=ORIENTED_EDGE('',*,*,#699,.F.);
#517=ORIENTED_EDGE('',*,*,#679,.F.);
#518=ORIENTED_EDGE('',*,*,#702,.F.);
#519=ORIENTED_EDGE('',*,*,#727,.F.);
#520=ORIENTED_EDGE('',*,*,#730,.F.);
#521=ORIENTED_EDGE('',*,*,#730,.T.);
#522=ORIENTED_EDGE('',*,*,#726,.T.);
#523=ORIENTED_EDGE('',*,*,#731,.T.);
#524=ORIENTED_EDGE('',*,*,#732,.T.);
#525=ORIENTED_EDGE('',*,*,#733,.F.);
#526=ORIENTED_EDGE('',*,*,#680,.F.);
#527=ORIENTED_EDGE('',*,*,#734,.T.);
#528=ORIENTED_EDGE('',*,*,#681,.T.);
#529=ORIENTED_EDGE('',*,*,#733,.T.);
#530=ORIENTED_EDGE('',*,*,#735,.T.);
#531=ORIENTED_EDGE('',*,*,#736,.T.);
#532=ORIENTED_EDGE('',*,*,#737,.T.);
#533=ORIENTED_EDGE('',*,*,#738,.T.);
#534=ORIENTED_EDGE('',*,*,#682,.T.);
#535=ORIENTED_EDGE('',*,*,#734,.F.);
#536=ORIENTED_EDGE('',*,*,#739,.F.);
#537=ORIENTED_EDGE('',*,*,#740,.T.);
#538=ORIENTED_EDGE('',*,*,#716,.T.);
#539=ORIENTED_EDGE('',*,*,#683,.F.);
#540=ORIENTED_EDGE('',*,*,#738,.F.);
#541=ORIENTED_EDGE('',*,*,#715,.F.);
#542=ORIENTED_EDGE('',*,*,#697,.T.);
#543=ORIENTED_EDGE('',*,*,#741,.F.);
#544=ORIENTED_EDGE('',*,*,#742,.F.);
#545=ORIENTED_EDGE('',*,*,#743,.T.);
#546=ORIENTED_EDGE('',*,*,#689,.T.);
#547=ORIENTED_EDGE('',*,*,#744,.F.);
#548=ORIENTED_EDGE('',*,*,#745,.F.);
#549=ORIENTED_EDGE('',*,*,#690,.T.);
#550=ORIENTED_EDGE('',*,*,#743,.F.);
#551=ORIENTED_EDGE('',*,*,#746,.F.);
#552=ORIENTED_EDGE('',*,*,#747,.T.);
#553=ORIENTED_EDGE('',*,*,#748,.F.);
#554=ORIENTED_EDGE('',*,*,#691,.F.);
#555=ORIENTED_EDGE('',*,*,#745,.T.);
#556=ORIENTED_EDGE('',*,*,#749,.T.);
#557=ORIENTED_EDGE('',*,*,#748,.T.);
#558=ORIENTED_EDGE('',*,*,#750,.T.);
#559=ORIENTED_EDGE('',*,*,#751,.T.);
#560=ORIENTED_EDGE('',*,*,#741,.T.);
#561=ORIENTED_EDGE('',*,*,#692,.F.);
#562=ORIENTED_EDGE('',*,*,#752,.T.);
#563=ORIENTED_EDGE('',*,*,#753,.F.);
#564=ORIENTED_EDGE('',*,*,#754,.F.);
#565=ORIENTED_EDGE('',*,*,#755,.T.);
#566=ORIENTED_EDGE('',*,*,#693,.T.);
#567=ORIENTED_EDGE('',*,*,#756,.F.);
#568=ORIENTED_EDGE('',*,*,#694,.T.);
#569=ORIENTED_EDGE('',*,*,#755,.F.);
#570=ORIENTED_EDGE('',*,*,#757,.F.);
#571=ORIENTED_EDGE('',*,*,#758,.F.);
#572=ORIENTED_EDGE('',*,*,#759,.T.);
#573=ORIENTED_EDGE('',*,*,#760,.F.);
#574=ORIENTED_EDGE('',*,*,#695,.F.);
#575=ORIENTED_EDGE('',*,*,#756,.T.);
#576=ORIENTED_EDGE('',*,*,#761,.T.);
#577=ORIENTED_EDGE('',*,*,#753,.T.);
#578=ORIENTED_EDGE('',*,*,#696,.F.);
#579=ORIENTED_EDGE('',*,*,#760,.T.);
#580=ORIENTED_EDGE('',*,*,#762,.T.);
#581=ORIENTED_EDGE('',*,*,#763,.T.);
#582=ORIENTED_EDGE('',*,*,#764,.T.);
#583=ORIENTED_EDGE('',*,*,#713,.F.);
#584=ORIENTED_EDGE('',*,*,#765,.T.);
#585=ORIENTED_EDGE('',*,*,#766,.F.);
#586=ORIENTED_EDGE('',*,*,#703,.F.);
#587=ORIENTED_EDGE('',*,*,#739,.T.);
#588=ORIENTED_EDGE('',*,*,#735,.F.);
#589=ORIENTED_EDGE('',*,*,#732,.F.);
#590=ORIENTED_EDGE('',*,*,#767,.T.);
#591=ORIENTED_EDGE('',*,*,#768,.T.);
#592=ORIENTED_EDGE('',*,*,#769,.T.);
#593=ORIENTED_EDGE('',*,*,#770,.F.);
#594=ORIENTED_EDGE('',*,*,#771,.T.);
#595=ORIENTED_EDGE('',*,*,#772,.F.);
#596=ORIENTED_EDGE('',*,*,#773,.T.);
#597=ORIENTED_EDGE('',*,*,#774,.T.);
#598=ORIENTED_EDGE('',*,*,#775,.T.);
#599=ORIENTED_EDGE('',*,*,#776,.T.);
#600=ORIENTED_EDGE('',*,*,#777,.T.);
#601=ORIENTED_EDGE('',*,*,#704,.T.);
#602=ORIENTED_EDGE('',*,*,#766,.T.);
#603=ORIENTED_EDGE('',*,*,#778,.T.);
#604=ORIENTED_EDGE('',*,*,#779,.T.);
#605=ORIENTED_EDGE('',*,*,#711,.F.);
#606=ORIENTED_EDGE('',*,*,#705,.T.);
#607=ORIENTED_EDGE('',*,*,#777,.F.);
#608=ORIENTED_EDGE('',*,*,#780,.F.);
#609=ORIENTED_EDGE('',*,*,#712,.F.);
#610=ORIENTED_EDGE('',*,*,#780,.T.);
#611=ORIENTED_EDGE('',*,*,#776,.F.);
#612=ORIENTED_EDGE('',*,*,#765,.F.);
#613=ORIENTED_EDGE('',*,*,#740,.F.);
#614=ORIENTED_EDGE('',*,*,#775,.F.);
#615=ORIENTED_EDGE('',*,*,#781,.F.);
#616=ORIENTED_EDGE('',*,*,#717,.T.);
#617=ORIENTED_EDGE('',*,*,#782,.F.);
#618=ORIENTED_EDGE('',*,*,#718,.T.);
#619=ORIENTED_EDGE('',*,*,#781,.T.);
#620=ORIENTED_EDGE('',*,*,#774,.F.);
#621=ORIENTED_EDGE('',*,*,#783,.F.);
#622=ORIENTED_EDGE('',*,*,#719,.T.);
#623=ORIENTED_EDGE('',*,*,#782,.T.);
#624=ORIENTED_EDGE('',*,*,#773,.F.);
#625=ORIENTED_EDGE('',*,*,#784,.F.);
#626=ORIENTED_EDGE('',*,*,#720,.T.);
#627=ORIENTED_EDGE('',*,*,#783,.T.);
#628=ORIENTED_EDGE('',*,*,#772,.T.);
#629=ORIENTED_EDGE('',*,*,#785,.F.);
#630=ORIENTED_EDGE('',*,*,#721,.T.);
#631=ORIENTED_EDGE('',*,*,#784,.T.);
#632=ORIENTED_EDGE('',*,*,#771,.F.);
#633=ORIENTED_EDGE('',*,*,#786,.F.);
#634=ORIENTED_EDGE('',*,*,#722,.T.);
#635=ORIENTED_EDGE('',*,*,#785,.T.);
#636=ORIENTED_EDGE('',*,*,#770,.T.);
#637=ORIENTED_EDGE('',*,*,#786,.T.);
#638=ORIENTED_EDGE('',*,*,#769,.F.);
#639=ORIENTED_EDGE('',*,*,#787,.T.);
#640=ORIENTED_EDGE('',*,*,#723,.T.);
#641=ORIENTED_EDGE('',*,*,#787,.F.);
#642=ORIENTED_EDGE('',*,*,#768,.F.);
#643=ORIENTED_EDGE('',*,*,#788,.F.);
#644=ORIENTED_EDGE('',*,*,#724,.T.);
#645=ORIENTED_EDGE('',*,*,#731,.F.);
#646=ORIENTED_EDGE('',*,*,#725,.T.);
#647=ORIENTED_EDGE('',*,*,#788,.T.);
#648=ORIENTED_EDGE('',*,*,#767,.F.);
#649=ORIENTED_EDGE('',*,*,#778,.F.);
#650=ORIENTED_EDGE('',*,*,#728,.F.);
#651=ORIENTED_EDGE('',*,*,#779,.F.);
#652=ORIENTED_EDGE('',*,*,#729,.F.);
#653=ORIENTED_EDGE('',*,*,#736,.F.);
#654=ORIENTED_EDGE('',*,*,#752,.F.);
#655=ORIENTED_EDGE('',*,*,#737,.F.);
#656=ORIENTED_EDGE('',*,*,#764,.F.);
#657=ORIENTED_EDGE('',*,*,#751,.F.);
#658=ORIENTED_EDGE('',*,*,#789,.F.);
#659=ORIENTED_EDGE('',*,*,#746,.T.);
#660=ORIENTED_EDGE('',*,*,#742,.T.);
#661=ORIENTED_EDGE('',*,*,#750,.F.);
#662=ORIENTED_EDGE('',*,*,#749,.F.);
#663=ORIENTED_EDGE('',*,*,#744,.T.);
#664=ORIENTED_EDGE('',*,*,#789,.T.);
#665=ORIENTED_EDGE('',*,*,#747,.F.);
#666=ORIENTED_EDGE('',*,*,#790,.F.);
#667=ORIENTED_EDGE('',*,*,#763,.F.);
#668=ORIENTED_EDGE('',*,*,#791,.F.);
#669=ORIENTED_EDGE('',*,*,#757,.T.);
#670=ORIENTED_EDGE('',*,*,#754,.T.);
#671=ORIENTED_EDGE('',*,*,#762,.F.);
#672=ORIENTED_EDGE('',*,*,#761,.F.);
#673=ORIENTED_EDGE('',*,*,#758,.T.);
#674=ORIENTED_EDGE('',*,*,#791,.T.);
#675=ORIENTED_EDGE('',*,*,#759,.F.);
#676=ORIENTED_EDGE('',*,*,#792,.F.);
#677=ORIENTED_EDGE('',*,*,#790,.T.);
#678=ORIENTED_EDGE('',*,*,#792,.T.);
#679=EDGE_CURVE('',#793,#794,#795,.F.);
#680=EDGE_CURVE('',#794,#796,#797,.T.);
#681=EDGE_CURVE('',#798,#796,#799,.T.);
#682=EDGE_CURVE('',#800,#798,#801,.T.);
#683=EDGE_CURVE('',#800,#802,#803,.F.);
#684=EDGE_CURVE('',#802,#804,#805,.T.);
#685=EDGE_CURVE('',#804,#806,#807,.T.);
#686=EDGE_CURVE('',#806,#808,#809,.T.);
#687=EDGE_CURVE('',#808,#810,#811,.T.);
#688=EDGE_CURVE('',#810,#793,#812,.T.);
#689=EDGE_CURVE('',#813,#814,#815,.T.);
#690=EDGE_CURVE('',#816,#813,#817,.T.);
#691=EDGE_CURVE('',#816,#818,#819,.T.);
#692=EDGE_CURVE('',#818,#814,#820,.T.);
#693=EDGE_CURVE('',#821,#822,#823,.T.);
#694=EDGE_CURVE('',#824,#821,#825,.T.);
#695=EDGE_CURVE('',#824,#826,#827,.T.);
#696=EDGE_CURVE('',#826,#822,#828,.T.);
#697=EDGE_CURVE('',#829,#802,#830,.T.);
#698=EDGE_CURVE('',#829,#831,#832,.F.);
#699=EDGE_CURVE('',#831,#804,#833,.T.);
#700=EDGE_CURVE('',#834,#810,#835,.T.);
#701=EDGE_CURVE('',#834,#836,#837,.F.);
#702=EDGE_CURVE('',#836,#793,#838,.T.);
#703=EDGE_CURVE('',#839,#840,#841,.T.);
#704=EDGE_CURVE('',#842,#840,#843,.F.);
#705=EDGE_CURVE('',#844,#842,#845,.T.);
#706=EDGE_CURVE('',#844,#846,#847,.F.);
#707=EDGE_CURVE('',#846,#808,#848,.T.);
#708=EDGE_CURVE('',#849,#806,#850,.T.);
#709=EDGE_CURVE('',#849,#839,#851,.F.);
#710=EDGE_CURVE('',#846,#834,#852,.F.);
#711=EDGE_CURVE('',#844,#853,#854,.T.);
#712=EDGE_CURVE('',#853,#855,#856,.T.);
#713=EDGE_CURVE('',#855,#839,#857,.T.);
#714=EDGE_CURVE('',#831,#849,#858,.F.);
#715=EDGE_CURVE('',#829,#859,#860,.T.);
#716=EDGE_CURVE('',#861,#859,#862,.T.);
#717=EDGE_CURVE('',#863,#861,#864,.T.);
#718=EDGE_CURVE('',#865,#863,#866,.T.);
#719=EDGE_CURVE('',#867,#865,#868,.T.);
#720=EDGE_CURVE('',#869,#867,#870,.F.);
#721=EDGE_CURVE('',#871,#869,#872,.T.);
#722=EDGE_CURVE('',#873,#871,#874,.F.);
#723=EDGE_CURVE('',#875,#873,#876,.T.);
#724=EDGE_CURVE('',#877,#875,#878,.T.);
#725=EDGE_CURVE('',#879,#877,#880,.T.);
#726=EDGE_CURVE('',#881,#879,#882,.T.);
#727=EDGE_CURVE('',#881,#836,#883,.T.);
#728=EDGE_CURVE('',#884,#884,#885,.T.);
#729=EDGE_CURVE('',#886,#886,#887,.T.);
#730=EDGE_CURVE('',#794,#881,#888,.F.);
#731=EDGE_CURVE('',#879,#889,#890,.T.);
#732=EDGE_CURVE('',#889,#891,#892,.T.);
#733=EDGE_CURVE('',#796,#891,#893,.T.);
#734=EDGE_CURVE('',#894,#798,#895,.T.);
#735=EDGE_CURVE('',#891,#894,#896,.T.);
#736=EDGE_CURVE('',#897,#897,#898,.F.);
#737=EDGE_CURVE('',#899,#899,#900,.F.);
#738=EDGE_CURVE('',#859,#800,#901,.F.);
#739=EDGE_CURVE('',#902,#894,#903,.T.);
#740=EDGE_CURVE('',#902,#861,#904,.F.);
#741=EDGE_CURVE('',#905,#814,#906,.F.);
#742=EDGE_CURVE('',#907,#905,#908,.T.);
#743=EDGE_CURVE('',#907,#813,#909,.T.);
#744=EDGE_CURVE('',#910,#911,#912,.T.);
#745=EDGE_CURVE('',#816,#910,#913,.T.);
#746=EDGE_CURVE('',#911,#907,#914,.T.);
#747=EDGE_CURVE('',#915,#915,#916,.F.);
#748=EDGE_CURVE('',#818,#917,#918,.F.);
#749=EDGE_CURVE('',#910,#917,#919,.T.);
#750=EDGE_CURVE('',#917,#920,#921,.F.);
#751=EDGE_CURVE('',#920,#905,#922,.F.);
#752=EDGE_CURVE('',#923,#923,#924,.T.);
#753=EDGE_CURVE('',#925,#822,#926,.F.);
#754=EDGE_CURVE('',#927,#925,#928,.T.);
#755=EDGE_CURVE('',#927,#821,#929,.T.);
#756=EDGE_CURVE('',#824,#930,#931,.T.);
#757=EDGE_CURVE('',#932,#927,#933,.T.);
#758=EDGE_CURVE('',#930,#932,#934,.T.);
#759=EDGE_CURVE('',#935,#935,#936,.F.);
#760=EDGE_CURVE('',#826,#937,#938,.F.);
#761=EDGE_CURVE('',#930,#937,#939,.T.);
#762=EDGE_CURVE('',#937,#940,#941,.F.);
#763=EDGE_CURVE('',#940,#925,#942,.F.);
#764=EDGE_CURVE('',#943,#943,#944,.T.);
#765=EDGE_CURVE('',#855,#945,#946,.T.);
#766=EDGE_CURVE('',#840,#945,#947,.F.);
#767=EDGE_CURVE('',#889,#948,#949,.T.);
#768=EDGE_CURVE('',#948,#950,#951,.T.);
#769=EDGE_CURVE('',#950,#952,#953,.T.);
#770=EDGE_CURVE('',#954,#952,#955,.F.);
#771=EDGE_CURVE('',#954,#956,#957,.T.);
#772=EDGE_CURVE('',#958,#956,#959,.F.);
#773=EDGE_CURVE('',#958,#960,#961,.T.);
#774=EDGE_CURVE('',#960,#962,#963,.T.);
#775=EDGE_CURVE('',#962,#902,#964,.T.);
#776=EDGE_CURVE('',#945,#965,#966,.F.);
#777=EDGE_CURVE('',#965,#842,#967,.F.);
#778=EDGE_CURVE('',#968,#968,#969,.F.);
#779=EDGE_CURVE('',#970,#970,#971,.F.);
#780=EDGE_CURVE('',#853,#965,#972,.T.);
#781=EDGE_CURVE('',#863,#962,#973,.T.);
#782=EDGE_CURVE('',#865,#960,#974,.T.);
#783=EDGE_CURVE('',#867,#958,#975,.T.);
#784=EDGE_CURVE('',#869,#956,#976,.T.);
#785=EDGE_CURVE('',#871,#954,#977,.T.);
#786=EDGE_CURVE('',#873,#952,#978,.T.);
#787=EDGE_CURVE('',#950,#875,#979,.T.);
#788=EDGE_CURVE('',#877,#948,#980,.T.);
#789=EDGE_CURVE('',#911,#920,#981,.T.);
#790=EDGE_CURVE('',#982,#982,#983,.T.);
#791=EDGE_CURVE('',#932,#940,#984,.T.);
#792=EDGE_CURVE('',#985,#985,#986,.T.);
#793=VERTEX_POINT('',#987);
#794=VERTEX_POINT('',#988);
#795=LINE('',#989,#990);
#796=VERTEX_POINT('',#992);
#797=LINE('',#993,#994);
#798=VERTEX_POINT('',#996);
#799=LINE('',#997,#998);
#800=VERTEX_POINT('',#1000);
#801=LINE('',#1001,#1002);
#802=VERTEX_POINT('',#1004);
#803=LINE('',#1005,#1006);
#804=VERTEX_POINT('',#1008);
#805=LINE('',#1009,#1010);
#806=VERTEX_POINT('',#1012);
#807=LINE('',#1013,#1014);
#808=VERTEX_POINT('',#1016);
#809=LINE('',#1017,#1018);
#810=VERTEX_POINT('',#1020);
#811=LINE('',#1021,#1022);
#812=LINE('',#1024,#1025);
#813=VERTEX_POINT('',#1027);
#814=VERTEX_POINT('',#1028);
#815=LINE('',#1029,#1030);
#816=VERTEX_POINT('',#1032);
#817=LINE('',#1033,#1034);
#818=VERTEX_POINT('',#1036);
#819=LINE('',#1037,#1038);
#820=LINE('',#1040,#1041);
#821=VERTEX_POINT('',#1043);
#822=VERTEX_POINT('',#1044);
#823=LINE('',#1045,#1046);
#824=VERTEX_POINT('',#1048);
#825=LINE('',#1049,#1050);
#826=VERTEX_POINT('',#1052);
#827=LINE('',#1053,#1054);
#828=LINE('',#1056,#1057);
#829=VERTEX_POINT('',#1059);
#830=LINE('',#1060,#1061);
#831=VERTEX_POINT('',#1063);
#832=LINE('',#1064,#1065);
#833=LINE('',#1067,#1068);
#834=VERTEX_POINT('',#1070);
#835=LINE('',#1071,#1072);
#836=VERTEX_POINT('',#1074);
#837=LINE('',#1075,#1076);
#838=LINE('',#1078,#1079);
#839=VERTEX_POINT('',#1081);
#840=VERTEX_POINT('',#1082);
#841=LINE('',#1083,#1084);
#842=VERTEX_POINT('',#1086);
#843=LINE('',#1087,#1088);
#844=VERTEX_POINT('',#1090);
#845=LINE('',#1091,#1092);
#846=VERTEX_POINT('',#1094);
#847=LINE('',#1095,#1096);
#848=LINE('',#1098,#1099);
#849=VERTEX_POINT('',#1101);
#850=LINE('',#1102,#1103);
#851=LINE('',#1105,#1106);
#852=LINE('',#1108,#1109);
#853=VERTEX_POINT('',#1111);
#854=LINE('',#1112,#1113);
#855=VERTEX_POINT('',#1115);
#856=LINE('',#1116,#1117);
#857=LINE('',#1119,#1120);
#858=LINE('',#1122,#1123);
#859=VERTEX_POINT('',#1125);
#860=LINE('',#1126,#1127);
#861=VERTEX_POINT('',#1129);
#862=LINE('',#1130,#1131);
#863=VERTEX_POINT('',#1133);
#864=CIRCLE('',#1134,3.25);
#865=VERTEX_POINT('',#1138);
#866=LINE('',#1139,#1140);
#867=VERTEX_POINT('',#1142);
#868=LINE('',#1143,#1144);
#869=VERTEX_POINT('',#1146);
#870=CIRCLE('',#1147,1.5);
#871=VERTEX_POINT('',#1151);
#872=LINE('',#1152,#1153);
#873=VERTEX_POINT('',#1155);
#874=CIRCLE('',#1156,1.5);
#875=VERTEX_POINT('',#1160);
#876=LINE('',#1161,#1162);
#877=VERTEX_POINT('',#1164);
#878=LINE('',#1165,#1166);
#879=VERTEX_POINT('',#1168);
#880=CIRCLE('',#1169,3.25);
#881=VERTEX_POINT('',#1173);
#882=LINE('',#1174,#1175);
#883=LINE('',#1177,#1178);
#884=VERTEX_POINT('',#1180);
#885=CIRCLE('',#1181,1.6);
#886=VERTEX_POINT('',#1185);
#887=CIRCLE('',#1186,1.6);
#888=LINE('',#1190,#1191);
#889=VERTEX_POINT('',#1193);
#890=LINE('',#1194,#1195);
#891=VERTEX_POINT('',#1197);
#892=LINE('',#1198,#1199);
#893=LINE('',#1201,#1202);
#894=VERTEX_POINT('',#1204);
#895=LINE('',#1205,#1206);
#896=LINE('',#1208,#1209);
#897=VERTEX_POINT('',#1211);
#898=CIRCLE('',#1212,1.6);
#899=VERTEX_POINT('',#1216);
#900=CIRCLE('',#1217,1.6);
#901=LINE('',#1221,#1222);
#902=VERTEX_POINT('',#1224);
#903=LINE('',#1225,#1226);
#904=LINE('',#1228,#1229);
#905=VERTEX_POINT('',#1231);
#906=LINE('',#1232,#1233);
#907=VERTEX_POINT('',#1235);
#908=LINE('',#1236,#1237);
#909=LINE('',#1239,#1240);
#910=VERTEX_POINT('',#1242);
#911=VERTEX_POINT('',#1243);
#912=LINE('',#1244,#1245);
#913=LINE('',#1247,#1248);
#914=LINE('',#1250,#1251);
#915=VERTEX_POINT('',#1253);
#916=CIRCLE('',#1254,1.6);
#917=VERTEX_POINT('',#1258);
#918=LINE('',#1259,#1260);
#919=LINE('',#1262,#1263);
#920=VERTEX_POINT('',#1265);
#921=LINE('',#1266,#1267);
#922=LINE('',#1269,#1270);
#923=VERTEX_POINT('',#1272);
#924=CIRCLE('',#1273,1.6);
#925=VERTEX_POINT('',#1277);
#926=LINE('',#1278,#1279);
#927=VERTEX_POINT('',#1281);
#928=LINE('',#1282,#1283);
#929=LINE('',#1285,#1286);
#930=VERTEX_POINT('',#1288);
#931=LINE('',#1289,#1290);
#932=VERTEX_POINT('',#1292);
#933=LINE('',#1293,#1294);
#934=LINE('',#1296,#1297);
#935=VERTEX_POINT('',#1299);
#936=CIRCLE('',#1300,1.6);
#937=VERTEX_POINT('',#1304);
#938=LINE('',#1305,#1306);
#939=LINE('',#1308,#1309);
#940=VERTEX_POINT('',#1311);
#941=LINE('',#1312,#1313);
#942=LINE('',#1315,#1316);
#943=VERTEX_POINT('',#1318);
#944=CIRCLE('',#1319,1.6);
#945=VERTEX_POINT('',#1323);
#946=LINE('',#1324,#1325);
#947=LINE('',#1327,#1328);
#948=VERTEX_POINT('',#1330);
#949=CIRCLE('',#1331,3.25);
#950=VERTEX_POINT('',#1335);
#951=LINE('',#1336,#1337);
#952=VERTEX_POINT('',#1339);
#953=LINE('',#1340,#1341);
#954=VERTEX_POINT('',#1343);
#955=CIRCLE('',#1344,1.5);
#956=VERTEX_POINT('',#1348);
#957=LINE('',#1349,#1350);
#958=VERTEX_POINT('',#1352);
#959=CIRCLE('',#1353,1.5);
#960=VERTEX_POINT('',#1357);
#961=LINE('',#1358,#1359);
#962=VERTEX_POINT('',#1361);
#963=LINE('',#1362,#1363);
#964=CIRCLE('',#1365,3.25);
#965=VERTEX_POINT('',#1369);
#966=LINE('',#1370,#1371);
#967=LINE('',#1373,#1374);
#968=VERTEX_POINT('',#1376);
#969=CIRCLE('',#1377,1.6);
#970=VERTEX_POINT('',#1381);
#971=CIRCLE('',#1382,1.6);
#972=LINE('',#1386,#1387);
#973=LINE('',#1389,#1390);
#974=LINE('',#1392,#1393);
#975=LINE('',#1395,#1396);
#976=LINE('',#1398,#1399);
#977=LINE('',#1401,#1402);
#978=LINE('',#1404,#1405);
#979=LINE('',#1407,#1408);
#980=LINE('',#1410,#1411);
#981=LINE('',#1413,#1414);
#982=VERTEX_POINT('',#1416);
#983=CIRCLE('',#1417,1.6);
#984=LINE('',#1421,#1422);
#985=VERTEX_POINT('',#1424);
#986=CIRCLE('',#1425,1.6);
#987=CARTESIAN_POINT('',(8.22568421935009,-7.,2.9));
#988=CARTESIAN_POINT('',(11.45,-7.,2.9));
#989=CARTESIAN_POINT('',(11.45,-7.,2.9));
#990=VECTOR('',#991,1.);
#991=DIRECTION('',(-1.,0.,-2.75462603579448E-16));
#992=CARTESIAN_POINT('',(11.45,-7.,11.152398811646));
#993=CARTESIAN_POINT('',(11.45,-7.,2.9));
#994=VECTOR('',#995,1.);
#995=DIRECTION('',(0.,-2.152533923704E-16,1.));
#996=CARTESIAN_POINT('',(-11.45,-7.,11.152398811646));
#997=CARTESIAN_POINT('',(-11.45,-7.,11.152398811646));
#998=VECTOR('',#999,1.);
#999=DIRECTION('',(1.,-7.75701676593996E-17,7.75701676593996E-17));
#1000=CARTESIAN_POINT('',(-11.45,-7.,2.90000000000001));
#1001=CARTESIAN_POINT('',(-11.45,-7.,2.90000000000001));
#1002=VECTOR('',#1003,1.);
#1003=DIRECTION('',(0.,1.076266961852E-16,1.));
#1004=CARTESIAN_POINT('',(-8.22568421935009,-7.,2.90000000000001));
#1005=CARTESIAN_POINT('',(-8.22568421935009,-7.,2.90000000000001));
#1006=VECTOR('',#1007,1.);
#1007=DIRECTION('',(-1.,0.,8.26387810738344E-16));
#1008=CARTESIAN_POINT('',(-6.55136843870017,-7.,3.90963057352798E-15));
#1009=CARTESIAN_POINT('',(-8.22568421935009,-7.,2.90000000000001));
#1010=VECTOR('',#1011,1.);
#1011=DIRECTION('',(0.499999999999999,-5.30472465209259E-16,-0.866025403784439));
#1012=CARTESIAN_POINT('',(-7.96587659821476,-7.,-2.45));
#1013=CARTESIAN_POINT('',(-6.55136843870017,-7.,3.73117212616424E-15));
#1014=VECTOR('',#1015,1.);
#1015=DIRECTION('',(-0.500000000000001,0.,-0.866025403784438));
#1016=CARTESIAN_POINT('',(7.96587659821476,-7.,-2.45));
#1017=CARTESIAN_POINT('',(-7.96587659821476,-7.,-2.45));
#1018=VECTOR('',#1019,1.);
#1019=DIRECTION('',(1.,0.,1.67246832551833E-16));
#1020=CARTESIAN_POINT('',(6.55136843870017,-7.,-1.019256207166E-16));
#1021=CARTESIAN_POINT('',(7.96587659821476,-7.,-2.45));
#1022=VECTOR('',#1023,1.);
#1023=DIRECTION('',(-0.5,0.,0.866025403784439));
#1024=CARTESIAN_POINT('',(6.55136843870017,-7.,2.22044604925031E-16));
#1025=VECTOR('',#1026,1.);
#1026=DIRECTION('',(0.5,5.30472465209259E-16,0.866025403784439));
#1027=CARTESIAN_POINT('',(-4.3500000000085,-7.,6.15239881164595));
#1028=CARTESIAN_POINT('',(-4.3500000000085,-7.,8.15239881164595));
#1029=CARTESIAN_POINT('',(-4.3500000000085,-7.,6.15239881164595));
#1030=VECTOR('',#1031,1.);
#1031=DIRECTION('',(0.,0.,1.));
#1032=CARTESIAN_POINT('',(-10.15,-7.,6.15239881164595));
#1033=CARTESIAN_POINT('',(-10.15,-7.,6.15239881164595));
#1034=VECTOR('',#1035,1.);
#1035=DIRECTION('',(1.,0.,0.));
#1036=CARTESIAN_POINT('',(-10.15,-7.,8.15239881164595));
#1037=CARTESIAN_POINT('',(-10.15,-7.,6.15239881164595));
#1038=VECTOR('',#1039,1.);
#1039=DIRECTION('',(0.,0.,1.));
#1040=CARTESIAN_POINT('',(-10.15,-7.,8.15239881164595));
#1041=VECTOR('',#1042,1.);
#1042=DIRECTION('',(1.,0.,3.06268420586699E-16));
#1043=CARTESIAN_POINT('',(10.15,-7.,6.15239881164595));
#1044=CARTESIAN_POINT('',(10.15,-7.,8.15239881164595));
#1045=CARTESIAN_POINT('',(10.15,-7.,6.15239881164595));
#1046=VECTOR('',#1047,1.);
#1047=DIRECTION('',(0.,0.,1.));
#1048=CARTESIAN_POINT('',(4.35000000000849,-7.,6.15239881164595));
#1049=CARTESIAN_POINT('',(4.35000000000849,-7.,6.15239881164595));
#1050=VECTOR('',#1051,1.);
#1051=DIRECTION('',(1.,0.,0.));
#1052=CARTESIAN_POINT('',(4.3500000000085,-7.,8.15239881164595));
#1053=CARTESIAN_POINT('',(4.35000000000849,-7.,6.15239881164595));
#1054=VECTOR('',#1055,1.);
#1055=DIRECTION('',(0.,0.,1.));
#1056=CARTESIAN_POINT('',(4.3500000000085,-7.,8.15239881164595));
#1057=VECTOR('',#1058,1.);
#1058=DIRECTION('',(1.,0.,3.06268420586699E-16));
#1059=CARTESIAN_POINT('',(-8.22568421935009,-3.,2.90000000000001));
#1060=CARTESIAN_POINT('',(-8.22568421935009,-3.,2.90000000000001));
#1061=VECTOR('',#1062,1.);
#1062=DIRECTION('',(0.,-1.,-1.11022302462516E-16));
#1063=CARTESIAN_POINT('',(-6.55136843870017,-3.,4.15455993335745E-15));
#1064=CARTESIAN_POINT('',(-6.55136843870017,-3.,4.66293670342566E-15));
#1065=VECTOR('',#1066,1.);
#1066=DIRECTION('',(-0.499999999999999,0.,0.866025403784439));
#1067=CARTESIAN_POINT('',(-6.55136843870017,-3.,4.7418152257791E-15));
#1068=VECTOR('',#1069,1.);
#1069=DIRECTION('',(0.,-1.,-4.44939577864982E-17));
#1070=CARTESIAN_POINT('',(6.55136843870017,-3.,1.43003739112871E-16));
#1071=CARTESIAN_POINT('',(6.55136843870017,-3.,2.22044604925031E-16));
#1072=VECTOR('',#1073,1.);
#1073=DIRECTION('',(0.,-1.,0.));
#1074=CARTESIAN_POINT('',(8.22568421935009,-3.,2.9));
#1075=CARTESIAN_POINT('',(8.22568421935009,-3.,2.9));
#1076=VECTOR('',#1077,1.);
#1077=DIRECTION('',(-0.5,0.,-0.866025403784439));
#1078=CARTESIAN_POINT('',(8.22568421935009,-3.,2.9));
#1079=VECTOR('',#1080,1.);
#1080=DIRECTION('',(0.,-1.,0.));
#1081=CARTESIAN_POINT('',(-7.85,-3.,-2.45));
#1082=CARTESIAN_POINT('',(-7.85,1.50019232895551E-16,-2.45));
#1083=CARTESIAN_POINT('',(-7.85,-3.,-2.45));
#1084=VECTOR('',#1085,1.);
#1085=DIRECTION('',(0.,1.,1.48029736616688E-16));
#1086=CARTESIAN_POINT('',(7.85,1.50019232895551E-16,-2.45));
#1087=CARTESIAN_POINT('',(-7.85,-1.47034988477256E-16,-2.45));
#1088=VECTOR('',#1089,1.);
#1089=DIRECTION('',(1.,-4.71055476843757E-33,1.41429684665625E-16));
#1090=CARTESIAN_POINT('',(7.85,-3.,-2.45));
#1091=CARTESIAN_POINT('',(7.85,-3.,-2.45));
#1092=VECTOR('',#1093,1.);
#1093=DIRECTION('',(0.,1.,0.));
#1094=CARTESIAN_POINT('',(7.96587659821476,-3.,-2.45));
#1095=CARTESIAN_POINT('',(7.96587659821476,-3.,-2.45));
#1096=VECTOR('',#1097,1.);
#1097=DIRECTION('',(-1.,0.,0.));
#1098=CARTESIAN_POINT('',(7.96587659821476,-3.,-2.45));
#1099=VECTOR('',#1100,1.);
#1100=DIRECTION('',(0.,-1.,-1.11022302462516E-16));
#1101=CARTESIAN_POINT('',(-7.96587659821476,-3.,-2.45));
#1102=CARTESIAN_POINT('',(-7.96587659821476,-3.,-2.45));
#1103=VECTOR('',#1104,1.);
#1104=DIRECTION('',(0.,-1.,-1.11022302462516E-16));
#1105=CARTESIAN_POINT('',(-7.85,-3.,-2.45));
#1106=VECTOR('',#1107,1.);
#1107=DIRECTION('',(-1.,0.,0.));
#1108=CARTESIAN_POINT('',(6.55136843870017,-3.,0.));
#1109=VECTOR('',#1110,1.);
#1110=DIRECTION('',(0.5,0.,-0.866025403784439));
#1111=CARTESIAN_POINT('',(7.85,-3.,-5.35));
#1112=CARTESIAN_POINT('',(7.85,-3.,-2.45));
#1113=VECTOR('',#1114,1.);
#1114=DIRECTION('',(6.125368411725E-16,1.53134210293125E-16,-1.));
#1115=CARTESIAN_POINT('',(-7.85,-3.,-5.35));
#1116=CARTESIAN_POINT('',(7.85,-3.,-5.35));
#1117=VECTOR('',#1118,1.);
#1118=DIRECTION('',(-1.,0.,-1.131437477325E-16));
#1119=CARTESIAN_POINT('',(-7.85,-3.,-5.35));
#1120=VECTOR('',#1121,1.);
#1121=DIRECTION('',(-3.0626842058625E-16,-1.53134210293125E-16,1.));
#1122=CARTESIAN_POINT('',(-7.96587659821476,-3.,-2.45));
#1123=VECTOR('',#1124,1.);
#1124=DIRECTION('',(0.500000000000001,0.,0.866025403784438));
#1125=CARTESIAN_POINT('',(-11.45,-3.,2.90000000000001));
#1126=CARTESIAN_POINT('',(-8.22568421935009,-3.,2.90000000000001));
#1127=VECTOR('',#1128,1.);
#1128=DIRECTION('',(-1.,0.,6.8865650894862E-16));
#1129=CARTESIAN_POINT('',(-11.45,-3.,2.85657137141714));
#1130=CARTESIAN_POINT('',(-11.45,-3.,2.85657137141714));
#1131=VECTOR('',#1132,1.);
#1132=DIRECTION('',(0.,0.,1.));
#1133=CARTESIAN_POINT('',(-9.72347370068827,-3.,-3.24520237668644));
#1134=AXIS2_PLACEMENT_3D('',#1135,#1136,#1137);
#1135=CARTESIAN_POINT('',(-9.9,-3.,-1.84018656087805E-15));
#1136=DIRECTION('',(0.,1.,6.12323399573677E-17));
#1137=DIRECTION('',(0.0543157844036092,6.11419492799143E-17,-0.998523808211212));
#1138=CARTESIAN_POINT('',(-9.27652629925815,-3.,-3.24520237668645));
#1139=CARTESIAN_POINT('',(-9.27652629925815,-3.,-3.24520237668645));
#1140=VECTOR('',#1141,1.);
#1141=DIRECTION('',(-1.,0.,0.));
#1142=CARTESIAN_POINT('',(-9.27652629925815,-3.,-5.44760118835405));
#1143=CARTESIAN_POINT('',(-9.27652629925815,-3.,-5.44760118835405));
#1144=VECTOR('',#1145,1.);
#1145=DIRECTION('',(0.,-2.01638870988043E-16,1.));
#1146=CARTESIAN_POINT('',(-7.77652629925816,-3.,-6.94760118835405));
#1147=AXIS2_PLACEMENT_3D('',#1148,#1149,#1150);
#1148=CARTESIAN_POINT('',(-7.77652629925816,-3.,-5.44760118835405));
#1149=DIRECTION('',(0.,-1.,-6.12323399573677E-17));
#1150=DIRECTION('',(-1.,0.,0.));
#1151=CARTESIAN_POINT('',(7.77652629925815,-3.,-6.94760118835405));
#1152=CARTESIAN_POINT('',(7.77652629925815,-3.,-6.94760118835405));
#1153=VECTOR('',#1154,1.);
#1154=DIRECTION('',(-1.,0.,-5.71063727891496E-17));
#1155=CARTESIAN_POINT('',(9.27652629925815,-3.,-5.44760118835405));
#1156=AXIS2_PLACEMENT_3D('',#1157,#1158,#1159);
#1157=CARTESIAN_POINT('',(7.77652629925815,-3.,-5.44760118835405));
#1158=DIRECTION('',(-5.47382212626882E-48,-1.,-6.12323399573677E-17));
#1159=DIRECTION('',(1.1842378929335E-15,6.12323399573677E-17,-1.));
#1160=CARTESIAN_POINT('',(9.27652629925815,-3.,-3.24520237668645));
#1161=CARTESIAN_POINT('',(9.27652629925815,-3.,-3.24520237668645));
#1162=VECTOR('',#1163,1.);
#1163=DIRECTION('',(0.,2.01638870988043E-16,-1.));
#1164=CARTESIAN_POINT('',(9.72347370068827,-3.,-3.24520237668644));
#1165=CARTESIAN_POINT('',(9.72347370068827,-3.,-3.24520237668645));
#1166=VECTOR('',#1167,1.);
#1167=DIRECTION('',(-1.,0.,0.));
#1168=CARTESIAN_POINT('',(11.45,-3.,2.85657137141714));
#1169=AXIS2_PLACEMENT_3D('',#1170,#1171,#1172);
#1170=CARTESIAN_POINT('',(9.9,-3.,5.84614101433714E-16));
#1171=DIRECTION('',(0.,1.,6.12323399573677E-17));
#1172=DIRECTION('',(0.476923076923076,-5.38198613314149E-17,0.87894503735912));
#1173=CARTESIAN_POINT('',(11.45,-3.,2.9));
#1174=CARTESIAN_POINT('',(11.45,-3.,2.9));
#1175=VECTOR('',#1176,1.);
#1176=DIRECTION('',(0.,0.,-1.));
#1177=CARTESIAN_POINT('',(11.45,-3.,2.9));
#1178=VECTOR('',#1179,1.);
#1179=DIRECTION('',(-1.,0.,-1.37731301789724E-16));
#1180=CARTESIAN_POINT('',(-11.5,-3.,-2.2320735366052E-15));
#1181=AXIS2_PLACEMENT_3D('',#1182,#1183,#1184);
#1182=CARTESIAN_POINT('',(-9.9,-3.,-1.84018656087805E-15));
#1183=DIRECTION('',(0.,1.,6.12323399573677E-17));
#1184=DIRECTION('',(-1.,7.49879891330929E-33,-1.22464679914735E-16));
#1185=CARTESIAN_POINT('',(8.3,-3.,1.92727125706561E-16));
#1186=AXIS2_PLACEMENT_3D('',#1187,#1188,#1189);
#1187=CARTESIAN_POINT('',(9.9,-3.,5.84614101433714E-16));
#1188=DIRECTION('',(0.,1.,6.12323399573677E-17));
#1189=DIRECTION('',(-1.,7.49879891330929E-33,-1.22464679914735E-16));
#1190=CARTESIAN_POINT('',(11.45,-3.,2.9));
#1191=VECTOR('',#1192,1.);
#1192=DIRECTION('',(0.,-1.,0.));
#1193=CARTESIAN_POINT('',(11.45,-5.83048497756995E-17,2.85657137141714));
#1194=CARTESIAN_POINT('',(11.45,-3.,2.85657137141714));
#1195=VECTOR('',#1196,1.);
#1196=DIRECTION('',(0.,1.,0.));
#1197=CARTESIAN_POINT('',(11.45,-3.7672577558801E-16,11.152398811646));
#1198=CARTESIAN_POINT('',(11.45,-8.74572746635492E-17,2.85657137141714));
#1199=VECTOR('',#1200,1.);
#1200=DIRECTION('',(0.,-3.06161699786838E-17,1.));
#1201=CARTESIAN_POINT('',(11.45,-7.,11.152398811646));
#1202=VECTOR('',#1203,1.);
#1203=DIRECTION('',(0.,1.,0.));
#1204=CARTESIAN_POINT('',(-11.45,2.42771539445943E-15,11.152398811646));
#1205=CARTESIAN_POINT('',(-11.45,2.42771539445943E-15,11.152398811646));
#1206=VECTOR('',#1207,1.);
#1207=DIRECTION('',(0.,-1.,0.));
#1208=CARTESIAN_POINT('',(11.45,-5.29806625481429E-16,11.152398811646));
#1209=VECTOR('',#1210,1.);
#1210=DIRECTION('',(-1.,6.12323399573677E-17,-1.55140335318799E-16));
#1211=CARTESIAN_POINT('',(-5.65,-3.5,11.152398811646));
#1212=AXIS2_PLACEMENT_3D('',#1213,#1214,#1215);
#1213=CARTESIAN_POINT('',(-7.25,-3.5,11.152398811646));
#1214=DIRECTION('',(-1.02643363088832E-16,0.,1.));
#1215=DIRECTION('',(1.,0.,1.02643363088832E-16));
#1216=CARTESIAN_POINT('',(8.85,-3.5,11.152398811646));
#1217=AXIS2_PLACEMENT_3D('',#1218,#1219,#1220);
#1218=CARTESIAN_POINT('',(7.25,-3.5,11.152398811646));
#1219=DIRECTION('',(-1.02643363088832E-16,0.,1.));
#1220=DIRECTION('',(1.,0.,1.02643363088832E-16));
#1221=CARTESIAN_POINT('',(-11.45,-7.,2.90000000000001));
#1222=VECTOR('',#1223,1.);
#1223=DIRECTION('',(0.,1.,2.22044604925031E-16));
#1224=CARTESIAN_POINT('',(-11.45,-1.21092479040368E-16,2.85657137141714));
#1225=CARTESIAN_POINT('',(-11.45,-2.75820162457554E-16,2.85657137141714));
#1226=VECTOR('',#1227,1.);
#1227=DIRECTION('',(0.,1.38411042210417E-16,1.));
#1228=CARTESIAN_POINT('',(-11.45,-3.,2.85657137141714));
#1229=VECTOR('',#1230,1.);
#1230=DIRECTION('',(0.,1.,0.));
#1231=CARTESIAN_POINT('',(-4.35000000001384,-1.82568421937436,8.15239881164595));
#1232=CARTESIAN_POINT('',(-4.3500000000085,-7.,8.15239881164595));
#1233=VECTOR('',#1234,1.);
#1234=DIRECTION('',(-1.03316962760411E-12,1.,0.));
#1235=CARTESIAN_POINT('',(-4.35000000001384,-1.82568421937436,6.15239881164595));
#1236=CARTESIAN_POINT('',(-4.35000000001384,-1.82568421937436,6.15239881164595));
#1237=VECTOR('',#1238,1.);
#1238=DIRECTION('',(0.,0.,1.));
#1239=CARTESIAN_POINT('',(-4.35000000001384,-1.82568421937436,6.15239881164595));
#1240=VECTOR('',#1241,1.);
#1241=DIRECTION('',(1.03316962760411E-12,-1.,0.));
#1242=CARTESIAN_POINT('',(-10.1499999999953,-1.82568421935753,6.15239881164595));
#1243=CARTESIAN_POINT('',(-7.25000000000137,-0.151368438696234,6.15239881164595));
#1244=CARTESIAN_POINT('',(-10.1499999999953,-1.82568421935753,6.15239881164595));
#1245=VECTOR('',#1246,1.);
#1246=DIRECTION('',(0.86602540378251,0.50000000000334,0.));
#1247=CARTESIAN_POINT('',(-10.15,-7.,6.15239881164595));
#1248=VECTOR('',#1249,1.);
#1249=DIRECTION('',(9.14901830056819E-13,1.,0.));
#1250=CARTESIAN_POINT('',(-7.25000000000137,-0.151368438696234,6.15239881164595));
#1251=VECTOR('',#1252,1.);
#1252=DIRECTION('',(0.866025403779859,-0.500000000007932,0.));
#1253=CARTESIAN_POINT('',(-5.65,-3.5,6.15239881164595));
#1254=AXIS2_PLACEMENT_3D('',#1255,#1256,#1257);
#1255=CARTESIAN_POINT('',(-7.25,-3.5,6.15239881164595));
#1256=DIRECTION('',(-1.02643363088832E-16,0.,1.));
#1257=DIRECTION('',(1.,0.,1.02643363088832E-16));
#1258=CARTESIAN_POINT('',(-10.1499999999953,-1.82568421935753,8.15239881164595));
#1259=CARTESIAN_POINT('',(-10.1499999999953,-1.82568421935753,8.15239881164595));
#1260=VECTOR('',#1261,1.);
#1261=DIRECTION('',(-9.14901830056819E-13,-1.,0.));
#1262=CARTESIAN_POINT('',(-10.1499999999953,-1.82568421935753,6.15239881164595));
#1263=VECTOR('',#1264,1.);
#1264=DIRECTION('',(0.,0.,1.));
#1265=CARTESIAN_POINT('',(-7.25000000000137,-0.151368438696234,8.15239881164595));
#1266=CARTESIAN_POINT('',(-7.25000000000137,-0.151368438696234,8.15239881164595));
#1267=VECTOR('',#1268,1.);
#1268=DIRECTION('',(-0.86602540378251,-0.50000000000334,0.));
#1269=CARTESIAN_POINT('',(-4.35000000001384,-1.82568421937436,8.15239881164595));
#1270=VECTOR('',#1271,1.);
#1271=DIRECTION('',(-0.866025403779859,0.500000000007932,0.));
#1272=CARTESIAN_POINT('',(-5.65,-3.5,8.15239881164595));
#1273=AXIS2_PLACEMENT_3D('',#1274,#1275,#1276);
#1274=CARTESIAN_POINT('',(-7.25,-3.5,8.15239881164595));
#1275=DIRECTION('',(-1.02643363088832E-16,0.,1.));
#1276=DIRECTION('',(1.,0.,1.02643363088832E-16));
#1277=CARTESIAN_POINT('',(10.15,-1.8256842193604,8.15239881164595));
#1278=CARTESIAN_POINT('',(10.15,-7.,8.15239881164595));
#1279=VECTOR('',#1280,1.);
#1280=DIRECTION('',(0.,1.,0.));
#1281=CARTESIAN_POINT('',(10.15,-1.8256842193604,6.15239881164595));
#1282=CARTESIAN_POINT('',(10.15,-1.8256842193604,6.15239881164595));
#1283=VECTOR('',#1284,1.);
#1284=DIRECTION('',(0.,0.,1.));
#1285=CARTESIAN_POINT('',(10.15,-1.8256842193604,6.15239881164595));
#1286=VECTOR('',#1287,1.);
#1287=DIRECTION('',(0.,-1.,0.));
#1288=CARTESIAN_POINT('',(4.34999999999151,-1.8256842193782,6.15239881164595));
#1289=CARTESIAN_POINT('',(4.35000000000849,-7.,6.15239881164595));
#1290=VECTOR('',#1291,1.);
#1291=DIRECTION('',(-3.28334750570295E-12,1.,0.));
#1292=CARTESIAN_POINT('',(7.25000000001898,-0.151368438694003,6.15239881164595));
#1293=CARTESIAN_POINT('',(7.25000000001898,-0.151368438694003,6.15239881164595));
#1294=VECTOR('',#1295,1.);
#1295=DIRECTION('',(0.86602540378089,-0.500000000006146,0.));
#1296=CARTESIAN_POINT('',(4.34999999999151,-1.8256842193782,6.15239881164595));
#1297=VECTOR('',#1298,1.);
#1298=DIRECTION('',(0.866025403782057,0.500000000004126,0.));
#1299=CARTESIAN_POINT('',(8.85,-3.5,6.15239881164595));
#1300=AXIS2_PLACEMENT_3D('',#1301,#1302,#1303);
#1301=CARTESIAN_POINT('',(7.25,-3.5,6.15239881164595));
#1302=DIRECTION('',(-1.02643363088832E-16,0.,1.));
#1303=DIRECTION('',(1.,0.,1.02643363088832E-16));
#1304=CARTESIAN_POINT('',(4.34999999999151,-1.8256842193782,8.15239881164595));
#1305=CARTESIAN_POINT('',(4.34999999999151,-1.8256842193782,8.15239881164595));
#1306=VECTOR('',#1307,1.);
#1307=DIRECTION('',(3.28334750570295E-12,-1.,0.));
#1308=CARTESIAN_POINT('',(4.34999999999151,-1.8256842193782,6.15239881164595));
#1309=VECTOR('',#1310,1.);
#1310=DIRECTION('',(0.,0.,1.));
#1311=CARTESIAN_POINT('',(7.25000000001898,-0.151368438694003,8.15239881164595));
#1312=CARTESIAN_POINT('',(7.25000000001898,-0.151368438694003,8.15239881164595));
#1313=VECTOR('',#1314,1.);
#1314=DIRECTION('',(-0.866025403782057,-0.500000000004125,0.));
#1315=CARTESIAN_POINT('',(10.15,-1.8256842193604,8.15239881164595));
#1316=VECTOR('',#1317,1.);
#1317=DIRECTION('',(-0.86602540378089,0.500000000006146,0.));
#1318=CARTESIAN_POINT('',(8.85,-3.5,8.15239881164595));
#1319=AXIS2_PLACEMENT_3D('',#1320,#1321,#1322);
#1320=CARTESIAN_POINT('',(7.25,-3.5,8.15239881164595));
#1321=DIRECTION('',(-1.02643363088832E-16,0.,1.));
#1322=DIRECTION('',(1.,0.,1.02643363088832E-16));
#1323=CARTESIAN_POINT('',(-7.85,3.27593018771917E-16,-5.35));
#1324=CARTESIAN_POINT('',(-7.85,-3.,-5.35));
#1325=VECTOR('',#1326,1.);
#1326=DIRECTION('',(0.,1.,0.));
#1327=CARTESIAN_POINT('',(-7.85,-5.82480955390727E-17,-5.35));
#1328=VECTOR('',#1329,1.);
#1329=DIRECTION('',(-3.0626842058625E-16,-1.07183275125246E-16,1.));
#1330=CARTESIAN_POINT('',(9.72347370068827,1.98711335159722E-16,-3.24520237668644));
#1331=AXIS2_PLACEMENT_3D('',#1332,#1333,#1334);
#1332=CARTESIAN_POINT('',(9.9,-4.70454877728241E-32,7.68311121305817E-16));
#1333=DIRECTION('',(0.,1.,6.12323399573677E-17));
#1334=DIRECTION('',(0.476923076923076,-5.38198613314149E-17,0.87894503735912));
#1335=CARTESIAN_POINT('',(9.27652629925815,6.62371117199073E-17,-3.24520237668645));
#1336=CARTESIAN_POINT('',(9.72347370068827,9.9355667579861E-17,-3.24520237668645));
#1337=VECTOR('',#1338,1.);
#1338=DIRECTION('',(-1.,0.,0.));
#1339=CARTESIAN_POINT('',(9.27652629925815,9.99368209005944E-16,-5.44760118835405));
#1340=CARTESIAN_POINT('',(9.27652629925815,9.9355667579861E-17,-3.24520237668645));
#1341=VECTOR('',#1342,1.);
#1342=DIRECTION('',(0.,1.31435605472705E-16,-1.));
#1343=CARTESIAN_POINT('',(7.77652629925815,1.02998437898463E-15,-6.94760118835405));
#1344=AXIS2_PLACEMENT_3D('',#1345,#1346,#1347);
#1345=CARTESIAN_POINT('',(7.77652629925815,3.33569367917455E-16,-5.44760118835404));
#1346=DIRECTION('',(0.,1.,6.12323399573677E-17));
#1347=DIRECTION('',(1.,1.08770485875751E-31,-1.77635683940025E-15));
#1348=CARTESIAN_POINT('',(-7.77652629925816,1.02998437898463E-15,-6.94760118835405));
#1349=CARTESIAN_POINT('',(7.77652629925815,4.34753543851785E-16,-6.94760118835405));
#1350=VECTOR('',#1351,1.);
#1351=DIRECTION('',(-1.,0.,-5.71063727891496E-17));
#1352=CARTESIAN_POINT('',(-9.27652629925815,9.99368209005944E-16,-5.44760118835405));
#1353=AXIS2_PLACEMENT_3D('',#1354,#1355,#1356);
#1354=CARTESIAN_POINT('',(-7.77652629925816,3.33569367917455E-16,-5.44760118835405));
#1355=DIRECTION('',(0.,1.,6.12323399573677E-17));
#1356=DIRECTION('',(0.,6.12323399573676E-17,-1.));
#1357=CARTESIAN_POINT('',(-9.27652629925815,6.62371117199074E-17,-3.24520237668645));
#1358=CARTESIAN_POINT('',(-9.27652629925815,3.88829288883759E-16,-5.44760118835405));
#1359=VECTOR('',#1360,1.);
#1360=DIRECTION('',(0.,-1.31435605472705E-16,1.));
#1361=CARTESIAN_POINT('',(-9.72347370068827,1.98711335159722E-16,-3.24520237668644));
#1362=CARTESIAN_POINT('',(-9.27652629925815,9.93556675798611E-17,-3.24520237668645));
#1363=VECTOR('',#1364,1.);
#1364=DIRECTION('',(-1.,0.,0.));
#1365=AXIS2_PLACEMENT_3D('',#1366,#1367,#1368);
#1366=CARTESIAN_POINT('',(-9.9,1.014307307107E-31,-1.65648954100594E-15));
#1367=DIRECTION('',(0.,1.,6.12323399573677E-17));
#1368=DIRECTION('',(0.0543157844036092,6.11419492799143E-17,-0.998523808211212));
#1369=CARTESIAN_POINT('',(7.85,3.27593018771917E-16,-5.35));
#1370=CARTESIAN_POINT('',(7.85,-5.82480955390728E-17,-5.35));
#1371=VECTOR('',#1372,1.);
#1372=DIRECTION('',(-1.,3.14036984562505E-33,-1.131437477325E-16));
#1373=CARTESIAN_POINT('',(7.85,-3.69079593402287E-16,-2.45));
#1374=VECTOR('',#1375,1.);
#1375=DIRECTION('',(6.125368411725E-16,1.07183275125246E-16,-1.));
#1376=CARTESIAN_POINT('',(-11.5,1.25426887233289E-31,-2.0483765167331E-15));
#1377=AXIS2_PLACEMENT_3D('',#1378,#1379,#1380);
#1378=CARTESIAN_POINT('',(-9.9,1.014307307107E-31,-1.65648954100594E-15));
#1379=DIRECTION('',(0.,1.,6.12323399573677E-17));
#1380=DIRECTION('',(-1.,7.49879891330929E-33,-1.22464679914735E-16));
#1381=CARTESIAN_POINT('',(8.3,-2.30493312502344E-32,3.76424145578664E-16));
#1382=AXIS2_PLACEMENT_3D('',#1383,#1384,#1385);
#1383=CARTESIAN_POINT('',(9.9,-4.70454877728241E-32,7.68311121305817E-16));
#1384=DIRECTION('',(0.,1.,6.12323399573677E-17));
#1385=DIRECTION('',(-1.,7.49879891330929E-33,-1.22464679914735E-16));
#1386=CARTESIAN_POINT('',(7.85,-3.,-5.35));
#1387=VECTOR('',#1388,1.);
#1388=DIRECTION('',(0.,1.,0.));
#1389=CARTESIAN_POINT('',(-9.72347370068827,-3.,-3.24520237668644));
#1390=VECTOR('',#1391,1.);
#1391=DIRECTION('',(0.,1.,0.));
#1392=CARTESIAN_POINT('',(-9.27652629925815,-3.,-3.24520237668645));
#1393=VECTOR('',#1394,1.);
#1394=DIRECTION('',(0.,1.,1.48029736616688E-16));
#1395=CARTESIAN_POINT('',(-9.27652629925815,-3.,-5.44760118835405));
#1396=VECTOR('',#1397,1.);
#1397=DIRECTION('',(0.,1.,0.));
#1398=CARTESIAN_POINT('',(-7.77652629925816,-3.,-6.94760118835405));
#1399=VECTOR('',#1400,1.);
#1400=DIRECTION('',(0.,1.,-2.96059473233375E-16));
#1401=CARTESIAN_POINT('',(7.77652629925815,-3.,-6.94760118835405));
#1402=VECTOR('',#1403,1.);
#1403=DIRECTION('',(0.,1.,0.));
#1404=CARTESIAN_POINT('',(9.27652629925815,-3.,-5.44760118835405));
#1405=VECTOR('',#1406,1.);
#1406=DIRECTION('',(0.,1.,0.));
#1407=CARTESIAN_POINT('',(9.27652629925815,0.,-3.24520237668645));
#1408=VECTOR('',#1409,1.);
#1409=DIRECTION('',(0.,-1.,-1.48029736616688E-16));
#1410=CARTESIAN_POINT('',(9.72347370068827,-3.,-3.24520237668644));
#1411=VECTOR('',#1412,1.);
#1412=DIRECTION('',(0.,1.,1.48029736616688E-16));
#1413=CARTESIAN_POINT('',(-7.25000000000137,-0.151368438696234,6.15239881164595));
#1414=VECTOR('',#1415,1.);
#1415=DIRECTION('',(0.,0.,1.));
#1416=CARTESIAN_POINT('',(-5.65,-3.5,3.15239881164595));
#1417=AXIS2_PLACEMENT_3D('',#1418,#1419,#1420);
#1418=CARTESIAN_POINT('',(-7.25,-3.5,3.15239881164595));
#1419=DIRECTION('',(-1.02643363088832E-16,0.,1.));
#1420=DIRECTION('',(1.,0.,1.02643363088832E-16));
#1421=CARTESIAN_POINT('',(7.25000000001898,-0.151368438694003,6.15239881164595));
#1422=VECTOR('',#1423,1.);
#1423=DIRECTION('',(0.,0.,1.));
#1424=CARTESIAN_POINT('',(8.85,-3.5,3.15239881164595));
#1425=AXIS2_PLACEMENT_3D('',#1426,#1427,#1428);
#1426=CARTESIAN_POINT('',(7.25,-3.5,3.15239881164595));
#1427=DIRECTION('',(-1.02643363088832E-16,0.,1.));
#1428=DIRECTION('',(1.,0.,1.02643363088832E-16));
ENDSEC;
END-ISO-10303-21;
