ISO-10303-21;
HEADER;
FILE_DESCRIPTION(('STEP AP203'),
    '1');
FILE_NAME('Рычаг',
    '',
    ('UNSPECIFIED'),
    ('UNSPECIFIED'),
    'C3D Converter',
    'C3D Toolkit',
    '');
FILE_SCHEMA(('CONFIG_CONTROL_DESIGN'));
ENDSEC;

DATA;
#1=PRODUCT_DEFINITION('','UNSPECIFIED',#28,#31);
#2=SHAPE_DEFINITION_REPRESENTATION(#26,#3);
#3=SHAPE_REPRESENTATION('NONE',(#4),#8);
#4=AXIS2_PLACEMENT_3D('',#5,#6,#7);
#5=CARTESIAN_POINT('',(0.,0.,0.));
#6=DIRECTION('',(0.,0.,1.));
#7=DIRECTION('',(1.,0.,0.));
#8=(GEOMETRIC_REPRESENTATION_CONTEXT(3)GLOBAL_UNCERTAINTY_ASSIGNED_CONTEXT((#10))
GLOBAL_UNIT_ASSIGNED_CONTEXT((#9,#11,#12))REPRESENTATION_CONTEXT('NONE','NONE'));
#9=(LENGTH_UNIT()NAMED_UNIT(*)SI_UNIT(.MILLI.,.METRE.));
#10=UNCERTAINTY_MEASURE_WITH_UNIT(LENGTH_MEASURE(1.E-5),#9,'NONE','NONE');
#11=(NAMED_UNIT(*)PLANE_ANGLE_UNIT()SI_UNIT($,.RADIAN.));
#12=(NAMED_UNIT(*)SI_UNIT($,.STERADIAN.)SOLID_ANGLE_UNIT());
#13=MANIFOLD_SOLID_BREP('',#14);
#14=CLOSED_SHELL('',(#53,#54,#55,#56,#57,#58,#59,#60,#61,#62,#63,#64,#65,#66,#67,
#68,#69,#70,#71,#72,#73,#74,#75,#76,#77,#78,#79,#80,#81,#82,#83,#84,#85,#86,#87,
#88,#89,#90,#91,#92,#93,#94,#95,#96));
#15=COLOUR_RGB('',0.8,0.,0.8);
#16=FILL_AREA_STYLE_COLOUR('',#15);
#17=FILL_AREA_STYLE($,(#16));
#18=SURFACE_STYLE_FILL_AREA(#17);
#19=SURFACE_SIDE_STYLE('',(#18));
#20=SURFACE_STYLE_USAGE(.BOTH.,#19);
#21=PRESENTATION_STYLE_ASSIGNMENT((#20));
#22=MECHANICAL_DESIGN_GEOMETRIC_PRESENTATION_REPRESENTATION('NONE',(#23),#8);
#23=STYLED_ITEM('',(#21),#13);
#24=ADVANCED_BREP_SHAPE_REPRESENTATION('NONE',(#13),#8);
#25=SHAPE_REPRESENTATION_RELATIONSHIP('','',#3,#24);
#26=PRODUCT_DEFINITION_SHAPE('NONE','NONE',#1);
#27=MECHANICAL_CONTEXT('NONE',#32,'mechanical');
#28=PRODUCT_DEFINITION_FORMATION_WITH_SPECIFIED_SOURCE('ANY','UNSPECIFIED',#29,.NOT_KNOWN.);
#29=PRODUCT('','\X2\0420044B044704300433\X0\','NONE',(#27));
#30=PRODUCT_RELATED_PRODUCT_CATEGORY('detail','',(#29));
#31=DESIGN_CONTEXT('detailed design',#32,'design');
#32=APPLICATION_CONTEXT('configuration controlled 3d designs of mechanical parts and assemblies');
#33=APPLICATION_PROTOCOL_DEFINITION('international standard','config_control_design',
1994,#32);
#34=CC_DESIGN_DATE_AND_TIME_ASSIGNMENT(#35,#39,(#1));
#35=DATE_AND_TIME(#36,#37);
#36=CALENDAR_DATE(0,1,1);
#37=LOCAL_TIME(0,0,0.,#38);
#38=COORDINATED_UNIVERSAL_TIME_OFFSET(0,0,.AHEAD.);
#39=DATE_TIME_ROLE('creation_date');
#40=CC_DESIGN_APPROVAL(#41,(#1));
#41=APPROVAL(#42,'UNSPECIFIED');
#42=APPROVAL_STATUS('not_yet_approved');
#43=APPROVAL_DATE_TIME(#44,#41);
#44=DATE_AND_TIME(#45,#46);
#45=CALENDAR_DATE(0,1,1);
#46=LOCAL_TIME(0,0,0.,#47);
#47=COORDINATED_UNIVERSAL_TIME_OFFSET(0,0,.AHEAD.);
#48=PERSON('UNSPECIFIED','UNSPECIFIED','UNSPECIFIED',('UNSPECIFIED'),('UNSPECIFIED'),
('UNSPECIFIED'));
#49=ORGANIZATION('UNSPECIFIED','UNSPECIFIED','UNSPECIFIED');
#50=PERSON_AND_ORGANIZATION(#48,#49);
#51=PERSON_AND_ORGANIZATION_ROLE('creator');
#52=CC_DESIGN_PERSON_AND_ORGANIZATION_ASSIGNMENT(#50,#51,(#28,#1));
#53=ADVANCED_FACE('',(#97,#99),#101,.T.);
#54=ADVANCED_FACE('',(#106,#108),#110,.F.);
#55=ADVANCED_FACE('',(#115,#117),#119,.T.);
#56=ADVANCED_FACE('',(#124,#126),#128,.F.);
#57=ADVANCED_FACE('',(#133),#135,.T.);
#58=ADVANCED_FACE('',(#140),#142,.T.);
#59=ADVANCED_FACE('',(#147),#149,.T.);
#60=ADVANCED_FACE('',(#154),#156,.T.);
#61=ADVANCED_FACE('',(#161,#163),#165,.T.);
#62=ADVANCED_FACE('',(#170),#172,.T.);
#63=ADVANCED_FACE('',(#177,#179),#181,.T.);
#64=ADVANCED_FACE('',(#186),#188,.T.);
#65=ADVANCED_FACE('',(#193),#195,.T.);
#66=ADVANCED_FACE('',(#200,#202),#204,.F.);
#67=ADVANCED_FACE('',(#209),#211,.T.);
#68=ADVANCED_FACE('',(#216,#218),#220,.T.);
#69=ADVANCED_FACE('',(#225),#227,.T.);
#70=ADVANCED_FACE('',(#232),#234,.T.);
#71=ADVANCED_FACE('',(#239,#241),#243,.F.);
#72=ADVANCED_FACE('',(#248),#250,.T.);
#73=ADVANCED_FACE('',(#255),#257,.T.);
#74=ADVANCED_FACE('',(#262,#264),#266,.F.);
#75=ADVANCED_FACE('',(#271),#273,.T.);
#76=ADVANCED_FACE('',(#278),#280,.T.);
#77=ADVANCED_FACE('',(#285),#287,.T.);
#78=ADVANCED_FACE('',(#292),#294,.T.);
#79=ADVANCED_FACE('',(#299),#301,.T.);
#80=ADVANCED_FACE('',(#306,#308),#310,.T.);
#81=ADVANCED_FACE('',(#315),#317,.T.);
#82=ADVANCED_FACE('',(#322),#324,.T.);
#83=ADVANCED_FACE('',(#329),#331,.F.);
#84=ADVANCED_FACE('',(#336),#338,.T.);
#85=ADVANCED_FACE('',(#343),#345,.T.);
#86=ADVANCED_FACE('',(#350,#352),#354,.F.);
#87=ADVANCED_FACE('',(#359),#361,.T.);
#88=ADVANCED_FACE('',(#366),#368,.T.);
#89=ADVANCED_FACE('',(#373),#375,.T.);
#90=ADVANCED_FACE('',(#380),#382,.T.);
#91=ADVANCED_FACE('',(#387),#389,.T.);
#92=ADVANCED_FACE('',(#394,#396),#398,.T.);
#93=ADVANCED_FACE('',(#403),#405,.T.);
#94=ADVANCED_FACE('',(#410,#412),#414,.T.);
#95=ADVANCED_FACE('',(#419),#421,.F.);
#96=ADVANCED_FACE('',(#426),#428,.T.);
#97=FACE_BOUND('',#98,.T.);
#98=EDGE_LOOP('',(#433,#434,#435,#436));
#99=FACE_BOUND('',#100,.T.);
#100=EDGE_LOOP('',(#437));
#101=PLANE('',#102);
#102=AXIS2_PLACEMENT_3D('',#103,#104,#105);
#103=CARTESIAN_POINT('',(-12.,-3.5,-5.5));
#104=DIRECTION('',(-1.,1.61486985400023E-16,0.));
#105=DIRECTION('',(-1.61486985400023E-16,-1.,0.));
#106=FACE_OUTER_BOUND('',#107,.T.);
#107=EDGE_LOOP('',(#438));
#108=FACE_OUTER_BOUND('',#109,.T.);
#109=EDGE_LOOP('',(#439));
#110=CYLINDRICAL_SURFACE('',#111,2.05);
#111=AXIS2_PLACEMENT_3D('',#112,#113,#114);
#112=CARTESIAN_POINT('',(-20.,-9.,-5.51091059616309E-16));
#113=DIRECTION('',(1.,-1.22464679914735E-16,0.));
#114=DIRECTION('',(1.22464679914735E-16,1.,6.12323399573677E-17));
#115=FACE_BOUND('',#116,.T.);
#116=EDGE_LOOP('',(#440));
#117=FACE_BOUND('',#118,.T.);
#118=EDGE_LOOP('',(#441));
#119=PLANE('',#120);
#120=AXIS2_PLACEMENT_3D('',#121,#122,#123);
#121=CARTESIAN_POINT('',(-8.9,1.4372341700602E-15,0.));
#122=DIRECTION('',(-1.,1.61486985400023E-16,0.));
#123=DIRECTION('',(0.,0.,-1.));
#124=FACE_OUTER_BOUND('',#125,.T.);
#125=EDGE_LOOP('',(#442));
#126=FACE_OUTER_BOUND('',#127,.T.);
#127=EDGE_LOOP('',(#443));
#128=CYLINDRICAL_SURFACE('',#129,4.1);
#129=AXIS2_PLACEMENT_3D('',#130,#131,#132);
#130=CARTESIAN_POINT('',(-8.9,-8.97992407242206,0.));
#131=DIRECTION('',(-1.,1.61486985400023E-16,0.));
#132=DIRECTION('',(0.,0.,-1.));
#133=FACE_BOUND('',#134,.T.);
#134=EDGE_LOOP('',(#444,#445,#446,#447));
#135=CYLINDRICAL_SURFACE('',#136,1.);
#136=AXIS2_PLACEMENT_3D('',#137,#138,#139);
#137=CARTESIAN_POINT('',(-11.,0.500000000000002,4.5));
#138=DIRECTION('',(-9.34924652315921E-17,-1.,0.));
#139=DIRECTION('',(-3.11392462587241E-32,0.,1.));
#140=FACE_BOUND('',#141,.T.);
#141=EDGE_LOOP('',(#448,#449,#450,#451,#452,#453,#454,#455));
#142=CYLINDRICAL_SURFACE('',#143,3.5);
#143=AXIS2_PLACEMENT_3D('',#144,#145,#146);
#144=CARTESIAN_POINT('',(-8.5,-3.5,-5.5));
#145=DIRECTION('',(0.,0.,1.));
#146=DIRECTION('',(1.22464679914735E-16,1.,0.));
#147=FACE_BOUND('',#148,.T.);
#148=EDGE_LOOP('',(#456,#457,#458,#459));
#149=CYLINDRICAL_SURFACE('',#150,1.);
#150=AXIS2_PLACEMENT_3D('',#151,#152,#153);
#151=CARTESIAN_POINT('',(-11.,0.500000000000002,-4.5));
#152=DIRECTION('',(9.34924652315921E-17,1.,0.));
#153=DIRECTION('',(-3.11392462587241E-32,0.,-1.));
#154=FACE_BOUND('',#155,.T.);
#155=EDGE_LOOP('',(#460,#461,#462,#463));
#156=CYLINDRICAL_SURFACE('',#157,3.5);
#157=AXIS2_PLACEMENT_3D('',#158,#159,#160);
#158=CARTESIAN_POINT('',(-8.5,-14.5,-5.5));
#159=DIRECTION('',(0.,0.,1.));
#160=DIRECTION('',(-1.,1.22464679914735E-16,0.));
#161=FACE_BOUND('',#162,.T.);
#162=EDGE_LOOP('',(#464));
#163=FACE_BOUND('',#164,.T.);
#164=EDGE_LOOP('',(#465));
#165=PLANE('',#166);
#166=AXIS2_PLACEMENT_3D('',#167,#168,#169);
#167=CARTESIAN_POINT('',(-3.,3.67394039744206E-16,0.));
#168=DIRECTION('',(1.,-1.22464679914735E-16,0.));
#169=DIRECTION('',(1.22464679914735E-16,1.,6.12323399573677E-17));
#170=FACE_BOUND('',#171,.T.);
#171=EDGE_LOOP('',(#466,#467,#468,#469));
#172=TOROIDAL_SURFACE('',#173,2.5,1.);
#173=AXIS2_PLACEMENT_3D('',#174,#175,#176);
#174=CARTESIAN_POINT('',(-8.5,-14.5,4.5));
#175=DIRECTION('',(0.,0.,1.));
#176=DIRECTION('',(-5.07530525542929E-16,1.,0.));
#177=FACE_BOUND('',#178,.T.);
#178=EDGE_LOOP('',(#470,#471,#472,#473,#474,#475,#476,#477));
#179=FACE_BOUND('',#180,.T.);
#180=EDGE_LOOP('',(#478));
#181=PLANE('',#182);
#182=AXIS2_PLACEMENT_3D('',#183,#184,#185);
#183=CARTESIAN_POINT('',(0.,0.,5.5));
#184=DIRECTION('',(0.,0.,1.));
#185=DIRECTION('',(-1.,1.22464679914735E-16,0.));
#186=FACE_BOUND('',#187,.T.);
#187=EDGE_LOOP('',(#479,#480,#481,#482));
#188=TOROIDAL_SURFACE('',#189,2.5,1.);
#189=AXIS2_PLACEMENT_3D('',#190,#191,#192);
#190=CARTESIAN_POINT('',(-8.5,-3.5,4.5));
#191=DIRECTION('',(0.,0.,1.));
#192=DIRECTION('',(1.,0.,0.));
#193=FACE_BOUND('',#194,.T.);
#194=EDGE_LOOP('',(#483,#484,#485,#486));
#195=PLANE('',#196);
#196=AXIS2_PLACEMENT_3D('',#197,#198,#199);
#197=CARTESIAN_POINT('',(-3.5,4.28626379701574E-16,-5.5));
#198=DIRECTION('',(1.22464679914735E-16,1.,0.));
#199=DIRECTION('',(-1.,1.22464679914735E-16,0.));
#200=FACE_BOUND('',#201,.T.);
#201=EDGE_LOOP('',(#487,#488,#489,#490,#491,#492,#493,#494));
#202=FACE_BOUND('',#203,.T.);
#203=EDGE_LOOP('',(#495));
#204=PLANE('',#205);
#205=AXIS2_PLACEMENT_3D('',#206,#207,#208);
#206=CARTESIAN_POINT('',(-2.44929359829471E-16,0.,2.));
#207=DIRECTION('',(1.22464679914735E-16,0.,-1.));
#208=DIRECTION('',(1.,-1.22464679914735E-16,1.22464679914735E-16));
#209=FACE_BOUND('',#210,.T.);
#210=EDGE_LOOP('',(#496,#497,#498,#499));
#211=PLANE('',#212);
#212=AXIS2_PLACEMENT_3D('',#213,#214,#215);
#213=CARTESIAN_POINT('',(-10.,-9.,2.));
#214=DIRECTION('',(-1.,1.33474854613988E-16,0.));
#215=DIRECTION('',(1.33474854613988E-16,1.,0.));
#216=FACE_BOUND('',#217,.T.);
#217=EDGE_LOOP('',(#500,#501,#502,#503,#504,#505,#506,#507));
#218=FACE_BOUND('',#219,.T.);
#219=EDGE_LOOP('',(#508));
#220=PLANE('',#221);
#221=AXIS2_PLACEMENT_3D('',#222,#223,#224);
#222=CARTESIAN_POINT('',(2.44929359829471E-16,0.,-2.));
#223=DIRECTION('',(1.22464679914735E-16,0.,-1.));
#224=DIRECTION('',(1.,-1.22464679914735E-16,1.22464679914735E-16));
#225=FACE_BOUND('',#226,.T.);
#226=EDGE_LOOP('',(#509,#510,#511,#512));
#227=PLANE('',#228);
#228=AXIS2_PLACEMENT_3D('',#229,#230,#231);
#229=CARTESIAN_POINT('',(-3.5,4.28626379701574E-16,-5.5));
#230=DIRECTION('',(1.22464679914735E-16,1.,0.));
#231=DIRECTION('',(-1.,1.22464679914735E-16,0.));
#232=FACE_BOUND('',#233,.T.);
#233=EDGE_LOOP('',(#513,#514,#515,#516));
#234=TOROIDAL_SURFACE('',#235,2.5,1.);
#235=AXIS2_PLACEMENT_3D('',#236,#237,#238);
#236=CARTESIAN_POINT('',(-8.5,-3.5,-4.5));
#237=DIRECTION('',(0.,0.,1.));
#238=DIRECTION('',(1.,0.,0.));
#239=FACE_BOUND('',#240,.T.);
#240=EDGE_LOOP('',(#517,#518,#519,#520,#521,#522,#523,#524));
#241=FACE_BOUND('',#242,.T.);
#242=EDGE_LOOP('',(#525));
#243=PLANE('',#244);
#244=AXIS2_PLACEMENT_3D('',#245,#246,#247);
#245=CARTESIAN_POINT('',(0.,0.,-5.5));
#246=DIRECTION('',(0.,0.,1.));
#247=DIRECTION('',(-1.,1.22464679914735E-16,0.));
#248=FACE_BOUND('',#249,.T.);
#249=EDGE_LOOP('',(#526,#527,#528,#529));
#250=TOROIDAL_SURFACE('',#251,2.5,1.);
#251=AXIS2_PLACEMENT_3D('',#252,#253,#254);
#252=CARTESIAN_POINT('',(-8.5,-14.5,-4.5));
#253=DIRECTION('',(0.,0.,1.));
#254=DIRECTION('',(-5.07530525542929E-16,1.,0.));
#255=FACE_BOUND('',#256,.T.);
#256=EDGE_LOOP('',(#530,#531,#532,#533));
#257=PLANE('',#258);
#258=AXIS2_PLACEMENT_3D('',#259,#260,#261);
#259=CARTESIAN_POINT('',(-8.5,-18.,-5.5));
#260=DIRECTION('',(7.105427357601E-16,-1.,0.));
#261=DIRECTION('',(1.,7.105427357601E-16,0.));
#262=FACE_OUTER_BOUND('',#263,.T.);
#263=EDGE_LOOP('',(#534));
#264=FACE_OUTER_BOUND('',#265,.T.);
#265=EDGE_LOOP('',(#535));
#266=CYLINDRICAL_SURFACE('',#267,4.1);
#267=AXIS2_PLACEMENT_3D('',#268,#269,#270);
#268=CARTESIAN_POINT('',(-3.,-9.,-5.51091059616309E-16));
#269=DIRECTION('',(1.,-1.22464679914735E-16,0.));
#270=DIRECTION('',(1.22464679914735E-16,1.,6.12323399573677E-17));
#271=FACE_BOUND('',#272,.T.);
#272=EDGE_LOOP('',(#536,#537,#538,#539));
#273=CYLINDRICAL_SURFACE('',#274,1.);
#274=AXIS2_PLACEMENT_3D('',#275,#276,#277);
#275=CARTESIAN_POINT('',(-12.5,-17.,4.5));
#276=DIRECTION('',(1.,1.09314267040015E-15,-6.83214169000096E-17));
#277=DIRECTION('',(6.83214169000096E-17,7.46850561155988E-32,1.));
#278=FACE_BOUND('',#279,.T.);
#279=EDGE_LOOP('',(#540,#541,#542,#543));
#280=TOROIDAL_SURFACE('',#281,2.5,1.);
#281=AXIS2_PLACEMENT_3D('',#282,#283,#284);
#282=CARTESIAN_POINT('',(-3.5,-14.5,4.5));
#283=DIRECTION('',(0.,0.,1.));
#284=DIRECTION('',(-1.,-5.07530525542929E-16,0.));
#285=FACE_BOUND('',#286,.T.);
#286=EDGE_LOOP('',(#544,#545,#546,#547));
#287=CYLINDRICAL_SURFACE('',#288,1.);
#288=AXIS2_PLACEMENT_3D('',#289,#290,#291);
#289=CARTESIAN_POINT('',(-1.,-18.5,4.5));
#290=DIRECTION('',(1.22708860616465E-16,1.,0.));
#291=DIRECTION('',(0.,0.,1.));
#292=FACE_BOUND('',#293,.T.);
#293=EDGE_LOOP('',(#548,#549,#550,#551));
#294=TOROIDAL_SURFACE('',#295,2.5,1.);
#295=AXIS2_PLACEMENT_3D('',#296,#297,#298);
#296=CARTESIAN_POINT('',(-3.5,-3.5,4.5));
#297=DIRECTION('',(0.,0.,1.));
#298=DIRECTION('',(-2.53765262771464E-16,-1.,0.));
#299=FACE_BOUND('',#300,.T.);
#300=EDGE_LOOP('',(#552,#553,#554,#555));
#301=CYLINDRICAL_SURFACE('',#302,1.);
#302=AXIS2_PLACEMENT_3D('',#303,#304,#305);
#303=CARTESIAN_POINT('',(0.500000000000001,-1.,4.5));
#304=DIRECTION('',(-1.,1.19562479575017E-16,0.));
#305=DIRECTION('',(0.,7.96446106232752E-32,1.));
#306=FACE_OUTER_BOUND('',#307,.T.);
#307=EDGE_LOOP('',(#556));
#308=FACE_OUTER_BOUND('',#309,.T.);
#309=EDGE_LOOP('',(#557));
#310=CYLINDRICAL_SURFACE('',#311,4.);
#311=AXIS2_PLACEMENT_3D('',#312,#313,#314);
#312=CARTESIAN_POINT('',(-6.,-9.,10.));
#313=DIRECTION('',(1.22464679914735E-16,0.,-1.));
#314=DIRECTION('',(-1.,1.22464679914735E-16,-1.22464679914735E-16));
#315=FACE_BOUND('',#316,.T.);
#316=EDGE_LOOP('',(#558,#559,#560,#561,#562,#563,#564,#565));
#317=CYLINDRICAL_SURFACE('',#318,3.5);
#318=AXIS2_PLACEMENT_3D('',#319,#320,#321);
#319=CARTESIAN_POINT('',(-3.5,-3.5,-5.5));
#320=DIRECTION('',(0.,0.,1.));
#321=DIRECTION('',(1.,-2.49347311300467E-16,0.));
#322=FACE_BOUND('',#323,.T.);
#323=EDGE_LOOP('',(#566,#567,#568,#569));
#324=PLANE('',#325);
#325=AXIS2_PLACEMENT_3D('',#326,#327,#328);
#326=CARTESIAN_POINT('',(-2.,4.30855047220418,2.));
#327=DIRECTION('',(1.,-1.16790497787231E-16,1.11022302462516E-16));
#328=DIRECTION('',(-1.16790497787231E-16,-1.,0.));
#329=FACE_BOUND('',#330,.T.);
#330=EDGE_LOOP('',(#570,#571,#572,#573));
#331=CYLINDRICAL_SURFACE('',#332,1.82453164124796);
#332=AXIS2_PLACEMENT_3D('',#333,#334,#335);
#333=CARTESIAN_POINT('',(-0.175468358752041,4.30855047220418,2.));
#334=DIRECTION('',(-1.22464679914735E-16,0.,1.));
#335=DIRECTION('',(-3.61979522234409E-15,1.,-4.43297063261257E-31));
#336=FACE_BOUND('',#337,.T.);
#337=EDGE_LOOP('',(#574,#575,#576,#577));
#338=CYLINDRICAL_SURFACE('',#339,4.);
#339=AXIS2_PLACEMENT_3D('',#340,#341,#342);
#340=CARTESIAN_POINT('',(-0.175468358752048,10.1330821134521,2.));
#341=DIRECTION('',(1.22464679914735E-16,0.,-1.));
#342=DIRECTION('',(-5.79465615868526E-17,1.,-7.0964071168934E-33));
#343=FACE_BOUND('',#344,.T.);
#344=EDGE_LOOP('',(#578,#579,#580,#581));
#345=CYLINDRICAL_SURFACE('',#346,9.82453164125086);
#346=AXIS2_PLACEMENT_3D('',#347,#348,#349);
#347=CARTESIAN_POINT('',(-0.175468358749134,4.30855047220324,2.));
#348=DIRECTION('',(1.22464679914735E-16,0.,-1.));
#349=DIRECTION('',(-1.,3.20605311845428E-17,-1.22464679914735E-16));
#350=FACE_OUTER_BOUND('',#351,.T.);
#351=EDGE_LOOP('',(#582));
#352=FACE_OUTER_BOUND('',#353,.T.);
#353=EDGE_LOOP('',(#583));
#354=CYLINDRICAL_SURFACE('',#355,1.5);
#355=AXIS2_PLACEMENT_3D('',#356,#357,#358);
#356=CARTESIAN_POINT('',(-0.175468358752048,10.1330821134521,2.));
#357=DIRECTION('',(1.22464679914735E-16,0.,-1.));
#358=DIRECTION('',(1.,-1.22464679914735E-16,1.22464679914735E-16));
#359=FACE_BOUND('',#360,.T.);
#360=EDGE_LOOP('',(#584,#585,#586,#587));
#361=CYLINDRICAL_SURFACE('',#362,1.);
#362=AXIS2_PLACEMENT_3D('',#363,#364,#365);
#363=CARTESIAN_POINT('',(0.499999999999999,-1.,-4.5));
#364=DIRECTION('',(1.,-1.19562479575017E-16,0.));
#365=DIRECTION('',(0.,-1.32741017705459E-31,-1.));
#366=FACE_BOUND('',#367,.T.);
#367=EDGE_LOOP('',(#588,#589,#590,#591));
#368=TOROIDAL_SURFACE('',#369,2.5,1.);
#369=AXIS2_PLACEMENT_3D('',#370,#371,#372);
#370=CARTESIAN_POINT('',(-3.5,-14.5,-4.5));
#371=DIRECTION('',(0.,0.,1.));
#372=DIRECTION('',(-1.,-5.07530525542929E-16,0.));
#373=FACE_BOUND('',#374,.T.);
#374=EDGE_LOOP('',(#592,#593,#594,#595));
#375=CYLINDRICAL_SURFACE('',#376,1.);
#376=AXIS2_PLACEMENT_3D('',#377,#378,#379);
#377=CARTESIAN_POINT('',(-12.5,-17.,-4.5));
#378=DIRECTION('',(-1.,-1.09314267040015E-15,0.));
#379=DIRECTION('',(0.,0.,-1.));
#380=FACE_BOUND('',#381,.T.);
#381=EDGE_LOOP('',(#596,#597,#598,#599));
#382=TOROIDAL_SURFACE('',#383,2.5,1.);
#383=AXIS2_PLACEMENT_3D('',#384,#385,#386);
#384=CARTESIAN_POINT('',(-3.5,-3.5,-4.5));
#385=DIRECTION('',(0.,0.,1.));
#386=DIRECTION('',(-2.53765262771464E-16,-1.,0.));
#387=FACE_BOUND('',#388,.T.);
#388=EDGE_LOOP('',(#600,#601,#602,#603));
#389=CYLINDRICAL_SURFACE('',#390,1.);
#390=AXIS2_PLACEMENT_3D('',#391,#392,#393);
#391=CARTESIAN_POINT('',(-1.,-18.5,-4.5));
#392=DIRECTION('',(-1.22708860616465E-16,-1.,0.));
#393=DIRECTION('',(0.,0.,-1.));
#394=FACE_OUTER_BOUND('',#395,.T.);
#395=EDGE_LOOP('',(#604));
#396=FACE_OUTER_BOUND('',#397,.T.);
#397=EDGE_LOOP('',(#605));
#398=CYLINDRICAL_SURFACE('',#399,4.);
#399=AXIS2_PLACEMENT_3D('',#400,#401,#402);
#400=CARTESIAN_POINT('',(-6.,-9.,10.));
#401=DIRECTION('',(1.22464679914735E-16,0.,-1.));
#402=DIRECTION('',(-1.,1.22464679914735E-16,-1.22464679914735E-16));
#403=FACE_BOUND('',#404,.T.);
#404=EDGE_LOOP('',(#606,#607,#608,#609));
#405=CYLINDRICAL_SURFACE('',#406,3.5);
#406=AXIS2_PLACEMENT_3D('',#407,#408,#409);
#407=CARTESIAN_POINT('',(-3.5,-14.5,-5.5));
#408=DIRECTION('',(0.,0.,1.));
#409=DIRECTION('',(5.11948477013925E-16,-1.,0.));
#410=FACE_BOUND('',#411,.T.);
#411=EDGE_LOOP('',(#610,#611,#612,#613));
#412=FACE_BOUND('',#413,.T.);
#413=EDGE_LOOP('',(#614));
#414=PLANE('',#415);
#415=AXIS2_PLACEMENT_3D('',#416,#417,#418);
#416=CARTESIAN_POINT('',(-1.77573785876366E-15,-14.5,-5.5));
#417=DIRECTION('',(1.,-1.22464679914735E-16,0.));
#418=DIRECTION('',(1.22464679914735E-16,1.,0.));
#419=FACE_BOUND('',#420,.T.);
#420=EDGE_LOOP('',(#615));
#421=PLANE('',#422);
#422=AXIS2_PLACEMENT_3D('',#423,#424,#425);
#423=CARTESIAN_POINT('',(-1.22464679914735E-15,0.,10.));
#424=DIRECTION('',(1.22464679914735E-16,0.,-1.));
#425=DIRECTION('',(1.,-1.22464679914735E-16,1.22464679914735E-16));
#426=FACE_BOUND('',#427,.T.);
#427=EDGE_LOOP('',(#616));
#428=PLANE('',#429);
#429=AXIS2_PLACEMENT_3D('',#430,#431,#432);
#430=CARTESIAN_POINT('',(1.22464679914735E-15,0.,-10.));
#431=DIRECTION('',(1.22464679914735E-16,0.,-1.));
#432=DIRECTION('',(1.,-1.22464679914735E-16,1.22464679914735E-16));
#433=ORIENTED_EDGE('',*,*,#617,.F.);
#434=ORIENTED_EDGE('',*,*,#618,.F.);
#435=ORIENTED_EDGE('',*,*,#619,.T.);
#436=ORIENTED_EDGE('',*,*,#620,.T.);
#437=ORIENTED_EDGE('',*,*,#621,.T.);
#438=ORIENTED_EDGE('',*,*,#622,.T.);
#439=ORIENTED_EDGE('',*,*,#623,.T.);
#440=ORIENTED_EDGE('',*,*,#624,.T.);
#441=ORIENTED_EDGE('',*,*,#623,.F.);
#442=ORIENTED_EDGE('',*,*,#624,.F.);
#443=ORIENTED_EDGE('',*,*,#621,.F.);
#444=ORIENTED_EDGE('',*,*,#617,.T.);
#445=ORIENTED_EDGE('',*,*,#625,.T.);
#446=ORIENTED_EDGE('',*,*,#626,.F.);
#447=ORIENTED_EDGE('',*,*,#627,.F.);
#448=ORIENTED_EDGE('',*,*,#628,.F.);
#449=ORIENTED_EDGE('',*,*,#629,.F.);
#450=ORIENTED_EDGE('',*,*,#630,.F.);
#451=ORIENTED_EDGE('',*,*,#631,.F.);
#452=ORIENTED_EDGE('',*,*,#632,.F.);
#453=ORIENTED_EDGE('',*,*,#633,.F.);
#454=ORIENTED_EDGE('',*,*,#634,.T.);
#455=ORIENTED_EDGE('',*,*,#618,.T.);
#456=ORIENTED_EDGE('',*,*,#619,.F.);
#457=ORIENTED_EDGE('',*,*,#635,.F.);
#458=ORIENTED_EDGE('',*,*,#636,.T.);
#459=ORIENTED_EDGE('',*,*,#637,.T.);
#460=ORIENTED_EDGE('',*,*,#638,.F.);
#461=ORIENTED_EDGE('',*,*,#620,.F.);
#462=ORIENTED_EDGE('',*,*,#639,.T.);
#463=ORIENTED_EDGE('',*,*,#640,.T.);
#464=ORIENTED_EDGE('',*,*,#641,.T.);
#465=ORIENTED_EDGE('',*,*,#622,.F.);
#466=ORIENTED_EDGE('',*,*,#638,.T.);
#467=ORIENTED_EDGE('',*,*,#642,.T.);
#468=ORIENTED_EDGE('',*,*,#643,.F.);
#469=ORIENTED_EDGE('',*,*,#625,.F.);
#470=ORIENTED_EDGE('',*,*,#644,.T.);
#471=ORIENTED_EDGE('',*,*,#645,.T.);
#472=ORIENTED_EDGE('',*,*,#646,.T.);
#473=ORIENTED_EDGE('',*,*,#647,.T.);
#474=ORIENTED_EDGE('',*,*,#648,.T.);
#475=ORIENTED_EDGE('',*,*,#626,.T.);
#476=ORIENTED_EDGE('',*,*,#643,.T.);
#477=ORIENTED_EDGE('',*,*,#649,.T.);
#478=ORIENTED_EDGE('',*,*,#650,.F.);
#479=ORIENTED_EDGE('',*,*,#628,.T.);
#480=ORIENTED_EDGE('',*,*,#627,.T.);
#481=ORIENTED_EDGE('',*,*,#648,.F.);
#482=ORIENTED_EDGE('',*,*,#651,.F.);
#483=ORIENTED_EDGE('',*,*,#652,.F.);
#484=ORIENTED_EDGE('',*,*,#653,.F.);
#485=ORIENTED_EDGE('',*,*,#654,.F.);
#486=ORIENTED_EDGE('',*,*,#629,.T.);
#487=ORIENTED_EDGE('',*,*,#630,.T.);
#488=ORIENTED_EDGE('',*,*,#654,.T.);
#489=ORIENTED_EDGE('',*,*,#655,.T.);
#490=ORIENTED_EDGE('',*,*,#656,.F.);
#491=ORIENTED_EDGE('',*,*,#657,.F.);
#492=ORIENTED_EDGE('',*,*,#658,.F.);
#493=ORIENTED_EDGE('',*,*,#659,.F.);
#494=ORIENTED_EDGE('',*,*,#660,.F.);
#495=ORIENTED_EDGE('',*,*,#661,.T.);
#496=ORIENTED_EDGE('',*,*,#631,.T.);
#497=ORIENTED_EDGE('',*,*,#660,.T.);
#498=ORIENTED_EDGE('',*,*,#662,.T.);
#499=ORIENTED_EDGE('',*,*,#663,.F.);
#500=ORIENTED_EDGE('',*,*,#632,.T.);
#501=ORIENTED_EDGE('',*,*,#663,.T.);
#502=ORIENTED_EDGE('',*,*,#664,.T.);
#503=ORIENTED_EDGE('',*,*,#665,.T.);
#504=ORIENTED_EDGE('',*,*,#666,.T.);
#505=ORIENTED_EDGE('',*,*,#667,.T.);
#506=ORIENTED_EDGE('',*,*,#668,.T.);
#507=ORIENTED_EDGE('',*,*,#669,.T.);
#508=ORIENTED_EDGE('',*,*,#670,.T.);
#509=ORIENTED_EDGE('',*,*,#671,.T.);
#510=ORIENTED_EDGE('',*,*,#633,.T.);
#511=ORIENTED_EDGE('',*,*,#669,.F.);
#512=ORIENTED_EDGE('',*,*,#672,.F.);
#513=ORIENTED_EDGE('',*,*,#634,.F.);
#514=ORIENTED_EDGE('',*,*,#673,.F.);
#515=ORIENTED_EDGE('',*,*,#674,.T.);
#516=ORIENTED_EDGE('',*,*,#635,.T.);
#517=ORIENTED_EDGE('',*,*,#675,.F.);
#518=ORIENTED_EDGE('',*,*,#676,.F.);
#519=ORIENTED_EDGE('',*,*,#677,.F.);
#520=ORIENTED_EDGE('',*,*,#636,.F.);
#521=ORIENTED_EDGE('',*,*,#674,.F.);
#522=ORIENTED_EDGE('',*,*,#678,.F.);
#523=ORIENTED_EDGE('',*,*,#679,.F.);
#524=ORIENTED_EDGE('',*,*,#680,.F.);
#525=ORIENTED_EDGE('',*,*,#681,.F.);
#526=ORIENTED_EDGE('',*,*,#639,.F.);
#527=ORIENTED_EDGE('',*,*,#637,.F.);
#528=ORIENTED_EDGE('',*,*,#677,.T.);
#529=ORIENTED_EDGE('',*,*,#682,.T.);
#530=ORIENTED_EDGE('',*,*,#683,.F.);
#531=ORIENTED_EDGE('',*,*,#640,.F.);
#532=ORIENTED_EDGE('',*,*,#684,.T.);
#533=ORIENTED_EDGE('',*,*,#685,.T.);
#534=ORIENTED_EDGE('',*,*,#686,.F.);
#535=ORIENTED_EDGE('',*,*,#641,.F.);
#536=ORIENTED_EDGE('',*,*,#683,.T.);
#537=ORIENTED_EDGE('',*,*,#687,.T.);
#538=ORIENTED_EDGE('',*,*,#649,.F.);
#539=ORIENTED_EDGE('',*,*,#642,.F.);
#540=ORIENTED_EDGE('',*,*,#688,.T.);
#541=ORIENTED_EDGE('',*,*,#689,.T.);
#542=ORIENTED_EDGE('',*,*,#644,.F.);
#543=ORIENTED_EDGE('',*,*,#687,.F.);
#544=ORIENTED_EDGE('',*,*,#690,.T.);
#545=ORIENTED_EDGE('',*,*,#691,.T.);
#546=ORIENTED_EDGE('',*,*,#645,.F.);
#547=ORIENTED_EDGE('',*,*,#689,.F.);
#548=ORIENTED_EDGE('',*,*,#692,.T.);
#549=ORIENTED_EDGE('',*,*,#693,.T.);
#550=ORIENTED_EDGE('',*,*,#646,.F.);
#551=ORIENTED_EDGE('',*,*,#691,.F.);
#552=ORIENTED_EDGE('',*,*,#652,.T.);
#553=ORIENTED_EDGE('',*,*,#651,.T.);
#554=ORIENTED_EDGE('',*,*,#647,.F.);
#555=ORIENTED_EDGE('',*,*,#693,.F.);
#556=ORIENTED_EDGE('',*,*,#694,.T.);
#557=ORIENTED_EDGE('',*,*,#650,.T.);
#558=ORIENTED_EDGE('',*,*,#692,.F.);
#559=ORIENTED_EDGE('',*,*,#695,.F.);
#560=ORIENTED_EDGE('',*,*,#696,.T.);
#561=ORIENTED_EDGE('',*,*,#672,.T.);
#562=ORIENTED_EDGE('',*,*,#668,.F.);
#563=ORIENTED_EDGE('',*,*,#697,.F.);
#564=ORIENTED_EDGE('',*,*,#655,.F.);
#565=ORIENTED_EDGE('',*,*,#653,.T.);
#566=ORIENTED_EDGE('',*,*,#697,.T.);
#567=ORIENTED_EDGE('',*,*,#667,.F.);
#568=ORIENTED_EDGE('',*,*,#698,.F.);
#569=ORIENTED_EDGE('',*,*,#656,.T.);
#570=ORIENTED_EDGE('',*,*,#657,.T.);
#571=ORIENTED_EDGE('',*,*,#698,.T.);
#572=ORIENTED_EDGE('',*,*,#666,.F.);
#573=ORIENTED_EDGE('',*,*,#699,.F.);
#574=ORIENTED_EDGE('',*,*,#658,.T.);
#575=ORIENTED_EDGE('',*,*,#699,.T.);
#576=ORIENTED_EDGE('',*,*,#665,.F.);
#577=ORIENTED_EDGE('',*,*,#700,.F.);
#578=ORIENTED_EDGE('',*,*,#659,.T.);
#579=ORIENTED_EDGE('',*,*,#700,.T.);
#580=ORIENTED_EDGE('',*,*,#664,.F.);
#581=ORIENTED_EDGE('',*,*,#662,.F.);
#582=ORIENTED_EDGE('',*,*,#661,.F.);
#583=ORIENTED_EDGE('',*,*,#670,.F.);
#584=ORIENTED_EDGE('',*,*,#671,.F.);
#585=ORIENTED_EDGE('',*,*,#701,.F.);
#586=ORIENTED_EDGE('',*,*,#678,.T.);
#587=ORIENTED_EDGE('',*,*,#673,.T.);
#588=ORIENTED_EDGE('',*,*,#702,.F.);
#589=ORIENTED_EDGE('',*,*,#703,.F.);
#590=ORIENTED_EDGE('',*,*,#675,.T.);
#591=ORIENTED_EDGE('',*,*,#704,.T.);
#592=ORIENTED_EDGE('',*,*,#684,.F.);
#593=ORIENTED_EDGE('',*,*,#682,.F.);
#594=ORIENTED_EDGE('',*,*,#676,.T.);
#595=ORIENTED_EDGE('',*,*,#703,.T.);
#596=ORIENTED_EDGE('',*,*,#696,.F.);
#597=ORIENTED_EDGE('',*,*,#705,.F.);
#598=ORIENTED_EDGE('',*,*,#679,.T.);
#599=ORIENTED_EDGE('',*,*,#701,.T.);
#600=ORIENTED_EDGE('',*,*,#706,.F.);
#601=ORIENTED_EDGE('',*,*,#704,.F.);
#602=ORIENTED_EDGE('',*,*,#680,.T.);
#603=ORIENTED_EDGE('',*,*,#705,.T.);
#604=ORIENTED_EDGE('',*,*,#681,.T.);
#605=ORIENTED_EDGE('',*,*,#707,.F.);
#606=ORIENTED_EDGE('',*,*,#688,.F.);
#607=ORIENTED_EDGE('',*,*,#685,.F.);
#608=ORIENTED_EDGE('',*,*,#702,.T.);
#609=ORIENTED_EDGE('',*,*,#708,.T.);
#610=ORIENTED_EDGE('',*,*,#690,.F.);
#611=ORIENTED_EDGE('',*,*,#708,.F.);
#612=ORIENTED_EDGE('',*,*,#706,.T.);
#613=ORIENTED_EDGE('',*,*,#695,.T.);
#614=ORIENTED_EDGE('',*,*,#686,.T.);
#615=ORIENTED_EDGE('',*,*,#694,.F.);
#616=ORIENTED_EDGE('',*,*,#707,.T.);
#617=EDGE_CURVE('',#709,#710,#711,.T.);
#618=EDGE_CURVE('',#712,#709,#713,.T.);
#619=EDGE_CURVE('',#712,#714,#715,.T.);
#620=EDGE_CURVE('',#714,#710,#716,.T.);
#621=EDGE_CURVE('',#717,#717,#718,.F.);
#622=EDGE_CURVE('',#719,#719,#720,.T.);
#623=EDGE_CURVE('',#721,#721,#722,.F.);
#624=EDGE_CURVE('',#723,#723,#724,.T.);
#625=EDGE_CURVE('',#710,#725,#726,.T.);
#626=EDGE_CURVE('',#727,#725,#728,.T.);
#627=EDGE_CURVE('',#709,#727,#729,.T.);
#628=EDGE_CURVE('',#730,#709,#731,.T.);
#629=EDGE_CURVE('',#732,#730,#733,.T.);
#630=EDGE_CURVE('',#734,#732,#735,.F.);
#631=EDGE_CURVE('',#736,#734,#737,.T.);
#632=EDGE_CURVE('',#738,#736,#739,.T.);
#633=EDGE_CURVE('',#740,#738,#741,.T.);
#634=EDGE_CURVE('',#740,#712,#742,.T.);
#635=EDGE_CURVE('',#743,#712,#744,.F.);
#636=EDGE_CURVE('',#743,#745,#746,.T.);
#637=EDGE_CURVE('',#745,#714,#747,.F.);
#638=EDGE_CURVE('',#710,#748,#749,.T.);
#639=EDGE_CURVE('',#714,#750,#751,.T.);
#640=EDGE_CURVE('',#750,#748,#752,.T.);
#641=EDGE_CURVE('',#753,#753,#754,.T.);
#642=EDGE_CURVE('',#748,#755,#756,.T.);
#643=EDGE_CURVE('',#725,#755,#757,.T.);
#644=EDGE_CURVE('',#758,#759,#760,.T.);
#645=EDGE_CURVE('',#759,#761,#762,.T.);
#646=EDGE_CURVE('',#761,#763,#764,.T.);
#647=EDGE_CURVE('',#763,#765,#766,.T.);
#648=EDGE_CURVE('',#765,#727,#767,.T.);
#649=EDGE_CURVE('',#755,#758,#768,.T.);
#650=EDGE_CURVE('',#769,#769,#770,.F.);
#651=EDGE_CURVE('',#730,#765,#771,.T.);
#652=EDGE_CURVE('',#772,#730,#773,.T.);
#653=EDGE_CURVE('',#774,#772,#775,.T.);
#654=EDGE_CURVE('',#732,#774,#776,.F.);
#655=EDGE_CURVE('',#774,#777,#778,.F.);
#656=EDGE_CURVE('',#779,#777,#780,.T.);
#657=EDGE_CURVE('',#781,#779,#782,.T.);
#658=EDGE_CURVE('',#783,#781,#784,.T.);
#659=EDGE_CURVE('',#785,#783,#786,.T.);
#660=EDGE_CURVE('',#734,#785,#787,.T.);
#661=EDGE_CURVE('',#788,#788,#789,.T.);
#662=EDGE_CURVE('',#785,#790,#791,.T.);
#663=EDGE_CURVE('',#736,#790,#792,.T.);
#664=EDGE_CURVE('',#790,#793,#794,.T.);
#665=EDGE_CURVE('',#793,#795,#796,.T.);
#666=EDGE_CURVE('',#795,#797,#798,.T.);
#667=EDGE_CURVE('',#797,#799,#800,.T.);
#668=EDGE_CURVE('',#799,#801,#802,.T.);
#669=EDGE_CURVE('',#801,#738,#803,.T.);
#670=EDGE_CURVE('',#804,#804,#805,.F.);
#671=EDGE_CURVE('',#806,#740,#807,.T.);
#672=EDGE_CURVE('',#806,#801,#808,.T.);
#673=EDGE_CURVE('',#809,#740,#810,.F.);
#674=EDGE_CURVE('',#809,#743,#811,.T.);
#675=EDGE_CURVE('',#812,#813,#814,.T.);
#676=EDGE_CURVE('',#815,#812,#816,.T.);
#677=EDGE_CURVE('',#745,#815,#817,.T.);
#678=EDGE_CURVE('',#818,#809,#819,.T.);
#679=EDGE_CURVE('',#820,#818,#821,.T.);
#680=EDGE_CURVE('',#813,#820,#822,.T.);
#681=EDGE_CURVE('',#823,#823,#824,.T.);
#682=EDGE_CURVE('',#815,#750,#825,.F.);
#683=EDGE_CURVE('',#748,#826,#827,.T.);
#684=EDGE_CURVE('',#750,#828,#829,.T.);
#685=EDGE_CURVE('',#828,#826,#830,.T.);
#686=EDGE_CURVE('',#831,#831,#832,.F.);
#687=EDGE_CURVE('',#826,#758,#833,.T.);
#688=EDGE_CURVE('',#826,#834,#835,.T.);
#689=EDGE_CURVE('',#834,#759,#836,.T.);
#690=EDGE_CURVE('',#834,#837,#838,.T.);
#691=EDGE_CURVE('',#837,#761,#839,.T.);
#692=EDGE_CURVE('',#837,#772,#840,.T.);
#693=EDGE_CURVE('',#772,#763,#841,.T.);
#694=EDGE_CURVE('',#842,#842,#843,.T.);
#695=EDGE_CURVE('',#844,#837,#845,.T.);
#696=EDGE_CURVE('',#844,#806,#846,.T.);
#697=EDGE_CURVE('',#777,#799,#847,.F.);
#698=EDGE_CURVE('',#779,#797,#848,.T.);
#699=EDGE_CURVE('',#781,#795,#849,.T.);
#700=EDGE_CURVE('',#783,#793,#850,.T.);
#701=EDGE_CURVE('',#818,#806,#851,.F.);
#702=EDGE_CURVE('',#828,#852,#853,.T.);
#703=EDGE_CURVE('',#812,#828,#854,.F.);
#704=EDGE_CURVE('',#813,#852,#855,.F.);
#705=EDGE_CURVE('',#820,#844,#856,.F.);
#706=EDGE_CURVE('',#852,#844,#857,.T.);
#707=EDGE_CURVE('',#858,#858,#859,.T.);
#708=EDGE_CURVE('',#852,#834,#860,.T.);
#709=VERTEX_POINT('',#861);
#710=VERTEX_POINT('',#862);
#711=LINE('',#863,#864);
#712=VERTEX_POINT('',#866);
#713=LINE('',#867,#868);
#714=VERTEX_POINT('',#870);
#715=LINE('',#871,#872);
#716=LINE('',#874,#875);
#717=VERTEX_POINT('',#877);
#718=CIRCLE('',#878,4.1);
#719=VERTEX_POINT('',#882);
#720=CIRCLE('',#883,2.05);
#721=VERTEX_POINT('',#887);
#722=CIRCLE('',#888,2.05);
#723=VERTEX_POINT('',#892);
#724=CIRCLE('',#893,4.1);
#725=VERTEX_POINT('',#897);
#726=CIRCLE('',#898,1.);
#727=VERTEX_POINT('',#902);
#728=LINE('',#903,#904);
#729=CIRCLE('',#906,1.);
#730=VERTEX_POINT('',#910);
#731=CIRCLE('',#911,3.5);
#732=VERTEX_POINT('',#915);
#733=LINE('',#916,#917);
#734=VERTEX_POINT('',#919);
#735=CIRCLE('',#920,3.5);
#736=VERTEX_POINT('',#924);
#737=LINE('',#925,#926);
#738=VERTEX_POINT('',#928);
#739=CIRCLE('',#929,3.5);
#740=VERTEX_POINT('',#933);
#741=LINE('',#934,#935);
#742=CIRCLE('',#937,3.5);
#743=VERTEX_POINT('',#941);
#744=CIRCLE('',#942,1.);
#745=VERTEX_POINT('',#946);
#746=LINE('',#947,#948);
#747=CIRCLE('',#950,1.);
#748=VERTEX_POINT('',#954);
#749=CIRCLE('',#955,3.5);
#750=VERTEX_POINT('',#959);
#751=CIRCLE('',#960,3.5);
#752=LINE('',#964,#965);
#753=VERTEX_POINT('',#967);
#754=CIRCLE('',#968,4.1);
#755=VERTEX_POINT('',#972);
#756=CIRCLE('',#973,1.);
#757=CIRCLE('',#977,2.5);
#758=VERTEX_POINT('',#981);
#759=VERTEX_POINT('',#982);
#760=CIRCLE('',#983,2.5);
#761=VERTEX_POINT('',#987);
#762=LINE('',#988,#989);
#763=VERTEX_POINT('',#991);
#764=CIRCLE('',#992,2.5);
#765=VERTEX_POINT('',#996);
#766=LINE('',#997,#998);
#767=CIRCLE('',#1000,2.5);
#768=LINE('',#1004,#1005);
#769=VERTEX_POINT('',#1007);
#770=CIRCLE('',#1008,4.);
#771=CIRCLE('',#1012,1.);
#772=VERTEX_POINT('',#1016);
#773=LINE('',#1017,#1018);
#774=VERTEX_POINT('',#1020);
#775=LINE('',#1021,#1022);
#776=LINE('',#1024,#1025);
#777=VERTEX_POINT('',#1027);
#778=CIRCLE('',#1028,3.5);
#779=VERTEX_POINT('',#1032);
#780=LINE('',#1033,#1034);
#781=VERTEX_POINT('',#1036);
#782=CIRCLE('',#1037,1.82453164124796);
#783=VERTEX_POINT('',#1041);
#784=CIRCLE('',#1042,4.);
#785=VERTEX_POINT('',#1046);
#786=CIRCLE('',#1047,9.82453164125086);
#787=LINE('',#1051,#1052);
#788=VERTEX_POINT('',#1054);
#789=CIRCLE('',#1055,1.5);
#790=VERTEX_POINT('',#1059);
#791=LINE('',#1060,#1061);
#792=LINE('',#1063,#1064);
#793=VERTEX_POINT('',#1066);
#794=CIRCLE('',#1067,9.82453164125086);
#795=VERTEX_POINT('',#1071);
#796=CIRCLE('',#1072,4.);
#797=VERTEX_POINT('',#1076);
#798=CIRCLE('',#1077,1.82453164124796);
#799=VERTEX_POINT('',#1081);
#800=LINE('',#1082,#1083);
#801=VERTEX_POINT('',#1085);
#802=CIRCLE('',#1086,3.5);
#803=LINE('',#1090,#1091);
#804=VERTEX_POINT('',#1093);
#805=CIRCLE('',#1094,1.5);
#806=VERTEX_POINT('',#1098);
#807=LINE('',#1099,#1100);
#808=LINE('',#1102,#1103);
#809=VERTEX_POINT('',#1105);
#810=CIRCLE('',#1106,1.);
#811=CIRCLE('',#1110,2.5);
#812=VERTEX_POINT('',#1114);
#813=VERTEX_POINT('',#1115);
#814=CIRCLE('',#1116,2.5);
#815=VERTEX_POINT('',#1120);
#816=LINE('',#1121,#1122);
#817=CIRCLE('',#1124,2.5);
#818=VERTEX_POINT('',#1128);
#819=LINE('',#1129,#1130);
#820=VERTEX_POINT('',#1132);
#821=CIRCLE('',#1133,2.5);
#822=LINE('',#1137,#1138);
#823=VERTEX_POINT('',#1140);
#824=CIRCLE('',#1141,4.);
#825=CIRCLE('',#1145,1.);
#826=VERTEX_POINT('',#1149);
#827=LINE('',#1150,#1151);
#828=VERTEX_POINT('',#1153);
#829=LINE('',#1154,#1155);
#830=LINE('',#1157,#1158);
#831=VERTEX_POINT('',#1160);
#832=CIRCLE('',#1161,4.1);
#833=CIRCLE('',#1165,1.);
#834=VERTEX_POINT('',#1169);
#835=CIRCLE('',#1170,3.5);
#836=CIRCLE('',#1174,1.);
#837=VERTEX_POINT('',#1178);
#838=LINE('',#1179,#1180);
#839=CIRCLE('',#1182,1.);
#840=CIRCLE('',#1186,3.5);
#841=CIRCLE('',#1190,1.);
#842=VERTEX_POINT('',#1194);
#843=CIRCLE('',#1195,4.);
#844=VERTEX_POINT('',#1199);
#845=LINE('',#1200,#1201);
#846=CIRCLE('',#1203,3.5);
#847=LINE('',#1207,#1208);
#848=LINE('',#1210,#1211);
#849=LINE('',#1213,#1214);
#850=LINE('',#1216,#1217);
#851=CIRCLE('',#1219,1.);
#852=VERTEX_POINT('',#1223);
#853=CIRCLE('',#1224,3.5);
#854=CIRCLE('',#1228,1.);
#855=CIRCLE('',#1232,1.);
#856=CIRCLE('',#1236,1.);
#857=LINE('',#1240,#1241);
#858=VERTEX_POINT('',#1243);
#859=CIRCLE('',#1244,4.);
#860=LINE('',#1248,#1249);
#861=CARTESIAN_POINT('',(-12.,-3.5,4.5));
#862=CARTESIAN_POINT('',(-12.,-14.5,4.5));
#863=CARTESIAN_POINT('',(-12.,-3.5,4.5));
#864=VECTOR('',#865,1.);
#865=DIRECTION('',(-1.61486985400023E-16,-1.,0.));
#866=CARTESIAN_POINT('',(-12.,-3.5,-4.5));
#867=CARTESIAN_POINT('',(-12.,-3.5,-4.5));
#868=VECTOR('',#869,1.);
#869=DIRECTION('',(0.,0.,1.));
#870=CARTESIAN_POINT('',(-12.,-14.5,-4.5));
#871=CARTESIAN_POINT('',(-12.,-3.5,-4.5));
#872=VECTOR('',#873,1.);
#873=DIRECTION('',(-1.61486985400023E-16,-1.,0.));
#874=CARTESIAN_POINT('',(-12.,-14.5,-4.5));
#875=VECTOR('',#876,1.);
#876=DIRECTION('',(0.,0.,1.));
#877=CARTESIAN_POINT('',(-12.,-8.97992407242206,-4.1));
#878=AXIS2_PLACEMENT_3D('',#879,#880,#881);
#879=CARTESIAN_POINT('',(-12.,-8.97992407242206,0.));
#880=DIRECTION('',(-1.,1.61486985400023E-16,0.));
#881=DIRECTION('',(0.,0.,-1.));
#882=CARTESIAN_POINT('',(-3.,-6.95,-6.76617356528913E-16));
#883=AXIS2_PLACEMENT_3D('',#884,#885,#886);
#884=CARTESIAN_POINT('',(-3.,-9.,-5.51091059616309E-16));
#885=DIRECTION('',(1.,-1.22464679914735E-16,0.));
#886=DIRECTION('',(1.22464679914735E-16,1.,6.12323399573677E-17));
#887=CARTESIAN_POINT('',(-8.9,-6.95,-6.76617356528913E-16));
#888=AXIS2_PLACEMENT_3D('',#889,#890,#891);
#889=CARTESIAN_POINT('',(-8.9,-9.,-5.51091059616309E-16));
#890=DIRECTION('',(1.,-1.61486985400023E-16,0.));
#891=DIRECTION('',(1.61486985400023E-16,1.,6.12323399573677E-17));
#892=CARTESIAN_POINT('',(-8.9,-8.97992407242206,-4.1));
#893=AXIS2_PLACEMENT_3D('',#894,#895,#896);
#894=CARTESIAN_POINT('',(-8.9,-8.97992407242206,0.));
#895=DIRECTION('',(-1.,1.61486985400023E-16,0.));
#896=DIRECTION('',(0.,0.,-1.));
#897=CARTESIAN_POINT('',(-11.,-14.5,5.5));
#898=AXIS2_PLACEMENT_3D('',#899,#900,#901);
#899=CARTESIAN_POINT('',(-11.,-14.5,4.5));
#900=DIRECTION('',(9.34924652315921E-17,1.,2.91128489818175E-48));
#901=DIRECTION('',(-1.,9.34924652315921E-17,6.12323399573677E-17));
#902=CARTESIAN_POINT('',(-11.,-3.5,5.5));
#903=CARTESIAN_POINT('',(-11.,-3.5,5.5));
#904=VECTOR('',#905,1.);
#905=DIRECTION('',(-1.61486985400023E-16,-1.,0.));
#906=AXIS2_PLACEMENT_3D('',#907,#908,#909);
#907=CARTESIAN_POINT('',(-11.,-3.5,4.5));
#908=DIRECTION('',(1.22464679914735E-16,1.,0.));
#909=DIRECTION('',(-1.,1.22464679914735E-16,0.));
#910=CARTESIAN_POINT('',(-8.5,9.81882410825164E-16,4.5));
#911=AXIS2_PLACEMENT_3D('',#912,#913,#914);
#912=CARTESIAN_POINT('',(-8.5,-3.5,4.5));
#913=DIRECTION('',(0.,0.,1.));
#914=DIRECTION('',(0.,1.,0.));
#915=CARTESIAN_POINT('',(-8.5,9.64564099487688E-16,2.));
#916=CARTESIAN_POINT('',(-8.5,9.64564099487688E-16,2.));
#917=VECTOR('',#918,1.);
#918=DIRECTION('',(0.,0.,1.));
#919=CARTESIAN_POINT('',(-10.,-0.337722339831621,2.));
#920=AXIS2_PLACEMENT_3D('',#921,#922,#923);
#921=CARTESIAN_POINT('',(-8.5,-3.5,2.));
#922=DIRECTION('',(-1.22464679914735E-16,0.,1.));
#923=DIRECTION('',(0.,1.,0.));
#924=CARTESIAN_POINT('',(-10.,-0.337722339831621,-2.));
#925=CARTESIAN_POINT('',(-10.,-0.33772233983162,-2.));
#926=VECTOR('',#927,1.);
#927=DIRECTION('',(0.,0.,1.));
#928=CARTESIAN_POINT('',(-8.5,9.64564099487688E-16,-2.));
#929=AXIS2_PLACEMENT_3D('',#930,#931,#932);
#930=CARTESIAN_POINT('',(-8.5,-3.5,-2.));
#931=DIRECTION('',(-1.22464679914735E-16,0.,1.));
#932=DIRECTION('',(0.,1.,0.));
#933=CARTESIAN_POINT('',(-8.5,9.81882410825164E-16,-4.5));
#934=CARTESIAN_POINT('',(-8.5,9.64564099487688E-16,-4.5));
#935=VECTOR('',#936,1.);
#936=DIRECTION('',(0.,0.,1.));
#937=AXIS2_PLACEMENT_3D('',#938,#939,#940);
#938=CARTESIAN_POINT('',(-8.5,-3.5,-4.5));
#939=DIRECTION('',(0.,0.,1.));
#940=DIRECTION('',(0.,1.,0.));
#941=CARTESIAN_POINT('',(-11.,-3.5,-5.5));
#942=AXIS2_PLACEMENT_3D('',#943,#944,#945);
#943=CARTESIAN_POINT('',(-11.,-3.5,-4.5));
#944=DIRECTION('',(7.6571373978539E-16,-1.,0.));
#945=DIRECTION('',(-1.,-7.6571373978539E-16,0.));
#946=CARTESIAN_POINT('',(-11.,-14.5,-5.5));
#947=CARTESIAN_POINT('',(-11.,-3.5,-5.5));
#948=VECTOR('',#949,1.);
#949=DIRECTION('',(-1.61486985400023E-16,-1.,0.));
#950=AXIS2_PLACEMENT_3D('',#951,#952,#953);
#951=CARTESIAN_POINT('',(-11.,-14.5,-4.5));
#952=DIRECTION('',(-9.34924652315921E-17,-1.,2.91128489818175E-48));
#953=DIRECTION('',(-1.,9.34924652315921E-17,-6.12323399573677E-17));
#954=CARTESIAN_POINT('',(-8.5,-18.,4.5));
#955=AXIS2_PLACEMENT_3D('',#956,#957,#958);
#956=CARTESIAN_POINT('',(-8.5,-14.5,4.5));
#957=DIRECTION('',(0.,0.,1.));
#958=DIRECTION('',(-1.,0.,0.));
#959=CARTESIAN_POINT('',(-8.5,-18.,-4.5));
#960=AXIS2_PLACEMENT_3D('',#961,#962,#963);
#961=CARTESIAN_POINT('',(-8.5,-14.5,-4.5));
#962=DIRECTION('',(0.,0.,1.));
#963=DIRECTION('',(-1.,0.,0.));
#964=CARTESIAN_POINT('',(-8.5,-18.,-4.5));
#965=VECTOR('',#966,1.);
#966=DIRECTION('',(0.,0.,1.));
#967=CARTESIAN_POINT('',(-3.,-4.9,-8.02143653441516E-16));
#968=AXIS2_PLACEMENT_3D('',#969,#970,#971);
#969=CARTESIAN_POINT('',(-3.,-9.,-5.51091059616309E-16));
#970=DIRECTION('',(1.,-1.22464679914735E-16,0.));
#971=DIRECTION('',(1.22464679914735E-16,1.,6.12323399573677E-17));
#972=CARTESIAN_POINT('',(-8.5,-17.,5.5));
#973=AXIS2_PLACEMENT_3D('',#974,#975,#976);
#974=CARTESIAN_POINT('',(-8.5,-17.,4.5));
#975=DIRECTION('',(-1.,-3.85065845628193E-16,0.));
#976=DIRECTION('',(3.85065845628193E-16,-1.,0.));
#977=AXIS2_PLACEMENT_3D('',#978,#979,#980);
#978=CARTESIAN_POINT('',(-8.5,-14.5,5.5));
#979=DIRECTION('',(0.,0.,1.));
#980=DIRECTION('',(-1.,0.,0.));
#981=CARTESIAN_POINT('',(-3.5,-17.,5.5));
#982=CARTESIAN_POINT('',(-1.,-14.5,5.5));
#983=AXIS2_PLACEMENT_3D('',#984,#985,#986);
#984=CARTESIAN_POINT('',(-3.5,-14.5,5.5));
#985=DIRECTION('',(0.,0.,1.));
#986=DIRECTION('',(5.32907051820075E-16,-1.,0.));
#987=CARTESIAN_POINT('',(-1.,-3.5,5.5));
#988=CARTESIAN_POINT('',(-1.,-14.5,5.5));
#989=VECTOR('',#990,1.);
#990=DIRECTION('',(1.21115239050017E-16,1.,0.));
#991=CARTESIAN_POINT('',(-3.5,-0.999999999999999,5.5));
#992=AXIS2_PLACEMENT_3D('',#993,#994,#995);
#993=CARTESIAN_POINT('',(-3.5,-3.5,5.5));
#994=DIRECTION('',(0.,0.,1.));
#995=DIRECTION('',(1.,-1.77635683940025E-16,0.));
#996=CARTESIAN_POINT('',(-8.5,-0.999999999999999,5.5));
#997=CARTESIAN_POINT('',(-3.5,-1.,5.5));
#998=VECTOR('',#999,1.);
#999=DIRECTION('',(-1.,1.33226762955019E-16,0.));
#1000=AXIS2_PLACEMENT_3D('',#1001,#1002,#1003);
#1001=CARTESIAN_POINT('',(-8.5,-3.5,5.5));
#1002=DIRECTION('',(0.,0.,1.));
#1003=DIRECTION('',(0.,1.,0.));
#1004=CARTESIAN_POINT('',(-8.5,-17.,5.5));
#1005=VECTOR('',#1006,1.);
#1006=DIRECTION('',(1.,7.105427357601E-16,-1.77635683940025E-16));
#1007=CARTESIAN_POINT('',(-10.,-9.,5.5));
#1008=AXIS2_PLACEMENT_3D('',#1009,#1010,#1011);
#1009=CARTESIAN_POINT('',(-6.,-9.,5.5));
#1010=DIRECTION('',(0.,0.,-1.));
#1011=DIRECTION('',(-1.,1.22464679914735E-16,0.));
#1012=AXIS2_PLACEMENT_3D('',#1013,#1014,#1015);
#1013=CARTESIAN_POINT('',(-8.5,-0.999999999999999,4.5));
#1014=DIRECTION('',(1.,-1.19562479575017E-16,9.52250713090551E-48));
#1015=DIRECTION('',(1.19562479575017E-16,1.,6.12323399573677E-17));
#1016=CARTESIAN_POINT('',(-3.5,5.51245804775456E-16,4.5));
#1017=CARTESIAN_POINT('',(-3.5,4.36357794775818E-16,4.5));
#1018=VECTOR('',#1019,1.);
#1019=DIRECTION('',(-1.,1.27845721434877E-16,0.));
#1020=CARTESIAN_POINT('',(-3.5,4.36357794775818E-16,2.));
#1021=CARTESIAN_POINT('',(-3.5,4.36357794775818E-16,2.));
#1022=VECTOR('',#1023,1.);
#1023=DIRECTION('',(0.,0.,1.));
#1024=CARTESIAN_POINT('',(-3.5,4.28626379701574E-16,2.));
#1025=VECTOR('',#1026,1.);
#1026=DIRECTION('',(-1.,1.22464679914735E-16,-1.33226762955019E-16));
#1027=CARTESIAN_POINT('',(-2.,-0.33772233983162,2.));
#1028=AXIS2_PLACEMENT_3D('',#1029,#1030,#1031);
#1029=CARTESIAN_POINT('',(-3.5,-3.5,2.));
#1030=DIRECTION('',(-1.22464679914735E-16,0.,1.));
#1031=DIRECTION('',(0.428571428571429,0.903507902905251,5.24848628206009E-17));
#1032=CARTESIAN_POINT('',(-2.,4.30855047220418,2.));
#1033=CARTESIAN_POINT('',(-2.,4.30855047220418,2.));
#1034=VECTOR('',#1035,1.);
#1035=DIRECTION('',(-9.55796673625546E-17,-1.,0.));
#1036=CARTESIAN_POINT('',(-0.175468358752048,6.13308211345213,2.));
#1037=AXIS2_PLACEMENT_3D('',#1038,#1039,#1040);
#1038=CARTESIAN_POINT('',(-0.175468358752041,4.30855047220418,2.));
#1039=DIRECTION('',(-1.22464679914735E-16,0.,1.));
#1040=DIRECTION('',(-3.62056039324228E-15,1.,-4.43390769670384E-31));
#1041=CARTESIAN_POINT('',(-0.175468358752049,14.1330821134531,2.));
#1042=AXIS2_PLACEMENT_3D('',#1043,#1044,#1045);
#1043=CARTESIAN_POINT('',(-0.175468358752048,10.1330821134521,2.));
#1044=DIRECTION('',(1.22464679914735E-16,0.,-1.));
#1045=DIRECTION('',(-5.55111512312578E-17,1.,-6.79815536723445E-33));
#1046=CARTESIAN_POINT('',(-10.,4.30855047220324,2.));
#1047=AXIS2_PLACEMENT_3D('',#1048,#1049,#1050);
#1048=CARTESIAN_POINT('',(-0.175468358749134,4.30855047220324,2.));
#1049=DIRECTION('',(1.22464679914735E-16,0.,-1.));
#1050=DIRECTION('',(-1.,0.,-1.22464679914735E-16));
#1051=CARTESIAN_POINT('',(-10.,-0.337722339831621,2.));
#1052=VECTOR('',#1053,1.);
#1053=DIRECTION('',(0.,1.,0.));
#1054=CARTESIAN_POINT('',(1.32453164124795,10.1330821134521,2.));
#1055=AXIS2_PLACEMENT_3D('',#1056,#1057,#1058);
#1056=CARTESIAN_POINT('',(-0.175468358752048,10.1330821134521,2.));
#1057=DIRECTION('',(1.22464679914735E-16,0.,-1.));
#1058=DIRECTION('',(1.,-1.22464679914735E-16,1.22464679914735E-16));
#1059=CARTESIAN_POINT('',(-10.,4.30855047220324,-2.));
#1060=CARTESIAN_POINT('',(-10.,4.30855047220324,2.));
#1061=VECTOR('',#1062,1.);
#1062=DIRECTION('',(0.,0.,-1.));
#1063=CARTESIAN_POINT('',(-10.,-0.337722339831621,-2.));
#1064=VECTOR('',#1065,1.);
#1065=DIRECTION('',(0.,1.,0.));
#1066=CARTESIAN_POINT('',(-0.175468358752048,14.1330821134531,-2.));
#1067=AXIS2_PLACEMENT_3D('',#1068,#1069,#1070);
#1068=CARTESIAN_POINT('',(-0.175468358749134,4.30855047220324,-2.));
#1069=DIRECTION('',(1.22464679914735E-16,0.,-1.));
#1070=DIRECTION('',(-1.,0.,-1.22464679914735E-16));
#1071=CARTESIAN_POINT('',(-0.175468358752048,6.13308211345213,-2.));
#1072=AXIS2_PLACEMENT_3D('',#1073,#1074,#1075);
#1073=CARTESIAN_POINT('',(-0.175468358752047,10.1330821134521,-2.));
#1074=DIRECTION('',(1.22464679914735E-16,0.,-1.));
#1075=DIRECTION('',(-5.55111512312578E-17,1.,-6.79815536723445E-33));
#1076=CARTESIAN_POINT('',(-2.,4.30855047220418,-2.));
#1077=AXIS2_PLACEMENT_3D('',#1078,#1079,#1080);
#1078=CARTESIAN_POINT('',(-0.175468358752041,4.30855047220418,-2.));
#1079=DIRECTION('',(-1.22464679914735E-16,0.,1.));
#1080=DIRECTION('',(-3.62056039324228E-15,1.,-4.43390769670384E-31));
#1081=CARTESIAN_POINT('',(-2.,-0.33772233983162,-2.));
#1082=CARTESIAN_POINT('',(-2.,4.30855047220418,-2.));
#1083=VECTOR('',#1084,1.);
#1084=DIRECTION('',(-9.55796673625546E-17,-1.,0.));
#1085=CARTESIAN_POINT('',(-3.5,4.36357794775818E-16,-2.));
#1086=AXIS2_PLACEMENT_3D('',#1087,#1088,#1089);
#1087=CARTESIAN_POINT('',(-3.5,-3.5,-2.));
#1088=DIRECTION('',(-1.22464679914735E-16,0.,1.));
#1089=DIRECTION('',(0.428571428571429,0.903507902905251,5.2484862820601E-17));
#1090=CARTESIAN_POINT('',(-3.5,4.28626379701574E-16,-2.));
#1091=VECTOR('',#1092,1.);
#1092=DIRECTION('',(-1.,1.22464679914735E-16,-1.77635683940025E-16));
#1093=CARTESIAN_POINT('',(1.32453164124795,10.1330821134521,-2.));
#1094=AXIS2_PLACEMENT_3D('',#1095,#1096,#1097);
#1095=CARTESIAN_POINT('',(-0.175468358752047,10.1330821134521,-2.));
#1096=DIRECTION('',(1.22464679914735E-16,0.,-1.));
#1097=DIRECTION('',(1.,-1.22464679914735E-16,1.22464679914735E-16));
#1098=CARTESIAN_POINT('',(-3.5,5.51245804775456E-16,-4.5));
#1099=CARTESIAN_POINT('',(-3.5,4.36357794775818E-16,-4.5));
#1100=VECTOR('',#1101,1.);
#1101=DIRECTION('',(-1.,1.27845721434877E-16,0.));
#1102=CARTESIAN_POINT('',(-3.5,4.36357794775818E-16,-4.5));
#1103=VECTOR('',#1104,1.);
#1104=DIRECTION('',(0.,0.,1.));
#1105=CARTESIAN_POINT('',(-8.5,-0.999999999999999,-5.5));
#1106=AXIS2_PLACEMENT_3D('',#1107,#1108,#1109);
#1107=CARTESIAN_POINT('',(-8.5,-0.999999999999999,-4.5));
#1108=DIRECTION('',(-1.,1.19562479575017E-16,-1.58708452181759E-47));
#1109=DIRECTION('',(1.19562479575017E-16,1.,-6.12323399573677E-17));
#1110=AXIS2_PLACEMENT_3D('',#1111,#1112,#1113);
#1111=CARTESIAN_POINT('',(-8.5,-3.5,-5.5));
#1112=DIRECTION('',(0.,0.,1.));
#1113=DIRECTION('',(0.,1.,0.));
#1114=CARTESIAN_POINT('',(-3.5,-17.,-5.5));
#1115=CARTESIAN_POINT('',(-1.,-14.5,-5.5));
#1116=AXIS2_PLACEMENT_3D('',#1117,#1118,#1119);
#1117=CARTESIAN_POINT('',(-3.5,-14.5,-5.5));
#1118=DIRECTION('',(0.,0.,1.));
#1119=DIRECTION('',(5.32907051820075E-16,-1.,0.));
#1120=CARTESIAN_POINT('',(-8.5,-17.,-5.5));
#1121=CARTESIAN_POINT('',(-8.5,-17.,-5.5));
#1122=VECTOR('',#1123,1.);
#1123=DIRECTION('',(1.,7.105427357601E-16,0.));
#1124=AXIS2_PLACEMENT_3D('',#1125,#1126,#1127);
#1125=CARTESIAN_POINT('',(-8.5,-14.5,-5.5));
#1126=DIRECTION('',(0.,0.,1.));
#1127=DIRECTION('',(-1.,0.,0.));
#1128=CARTESIAN_POINT('',(-3.5,-0.999999999999999,-5.5));
#1129=CARTESIAN_POINT('',(-3.5,-1.,-5.5));
#1130=VECTOR('',#1131,1.);
#1131=DIRECTION('',(-1.,1.33226762955019E-16,0.));
#1132=CARTESIAN_POINT('',(-1.,-3.5,-5.5));
#1133=AXIS2_PLACEMENT_3D('',#1134,#1135,#1136);
#1134=CARTESIAN_POINT('',(-3.5,-3.5,-5.5));
#1135=DIRECTION('',(0.,0.,1.));
#1136=DIRECTION('',(1.,-1.77635683940025E-16,0.));
#1137=CARTESIAN_POINT('',(-1.,-14.5,-5.5));
#1138=VECTOR('',#1139,1.);
#1139=DIRECTION('',(1.21115239050017E-16,1.,0.));
#1140=CARTESIAN_POINT('',(-10.,-9.,-5.5));
#1141=AXIS2_PLACEMENT_3D('',#1142,#1143,#1144);
#1142=CARTESIAN_POINT('',(-6.,-9.,-5.5));
#1143=DIRECTION('',(0.,0.,-1.));
#1144=DIRECTION('',(-1.,1.22464679914735E-16,0.));
#1145=AXIS2_PLACEMENT_3D('',#1146,#1147,#1148);
#1146=CARTESIAN_POINT('',(-8.5,-17.,-4.5));
#1147=DIRECTION('',(1.,3.85065845628193E-16,0.));
#1148=DIRECTION('',(3.85065845628193E-16,-1.,0.));
#1149=CARTESIAN_POINT('',(-3.5,-18.,4.5));
#1150=CARTESIAN_POINT('',(-8.5,-18.,4.5));
#1151=VECTOR('',#1152,1.);
#1152=DIRECTION('',(1.,7.105427357601E-16,-1.77635683940025E-16));
#1153=CARTESIAN_POINT('',(-3.5,-18.,-4.5));
#1154=CARTESIAN_POINT('',(-8.5,-18.,-4.5));
#1155=VECTOR('',#1156,1.);
#1156=DIRECTION('',(1.,7.105427357601E-16,0.));
#1157=CARTESIAN_POINT('',(-3.5,-18.,-4.5));
#1158=VECTOR('',#1159,1.);
#1159=DIRECTION('',(0.,0.,1.));
#1160=CARTESIAN_POINT('',(-6.00076931582203E-16,-4.9,-8.02143653441516E-16));
#1161=AXIS2_PLACEMENT_3D('',#1162,#1163,#1164);
#1162=CARTESIAN_POINT('',(-1.10218211923262E-15,-9.,-8.88178419700125E-16));
#1163=DIRECTION('',(1.,-1.22464679914735E-16,0.));
#1164=DIRECTION('',(1.22464679914735E-16,1.,6.12323399573677E-17));
#1165=AXIS2_PLACEMENT_3D('',#1166,#1167,#1168);
#1166=CARTESIAN_POINT('',(-3.5,-17.,4.5));
#1167=DIRECTION('',(-1.,-1.09314267040015E-15,6.83214169000096E-17));
#1168=DIRECTION('',(1.09314267040015E-15,-1.,6.12323399573677E-17));
#1169=CARTESIAN_POINT('',(-6.65979069615947E-16,-14.5,4.5));
#1170=AXIS2_PLACEMENT_3D('',#1171,#1172,#1173);
#1171=CARTESIAN_POINT('',(-3.5,-14.5,4.5));
#1172=DIRECTION('',(0.,0.,1.));
#1173=DIRECTION('',(7.61295788314393E-16,-1.,0.));
#1174=AXIS2_PLACEMENT_3D('',#1175,#1176,#1177);
#1175=CARTESIAN_POINT('',(-0.999999999999999,-14.5,4.5));
#1176=DIRECTION('',(1.27324426532832E-15,-1.,0.));
#1177=DIRECTION('',(1.,1.27324426532832E-15,-1.77635683940025E-15));
#1178=CARTESIAN_POINT('',(-3.29201199850425E-16,-3.5,4.5));
#1179=CARTESIAN_POINT('',(-1.77604734908196E-15,-14.5,4.5));
#1180=VECTOR('',#1181,1.);
#1181=DIRECTION('',(1.21789959482376E-16,1.,0.));
#1182=AXIS2_PLACEMENT_3D('',#1183,#1184,#1185);
#1183=CARTESIAN_POINT('',(-1.,-3.5,4.5));
#1184=DIRECTION('',(-1.22708860616465E-16,-1.,0.));
#1185=DIRECTION('',(1.,-1.22708860616465E-16,6.12323399573677E-17));
#1186=AXIS2_PLACEMENT_3D('',#1187,#1188,#1189);
#1187=CARTESIAN_POINT('',(-3.5,-3.5,4.5));
#1188=DIRECTION('',(0.,0.,1.));
#1189=DIRECTION('',(1.,-5.07530525542929E-16,0.));
#1190=AXIS2_PLACEMENT_3D('',#1191,#1192,#1193);
#1191=CARTESIAN_POINT('',(-3.5,-0.999999999999999,4.5));
#1192=DIRECTION('',(1.,-3.762299426862E-16,0.));
#1193=DIRECTION('',(3.762299426862E-16,1.,0.));
#1194=CARTESIAN_POINT('',(-10.,-9.,10.));
#1195=AXIS2_PLACEMENT_3D('',#1196,#1197,#1198);
#1196=CARTESIAN_POINT('',(-6.,-9.,10.));
#1197=DIRECTION('',(1.22464679914735E-16,0.,-1.));
#1198=DIRECTION('',(1.,-1.22464679914735E-16,1.22464679914735E-16));
#1199=CARTESIAN_POINT('',(-3.29201199850425E-16,-3.5,-4.5));
#1200=CARTESIAN_POINT('',(-4.36357794775818E-16,-3.5,-4.5));
#1201=VECTOR('',#1202,1.);
#1202=DIRECTION('',(0.,0.,1.));
#1203=AXIS2_PLACEMENT_3D('',#1204,#1205,#1206);
#1204=CARTESIAN_POINT('',(-3.5,-3.5,-4.5));
#1205=DIRECTION('',(0.,0.,1.));
#1206=DIRECTION('',(1.,-5.07530525542929E-16,0.));
#1207=CARTESIAN_POINT('',(-2.,-0.337722339831621,-2.));
#1208=VECTOR('',#1209,1.);
#1209=DIRECTION('',(-5.55111512312578E-17,1.11022302462516E-16,1.));
#1210=CARTESIAN_POINT('',(-2.,4.30855047220418,2.));
#1211=VECTOR('',#1212,1.);
#1212=DIRECTION('',(1.11022302462516E-16,0.,-1.));
#1213=CARTESIAN_POINT('',(-0.175468358752047,6.13308211345212,2.));
#1214=VECTOR('',#1215,1.);
#1215=DIRECTION('',(1.2490009027033E-16,0.,-1.));
#1216=CARTESIAN_POINT('',(-0.175468358752049,14.1330821134541,2.));
#1217=VECTOR('',#1218,1.);
#1218=DIRECTION('',(1.2490009027033E-16,0.,-1.));
#1219=AXIS2_PLACEMENT_3D('',#1220,#1221,#1222);
#1220=CARTESIAN_POINT('',(-3.5,-0.999999999999999,-4.5));
#1221=DIRECTION('',(-1.,3.762299426862E-16,0.));
#1222=DIRECTION('',(3.762299426862E-16,1.,0.));
#1223=CARTESIAN_POINT('',(-6.65979069615947E-16,-14.5,-4.5));
#1224=AXIS2_PLACEMENT_3D('',#1225,#1226,#1227);
#1225=CARTESIAN_POINT('',(-3.5,-14.5,-4.5));
#1226=DIRECTION('',(0.,0.,1.));
#1227=DIRECTION('',(7.61295788314393E-16,-1.,0.));
#1228=AXIS2_PLACEMENT_3D('',#1229,#1230,#1231);
#1229=CARTESIAN_POINT('',(-3.5,-17.,-4.5));
#1230=DIRECTION('',(1.,1.09314267040015E-15,0.));
#1231=DIRECTION('',(1.09314267040015E-15,-1.,-6.12323399573677E-17));
#1232=AXIS2_PLACEMENT_3D('',#1233,#1234,#1235);
#1233=CARTESIAN_POINT('',(-0.999999999999999,-14.5,-4.5));
#1234=DIRECTION('',(-8.29155055478256E-16,1.,0.));
#1235=DIRECTION('',(1.,8.29155055478256E-16,0.));
#1236=AXIS2_PLACEMENT_3D('',#1237,#1238,#1239);
#1237=CARTESIAN_POINT('',(-1.,-3.5,-4.5));
#1238=DIRECTION('',(1.22708860616465E-16,1.,0.));
#1239=DIRECTION('',(1.,-1.22708860616465E-16,-6.12323399573677E-17));
#1240=CARTESIAN_POINT('',(-1.77604734908196E-15,-14.5,-4.5));
#1241=VECTOR('',#1242,1.);
#1242=DIRECTION('',(1.21789959482376E-16,1.,0.));
#1243=CARTESIAN_POINT('',(-10.,-9.,-10.));
#1244=AXIS2_PLACEMENT_3D('',#1245,#1246,#1247);
#1245=CARTESIAN_POINT('',(-6.,-9.,-10.));
#1246=DIRECTION('',(1.22464679914735E-16,0.,-1.));
#1247=DIRECTION('',(1.,-1.22464679914735E-16,1.22464679914735E-16));
#1248=CARTESIAN_POINT('',(-8.87868929381831E-16,-14.5,-4.5));
#1249=VECTOR('',#1250,1.);
#1250=DIRECTION('',(0.,-1.97372982155583E-16,1.));
ENDSEC;
END-ISO-10303-21;
