ISO-10303-21;
HEADER;
FILE_DESCRIPTION(('STEP AP203'),
    '1');
FILE_NAME('Центр колеса',
    '',
    ('UNSPECIFIED'),
    ('UNSPECIFIED'),
    'C3D Converter',
    'C3D Toolkit',
    '');
FILE_SCHEMA(('CONFIG_CONTROL_DESIGN'));
ENDSEC;

DATA;
#1=PRODUCT_DEFINITION('','UNSPECIFIED',#28,#31);
#2=SHAPE_DEFINITION_REPRESENTATION(#26,#3);
#3=SHAPE_REPRESENTATION('NONE',(#4),#8);
#4=AXIS2_PLACEMENT_3D('',#5,#6,#7);
#5=CARTESIAN_POINT('',(0.,0.,0.));
#6=DIRECTION('',(0.,0.,1.));
#7=DIRECTION('',(1.,0.,0.));
#8=(GEOMETRIC_REPRESENTATION_CONTEXT(3)GLOBAL_UNCERTAINTY_ASSIGNED_CONTEXT((#10))
GLOBAL_UNIT_ASSIGNED_CONTEXT((#9,#11,#12))REPRESENTATION_CONTEXT('NONE','NONE'));
#9=(LENGTH_UNIT()NAMED_UNIT(*)SI_UNIT(.MILLI.,.METRE.));
#10=UNCERTAINTY_MEASURE_WITH_UNIT(LENGTH_MEASURE(1.E-5),#9,'NONE','NONE');
#11=(NAMED_UNIT(*)PLANE_ANGLE_UNIT()SI_UNIT($,.RADIAN.));
#12=(NAMED_UNIT(*)SI_UNIT($,.STERADIAN.)SOLID_ANGLE_UNIT());
#13=MANIFOLD_SOLID_BREP('',#14);
#14=CLOSED_SHELL('',(#53,#54,#55,#56,#57,#58,#59,#60,#61,#62,#63,#64,#65,#66,#67,
#68,#69,#70,#71,#72,#73,#74,#75,#76,#77));
#15=COLOUR_RGB('',1.,0.,0.);
#16=FILL_AREA_STYLE_COLOUR('',#15);
#17=FILL_AREA_STYLE($,(#16));
#18=SURFACE_STYLE_FILL_AREA(#17);
#19=SURFACE_SIDE_STYLE('',(#18));
#20=SURFACE_STYLE_USAGE(.BOTH.,#19);
#21=PRESENTATION_STYLE_ASSIGNMENT((#20));
#22=MECHANICAL_DESIGN_GEOMETRIC_PRESENTATION_REPRESENTATION('NONE',(#23),#8);
#23=STYLED_ITEM('',(#21),#13);
#24=ADVANCED_BREP_SHAPE_REPRESENTATION('NONE',(#13),#8);
#25=SHAPE_REPRESENTATION_RELATIONSHIP('','',#3,#24);
#26=PRODUCT_DEFINITION_SHAPE('NONE','NONE',#1);
#27=MECHANICAL_CONTEXT('NONE',#32,'mechanical');
#28=PRODUCT_DEFINITION_FORMATION_WITH_SPECIFIED_SOURCE('ANY','UNSPECIFIED',#29,.NOT_KNOWN.);
#29=PRODUCT('-01','\X2\0426043D04420440\X0\','NONE',(#27));
#30=PRODUCT_RELATED_PRODUCT_CATEGORY('detail','',(#29));
#31=DESIGN_CONTEXT('detailed design',#32,'design');
#32=APPLICATION_CONTEXT('configuration controlled 3d designs of mechanical parts and assemblies');
#33=APPLICATION_PROTOCOL_DEFINITION('international standard','config_control_design',
1994,#32);
#34=CC_DESIGN_DATE_AND_TIME_ASSIGNMENT(#35,#39,(#1));
#35=DATE_AND_TIME(#36,#37);
#36=CALENDAR_DATE(0,1,1);
#37=LOCAL_TIME(0,0,0.,#38);
#38=COORDINATED_UNIVERSAL_TIME_OFFSET(0,0,.AHEAD.);
#39=DATE_TIME_ROLE('creation_date');
#40=CC_DESIGN_APPROVAL(#41,(#1));
#41=APPROVAL(#42,'UNSPECIFIED');
#42=APPROVAL_STATUS('not_yet_approved');
#43=APPROVAL_DATE_TIME(#44,#41);
#44=DATE_AND_TIME(#45,#46);
#45=CALENDAR_DATE(0,1,1);
#46=LOCAL_TIME(0,0,0.,#47);
#47=COORDINATED_UNIVERSAL_TIME_OFFSET(0,0,.AHEAD.);
#48=PERSON('UNSPECIFIED','User','UNSPECIFIED',('UNSPECIFIED'),('UNSPECIFIED'),('UNSPECIFIED'));
#49=ORGANIZATION('UNSPECIFIED','UNSPECIFIED','UNSPECIFIED');
#50=PERSON_AND_ORGANIZATION(#48,#49);
#51=PERSON_AND_ORGANIZATION_ROLE('creator');
#52=CC_DESIGN_PERSON_AND_ORGANIZATION_ASSIGNMENT(#50,#51,(#28,#1));
#53=ADVANCED_FACE('',(#78,#80),#82,.T.);
#54=ADVANCED_FACE('',(#87,#89),#91,.T.);
#55=ADVANCED_FACE('',(#96),#98,.F.);
#56=ADVANCED_FACE('',(#103),#105,.F.);
#57=ADVANCED_FACE('',(#110),#112,.F.);
#58=ADVANCED_FACE('',(#117),#119,.F.);
#59=ADVANCED_FACE('',(#124),#126,.F.);
#60=ADVANCED_FACE('',(#131),#133,.F.);
#61=ADVANCED_FACE('',(#138,#140),#142,.F.);
#62=ADVANCED_FACE('',(#147,#149),#151,.F.);
#63=ADVANCED_FACE('',(#156,#158),#160,.T.);
#64=ADVANCED_FACE('',(#165,#167),#169,.T.);
#65=ADVANCED_FACE('',(#174,#176),#178,.F.);
#66=ADVANCED_FACE('',(#183,#185),#187,.T.);
#67=ADVANCED_FACE('',(#192,#194),#196,.T.);
#68=ADVANCED_FACE('',(#201,#203),#205,.T.);
#69=ADVANCED_FACE('',(#210,#212),#214,.T.);
#70=ADVANCED_FACE('',(#219,#221),#223,.T.);
#71=ADVANCED_FACE('',(#228,#230),#232,.T.);
#72=ADVANCED_FACE('',(#237,#239),#241,.T.);
#73=ADVANCED_FACE('',(#246,#248),#250,.T.);
#74=ADVANCED_FACE('',(#255,#257),#259,.T.);
#75=ADVANCED_FACE('',(#264,#266),#268,.T.);
#76=ADVANCED_FACE('',(#273,#275),#277,.T.);
#77=ADVANCED_FACE('',(#282,#284),#286,.T.);
#78=FACE_BOUND('',#79,.T.);
#79=EDGE_LOOP('',(#291,#292,#293,#294,#295,#296));
#80=FACE_BOUND('',#81,.T.);
#81=EDGE_LOOP('',(#297));
#82=PLANE('',#83);
#83=AXIS2_PLACEMENT_3D('',#84,#85,#86);
#84=CARTESIAN_POINT('',(6.,0.,0.));
#85=DIRECTION('',(-1.,0.,0.));
#86=DIRECTION('',(0.,-6.12323399573677E-17,1.));
#87=FACE_BOUND('',#88,.T.);
#88=EDGE_LOOP('',(#298));
#89=FACE_BOUND('',#90,.T.);
#90=EDGE_LOOP('',(#299,#300,#301,#302,#303,#304));
#91=PLANE('',#92);
#92=AXIS2_PLACEMENT_3D('',#93,#94,#95);
#93=CARTESIAN_POINT('',(-1.17780405907997E-15,0.,0.));
#94=DIRECTION('',(-1.,0.,0.));
#95=DIRECTION('',(0.,-6.12323399573677E-17,1.));
#96=FACE_BOUND('',#97,.T.);
#97=EDGE_LOOP('',(#305,#306,#307,#308));
#98=PLANE('',#99);
#99=AXIS2_PLACEMENT_3D('',#100,#101,#102);
#100=CARTESIAN_POINT('',(6.,3.47743945676576E-15,7.04367328411344));
#101=DIRECTION('',(0.,0.5,0.866025403784438));
#102=DIRECTION('',(0.,0.866025403784438,-0.5));
#103=FACE_BOUND('',#104,.T.);
#104=EDGE_LOOP('',(#309,#310,#311,#312));
#105=PLANE('',#106);
#106=AXIS2_PLACEMENT_3D('',#107,#108,#109);
#107=CARTESIAN_POINT('',(6.,-6.1,3.52183664205673));
#108=DIRECTION('',(6.40987562127855E-17,-0.499999999999999,0.866025403784439));
#109=DIRECTION('',(0.,0.866025403784439,0.499999999999999));
#110=FACE_BOUND('',#111,.T.);
#111=EDGE_LOOP('',(#313,#314,#315,#316));
#112=PLANE('',#113);
#113=AXIS2_PLACEMENT_3D('',#114,#115,#116);
#114=CARTESIAN_POINT('',(6.,-6.1,-3.52183664205671));
#115=DIRECTION('',(0.,-1.,0.));
#116=DIRECTION('',(0.,0.,1.));
#117=FACE_BOUND('',#118,.T.);
#118=EDGE_LOOP('',(#317,#318,#319,#320));
#119=PLANE('',#120);
#120=AXIS2_PLACEMENT_3D('',#121,#122,#123);
#121=CARTESIAN_POINT('',(6.,-1.15909937624772E-14,-7.04367328411344));
#122=DIRECTION('',(0.,-0.500000000000003,-0.866025403784437));
#123=DIRECTION('',(0.,-0.866025403784437,0.500000000000003));
#124=FACE_BOUND('',#125,.T.);
#125=EDGE_LOOP('',(#321,#322,#323,#324));
#126=PLANE('',#127);
#127=AXIS2_PLACEMENT_3D('',#128,#129,#130);
#128=CARTESIAN_POINT('',(6.,6.1,-3.52183664205672));
#129=DIRECTION('',(-6.40987562127854E-17,0.500000000000001,-0.866025403784439));
#130=DIRECTION('',(0.,-0.866025403784439,-0.500000000000001));
#131=FACE_BOUND('',#132,.T.);
#132=EDGE_LOOP('',(#325,#326,#327,#328));
#133=PLANE('',#134);
#134=AXIS2_PLACEMENT_3D('',#135,#136,#137);
#135=CARTESIAN_POINT('',(6.,6.1,3.52183664205672));
#136=DIRECTION('',(-9.33297245865826E-33,1.,-1.26095913861217E-16));
#137=DIRECTION('',(0.,-1.26095913861217E-16,-1.));
#138=FACE_OUTER_BOUND('',#139,.T.);
#139=EDGE_LOOP('',(#329));
#140=FACE_OUTER_BOUND('',#141,.T.);
#141=EDGE_LOOP('',(#330));
#142=CYLINDRICAL_SURFACE('',#143,1.65);
#143=AXIS2_PLACEMENT_3D('',#144,#145,#146);
#144=CARTESIAN_POINT('',(6.,0.,0.));
#145=DIRECTION('',(-1.,0.,0.));
#146=DIRECTION('',(0.,-6.12323399573677E-17,1.));
#147=FACE_OUTER_BOUND('',#148,.T.);
#148=EDGE_LOOP('',(#331));
#149=FACE_OUTER_BOUND('',#150,.T.);
#150=EDGE_LOOP('',(#332));
#151=CYLINDRICAL_SURFACE('',#152,20.3571710479329);
#152=AXIS2_PLACEMENT_3D('',#153,#154,#155);
#153=CARTESIAN_POINT('',(-9.71337294014431,0.,0.));
#154=DIRECTION('',(-1.,0.,0.));
#155=DIRECTION('',(0.,-6.12323399573677E-17,1.));
#156=FACE_BOUND('',#157,.T.);
#157=EDGE_LOOP('',(#333));
#158=FACE_BOUND('',#159,.T.);
#159=EDGE_LOOP('',(#334));
#160=PLANE('',#161);
#161=AXIS2_PLACEMENT_3D('',#162,#163,#164);
#162=CARTESIAN_POINT('',(29.0723459513916,0.,0.));
#163=DIRECTION('',(1.,0.,0.));
#164=DIRECTION('',(0.,-6.12323399573677E-17,1.));
#165=FACE_OUTER_BOUND('',#166,.T.);
#166=EDGE_LOOP('',(#335));
#167=FACE_OUTER_BOUND('',#168,.T.);
#168=EDGE_LOOP('',(#336));
#169=TOROIDAL_SURFACE('',#170,23.6333333333333,18.8666666666667);
#170=AXIS2_PLACEMENT_3D('',#171,#172,#173);
#171=CARTESIAN_POINT('',(8.86666666666666,0.,0.));
#172=DIRECTION('',(-1.,0.,0.));
#173=DIRECTION('',(0.,-6.12323399573677E-17,1.));
#174=FACE_OUTER_BOUND('',#175,.T.);
#175=EDGE_LOOP('',(#337));
#176=FACE_OUTER_BOUND('',#177,.T.);
#177=EDGE_LOOP('',(#338));
#178=CYLINDRICAL_SURFACE('',#179,12.5619188572857);
#179=AXIS2_PLACEMENT_3D('',#180,#181,#182);
#180=CARTESIAN_POINT('',(29.0723459513916,0.,0.));
#181=DIRECTION('',(-1.,0.,0.));
#182=DIRECTION('',(0.,-6.12323399573677E-17,1.));
#183=FACE_OUTER_BOUND('',#184,.T.);
#184=EDGE_LOOP('',(#339));
#185=FACE_OUTER_BOUND('',#186,.T.);
#186=EDGE_LOOP('',(#340));
#187=CYLINDRICAL_SURFACE('',#188,21.9952521906331);
#188=AXIS2_PLACEMENT_3D('',#189,#190,#191);
#189=CARTESIAN_POINT('',(-1.92875302221076,0.,0.));
#190=DIRECTION('',(-1.,0.,0.));
#191=DIRECTION('',(0.,-6.12323399573677E-17,1.));
#192=FACE_BOUND('',#193,.T.);
#193=EDGE_LOOP('',(#341));
#194=FACE_BOUND('',#195,.T.);
#195=EDGE_LOOP('',(#342));
#196=PLANE('',#197);
#197=AXIS2_PLACEMENT_3D('',#198,#199,#200);
#198=CARTESIAN_POINT('',(44.0723459513916,0.,0.));
#199=DIRECTION('',(1.,0.,0.));
#200=DIRECTION('',(0.,-6.12323399573677E-17,1.));
#201=FACE_BOUND('',#202,.T.);
#202=EDGE_LOOP('',(#343));
#203=FACE_BOUND('',#204,.T.);
#204=EDGE_LOOP('',(#344));
#205=PLANE('',#206);
#206=AXIS2_PLACEMENT_3D('',#207,#208,#209);
#207=CARTESIAN_POINT('',(-1.92875302221076,0.,0.));
#208=DIRECTION('',(-1.,0.,0.));
#209=DIRECTION('',(0.,-6.12323399573677E-17,1.));
#210=FACE_OUTER_BOUND('',#211,.T.);
#211=EDGE_LOOP('',(#345));
#212=FACE_OUTER_BOUND('',#213,.T.);
#213=EDGE_LOOP('',(#346));
#214=CYLINDRICAL_SURFACE('',#215,14.1999999999859);
#215=AXIS2_PLACEMENT_3D('',#216,#217,#218);
#216=CARTESIAN_POINT('',(44.0723459513916,0.,0.));
#217=DIRECTION('',(-1.,0.,0.));
#218=DIRECTION('',(0.,-6.12323399573677E-17,1.));
#219=FACE_OUTER_BOUND('',#220,.T.);
#220=EDGE_LOOP('',(#347));
#221=FACE_OUTER_BOUND('',#222,.T.);
#222=EDGE_LOOP('',(#348));
#223=CYLINDRICAL_SURFACE('',#224,25.4952521906331);
#224=AXIS2_PLACEMENT_3D('',#225,#226,#227);
#225=CARTESIAN_POINT('',(1.07124697778925,0.,0.));
#226=DIRECTION('',(-1.,0.,0.));
#227=DIRECTION('',(0.,-6.12323399573677E-17,1.));
#228=FACE_OUTER_BOUND('',#229,.T.);
#229=EDGE_LOOP('',(#349));
#230=FACE_OUTER_BOUND('',#231,.T.);
#231=EDGE_LOOP('',(#350));
#232=CONICAL_SURFACE('',#233,18.0976260953095,1.00047919380316);
#233=AXIS2_PLACEMENT_3D('',#234,#235,#236);
#234=CARTESIAN_POINT('',(26.5723459513916,0.,0.));
#235=DIRECTION('',(-1.,0.,0.));
#236=DIRECTION('',(0.,-6.12323399573677E-17,1.));
#237=FACE_BOUND('',#238,.T.);
#238=EDGE_LOOP('',(#351));
#239=FACE_BOUND('',#240,.T.);
#240=EDGE_LOOP('',(#352));
#241=PLANE('',#242);
#242=AXIS2_PLACEMENT_3D('',#243,#244,#245);
#243=CARTESIAN_POINT('',(1.07124697778925,0.,0.));
#244=DIRECTION('',(1.,0.,0.));
#245=DIRECTION('',(0.,-6.12323399573677E-17,1.));
#246=FACE_OUTER_BOUND('',#247,.T.);
#247=EDGE_LOOP('',(#353));
#248=FACE_OUTER_BOUND('',#249,.T.);
#249=EDGE_LOOP('',(#354));
#250=CYLINDRICAL_SURFACE('',#251,21.9952521906331);
#251=AXIS2_PLACEMENT_3D('',#252,#253,#254);
#252=CARTESIAN_POINT('',(24.0723459513916,0.,0.));
#253=DIRECTION('',(-1.,0.,0.));
#254=DIRECTION('',(0.,-6.12323399573677E-17,1.));
#255=FACE_OUTER_BOUND('',#256,.T.);
#256=EDGE_LOOP('',(#355));
#257=FACE_OUTER_BOUND('',#258,.T.);
#258=EDGE_LOOP('',(#356));
#259=CYLINDRICAL_SURFACE('',#260,21.9952521906331);
#260=AXIS2_PLACEMENT_3D('',#261,#262,#263);
#261=CARTESIAN_POINT('',(14.0712469777892,0.,0.));
#262=DIRECTION('',(-1.,0.,0.));
#263=DIRECTION('',(0.,-6.12323399573677E-17,1.));
#264=FACE_BOUND('',#265,.T.);
#265=EDGE_LOOP('',(#357));
#266=FACE_BOUND('',#267,.T.);
#267=EDGE_LOOP('',(#358));
#268=PLANE('',#269);
#269=AXIS2_PLACEMENT_3D('',#270,#271,#272);
#270=CARTESIAN_POINT('',(17.0712469777892,0.,0.));
#271=DIRECTION('',(1.,0.,0.));
#272=DIRECTION('',(0.,-6.12323399573677E-17,1.));
#273=FACE_BOUND('',#274,.T.);
#274=EDGE_LOOP('',(#359));
#275=FACE_BOUND('',#276,.T.);
#276=EDGE_LOOP('',(#360));
#277=PLANE('',#278);
#278=AXIS2_PLACEMENT_3D('',#279,#280,#281);
#279=CARTESIAN_POINT('',(14.0712469777892,0.,0.));
#280=DIRECTION('',(-1.,0.,0.));
#281=DIRECTION('',(0.,-6.12323399573677E-17,1.));
#282=FACE_OUTER_BOUND('',#283,.T.);
#283=EDGE_LOOP('',(#361));
#284=FACE_OUTER_BOUND('',#285,.T.);
#285=EDGE_LOOP('',(#362));
#286=CYLINDRICAL_SURFACE('',#287,25.4952521906331);
#287=AXIS2_PLACEMENT_3D('',#288,#289,#290);
#288=CARTESIAN_POINT('',(17.0712469777892,0.,0.));
#289=DIRECTION('',(-1.,0.,0.));
#290=DIRECTION('',(0.,-6.12323399573677E-17,1.));
#291=ORIENTED_EDGE('',*,*,#363,.T.);
#292=ORIENTED_EDGE('',*,*,#364,.T.);
#293=ORIENTED_EDGE('',*,*,#365,.T.);
#294=ORIENTED_EDGE('',*,*,#366,.T.);
#295=ORIENTED_EDGE('',*,*,#367,.T.);
#296=ORIENTED_EDGE('',*,*,#368,.T.);
#297=ORIENTED_EDGE('',*,*,#369,.F.);
#298=ORIENTED_EDGE('',*,*,#370,.T.);
#299=ORIENTED_EDGE('',*,*,#371,.T.);
#300=ORIENTED_EDGE('',*,*,#372,.T.);
#301=ORIENTED_EDGE('',*,*,#373,.T.);
#302=ORIENTED_EDGE('',*,*,#374,.T.);
#303=ORIENTED_EDGE('',*,*,#375,.T.);
#304=ORIENTED_EDGE('',*,*,#376,.T.);
#305=ORIENTED_EDGE('',*,*,#372,.F.);
#306=ORIENTED_EDGE('',*,*,#377,.F.);
#307=ORIENTED_EDGE('',*,*,#368,.F.);
#308=ORIENTED_EDGE('',*,*,#378,.T.);
#309=ORIENTED_EDGE('',*,*,#373,.F.);
#310=ORIENTED_EDGE('',*,*,#378,.F.);
#311=ORIENTED_EDGE('',*,*,#367,.F.);
#312=ORIENTED_EDGE('',*,*,#379,.T.);
#313=ORIENTED_EDGE('',*,*,#374,.F.);
#314=ORIENTED_EDGE('',*,*,#379,.F.);
#315=ORIENTED_EDGE('',*,*,#366,.F.);
#316=ORIENTED_EDGE('',*,*,#380,.T.);
#317=ORIENTED_EDGE('',*,*,#375,.F.);
#318=ORIENTED_EDGE('',*,*,#380,.F.);
#319=ORIENTED_EDGE('',*,*,#365,.F.);
#320=ORIENTED_EDGE('',*,*,#381,.T.);
#321=ORIENTED_EDGE('',*,*,#376,.F.);
#322=ORIENTED_EDGE('',*,*,#381,.F.);
#323=ORIENTED_EDGE('',*,*,#364,.F.);
#324=ORIENTED_EDGE('',*,*,#382,.T.);
#325=ORIENTED_EDGE('',*,*,#371,.F.);
#326=ORIENTED_EDGE('',*,*,#382,.F.);
#327=ORIENTED_EDGE('',*,*,#363,.F.);
#328=ORIENTED_EDGE('',*,*,#377,.T.);
#329=ORIENTED_EDGE('',*,*,#383,.F.);
#330=ORIENTED_EDGE('',*,*,#369,.T.);
#331=ORIENTED_EDGE('',*,*,#370,.F.);
#332=ORIENTED_EDGE('',*,*,#384,.T.);
#333=ORIENTED_EDGE('',*,*,#385,.F.);
#334=ORIENTED_EDGE('',*,*,#383,.T.);
#335=ORIENTED_EDGE('',*,*,#384,.F.);
#336=ORIENTED_EDGE('',*,*,#386,.T.);
#337=ORIENTED_EDGE('',*,*,#387,.F.);
#338=ORIENTED_EDGE('',*,*,#385,.T.);
#339=ORIENTED_EDGE('',*,*,#388,.T.);
#340=ORIENTED_EDGE('',*,*,#386,.F.);
#341=ORIENTED_EDGE('',*,*,#389,.F.);
#342=ORIENTED_EDGE('',*,*,#387,.T.);
#343=ORIENTED_EDGE('',*,*,#390,.T.);
#344=ORIENTED_EDGE('',*,*,#388,.F.);
#345=ORIENTED_EDGE('',*,*,#389,.T.);
#346=ORIENTED_EDGE('',*,*,#391,.F.);
#347=ORIENTED_EDGE('',*,*,#392,.T.);
#348=ORIENTED_EDGE('',*,*,#390,.F.);
#349=ORIENTED_EDGE('',*,*,#391,.T.);
#350=ORIENTED_EDGE('',*,*,#393,.F.);
#351=ORIENTED_EDGE('',*,*,#392,.F.);
#352=ORIENTED_EDGE('',*,*,#394,.T.);
#353=ORIENTED_EDGE('',*,*,#393,.T.);
#354=ORIENTED_EDGE('',*,*,#395,.F.);
#355=ORIENTED_EDGE('',*,*,#396,.T.);
#356=ORIENTED_EDGE('',*,*,#394,.F.);
#357=ORIENTED_EDGE('',*,*,#397,.F.);
#358=ORIENTED_EDGE('',*,*,#395,.T.);
#359=ORIENTED_EDGE('',*,*,#398,.T.);
#360=ORIENTED_EDGE('',*,*,#396,.F.);
#361=ORIENTED_EDGE('',*,*,#397,.T.);
#362=ORIENTED_EDGE('',*,*,#398,.F.);
#363=EDGE_CURVE('',#399,#400,#401,.T.);
#364=EDGE_CURVE('',#400,#402,#403,.T.);
#365=EDGE_CURVE('',#402,#404,#405,.T.);
#366=EDGE_CURVE('',#404,#406,#407,.T.);
#367=EDGE_CURVE('',#406,#408,#409,.T.);
#368=EDGE_CURVE('',#408,#399,#410,.T.);
#369=EDGE_CURVE('',#411,#411,#412,.T.);
#370=EDGE_CURVE('',#413,#413,#414,.T.);
#371=EDGE_CURVE('',#415,#416,#417,.F.);
#372=EDGE_CURVE('',#416,#418,#419,.F.);
#373=EDGE_CURVE('',#418,#420,#421,.F.);
#374=EDGE_CURVE('',#420,#422,#423,.F.);
#375=EDGE_CURVE('',#422,#424,#425,.F.);
#376=EDGE_CURVE('',#424,#415,#426,.F.);
#377=EDGE_CURVE('',#399,#416,#427,.T.);
#378=EDGE_CURVE('',#408,#418,#428,.T.);
#379=EDGE_CURVE('',#406,#420,#429,.T.);
#380=EDGE_CURVE('',#404,#422,#430,.T.);
#381=EDGE_CURVE('',#402,#424,#431,.T.);
#382=EDGE_CURVE('',#400,#415,#432,.T.);
#383=EDGE_CURVE('',#433,#433,#434,.T.);
#384=EDGE_CURVE('',#435,#435,#436,.T.);
#385=EDGE_CURVE('',#437,#437,#438,.T.);
#386=EDGE_CURVE('',#439,#439,#440,.T.);
#387=EDGE_CURVE('',#441,#441,#442,.T.);
#388=EDGE_CURVE('',#443,#443,#444,.T.);
#389=EDGE_CURVE('',#445,#445,#446,.T.);
#390=EDGE_CURVE('',#447,#447,#448,.T.);
#391=EDGE_CURVE('',#449,#449,#450,.T.);
#392=EDGE_CURVE('',#451,#451,#452,.T.);
#393=EDGE_CURVE('',#453,#453,#454,.T.);
#394=EDGE_CURVE('',#455,#455,#456,.T.);
#395=EDGE_CURVE('',#457,#457,#458,.T.);
#396=EDGE_CURVE('',#459,#459,#460,.T.);
#397=EDGE_CURVE('',#461,#461,#462,.T.);
#398=EDGE_CURVE('',#463,#463,#464,.T.);
#399=VERTEX_POINT('',#465);
#400=VERTEX_POINT('',#466);
#401=LINE('',#467,#468);
#402=VERTEX_POINT('',#470);
#403=LINE('',#471,#472);
#404=VERTEX_POINT('',#474);
#405=LINE('',#475,#476);
#406=VERTEX_POINT('',#478);
#407=LINE('',#479,#480);
#408=VERTEX_POINT('',#482);
#409=LINE('',#483,#484);
#410=LINE('',#486,#487);
#411=VERTEX_POINT('',#489);
#412=CIRCLE('',#490,1.65);
#413=VERTEX_POINT('',#494);
#414=CIRCLE('',#495,20.3571710479329);
#415=VERTEX_POINT('',#499);
#416=VERTEX_POINT('',#500);
#417=LINE('',#501,#502);
#418=VERTEX_POINT('',#504);
#419=LINE('',#505,#506);
#420=VERTEX_POINT('',#508);
#421=LINE('',#509,#510);
#422=VERTEX_POINT('',#512);
#423=LINE('',#513,#514);
#424=VERTEX_POINT('',#516);
#425=LINE('',#517,#518);
#426=LINE('',#520,#521);
#427=LINE('',#523,#524);
#428=LINE('',#526,#527);
#429=LINE('',#529,#530);
#430=LINE('',#532,#533);
#431=LINE('',#535,#536);
#432=LINE('',#538,#539);
#433=VERTEX_POINT('',#541);
#434=CIRCLE('',#542,1.65);
#435=VERTEX_POINT('',#546);
#436=CIRCLE('',#547,20.3571710479329);
#437=VERTEX_POINT('',#551);
#438=CIRCLE('',#552,12.5619188572857);
#439=VERTEX_POINT('',#556);
#440=CIRCLE('',#557,21.9952521906331);
#441=VERTEX_POINT('',#561);
#442=CIRCLE('',#562,12.5619188572857);
#443=VERTEX_POINT('',#566);
#444=CIRCLE('',#567,21.9952521906331);
#445=VERTEX_POINT('',#571);
#446=CIRCLE('',#572,14.1999999999859);
#447=VERTEX_POINT('',#576);
#448=CIRCLE('',#577,25.4952521906331);
#449=VERTEX_POINT('',#581);
#450=CIRCLE('',#582,14.1999999999859);
#451=VERTEX_POINT('',#586);
#452=CIRCLE('',#587,25.4952521906331);
#453=VERTEX_POINT('',#591);
#454=CIRCLE('',#592,21.9952521906331);
#455=VERTEX_POINT('',#596);
#456=CIRCLE('',#597,21.9952521906331);
#457=VERTEX_POINT('',#601);
#458=CIRCLE('',#602,21.9952521906331);
#459=VERTEX_POINT('',#606);
#460=CIRCLE('',#607,21.9952521906331);
#461=VERTEX_POINT('',#611);
#462=CIRCLE('',#612,25.4952521906331);
#463=VERTEX_POINT('',#616);
#464=CIRCLE('',#617,25.4952521906331);
#465=CARTESIAN_POINT('',(6.,6.1,3.52183664205672));
#466=CARTESIAN_POINT('',(6.,6.1,-3.52183664205672));
#467=CARTESIAN_POINT('',(6.,6.1,3.52183664205672));
#468=VECTOR('',#469,1.);
#469=DIRECTION('',(0.,-1.26095913861217E-16,-1.));
#470=CARTESIAN_POINT('',(6.,-1.15909937624772E-14,-7.04367328411344));
#471=CARTESIAN_POINT('',(6.,6.1,-3.52183664205672));
#472=VECTOR('',#473,1.);
#473=DIRECTION('',(0.,-0.866025403784439,-0.5));
#474=CARTESIAN_POINT('',(6.,-6.1,-3.52183664205671));
#475=CARTESIAN_POINT('',(6.,-1.15909937624772E-14,-7.04367328411344));
#476=VECTOR('',#477,1.);
#477=DIRECTION('',(0.,-0.866025403784437,0.500000000000003));
#478=CARTESIAN_POINT('',(6.,-6.1,3.52183664205673));
#479=CARTESIAN_POINT('',(6.,-6.1,-3.52183664205671));
#480=VECTOR('',#481,1.);
#481=DIRECTION('',(0.,0.,1.));
#482=CARTESIAN_POINT('',(6.,3.47743945676576E-15,7.04367328411344));
#483=CARTESIAN_POINT('',(6.,-6.1,3.52183664205673));
#484=VECTOR('',#485,1.);
#485=DIRECTION('',(0.,0.866025403784439,0.499999999999999));
#486=CARTESIAN_POINT('',(6.,3.47743945676576E-15,7.04367328411344));
#487=VECTOR('',#488,1.);
#488=DIRECTION('',(0.,0.866025403784438,-0.5));
#489=CARTESIAN_POINT('',(6.,-1.01033360929657E-16,1.65));
#490=AXIS2_PLACEMENT_3D('',#491,#492,#493);
#491=CARTESIAN_POINT('',(6.,0.,0.));
#492=DIRECTION('',(-1.,0.,0.));
#493=DIRECTION('',(0.,-6.12323399573677E-17,1.));
#494=CARTESIAN_POINT('',(-2.49418206009658E-15,-1.24651721817731E-15,20.3571710479329));
#495=AXIS2_PLACEMENT_3D('',#496,#497,#498);
#496=CARTESIAN_POINT('',(-1.17780405907997E-15,0.,0.));
#497=DIRECTION('',(-1.,0.,0.));
#498=DIRECTION('',(0.,-6.12323399573677E-17,1.));
#499=CARTESIAN_POINT('',(-2.15650298540731E-16,6.1,-3.52183664205672));
#500=CARTESIAN_POINT('',(2.15650298540731E-16,6.1,3.52183664205672));
#501=CARTESIAN_POINT('',(-1.03299123939005E-15,6.1,3.52183664205672));
#502=VECTOR('',#503,1.);
#503=DIRECTION('',(0.,0.,-1.));
#504=CARTESIAN_POINT('',(4.31300597081462E-16,3.47743945676576E-15,7.04367328411344));
#505=CARTESIAN_POINT('',(-1.03299123939005E-15,3.47743945676576E-15,7.04367328411344));
#506=VECTOR('',#507,1.);
#507=DIRECTION('',(0.,0.866025403784439,-0.5));
#508=CARTESIAN_POINT('',(2.15650298540732E-16,-6.1,3.52183664205673));
#509=CARTESIAN_POINT('',(-1.03299123939005E-15,-6.1,3.52183664205673));
#510=VECTOR('',#511,1.);
#511=DIRECTION('',(0.,0.866025403784439,0.499999999999999));
#512=CARTESIAN_POINT('',(-2.1565029854073E-16,-6.1,-3.52183664205671));
#513=CARTESIAN_POINT('',(-1.03299123939005E-15,-6.1,-3.52183664205671));
#514=VECTOR('',#515,1.);
#515=DIRECTION('',(0.,0.,1.));
#516=CARTESIAN_POINT('',(-4.31300597081463E-16,-1.15909937624772E-14,-7.04367328411344));
#517=CARTESIAN_POINT('',(-1.03299123939005E-15,-1.15909937624772E-14,-7.04367328411344));
#518=VECTOR('',#519,1.);
#519=DIRECTION('',(0.,-0.866025403784437,0.500000000000003));
#520=CARTESIAN_POINT('',(-1.03299123939005E-15,6.1,-3.52183664205672));
#521=VECTOR('',#522,1.);
#522=DIRECTION('',(0.,-0.866025403784438,-0.500000000000001));
#523=CARTESIAN_POINT('',(6.,6.1,3.52183664205672));
#524=VECTOR('',#525,1.);
#525=DIRECTION('',(-1.,0.,7.40148683083438E-17));
#526=CARTESIAN_POINT('',(6.,3.07098735793307E-15,7.04367328411344));
#527=VECTOR('',#528,1.);
#528=DIRECTION('',(-1.,-1.60246890531963E-17,0.));
#529=CARTESIAN_POINT('',(6.,-6.1,3.52183664205673));
#530=VECTOR('',#531,1.);
#531=DIRECTION('',(-1.,0.,0.));
#532=CARTESIAN_POINT('',(6.,-6.1,-3.52183664205671));
#533=VECTOR('',#534,1.);
#534=DIRECTION('',(-1.,0.,7.40148683083438E-17));
#535=CARTESIAN_POINT('',(6.,-1.24568350289895E-14,-7.04367328411344));
#536=VECTOR('',#537,1.);
#537=DIRECTION('',(-1.,-1.60246890531963E-17,0.));
#538=CARTESIAN_POINT('',(6.,6.1,-3.52183664205671));
#539=VECTOR('',#540,1.);
#540=DIRECTION('',(-1.,0.,0.));
#541=CARTESIAN_POINT('',(29.0723459513916,-1.01033360929657E-16,1.65));
#542=AXIS2_PLACEMENT_3D('',#543,#544,#545);
#543=CARTESIAN_POINT('',(29.0723459513916,0.,0.));
#544=DIRECTION('',(-1.,0.,0.));
#545=DIRECTION('',(0.,-6.12323399573677E-17,1.));
#546=CARTESIAN_POINT('',(-9.71337294014648,-1.24651721817729E-15,20.3571710479325));
#547=AXIS2_PLACEMENT_3D('',#548,#549,#550);
#548=CARTESIAN_POINT('',(-9.71337294014431,0.,0.));
#549=DIRECTION('',(-1.,0.,0.));
#550=DIRECTION('',(0.,-6.12323399573677E-17,1.));
#551=CARTESIAN_POINT('',(29.0723459513916,-7.69195685986183E-16,12.5619188572857));
#552=AXIS2_PLACEMENT_3D('',#553,#554,#555);
#553=CARTESIAN_POINT('',(29.0723459513916,0.,0.));
#554=DIRECTION('',(-1.,0.,0.));
#555=DIRECTION('',(0.,-6.12323399573677E-17,1.));
#556=CARTESIAN_POINT('',(-9.92875302221076,-1.34682075958488E-15,21.9952521906331));
#557=AXIS2_PLACEMENT_3D('',#558,#559,#560);
#558=CARTESIAN_POINT('',(-9.92875302221076,0.,0.));
#559=DIRECTION('',(-1.,0.,0.));
#560=DIRECTION('',(0.,-6.12323399573677E-17,1.));
#561=CARTESIAN_POINT('',(44.0723459513916,-7.69195685986183E-16,12.5619188572857));
#562=AXIS2_PLACEMENT_3D('',#563,#564,#565);
#563=CARTESIAN_POINT('',(44.0723459513916,0.,0.));
#564=DIRECTION('',(-1.,0.,0.));
#565=DIRECTION('',(0.,-6.12323399573677E-17,1.));
#566=CARTESIAN_POINT('',(-1.92875302221076,-1.34682075958488E-15,21.9952521906331));
#567=AXIS2_PLACEMENT_3D('',#568,#569,#570);
#568=CARTESIAN_POINT('',(-1.92875302221076,0.,0.));
#569=DIRECTION('',(-1.,0.,0.));
#570=DIRECTION('',(0.,-6.12323399573677E-17,1.));
#571=CARTESIAN_POINT('',(44.0723459513916,-8.69499227393756E-16,14.1999999999859));
#572=AXIS2_PLACEMENT_3D('',#573,#574,#575);
#573=CARTESIAN_POINT('',(44.0723459513916,0.,0.));
#574=DIRECTION('',(-1.,0.,0.));
#575=DIRECTION('',(0.,-6.12323399573677E-17,1.));
#576=CARTESIAN_POINT('',(-1.92875302221074,-1.56113394943567E-15,25.4952521906331));
#577=AXIS2_PLACEMENT_3D('',#578,#579,#580);
#578=CARTESIAN_POINT('',(-1.92875302221076,0.,0.));
#579=DIRECTION('',(-1.,0.,0.));
#580=DIRECTION('',(0.,-6.12323399573677E-17,1.));
#581=CARTESIAN_POINT('',(29.0723459513916,-8.69499227393756E-16,14.1999999999859));
#582=AXIS2_PLACEMENT_3D('',#583,#584,#585);
#583=CARTESIAN_POINT('',(29.0723459513916,0.,0.));
#584=DIRECTION('',(-1.,0.,0.));
#585=DIRECTION('',(0.,-6.12323399573677E-17,1.));
#586=CARTESIAN_POINT('',(1.07124697778925,-1.56113394943567E-15,25.4952521906331));
#587=AXIS2_PLACEMENT_3D('',#588,#589,#590);
#588=CARTESIAN_POINT('',(1.07124697778925,0.,0.));
#589=DIRECTION('',(-1.,0.,0.));
#590=DIRECTION('',(0.,-6.12323399573677E-17,1.));
#591=CARTESIAN_POINT('',(24.0723459513916,-1.34682075958488E-15,21.9952521906331));
#592=AXIS2_PLACEMENT_3D('',#593,#594,#595);
#593=CARTESIAN_POINT('',(24.0723459513916,0.,0.));
#594=DIRECTION('',(-1.,0.,0.));
#595=DIRECTION('',(0.,-6.12323399573677E-17,1.));
#596=CARTESIAN_POINT('',(1.07124697778924,-1.34682075958488E-15,21.9952521906331));
#597=AXIS2_PLACEMENT_3D('',#598,#599,#600);
#598=CARTESIAN_POINT('',(1.07124697778925,0.,0.));
#599=DIRECTION('',(-1.,0.,0.));
#600=DIRECTION('',(0.,-6.12323399573677E-17,1.));
#601=CARTESIAN_POINT('',(17.0712469777892,-1.34682075958488E-15,21.9952521906331));
#602=AXIS2_PLACEMENT_3D('',#603,#604,#605);
#603=CARTESIAN_POINT('',(17.0712469777892,0.,0.));
#604=DIRECTION('',(-1.,0.,0.));
#605=DIRECTION('',(0.,-6.12323399573677E-17,1.));
#606=CARTESIAN_POINT('',(14.0712469777892,-1.34682075958488E-15,21.9952521906331));
#607=AXIS2_PLACEMENT_3D('',#608,#609,#610);
#608=CARTESIAN_POINT('',(14.0712469777892,0.,0.));
#609=DIRECTION('',(-1.,0.,0.));
#610=DIRECTION('',(0.,-6.12323399573677E-17,1.));
#611=CARTESIAN_POINT('',(17.0712469777892,-1.56113394943567E-15,25.4952521906331));
#612=AXIS2_PLACEMENT_3D('',#613,#614,#615);
#613=CARTESIAN_POINT('',(17.0712469777892,0.,0.));
#614=DIRECTION('',(-1.,0.,0.));
#615=DIRECTION('',(0.,-6.12323399573677E-17,1.));
#616=CARTESIAN_POINT('',(14.0712469777892,-1.56113394943567E-15,25.4952521906331));
#617=AXIS2_PLACEMENT_3D('',#618,#619,#620);
#618=CARTESIAN_POINT('',(14.0712469777892,0.,0.));
#619=DIRECTION('',(-1.,0.,0.));
#620=DIRECTION('',(0.,-6.12323399573677E-17,1.));
ENDSEC;
END-ISO-10303-21;
