ISO-10303-21;
HEADER;
FILE_DESCRIPTION(('STEP AP203'),
    '1');
FILE_NAME('ВтулкаКолеса',
    '',
    ('UNSPECIFIED'),
    ('UNSPECIFIED'),
    'C3D Converter',
    'C3D Toolkit',
    '');
FILE_SCHEMA(('CONFIG_CONTROL_DESIGN'));
ENDSEC;

DATA;
#1=PRODUCT_DEFINITION('','UNSPECIFIED',#28,#31);
#2=SHAPE_DEFINITION_REPRESENTATION(#26,#3);
#3=SHAPE_REPRESENTATION('NONE',(#4),#8);
#4=AXIS2_PLACEMENT_3D('',#5,#6,#7);
#5=CARTESIAN_POINT('',(0.,0.,0.));
#6=DIRECTION('',(0.,0.,1.));
#7=DIRECTION('',(1.,0.,0.));
#8=(GEOMETRIC_REPRESENTATION_CONTEXT(3)GLOBAL_UNCERTAINTY_ASSIGNED_CONTEXT((#10))
GLOBAL_UNIT_ASSIGNED_CONTEXT((#9,#11,#12))REPRESENTATION_CONTEXT('NONE','NONE'));
#9=(LENGTH_UNIT()NAMED_UNIT(*)SI_UNIT(.MILLI.,.METRE.));
#10=UNCERTAINTY_MEASURE_WITH_UNIT(LENGTH_MEASURE(1.E-5),#9,'NONE','NONE');
#11=(NAMED_UNIT(*)PLANE_ANGLE_UNIT()SI_UNIT($,.RADIAN.));
#12=(NAMED_UNIT(*)SI_UNIT($,.STERADIAN.)SOLID_ANGLE_UNIT());
#13=MANIFOLD_SOLID_BREP('',#14);
#14=CLOSED_SHELL('',(#53,#54,#55,#56,#57,#58,#59,#60,#61,#62,#63,#64,#65,#66,#67,
#68,#69,#70,#71,#72,#73,#74,#75,#76,#77,#78,#79,#80,#81,#82));
#15=COLOUR_RGB('',0.564705882352941,0.564705882352941,0.564705882352941);
#16=FILL_AREA_STYLE_COLOUR('',#15);
#17=FILL_AREA_STYLE($,(#16));
#18=SURFACE_STYLE_FILL_AREA(#17);
#19=SURFACE_SIDE_STYLE('',(#18));
#20=SURFACE_STYLE_USAGE(.BOTH.,#19);
#21=PRESENTATION_STYLE_ASSIGNMENT((#20));
#22=MECHANICAL_DESIGN_GEOMETRIC_PRESENTATION_REPRESENTATION('NONE',(#23),#8);
#23=STYLED_ITEM('',(#21),#13);
#24=ADVANCED_BREP_SHAPE_REPRESENTATION('NONE',(#13),#8);
#25=SHAPE_REPRESENTATION_RELATIONSHIP('','',#3,#24);
#26=PRODUCT_DEFINITION_SHAPE('NONE','NONE',#1);
#27=MECHANICAL_CONTEXT('NONE',#32,'mechanical');
#28=PRODUCT_DEFINITION_FORMATION_WITH_SPECIFIED_SOURCE('ANY','UNSPECIFIED',#29,.NOT_KNOWN.);
#29=PRODUCT('','\X2\043204420443043B043A0430041A043E043B043504410430\X0\','NONE',
(#27));
#30=PRODUCT_RELATED_PRODUCT_CATEGORY('detail','',(#29));
#31=DESIGN_CONTEXT('detailed design',#32,'design');
#32=APPLICATION_CONTEXT('configuration controlled 3d designs of mechanical parts and assemblies');
#33=APPLICATION_PROTOCOL_DEFINITION('international standard','config_control_design',
1994,#32);
#34=CC_DESIGN_DATE_AND_TIME_ASSIGNMENT(#35,#39,(#1));
#35=DATE_AND_TIME(#36,#37);
#36=CALENDAR_DATE(0,1,1);
#37=LOCAL_TIME(0,0,0.,#38);
#38=COORDINATED_UNIVERSAL_TIME_OFFSET(0,0,.AHEAD.);
#39=DATE_TIME_ROLE('creation_date');
#40=CC_DESIGN_APPROVAL(#41,(#1));
#41=APPROVAL(#42,'UNSPECIFIED');
#42=APPROVAL_STATUS('not_yet_approved');
#43=APPROVAL_DATE_TIME(#44,#41);
#44=DATE_AND_TIME(#45,#46);
#45=CALENDAR_DATE(0,1,1);
#46=LOCAL_TIME(0,0,0.,#47);
#47=COORDINATED_UNIVERSAL_TIME_OFFSET(0,0,.AHEAD.);
#48=PERSON('UNSPECIFIED','UNSPECIFIED','UNSPECIFIED',('UNSPECIFIED'),('UNSPECIFIED'),
('UNSPECIFIED'));
#49=ORGANIZATION('UNSPECIFIED','UNSPECIFIED','UNSPECIFIED');
#50=PERSON_AND_ORGANIZATION(#48,#49);
#51=PERSON_AND_ORGANIZATION_ROLE('creator');
#52=CC_DESIGN_PERSON_AND_ORGANIZATION_ASSIGNMENT(#50,#51,(#28,#1));
#53=ADVANCED_FACE('',(#83,#85),#87,.F.);
#54=ADVANCED_FACE('',(#92,#94),#96,.F.);
#55=ADVANCED_FACE('',(#101),#103,.F.);
#56=ADVANCED_FACE('',(#108),#110,.F.);
#57=ADVANCED_FACE('',(#115),#117,.F.);
#58=ADVANCED_FACE('',(#122),#124,.F.);
#59=ADVANCED_FACE('',(#129),#131,.F.);
#60=ADVANCED_FACE('',(#136),#138,.F.);
#61=ADVANCED_FACE('',(#143,#145),#147,.F.);
#62=ADVANCED_FACE('',(#152,#154),#156,.T.);
#63=ADVANCED_FACE('',(#161,#163),#165,.T.);
#64=ADVANCED_FACE('',(#170,#172),#174,.F.);
#65=ADVANCED_FACE('',(#179),#181,.T.);
#66=ADVANCED_FACE('',(#186),#188,.T.);
#67=ADVANCED_FACE('',(#193),#195,.T.);
#68=ADVANCED_FACE('',(#200),#202,.T.);
#69=ADVANCED_FACE('',(#207),#209,.T.);
#70=ADVANCED_FACE('',(#214),#216,.T.);
#71=ADVANCED_FACE('',(#221),#223,.F.);
#72=ADVANCED_FACE('',(#228),#230,.F.);
#73=ADVANCED_FACE('',(#235),#237,.F.);
#74=ADVANCED_FACE('',(#242),#244,.F.);
#75=ADVANCED_FACE('',(#249),#251,.F.);
#76=ADVANCED_FACE('',(#256),#258,.F.);
#77=ADVANCED_FACE('',(#263),#265,.T.);
#78=ADVANCED_FACE('',(#270),#272,.T.);
#79=ADVANCED_FACE('',(#277),#279,.T.);
#80=ADVANCED_FACE('',(#284),#286,.T.);
#81=ADVANCED_FACE('',(#291),#293,.T.);
#82=ADVANCED_FACE('',(#298),#300,.T.);
#83=FACE_BOUND('',#84,.T.);
#84=EDGE_LOOP('',(#305,#306,#307,#308,#309,#310));
#85=FACE_BOUND('',#86,.T.);
#86=EDGE_LOOP('',(#311));
#87=PLANE('',#88);
#88=AXIS2_PLACEMENT_3D('',#89,#90,#91);
#89=CARTESIAN_POINT('',(0.,0.,4.5));
#90=DIRECTION('',(0.,0.,1.));
#91=DIRECTION('',(-1.,1.22464679914735E-16,0.));
#92=FACE_BOUND('',#93,.T.);
#93=EDGE_LOOP('',(#312));
#94=FACE_BOUND('',#95,.T.);
#95=EDGE_LOOP('',(#313,#314,#315,#316,#317,#318));
#96=PLANE('',#97);
#97=AXIS2_PLACEMENT_3D('',#98,#99,#100);
#98=CARTESIAN_POINT('',(0.,0.,-7.5));
#99=DIRECTION('',(0.,0.,1.));
#100=DIRECTION('',(-1.,1.22464679914735E-16,0.));
#101=FACE_BOUND('',#102,.T.);
#102=EDGE_LOOP('',(#319,#320,#321,#322));
#103=PLANE('',#104);
#104=AXIS2_PLACEMENT_3D('',#105,#106,#107);
#105=CARTESIAN_POINT('',(-5.32907051820075E-15,-3.26202902092139,5.5));
#106=DIRECTION('',(-0.500000000000001,-0.866025403784438,0.));
#107=DIRECTION('',(-0.866025403784438,0.500000000000001,0.));
#108=FACE_BOUND('',#109,.T.);
#109=EDGE_LOOP('',(#323,#324,#325,#326));
#110=PLANE('',#111);
#111=AXIS2_PLACEMENT_3D('',#112,#113,#114);
#112=CARTESIAN_POINT('',(-2.825,-1.63101451046069,5.5));
#113=DIRECTION('',(-1.,9.52972658738758E-16,0.));
#114=DIRECTION('',(9.52972658738758E-16,1.,0.));
#115=FACE_BOUND('',#116,.T.);
#116=EDGE_LOOP('',(#327,#328,#329,#330));
#117=PLANE('',#118);
#118=AXIS2_PLACEMENT_3D('',#119,#120,#121);
#119=CARTESIAN_POINT('',(-2.825,1.6310145104607,5.5));
#120=DIRECTION('',(-0.5,0.866025403784439,0.));
#121=DIRECTION('',(0.866025403784439,0.5,0.));
#122=FACE_BOUND('',#123,.T.);
#123=EDGE_LOOP('',(#331,#332,#333,#334));
#124=PLANE('',#125);
#125=AXIS2_PLACEMENT_3D('',#126,#127,#128);
#126=CARTESIAN_POINT('',(2.35682595859174E-15,3.26202902092139,5.5));
#127=DIRECTION('',(0.500000000000001,0.866025403784438,0.));
#128=DIRECTION('',(0.866025403784438,-0.500000000000001,0.));
#129=FACE_BOUND('',#130,.T.);
#130=EDGE_LOOP('',(#335,#336,#337,#338));
#131=PLANE('',#132);
#132=AXIS2_PLACEMENT_3D('',#133,#134,#135);
#133=CARTESIAN_POINT('',(2.825,1.63101451046069,5.5));
#134=DIRECTION('',(1.,0.,0.));
#135=DIRECTION('',(0.,-1.,0.));
#136=FACE_BOUND('',#137,.T.);
#137=EDGE_LOOP('',(#339,#340,#341,#342));
#138=PLANE('',#139);
#139=AXIS2_PLACEMENT_3D('',#140,#141,#142);
#140=CARTESIAN_POINT('',(2.825,-1.63101451046069,5.5));
#141=DIRECTION('',(0.499999999999999,-0.866025403784439,0.));
#142=DIRECTION('',(-0.866025403784439,-0.499999999999999,0.));
#143=FACE_OUTER_BOUND('',#144,.T.);
#144=EDGE_LOOP('',(#343));
#145=FACE_OUTER_BOUND('',#146,.T.);
#146=EDGE_LOOP('',(#344));
#147=CYLINDRICAL_SURFACE('',#148,1.5);
#148=AXIS2_PLACEMENT_3D('',#149,#150,#151);
#149=CARTESIAN_POINT('',(0.,0.,0.));
#150=DIRECTION('',(0.,0.,1.));
#151=DIRECTION('',(-1.,1.22464679914735E-16,0.));
#152=FACE_OUTER_BOUND('',#153,.T.);
#153=EDGE_LOOP('',(#345));
#154=FACE_OUTER_BOUND('',#155,.T.);
#155=EDGE_LOOP('',(#346));
#156=CYLINDRICAL_SURFACE('',#157,5.);
#157=AXIS2_PLACEMENT_3D('',#158,#159,#160);
#158=CARTESIAN_POINT('',(0.,0.,-7.5));
#159=DIRECTION('',(0.,0.,1.));
#160=DIRECTION('',(-1.,1.22464679914735E-16,0.));
#161=FACE_BOUND('',#162,.T.);
#162=EDGE_LOOP('',(#347,#348,#349,#350,#351,#352));
#163=FACE_BOUND('',#164,.T.);
#164=EDGE_LOOP('',(#353));
#165=PLANE('',#166);
#166=AXIS2_PLACEMENT_3D('',#167,#168,#169);
#167=CARTESIAN_POINT('',(0.,0.,6.));
#168=DIRECTION('',(0.,0.,1.));
#169=DIRECTION('',(-1.,1.22464679914735E-16,0.));
#170=FACE_BOUND('',#171,.T.);
#171=EDGE_LOOP('',(#354,#355,#356,#357,#358,#359));
#172=FACE_BOUND('',#173,.T.);
#173=EDGE_LOOP('',(#360));
#174=PLANE('',#175);
#175=AXIS2_PLACEMENT_3D('',#176,#177,#178);
#176=CARTESIAN_POINT('',(0.,0.,0.));
#177=DIRECTION('',(0.,0.,1.));
#178=DIRECTION('',(-1.,1.22464679914735E-16,0.));
#179=FACE_BOUND('',#180,.T.);
#180=EDGE_LOOP('',(#361,#362,#363,#364));
#181=PLANE('',#182);
#182=AXIS2_PLACEMENT_3D('',#183,#184,#185);
#183=CARTESIAN_POINT('',(-1.73205080750447,-7.9282032303337,5.5));
#184=DIRECTION('',(0.353553390598039,-0.612372435693043,0.707106781186548));
#185=DIRECTION('',(0.866025403780548,0.500000000006739,2.87346863085216E-17));
#186=FACE_BOUND('',#187,.T.);
#187=EDGE_LOOP('',(#365,#366,#367,#368));
#188=PLANE('',#189);
#189=AXIS2_PLACEMENT_3D('',#190,#191,#192);
#190=CARTESIAN_POINT('',(6.,-5.4641016151529,5.5));
#191=DIRECTION('',(0.707106781186548,0.,0.707106781186548));
#192=DIRECTION('',(0.,1.,0.));
#193=FACE_BOUND('',#194,.T.);
#194=EDGE_LOOP('',(#369,#370,#371,#372));
#195=PLANE('',#196);
#196=AXIS2_PLACEMENT_3D('',#197,#198,#199);
#197=CARTESIAN_POINT('',(7.73205080756708,2.46410161512139,5.5));
#198=DIRECTION('',(0.353553390594374,0.612372435695158,0.707106781186548));
#199=DIRECTION('',(-0.86602540378354,0.500000000001557,2.87346863083974E-17));
#200=FACE_BOUND('',#201,.T.);
#201=EDGE_LOOP('',(#373,#374,#375,#376));
#202=PLANE('',#203);
#203=AXIS2_PLACEMENT_3D('',#204,#205,#206);
#204=CARTESIAN_POINT('',(1.73205080756191,7.9282032302829,5.5));
#205=DIRECTION('',(-0.353553390594456,0.612372435695113,0.707106781186547));
#206=DIRECTION('',(-0.866025403783474,-0.500000000001671,0.));
#207=FACE_BOUND('',#208,.T.);
#208=EDGE_LOOP('',(#377,#378,#379,#380));
#209=PLANE('',#210);
#210=AXIS2_PLACEMENT_3D('',#211,#212,#213);
#211=CARTESIAN_POINT('',(-6.,5.46410161512927,5.5));
#212=DIRECTION('',(-0.707106781186546,0.,0.707106781186549));
#213=DIRECTION('',(0.,-1.,0.));
#214=FACE_BOUND('',#215,.T.);
#215=EDGE_LOOP('',(#381,#382,#383,#384));
#216=PLANE('',#217);
#217=AXIS2_PLACEMENT_3D('',#218,#219,#220);
#218=CARTESIAN_POINT('',(-7.73205080756867,-2.46410161514778,5.5));
#219=DIRECTION('',(-0.353553390593399,-0.612372435695723,0.707106781186547));
#220=DIRECTION('',(0.866025403784337,-0.500000000000177,0.));
#221=FACE_BOUND('',#222,.T.);
#222=EDGE_LOOP('',(#385,#386,#387,#388));
#223=PLANE('',#224);
#224=AXIS2_PLACEMENT_3D('',#225,#226,#227);
#225=CARTESIAN_POINT('',(6.,-5.4641016151529,0.5));
#226=DIRECTION('',(-0.707106781186548,0.,0.707106781186548));
#227=DIRECTION('',(0.,1.,0.));
#228=FACE_BOUND('',#229,.T.);
#229=EDGE_LOOP('',(#389,#390,#391,#392));
#230=PLANE('',#231);
#231=AXIS2_PLACEMENT_3D('',#232,#233,#234);
#232=CARTESIAN_POINT('',(-1.73205080750447,-7.9282032303337,0.5));
#233=DIRECTION('',(-0.353553390598039,0.612372435693043,0.707106781186548));
#234=DIRECTION('',(0.866025403780548,0.500000000006739,2.53981144300298E-18));
#235=FACE_BOUND('',#236,.T.);
#236=EDGE_LOOP('',(#393,#394,#395,#396));
#237=PLANE('',#238);
#238=AXIS2_PLACEMENT_3D('',#239,#240,#241);
#239=CARTESIAN_POINT('',(-7.73205080756867,-2.46410161514778,0.5));
#240=DIRECTION('',(0.353553390593399,0.612372435695723,0.707106781186546));
#241=DIRECTION('',(0.866025403784337,-0.500000000000177,2.87346863082574E-17));
#242=FACE_BOUND('',#243,.T.);
#243=EDGE_LOOP('',(#397,#398,#399,#400));
#244=PLANE('',#245);
#245=AXIS2_PLACEMENT_3D('',#246,#247,#248);
#246=CARTESIAN_POINT('',(-6.,5.46410161512927,0.5));
#247=DIRECTION('',(0.707106781186546,3.59183578855332E-18,0.707106781186549));
#248=DIRECTION('',(0.,-1.,5.07962288598916E-18));
#249=FACE_BOUND('',#250,.T.);
#250=EDGE_LOOP('',(#401,#402,#403,#404));
#251=PLANE('',#252);
#252=AXIS2_PLACEMENT_3D('',#253,#254,#255);
#253=CARTESIAN_POINT('',(1.73205080756191,7.9282032302829,0.5));
#254=DIRECTION('',(0.353553390594456,-0.612372435695113,0.707106781186547));
#255=DIRECTION('',(-0.866025403783474,-0.500000000001671,0.));
#256=FACE_BOUND('',#257,.T.);
#257=EDGE_LOOP('',(#405,#406,#407,#408));
#258=PLANE('',#259);
#259=AXIS2_PLACEMENT_3D('',#260,#261,#262);
#260=CARTESIAN_POINT('',(7.73205080756708,2.46410161512139,0.5));
#261=DIRECTION('',(-0.353553390594374,-0.612372435695158,0.707106781186548));
#262=DIRECTION('',(-0.86602540378354,0.500000000001557,-2.87346863083974E-17));
#263=FACE_BOUND('',#264,.T.);
#264=EDGE_LOOP('',(#409,#410,#411,#412));
#265=PLANE('',#266);
#266=AXIS2_PLACEMENT_3D('',#267,#268,#269);
#267=CARTESIAN_POINT('',(5.66295710995126E-11,-6.92820323032022,0.));
#268=DIRECTION('',(0.500000000006739,-0.866025403780548,0.));
#269=DIRECTION('',(0.866025403780548,0.500000000006739,0.));
#270=FACE_BOUND('',#271,.T.);
#271=EDGE_LOOP('',(#413,#414,#415,#416));
#272=PLANE('',#273);
#273=AXIS2_PLACEMENT_3D('',#274,#275,#276);
#274=CARTESIAN_POINT('',(6.,-3.4641016151529,0.));
#275=DIRECTION('',(1.,0.,0.));
#276=DIRECTION('',(0.,1.,0.));
#277=FACE_BOUND('',#278,.T.);
#278=EDGE_LOOP('',(#417,#418,#419,#420));
#279=PLANE('',#280);
#280=AXIS2_PLACEMENT_3D('',#281,#282,#283);
#281=CARTESIAN_POINT('',(6.,3.46410161512451,0.));
#282=DIRECTION('',(0.500000000001557,0.86602540378354,0.));
#283=DIRECTION('',(-0.86602540378354,0.500000000001557,0.));
#284=FACE_BOUND('',#285,.T.);
#285=EDGE_LOOP('',(#421,#422,#423,#424));
#286=PLANE('',#287);
#287=AXIS2_PLACEMENT_3D('',#288,#289,#290);
#288=CARTESIAN_POINT('',(-5.0416629176471E-12,6.92820323027956,0.));
#289=DIRECTION('',(-0.500000000001671,0.866025403783474,0.));
#290=DIRECTION('',(-0.866025403783474,-0.500000000001671,0.));
#291=FACE_BOUND('',#292,.T.);
#292=EDGE_LOOP('',(#425,#426,#427,#428));
#293=PLANE('',#294);
#294=AXIS2_PLACEMENT_3D('',#295,#296,#297);
#295=CARTESIAN_POINT('',(-6.,3.46410161512927,0.));
#296=DIRECTION('',(-1.,0.,0.));
#297=DIRECTION('',(0.,-1.,0.));
#298=FACE_BOUND('',#299,.T.);
#299=EDGE_LOOP('',(#429,#430,#431,#432));
#300=PLANE('',#301);
#301=AXIS2_PLACEMENT_3D('',#302,#303,#304);
#302=CARTESIAN_POINT('',(-6.,-3.46410161514813,0.));
#303=DIRECTION('',(-0.500000000000177,-0.866025403784337,0.));
#304=DIRECTION('',(0.866025403784337,-0.500000000000177,0.));
#305=ORIENTED_EDGE('',*,*,#433,.F.);
#306=ORIENTED_EDGE('',*,*,#434,.F.);
#307=ORIENTED_EDGE('',*,*,#435,.F.);
#308=ORIENTED_EDGE('',*,*,#436,.F.);
#309=ORIENTED_EDGE('',*,*,#437,.F.);
#310=ORIENTED_EDGE('',*,*,#438,.F.);
#311=ORIENTED_EDGE('',*,*,#439,.F.);
#312=ORIENTED_EDGE('',*,*,#440,.F.);
#313=ORIENTED_EDGE('',*,*,#441,.T.);
#314=ORIENTED_EDGE('',*,*,#442,.T.);
#315=ORIENTED_EDGE('',*,*,#443,.T.);
#316=ORIENTED_EDGE('',*,*,#444,.T.);
#317=ORIENTED_EDGE('',*,*,#445,.T.);
#318=ORIENTED_EDGE('',*,*,#446,.T.);
#319=ORIENTED_EDGE('',*,*,#446,.F.);
#320=ORIENTED_EDGE('',*,*,#447,.F.);
#321=ORIENTED_EDGE('',*,*,#438,.T.);
#322=ORIENTED_EDGE('',*,*,#448,.T.);
#323=ORIENTED_EDGE('',*,*,#445,.F.);
#324=ORIENTED_EDGE('',*,*,#449,.F.);
#325=ORIENTED_EDGE('',*,*,#433,.T.);
#326=ORIENTED_EDGE('',*,*,#447,.T.);
#327=ORIENTED_EDGE('',*,*,#444,.F.);
#328=ORIENTED_EDGE('',*,*,#450,.F.);
#329=ORIENTED_EDGE('',*,*,#434,.T.);
#330=ORIENTED_EDGE('',*,*,#449,.T.);
#331=ORIENTED_EDGE('',*,*,#443,.F.);
#332=ORIENTED_EDGE('',*,*,#451,.F.);
#333=ORIENTED_EDGE('',*,*,#435,.T.);
#334=ORIENTED_EDGE('',*,*,#450,.T.);
#335=ORIENTED_EDGE('',*,*,#442,.F.);
#336=ORIENTED_EDGE('',*,*,#452,.F.);
#337=ORIENTED_EDGE('',*,*,#436,.T.);
#338=ORIENTED_EDGE('',*,*,#451,.T.);
#339=ORIENTED_EDGE('',*,*,#441,.F.);
#340=ORIENTED_EDGE('',*,*,#448,.F.);
#341=ORIENTED_EDGE('',*,*,#437,.T.);
#342=ORIENTED_EDGE('',*,*,#452,.T.);
#343=ORIENTED_EDGE('',*,*,#453,.F.);
#344=ORIENTED_EDGE('',*,*,#439,.T.);
#345=ORIENTED_EDGE('',*,*,#454,.T.);
#346=ORIENTED_EDGE('',*,*,#440,.T.);
#347=ORIENTED_EDGE('',*,*,#455,.T.);
#348=ORIENTED_EDGE('',*,*,#456,.T.);
#349=ORIENTED_EDGE('',*,*,#457,.T.);
#350=ORIENTED_EDGE('',*,*,#458,.T.);
#351=ORIENTED_EDGE('',*,*,#459,.T.);
#352=ORIENTED_EDGE('',*,*,#460,.T.);
#353=ORIENTED_EDGE('',*,*,#453,.T.);
#354=ORIENTED_EDGE('',*,*,#461,.F.);
#355=ORIENTED_EDGE('',*,*,#462,.F.);
#356=ORIENTED_EDGE('',*,*,#463,.F.);
#357=ORIENTED_EDGE('',*,*,#464,.F.);
#358=ORIENTED_EDGE('',*,*,#465,.F.);
#359=ORIENTED_EDGE('',*,*,#466,.F.);
#360=ORIENTED_EDGE('',*,*,#454,.F.);
#361=ORIENTED_EDGE('',*,*,#467,.T.);
#362=ORIENTED_EDGE('',*,*,#468,.T.);
#363=ORIENTED_EDGE('',*,*,#455,.F.);
#364=ORIENTED_EDGE('',*,*,#469,.F.);
#365=ORIENTED_EDGE('',*,*,#470,.T.);
#366=ORIENTED_EDGE('',*,*,#471,.T.);
#367=ORIENTED_EDGE('',*,*,#456,.F.);
#368=ORIENTED_EDGE('',*,*,#468,.F.);
#369=ORIENTED_EDGE('',*,*,#472,.T.);
#370=ORIENTED_EDGE('',*,*,#473,.T.);
#371=ORIENTED_EDGE('',*,*,#457,.F.);
#372=ORIENTED_EDGE('',*,*,#471,.F.);
#373=ORIENTED_EDGE('',*,*,#474,.T.);
#374=ORIENTED_EDGE('',*,*,#475,.T.);
#375=ORIENTED_EDGE('',*,*,#458,.F.);
#376=ORIENTED_EDGE('',*,*,#473,.F.);
#377=ORIENTED_EDGE('',*,*,#476,.T.);
#378=ORIENTED_EDGE('',*,*,#477,.T.);
#379=ORIENTED_EDGE('',*,*,#459,.F.);
#380=ORIENTED_EDGE('',*,*,#475,.F.);
#381=ORIENTED_EDGE('',*,*,#478,.T.);
#382=ORIENTED_EDGE('',*,*,#469,.T.);
#383=ORIENTED_EDGE('',*,*,#460,.F.);
#384=ORIENTED_EDGE('',*,*,#477,.F.);
#385=ORIENTED_EDGE('',*,*,#479,.F.);
#386=ORIENTED_EDGE('',*,*,#480,.F.);
#387=ORIENTED_EDGE('',*,*,#461,.T.);
#388=ORIENTED_EDGE('',*,*,#481,.T.);
#389=ORIENTED_EDGE('',*,*,#482,.F.);
#390=ORIENTED_EDGE('',*,*,#483,.F.);
#391=ORIENTED_EDGE('',*,*,#462,.T.);
#392=ORIENTED_EDGE('',*,*,#480,.T.);
#393=ORIENTED_EDGE('',*,*,#484,.F.);
#394=ORIENTED_EDGE('',*,*,#485,.F.);
#395=ORIENTED_EDGE('',*,*,#463,.T.);
#396=ORIENTED_EDGE('',*,*,#483,.T.);
#397=ORIENTED_EDGE('',*,*,#486,.F.);
#398=ORIENTED_EDGE('',*,*,#487,.F.);
#399=ORIENTED_EDGE('',*,*,#464,.T.);
#400=ORIENTED_EDGE('',*,*,#485,.T.);
#401=ORIENTED_EDGE('',*,*,#488,.F.);
#402=ORIENTED_EDGE('',*,*,#489,.F.);
#403=ORIENTED_EDGE('',*,*,#465,.T.);
#404=ORIENTED_EDGE('',*,*,#487,.T.);
#405=ORIENTED_EDGE('',*,*,#490,.F.);
#406=ORIENTED_EDGE('',*,*,#481,.F.);
#407=ORIENTED_EDGE('',*,*,#466,.T.);
#408=ORIENTED_EDGE('',*,*,#489,.T.);
#409=ORIENTED_EDGE('',*,*,#467,.F.);
#410=ORIENTED_EDGE('',*,*,#491,.F.);
#411=ORIENTED_EDGE('',*,*,#482,.T.);
#412=ORIENTED_EDGE('',*,*,#492,.T.);
#413=ORIENTED_EDGE('',*,*,#470,.F.);
#414=ORIENTED_EDGE('',*,*,#492,.F.);
#415=ORIENTED_EDGE('',*,*,#479,.T.);
#416=ORIENTED_EDGE('',*,*,#493,.T.);
#417=ORIENTED_EDGE('',*,*,#472,.F.);
#418=ORIENTED_EDGE('',*,*,#493,.F.);
#419=ORIENTED_EDGE('',*,*,#490,.T.);
#420=ORIENTED_EDGE('',*,*,#494,.T.);
#421=ORIENTED_EDGE('',*,*,#474,.F.);
#422=ORIENTED_EDGE('',*,*,#494,.F.);
#423=ORIENTED_EDGE('',*,*,#488,.T.);
#424=ORIENTED_EDGE('',*,*,#495,.T.);
#425=ORIENTED_EDGE('',*,*,#476,.F.);
#426=ORIENTED_EDGE('',*,*,#495,.F.);
#427=ORIENTED_EDGE('',*,*,#486,.T.);
#428=ORIENTED_EDGE('',*,*,#496,.T.);
#429=ORIENTED_EDGE('',*,*,#478,.F.);
#430=ORIENTED_EDGE('',*,*,#496,.F.);
#431=ORIENTED_EDGE('',*,*,#484,.T.);
#432=ORIENTED_EDGE('',*,*,#491,.T.);
#433=EDGE_CURVE('',#497,#498,#499,.T.);
#434=EDGE_CURVE('',#500,#497,#501,.T.);
#435=EDGE_CURVE('',#502,#500,#503,.T.);
#436=EDGE_CURVE('',#504,#502,#505,.T.);
#437=EDGE_CURVE('',#506,#504,#507,.T.);
#438=EDGE_CURVE('',#498,#506,#508,.T.);
#439=EDGE_CURVE('',#509,#509,#510,.F.);
#440=EDGE_CURVE('',#511,#511,#512,.T.);
#441=EDGE_CURVE('',#513,#514,#515,.T.);
#442=EDGE_CURVE('',#514,#516,#517,.T.);
#443=EDGE_CURVE('',#516,#518,#519,.T.);
#444=EDGE_CURVE('',#518,#520,#521,.T.);
#445=EDGE_CURVE('',#520,#522,#523,.T.);
#446=EDGE_CURVE('',#522,#513,#524,.T.);
#447=EDGE_CURVE('',#498,#522,#525,.T.);
#448=EDGE_CURVE('',#506,#513,#526,.T.);
#449=EDGE_CURVE('',#497,#520,#527,.T.);
#450=EDGE_CURVE('',#500,#518,#528,.T.);
#451=EDGE_CURVE('',#502,#516,#529,.T.);
#452=EDGE_CURVE('',#504,#514,#530,.T.);
#453=EDGE_CURVE('',#531,#531,#532,.F.);
#454=EDGE_CURVE('',#533,#533,#534,.F.);
#455=EDGE_CURVE('',#535,#536,#537,.T.);
#456=EDGE_CURVE('',#536,#538,#539,.T.);
#457=EDGE_CURVE('',#538,#540,#541,.T.);
#458=EDGE_CURVE('',#540,#542,#543,.T.);
#459=EDGE_CURVE('',#542,#544,#545,.T.);
#460=EDGE_CURVE('',#544,#535,#546,.T.);
#461=EDGE_CURVE('',#547,#548,#549,.T.);
#462=EDGE_CURVE('',#550,#547,#551,.T.);
#463=EDGE_CURVE('',#552,#550,#553,.T.);
#464=EDGE_CURVE('',#554,#552,#555,.T.);
#465=EDGE_CURVE('',#556,#554,#557,.T.);
#466=EDGE_CURVE('',#548,#556,#558,.T.);
#467=EDGE_CURVE('',#559,#560,#561,.T.);
#468=EDGE_CURVE('',#560,#536,#562,.T.);
#469=EDGE_CURVE('',#559,#535,#563,.T.);
#470=EDGE_CURVE('',#560,#564,#565,.T.);
#471=EDGE_CURVE('',#564,#538,#566,.T.);
#472=EDGE_CURVE('',#564,#567,#568,.T.);
#473=EDGE_CURVE('',#567,#540,#569,.T.);
#474=EDGE_CURVE('',#567,#570,#571,.T.);
#475=EDGE_CURVE('',#570,#542,#572,.T.);
#476=EDGE_CURVE('',#570,#573,#574,.T.);
#477=EDGE_CURVE('',#573,#544,#575,.T.);
#478=EDGE_CURVE('',#573,#559,#576,.T.);
#479=EDGE_CURVE('',#577,#578,#579,.T.);
#480=EDGE_CURVE('',#547,#577,#580,.F.);
#481=EDGE_CURVE('',#548,#578,#581,.F.);
#482=EDGE_CURVE('',#582,#577,#583,.T.);
#483=EDGE_CURVE('',#550,#582,#584,.F.);
#484=EDGE_CURVE('',#585,#582,#586,.T.);
#485=EDGE_CURVE('',#552,#585,#587,.F.);
#486=EDGE_CURVE('',#588,#585,#589,.T.);
#487=EDGE_CURVE('',#554,#588,#590,.F.);
#488=EDGE_CURVE('',#591,#588,#592,.T.);
#489=EDGE_CURVE('',#556,#591,#593,.F.);
#490=EDGE_CURVE('',#578,#591,#594,.T.);
#491=EDGE_CURVE('',#582,#559,#595,.T.);
#492=EDGE_CURVE('',#577,#560,#596,.T.);
#493=EDGE_CURVE('',#578,#564,#597,.T.);
#494=EDGE_CURVE('',#591,#567,#598,.T.);
#495=EDGE_CURVE('',#588,#570,#599,.T.);
#496=EDGE_CURVE('',#585,#573,#600,.T.);
#497=VERTEX_POINT('',#601);
#498=VERTEX_POINT('',#602);
#499=LINE('',#603,#604);
#500=VERTEX_POINT('',#606);
#501=LINE('',#607,#608);
#502=VERTEX_POINT('',#610);
#503=LINE('',#611,#612);
#504=VERTEX_POINT('',#614);
#505=LINE('',#615,#616);
#506=VERTEX_POINT('',#618);
#507=LINE('',#619,#620);
#508=LINE('',#622,#623);
#509=VERTEX_POINT('',#625);
#510=CIRCLE('',#626,1.5);
#511=VERTEX_POINT('',#630);
#512=CIRCLE('',#631,5.);
#513=VERTEX_POINT('',#635);
#514=VERTEX_POINT('',#636);
#515=LINE('',#637,#638);
#516=VERTEX_POINT('',#640);
#517=LINE('',#641,#642);
#518=VERTEX_POINT('',#644);
#519=LINE('',#645,#646);
#520=VERTEX_POINT('',#648);
#521=LINE('',#649,#650);
#522=VERTEX_POINT('',#652);
#523=LINE('',#653,#654);
#524=LINE('',#656,#657);
#525=LINE('',#659,#660);
#526=LINE('',#662,#663);
#527=LINE('',#665,#666);
#528=LINE('',#668,#669);
#529=LINE('',#671,#672);
#530=LINE('',#674,#675);
#531=VERTEX_POINT('',#677);
#532=CIRCLE('',#678,1.5);
#533=VERTEX_POINT('',#682);
#534=CIRCLE('',#683,5.);
#535=VERTEX_POINT('',#687);
#536=VERTEX_POINT('',#688);
#537=LINE('',#689,#690);
#538=VERTEX_POINT('',#692);
#539=LINE('',#693,#694);
#540=VERTEX_POINT('',#696);
#541=LINE('',#697,#698);
#542=VERTEX_POINT('',#700);
#543=LINE('',#701,#702);
#544=VERTEX_POINT('',#704);
#545=LINE('',#705,#706);
#546=LINE('',#708,#709);
#547=VERTEX_POINT('',#711);
#548=VERTEX_POINT('',#712);
#549=LINE('',#713,#714);
#550=VERTEX_POINT('',#716);
#551=LINE('',#717,#718);
#552=VERTEX_POINT('',#720);
#553=LINE('',#721,#722);
#554=VERTEX_POINT('',#724);
#555=LINE('',#725,#726);
#556=VERTEX_POINT('',#728);
#557=LINE('',#729,#730);
#558=LINE('',#732,#733);
#559=VERTEX_POINT('',#735);
#560=VERTEX_POINT('',#736);
#561=LINE('',#737,#738);
#562=LINE('',#740,#741);
#563=LINE('',#743,#744);
#564=VERTEX_POINT('',#746);
#565=LINE('',#747,#748);
#566=LINE('',#750,#751);
#567=VERTEX_POINT('',#753);
#568=LINE('',#754,#755);
#569=LINE('',#757,#758);
#570=VERTEX_POINT('',#760);
#571=LINE('',#761,#762);
#572=LINE('',#764,#765);
#573=VERTEX_POINT('',#767);
#574=LINE('',#768,#769);
#575=LINE('',#771,#772);
#576=LINE('',#774,#775);
#577=VERTEX_POINT('',#777);
#578=VERTEX_POINT('',#778);
#579=LINE('',#779,#780);
#580=LINE('',#782,#783);
#581=LINE('',#785,#786);
#582=VERTEX_POINT('',#788);
#583=LINE('',#789,#790);
#584=LINE('',#792,#793);
#585=VERTEX_POINT('',#795);
#586=LINE('',#796,#797);
#587=LINE('',#799,#800);
#588=VERTEX_POINT('',#802);
#589=LINE('',#803,#804);
#590=LINE('',#806,#807);
#591=VERTEX_POINT('',#809);
#592=LINE('',#810,#811);
#593=LINE('',#813,#814);
#594=LINE('',#816,#817);
#595=LINE('',#819,#820);
#596=LINE('',#822,#823);
#597=LINE('',#825,#826);
#598=LINE('',#828,#829);
#599=LINE('',#831,#832);
#600=LINE('',#834,#835);
#601=CARTESIAN_POINT('',(-2.825,1.6310145104607,4.5));
#602=CARTESIAN_POINT('',(-2.825,-1.63101451046069,4.5));
#603=CARTESIAN_POINT('',(-2.825,1.6310145104607,4.5));
#604=VECTOR('',#605,1.);
#605=DIRECTION('',(-9.52972658738758E-16,-1.,0.));
#606=CARTESIAN_POINT('',(2.28863600392103E-15,3.26202902092139,4.5));
#607=CARTESIAN_POINT('',(2.22044604925031E-15,3.26202902092139,4.5));
#608=VECTOR('',#609,1.);
#609=DIRECTION('',(-0.866025403784439,-0.5,0.));
#610=CARTESIAN_POINT('',(2.825,1.63101451046069,4.5));
#611=CARTESIAN_POINT('',(2.825,1.63101451046069,4.5));
#612=VECTOR('',#613,1.);
#613=DIRECTION('',(-0.866025403784438,0.500000000000001,0.));
#614=CARTESIAN_POINT('',(2.825,-1.63101451046069,4.5));
#615=CARTESIAN_POINT('',(2.825,-1.63101451046069,4.5));
#616=VECTOR('',#617,1.);
#617=DIRECTION('',(0.,1.,0.));
#618=CARTESIAN_POINT('',(-5.55111512312578E-15,-3.26202902092139,4.5));
#619=CARTESIAN_POINT('',(-5.77315972805081E-15,-3.26202902092139,4.5));
#620=VECTOR('',#621,1.);
#621=DIRECTION('',(0.866025403784439,0.499999999999999,0.));
#622=CARTESIAN_POINT('',(-2.825,-1.63101451046069,4.5));
#623=VECTOR('',#624,1.);
#624=DIRECTION('',(0.866025403784438,-0.500000000000001,0.));
#625=CARTESIAN_POINT('',(-1.5,3.67394039744206E-16,4.5));
#626=AXIS2_PLACEMENT_3D('',#627,#628,#629);
#627=CARTESIAN_POINT('',(0.,0.,4.5));
#628=DIRECTION('',(0.,0.,1.));
#629=DIRECTION('',(-1.,1.22464679914735E-16,0.));
#630=CARTESIAN_POINT('',(-5.,6.12323399573677E-16,-7.5));
#631=AXIS2_PLACEMENT_3D('',#632,#633,#634);
#632=CARTESIAN_POINT('',(0.,0.,-7.5));
#633=DIRECTION('',(0.,0.,1.));
#634=DIRECTION('',(-1.,1.22464679914735E-16,0.));
#635=CARTESIAN_POINT('',(-5.32907051820075E-15,-3.26202902092139,-7.5));
#636=CARTESIAN_POINT('',(2.825,-1.63101451046069,-7.5));
#637=CARTESIAN_POINT('',(-5.77315972805081E-15,-3.26202902092139,-7.5));
#638=VECTOR('',#639,1.);
#639=DIRECTION('',(0.866025403784439,0.499999999999999,0.));
#640=CARTESIAN_POINT('',(2.825,1.63101451046069,-7.5));
#641=CARTESIAN_POINT('',(2.825,-1.63101451046069,-7.5));
#642=VECTOR('',#643,1.);
#643=DIRECTION('',(0.,1.,0.));
#644=CARTESIAN_POINT('',(2.35682595859174E-15,3.26202902092139,-7.5));
#645=CARTESIAN_POINT('',(2.825,1.63101451046069,-7.5));
#646=VECTOR('',#647,1.);
#647=DIRECTION('',(-0.866025403784438,0.500000000000001,0.));
#648=CARTESIAN_POINT('',(-2.825,1.6310145104607,-7.5));
#649=CARTESIAN_POINT('',(2.22044604925031E-15,3.26202902092139,-7.5));
#650=VECTOR('',#651,1.);
#651=DIRECTION('',(-0.866025403784439,-0.5,0.));
#652=CARTESIAN_POINT('',(-2.825,-1.63101451046069,-7.5));
#653=CARTESIAN_POINT('',(-2.825,1.6310145104607,-7.5));
#654=VECTOR('',#655,1.);
#655=DIRECTION('',(-9.52972658738758E-16,-1.,0.));
#656=CARTESIAN_POINT('',(-2.825,-1.63101451046069,-7.5));
#657=VECTOR('',#658,1.);
#658=DIRECTION('',(0.866025403784438,-0.500000000000001,0.));
#659=CARTESIAN_POINT('',(-2.825,-1.63101451046069,4.5));
#660=VECTOR('',#661,1.);
#661=DIRECTION('',(0.,0.,-1.));
#662=CARTESIAN_POINT('',(-5.55111512312578E-15,-3.26202902092139,4.5));
#663=VECTOR('',#664,1.);
#664=DIRECTION('',(0.,0.,-1.));
#665=CARTESIAN_POINT('',(-2.825,1.6310145104607,4.5));
#666=VECTOR('',#667,1.);
#667=DIRECTION('',(0.,0.,-1.));
#668=CARTESIAN_POINT('',(2.28863600392103E-15,3.26202902092139,4.5));
#669=VECTOR('',#670,1.);
#670=DIRECTION('',(0.,0.,-1.));
#671=CARTESIAN_POINT('',(2.825,1.63101451046069,4.5));
#672=VECTOR('',#673,1.);
#673=DIRECTION('',(0.,1.85037170770859E-17,-1.));
#674=CARTESIAN_POINT('',(2.825,-1.63101451046069,4.5));
#675=VECTOR('',#676,1.);
#676=DIRECTION('',(0.,0.,-1.));
#677=CARTESIAN_POINT('',(-1.5,1.83697019872103E-16,6.));
#678=AXIS2_PLACEMENT_3D('',#679,#680,#681);
#679=CARTESIAN_POINT('',(0.,0.,6.));
#680=DIRECTION('',(0.,0.,1.));
#681=DIRECTION('',(-1.,1.22464679914735E-16,0.));
#682=CARTESIAN_POINT('',(-5.,6.12323399573677E-16,0.));
#683=AXIS2_PLACEMENT_3D('',#684,#685,#686);
#684=CARTESIAN_POINT('',(0.,0.,0.));
#685=DIRECTION('',(0.,0.,1.));
#686=DIRECTION('',(-1.,1.22464679914735E-16,0.));
#687=CARTESIAN_POINT('',(5.44407942653893E-11,-6.35085296112926,6.));
#688=CARTESIAN_POINT('',(5.5,-3.17542648056068,6.));
#689=CARTESIAN_POINT('',(5.44410902250196E-11,-6.35085296112926,6.));
#690=VECTOR('',#691,1.);
#691=DIRECTION('',(0.866025403780548,0.500000000006739,0.));
#692=CARTESIAN_POINT('',(5.5,3.17542648053029,6.));
#693=CARTESIAN_POINT('',(5.5,-3.17542648056068,6.));
#694=VECTOR('',#695,1.);
#695=DIRECTION('',(0.,1.,0.));
#696=CARTESIAN_POINT('',(-5.00223916378224E-12,6.35085296108931,6.));
#697=CARTESIAN_POINT('',(5.5,3.17542648053029,6.));
#698=VECTOR('',#699,1.);
#699=DIRECTION('',(-0.86602540378354,0.500000000001557,0.));
#700=CARTESIAN_POINT('',(-5.5,3.1754264805351,6.));
#701=CARTESIAN_POINT('',(-5.00308098306628E-12,6.35085296108931,6.));
#702=VECTOR('',#703,1.);
#703=DIRECTION('',(-0.866025403783474,-0.500000000001671,0.));
#704=CARTESIAN_POINT('',(-5.5,-3.17542648055339,6.));
#705=CARTESIAN_POINT('',(-5.5,3.1754264805351,6.));
#706=VECTOR('',#707,1.);
#707=DIRECTION('',(0.,-1.,0.));
#708=CARTESIAN_POINT('',(-5.5,-3.17542648055339,6.));
#709=VECTOR('',#710,1.);
#710=DIRECTION('',(0.866025403784337,-0.500000000000177,0.));
#711=CARTESIAN_POINT('',(5.5,-3.17542648056068,5.55111512312578E-17));
#712=CARTESIAN_POINT('',(5.5,3.17542648053029,2.77555756156289E-16));
#713=CARTESIAN_POINT('',(5.5,-3.17542648056068,2.77555756156289E-16));
#714=VECTOR('',#715,1.);
#715=DIRECTION('',(0.,1.,0.));
#716=CARTESIAN_POINT('',(5.44421357848774E-11,-6.35085296112926,-5.36607795235492E-16));
#717=CARTESIAN_POINT('',(5.44407571581122E-11,-6.35085296112926,-1.94289029309402E-16));
#718=VECTOR('',#719,1.);
#719=DIRECTION('',(0.866025403780548,0.500000000006739,0.));
#720=CARTESIAN_POINT('',(-5.5,-3.17542648055339,-1.85037170770859E-16));
#721=CARTESIAN_POINT('',(-5.5,-3.17542648055339,-7.21644966006352E-16));
#722=VECTOR('',#723,1.);
#723=DIRECTION('',(0.866025403784337,-0.500000000000177,1.74814789669482E-17));
#724=CARTESIAN_POINT('',(-5.5,3.1754264805351,1.38777878078145E-16));
#725=CARTESIAN_POINT('',(-5.5,3.1754264805351,4.44089209850063E-16));
#726=VECTOR('',#727,1.);
#727=DIRECTION('',(0.,-1.,-8.74073948355806E-18));
#728=CARTESIAN_POINT('',(-5.00218365263101E-12,6.35085296108931,-1.11022302462516E-16));
#729=CARTESIAN_POINT('',(-5.00299771633943E-12,6.35085296108931,-2.22044604925031E-16));
#730=VECTOR('',#731,1.);
#731=DIRECTION('',(-0.866025403783474,-0.500000000001671,0.));
#732=CARTESIAN_POINT('',(5.5,3.17542648053029,1.38777878078145E-16));
#733=VECTOR('',#734,1.);
#734=DIRECTION('',(-0.86602540378354,0.500000000001557,-1.31111092253169E-17));
#735=CARTESIAN_POINT('',(5.66299978196693E-11,-6.92820323032022,5.5));
#736=CARTESIAN_POINT('',(6.,-3.4641016151529,5.5));
#737=CARTESIAN_POINT('',(5.66297876733257E-11,-6.92820323032022,5.5));
#738=VECTOR('',#739,1.);
#739=DIRECTION('',(0.866025403780548,0.500000000006739,0.));
#740=CARTESIAN_POINT('',(6.,-3.4641016151529,5.5));
#741=VECTOR('',#742,1.);
#742=DIRECTION('',(-0.654653670708816,0.377964473006319,0.654653670708817));
#743=CARTESIAN_POINT('',(5.66300339954751E-11,-6.92820323032022,5.5));
#744=VECTOR('',#745,1.);
#745=DIRECTION('',(-2.86647218395085E-12,0.755928946019202,0.654653670707114));
#746=CARTESIAN_POINT('',(6.,3.46410161512451,5.5));
#747=CARTESIAN_POINT('',(6.,-3.4641016151529,5.5));
#748=VECTOR('',#749,1.);
#749=DIRECTION('',(0.,1.,0.));
#750=CARTESIAN_POINT('',(6.,3.46410161512451,5.5));
#751=VECTOR('',#752,1.);
#752=DIRECTION('',(-0.654653670708171,-0.377964473008555,0.654653670708172));
#753=CARTESIAN_POINT('',(-5.04022552789935E-12,6.92820323027956,5.5));
#754=CARTESIAN_POINT('',(6.,3.46410161512451,5.5));
#755=VECTOR('',#756,1.);
#756=DIRECTION('',(-0.86602540378354,0.500000000001557,0.));
#757=CARTESIAN_POINT('',(-5.03941333107605E-12,6.92820323027955,5.5));
#758=VECTOR('',#759,1.);
#759=DIRECTION('',(4.94595279084136E-14,-0.755928946018803,0.654653670707575));
#760=CARTESIAN_POINT('',(-6.,3.46410161512927,5.5));
#761=CARTESIAN_POINT('',(-5.04137079163005E-12,6.92820323027956,5.5));
#762=VECTOR('',#763,1.);
#763=DIRECTION('',(-0.866025403783474,-0.500000000001671,0.));
#764=CARTESIAN_POINT('',(-6.,3.46410161512927,5.5));
#765=VECTOR('',#766,1.);
#766=DIRECTION('',(0.654653670708186,-0.377964473008504,0.654653670708186));
#767=CARTESIAN_POINT('',(-6.,-3.46410161514814,5.5));
#768=CARTESIAN_POINT('',(-6.,3.46410161512927,5.5));
#769=VECTOR('',#770,1.);
#770=DIRECTION('',(0.,-1.,0.));
#771=CARTESIAN_POINT('',(-6.,-3.46410161514814,5.5));
#772=VECTOR('',#773,1.);
#773=DIRECTION('',(0.654653670708,0.377964473009149,0.654653670707999));
#774=CARTESIAN_POINT('',(-6.,-3.46410161514813,5.5));
#775=VECTOR('',#776,1.);
#776=DIRECTION('',(0.866025403784337,-0.500000000000177,0.));
#777=CARTESIAN_POINT('',(6.,-3.4641016151529,0.5));
#778=CARTESIAN_POINT('',(6.,3.46410161512451,0.5));
#779=CARTESIAN_POINT('',(6.,-3.4641016151529,0.5));
#780=VECTOR('',#781,1.);
#781=DIRECTION('',(0.,1.,0.));
#782=CARTESIAN_POINT('',(6.,-3.4641016151529,0.5));
#783=VECTOR('',#784,1.);
#784=DIRECTION('',(-0.654653670708816,0.377964473006319,-0.654653670708817));
#785=CARTESIAN_POINT('',(6.,3.4641016151245,0.5));
#786=VECTOR('',#787,1.);
#787=DIRECTION('',(-0.654653670708171,-0.377964473008555,-0.654653670708172));
#788=CARTESIAN_POINT('',(5.66291096412496E-11,-6.92820323032022,0.5));
#789=CARTESIAN_POINT('',(5.66297876733257E-11,-6.92820323032022,0.5));
#790=VECTOR('',#791,1.);
#791=DIRECTION('',(0.866025403780548,0.500000000006739,1.60246890532756E-17));
#792=CARTESIAN_POINT('',(5.66287017278455E-11,-6.92820323032022,0.5));
#793=VECTOR('',#794,1.);
#794=DIRECTION('',(-2.86265642316439E-12,0.7559289460192,-0.654653670707116));
#795=CARTESIAN_POINT('',(-6.,-3.46410161514813,0.5));
#796=CARTESIAN_POINT('',(-6.,-3.46410161514813,0.5));
#797=VECTOR('',#798,1.);
#798=DIRECTION('',(0.866025403784337,-0.500000000000177,1.60246890530432E-17));
#799=CARTESIAN_POINT('',(-6.,-3.46410161514813,0.5));
#800=VECTOR('',#801,1.);
#801=DIRECTION('',(0.654653670708,0.377964473009148,-0.654653670708));
#802=CARTESIAN_POINT('',(-6.,3.46410161512927,0.5));
#803=CARTESIAN_POINT('',(-6.,3.46410161512927,0.5));
#804=VECTOR('',#805,1.);
#805=DIRECTION('',(0.,-1.,0.));
#806=CARTESIAN_POINT('',(-6.,3.46410161512927,0.5));
#807=VECTOR('',#808,1.);
#808=DIRECTION('',(0.654653670708186,-0.377964473008505,-0.654653670708185));
#809=CARTESIAN_POINT('',(-5.03934478656372E-12,6.92820323027955,0.5));
#810=CARTESIAN_POINT('',(-5.04106747305894E-12,6.92820323027956,0.5));
#811=VECTOR('',#812,1.);
#812=DIRECTION('',(-0.866025403783474,-0.500000000001671,0.));
#813=CARTESIAN_POINT('',(-5.03841413035389E-12,6.92820323027955,0.5));
#814=VECTOR('',#815,1.);
#815=DIRECTION('',(4.8260288804095E-14,-0.755928946018803,-0.654653670707575));
#816=CARTESIAN_POINT('',(6.,3.46410161512451,0.5));
#817=VECTOR('',#818,1.);
#818=DIRECTION('',(-0.86602540378354,0.500000000001557,-1.60246890531663E-17));
#819=CARTESIAN_POINT('',(5.66299135697963E-11,-6.92820323032022,0.5));
#820=VECTOR('',#821,1.);
#821=DIRECTION('',(0.,0.,1.));
#822=CARTESIAN_POINT('',(6.,-3.4641016151529,0.5));
#823=VECTOR('',#824,1.);
#824=DIRECTION('',(0.,0.,1.));
#825=CARTESIAN_POINT('',(6.,3.46410161512451,0.5));
#826=VECTOR('',#827,1.);
#827=DIRECTION('',(0.,0.,1.));
#828=CARTESIAN_POINT('',(-5.04014954630296E-12,6.92820323027955,0.5));
#829=VECTOR('',#830,1.);
#830=DIRECTION('',(-8.88178419700125E-17,1.77635683940025E-16,1.));
#831=CARTESIAN_POINT('',(-6.,3.46410161512927,0.5));
#832=VECTOR('',#833,1.);
#833=DIRECTION('',(-1.77635683940025E-16,-8.88178419700125E-17,1.));
#834=CARTESIAN_POINT('',(-6.,-3.46410161514814,0.5));
#835=VECTOR('',#836,1.);
#836=DIRECTION('',(0.,0.,1.));
ENDSEC;
END-ISO-10303-21;
