ISO-10303-21;
HEADER;
FILE_DESCRIPTION(('STEP AP203'),
    '1');
FILE_NAME('Полуось',
    '',
    ('UNSPECIFIED'),
    ('UNSPECIFIED'),
    'C3D Converter',
    'C3D Toolkit',
    '');
FILE_SCHEMA(('CONFIG_CONTROL_DESIGN'));
ENDSEC;

DATA;
#1=PRODUCT_DEFINITION('','UNSPECIFIED',#28,#31);
#2=SHAPE_DEFINITION_REPRESENTATION(#26,#3);
#3=SHAPE_REPRESENTATION('NONE',(#4),#8);
#4=AXIS2_PLACEMENT_3D('',#5,#6,#7);
#5=CARTESIAN_POINT('',(0.,0.,0.));
#6=DIRECTION('',(0.,0.,1.));
#7=DIRECTION('',(1.,0.,0.));
#8=(GEOMETRIC_REPRESENTATION_CONTEXT(3)GLOBAL_UNCERTAINTY_ASSIGNED_CONTEXT((#10))
GLOBAL_UNIT_ASSIGNED_CONTEXT((#9,#11,#12))REPRESENTATION_CONTEXT('NONE','NONE'));
#9=(LENGTH_UNIT()NAMED_UNIT(*)SI_UNIT(.MILLI.,.METRE.));
#10=UNCERTAINTY_MEASURE_WITH_UNIT(LENGTH_MEASURE(1.E-5),#9,'NONE','NONE');
#11=(NAMED_UNIT(*)PLANE_ANGLE_UNIT()SI_UNIT($,.RADIAN.));
#12=(NAMED_UNIT(*)SI_UNIT($,.STERADIAN.)SOLID_ANGLE_UNIT());
#13=MANIFOLD_SOLID_BREP('',#14);
#14=CLOSED_SHELL('',(#53,#54,#55,#56,#57,#58,#59,#60,#61,#62,#63,#64,#65,#66,#67,
#68,#69,#70,#71,#72));
#15=COLOUR_RGB('',0.564705882352941,0.564705882352941,0.564705882352941);
#16=FILL_AREA_STYLE_COLOUR('',#15);
#17=FILL_AREA_STYLE($,(#16));
#18=SURFACE_STYLE_FILL_AREA(#17);
#19=SURFACE_SIDE_STYLE('',(#18));
#20=SURFACE_STYLE_USAGE(.BOTH.,#19);
#21=PRESENTATION_STYLE_ASSIGNMENT((#20));
#22=MECHANICAL_DESIGN_GEOMETRIC_PRESENTATION_REPRESENTATION('NONE',(#23),#8);
#23=STYLED_ITEM('',(#21),#13);
#24=ADVANCED_BREP_SHAPE_REPRESENTATION('NONE',(#13),#8);
#25=SHAPE_REPRESENTATION_RELATIONSHIP('','',#3,#24);
#26=PRODUCT_DEFINITION_SHAPE('NONE','NONE',#1);
#27=MECHANICAL_CONTEXT('NONE',#32,'mechanical');
#28=PRODUCT_DEFINITION_FORMATION_WITH_SPECIFIED_SOURCE('ANY','UNSPECIFIED',#29,.NOT_KNOWN.);
#29=PRODUCT('','\X2\041F043E043B0443043E0441044C\X0\','NONE',(#27));
#30=PRODUCT_RELATED_PRODUCT_CATEGORY('detail','',(#29));
#31=DESIGN_CONTEXT('detailed design',#32,'design');
#32=APPLICATION_CONTEXT('configuration controlled 3d designs of mechanical parts and assemblies');
#33=APPLICATION_PROTOCOL_DEFINITION('international standard','config_control_design',
1994,#32);
#34=CC_DESIGN_DATE_AND_TIME_ASSIGNMENT(#35,#39,(#1));
#35=DATE_AND_TIME(#36,#37);
#36=CALENDAR_DATE(0,1,1);
#37=LOCAL_TIME(0,0,0.,#38);
#38=COORDINATED_UNIVERSAL_TIME_OFFSET(0,0,.AHEAD.);
#39=DATE_TIME_ROLE('creation_date');
#40=CC_DESIGN_APPROVAL(#41,(#1));
#41=APPROVAL(#42,'UNSPECIFIED');
#42=APPROVAL_STATUS('not_yet_approved');
#43=APPROVAL_DATE_TIME(#44,#41);
#44=DATE_AND_TIME(#45,#46);
#45=CALENDAR_DATE(0,1,1);
#46=LOCAL_TIME(0,0,0.,#47);
#47=COORDINATED_UNIVERSAL_TIME_OFFSET(0,0,.AHEAD.);
#48=PERSON('UNSPECIFIED','UNSPECIFIED','UNSPECIFIED',('UNSPECIFIED'),('UNSPECIFIED'),
('UNSPECIFIED'));
#49=ORGANIZATION('UNSPECIFIED','UNSPECIFIED','UNSPECIFIED');
#50=PERSON_AND_ORGANIZATION(#48,#49);
#51=PERSON_AND_ORGANIZATION_ROLE('creator');
#52=CC_DESIGN_PERSON_AND_ORGANIZATION_ASSIGNMENT(#50,#51,(#28,#1));
#53=ADVANCED_FACE('',(#73,#75),#77,.T.);
#54=ADVANCED_FACE('',(#82,#84),#86,.F.);
#55=ADVANCED_FACE('',(#91,#93),#95,.T.);
#56=ADVANCED_FACE('',(#100),#102,.F.);
#57=ADVANCED_FACE('',(#107),#109,.F.);
#58=ADVANCED_FACE('',(#114),#116,.F.);
#59=ADVANCED_FACE('',(#121),#123,.F.);
#60=ADVANCED_FACE('',(#128),#130,.F.);
#61=ADVANCED_FACE('',(#135),#137,.F.);
#62=ADVANCED_FACE('',(#142,#144),#146,.T.);
#63=ADVANCED_FACE('',(#151,#153),#155,.T.);
#64=ADVANCED_FACE('',(#160),#162,.T.);
#65=ADVANCED_FACE('',(#167),#169,.T.);
#66=ADVANCED_FACE('',(#174),#176,.T.);
#67=ADVANCED_FACE('',(#181),#183,.T.);
#68=ADVANCED_FACE('',(#188,#190),#192,.T.);
#69=ADVANCED_FACE('',(#197,#199),#201,.F.);
#70=ADVANCED_FACE('',(#206,#208),#210,.T.);
#71=ADVANCED_FACE('',(#215,#217),#219,.T.);
#72=ADVANCED_FACE('',(#224,#226),#228,.T.);
#73=FACE_BOUND('',#74,.T.);
#74=EDGE_LOOP('',(#233,#234,#235,#236,#237,#238));
#75=FACE_BOUND('',#76,.T.);
#76=EDGE_LOOP('',(#239));
#77=PLANE('',#78);
#78=AXIS2_PLACEMENT_3D('',#79,#80,#81);
#79=CARTESIAN_POINT('',(9.02818874841681E-16,4.89858719658941E-16,3.55));
#80=DIRECTION('',(-1.1285235935521E-16,-6.12323399573677E-17,1.));
#81=DIRECTION('',(-1.,1.22464679914735E-16,-1.1285235935521E-16));
#82=FACE_OUTER_BOUND('',#83,.T.);
#83=EDGE_LOOP('',(#240));
#84=FACE_OUTER_BOUND('',#85,.T.);
#85=EDGE_LOOP('',(#241));
#86=CYLINDRICAL_SURFACE('',#87,1.6);
#87=AXIS2_PLACEMENT_3D('',#88,#89,#90);
#88=CARTESIAN_POINT('',(-1.30344475055268E-15,-7.07233526507597E-16,11.55));
#89=DIRECTION('',(-1.1285235935521E-16,-6.12323399573677E-17,1.));
#90=DIRECTION('',(1.,-6.91021403302925E-33,1.1285235935521E-16));
#91=FACE_BOUND('',#92,.T.);
#92=EDGE_LOOP('',(#242));
#93=FACE_BOUND('',#94,.T.);
#94=EDGE_LOOP('',(#243,#244,#245,#246,#247,#248));
#95=PLANE('',#96);
#96=AXIS2_PLACEMENT_3D('',#97,#98,#99);
#97=CARTESIAN_POINT('',(-1.30344475055268E-15,-7.07233526507597E-16,11.55));
#98=DIRECTION('',(-1.1285235935521E-16,-6.12323399573677E-17,1.));
#99=DIRECTION('',(1.,-6.91021403302925E-33,1.1285235935521E-16));
#100=FACE_BOUND('',#101,.T.);
#101=EDGE_LOOP('',(#249,#250,#251,#252));
#102=PLANE('',#103);
#103=AXIS2_PLACEMENT_3D('',#104,#105,#106);
#104=CARTESIAN_POINT('',(-4.35358304527762E-16,-3.26202902092139,3.55));
#105=DIRECTION('',(0.5,-0.866025403784439,8.352112518016E-18));
#106=DIRECTION('',(0.866025403784439,0.5,1.36138951248394E-16));
#107=FACE_BOUND('',#108,.T.);
#108=EDGE_LOOP('',(#253,#254,#255,#256));
#109=PLANE('',#110);
#110=AXIS2_PLACEMENT_3D('',#111,#112,#113);
#111=CARTESIAN_POINT('',(-2.825,-1.63101451046069,3.55));
#112=DIRECTION('',(-0.5,-0.866025403784438,-1.03585218390847E-16));
#113=DIRECTION('',(0.866025403784438,-0.5,1.36138951248394E-16));
#114=FACE_BOUND('',#115,.T.);
#115=EDGE_LOOP('',(#257,#258,#259,#260));
#116=PLANE('',#117);
#117=AXIS2_PLACEMENT_3D('',#118,#119,#120);
#118=CARTESIAN_POINT('',(-2.825,1.63101451046069,3.55));
#119=DIRECTION('',(-1.,-4.08416853745182E-16,-1.11022302462516E-16));
#120=DIRECTION('',(4.08416853745182E-16,-1.,0.));
#121=FACE_BOUND('',#122,.T.);
#122=EDGE_LOOP('',(#261,#262,#263,#264));
#123=PLANE('',#124);
#124=AXIS2_PLACEMENT_3D('',#125,#126,#127);
#125=CARTESIAN_POINT('',(-1.77324819104346E-15,3.26202902092138,3.55));
#126=DIRECTION('',(-0.5,0.866025403784439,-8.352112518016E-18));
#127=DIRECTION('',(-0.866025403784439,-0.5,-1.36138951248394E-16));
#128=FACE_BOUND('',#129,.T.);
#129=EDGE_LOOP('',(#265,#266,#267,#268));
#130=PLANE('',#131);
#131=AXIS2_PLACEMENT_3D('',#132,#133,#134);
#132=CARTESIAN_POINT('',(2.825,1.63101451046069,3.55));
#133=DIRECTION('',(0.499999999999999,0.866025403784439,1.03585218390847E-16));
#134=DIRECTION('',(-0.866025403784439,0.499999999999999,-1.36138951248394E-16));
#135=FACE_BOUND('',#136,.T.);
#136=EDGE_LOOP('',(#269,#270,#271,#272));
#137=PLANE('',#138);
#138=AXIS2_PLACEMENT_3D('',#139,#140,#141);
#139=CARTESIAN_POINT('',(2.825,-1.63101451046069,3.55));
#140=DIRECTION('',(1.,1.36138951248394E-15,1.11022302462516E-16));
#141=DIRECTION('',(-1.36138951248394E-15,1.,0.));
#142=FACE_BOUND('',#143,.T.);
#143=EDGE_LOOP('',(#273,#274,#275,#276));
#144=FACE_BOUND('',#145,.T.);
#145=EDGE_LOOP('',(#277));
#146=PLANE('',#147);
#147=AXIS2_PLACEMENT_3D('',#148,#149,#150);
#148=CARTESIAN_POINT('',(0.,0.,0.));
#149=DIRECTION('',(1.1285235935521E-16,6.12323399573677E-17,-1.));
#150=DIRECTION('',(1.,-6.91021403302925E-33,1.1285235935521E-16));
#151=FACE_OUTER_BOUND('',#152,.T.);
#152=EDGE_LOOP('',(#278));
#153=FACE_OUTER_BOUND('',#154,.T.);
#154=EDGE_LOOP('',(#279));
#155=CYLINDRICAL_SURFACE('',#156,5.05);
#156=AXIS2_PLACEMENT_3D('',#157,#158,#159);
#157=CARTESIAN_POINT('',(-8.70663119617972E-16,-4.72411391604004E-16,7.71506350946109));
#158=DIRECTION('',(-1.1285235935521E-16,-6.12323399573677E-17,1.));
#159=DIRECTION('',(1.,3.85914100417385E-33,1.1285235935521E-16));
#160=FACE_BOUND('',#161,.T.);
#161=EDGE_LOOP('',(#280,#281,#282,#283));
#162=PLANE('',#163);
#163=AXIS2_PLACEMENT_3D('',#164,#165,#166);
#164=CARTESIAN_POINT('',(2.9,2.9,0.));
#165=DIRECTION('',(1.53134210293125E-16,1.,0.));
#166=DIRECTION('',(-1.,1.53134210293125E-16,0.));
#167=FACE_BOUND('',#168,.T.);
#168=EDGE_LOOP('',(#284,#285,#286,#287));
#169=PLANE('',#170);
#170=AXIS2_PLACEMENT_3D('',#171,#172,#173);
#171=CARTESIAN_POINT('',(2.9,-2.9,0.));
#172=DIRECTION('',(1.,-1.53134210293125E-16,0.));
#173=DIRECTION('',(1.53134210293125E-16,1.,0.));
#174=FACE_BOUND('',#175,.T.);
#175=EDGE_LOOP('',(#288,#289,#290,#291));
#176=PLANE('',#177);
#177=AXIS2_PLACEMENT_3D('',#178,#179,#180);
#178=CARTESIAN_POINT('',(-2.9,-2.9,0.));
#179=DIRECTION('',(-1.53134210293125E-16,-1.,0.));
#180=DIRECTION('',(1.,-1.53134210293125E-16,0.));
#181=FACE_BOUND('',#182,.T.);
#182=EDGE_LOOP('',(#292,#293,#294,#295));
#183=PLANE('',#184);
#184=AXIS2_PLACEMENT_3D('',#185,#186,#187);
#185=CARTESIAN_POINT('',(-2.9,2.9,0.));
#186=DIRECTION('',(-1.,1.53134210293125E-16,0.));
#187=DIRECTION('',(-1.53134210293125E-16,-1.,0.));
#188=FACE_OUTER_BOUND('',#189,.T.);
#189=EDGE_LOOP('',(#296));
#190=FACE_OUTER_BOUND('',#191,.T.);
#191=EDGE_LOOP('',(#297));
#192=CONICAL_SURFACE('',#193,5.675,0.5235987755983);
#193=AXIS2_PLACEMENT_3D('',#194,#195,#196);
#194=CARTESIAN_POINT('',(-7.48496857019694E-16,-4.06125439183697E-16,6.63253175473055));
#195=DIRECTION('',(1.1285235935521E-16,6.12323399573677E-17,-1.));
#196=DIRECTION('',(-1.,-1.72236421107799E-33,-1.1285235935521E-16));
#197=FACE_BOUND('',#198,.T.);
#198=EDGE_LOOP('',(#298));
#199=FACE_BOUND('',#200,.T.);
#200=EDGE_LOOP('',(#299,#300,#301,#302));
#201=PLANE('',#202);
#202=AXIS2_PLACEMENT_3D('',#203,#204,#205);
#203=CARTESIAN_POINT('',(0.,0.,2.));
#204=DIRECTION('',(0.,0.,1.));
#205=DIRECTION('',(-1.,1.22464679914735E-16,0.));
#206=FACE_OUTER_BOUND('',#207,.T.);
#207=EDGE_LOOP('',(#303));
#208=FACE_OUTER_BOUND('',#209,.T.);
#209=EDGE_LOOP('',(#304));
#210=CYLINDRICAL_SURFACE('',#211,6.3);
#211=AXIS2_PLACEMENT_3D('',#212,#213,#214);
#212=CARTESIAN_POINT('',(-5.13478235066206E-16,-2.78607146806023E-16,4.55));
#213=DIRECTION('',(-1.1285235935521E-16,-6.12323399573677E-17,1.));
#214=DIRECTION('',(1.,-6.10363683278125E-33,1.1285235935521E-16));
#215=FACE_OUTER_BOUND('',#216,.T.);
#216=EDGE_LOOP('',(#305));
#217=FACE_OUTER_BOUND('',#218,.T.);
#218=EDGE_LOOP('',(#306));
#219=CYLINDRICAL_SURFACE('',#220,4.9);
#220=AXIS2_PLACEMENT_3D('',#221,#222,#223);
#221=CARTESIAN_POINT('',(0.,0.,0.));
#222=DIRECTION('',(-1.1285235935521E-16,-6.12323399573677E-17,1.));
#223=DIRECTION('',(1.,-6.91021403302925E-33,1.1285235935521E-16));
#224=FACE_BOUND('',#225,.T.);
#225=EDGE_LOOP('',(#307));
#226=FACE_BOUND('',#227,.T.);
#227=EDGE_LOOP('',(#308));
#228=PLANE('',#229);
#229=AXIS2_PLACEMENT_3D('',#230,#231,#232);
#230=CARTESIAN_POINT('',(-5.13478235066206E-16,-2.78607146806023E-16,4.55));
#231=DIRECTION('',(1.1285235935521E-16,6.12323399573677E-17,-1.));
#232=DIRECTION('',(1.,-6.10363683278125E-33,1.1285235935521E-16));
#233=ORIENTED_EDGE('',*,*,#309,.T.);
#234=ORIENTED_EDGE('',*,*,#310,.T.);
#235=ORIENTED_EDGE('',*,*,#311,.T.);
#236=ORIENTED_EDGE('',*,*,#312,.T.);
#237=ORIENTED_EDGE('',*,*,#313,.T.);
#238=ORIENTED_EDGE('',*,*,#314,.T.);
#239=ORIENTED_EDGE('',*,*,#315,.F.);
#240=ORIENTED_EDGE('',*,*,#315,.T.);
#241=ORIENTED_EDGE('',*,*,#316,.F.);
#242=ORIENTED_EDGE('',*,*,#317,.T.);
#243=ORIENTED_EDGE('',*,*,#318,.T.);
#244=ORIENTED_EDGE('',*,*,#319,.T.);
#245=ORIENTED_EDGE('',*,*,#320,.T.);
#246=ORIENTED_EDGE('',*,*,#321,.T.);
#247=ORIENTED_EDGE('',*,*,#322,.T.);
#248=ORIENTED_EDGE('',*,*,#323,.T.);
#249=ORIENTED_EDGE('',*,*,#319,.F.);
#250=ORIENTED_EDGE('',*,*,#324,.F.);
#251=ORIENTED_EDGE('',*,*,#314,.F.);
#252=ORIENTED_EDGE('',*,*,#325,.T.);
#253=ORIENTED_EDGE('',*,*,#320,.F.);
#254=ORIENTED_EDGE('',*,*,#325,.F.);
#255=ORIENTED_EDGE('',*,*,#313,.F.);
#256=ORIENTED_EDGE('',*,*,#326,.T.);
#257=ORIENTED_EDGE('',*,*,#321,.F.);
#258=ORIENTED_EDGE('',*,*,#326,.F.);
#259=ORIENTED_EDGE('',*,*,#312,.F.);
#260=ORIENTED_EDGE('',*,*,#327,.T.);
#261=ORIENTED_EDGE('',*,*,#322,.F.);
#262=ORIENTED_EDGE('',*,*,#327,.F.);
#263=ORIENTED_EDGE('',*,*,#311,.F.);
#264=ORIENTED_EDGE('',*,*,#328,.T.);
#265=ORIENTED_EDGE('',*,*,#323,.F.);
#266=ORIENTED_EDGE('',*,*,#328,.F.);
#267=ORIENTED_EDGE('',*,*,#310,.F.);
#268=ORIENTED_EDGE('',*,*,#329,.T.);
#269=ORIENTED_EDGE('',*,*,#318,.F.);
#270=ORIENTED_EDGE('',*,*,#329,.F.);
#271=ORIENTED_EDGE('',*,*,#309,.F.);
#272=ORIENTED_EDGE('',*,*,#324,.T.);
#273=ORIENTED_EDGE('',*,*,#330,.T.);
#274=ORIENTED_EDGE('',*,*,#331,.T.);
#275=ORIENTED_EDGE('',*,*,#332,.T.);
#276=ORIENTED_EDGE('',*,*,#333,.T.);
#277=ORIENTED_EDGE('',*,*,#316,.T.);
#278=ORIENTED_EDGE('',*,*,#317,.F.);
#279=ORIENTED_EDGE('',*,*,#334,.T.);
#280=ORIENTED_EDGE('',*,*,#330,.F.);
#281=ORIENTED_EDGE('',*,*,#335,.T.);
#282=ORIENTED_EDGE('',*,*,#336,.T.);
#283=ORIENTED_EDGE('',*,*,#337,.F.);
#284=ORIENTED_EDGE('',*,*,#331,.F.);
#285=ORIENTED_EDGE('',*,*,#337,.T.);
#286=ORIENTED_EDGE('',*,*,#338,.T.);
#287=ORIENTED_EDGE('',*,*,#339,.F.);
#288=ORIENTED_EDGE('',*,*,#332,.F.);
#289=ORIENTED_EDGE('',*,*,#339,.T.);
#290=ORIENTED_EDGE('',*,*,#340,.T.);
#291=ORIENTED_EDGE('',*,*,#341,.F.);
#292=ORIENTED_EDGE('',*,*,#333,.F.);
#293=ORIENTED_EDGE('',*,*,#341,.T.);
#294=ORIENTED_EDGE('',*,*,#342,.T.);
#295=ORIENTED_EDGE('',*,*,#335,.F.);
#296=ORIENTED_EDGE('',*,*,#343,.T.);
#297=ORIENTED_EDGE('',*,*,#334,.F.);
#298=ORIENTED_EDGE('',*,*,#344,.F.);
#299=ORIENTED_EDGE('',*,*,#340,.F.);
#300=ORIENTED_EDGE('',*,*,#338,.F.);
#301=ORIENTED_EDGE('',*,*,#336,.F.);
#302=ORIENTED_EDGE('',*,*,#342,.F.);
#303=ORIENTED_EDGE('',*,*,#343,.F.);
#304=ORIENTED_EDGE('',*,*,#345,.T.);
#305=ORIENTED_EDGE('',*,*,#346,.F.);
#306=ORIENTED_EDGE('',*,*,#344,.T.);
#307=ORIENTED_EDGE('',*,*,#345,.F.);
#308=ORIENTED_EDGE('',*,*,#346,.T.);
#309=EDGE_CURVE('',#347,#348,#349,.T.);
#310=EDGE_CURVE('',#348,#350,#351,.T.);
#311=EDGE_CURVE('',#350,#352,#353,.T.);
#312=EDGE_CURVE('',#352,#354,#355,.T.);
#313=EDGE_CURVE('',#354,#356,#357,.T.);
#314=EDGE_CURVE('',#356,#347,#358,.T.);
#315=EDGE_CURVE('',#359,#359,#360,.T.);
#316=EDGE_CURVE('',#361,#361,#362,.T.);
#317=EDGE_CURVE('',#363,#363,#364,.T.);
#318=EDGE_CURVE('',#365,#366,#367,.F.);
#319=EDGE_CURVE('',#366,#368,#369,.F.);
#320=EDGE_CURVE('',#368,#370,#371,.F.);
#321=EDGE_CURVE('',#370,#372,#373,.F.);
#322=EDGE_CURVE('',#372,#374,#375,.F.);
#323=EDGE_CURVE('',#374,#365,#376,.F.);
#324=EDGE_CURVE('',#347,#366,#377,.T.);
#325=EDGE_CURVE('',#356,#368,#378,.T.);
#326=EDGE_CURVE('',#354,#370,#379,.T.);
#327=EDGE_CURVE('',#352,#372,#380,.T.);
#328=EDGE_CURVE('',#350,#374,#381,.T.);
#329=EDGE_CURVE('',#348,#365,#382,.T.);
#330=EDGE_CURVE('',#383,#384,#385,.T.);
#331=EDGE_CURVE('',#384,#386,#387,.T.);
#332=EDGE_CURVE('',#386,#388,#389,.T.);
#333=EDGE_CURVE('',#388,#383,#390,.T.);
#334=EDGE_CURVE('',#391,#391,#392,.T.);
#335=EDGE_CURVE('',#383,#393,#394,.T.);
#336=EDGE_CURVE('',#393,#395,#396,.F.);
#337=EDGE_CURVE('',#384,#395,#397,.T.);
#338=EDGE_CURVE('',#395,#398,#399,.F.);
#339=EDGE_CURVE('',#386,#398,#400,.T.);
#340=EDGE_CURVE('',#398,#401,#402,.F.);
#341=EDGE_CURVE('',#388,#401,#403,.T.);
#342=EDGE_CURVE('',#401,#393,#404,.F.);
#343=EDGE_CURVE('',#405,#405,#406,.T.);
#344=EDGE_CURVE('',#407,#407,#408,.T.);
#345=EDGE_CURVE('',#409,#409,#410,.T.);
#346=EDGE_CURVE('',#411,#411,#412,.T.);
#347=VERTEX_POINT('',#413);
#348=VERTEX_POINT('',#414);
#349=LINE('',#415,#416);
#350=VERTEX_POINT('',#418);
#351=LINE('',#419,#420);
#352=VERTEX_POINT('',#422);
#353=LINE('',#423,#424);
#354=VERTEX_POINT('',#426);
#355=LINE('',#427,#428);
#356=VERTEX_POINT('',#430);
#357=LINE('',#431,#432);
#358=LINE('',#434,#435);
#359=VERTEX_POINT('',#437);
#360=CIRCLE('',#438,1.6);
#361=VERTEX_POINT('',#442);
#362=CIRCLE('',#443,1.6);
#363=VERTEX_POINT('',#447);
#364=CIRCLE('',#448,5.05);
#365=VERTEX_POINT('',#452);
#366=VERTEX_POINT('',#453);
#367=LINE('',#454,#455);
#368=VERTEX_POINT('',#457);
#369=LINE('',#458,#459);
#370=VERTEX_POINT('',#461);
#371=LINE('',#462,#463);
#372=VERTEX_POINT('',#465);
#373=LINE('',#466,#467);
#374=VERTEX_POINT('',#469);
#375=LINE('',#470,#471);
#376=LINE('',#473,#474);
#377=LINE('',#476,#477);
#378=LINE('',#479,#480);
#379=LINE('',#482,#483);
#380=LINE('',#485,#486);
#381=LINE('',#488,#489);
#382=LINE('',#491,#492);
#383=VERTEX_POINT('',#494);
#384=VERTEX_POINT('',#495);
#385=LINE('',#496,#497);
#386=VERTEX_POINT('',#499);
#387=LINE('',#500,#501);
#388=VERTEX_POINT('',#503);
#389=LINE('',#504,#505);
#390=LINE('',#507,#508);
#391=VERTEX_POINT('',#510);
#392=CIRCLE('',#511,5.05);
#393=VERTEX_POINT('',#515);
#394=LINE('',#516,#517);
#395=VERTEX_POINT('',#519);
#396=LINE('',#520,#521);
#397=LINE('',#523,#524);
#398=VERTEX_POINT('',#526);
#399=LINE('',#527,#528);
#400=LINE('',#530,#531);
#401=VERTEX_POINT('',#533);
#402=LINE('',#534,#535);
#403=LINE('',#537,#538);
#404=LINE('',#540,#541);
#405=VERTEX_POINT('',#543);
#406=CIRCLE('',#544,6.3);
#407=VERTEX_POINT('',#548);
#408=CIRCLE('',#549,4.9);
#409=VERTEX_POINT('',#553);
#410=CIRCLE('',#554,6.3);
#411=VERTEX_POINT('',#558);
#412=CIRCLE('',#559,4.9);
#413=CARTESIAN_POINT('',(2.825,-1.63101451046069,3.55));
#414=CARTESIAN_POINT('',(2.825,1.63101451046069,3.55));
#415=CARTESIAN_POINT('',(2.825,-1.63101451046069,3.55));
#416=VECTOR('',#417,1.);
#417=DIRECTION('',(-1.36138951248394E-15,1.,0.));
#418=CARTESIAN_POINT('',(-1.77324819104346E-15,3.26202902092138,3.55));
#419=CARTESIAN_POINT('',(2.825,1.63101451046069,3.55));
#420=VECTOR('',#421,1.);
#421=DIRECTION('',(-0.866025403784439,0.499999999999999,-1.36138951248394E-16));
#422=CARTESIAN_POINT('',(-2.825,1.63101451046069,3.55));
#423=CARTESIAN_POINT('',(-1.77324819104346E-15,3.26202902092138,3.55));
#424=VECTOR('',#425,1.);
#425=DIRECTION('',(-0.866025403784439,-0.5,-1.36138951248394E-16));
#426=CARTESIAN_POINT('',(-2.825,-1.63101451046069,3.55));
#427=CARTESIAN_POINT('',(-2.825,1.63101451046069,3.55));
#428=VECTOR('',#429,1.);
#429=DIRECTION('',(4.08416853745182E-16,-1.,0.));
#430=CARTESIAN_POINT('',(-4.35358304527762E-16,-3.26202902092139,3.55));
#431=CARTESIAN_POINT('',(-2.825,-1.63101451046069,3.55));
#432=VECTOR('',#433,1.);
#433=DIRECTION('',(0.866025403784438,-0.5,1.36138951248394E-16));
#434=CARTESIAN_POINT('',(-4.35358304527762E-16,-3.26202902092139,3.55));
#435=VECTOR('',#436,1.);
#436=DIRECTION('',(0.866025403784439,0.5,1.36138951248394E-16));
#437=CARTESIAN_POINT('',(1.6,-4.13318294712232E-16,3.55));
#438=AXIS2_PLACEMENT_3D('',#439,#440,#441);
#439=CARTESIAN_POINT('',(-4.00625875710996E-16,-2.17374806848655E-16,3.55));
#440=DIRECTION('',(-1.1285235935521E-16,-6.12323399573677E-17,1.));
#441=DIRECTION('',(1.,0.,1.1285235935521E-16));
#442=CARTESIAN_POINT('',(1.6,-1.19980782612949E-32,1.95943487863576E-16));
#443=AXIS2_PLACEMENT_3D('',#444,#445,#446);
#444=CARTESIAN_POINT('',(0.,0.,0.));
#445=DIRECTION('',(-1.1285235935521E-16,-6.12323399573677E-17,1.));
#446=DIRECTION('',(1.,-6.91021403302925E-33,1.1285235935521E-16));
#447=CARTESIAN_POINT('',(5.05,-7.07233526507597E-16,11.55));
#448=AXIS2_PLACEMENT_3D('',#449,#450,#451);
#449=CARTESIAN_POINT('',(-1.30344475055268E-15,-7.07233526507597E-16,11.55));
#450=DIRECTION('',(-1.1285235935521E-16,-6.12323399573677E-17,1.));
#451=DIRECTION('',(1.,-6.91021403302925E-33,1.1285235935521E-16));
#452=CARTESIAN_POINT('',(2.825,1.63101451046069,11.55));
#453=CARTESIAN_POINT('',(2.825,-1.63101451046069,11.55));
#454=CARTESIAN_POINT('',(2.825,-1.63101451046069,11.55));
#455=VECTOR('',#456,1.);
#456=DIRECTION('',(-1.36138951248394E-15,1.,0.));
#457=CARTESIAN_POINT('',(-1.33817717936944E-15,-3.26202902092139,11.55));
#458=CARTESIAN_POINT('',(-1.41196507640527E-15,-3.26202902092139,11.55));
#459=VECTOR('',#460,1.);
#460=DIRECTION('',(0.866025403784439,0.5,0.));
#461=CARTESIAN_POINT('',(-2.825,-1.63101451046069,11.55));
#462=CARTESIAN_POINT('',(-2.825,-1.63101451046069,11.55));
#463=VECTOR('',#464,1.);
#464=DIRECTION('',(0.866025403784438,-0.5,0.));
#465=CARTESIAN_POINT('',(-2.825,1.63101451046069,11.55));
#466=CARTESIAN_POINT('',(-2.825,1.63101451046069,11.55));
#467=VECTOR('',#468,1.);
#468=DIRECTION('',(2.72277902496788E-16,-1.,0.));
#469=CARTESIAN_POINT('',(-2.67606706588514E-15,3.26202902092138,11.55));
#470=CARTESIAN_POINT('',(-2.65370682860179E-15,3.26202902092138,11.55));
#471=VECTOR('',#472,1.);
#472=DIRECTION('',(-0.866025403784439,-0.5,0.));
#473=CARTESIAN_POINT('',(2.825,1.63101451046069,11.55));
#474=VECTOR('',#475,1.);
#475=DIRECTION('',(-0.866025403784439,0.499999999999999,0.));
#476=CARTESIAN_POINT('',(2.825,-1.63101451046069,3.55));
#477=VECTOR('',#478,1.);
#478=DIRECTION('',(-1.11022302462516E-16,-8.32667268468867E-17,1.));
#479=CARTESIAN_POINT('',(-6.61768362113944E-16,-3.26202902092139,3.55));
#480=VECTOR('',#481,1.);
#481=DIRECTION('',(-1.41272379388157E-16,-5.55111512312578E-17,1.));
#482=CARTESIAN_POINT('',(-2.825,-1.63101451046069,3.55));
#483=VECTOR('',#484,1.);
#484=DIRECTION('',(-1.11022302462516E-16,-5.55111512312578E-17,1.));
#485=CARTESIAN_POINT('',(-2.825,1.63101451046069,3.55));
#486=VECTOR('',#487,1.);
#487=DIRECTION('',(-1.11022302462516E-16,-5.55111512312578E-17,1.));
#488=CARTESIAN_POINT('',(-2.21889172507192E-15,3.26202902092138,3.55));
#489=VECTOR('',#490,1.);
#490=DIRECTION('',(-8.57612281568992E-17,-1.11022302462516E-16,1.));
#491=CARTESIAN_POINT('',(2.825,1.63101451046069,3.55));
#492=VECTOR('',#493,1.);
#493=DIRECTION('',(-1.11022302462516E-16,-5.55111512312578E-17,1.));
#494=CARTESIAN_POINT('',(-2.9,2.9,0.));
#495=CARTESIAN_POINT('',(2.9,2.9,0.));
#496=CARTESIAN_POINT('',(-2.9,2.9,-1.49698056253743E-16));
#497=VECTOR('',#498,1.);
#498=DIRECTION('',(1.,-1.53134210293125E-16,1.1285235935521E-16));
#499=CARTESIAN_POINT('',(2.9,-2.9,0.));
#500=CARTESIAN_POINT('',(2.9,2.9,5.04845628006476E-16));
#501=VECTOR('',#502,1.);
#502=DIRECTION('',(-1.53134210293125E-16,-1.,-6.12323399573677E-17));
#503=CARTESIAN_POINT('',(-2.9,-2.9,0.));
#504=CARTESIAN_POINT('',(2.9,-2.9,1.49698056253743E-16));
#505=VECTOR('',#506,1.);
#506=DIRECTION('',(-1.,1.53134210293125E-16,-1.1285235935521E-16));
#507=CARTESIAN_POINT('',(-2.9,-2.9,-5.04845628006476E-16));
#508=VECTOR('',#509,1.);
#509=DIRECTION('',(1.53134210293125E-16,1.,6.12323399573677E-17));
#510=CARTESIAN_POINT('',(5.05,-4.72411391604004E-16,7.7150635094611));
#511=AXIS2_PLACEMENT_3D('',#512,#513,#514);
#512=CARTESIAN_POINT('',(-8.70663119617972E-16,-4.72411391604004E-16,7.71506350946109));
#513=DIRECTION('',(-1.1285235935521E-16,-6.12323399573677E-17,1.));
#514=DIRECTION('',(1.,3.85914100417385E-33,1.1285235935521E-16));
#515=CARTESIAN_POINT('',(-2.9,2.9,2.));
#516=CARTESIAN_POINT('',(-2.9,2.9,0.));
#517=VECTOR('',#518,1.);
#518=DIRECTION('',(0.,0.,1.));
#519=CARTESIAN_POINT('',(2.9,2.9,2.));
#520=CARTESIAN_POINT('',(2.9,2.9,2.));
#521=VECTOR('',#522,1.);
#522=DIRECTION('',(-1.,1.53134210293125E-16,0.));
#523=CARTESIAN_POINT('',(2.9,2.9,0.));
#524=VECTOR('',#525,1.);
#525=DIRECTION('',(0.,0.,1.));
#526=CARTESIAN_POINT('',(2.9,-2.9,2.));
#527=CARTESIAN_POINT('',(2.9,-2.9,2.));
#528=VECTOR('',#529,1.);
#529=DIRECTION('',(1.53134210293125E-16,1.,0.));
#530=CARTESIAN_POINT('',(2.9,-2.9,0.));
#531=VECTOR('',#532,1.);
#532=DIRECTION('',(0.,0.,1.));
#533=CARTESIAN_POINT('',(-2.9,-2.9,2.));
#534=CARTESIAN_POINT('',(-2.9,-2.9,2.));
#535=VECTOR('',#536,1.);
#536=DIRECTION('',(1.,-1.53134210293125E-16,0.));
#537=CARTESIAN_POINT('',(-2.9,-2.9,0.));
#538=VECTOR('',#539,1.);
#539=DIRECTION('',(0.,0.,1.));
#540=CARTESIAN_POINT('',(-2.9,2.9,2.));
#541=VECTOR('',#542,1.);
#542=DIRECTION('',(-1.53134210293125E-16,-1.,0.));
#543=CARTESIAN_POINT('',(6.3,-3.39839486763391E-16,5.55));
#544=AXIS2_PLACEMENT_3D('',#545,#546,#547);
#545=CARTESIAN_POINT('',(-6.26330594421416E-16,-3.39839486763391E-16,5.55));
#546=DIRECTION('',(-1.1285235935521E-16,-6.12323399573677E-17,1.));
#547=DIRECTION('',(1.,1.72236421107799E-33,1.1285235935521E-16));
#548=CARTESIAN_POINT('',(4.9,-7.22541611496938E-16,2.));
#549=AXIS2_PLACEMENT_3D('',#550,#551,#552);
#550=CARTESIAN_POINT('',(-2.2570471871042E-16,-1.22464679914735E-16,2.));
#551=DIRECTION('',(0.,0.,1.));
#552=DIRECTION('',(1.,0.,0.));
#553=CARTESIAN_POINT('',(6.3,-2.78607146806023E-16,4.55));
#554=AXIS2_PLACEMENT_3D('',#555,#556,#557);
#555=CARTESIAN_POINT('',(-5.13478235066206E-16,-2.78607146806023E-16,4.55));
#556=DIRECTION('',(-1.1285235935521E-16,-6.12323399573677E-17,1.));
#557=DIRECTION('',(1.,-6.10363683278125E-33,1.1285235935521E-16));
#558=CARTESIAN_POINT('',(4.9,-2.78607146806023E-16,4.55));
#559=AXIS2_PLACEMENT_3D('',#560,#561,#562);
#560=CARTESIAN_POINT('',(-5.13478235066206E-16,-2.78607146806023E-16,4.55));
#561=DIRECTION('',(-1.1285235935521E-16,-6.12323399573677E-17,1.));
#562=DIRECTION('',(1.,-6.10363683278125E-33,1.1285235935521E-16));
ENDSEC;
END-ISO-10303-21;
