ISO-10303-21;
HEADER;
FILE_DESCRIPTION(('STEP AP203'),
    '1');
FILE_NAME('ВтулкаКолеса',
    '',
    ('UNSPECIFIED'),
    ('UNSPECIFIED'),
    'C3D Converter',
    'C3D Toolkit',
    '');
FILE_SCHEMA(('CONFIG_CONTROL_DESIGN'));
ENDSEC;

DATA;
#1=PRODUCT_DEFINITION('','UNSPECIFIED',#28,#31);
#2=SHAPE_DEFINITION_REPRESENTATION(#26,#3);
#3=SHAPE_REPRESENTATION('NONE',(#4),#8);
#4=AXIS2_PLACEMENT_3D('',#5,#6,#7);
#5=CARTESIAN_POINT('',(0.,0.,0.));
#6=DIRECTION('',(0.,0.,1.));
#7=DIRECTION('',(1.,0.,0.));
#8=(GEOMETRIC_REPRESENTATION_CONTEXT(3)GLOBAL_UNCERTAINTY_ASSIGNED_CONTEXT((#10))
GLOBAL_UNIT_ASSIGNED_CONTEXT((#9,#11,#12))REPRESENTATION_CONTEXT('NONE','NONE'));
#9=(LENGTH_UNIT()NAMED_UNIT(*)SI_UNIT(.MILLI.,.METRE.));
#10=UNCERTAINTY_MEASURE_WITH_UNIT(LENGTH_MEASURE(1.E-5),#9,'NONE','NONE');
#11=(NAMED_UNIT(*)PLANE_ANGLE_UNIT()SI_UNIT($,.RADIAN.));
#12=(NAMED_UNIT(*)SI_UNIT($,.STERADIAN.)SOLID_ANGLE_UNIT());
#13=MANIFOLD_SOLID_BREP('',#14);
#14=CLOSED_SHELL('',(#53,#54,#55,#56,#57,#58,#59,#60,#61,#62,#63,#64,#65,#66,#67,
#68,#69,#70,#71,#72,#73,#74,#75,#76,#77,#78,#79,#80,#81,#82));
#15=COLOUR_RGB('',0.564705882352941,0.564705882352941,0.564705882352941);
#16=FILL_AREA_STYLE_COLOUR('',#15);
#17=FILL_AREA_STYLE($,(#16));
#18=SURFACE_STYLE_FILL_AREA(#17);
#19=SURFACE_SIDE_STYLE('',(#18));
#20=SURFACE_STYLE_USAGE(.BOTH.,#19);
#21=PRESENTATION_STYLE_ASSIGNMENT((#20));
#22=MECHANICAL_DESIGN_GEOMETRIC_PRESENTATION_REPRESENTATION('NONE',(#23),#8);
#23=STYLED_ITEM('',(#21),#13);
#24=ADVANCED_BREP_SHAPE_REPRESENTATION('NONE',(#13),#8);
#25=SHAPE_REPRESENTATION_RELATIONSHIP('','',#3,#24);
#26=PRODUCT_DEFINITION_SHAPE('NONE','NONE',#1);
#27=MECHANICAL_CONTEXT('NONE',#32,'mechanical');
#28=PRODUCT_DEFINITION_FORMATION_WITH_SPECIFIED_SOURCE('ANY','UNSPECIFIED',#29,.NOT_KNOWN.);
#29=PRODUCT('','\X2\043204420443043B043A0430041A043E043B043504410430\X0\','NONE',
(#27));
#30=PRODUCT_RELATED_PRODUCT_CATEGORY('detail','',(#29));
#31=DESIGN_CONTEXT('detailed design',#32,'design');
#32=APPLICATION_CONTEXT('configuration controlled 3d designs of mechanical parts and assemblies');
#33=APPLICATION_PROTOCOL_DEFINITION('international standard','config_control_design',
1994,#32);
#34=CC_DESIGN_DATE_AND_TIME_ASSIGNMENT(#35,#39,(#1));
#35=DATE_AND_TIME(#36,#37);
#36=CALENDAR_DATE(0,1,1);
#37=LOCAL_TIME(0,0,0.,#38);
#38=COORDINATED_UNIVERSAL_TIME_OFFSET(0,0,.AHEAD.);
#39=DATE_TIME_ROLE('creation_date');
#40=CC_DESIGN_APPROVAL(#41,(#1));
#41=APPROVAL(#42,'UNSPECIFIED');
#42=APPROVAL_STATUS('not_yet_approved');
#43=APPROVAL_DATE_TIME(#44,#41);
#44=DATE_AND_TIME(#45,#46);
#45=CALENDAR_DATE(0,1,1);
#46=LOCAL_TIME(0,0,0.,#47);
#47=COORDINATED_UNIVERSAL_TIME_OFFSET(0,0,.AHEAD.);
#48=PERSON('UNSPECIFIED','UNSPECIFIED','UNSPECIFIED',('UNSPECIFIED'),('UNSPECIFIED'),
('UNSPECIFIED'));
#49=ORGANIZATION('UNSPECIFIED','UNSPECIFIED','UNSPECIFIED');
#50=PERSON_AND_ORGANIZATION(#48,#49);
#51=PERSON_AND_ORGANIZATION_ROLE('creator');
#52=CC_DESIGN_PERSON_AND_ORGANIZATION_ASSIGNMENT(#50,#51,(#28,#1));
#53=ADVANCED_FACE('',(#83),#85,.F.);
#54=ADVANCED_FACE('',(#90),#92,.F.);
#55=ADVANCED_FACE('',(#97),#99,.F.);
#56=ADVANCED_FACE('',(#104),#106,.F.);
#57=ADVANCED_FACE('',(#111),#113,.F.);
#58=ADVANCED_FACE('',(#118),#120,.F.);
#59=ADVANCED_FACE('',(#125,#127),#129,.F.);
#60=ADVANCED_FACE('',(#134,#136),#138,.T.);
#61=ADVANCED_FACE('',(#143,#145),#147,.F.);
#62=ADVANCED_FACE('',(#152,#154),#156,.F.);
#63=ADVANCED_FACE('',(#161),#163,.F.);
#64=ADVANCED_FACE('',(#168),#170,.F.);
#65=ADVANCED_FACE('',(#175),#177,.F.);
#66=ADVANCED_FACE('',(#182),#184,.F.);
#67=ADVANCED_FACE('',(#189),#191,.F.);
#68=ADVANCED_FACE('',(#196),#198,.F.);
#69=ADVANCED_FACE('',(#203,#205),#207,.F.);
#70=ADVANCED_FACE('',(#212),#214,.T.);
#71=ADVANCED_FACE('',(#219),#221,.T.);
#72=ADVANCED_FACE('',(#226),#228,.T.);
#73=ADVANCED_FACE('',(#233),#235,.T.);
#74=ADVANCED_FACE('',(#240),#242,.T.);
#75=ADVANCED_FACE('',(#247),#249,.T.);
#76=ADVANCED_FACE('',(#254,#256),#258,.T.);
#77=ADVANCED_FACE('',(#263),#265,.T.);
#78=ADVANCED_FACE('',(#270),#272,.T.);
#79=ADVANCED_FACE('',(#277),#279,.T.);
#80=ADVANCED_FACE('',(#284),#286,.T.);
#81=ADVANCED_FACE('',(#291),#293,.T.);
#82=ADVANCED_FACE('',(#298),#300,.T.);
#83=FACE_BOUND('',#84,.T.);
#84=EDGE_LOOP('',(#305,#306,#307,#308));
#85=PLANE('',#86);
#86=AXIS2_PLACEMENT_3D('',#87,#88,#89);
#87=CARTESIAN_POINT('',(-4.1461404385998E-16,-2.88675134594813,0.));
#88=DIRECTION('',(0.5,-0.866025403784439,0.));
#89=DIRECTION('',(0.866025403784439,0.5,0.));
#90=FACE_BOUND('',#91,.T.);
#91=EDGE_LOOP('',(#309,#310,#311,#312));
#92=PLANE('',#93);
#93=AXIS2_PLACEMENT_3D('',#94,#95,#96);
#94=CARTESIAN_POINT('',(2.5,-1.44337567297406,0.));
#95=DIRECTION('',(1.,0.,0.));
#96=DIRECTION('',(0.,1.,0.));
#97=FACE_BOUND('',#98,.T.);
#98=EDGE_LOOP('',(#313,#314,#315,#316));
#99=PLANE('',#100);
#100=AXIS2_PLACEMENT_3D('',#101,#102,#103);
#101=CARTESIAN_POINT('',(2.5,1.44337567297406,0.));
#102=DIRECTION('',(0.5,0.866025403784439,0.));
#103=DIRECTION('',(-0.866025403784439,0.5,0.));
#104=FACE_BOUND('',#105,.T.);
#105=EDGE_LOOP('',(#317,#318,#319,#320));
#106=PLANE('',#107);
#107=AXIS2_PLACEMENT_3D('',#108,#109,#110);
#108=CARTESIAN_POINT('',(8.35138225979142E-16,2.88675134594813,0.));
#109=DIRECTION('',(-0.499999999999999,0.866025403784439,0.));
#110=DIRECTION('',(-0.866025403784439,-0.499999999999999,0.));
#111=FACE_BOUND('',#112,.T.);
#112=EDGE_LOOP('',(#321,#322,#323,#324));
#113=PLANE('',#114);
#114=AXIS2_PLACEMENT_3D('',#115,#116,#117);
#115=CARTESIAN_POINT('',(-2.5,1.44337567297407,0.));
#116=DIRECTION('',(-1.,0.,0.));
#117=DIRECTION('',(0.,-1.,0.));
#118=FACE_BOUND('',#119,.T.);
#119=EDGE_LOOP('',(#325,#326,#327,#328));
#120=PLANE('',#121);
#121=AXIS2_PLACEMENT_3D('',#122,#123,#124);
#122=CARTESIAN_POINT('',(-2.5,-1.44337567297406,0.));
#123=DIRECTION('',(-0.5,-0.866025403784438,0.));
#124=DIRECTION('',(0.866025403784438,-0.5,0.));
#125=FACE_BOUND('',#126,.T.);
#126=EDGE_LOOP('',(#329,#330,#331,#332,#333,#334));
#127=FACE_BOUND('',#128,.T.);
#128=EDGE_LOOP('',(#335));
#129=PLANE('',#130);
#130=AXIS2_PLACEMENT_3D('',#131,#132,#133);
#131=CARTESIAN_POINT('',(0.,0.,0.));
#132=DIRECTION('',(0.,0.,1.));
#133=DIRECTION('',(-1.,1.22464679914735E-16,0.));
#134=FACE_OUTER_BOUND('',#135,.T.);
#135=EDGE_LOOP('',(#336));
#136=FACE_OUTER_BOUND('',#137,.T.);
#137=EDGE_LOOP('',(#337));
#138=CYLINDRICAL_SURFACE('',#139,5.);
#139=AXIS2_PLACEMENT_3D('',#140,#141,#142);
#140=CARTESIAN_POINT('',(0.,0.,-7.5));
#141=DIRECTION('',(0.,0.,1.));
#142=DIRECTION('',(-1.,1.22464679914735E-16,0.));
#143=FACE_BOUND('',#144,.T.);
#144=EDGE_LOOP('',(#338,#339,#340,#341,#342,#343));
#145=FACE_BOUND('',#146,.T.);
#146=EDGE_LOOP('',(#344));
#147=PLANE('',#148);
#148=AXIS2_PLACEMENT_3D('',#149,#150,#151);
#149=CARTESIAN_POINT('',(0.,0.,4.5));
#150=DIRECTION('',(0.,0.,1.));
#151=DIRECTION('',(-1.,1.22464679914735E-16,0.));
#152=FACE_BOUND('',#153,.T.);
#153=EDGE_LOOP('',(#345));
#154=FACE_BOUND('',#155,.T.);
#155=EDGE_LOOP('',(#346,#347,#348,#349,#350,#351));
#156=PLANE('',#157);
#157=AXIS2_PLACEMENT_3D('',#158,#159,#160);
#158=CARTESIAN_POINT('',(0.,0.,-7.5));
#159=DIRECTION('',(0.,0.,1.));
#160=DIRECTION('',(-1.,1.22464679914735E-16,0.));
#161=FACE_BOUND('',#162,.T.);
#162=EDGE_LOOP('',(#352,#353,#354,#355));
#163=PLANE('',#164);
#164=AXIS2_PLACEMENT_3D('',#165,#166,#167);
#165=CARTESIAN_POINT('',(6.,-5.4641016151529,0.5));
#166=DIRECTION('',(-0.707106781186548,0.,0.707106781186548));
#167=DIRECTION('',(0.,1.,0.));
#168=FACE_BOUND('',#169,.T.);
#169=EDGE_LOOP('',(#356,#357,#358,#359));
#170=PLANE('',#171);
#171=AXIS2_PLACEMENT_3D('',#172,#173,#174);
#172=CARTESIAN_POINT('',(-1.73205080750447,-7.9282032303337,0.5));
#173=DIRECTION('',(-0.353553390598039,0.612372435693043,0.707106781186548));
#174=DIRECTION('',(0.866025403780548,0.500000000006739,2.53981144300298E-18));
#175=FACE_BOUND('',#176,.T.);
#176=EDGE_LOOP('',(#360,#361,#362,#363));
#177=PLANE('',#178);
#178=AXIS2_PLACEMENT_3D('',#179,#180,#181);
#179=CARTESIAN_POINT('',(-7.73205080756867,-2.46410161514778,0.5));
#180=DIRECTION('',(0.353553390593399,0.612372435695723,0.707106781186546));
#181=DIRECTION('',(0.866025403784337,-0.500000000000177,2.87346863082574E-17));
#182=FACE_BOUND('',#183,.T.);
#183=EDGE_LOOP('',(#364,#365,#366,#367));
#184=PLANE('',#185);
#185=AXIS2_PLACEMENT_3D('',#186,#187,#188);
#186=CARTESIAN_POINT('',(-6.,5.46410161512927,0.5));
#187=DIRECTION('',(0.707106781186546,3.59183578855332E-18,0.707106781186549));
#188=DIRECTION('',(0.,-1.,5.07962288598916E-18));
#189=FACE_BOUND('',#190,.T.);
#190=EDGE_LOOP('',(#368,#369,#370,#371));
#191=PLANE('',#192);
#192=AXIS2_PLACEMENT_3D('',#193,#194,#195);
#193=CARTESIAN_POINT('',(1.73205080756191,7.9282032302829,0.5));
#194=DIRECTION('',(0.353553390594456,-0.612372435695113,0.707106781186547));
#195=DIRECTION('',(-0.866025403783474,-0.500000000001671,0.));
#196=FACE_BOUND('',#197,.T.);
#197=EDGE_LOOP('',(#372,#373,#374,#375));
#198=PLANE('',#199);
#199=AXIS2_PLACEMENT_3D('',#200,#201,#202);
#200=CARTESIAN_POINT('',(7.73205080756708,2.46410161512139,0.5));
#201=DIRECTION('',(-0.353553390594374,-0.612372435695158,0.707106781186548));
#202=DIRECTION('',(-0.86602540378354,0.500000000001557,-2.87346863083974E-17));
#203=FACE_OUTER_BOUND('',#204,.T.);
#204=EDGE_LOOP('',(#376));
#205=FACE_OUTER_BOUND('',#206,.T.);
#206=EDGE_LOOP('',(#377));
#207=CYLINDRICAL_SURFACE('',#208,1.5);
#208=AXIS2_PLACEMENT_3D('',#209,#210,#211);
#209=CARTESIAN_POINT('',(0.,0.,0.));
#210=DIRECTION('',(0.,0.,1.));
#211=DIRECTION('',(-1.,1.22464679914735E-16,0.));
#212=FACE_BOUND('',#213,.T.);
#213=EDGE_LOOP('',(#378,#379,#380,#381));
#214=PLANE('',#215);
#215=AXIS2_PLACEMENT_3D('',#216,#217,#218);
#216=CARTESIAN_POINT('',(6.,-3.4641016151529,0.));
#217=DIRECTION('',(1.,0.,0.));
#218=DIRECTION('',(0.,1.,0.));
#219=FACE_BOUND('',#220,.T.);
#220=EDGE_LOOP('',(#382,#383,#384,#385));
#221=PLANE('',#222);
#222=AXIS2_PLACEMENT_3D('',#223,#224,#225);
#223=CARTESIAN_POINT('',(5.66295710995126E-11,-6.92820323032022,0.));
#224=DIRECTION('',(0.500000000006739,-0.866025403780548,0.));
#225=DIRECTION('',(0.866025403780548,0.500000000006739,0.));
#226=FACE_BOUND('',#227,.T.);
#227=EDGE_LOOP('',(#386,#387,#388,#389));
#228=PLANE('',#229);
#229=AXIS2_PLACEMENT_3D('',#230,#231,#232);
#230=CARTESIAN_POINT('',(-6.,-3.46410161514813,0.));
#231=DIRECTION('',(-0.500000000000177,-0.866025403784337,0.));
#232=DIRECTION('',(0.866025403784337,-0.500000000000177,0.));
#233=FACE_BOUND('',#234,.T.);
#234=EDGE_LOOP('',(#390,#391,#392,#393));
#235=PLANE('',#236);
#236=AXIS2_PLACEMENT_3D('',#237,#238,#239);
#237=CARTESIAN_POINT('',(-6.,3.46410161512927,0.));
#238=DIRECTION('',(-1.,0.,0.));
#239=DIRECTION('',(0.,-1.,0.));
#240=FACE_BOUND('',#241,.T.);
#241=EDGE_LOOP('',(#394,#395,#396,#397));
#242=PLANE('',#243);
#243=AXIS2_PLACEMENT_3D('',#244,#245,#246);
#244=CARTESIAN_POINT('',(-5.0416629176471E-12,6.92820323027956,0.));
#245=DIRECTION('',(-0.500000000001671,0.866025403783474,0.));
#246=DIRECTION('',(-0.866025403783474,-0.500000000001671,0.));
#247=FACE_BOUND('',#248,.T.);
#248=EDGE_LOOP('',(#398,#399,#400,#401));
#249=PLANE('',#250);
#250=AXIS2_PLACEMENT_3D('',#251,#252,#253);
#251=CARTESIAN_POINT('',(6.,3.46410161512451,0.));
#252=DIRECTION('',(0.500000000001557,0.86602540378354,0.));
#253=DIRECTION('',(-0.86602540378354,0.500000000001557,0.));
#254=FACE_BOUND('',#255,.T.);
#255=EDGE_LOOP('',(#402,#403,#404,#405,#406,#407));
#256=FACE_BOUND('',#257,.T.);
#257=EDGE_LOOP('',(#408));
#258=PLANE('',#259);
#259=AXIS2_PLACEMENT_3D('',#260,#261,#262);
#260=CARTESIAN_POINT('',(0.,0.,6.));
#261=DIRECTION('',(0.,0.,1.));
#262=DIRECTION('',(-1.,1.22464679914735E-16,0.));
#263=FACE_BOUND('',#264,.T.);
#264=EDGE_LOOP('',(#409,#410,#411,#412));
#265=PLANE('',#266);
#266=AXIS2_PLACEMENT_3D('',#267,#268,#269);
#267=CARTESIAN_POINT('',(6.,-5.4641016151529,5.5));
#268=DIRECTION('',(0.707106781186548,0.,0.707106781186548));
#269=DIRECTION('',(0.,1.,0.));
#270=FACE_BOUND('',#271,.T.);
#271=EDGE_LOOP('',(#413,#414,#415,#416));
#272=PLANE('',#273);
#273=AXIS2_PLACEMENT_3D('',#274,#275,#276);
#274=CARTESIAN_POINT('',(-1.73205080750447,-7.9282032303337,5.5));
#275=DIRECTION('',(0.353553390598039,-0.612372435693043,0.707106781186548));
#276=DIRECTION('',(0.866025403780548,0.500000000006739,2.87346863085216E-17));
#277=FACE_BOUND('',#278,.T.);
#278=EDGE_LOOP('',(#417,#418,#419,#420));
#279=PLANE('',#280);
#280=AXIS2_PLACEMENT_3D('',#281,#282,#283);
#281=CARTESIAN_POINT('',(-7.73205080756867,-2.46410161514778,5.5));
#282=DIRECTION('',(-0.353553390593399,-0.612372435695723,0.707106781186547));
#283=DIRECTION('',(0.866025403784337,-0.500000000000177,0.));
#284=FACE_BOUND('',#285,.T.);
#285=EDGE_LOOP('',(#421,#422,#423,#424));
#286=PLANE('',#287);
#287=AXIS2_PLACEMENT_3D('',#288,#289,#290);
#288=CARTESIAN_POINT('',(-6.,5.46410161512927,5.5));
#289=DIRECTION('',(-0.707106781186546,0.,0.707106781186549));
#290=DIRECTION('',(0.,-1.,0.));
#291=FACE_BOUND('',#292,.T.);
#292=EDGE_LOOP('',(#425,#426,#427,#428));
#293=PLANE('',#294);
#294=AXIS2_PLACEMENT_3D('',#295,#296,#297);
#295=CARTESIAN_POINT('',(1.73205080756191,7.9282032302829,5.5));
#296=DIRECTION('',(-0.353553390594456,0.612372435695113,0.707106781186547));
#297=DIRECTION('',(-0.866025403783474,-0.500000000001671,0.));
#298=FACE_BOUND('',#299,.T.);
#299=EDGE_LOOP('',(#429,#430,#431,#432));
#300=PLANE('',#301);
#301=AXIS2_PLACEMENT_3D('',#302,#303,#304);
#302=CARTESIAN_POINT('',(7.73205080756708,2.46410161512139,5.5));
#303=DIRECTION('',(0.353553390594374,0.612372435695158,0.707106781186548));
#304=DIRECTION('',(-0.86602540378354,0.500000000001557,2.87346863083974E-17));
#305=ORIENTED_EDGE('',*,*,#433,.T.);
#306=ORIENTED_EDGE('',*,*,#434,.F.);
#307=ORIENTED_EDGE('',*,*,#435,.F.);
#308=ORIENTED_EDGE('',*,*,#436,.T.);
#309=ORIENTED_EDGE('',*,*,#437,.T.);
#310=ORIENTED_EDGE('',*,*,#438,.F.);
#311=ORIENTED_EDGE('',*,*,#439,.F.);
#312=ORIENTED_EDGE('',*,*,#434,.T.);
#313=ORIENTED_EDGE('',*,*,#440,.T.);
#314=ORIENTED_EDGE('',*,*,#441,.F.);
#315=ORIENTED_EDGE('',*,*,#442,.F.);
#316=ORIENTED_EDGE('',*,*,#438,.T.);
#317=ORIENTED_EDGE('',*,*,#443,.T.);
#318=ORIENTED_EDGE('',*,*,#444,.F.);
#319=ORIENTED_EDGE('',*,*,#445,.F.);
#320=ORIENTED_EDGE('',*,*,#441,.T.);
#321=ORIENTED_EDGE('',*,*,#446,.T.);
#322=ORIENTED_EDGE('',*,*,#447,.F.);
#323=ORIENTED_EDGE('',*,*,#448,.F.);
#324=ORIENTED_EDGE('',*,*,#444,.T.);
#325=ORIENTED_EDGE('',*,*,#449,.T.);
#326=ORIENTED_EDGE('',*,*,#436,.F.);
#327=ORIENTED_EDGE('',*,*,#450,.F.);
#328=ORIENTED_EDGE('',*,*,#447,.T.);
#329=ORIENTED_EDGE('',*,*,#451,.F.);
#330=ORIENTED_EDGE('',*,*,#452,.F.);
#331=ORIENTED_EDGE('',*,*,#453,.F.);
#332=ORIENTED_EDGE('',*,*,#454,.F.);
#333=ORIENTED_EDGE('',*,*,#455,.F.);
#334=ORIENTED_EDGE('',*,*,#456,.F.);
#335=ORIENTED_EDGE('',*,*,#457,.F.);
#336=ORIENTED_EDGE('',*,*,#457,.T.);
#337=ORIENTED_EDGE('',*,*,#458,.T.);
#338=ORIENTED_EDGE('',*,*,#449,.F.);
#339=ORIENTED_EDGE('',*,*,#446,.F.);
#340=ORIENTED_EDGE('',*,*,#443,.F.);
#341=ORIENTED_EDGE('',*,*,#440,.F.);
#342=ORIENTED_EDGE('',*,*,#437,.F.);
#343=ORIENTED_EDGE('',*,*,#433,.F.);
#344=ORIENTED_EDGE('',*,*,#459,.F.);
#345=ORIENTED_EDGE('',*,*,#458,.F.);
#346=ORIENTED_EDGE('',*,*,#439,.T.);
#347=ORIENTED_EDGE('',*,*,#442,.T.);
#348=ORIENTED_EDGE('',*,*,#445,.T.);
#349=ORIENTED_EDGE('',*,*,#448,.T.);
#350=ORIENTED_EDGE('',*,*,#450,.T.);
#351=ORIENTED_EDGE('',*,*,#435,.T.);
#352=ORIENTED_EDGE('',*,*,#460,.F.);
#353=ORIENTED_EDGE('',*,*,#461,.F.);
#354=ORIENTED_EDGE('',*,*,#451,.T.);
#355=ORIENTED_EDGE('',*,*,#462,.T.);
#356=ORIENTED_EDGE('',*,*,#463,.F.);
#357=ORIENTED_EDGE('',*,*,#464,.F.);
#358=ORIENTED_EDGE('',*,*,#452,.T.);
#359=ORIENTED_EDGE('',*,*,#461,.T.);
#360=ORIENTED_EDGE('',*,*,#465,.F.);
#361=ORIENTED_EDGE('',*,*,#466,.F.);
#362=ORIENTED_EDGE('',*,*,#453,.T.);
#363=ORIENTED_EDGE('',*,*,#464,.T.);
#364=ORIENTED_EDGE('',*,*,#467,.F.);
#365=ORIENTED_EDGE('',*,*,#468,.F.);
#366=ORIENTED_EDGE('',*,*,#454,.T.);
#367=ORIENTED_EDGE('',*,*,#466,.T.);
#368=ORIENTED_EDGE('',*,*,#469,.F.);
#369=ORIENTED_EDGE('',*,*,#470,.F.);
#370=ORIENTED_EDGE('',*,*,#455,.T.);
#371=ORIENTED_EDGE('',*,*,#468,.T.);
#372=ORIENTED_EDGE('',*,*,#471,.F.);
#373=ORIENTED_EDGE('',*,*,#462,.F.);
#374=ORIENTED_EDGE('',*,*,#456,.T.);
#375=ORIENTED_EDGE('',*,*,#470,.T.);
#376=ORIENTED_EDGE('',*,*,#472,.F.);
#377=ORIENTED_EDGE('',*,*,#459,.T.);
#378=ORIENTED_EDGE('',*,*,#473,.F.);
#379=ORIENTED_EDGE('',*,*,#474,.F.);
#380=ORIENTED_EDGE('',*,*,#460,.T.);
#381=ORIENTED_EDGE('',*,*,#475,.T.);
#382=ORIENTED_EDGE('',*,*,#476,.F.);
#383=ORIENTED_EDGE('',*,*,#477,.F.);
#384=ORIENTED_EDGE('',*,*,#463,.T.);
#385=ORIENTED_EDGE('',*,*,#474,.T.);
#386=ORIENTED_EDGE('',*,*,#478,.F.);
#387=ORIENTED_EDGE('',*,*,#479,.F.);
#388=ORIENTED_EDGE('',*,*,#465,.T.);
#389=ORIENTED_EDGE('',*,*,#477,.T.);
#390=ORIENTED_EDGE('',*,*,#480,.F.);
#391=ORIENTED_EDGE('',*,*,#481,.F.);
#392=ORIENTED_EDGE('',*,*,#467,.T.);
#393=ORIENTED_EDGE('',*,*,#479,.T.);
#394=ORIENTED_EDGE('',*,*,#482,.F.);
#395=ORIENTED_EDGE('',*,*,#483,.F.);
#396=ORIENTED_EDGE('',*,*,#469,.T.);
#397=ORIENTED_EDGE('',*,*,#481,.T.);
#398=ORIENTED_EDGE('',*,*,#484,.F.);
#399=ORIENTED_EDGE('',*,*,#475,.F.);
#400=ORIENTED_EDGE('',*,*,#471,.T.);
#401=ORIENTED_EDGE('',*,*,#483,.T.);
#402=ORIENTED_EDGE('',*,*,#485,.T.);
#403=ORIENTED_EDGE('',*,*,#486,.T.);
#404=ORIENTED_EDGE('',*,*,#487,.T.);
#405=ORIENTED_EDGE('',*,*,#488,.T.);
#406=ORIENTED_EDGE('',*,*,#489,.T.);
#407=ORIENTED_EDGE('',*,*,#490,.T.);
#408=ORIENTED_EDGE('',*,*,#472,.T.);
#409=ORIENTED_EDGE('',*,*,#473,.T.);
#410=ORIENTED_EDGE('',*,*,#491,.T.);
#411=ORIENTED_EDGE('',*,*,#486,.F.);
#412=ORIENTED_EDGE('',*,*,#492,.F.);
#413=ORIENTED_EDGE('',*,*,#476,.T.);
#414=ORIENTED_EDGE('',*,*,#492,.T.);
#415=ORIENTED_EDGE('',*,*,#485,.F.);
#416=ORIENTED_EDGE('',*,*,#493,.F.);
#417=ORIENTED_EDGE('',*,*,#478,.T.);
#418=ORIENTED_EDGE('',*,*,#493,.T.);
#419=ORIENTED_EDGE('',*,*,#490,.F.);
#420=ORIENTED_EDGE('',*,*,#494,.F.);
#421=ORIENTED_EDGE('',*,*,#480,.T.);
#422=ORIENTED_EDGE('',*,*,#494,.T.);
#423=ORIENTED_EDGE('',*,*,#489,.F.);
#424=ORIENTED_EDGE('',*,*,#495,.F.);
#425=ORIENTED_EDGE('',*,*,#482,.T.);
#426=ORIENTED_EDGE('',*,*,#495,.T.);
#427=ORIENTED_EDGE('',*,*,#488,.F.);
#428=ORIENTED_EDGE('',*,*,#496,.F.);
#429=ORIENTED_EDGE('',*,*,#484,.T.);
#430=ORIENTED_EDGE('',*,*,#496,.T.);
#431=ORIENTED_EDGE('',*,*,#487,.F.);
#432=ORIENTED_EDGE('',*,*,#491,.F.);
#433=EDGE_CURVE('',#497,#498,#499,.T.);
#434=EDGE_CURVE('',#500,#498,#501,.T.);
#435=EDGE_CURVE('',#502,#500,#503,.T.);
#436=EDGE_CURVE('',#502,#497,#504,.T.);
#437=EDGE_CURVE('',#498,#505,#506,.T.);
#438=EDGE_CURVE('',#507,#505,#508,.T.);
#439=EDGE_CURVE('',#500,#507,#509,.T.);
#440=EDGE_CURVE('',#505,#510,#511,.T.);
#441=EDGE_CURVE('',#512,#510,#513,.T.);
#442=EDGE_CURVE('',#507,#512,#514,.T.);
#443=EDGE_CURVE('',#510,#515,#516,.T.);
#444=EDGE_CURVE('',#517,#515,#518,.T.);
#445=EDGE_CURVE('',#512,#517,#519,.T.);
#446=EDGE_CURVE('',#515,#520,#521,.T.);
#447=EDGE_CURVE('',#522,#520,#523,.T.);
#448=EDGE_CURVE('',#517,#522,#524,.T.);
#449=EDGE_CURVE('',#520,#497,#525,.T.);
#450=EDGE_CURVE('',#522,#502,#526,.T.);
#451=EDGE_CURVE('',#527,#528,#529,.T.);
#452=EDGE_CURVE('',#530,#527,#531,.T.);
#453=EDGE_CURVE('',#532,#530,#533,.T.);
#454=EDGE_CURVE('',#534,#532,#535,.T.);
#455=EDGE_CURVE('',#536,#534,#537,.T.);
#456=EDGE_CURVE('',#528,#536,#538,.T.);
#457=EDGE_CURVE('',#539,#539,#540,.F.);
#458=EDGE_CURVE('',#541,#541,#542,.T.);
#459=EDGE_CURVE('',#543,#543,#544,.F.);
#460=EDGE_CURVE('',#545,#546,#547,.T.);
#461=EDGE_CURVE('',#527,#545,#548,.F.);
#462=EDGE_CURVE('',#528,#546,#549,.F.);
#463=EDGE_CURVE('',#550,#545,#551,.T.);
#464=EDGE_CURVE('',#530,#550,#552,.F.);
#465=EDGE_CURVE('',#553,#550,#554,.T.);
#466=EDGE_CURVE('',#532,#553,#555,.F.);
#467=EDGE_CURVE('',#556,#553,#557,.T.);
#468=EDGE_CURVE('',#534,#556,#558,.F.);
#469=EDGE_CURVE('',#559,#556,#560,.T.);
#470=EDGE_CURVE('',#536,#559,#561,.F.);
#471=EDGE_CURVE('',#546,#559,#562,.T.);
#472=EDGE_CURVE('',#563,#563,#564,.F.);
#473=EDGE_CURVE('',#565,#566,#567,.T.);
#474=EDGE_CURVE('',#545,#565,#568,.T.);
#475=EDGE_CURVE('',#546,#566,#569,.T.);
#476=EDGE_CURVE('',#570,#565,#571,.T.);
#477=EDGE_CURVE('',#550,#570,#572,.T.);
#478=EDGE_CURVE('',#573,#570,#574,.T.);
#479=EDGE_CURVE('',#553,#573,#575,.T.);
#480=EDGE_CURVE('',#576,#573,#577,.T.);
#481=EDGE_CURVE('',#556,#576,#578,.T.);
#482=EDGE_CURVE('',#579,#576,#580,.T.);
#483=EDGE_CURVE('',#559,#579,#581,.T.);
#484=EDGE_CURVE('',#566,#579,#582,.T.);
#485=EDGE_CURVE('',#583,#584,#585,.T.);
#486=EDGE_CURVE('',#584,#586,#587,.T.);
#487=EDGE_CURVE('',#586,#588,#589,.T.);
#488=EDGE_CURVE('',#588,#590,#591,.T.);
#489=EDGE_CURVE('',#590,#592,#593,.T.);
#490=EDGE_CURVE('',#592,#583,#594,.T.);
#491=EDGE_CURVE('',#566,#586,#595,.T.);
#492=EDGE_CURVE('',#565,#584,#596,.T.);
#493=EDGE_CURVE('',#570,#583,#597,.T.);
#494=EDGE_CURVE('',#573,#592,#598,.T.);
#495=EDGE_CURVE('',#576,#590,#599,.T.);
#496=EDGE_CURVE('',#579,#588,#600,.T.);
#497=VERTEX_POINT('',#601);
#498=VERTEX_POINT('',#602);
#499=LINE('',#603,#604);
#500=VERTEX_POINT('',#606);
#501=LINE('',#607,#608);
#502=VERTEX_POINT('',#610);
#503=LINE('',#611,#612);
#504=LINE('',#614,#615);
#505=VERTEX_POINT('',#617);
#506=LINE('',#618,#619);
#507=VERTEX_POINT('',#621);
#508=LINE('',#622,#623);
#509=LINE('',#625,#626);
#510=VERTEX_POINT('',#628);
#511=LINE('',#629,#630);
#512=VERTEX_POINT('',#632);
#513=LINE('',#633,#634);
#514=LINE('',#636,#637);
#515=VERTEX_POINT('',#639);
#516=LINE('',#640,#641);
#517=VERTEX_POINT('',#643);
#518=LINE('',#644,#645);
#519=LINE('',#647,#648);
#520=VERTEX_POINT('',#650);
#521=LINE('',#651,#652);
#522=VERTEX_POINT('',#654);
#523=LINE('',#655,#656);
#524=LINE('',#658,#659);
#525=LINE('',#661,#662);
#526=LINE('',#664,#665);
#527=VERTEX_POINT('',#667);
#528=VERTEX_POINT('',#668);
#529=LINE('',#669,#670);
#530=VERTEX_POINT('',#672);
#531=LINE('',#673,#674);
#532=VERTEX_POINT('',#676);
#533=LINE('',#677,#678);
#534=VERTEX_POINT('',#680);
#535=LINE('',#681,#682);
#536=VERTEX_POINT('',#684);
#537=LINE('',#685,#686);
#538=LINE('',#688,#689);
#539=VERTEX_POINT('',#691);
#540=CIRCLE('',#692,5.);
#541=VERTEX_POINT('',#696);
#542=CIRCLE('',#697,5.);
#543=VERTEX_POINT('',#701);
#544=CIRCLE('',#702,1.5);
#545=VERTEX_POINT('',#706);
#546=VERTEX_POINT('',#707);
#547=LINE('',#708,#709);
#548=LINE('',#711,#712);
#549=LINE('',#714,#715);
#550=VERTEX_POINT('',#717);
#551=LINE('',#718,#719);
#552=LINE('',#721,#722);
#553=VERTEX_POINT('',#724);
#554=LINE('',#725,#726);
#555=LINE('',#728,#729);
#556=VERTEX_POINT('',#731);
#557=LINE('',#732,#733);
#558=LINE('',#735,#736);
#559=VERTEX_POINT('',#738);
#560=LINE('',#739,#740);
#561=LINE('',#742,#743);
#562=LINE('',#745,#746);
#563=VERTEX_POINT('',#748);
#564=CIRCLE('',#749,1.5);
#565=VERTEX_POINT('',#753);
#566=VERTEX_POINT('',#754);
#567=LINE('',#755,#756);
#568=LINE('',#758,#759);
#569=LINE('',#761,#762);
#570=VERTEX_POINT('',#764);
#571=LINE('',#765,#766);
#572=LINE('',#768,#769);
#573=VERTEX_POINT('',#771);
#574=LINE('',#772,#773);
#575=LINE('',#775,#776);
#576=VERTEX_POINT('',#778);
#577=LINE('',#779,#780);
#578=LINE('',#782,#783);
#579=VERTEX_POINT('',#785);
#580=LINE('',#786,#787);
#581=LINE('',#789,#790);
#582=LINE('',#792,#793);
#583=VERTEX_POINT('',#795);
#584=VERTEX_POINT('',#796);
#585=LINE('',#797,#798);
#586=VERTEX_POINT('',#800);
#587=LINE('',#801,#802);
#588=VERTEX_POINT('',#804);
#589=LINE('',#805,#806);
#590=VERTEX_POINT('',#808);
#591=LINE('',#809,#810);
#592=VERTEX_POINT('',#812);
#593=LINE('',#813,#814);
#594=LINE('',#816,#817);
#595=LINE('',#819,#820);
#596=LINE('',#822,#823);
#597=LINE('',#825,#826);
#598=LINE('',#828,#829);
#599=LINE('',#831,#832);
#600=LINE('',#834,#835);
#601=CARTESIAN_POINT('',(-4.1461404385998E-16,-2.88675134594813,4.5));
#602=CARTESIAN_POINT('',(2.5,-1.44337567297406,4.5));
#603=CARTESIAN_POINT('',(-4.1461404385998E-16,-2.88675134594813,4.5));
#604=VECTOR('',#605,1.);
#605=DIRECTION('',(0.866025403784439,0.5,0.));
#606=CARTESIAN_POINT('',(2.5,-1.44337567297406,-7.5));
#607=CARTESIAN_POINT('',(2.5,-1.44337567297406,-7.5));
#608=VECTOR('',#609,1.);
#609=DIRECTION('',(0.,0.,1.));
#610=CARTESIAN_POINT('',(-4.1461404385998E-16,-2.88675134594813,-7.5));
#611=CARTESIAN_POINT('',(-4.1461404385998E-16,-2.88675134594813,-7.5));
#612=VECTOR('',#613,1.);
#613=DIRECTION('',(0.866025403784439,0.5,0.));
#614=CARTESIAN_POINT('',(-4.29351626855021E-16,-2.88675134594813,-7.5));
#615=VECTOR('',#616,1.);
#616=DIRECTION('',(0.,0.,1.));
#617=CARTESIAN_POINT('',(2.5,1.44337567297406,4.5));
#618=CARTESIAN_POINT('',(2.5,-1.44337567297406,4.5));
#619=VECTOR('',#620,1.);
#620=DIRECTION('',(0.,1.,0.));
#621=CARTESIAN_POINT('',(2.5,1.44337567297406,-7.5));
#622=CARTESIAN_POINT('',(2.5,1.44337567297406,-7.5));
#623=VECTOR('',#624,1.);
#624=DIRECTION('',(0.,0.,1.));
#625=CARTESIAN_POINT('',(2.5,-1.44337567297406,-7.5));
#626=VECTOR('',#627,1.);
#627=DIRECTION('',(0.,1.,0.));
#628=CARTESIAN_POINT('',(8.35138225979142E-16,2.88675134594813,4.5));
#629=CARTESIAN_POINT('',(2.5,1.44337567297406,4.5));
#630=VECTOR('',#631,1.);
#631=DIRECTION('',(-0.866025403784439,0.5,0.));
#632=CARTESIAN_POINT('',(8.35138225979142E-16,2.88675134594813,-7.5));
#633=CARTESIAN_POINT('',(1.08370292776467E-15,2.88675134594813,-7.5));
#634=VECTOR('',#635,1.);
#635=DIRECTION('',(0.,0.,1.));
#636=CARTESIAN_POINT('',(2.5,1.44337567297406,-7.5));
#637=VECTOR('',#638,1.);
#638=DIRECTION('',(-0.866025403784439,0.5,0.));
#639=CARTESIAN_POINT('',(-2.5,1.44337567297407,4.5));
#640=CARTESIAN_POINT('',(8.35138225979142E-16,2.88675134594813,4.5));
#641=VECTOR('',#642,1.);
#642=DIRECTION('',(-0.866025403784439,-0.499999999999999,0.));
#643=CARTESIAN_POINT('',(-2.5,1.44337567297407,-7.5));
#644=CARTESIAN_POINT('',(-2.5,1.44337567297407,-7.5));
#645=VECTOR('',#646,1.);
#646=DIRECTION('',(0.,0.,1.));
#647=CARTESIAN_POINT('',(8.35138225979142E-16,2.88675134594813,-7.5));
#648=VECTOR('',#649,1.);
#649=DIRECTION('',(-0.866025403784439,-0.499999999999999,0.));
#650=CARTESIAN_POINT('',(-2.5,-1.44337567297406,4.5));
#651=CARTESIAN_POINT('',(-2.5,1.44337567297407,4.5));
#652=VECTOR('',#653,1.);
#653=DIRECTION('',(0.,-1.,0.));
#654=CARTESIAN_POINT('',(-2.5,-1.44337567297406,-7.5));
#655=CARTESIAN_POINT('',(-2.5,-1.44337567297406,-7.5));
#656=VECTOR('',#657,1.);
#657=DIRECTION('',(0.,0.,1.));
#658=CARTESIAN_POINT('',(-2.5,1.44337567297407,-7.5));
#659=VECTOR('',#660,1.);
#660=DIRECTION('',(0.,-1.,0.));
#661=CARTESIAN_POINT('',(-2.5,-1.44337567297406,4.5));
#662=VECTOR('',#663,1.);
#663=DIRECTION('',(0.866025403784438,-0.5,0.));
#664=CARTESIAN_POINT('',(-2.5,-1.44337567297406,-7.5));
#665=VECTOR('',#666,1.);
#666=DIRECTION('',(0.866025403784438,-0.5,0.));
#667=CARTESIAN_POINT('',(5.5,-3.17542648056068,5.55111512312578E-17));
#668=CARTESIAN_POINT('',(5.5,3.17542648053029,2.77555756156289E-16));
#669=CARTESIAN_POINT('',(5.5,-3.17542648056068,2.77555756156289E-16));
#670=VECTOR('',#671,1.);
#671=DIRECTION('',(0.,1.,0.));
#672=CARTESIAN_POINT('',(5.44421357848774E-11,-6.35085296112926,-5.36607795235492E-16));
#673=CARTESIAN_POINT('',(5.44407571581122E-11,-6.35085296112926,-1.94289029309402E-16));
#674=VECTOR('',#675,1.);
#675=DIRECTION('',(0.866025403780548,0.500000000006739,0.));
#676=CARTESIAN_POINT('',(-5.5,-3.17542648055339,-1.85037170770859E-16));
#677=CARTESIAN_POINT('',(-5.5,-3.17542648055339,-7.21644966006352E-16));
#678=VECTOR('',#679,1.);
#679=DIRECTION('',(0.866025403784337,-0.500000000000177,1.74814789669482E-17));
#680=CARTESIAN_POINT('',(-5.5,3.1754264805351,1.38777878078145E-16));
#681=CARTESIAN_POINT('',(-5.5,3.1754264805351,4.44089209850063E-16));
#682=VECTOR('',#683,1.);
#683=DIRECTION('',(0.,-1.,-8.74073948355806E-18));
#684=CARTESIAN_POINT('',(-5.00218365263101E-12,6.35085296108931,-1.11022302462516E-16));
#685=CARTESIAN_POINT('',(-5.00299771633943E-12,6.35085296108931,-2.22044604925031E-16));
#686=VECTOR('',#687,1.);
#687=DIRECTION('',(-0.866025403783474,-0.500000000001671,0.));
#688=CARTESIAN_POINT('',(5.5,3.17542648053029,1.38777878078145E-16));
#689=VECTOR('',#690,1.);
#690=DIRECTION('',(-0.86602540378354,0.500000000001557,-1.31111092253169E-17));
#691=CARTESIAN_POINT('',(-5.,6.12323399573677E-16,0.));
#692=AXIS2_PLACEMENT_3D('',#693,#694,#695);
#693=CARTESIAN_POINT('',(0.,0.,0.));
#694=DIRECTION('',(0.,0.,1.));
#695=DIRECTION('',(-1.,1.22464679914735E-16,0.));
#696=CARTESIAN_POINT('',(-5.,6.12323399573677E-16,-7.5));
#697=AXIS2_PLACEMENT_3D('',#698,#699,#700);
#698=CARTESIAN_POINT('',(0.,0.,-7.5));
#699=DIRECTION('',(0.,0.,1.));
#700=DIRECTION('',(-1.,1.22464679914735E-16,0.));
#701=CARTESIAN_POINT('',(-1.5,3.67394039744206E-16,4.5));
#702=AXIS2_PLACEMENT_3D('',#703,#704,#705);
#703=CARTESIAN_POINT('',(0.,0.,4.5));
#704=DIRECTION('',(0.,0.,1.));
#705=DIRECTION('',(-1.,1.22464679914735E-16,0.));
#706=CARTESIAN_POINT('',(6.,-3.4641016151529,0.5));
#707=CARTESIAN_POINT('',(6.,3.46410161512451,0.5));
#708=CARTESIAN_POINT('',(6.,-3.4641016151529,0.5));
#709=VECTOR('',#710,1.);
#710=DIRECTION('',(0.,1.,0.));
#711=CARTESIAN_POINT('',(6.,-3.4641016151529,0.5));
#712=VECTOR('',#713,1.);
#713=DIRECTION('',(-0.654653670708816,0.377964473006319,-0.654653670708817));
#714=CARTESIAN_POINT('',(6.,3.4641016151245,0.5));
#715=VECTOR('',#716,1.);
#716=DIRECTION('',(-0.654653670708171,-0.377964473008555,-0.654653670708172));
#717=CARTESIAN_POINT('',(5.66291096412496E-11,-6.92820323032022,0.5));
#718=CARTESIAN_POINT('',(5.66297876733257E-11,-6.92820323032022,0.5));
#719=VECTOR('',#720,1.);
#720=DIRECTION('',(0.866025403780548,0.500000000006739,1.60246890532756E-17));
#721=CARTESIAN_POINT('',(5.66287017278455E-11,-6.92820323032022,0.5));
#722=VECTOR('',#723,1.);
#723=DIRECTION('',(-2.86265642316439E-12,0.7559289460192,-0.654653670707116));
#724=CARTESIAN_POINT('',(-6.,-3.46410161514813,0.5));
#725=CARTESIAN_POINT('',(-6.,-3.46410161514813,0.5));
#726=VECTOR('',#727,1.);
#727=DIRECTION('',(0.866025403784337,-0.500000000000177,1.60246890530432E-17));
#728=CARTESIAN_POINT('',(-6.,-3.46410161514813,0.5));
#729=VECTOR('',#730,1.);
#730=DIRECTION('',(0.654653670708,0.377964473009148,-0.654653670708));
#731=CARTESIAN_POINT('',(-6.,3.46410161512927,0.5));
#732=CARTESIAN_POINT('',(-6.,3.46410161512927,0.5));
#733=VECTOR('',#734,1.);
#734=DIRECTION('',(0.,-1.,0.));
#735=CARTESIAN_POINT('',(-6.,3.46410161512927,0.5));
#736=VECTOR('',#737,1.);
#737=DIRECTION('',(0.654653670708186,-0.377964473008505,-0.654653670708185));
#738=CARTESIAN_POINT('',(-5.03934478656372E-12,6.92820323027955,0.5));
#739=CARTESIAN_POINT('',(-5.04106747305894E-12,6.92820323027956,0.5));
#740=VECTOR('',#741,1.);
#741=DIRECTION('',(-0.866025403783474,-0.500000000001671,0.));
#742=CARTESIAN_POINT('',(-5.03841413035389E-12,6.92820323027955,0.5));
#743=VECTOR('',#744,1.);
#744=DIRECTION('',(4.8260288804095E-14,-0.755928946018803,-0.654653670707575));
#745=CARTESIAN_POINT('',(6.,3.46410161512451,0.5));
#746=VECTOR('',#747,1.);
#747=DIRECTION('',(-0.86602540378354,0.500000000001557,-1.60246890531663E-17));
#748=CARTESIAN_POINT('',(-1.5,1.83697019872103E-16,6.));
#749=AXIS2_PLACEMENT_3D('',#750,#751,#752);
#750=CARTESIAN_POINT('',(0.,0.,6.));
#751=DIRECTION('',(0.,0.,1.));
#752=DIRECTION('',(-1.,1.22464679914735E-16,0.));
#753=CARTESIAN_POINT('',(6.,-3.4641016151529,5.5));
#754=CARTESIAN_POINT('',(6.,3.46410161512451,5.5));
#755=CARTESIAN_POINT('',(6.,-3.4641016151529,5.5));
#756=VECTOR('',#757,1.);
#757=DIRECTION('',(0.,1.,0.));
#758=CARTESIAN_POINT('',(6.,-3.4641016151529,0.5));
#759=VECTOR('',#760,1.);
#760=DIRECTION('',(0.,0.,1.));
#761=CARTESIAN_POINT('',(6.,3.46410161512451,0.5));
#762=VECTOR('',#763,1.);
#763=DIRECTION('',(0.,0.,1.));
#764=CARTESIAN_POINT('',(5.66299978196693E-11,-6.92820323032022,5.5));
#765=CARTESIAN_POINT('',(5.66297876733257E-11,-6.92820323032022,5.5));
#766=VECTOR('',#767,1.);
#767=DIRECTION('',(0.866025403780548,0.500000000006739,0.));
#768=CARTESIAN_POINT('',(5.66299135697963E-11,-6.92820323032022,0.5));
#769=VECTOR('',#770,1.);
#770=DIRECTION('',(0.,0.,1.));
#771=CARTESIAN_POINT('',(-6.,-3.46410161514814,5.5));
#772=CARTESIAN_POINT('',(-6.,-3.46410161514813,5.5));
#773=VECTOR('',#774,1.);
#774=DIRECTION('',(0.866025403784337,-0.500000000000177,0.));
#775=CARTESIAN_POINT('',(-6.,-3.46410161514814,0.5));
#776=VECTOR('',#777,1.);
#777=DIRECTION('',(0.,0.,1.));
#778=CARTESIAN_POINT('',(-6.,3.46410161512927,5.5));
#779=CARTESIAN_POINT('',(-6.,3.46410161512927,5.5));
#780=VECTOR('',#781,1.);
#781=DIRECTION('',(0.,-1.,0.));
#782=CARTESIAN_POINT('',(-6.,3.46410161512927,0.5));
#783=VECTOR('',#784,1.);
#784=DIRECTION('',(-1.77635683940025E-16,-8.88178419700125E-17,1.));
#785=CARTESIAN_POINT('',(-5.04022552789935E-12,6.92820323027956,5.5));
#786=CARTESIAN_POINT('',(-5.04137079163005E-12,6.92820323027956,5.5));
#787=VECTOR('',#788,1.);
#788=DIRECTION('',(-0.866025403783474,-0.500000000001671,0.));
#789=CARTESIAN_POINT('',(-5.04014954630296E-12,6.92820323027955,0.5));
#790=VECTOR('',#791,1.);
#791=DIRECTION('',(-8.88178419700125E-17,1.77635683940025E-16,1.));
#792=CARTESIAN_POINT('',(6.,3.46410161512451,5.5));
#793=VECTOR('',#794,1.);
#794=DIRECTION('',(-0.86602540378354,0.500000000001557,0.));
#795=CARTESIAN_POINT('',(5.44407942653893E-11,-6.35085296112926,6.));
#796=CARTESIAN_POINT('',(5.5,-3.17542648056068,6.));
#797=CARTESIAN_POINT('',(5.44410902250196E-11,-6.35085296112926,6.));
#798=VECTOR('',#799,1.);
#799=DIRECTION('',(0.866025403780548,0.500000000006739,0.));
#800=CARTESIAN_POINT('',(5.5,3.17542648053029,6.));
#801=CARTESIAN_POINT('',(5.5,-3.17542648056068,6.));
#802=VECTOR('',#803,1.);
#803=DIRECTION('',(0.,1.,0.));
#804=CARTESIAN_POINT('',(-5.00223916378224E-12,6.35085296108931,6.));
#805=CARTESIAN_POINT('',(5.5,3.17542648053029,6.));
#806=VECTOR('',#807,1.);
#807=DIRECTION('',(-0.86602540378354,0.500000000001557,0.));
#808=CARTESIAN_POINT('',(-5.5,3.1754264805351,6.));
#809=CARTESIAN_POINT('',(-5.00308098306628E-12,6.35085296108931,6.));
#810=VECTOR('',#811,1.);
#811=DIRECTION('',(-0.866025403783474,-0.500000000001671,0.));
#812=CARTESIAN_POINT('',(-5.5,-3.17542648055339,6.));
#813=CARTESIAN_POINT('',(-5.5,3.1754264805351,6.));
#814=VECTOR('',#815,1.);
#815=DIRECTION('',(0.,-1.,0.));
#816=CARTESIAN_POINT('',(-5.5,-3.17542648055339,6.));
#817=VECTOR('',#818,1.);
#818=DIRECTION('',(0.866025403784337,-0.500000000000177,0.));
#819=CARTESIAN_POINT('',(6.,3.46410161512451,5.5));
#820=VECTOR('',#821,1.);
#821=DIRECTION('',(-0.654653670708171,-0.377964473008555,0.654653670708172));
#822=CARTESIAN_POINT('',(6.,-3.4641016151529,5.5));
#823=VECTOR('',#824,1.);
#824=DIRECTION('',(-0.654653670708816,0.377964473006319,0.654653670708817));
#825=CARTESIAN_POINT('',(5.66300339954751E-11,-6.92820323032022,5.5));
#826=VECTOR('',#827,1.);
#827=DIRECTION('',(-2.86647218395085E-12,0.755928946019202,0.654653670707114));
#828=CARTESIAN_POINT('',(-6.,-3.46410161514814,5.5));
#829=VECTOR('',#830,1.);
#830=DIRECTION('',(0.654653670708,0.377964473009149,0.654653670707999));
#831=CARTESIAN_POINT('',(-6.,3.46410161512927,5.5));
#832=VECTOR('',#833,1.);
#833=DIRECTION('',(0.654653670708186,-0.377964473008504,0.654653670708186));
#834=CARTESIAN_POINT('',(-5.03941333107605E-12,6.92820323027955,5.5));
#835=VECTOR('',#836,1.);
#836=DIRECTION('',(4.94595279084136E-14,-0.755928946018803,0.654653670707575));
ENDSEC;
END-ISO-10303-21;
