ISO-10303-21;
HEADER;
FILE_DESCRIPTION(('STEP AP203'),
    '1');
FILE_NAME(' реплениеƒл€ѕодшипника',
    '',
    ('UNSPECIFIED'),
    ('UNSPECIFIED'),
    'C3D Converter',
    'C3D Toolkit',
    '');
FILE_SCHEMA(('CONFIG_CONTROL_DESIGN'));
ENDSEC;

DATA;
#1=PRODUCT_DEFINITION('','UNSPECIFIED',#28,#31);
#2=SHAPE_DEFINITION_REPRESENTATION(#26,#3);
#3=SHAPE_REPRESENTATION('NONE',(#4),#8);
#4=AXIS2_PLACEMENT_3D('',#5,#6,#7);
#5=CARTESIAN_POINT('',(0.,0.,0.));
#6=DIRECTION('',(0.,0.,1.));
#7=DIRECTION('',(1.,0.,0.));
#8=(GEOMETRIC_REPRESENTATION_CONTEXT(3)GLOBAL_UNCERTAINTY_ASSIGNED_CONTEXT((#10))
GLOBAL_UNIT_ASSIGNED_CONTEXT((#9,#11,#12))REPRESENTATION_CONTEXT('NONE','NONE'));
#9=(LENGTH_UNIT()NAMED_UNIT(*)SI_UNIT(.MILLI.,.METRE.));
#10=UNCERTAINTY_MEASURE_WITH_UNIT(LENGTH_MEASURE(1.E-5),#9,'NONE','NONE');
#11=(NAMED_UNIT(*)PLANE_ANGLE_UNIT()SI_UNIT($,.RADIAN.));
#12=(NAMED_UNIT(*)SI_UNIT($,.STERADIAN.)SOLID_ANGLE_UNIT());
#13=MANIFOLD_SOLID_BREP('',#14);
#14=CLOSED_SHELL('',(#53,#54,#55,#56,#57,#58,#59,#60,#61,#62,#63,#64,#65,#66,#67));
#15=COLOUR_RGB('',0.4,0.,0.);
#16=FILL_AREA_STYLE_COLOUR('',#15);
#17=FILL_AREA_STYLE($,(#16));
#18=SURFACE_STYLE_FILL_AREA(#17);
#19=SURFACE_SIDE_STYLE('',(#18));
#20=SURFACE_STYLE_USAGE(.BOTH.,#19);
#21=PRESENTATION_STYLE_ASSIGNMENT((#20));
#22=MECHANICAL_DESIGN_GEOMETRIC_PRESENTATION_REPRESENTATION('NONE',(#23),#8);
#23=STYLED_ITEM('',(#21),#13);
#24=ADVANCED_BREP_SHAPE_REPRESENTATION('NONE',(#13),#8);
#25=SHAPE_REPRESENTATION_RELATIONSHIP('','',#3,#24);
#26=PRODUCT_DEFINITION_SHAPE('NONE','NONE',#1);
#27=MECHANICAL_CONTEXT('NONE',#32,'mechanical');
#28=PRODUCT_DEFINITION_FORMATION_WITH_SPECIFIED_SOURCE('ANY','UNSPECIFIED',#29,.NOT_KNOWN.);
#29=PRODUCT('','\X2\041A04400435043F043B0435043D04380435041F043E043404480438043F043D0438043A0430\X0\',
'NONE',(#27));
#30=PRODUCT_RELATED_PRODUCT_CATEGORY('detail','',(#29));
#31=DESIGN_CONTEXT('detailed design',#32,'design');
#32=APPLICATION_CONTEXT('configuration controlled 3d designs of mechanical parts and assemblies');
#33=APPLICATION_PROTOCOL_DEFINITION('international standard','config_control_design',
1994,#32);
#34=CC_DESIGN_DATE_AND_TIME_ASSIGNMENT(#35,#39,(#1));
#35=DATE_AND_TIME(#36,#37);
#36=CALENDAR_DATE(0,1,1);
#37=LOCAL_TIME(0,0,0.,#38);
#38=COORDINATED_UNIVERSAL_TIME_OFFSET(0,0,.AHEAD.);
#39=DATE_TIME_ROLE('creation_date');
#40=CC_DESIGN_APPROVAL(#41,(#1));
#41=APPROVAL(#42,'UNSPECIFIED');
#42=APPROVAL_STATUS('not_yet_approved');
#43=APPROVAL_DATE_TIME(#44,#41);
#44=DATE_AND_TIME(#45,#46);
#45=CALENDAR_DATE(0,1,1);
#46=LOCAL_TIME(0,0,0.,#47);
#47=COORDINATED_UNIVERSAL_TIME_OFFSET(0,0,.AHEAD.);
#48=PERSON('UNSPECIFIED','UNSPECIFIED','UNSPECIFIED',('UNSPECIFIED'),('UNSPECIFIED'),
('UNSPECIFIED'));
#49=ORGANIZATION('UNSPECIFIED','UNSPECIFIED','UNSPECIFIED');
#50=PERSON_AND_ORGANIZATION(#48,#49);
#51=PERSON_AND_ORGANIZATION_ROLE('creator');
#52=CC_DESIGN_PERSON_AND_ORGANIZATION_ASSIGNMENT(#50,#51,(#28,#1));
#53=ADVANCED_FACE('',(#68,#70),#72,.T.);
#54=ADVANCED_FACE('',(#77,#79),#81,.T.);
#55=ADVANCED_FACE('',(#86,#88),#90,.T.);
#56=ADVANCED_FACE('',(#95,#97),#99,.T.);
#57=ADVANCED_FACE('',(#104,#106),#108,.F.);
#58=ADVANCED_FACE('',(#113,#115),#117,.F.);
#59=ADVANCED_FACE('',(#122,#124),#126,.F.);
#60=ADVANCED_FACE('',(#131),#133,.T.);
#61=ADVANCED_FACE('',(#138,#140),#142,.T.);
#62=ADVANCED_FACE('',(#147),#149,.T.);
#63=ADVANCED_FACE('',(#154),#156,.T.);
#64=ADVANCED_FACE('',(#161),#163,.T.);
#65=ADVANCED_FACE('',(#168,#170),#172,.F.);
#66=ADVANCED_FACE('',(#177,#179),#181,.F.);
#67=ADVANCED_FACE('',(#186,#188),#190,.T.);
#68=FACE_BOUND('',#69,.T.);
#69=EDGE_LOOP('',(#195,#196,#197,#198));
#70=FACE_BOUND('',#71,.T.);
#71=EDGE_LOOP('',(#199));
#72=PLANE('',#73);
#73=AXIS2_PLACEMENT_3D('',#74,#75,#76);
#74=CARTESIAN_POINT('',(-7.12560681041627,-19.5,0.));
#75=DIRECTION('',(9.97168037284099E-16,-1.,0.));
#76=DIRECTION('',(1.,9.97168037284099E-16,0.));
#77=FACE_BOUND('',#78,.T.);
#78=EDGE_LOOP('',(#200,#201,#202,#203));
#79=FACE_BOUND('',#80,.T.);
#80=EDGE_LOOP('',(#204));
#81=PLANE('',#82);
#82=AXIS2_PLACEMENT_3D('',#83,#84,#85);
#83=CARTESIAN_POINT('',(-40.,-19.5,0.));
#84=DIRECTION('',(0.,-1.,0.));
#85=DIRECTION('',(1.,0.,0.));
#86=FACE_BOUND('',#87,.T.);
#87=EDGE_LOOP('',(#205,#206,#207,#208));
#88=FACE_BOUND('',#89,.T.);
#89=EDGE_LOOP('',(#209));
#90=PLANE('',#91);
#91=AXIS2_PLACEMENT_3D('',#92,#93,#94);
#92=CARTESIAN_POINT('',(-32.8743931895837,-8.49999999999999,0.));
#93=DIRECTION('',(2.49292009321025E-16,1.,0.));
#94=DIRECTION('',(-1.,2.49292009321025E-16,0.));
#95=FACE_BOUND('',#96,.T.);
#96=EDGE_LOOP('',(#210,#211,#212,#213));
#97=FACE_BOUND('',#98,.T.);
#98=EDGE_LOOP('',(#214));
#99=PLANE('',#100);
#100=AXIS2_PLACEMENT_3D('',#101,#102,#103);
#101=CARTESIAN_POINT('',(-1.56142466891346E-15,-8.5,0.));
#102=DIRECTION('',(0.,1.,0.));
#103=DIRECTION('',(-1.,0.,0.));
#104=FACE_OUTER_BOUND('',#105,.T.);
#105=EDGE_LOOP('',(#215));
#106=FACE_OUTER_BOUND('',#107,.T.);
#107=EDGE_LOOP('',(#216));
#108=CYLINDRICAL_SURFACE('',#109,1.6);
#109=AXIS2_PLACEMENT_3D('',#110,#111,#112);
#110=CARTESIAN_POINT('',(-3.56280340520814,-6.20014598490047E-16,3.));
#111=DIRECTION('',(1.22464679914735E-16,-1.,-6.12323399573677E-17));
#112=DIRECTION('',(-1.,-1.22464679914735E-16,-7.49879891330929E-33));
#113=FACE_OUTER_BOUND('',#114,.T.);
#114=EDGE_LOOP('',(#217));
#115=FACE_OUTER_BOUND('',#116,.T.);
#116=EDGE_LOOP('',(#218));
#117=CYLINDRICAL_SURFACE('',#118,1.6);
#118=AXIS2_PLACEMENT_3D('',#119,#120,#121);
#119=CARTESIAN_POINT('',(-36.4371965947919,-4.64596663784357E-15,3.));
#120=DIRECTION('',(1.22464679914735E-16,-1.,-6.12323399573677E-17));
#121=DIRECTION('',(-1.,-1.22464679914735E-16,-7.49879891330929E-33));
#122=FACE_BOUND('',#123,.T.);
#123=EDGE_LOOP('',(#219,#220,#221,#222,#223,#224,#225,#226));
#124=FACE_BOUND('',#125,.T.);
#125=EDGE_LOOP('',(#227));
#126=PLANE('',#127);
#127=AXIS2_PLACEMENT_3D('',#128,#129,#130);
#128=CARTESIAN_POINT('',(0.,0.,0.));
#129=DIRECTION('',(0.,0.,1.));
#130=DIRECTION('',(-1.,1.22464679914735E-16,0.));
#131=FACE_BOUND('',#132,.T.);
#132=EDGE_LOOP('',(#228,#229,#230,#231));
#133=PLANE('',#134);
#134=AXIS2_PLACEMENT_3D('',#135,#136,#137);
#135=CARTESIAN_POINT('',(-2.90853614798548E-15,-19.5,0.));
#136=DIRECTION('',(1.,-1.22464679915639E-16,0.));
#137=DIRECTION('',(1.22464679915639E-16,1.,0.));
#138=FACE_BOUND('',#139,.T.);
#139=EDGE_LOOP('',(#232,#233,#234,#235,#236,#237,#238,#239));
#140=FACE_BOUND('',#141,.T.);
#141=EDGE_LOOP('',(#240));
#142=PLANE('',#143);
#143=AXIS2_PLACEMENT_3D('',#144,#145,#146);
#144=CARTESIAN_POINT('',(0.,0.,6.));
#145=DIRECTION('',(0.,0.,1.));
#146=DIRECTION('',(-1.,1.22464679914735E-16,0.));
#147=FACE_BOUND('',#148,.T.);
#148=EDGE_LOOP('',(#241,#242,#243,#244));
#149=CYLINDRICAL_SURFACE('',#150,14.);
#150=AXIS2_PLACEMENT_3D('',#151,#152,#153);
#151=CARTESIAN_POINT('',(-20.,-14.,0.));
#152=DIRECTION('',(0.,0.,1.));
#153=DIRECTION('',(-0.919599513541695,-0.392857142857143,0.));
#154=FACE_BOUND('',#155,.T.);
#155=EDGE_LOOP('',(#245,#246,#247,#248));
#156=PLANE('',#157);
#157=AXIS2_PLACEMENT_3D('',#158,#159,#160);
#158=CARTESIAN_POINT('',(-40.,-8.49999999999999,0.));
#159=DIRECTION('',(-1.,0.,0.));
#160=DIRECTION('',(0.,-1.,0.));
#161=FACE_BOUND('',#162,.T.);
#162=EDGE_LOOP('',(#249,#250,#251,#252));
#163=CYLINDRICAL_SURFACE('',#164,14.);
#164=AXIS2_PLACEMENT_3D('',#165,#166,#167);
#165=CARTESIAN_POINT('',(-20.,-14.,0.));
#166=DIRECTION('',(0.,0.,1.));
#167=DIRECTION('',(0.919599513541695,0.392857142857143,0.));
#168=FACE_OUTER_BOUND('',#169,.T.);
#169=EDGE_LOOP('',(#253));
#170=FACE_OUTER_BOUND('',#171,.T.);
#171=EDGE_LOOP('',(#254));
#172=CYLINDRICAL_SURFACE('',#173,9.5);
#173=AXIS2_PLACEMENT_3D('',#174,#175,#176);
#174=CARTESIAN_POINT('',(-20.,-14.,0.));
#175=DIRECTION('',(0.,0.,1.));
#176=DIRECTION('',(-1.,1.22464679914735E-16,0.));
#177=FACE_OUTER_BOUND('',#178,.T.);
#178=EDGE_LOOP('',(#255));
#179=FACE_OUTER_BOUND('',#180,.T.);
#180=EDGE_LOOP('',(#256));
#181=CYLINDRICAL_SURFACE('',#182,11.);
#182=AXIS2_PLACEMENT_3D('',#183,#184,#185);
#183=CARTESIAN_POINT('',(-20.,-14.,4.5));
#184=DIRECTION('',(0.,0.,1.));
#185=DIRECTION('',(-1.,1.22464679914735E-16,0.));
#186=FACE_BOUND('',#187,.T.);
#187=EDGE_LOOP('',(#257));
#188=FACE_BOUND('',#189,.T.);
#189=EDGE_LOOP('',(#258));
#190=PLANE('',#191);
#191=AXIS2_PLACEMENT_3D('',#192,#193,#194);
#192=CARTESIAN_POINT('',(0.,0.,4.5));
#193=DIRECTION('',(0.,0.,1.));
#194=DIRECTION('',(-1.,1.22464679914735E-16,0.));
#195=ORIENTED_EDGE('',*,*,#259,.T.);
#196=ORIENTED_EDGE('',*,*,#260,.T.);
#197=ORIENTED_EDGE('',*,*,#261,.F.);
#198=ORIENTED_EDGE('',*,*,#262,.F.);
#199=ORIENTED_EDGE('',*,*,#263,.T.);
#200=ORIENTED_EDGE('',*,*,#264,.T.);
#201=ORIENTED_EDGE('',*,*,#265,.T.);
#202=ORIENTED_EDGE('',*,*,#266,.F.);
#203=ORIENTED_EDGE('',*,*,#267,.F.);
#204=ORIENTED_EDGE('',*,*,#268,.T.);
#205=ORIENTED_EDGE('',*,*,#269,.T.);
#206=ORIENTED_EDGE('',*,*,#270,.T.);
#207=ORIENTED_EDGE('',*,*,#271,.F.);
#208=ORIENTED_EDGE('',*,*,#272,.F.);
#209=ORIENTED_EDGE('',*,*,#273,.T.);
#210=ORIENTED_EDGE('',*,*,#274,.T.);
#211=ORIENTED_EDGE('',*,*,#275,.T.);
#212=ORIENTED_EDGE('',*,*,#276,.F.);
#213=ORIENTED_EDGE('',*,*,#277,.F.);
#214=ORIENTED_EDGE('',*,*,#278,.T.);
#215=ORIENTED_EDGE('',*,*,#278,.F.);
#216=ORIENTED_EDGE('',*,*,#263,.F.);
#217=ORIENTED_EDGE('',*,*,#273,.F.);
#218=ORIENTED_EDGE('',*,*,#268,.F.);
#219=ORIENTED_EDGE('',*,*,#259,.F.);
#220=ORIENTED_EDGE('',*,*,#279,.F.);
#221=ORIENTED_EDGE('',*,*,#264,.F.);
#222=ORIENTED_EDGE('',*,*,#280,.F.);
#223=ORIENTED_EDGE('',*,*,#269,.F.);
#224=ORIENTED_EDGE('',*,*,#281,.F.);
#225=ORIENTED_EDGE('',*,*,#274,.F.);
#226=ORIENTED_EDGE('',*,*,#282,.F.);
#227=ORIENTED_EDGE('',*,*,#283,.T.);
#228=ORIENTED_EDGE('',*,*,#282,.T.);
#229=ORIENTED_EDGE('',*,*,#277,.T.);
#230=ORIENTED_EDGE('',*,*,#284,.F.);
#231=ORIENTED_EDGE('',*,*,#260,.F.);
#232=ORIENTED_EDGE('',*,*,#284,.T.);
#233=ORIENTED_EDGE('',*,*,#276,.T.);
#234=ORIENTED_EDGE('',*,*,#285,.T.);
#235=ORIENTED_EDGE('',*,*,#271,.T.);
#236=ORIENTED_EDGE('',*,*,#286,.T.);
#237=ORIENTED_EDGE('',*,*,#266,.T.);
#238=ORIENTED_EDGE('',*,*,#287,.T.);
#239=ORIENTED_EDGE('',*,*,#261,.T.);
#240=ORIENTED_EDGE('',*,*,#288,.T.);
#241=ORIENTED_EDGE('',*,*,#279,.T.);
#242=ORIENTED_EDGE('',*,*,#262,.T.);
#243=ORIENTED_EDGE('',*,*,#287,.F.);
#244=ORIENTED_EDGE('',*,*,#265,.F.);
#245=ORIENTED_EDGE('',*,*,#280,.T.);
#246=ORIENTED_EDGE('',*,*,#267,.T.);
#247=ORIENTED_EDGE('',*,*,#286,.F.);
#248=ORIENTED_EDGE('',*,*,#270,.F.);
#249=ORIENTED_EDGE('',*,*,#281,.T.);
#250=ORIENTED_EDGE('',*,*,#272,.T.);
#251=ORIENTED_EDGE('',*,*,#285,.F.);
#252=ORIENTED_EDGE('',*,*,#275,.F.);
#253=ORIENTED_EDGE('',*,*,#289,.T.);
#254=ORIENTED_EDGE('',*,*,#283,.F.);
#255=ORIENTED_EDGE('',*,*,#288,.F.);
#256=ORIENTED_EDGE('',*,*,#290,.F.);
#257=ORIENTED_EDGE('',*,*,#290,.T.);
#258=ORIENTED_EDGE('',*,*,#289,.F.);
#259=EDGE_CURVE('',#291,#292,#293,.T.);
#260=EDGE_CURVE('',#292,#294,#295,.T.);
#261=EDGE_CURVE('',#296,#294,#297,.T.);
#262=EDGE_CURVE('',#291,#296,#298,.T.);
#263=EDGE_CURVE('',#299,#299,#300,.F.);
#264=EDGE_CURVE('',#301,#302,#303,.T.);
#265=EDGE_CURVE('',#302,#304,#305,.T.);
#266=EDGE_CURVE('',#306,#304,#307,.T.);
#267=EDGE_CURVE('',#301,#306,#308,.T.);
#268=EDGE_CURVE('',#309,#309,#310,.F.);
#269=EDGE_CURVE('',#311,#312,#313,.T.);
#270=EDGE_CURVE('',#312,#314,#315,.T.);
#271=EDGE_CURVE('',#316,#314,#317,.T.);
#272=EDGE_CURVE('',#311,#316,#318,.T.);
#273=EDGE_CURVE('',#319,#319,#320,.T.);
#274=EDGE_CURVE('',#321,#322,#323,.T.);
#275=EDGE_CURVE('',#322,#324,#325,.T.);
#276=EDGE_CURVE('',#326,#324,#327,.T.);
#277=EDGE_CURVE('',#321,#326,#328,.T.);
#278=EDGE_CURVE('',#329,#329,#330,.T.);
#279=EDGE_CURVE('',#302,#291,#331,.T.);
#280=EDGE_CURVE('',#312,#301,#332,.T.);
#281=EDGE_CURVE('',#322,#311,#333,.T.);
#282=EDGE_CURVE('',#292,#321,#334,.T.);
#283=EDGE_CURVE('',#335,#335,#336,.T.);
#284=EDGE_CURVE('',#294,#326,#337,.T.);
#285=EDGE_CURVE('',#324,#316,#338,.T.);
#286=EDGE_CURVE('',#314,#306,#339,.T.);
#287=EDGE_CURVE('',#304,#296,#340,.T.);
#288=EDGE_CURVE('',#341,#341,#342,.F.);
#289=EDGE_CURVE('',#343,#343,#344,.T.);
#290=EDGE_CURVE('',#345,#345,#346,.T.);
#291=VERTEX_POINT('',#347);
#292=VERTEX_POINT('',#348);
#293=LINE('',#349,#350);
#294=VERTEX_POINT('',#352);
#295=LINE('',#353,#354);
#296=VERTEX_POINT('',#356);
#297=LINE('',#357,#358);
#298=LINE('',#360,#361);
#299=VERTEX_POINT('',#363);
#300=CIRCLE('',#364,1.6);
#301=VERTEX_POINT('',#368);
#302=VERTEX_POINT('',#369);
#303=LINE('',#370,#371);
#304=VERTEX_POINT('',#373);
#305=LINE('',#374,#375);
#306=VERTEX_POINT('',#377);
#307=LINE('',#378,#379);
#308=LINE('',#381,#382);
#309=VERTEX_POINT('',#384);
#310=CIRCLE('',#385,1.6);
#311=VERTEX_POINT('',#389);
#312=VERTEX_POINT('',#390);
#313=LINE('',#391,#392);
#314=VERTEX_POINT('',#394);
#315=LINE('',#395,#396);
#316=VERTEX_POINT('',#398);
#317=LINE('',#399,#400);
#318=LINE('',#402,#403);
#319=VERTEX_POINT('',#405);
#320=CIRCLE('',#406,1.6);
#321=VERTEX_POINT('',#410);
#322=VERTEX_POINT('',#411);
#323=LINE('',#412,#413);
#324=VERTEX_POINT('',#415);
#325=LINE('',#416,#417);
#326=VERTEX_POINT('',#419);
#327=LINE('',#420,#421);
#328=LINE('',#423,#424);
#329=VERTEX_POINT('',#426);
#330=CIRCLE('',#427,1.6);
#331=CIRCLE('',#431,14.);
#332=LINE('',#435,#436);
#333=CIRCLE('',#438,14.);
#334=LINE('',#442,#443);
#335=VERTEX_POINT('',#445);
#336=CIRCLE('',#446,9.5);
#337=LINE('',#450,#451);
#338=CIRCLE('',#453,14.);
#339=LINE('',#457,#458);
#340=CIRCLE('',#460,14.);
#341=VERTEX_POINT('',#464);
#342=CIRCLE('',#465,11.);
#343=VERTEX_POINT('',#469);
#344=CIRCLE('',#470,9.5);
#345=VERTEX_POINT('',#474);
#346=CIRCLE('',#475,11.);
#347=CARTESIAN_POINT('',(-7.12560681041627,-19.5,0.));
#348=CARTESIAN_POINT('',(-2.90853614798548E-15,-19.5,0.));
#349=CARTESIAN_POINT('',(-7.12560681041627,-19.5,0.));
#350=VECTOR('',#351,1.);
#351=DIRECTION('',(1.,9.97168037284099E-16,0.));
#352=CARTESIAN_POINT('',(-2.90853614798548E-15,-19.5,6.));
#353=CARTESIAN_POINT('',(-1.01017886414268E-15,-19.5,0.));
#354=VECTOR('',#355,1.);
#355=DIRECTION('',(0.,0.,1.));
#356=CARTESIAN_POINT('',(-7.12560681041627,-19.5,6.));
#357=CARTESIAN_POINT('',(-7.12560681041627,-19.5,6.));
#358=VECTOR('',#359,1.);
#359=DIRECTION('',(1.,9.97168037284099E-16,0.));
#360=CARTESIAN_POINT('',(-7.12560681041627,-19.5,0.));
#361=VECTOR('',#362,1.);
#362=DIRECTION('',(0.,0.,1.));
#363=CARTESIAN_POINT('',(-5.16280340520814,-19.5,3.));
#364=AXIS2_PLACEMENT_3D('',#365,#366,#367);
#365=CARTESIAN_POINT('',(-3.56280340520814,-19.5,3.));
#366=DIRECTION('',(9.97168037284099E-16,-1.,0.));
#367=DIRECTION('',(-1.,-9.97168037284099E-16,-7.49879891330929E-33));
#368=CARTESIAN_POINT('',(-40.,-19.5,0.));
#369=CARTESIAN_POINT('',(-32.8743931895837,-19.5,0.));
#370=CARTESIAN_POINT('',(-40.,-19.5,0.));
#371=VECTOR('',#372,1.);
#372=DIRECTION('',(1.,0.,0.));
#373=CARTESIAN_POINT('',(-32.8743931895837,-19.5,6.));
#374=CARTESIAN_POINT('',(-32.8743931895837,-19.5,0.));
#375=VECTOR('',#376,1.);
#376=DIRECTION('',(0.,0.,1.));
#377=CARTESIAN_POINT('',(-40.,-19.5,6.));
#378=CARTESIAN_POINT('',(-40.,-19.5,6.));
#379=VECTOR('',#380,1.);
#380=DIRECTION('',(1.,0.,0.));
#381=CARTESIAN_POINT('',(-40.,-19.5,0.));
#382=VECTOR('',#383,1.);
#383=DIRECTION('',(0.,0.,1.));
#384=CARTESIAN_POINT('',(-38.0371965947919,-19.5,3.));
#385=AXIS2_PLACEMENT_3D('',#386,#387,#388);
#386=CARTESIAN_POINT('',(-36.4371965947919,-19.5,3.));
#387=DIRECTION('',(0.,-1.,0.));
#388=DIRECTION('',(-1.,0.,-7.49879891330929E-33));
#389=CARTESIAN_POINT('',(-32.8743931895837,-8.49999999999999,0.));
#390=CARTESIAN_POINT('',(-40.,-8.49999999999999,0.));
#391=CARTESIAN_POINT('',(-32.8743931895837,-8.49999999999999,0.));
#392=VECTOR('',#393,1.);
#393=DIRECTION('',(-1.,2.49292009321025E-16,0.));
#394=CARTESIAN_POINT('',(-40.,-8.49999999999999,6.));
#395=CARTESIAN_POINT('',(-40.,-8.49999999999999,0.));
#396=VECTOR('',#397,1.);
#397=DIRECTION('',(0.,0.,1.));
#398=CARTESIAN_POINT('',(-32.8743931895837,-8.49999999999999,6.));
#399=CARTESIAN_POINT('',(-32.8743931895837,-8.49999999999999,6.));
#400=VECTOR('',#401,1.);
#401=DIRECTION('',(-1.,2.49292009321025E-16,0.));
#402=CARTESIAN_POINT('',(-32.8743931895837,-8.49999999999999,0.));
#403=VECTOR('',#404,1.);
#404=DIRECTION('',(0.,0.,1.));
#405=CARTESIAN_POINT('',(-38.0371965947919,-8.49999999999999,3.));
#406=AXIS2_PLACEMENT_3D('',#407,#408,#409);
#407=CARTESIAN_POINT('',(-36.4371965947919,-8.49999999999999,3.));
#408=DIRECTION('',(-2.49292009321025E-16,-1.,0.));
#409=DIRECTION('',(-1.,2.49292009321025E-16,-7.49879891330929E-33));
#410=CARTESIAN_POINT('',(-1.56142466891346E-15,-8.5,0.));
#411=CARTESIAN_POINT('',(-7.12560681041627,-8.5,0.));
#412=CARTESIAN_POINT('',(-1.56142466891346E-15,-8.5,0.));
#413=VECTOR('',#414,1.);
#414=DIRECTION('',(-1.,0.,0.));
#415=CARTESIAN_POINT('',(-7.12560681041627,-8.5,6.));
#416=CARTESIAN_POINT('',(-7.12560681041627,-8.5,0.));
#417=VECTOR('',#418,1.);
#418=DIRECTION('',(0.,0.,1.));
#419=CARTESIAN_POINT('',(-1.56142466891346E-15,-8.5,6.));
#420=CARTESIAN_POINT('',(-1.56142466891346E-15,-8.5,6.));
#421=VECTOR('',#422,1.);
#422=DIRECTION('',(-1.,0.,0.));
#423=CARTESIAN_POINT('',(-1.56142466891346E-15,-8.5,0.));
#424=VECTOR('',#425,1.);
#425=DIRECTION('',(0.,0.,1.));
#426=CARTESIAN_POINT('',(-5.16280340520814,-8.5,3.));
#427=AXIS2_PLACEMENT_3D('',#428,#429,#430);
#428=CARTESIAN_POINT('',(-3.56280340520814,-8.5,3.));
#429=DIRECTION('',(0.,-1.,0.));
#430=DIRECTION('',(-1.,0.,-7.49879891330929E-33));
#431=AXIS2_PLACEMENT_3D('',#432,#433,#434);
#432=CARTESIAN_POINT('',(-20.,-14.,0.));
#433=DIRECTION('',(0.,0.,1.));
#434=DIRECTION('',(-0.919599513541695,-0.392857142857143,0.));
#435=CARTESIAN_POINT('',(-40.,-8.49999999999999,0.));
#436=VECTOR('',#437,1.);
#437=DIRECTION('',(0.,-1.,0.));
#438=AXIS2_PLACEMENT_3D('',#439,#440,#441);
#439=CARTESIAN_POINT('',(-20.,-14.,0.));
#440=DIRECTION('',(0.,0.,1.));
#441=DIRECTION('',(0.919599513541695,0.392857142857143,0.));
#442=CARTESIAN_POINT('',(-2.90853614798548E-15,-19.5,0.));
#443=VECTOR('',#444,1.);
#444=DIRECTION('',(1.22464679915639E-16,1.,0.));
#445=CARTESIAN_POINT('',(-29.5,-14.,0.));
#446=AXIS2_PLACEMENT_3D('',#447,#448,#449);
#447=CARTESIAN_POINT('',(-20.,-14.,0.));
#448=DIRECTION('',(0.,0.,1.));
#449=DIRECTION('',(-1.,1.22464679914735E-16,0.));
#450=CARTESIAN_POINT('',(-2.90853614798548E-15,-19.5,6.));
#451=VECTOR('',#452,1.);
#452=DIRECTION('',(1.22464679915639E-16,1.,0.));
#453=AXIS2_PLACEMENT_3D('',#454,#455,#456);
#454=CARTESIAN_POINT('',(-20.,-14.,6.));
#455=DIRECTION('',(0.,0.,1.));
#456=DIRECTION('',(0.919599513541695,0.392857142857143,0.));
#457=CARTESIAN_POINT('',(-40.,-8.49999999999999,6.));
#458=VECTOR('',#459,1.);
#459=DIRECTION('',(0.,-1.,0.));
#460=AXIS2_PLACEMENT_3D('',#461,#462,#463);
#461=CARTESIAN_POINT('',(-20.,-14.,6.));
#462=DIRECTION('',(0.,0.,1.));
#463=DIRECTION('',(-0.919599513541695,-0.392857142857143,0.));
#464=CARTESIAN_POINT('',(-31.,-14.,6.));
#465=AXIS2_PLACEMENT_3D('',#466,#467,#468);
#466=CARTESIAN_POINT('',(-20.,-14.,6.));
#467=DIRECTION('',(0.,0.,1.));
#468=DIRECTION('',(-1.,1.22464679914735E-16,0.));
#469=CARTESIAN_POINT('',(-29.5,-14.,4.5));
#470=AXIS2_PLACEMENT_3D('',#471,#472,#473);
#471=CARTESIAN_POINT('',(-20.,-14.,4.5));
#472=DIRECTION('',(0.,0.,1.));
#473=DIRECTION('',(-1.,1.22464679914735E-16,0.));
#474=CARTESIAN_POINT('',(-31.,-14.,4.5));
#475=AXIS2_PLACEMENT_3D('',#476,#477,#478);
#476=CARTESIAN_POINT('',(-20.,-14.,4.5));
#477=DIRECTION('',(0.,0.,1.));
#478=DIRECTION('',(-1.,1.22464679914735E-16,0.));
ENDSEC;
END-ISO-10303-21;
