ISO-10303-21;
HEADER;
FILE_DESCRIPTION(('STEP AP203'),
    '1');
FILE_NAME('Полуось',
    '',
    ('UNSPECIFIED'),
    ('UNSPECIFIED'),
    'C3D Converter',
    'C3D Toolkit',
    '');
FILE_SCHEMA(('CONFIG_CONTROL_DESIGN'));
ENDSEC;

DATA;
#1=PRODUCT_DEFINITION('','UNSPECIFIED',#28,#31);
#2=SHAPE_DEFINITION_REPRESENTATION(#26,#3);
#3=SHAPE_REPRESENTATION('NONE',(#4),#8);
#4=AXIS2_PLACEMENT_3D('',#5,#6,#7);
#5=CARTESIAN_POINT('',(0.,0.,0.));
#6=DIRECTION('',(0.,0.,1.));
#7=DIRECTION('',(1.,0.,0.));
#8=(GEOMETRIC_REPRESENTATION_CONTEXT(3)GLOBAL_UNCERTAINTY_ASSIGNED_CONTEXT((#10))
GLOBAL_UNIT_ASSIGNED_CONTEXT((#9,#11,#12))REPRESENTATION_CONTEXT('NONE','NONE'));
#9=(LENGTH_UNIT()NAMED_UNIT(*)SI_UNIT(.MILLI.,.METRE.));
#10=UNCERTAINTY_MEASURE_WITH_UNIT(LENGTH_MEASURE(1.E-5),#9,'NONE','NONE');
#11=(NAMED_UNIT(*)PLANE_ANGLE_UNIT()SI_UNIT($,.RADIAN.));
#12=(NAMED_UNIT(*)SI_UNIT($,.STERADIAN.)SOLID_ANGLE_UNIT());
#13=MANIFOLD_SOLID_BREP('',#14);
#14=CLOSED_SHELL('',(#53,#54,#55,#56,#57,#58,#59,#60,#61,#62,#63,#64,#65,#66,#67,
#68,#69,#70,#71,#72,#73,#74,#75,#76,#77,#78,#79,#80,#81,#82,#83));
#15=COLOUR_RGB('',0.564705882352941,0.564705882352941,0.564705882352941);
#16=FILL_AREA_STYLE_COLOUR('',#15);
#17=FILL_AREA_STYLE($,(#16));
#18=SURFACE_STYLE_FILL_AREA(#17);
#19=SURFACE_SIDE_STYLE('',(#18));
#20=SURFACE_STYLE_USAGE(.BOTH.,#19);
#21=PRESENTATION_STYLE_ASSIGNMENT((#20));
#22=MECHANICAL_DESIGN_GEOMETRIC_PRESENTATION_REPRESENTATION('NONE',(#23),#8);
#23=STYLED_ITEM('',(#21),#13);
#24=ADVANCED_BREP_SHAPE_REPRESENTATION('NONE',(#13),#8);
#25=SHAPE_REPRESENTATION_RELATIONSHIP('','',#3,#24);
#26=PRODUCT_DEFINITION_SHAPE('NONE','NONE',#1);
#27=MECHANICAL_CONTEXT('NONE',#32,'mechanical');
#28=PRODUCT_DEFINITION_FORMATION_WITH_SPECIFIED_SOURCE('ANY','UNSPECIFIED',#29,.NOT_KNOWN.);
#29=PRODUCT('','\X2\041F043E043B0443043E0441044C\X0\','NONE',(#27));
#30=PRODUCT_RELATED_PRODUCT_CATEGORY('detail','',(#29));
#31=DESIGN_CONTEXT('detailed design',#32,'design');
#32=APPLICATION_CONTEXT('configuration controlled 3d designs of mechanical parts and assemblies');
#33=APPLICATION_PROTOCOL_DEFINITION('international standard','config_control_design',
1994,#32);
#34=CC_DESIGN_DATE_AND_TIME_ASSIGNMENT(#35,#39,(#1));
#35=DATE_AND_TIME(#36,#37);
#36=CALENDAR_DATE(0,1,1);
#37=LOCAL_TIME(0,0,0.,#38);
#38=COORDINATED_UNIVERSAL_TIME_OFFSET(0,0,.AHEAD.);
#39=DATE_TIME_ROLE('creation_date');
#40=CC_DESIGN_APPROVAL(#41,(#1));
#41=APPROVAL(#42,'UNSPECIFIED');
#42=APPROVAL_STATUS('not_yet_approved');
#43=APPROVAL_DATE_TIME(#44,#41);
#44=DATE_AND_TIME(#45,#46);
#45=CALENDAR_DATE(0,1,1);
#46=LOCAL_TIME(0,0,0.,#47);
#47=COORDINATED_UNIVERSAL_TIME_OFFSET(0,0,.AHEAD.);
#48=PERSON('UNSPECIFIED','UNSPECIFIED','UNSPECIFIED',('UNSPECIFIED'),('UNSPECIFIED'),
('UNSPECIFIED'));
#49=ORGANIZATION('UNSPECIFIED','UNSPECIFIED','UNSPECIFIED');
#50=PERSON_AND_ORGANIZATION(#48,#49);
#51=PERSON_AND_ORGANIZATION_ROLE('creator');
#52=CC_DESIGN_PERSON_AND_ORGANIZATION_ASSIGNMENT(#50,#51,(#28,#1));
#53=ADVANCED_FACE('',(#84,#86),#88,.T.);
#54=ADVANCED_FACE('',(#93,#95),#97,.F.);
#55=ADVANCED_FACE('',(#102),#104,.T.);
#56=ADVANCED_FACE('',(#109),#111,.F.);
#57=ADVANCED_FACE('',(#116),#118,.F.);
#58=ADVANCED_FACE('',(#123),#125,.F.);
#59=ADVANCED_FACE('',(#130),#132,.F.);
#60=ADVANCED_FACE('',(#137),#139,.F.);
#61=ADVANCED_FACE('',(#144),#146,.F.);
#62=ADVANCED_FACE('',(#151,#153),#155,.T.);
#63=ADVANCED_FACE('',(#160,#162),#164,.T.);
#64=ADVANCED_FACE('',(#169,#171),#173,.T.);
#65=ADVANCED_FACE('',(#178),#180,.T.);
#66=ADVANCED_FACE('',(#185),#187,.T.);
#67=ADVANCED_FACE('',(#192),#194,.T.);
#68=ADVANCED_FACE('',(#199),#201,.T.);
#69=ADVANCED_FACE('',(#206,#208),#210,.T.);
#70=ADVANCED_FACE('',(#215,#217),#219,.F.);
#71=ADVANCED_FACE('',(#224,#226),#228,.T.);
#72=ADVANCED_FACE('',(#233,#235),#237,.T.);
#73=ADVANCED_FACE('',(#242),#244,.T.);
#74=ADVANCED_FACE('',(#249),#251,.T.);
#75=ADVANCED_FACE('',(#256),#258,.T.);
#76=ADVANCED_FACE('',(#263),#265,.T.);
#77=ADVANCED_FACE('',(#270),#272,.T.);
#78=ADVANCED_FACE('',(#277),#279,.T.);
#79=ADVANCED_FACE('',(#284),#286,.T.);
#80=ADVANCED_FACE('',(#291),#293,.T.);
#81=ADVANCED_FACE('',(#298),#300,.T.);
#82=ADVANCED_FACE('',(#305),#307,.T.);
#83=ADVANCED_FACE('',(#312),#314,.T.);
#84=FACE_BOUND('',#85,.T.);
#85=EDGE_LOOP('',(#319));
#86=FACE_BOUND('',#87,.T.);
#87=EDGE_LOOP('',(#320,#321,#322,#323,#324,#325));
#88=PLANE('',#89);
#89=AXIS2_PLACEMENT_3D('',#90,#91,#92);
#90=CARTESIAN_POINT('',(-1.30344475055268E-15,-7.07233526507597E-16,11.55));
#91=DIRECTION('',(-1.1285235935521E-16,-6.12323399573677E-17,1.));
#92=DIRECTION('',(1.,-6.91021403302925E-33,1.1285235935521E-16));
#93=FACE_BOUND('',#94,.T.);
#94=EDGE_LOOP('',(#326,#327,#328,#329,#330,#331,#332,#333,#334,#335,#336,#337,#338));
#95=FACE_OUTER_BOUND('',#96,.T.);
#96=EDGE_LOOP('',(#339));
#97=CYLINDRICAL_SURFACE('',#98,1.6);
#98=AXIS2_PLACEMENT_3D('',#99,#100,#101);
#99=CARTESIAN_POINT('',(-1.30344475055268E-15,-7.07233526507597E-16,11.55));
#100=DIRECTION('',(-1.1285235935521E-16,-6.12323399573677E-17,1.));
#101=DIRECTION('',(1.,-6.91021403302925E-33,1.1285235935521E-16));
#102=FACE_BOUND('',#103,.T.);
#103=EDGE_LOOP('',(#340,#341,#342));
#104=PLANE('',#105);
#105=AXIS2_PLACEMENT_3D('',#106,#107,#108);
#106=CARTESIAN_POINT('',(9.02818874841681E-16,4.89858719658941E-16,3.55));
#107=DIRECTION('',(-1.1285235935521E-16,-6.12323399573677E-17,1.));
#108=DIRECTION('',(-1.,1.22464679914735E-16,-1.1285235935521E-16));
#109=FACE_BOUND('',#110,.T.);
#110=EDGE_LOOP('',(#343,#344,#345,#346));
#111=PLANE('',#112);
#112=AXIS2_PLACEMENT_3D('',#113,#114,#115);
#113=CARTESIAN_POINT('',(-2.5,-1.44337567297406,3.55));
#114=DIRECTION('',(-0.500000000000001,-0.866025403784438,-1.27622251970641E-16));
#115=DIRECTION('',(0.866025403784438,-0.500000000000001,1.53837014910685E-16));
#116=FACE_BOUND('',#117,.T.);
#117=EDGE_LOOP('',(#347,#348,#349,#350));
#118=PLANE('',#119);
#119=AXIS2_PLACEMENT_3D('',#120,#121,#122);
#120=CARTESIAN_POINT('',(-2.5,1.44337567297407,3.55));
#121=DIRECTION('',(-1.,0.,-1.11022302462516E-16));
#122=DIRECTION('',(0.,-1.,0.));
#123=FACE_BOUND('',#124,.T.);
#124=EDGE_LOOP('',(#351,#352,#353,#354));
#125=PLANE('',#126);
#126=AXIS2_PLACEMENT_3D('',#127,#128,#129);
#127=CARTESIAN_POINT('',(3.23490047805633E-16,2.88675134594813,3.55));
#128=DIRECTION('',(-0.499999999999999,0.866025403784439,-8.35211251801586E-18));
#129=DIRECTION('',(-0.866025403784439,-0.499999999999999,-1.53837014910685E-16));
#130=FACE_BOUND('',#131,.T.);
#131=EDGE_LOOP('',(#355,#356,#357,#358));
#132=PLANE('',#133);
#133=AXIS2_PLACEMENT_3D('',#134,#135,#136);
#134=CARTESIAN_POINT('',(2.5,1.44337567297406,3.55));
#135=DIRECTION('',(0.5,0.866025403784439,1.03585218390847E-16));
#136=DIRECTION('',(-0.866025403784439,0.5,-1.53837014910685E-16));
#137=FACE_BOUND('',#138,.T.);
#138=EDGE_LOOP('',(#359,#360,#361,#362));
#139=PLANE('',#140);
#140=AXIS2_PLACEMENT_3D('',#141,#142,#143);
#141=CARTESIAN_POINT('',(2.5,-1.44337567297406,3.55));
#142=DIRECTION('',(1.,0.,1.11022302462516E-16));
#143=DIRECTION('',(0.,1.,0.));
#144=FACE_BOUND('',#145,.T.);
#145=EDGE_LOOP('',(#363,#364,#365,#366));
#146=PLANE('',#147);
#147=AXIS2_PLACEMENT_3D('',#148,#149,#150);
#148=CARTESIAN_POINT('',(-9.2626222203349E-16,-2.88675134594813,3.55));
#149=DIRECTION('',(0.5,-0.866025403784439,8.35211251801596E-18));
#150=DIRECTION('',(0.866025403784439,0.5,1.53837014910685E-16));
#151=FACE_OUTER_BOUND('',#152,.T.);
#152=EDGE_LOOP('',(#367));
#153=FACE_OUTER_BOUND('',#154,.T.);
#154=EDGE_LOOP('',(#368));
#155=CYLINDRICAL_SURFACE('',#156,5.05);
#156=AXIS2_PLACEMENT_3D('',#157,#158,#159);
#157=CARTESIAN_POINT('',(-8.70663119617972E-16,-4.72411391604004E-16,7.71506350946109));
#158=DIRECTION('',(-1.1285235935521E-16,-6.12323399573677E-17,1.));
#159=DIRECTION('',(1.,3.85914100417385E-33,1.1285235935521E-16));
#160=FACE_BOUND('',#161,.T.);
#161=EDGE_LOOP('',(#369,#370,#371,#372));
#162=FACE_BOUND('',#163,.T.);
#163=EDGE_LOOP('',(#373));
#164=PLANE('',#165);
#165=AXIS2_PLACEMENT_3D('',#166,#167,#168);
#166=CARTESIAN_POINT('',(0.,0.,0.));
#167=DIRECTION('',(1.1285235935521E-16,6.12323399573677E-17,-1.));
#168=DIRECTION('',(1.,-6.91021403302925E-33,1.1285235935521E-16));
#169=FACE_OUTER_BOUND('',#170,.T.);
#170=EDGE_LOOP('',(#374));
#171=FACE_OUTER_BOUND('',#172,.T.);
#172=EDGE_LOOP('',(#375));
#173=CONICAL_SURFACE('',#174,5.675,0.5235987755983);
#174=AXIS2_PLACEMENT_3D('',#175,#176,#177);
#175=CARTESIAN_POINT('',(-7.48496857019694E-16,-4.06125439183697E-16,6.63253175473055));
#176=DIRECTION('',(1.1285235935521E-16,6.12323399573677E-17,-1.));
#177=DIRECTION('',(-1.,-1.72236421107799E-33,-1.1285235935521E-16));
#178=FACE_BOUND('',#179,.T.);
#179=EDGE_LOOP('',(#376,#377,#378,#379));
#180=PLANE('',#181);
#181=AXIS2_PLACEMENT_3D('',#182,#183,#184);
#182=CARTESIAN_POINT('',(2.9,2.9,0.));
#183=DIRECTION('',(1.53134210293125E-16,1.,0.));
#184=DIRECTION('',(-1.,1.53134210293125E-16,0.));
#185=FACE_BOUND('',#186,.T.);
#186=EDGE_LOOP('',(#380,#381,#382,#383));
#187=PLANE('',#188);
#188=AXIS2_PLACEMENT_3D('',#189,#190,#191);
#189=CARTESIAN_POINT('',(2.9,-2.9,0.));
#190=DIRECTION('',(1.,-1.53134210293125E-16,0.));
#191=DIRECTION('',(1.53134210293125E-16,1.,0.));
#192=FACE_BOUND('',#193,.T.);
#193=EDGE_LOOP('',(#384,#385,#386,#387));
#194=PLANE('',#195);
#195=AXIS2_PLACEMENT_3D('',#196,#197,#198);
#196=CARTESIAN_POINT('',(-2.9,-2.9,0.));
#197=DIRECTION('',(-1.53134210293125E-16,-1.,0.));
#198=DIRECTION('',(1.,-1.53134210293125E-16,0.));
#199=FACE_BOUND('',#200,.T.);
#200=EDGE_LOOP('',(#388,#389,#390,#391));
#201=PLANE('',#202);
#202=AXIS2_PLACEMENT_3D('',#203,#204,#205);
#203=CARTESIAN_POINT('',(-2.9,2.9,0.));
#204=DIRECTION('',(-1.,1.53134210293125E-16,0.));
#205=DIRECTION('',(-1.53134210293125E-16,-1.,0.));
#206=FACE_OUTER_BOUND('',#207,.T.);
#207=EDGE_LOOP('',(#392));
#208=FACE_OUTER_BOUND('',#209,.T.);
#209=EDGE_LOOP('',(#393));
#210=CYLINDRICAL_SURFACE('',#211,6.3);
#211=AXIS2_PLACEMENT_3D('',#212,#213,#214);
#212=CARTESIAN_POINT('',(-5.13478235066206E-16,-2.78607146806023E-16,4.55));
#213=DIRECTION('',(-1.1285235935521E-16,-6.12323399573677E-17,1.));
#214=DIRECTION('',(1.,-6.10363683278125E-33,1.1285235935521E-16));
#215=FACE_BOUND('',#216,.T.);
#216=EDGE_LOOP('',(#394));
#217=FACE_BOUND('',#218,.T.);
#218=EDGE_LOOP('',(#395,#396,#397,#398));
#219=PLANE('',#220);
#220=AXIS2_PLACEMENT_3D('',#221,#222,#223);
#221=CARTESIAN_POINT('',(0.,0.,2.));
#222=DIRECTION('',(0.,0.,1.));
#223=DIRECTION('',(-1.,1.22464679914735E-16,0.));
#224=FACE_BOUND('',#225,.T.);
#225=EDGE_LOOP('',(#399));
#226=FACE_BOUND('',#227,.T.);
#227=EDGE_LOOP('',(#400));
#228=PLANE('',#229);
#229=AXIS2_PLACEMENT_3D('',#230,#231,#232);
#230=CARTESIAN_POINT('',(-5.13478235066206E-16,-2.78607146806023E-16,4.55));
#231=DIRECTION('',(1.1285235935521E-16,6.12323399573677E-17,-1.));
#232=DIRECTION('',(1.,-6.10363683278125E-33,1.1285235935521E-16));
#233=FACE_OUTER_BOUND('',#234,.T.);
#234=EDGE_LOOP('',(#401));
#235=FACE_OUTER_BOUND('',#236,.T.);
#236=EDGE_LOOP('',(#402));
#237=CYLINDRICAL_SURFACE('',#238,4.9);
#238=AXIS2_PLACEMENT_3D('',#239,#240,#241);
#239=CARTESIAN_POINT('',(0.,0.,0.));
#240=DIRECTION('',(-1.1285235935521E-16,-6.12323399573677E-17,1.));
#241=DIRECTION('',(1.,-6.91021403302925E-33,1.1285235935521E-16));
#242=FACE_BOUND('',#243,.T.);
#243=EDGE_LOOP('',(#403,#404,#405));
#244=PLANE('',#245);
#245=AXIS2_PLACEMENT_3D('',#246,#247,#248);
#246=CARTESIAN_POINT('',(9.02818874841681E-16,4.89858719658941E-16,3.55));
#247=DIRECTION('',(-1.1285235935521E-16,-6.12323399573677E-17,1.));
#248=DIRECTION('',(-1.,1.22464679914735E-16,-1.1285235935521E-16));
#249=FACE_BOUND('',#250,.T.);
#250=EDGE_LOOP('',(#406,#407,#408));
#251=PLANE('',#252);
#252=AXIS2_PLACEMENT_3D('',#253,#254,#255);
#253=CARTESIAN_POINT('',(9.02818874841681E-16,4.89858719658941E-16,3.55));
#254=DIRECTION('',(-1.1285235935521E-16,-6.12323399573677E-17,1.));
#255=DIRECTION('',(-1.,1.22464679914735E-16,-1.1285235935521E-16));
#256=FACE_BOUND('',#257,.T.);
#257=EDGE_LOOP('',(#409,#410,#411));
#258=PLANE('',#259);
#259=AXIS2_PLACEMENT_3D('',#260,#261,#262);
#260=CARTESIAN_POINT('',(9.02818874841681E-16,4.89858719658941E-16,3.55));
#261=DIRECTION('',(-1.1285235935521E-16,-6.12323399573677E-17,1.));
#262=DIRECTION('',(-1.,1.22464679914735E-16,-1.1285235935521E-16));
#263=FACE_BOUND('',#264,.T.);
#264=EDGE_LOOP('',(#412,#413,#414));
#265=PLANE('',#266);
#266=AXIS2_PLACEMENT_3D('',#267,#268,#269);
#267=CARTESIAN_POINT('',(9.02818874841681E-16,4.89858719658941E-16,3.55));
#268=DIRECTION('',(-1.1285235935521E-16,-6.12323399573677E-17,1.));
#269=DIRECTION('',(-1.,1.22464679914735E-16,-1.1285235935521E-16));
#270=FACE_BOUND('',#271,.T.);
#271=EDGE_LOOP('',(#415,#416,#417));
#272=PLANE('',#273);
#273=AXIS2_PLACEMENT_3D('',#274,#275,#276);
#274=CARTESIAN_POINT('',(9.02818874841681E-16,4.89858719658941E-16,3.55));
#275=DIRECTION('',(-1.1285235935521E-16,-6.12323399573677E-17,1.));
#276=DIRECTION('',(-1.,1.22464679914735E-16,-1.1285235935521E-16));
#277=FACE_BOUND('',#278,.T.);
#278=EDGE_LOOP('',(#418,#419,#420,#421,#422,#423));
#279=PLANE('',#280);
#280=AXIS2_PLACEMENT_3D('',#281,#282,#283);
#281=CARTESIAN_POINT('',(-3.81051177665153,-5.08675134594813,4.65));
#282=DIRECTION('',(-0.353553390593274,0.612372435695795,0.707106781186547));
#283=DIRECTION('',(0.866025403784439,0.5,-2.68696135000448E-17));
#284=FACE_BOUND('',#285,.T.);
#285=EDGE_LOOP('',(#424,#425,#426,#427,#428,#429,#430));
#286=PLANE('',#287);
#287=AXIS2_PLACEMENT_3D('',#288,#289,#290);
#288=CARTESIAN_POINT('',(2.5,-5.84337567297406,4.65));
#289=DIRECTION('',(-0.707106781186548,0.,0.707106781186547));
#290=DIRECTION('',(0.,1.,0.));
#291=FACE_BOUND('',#292,.T.);
#292=EDGE_LOOP('',(#431,#432,#433,#434,#435,#436));
#293=PLANE('',#294);
#294=AXIS2_PLACEMENT_3D('',#295,#296,#297);
#295=CARTESIAN_POINT('',(6.31051177665153,-0.756624327025936,4.65));
#296=DIRECTION('',(-0.353553390593274,-0.612372435695795,0.707106781186548));
#297=DIRECTION('',(-0.866025403784439,0.5,-2.68696135000448E-17));
#298=FACE_BOUND('',#299,.T.);
#299=EDGE_LOOP('',(#437,#438,#439,#440,#441,#442));
#300=PLANE('',#301);
#301=AXIS2_PLACEMENT_3D('',#302,#303,#304);
#302=CARTESIAN_POINT('',(3.81051177665153,5.08675134594812,4.65));
#303=DIRECTION('',(0.353553390593273,-0.612372435695795,0.707106781186548));
#304=DIRECTION('',(-0.866025403784439,-0.499999999999999,0.));
#305=FACE_BOUND('',#306,.T.);
#306=EDGE_LOOP('',(#443,#444,#445,#446,#447,#448));
#307=PLANE('',#308);
#308=AXIS2_PLACEMENT_3D('',#309,#310,#311);
#309=CARTESIAN_POINT('',(-2.5,5.84337567297407,4.65));
#310=DIRECTION('',(0.707106781186547,0.,0.707106781186548));
#311=DIRECTION('',(0.,-1.,0.));
#312=FACE_BOUND('',#313,.T.);
#313=EDGE_LOOP('',(#449,#450,#451,#452,#453,#454));
#314=PLANE('',#315);
#315=AXIS2_PLACEMENT_3D('',#316,#317,#318);
#316=CARTESIAN_POINT('',(-6.31051177665153,0.75662432702594,4.65));
#317=DIRECTION('',(0.353553390593274,0.612372435695794,0.707106781186547));
#318=DIRECTION('',(0.866025403784438,-0.500000000000001,0.));
#319=ORIENTED_EDGE('',*,*,#455,.T.);
#320=ORIENTED_EDGE('',*,*,#456,.T.);
#321=ORIENTED_EDGE('',*,*,#457,.T.);
#322=ORIENTED_EDGE('',*,*,#458,.T.);
#323=ORIENTED_EDGE('',*,*,#459,.T.);
#324=ORIENTED_EDGE('',*,*,#460,.T.);
#325=ORIENTED_EDGE('',*,*,#461,.T.);
#326=ORIENTED_EDGE('',*,*,#462,.F.);
#327=ORIENTED_EDGE('',*,*,#463,.T.);
#328=ORIENTED_EDGE('',*,*,#464,.T.);
#329=ORIENTED_EDGE('',*,*,#465,.T.);
#330=ORIENTED_EDGE('',*,*,#466,.T.);
#331=ORIENTED_EDGE('',*,*,#467,.T.);
#332=ORIENTED_EDGE('',*,*,#468,.T.);
#333=ORIENTED_EDGE('',*,*,#469,.T.);
#334=ORIENTED_EDGE('',*,*,#470,.T.);
#335=ORIENTED_EDGE('',*,*,#471,.T.);
#336=ORIENTED_EDGE('',*,*,#472,.T.);
#337=ORIENTED_EDGE('',*,*,#473,.T.);
#338=ORIENTED_EDGE('',*,*,#474,.T.);
#339=ORIENTED_EDGE('',*,*,#475,.F.);
#340=ORIENTED_EDGE('',*,*,#476,.T.);
#341=ORIENTED_EDGE('',*,*,#471,.F.);
#342=ORIENTED_EDGE('',*,*,#477,.T.);
#343=ORIENTED_EDGE('',*,*,#478,.F.);
#344=ORIENTED_EDGE('',*,*,#479,.T.);
#345=ORIENTED_EDGE('',*,*,#457,.F.);
#346=ORIENTED_EDGE('',*,*,#480,.F.);
#347=ORIENTED_EDGE('',*,*,#481,.F.);
#348=ORIENTED_EDGE('',*,*,#482,.T.);
#349=ORIENTED_EDGE('',*,*,#458,.F.);
#350=ORIENTED_EDGE('',*,*,#479,.F.);
#351=ORIENTED_EDGE('',*,*,#483,.F.);
#352=ORIENTED_EDGE('',*,*,#484,.T.);
#353=ORIENTED_EDGE('',*,*,#459,.F.);
#354=ORIENTED_EDGE('',*,*,#482,.F.);
#355=ORIENTED_EDGE('',*,*,#485,.F.);
#356=ORIENTED_EDGE('',*,*,#486,.T.);
#357=ORIENTED_EDGE('',*,*,#460,.F.);
#358=ORIENTED_EDGE('',*,*,#484,.F.);
#359=ORIENTED_EDGE('',*,*,#487,.F.);
#360=ORIENTED_EDGE('',*,*,#488,.T.);
#361=ORIENTED_EDGE('',*,*,#461,.F.);
#362=ORIENTED_EDGE('',*,*,#486,.F.);
#363=ORIENTED_EDGE('',*,*,#489,.F.);
#364=ORIENTED_EDGE('',*,*,#480,.T.);
#365=ORIENTED_EDGE('',*,*,#456,.F.);
#366=ORIENTED_EDGE('',*,*,#488,.F.);
#367=ORIENTED_EDGE('',*,*,#455,.F.);
#368=ORIENTED_EDGE('',*,*,#490,.T.);
#369=ORIENTED_EDGE('',*,*,#491,.T.);
#370=ORIENTED_EDGE('',*,*,#492,.T.);
#371=ORIENTED_EDGE('',*,*,#493,.T.);
#372=ORIENTED_EDGE('',*,*,#494,.T.);
#373=ORIENTED_EDGE('',*,*,#475,.T.);
#374=ORIENTED_EDGE('',*,*,#495,.T.);
#375=ORIENTED_EDGE('',*,*,#490,.F.);
#376=ORIENTED_EDGE('',*,*,#491,.F.);
#377=ORIENTED_EDGE('',*,*,#496,.T.);
#378=ORIENTED_EDGE('',*,*,#497,.T.);
#379=ORIENTED_EDGE('',*,*,#498,.F.);
#380=ORIENTED_EDGE('',*,*,#492,.F.);
#381=ORIENTED_EDGE('',*,*,#498,.T.);
#382=ORIENTED_EDGE('',*,*,#499,.T.);
#383=ORIENTED_EDGE('',*,*,#500,.F.);
#384=ORIENTED_EDGE('',*,*,#493,.F.);
#385=ORIENTED_EDGE('',*,*,#500,.T.);
#386=ORIENTED_EDGE('',*,*,#501,.T.);
#387=ORIENTED_EDGE('',*,*,#502,.F.);
#388=ORIENTED_EDGE('',*,*,#494,.F.);
#389=ORIENTED_EDGE('',*,*,#502,.T.);
#390=ORIENTED_EDGE('',*,*,#503,.T.);
#391=ORIENTED_EDGE('',*,*,#496,.F.);
#392=ORIENTED_EDGE('',*,*,#495,.F.);
#393=ORIENTED_EDGE('',*,*,#504,.T.);
#394=ORIENTED_EDGE('',*,*,#505,.F.);
#395=ORIENTED_EDGE('',*,*,#501,.F.);
#396=ORIENTED_EDGE('',*,*,#499,.F.);
#397=ORIENTED_EDGE('',*,*,#497,.F.);
#398=ORIENTED_EDGE('',*,*,#503,.F.);
#399=ORIENTED_EDGE('',*,*,#504,.F.);
#400=ORIENTED_EDGE('',*,*,#506,.T.);
#401=ORIENTED_EDGE('',*,*,#506,.F.);
#402=ORIENTED_EDGE('',*,*,#505,.T.);
#403=ORIENTED_EDGE('',*,*,#507,.T.);
#404=ORIENTED_EDGE('',*,*,#508,.T.);
#405=ORIENTED_EDGE('',*,*,#473,.F.);
#406=ORIENTED_EDGE('',*,*,#509,.T.);
#407=ORIENTED_EDGE('',*,*,#510,.T.);
#408=ORIENTED_EDGE('',*,*,#463,.F.);
#409=ORIENTED_EDGE('',*,*,#511,.T.);
#410=ORIENTED_EDGE('',*,*,#512,.T.);
#411=ORIENTED_EDGE('',*,*,#465,.F.);
#412=ORIENTED_EDGE('',*,*,#513,.T.);
#413=ORIENTED_EDGE('',*,*,#514,.T.);
#414=ORIENTED_EDGE('',*,*,#467,.F.);
#415=ORIENTED_EDGE('',*,*,#515,.T.);
#416=ORIENTED_EDGE('',*,*,#516,.T.);
#417=ORIENTED_EDGE('',*,*,#469,.F.);
#418=ORIENTED_EDGE('',*,*,#489,.T.);
#419=ORIENTED_EDGE('',*,*,#517,.T.);
#420=ORIENTED_EDGE('',*,*,#507,.F.);
#421=ORIENTED_EDGE('',*,*,#472,.F.);
#422=ORIENTED_EDGE('',*,*,#476,.F.);
#423=ORIENTED_EDGE('',*,*,#518,.F.);
#424=ORIENTED_EDGE('',*,*,#487,.T.);
#425=ORIENTED_EDGE('',*,*,#519,.T.);
#426=ORIENTED_EDGE('',*,*,#509,.F.);
#427=ORIENTED_EDGE('',*,*,#462,.T.);
#428=ORIENTED_EDGE('',*,*,#474,.F.);
#429=ORIENTED_EDGE('',*,*,#508,.F.);
#430=ORIENTED_EDGE('',*,*,#517,.F.);
#431=ORIENTED_EDGE('',*,*,#485,.T.);
#432=ORIENTED_EDGE('',*,*,#520,.T.);
#433=ORIENTED_EDGE('',*,*,#511,.F.);
#434=ORIENTED_EDGE('',*,*,#464,.F.);
#435=ORIENTED_EDGE('',*,*,#510,.F.);
#436=ORIENTED_EDGE('',*,*,#519,.F.);
#437=ORIENTED_EDGE('',*,*,#483,.T.);
#438=ORIENTED_EDGE('',*,*,#521,.T.);
#439=ORIENTED_EDGE('',*,*,#513,.F.);
#440=ORIENTED_EDGE('',*,*,#466,.F.);
#441=ORIENTED_EDGE('',*,*,#512,.F.);
#442=ORIENTED_EDGE('',*,*,#520,.F.);
#443=ORIENTED_EDGE('',*,*,#481,.T.);
#444=ORIENTED_EDGE('',*,*,#522,.T.);
#445=ORIENTED_EDGE('',*,*,#515,.F.);
#446=ORIENTED_EDGE('',*,*,#468,.F.);
#447=ORIENTED_EDGE('',*,*,#514,.F.);
#448=ORIENTED_EDGE('',*,*,#521,.F.);
#449=ORIENTED_EDGE('',*,*,#478,.T.);
#450=ORIENTED_EDGE('',*,*,#518,.T.);
#451=ORIENTED_EDGE('',*,*,#477,.F.);
#452=ORIENTED_EDGE('',*,*,#470,.F.);
#453=ORIENTED_EDGE('',*,*,#516,.F.);
#454=ORIENTED_EDGE('',*,*,#522,.F.);
#455=EDGE_CURVE('',#523,#523,#524,.T.);
#456=EDGE_CURVE('',#525,#526,#527,.F.);
#457=EDGE_CURVE('',#526,#528,#529,.F.);
#458=EDGE_CURVE('',#528,#530,#531,.F.);
#459=EDGE_CURVE('',#530,#532,#533,.F.);
#460=EDGE_CURVE('',#532,#534,#535,.F.);
#461=EDGE_CURVE('',#534,#525,#536,.F.);
#462=EDGE_CURVE('',#537,#538,#539,.T.);
#463=EDGE_CURVE('',#537,#540,#541,.T.);
#464=EDGE_CURVE('',#540,#542,#543,.T.);
#465=EDGE_CURVE('',#542,#544,#545,.T.);
#466=EDGE_CURVE('',#544,#546,#547,.T.);
#467=EDGE_CURVE('',#546,#548,#549,.T.);
#468=EDGE_CURVE('',#548,#550,#551,.T.);
#469=EDGE_CURVE('',#550,#552,#553,.T.);
#470=EDGE_CURVE('',#552,#554,#555,.T.);
#471=EDGE_CURVE('',#554,#556,#557,.T.);
#472=EDGE_CURVE('',#556,#558,#559,.T.);
#473=EDGE_CURVE('',#558,#560,#561,.T.);
#474=EDGE_CURVE('',#560,#538,#562,.T.);
#475=EDGE_CURVE('',#563,#563,#564,.T.);
#476=EDGE_CURVE('',#565,#556,#566,.T.);
#477=EDGE_CURVE('',#554,#565,#567,.T.);
#478=EDGE_CURVE('',#568,#569,#570,.T.);
#479=EDGE_CURVE('',#568,#528,#571,.T.);
#480=EDGE_CURVE('',#569,#526,#572,.T.);
#481=EDGE_CURVE('',#573,#568,#574,.T.);
#482=EDGE_CURVE('',#573,#530,#575,.T.);
#483=EDGE_CURVE('',#576,#573,#577,.T.);
#484=EDGE_CURVE('',#576,#532,#578,.T.);
#485=EDGE_CURVE('',#579,#576,#580,.T.);
#486=EDGE_CURVE('',#579,#534,#581,.T.);
#487=EDGE_CURVE('',#582,#579,#583,.T.);
#488=EDGE_CURVE('',#582,#525,#584,.T.);
#489=EDGE_CURVE('',#569,#582,#585,.T.);
#490=EDGE_CURVE('',#586,#586,#587,.T.);
#491=EDGE_CURVE('',#588,#589,#590,.T.);
#492=EDGE_CURVE('',#589,#591,#592,.T.);
#493=EDGE_CURVE('',#591,#593,#594,.T.);
#494=EDGE_CURVE('',#593,#588,#595,.T.);
#495=EDGE_CURVE('',#596,#596,#597,.T.);
#496=EDGE_CURVE('',#588,#598,#599,.T.);
#497=EDGE_CURVE('',#598,#600,#601,.F.);
#498=EDGE_CURVE('',#589,#600,#602,.T.);
#499=EDGE_CURVE('',#600,#603,#604,.F.);
#500=EDGE_CURVE('',#591,#603,#605,.T.);
#501=EDGE_CURVE('',#603,#606,#607,.F.);
#502=EDGE_CURVE('',#593,#606,#608,.T.);
#503=EDGE_CURVE('',#606,#598,#609,.F.);
#504=EDGE_CURVE('',#610,#610,#611,.T.);
#505=EDGE_CURVE('',#612,#612,#613,.T.);
#506=EDGE_CURVE('',#614,#614,#615,.T.);
#507=EDGE_CURVE('',#558,#616,#617,.T.);
#508=EDGE_CURVE('',#616,#560,#618,.T.);
#509=EDGE_CURVE('',#537,#619,#620,.T.);
#510=EDGE_CURVE('',#619,#540,#621,.T.);
#511=EDGE_CURVE('',#542,#622,#623,.T.);
#512=EDGE_CURVE('',#622,#544,#624,.T.);
#513=EDGE_CURVE('',#546,#625,#626,.T.);
#514=EDGE_CURVE('',#625,#548,#627,.T.);
#515=EDGE_CURVE('',#550,#628,#629,.T.);
#516=EDGE_CURVE('',#628,#552,#630,.T.);
#517=EDGE_CURVE('',#582,#616,#631,.T.);
#518=EDGE_CURVE('',#569,#565,#632,.T.);
#519=EDGE_CURVE('',#579,#619,#633,.T.);
#520=EDGE_CURVE('',#576,#622,#634,.T.);
#521=EDGE_CURVE('',#573,#625,#635,.T.);
#522=EDGE_CURVE('',#568,#628,#636,.T.);
#523=VERTEX_POINT('',#637);
#524=CIRCLE('',#638,5.05);
#525=VERTEX_POINT('',#642);
#526=VERTEX_POINT('',#643);
#527=LINE('',#644,#645);
#528=VERTEX_POINT('',#647);
#529=LINE('',#648,#649);
#530=VERTEX_POINT('',#651);
#531=LINE('',#652,#653);
#532=VERTEX_POINT('',#655);
#533=LINE('',#656,#657);
#534=VERTEX_POINT('',#659);
#535=LINE('',#660,#661);
#536=LINE('',#663,#664);
#537=VERTEX_POINT('',#666);
#538=VERTEX_POINT('',#667);
#539=(BOUNDED_CURVE()B_SPLINE_CURVE(3,
(#668,#669,#670,#671),
.UNSPECIFIED.,.F.,.F.)B_SPLINE_CURVE_WITH_KNOTS((4,4),
(0.,1.),
.UNSPECIFIED.)CURVE()GEOMETRIC_REPRESENTATION_ITEM()RATIONAL_B_SPLINE_CURVE((1.,
0.978830557701236,0.978830557701236,1.))REPRESENTATION_ITEM(''));
#540=VERTEX_POINT('',#672);
#541=CIRCLE('',#673,1.6);
#542=VERTEX_POINT('',#677);
#543=(BOUNDED_CURVE()B_SPLINE_CURVE(3,
(#678,#679,#680,#681),
.UNSPECIFIED.,.F.,.F.)B_SPLINE_CURVE_WITH_KNOTS((4,4),
(0.,1.),
.UNSPECIFIED.)CURVE()GEOMETRIC_REPRESENTATION_ITEM()RATIONAL_B_SPLINE_CURVE((1.,
0.916666666666666,0.916666666666666,1.))REPRESENTATION_ITEM(''));
#544=VERTEX_POINT('',#682);
#545=CIRCLE('',#683,1.6);
#546=VERTEX_POINT('',#687);
#547=(BOUNDED_CURVE()B_SPLINE_CURVE(3,
(#688,#689,#690,#691),
.UNSPECIFIED.,.F.,.F.)B_SPLINE_CURVE_WITH_KNOTS((4,4),
(0.,1.),
.UNSPECIFIED.)CURVE()GEOMETRIC_REPRESENTATION_ITEM()RATIONAL_B_SPLINE_CURVE((1.,
0.916666666666668,0.916666666666668,1.))REPRESENTATION_ITEM(''));
#548=VERTEX_POINT('',#692);
#549=CIRCLE('',#693,1.6);
#550=VERTEX_POINT('',#697);
#551=(BOUNDED_CURVE()B_SPLINE_CURVE(3,
(#698,#699,#700,#701),
.UNSPECIFIED.,.F.,.F.)B_SPLINE_CURVE_WITH_KNOTS((4,4),
(0.,1.),
.UNSPECIFIED.)CURVE()GEOMETRIC_REPRESENTATION_ITEM()RATIONAL_B_SPLINE_CURVE((1.,
0.916666666666665,0.916666666666665,1.))REPRESENTATION_ITEM(''));
#552=VERTEX_POINT('',#702);
#553=CIRCLE('',#703,1.6);
#554=VERTEX_POINT('',#707);
#555=(BOUNDED_CURVE()B_SPLINE_CURVE(3,
(#708,#709,#710,#711),
.UNSPECIFIED.,.F.,.F.)B_SPLINE_CURVE_WITH_KNOTS((4,4),
(0.,1.),
.UNSPECIFIED.)CURVE()GEOMETRIC_REPRESENTATION_ITEM()RATIONAL_B_SPLINE_CURVE((1.,
0.916666666666666,0.916666666666666,1.))REPRESENTATION_ITEM(''));
#556=VERTEX_POINT('',#712);
#557=CIRCLE('',#713,1.6);
#558=VERTEX_POINT('',#717);
#559=(BOUNDED_CURVE()B_SPLINE_CURVE(3,
(#718,#719,#720,#721),
.UNSPECIFIED.,.F.,.F.)B_SPLINE_CURVE_WITH_KNOTS((4,4),
(0.,1.),
.UNSPECIFIED.)CURVE()GEOMETRIC_REPRESENTATION_ITEM()RATIONAL_B_SPLINE_CURVE((1.,
0.916666666666666,0.916666666666666,1.))REPRESENTATION_ITEM(''));
#560=VERTEX_POINT('',#722);
#561=CIRCLE('',#723,1.6);
#562=(BOUNDED_CURVE()B_SPLINE_CURVE(3,
(#727,#728,#729,#730),
.UNSPECIFIED.,.F.,.F.)B_SPLINE_CURVE_WITH_KNOTS((4,4),
(0.,1.),
.UNSPECIFIED.)CURVE()GEOMETRIC_REPRESENTATION_ITEM()RATIONAL_B_SPLINE_CURVE((1.,
0.978830557701236,0.978830557701236,1.))REPRESENTATION_ITEM(''));
#563=VERTEX_POINT('',#731);
#564=CIRCLE('',#732,1.6);
#565=VERTEX_POINT('',#736);
#566=LINE('',#737,#738);
#567=LINE('',#740,#741);
#568=VERTEX_POINT('',#743);
#569=VERTEX_POINT('',#744);
#570=LINE('',#745,#746);
#571=LINE('',#748,#749);
#572=LINE('',#751,#752);
#573=VERTEX_POINT('',#754);
#574=LINE('',#755,#756);
#575=LINE('',#758,#759);
#576=VERTEX_POINT('',#761);
#577=LINE('',#762,#763);
#578=LINE('',#765,#766);
#579=VERTEX_POINT('',#768);
#580=LINE('',#769,#770);
#581=LINE('',#772,#773);
#582=VERTEX_POINT('',#775);
#583=LINE('',#776,#777);
#584=LINE('',#779,#780);
#585=LINE('',#782,#783);
#586=VERTEX_POINT('',#785);
#587=CIRCLE('',#786,5.05);
#588=VERTEX_POINT('',#790);
#589=VERTEX_POINT('',#791);
#590=LINE('',#792,#793);
#591=VERTEX_POINT('',#795);
#592=LINE('',#796,#797);
#593=VERTEX_POINT('',#799);
#594=LINE('',#800,#801);
#595=LINE('',#803,#804);
#596=VERTEX_POINT('',#806);
#597=CIRCLE('',#807,6.3);
#598=VERTEX_POINT('',#811);
#599=LINE('',#812,#813);
#600=VERTEX_POINT('',#815);
#601=LINE('',#816,#817);
#602=LINE('',#819,#820);
#603=VERTEX_POINT('',#822);
#604=LINE('',#823,#824);
#605=LINE('',#826,#827);
#606=VERTEX_POINT('',#829);
#607=LINE('',#830,#831);
#608=LINE('',#833,#834);
#609=LINE('',#836,#837);
#610=VERTEX_POINT('',#839);
#611=CIRCLE('',#840,6.3);
#612=VERTEX_POINT('',#844);
#613=CIRCLE('',#845,4.9);
#614=VERTEX_POINT('',#849);
#615=CIRCLE('',#850,4.9);
#616=VERTEX_POINT('',#854);
#617=LINE('',#855,#856);
#618=LINE('',#858,#859);
#619=VERTEX_POINT('',#861);
#620=LINE('',#862,#863);
#621=LINE('',#865,#866);
#622=VERTEX_POINT('',#868);
#623=LINE('',#869,#870);
#624=LINE('',#872,#873);
#625=VERTEX_POINT('',#875);
#626=LINE('',#876,#877);
#627=LINE('',#879,#880);
#628=VERTEX_POINT('',#882);
#629=LINE('',#883,#884);
#630=LINE('',#886,#887);
#631=LINE('',#889,#890);
#632=LINE('',#892,#893);
#633=LINE('',#895,#896);
#634=LINE('',#898,#899);
#635=LINE('',#901,#902);
#636=LINE('',#904,#905);
#637=CARTESIAN_POINT('',(5.05,-7.07233526507597E-16,11.55));
#638=AXIS2_PLACEMENT_3D('',#639,#640,#641);
#639=CARTESIAN_POINT('',(-1.30344475055268E-15,-7.07233526507597E-16,11.55));
#640=DIRECTION('',(-1.1285235935521E-16,-6.12323399573677E-17,1.));
#641=DIRECTION('',(1.,-6.91021403302925E-33,1.1285235935521E-16));
#642=CARTESIAN_POINT('',(2.5,-1.44337567297407,11.55));
#643=CARTESIAN_POINT('',(-1.82908109687517E-15,-2.88675134594813,11.55));
#644=CARTESIAN_POINT('',(-2.0254847757457E-15,-2.88675134594813,11.55));
#645=VECTOR('',#646,1.);
#646=DIRECTION('',(0.866025403784439,0.5,0.));
#647=CARTESIAN_POINT('',(-2.5,-1.44337567297406,11.55));
#648=CARTESIAN_POINT('',(-2.5,-1.44337567297406,11.55));
#649=VECTOR('',#650,1.);
#650=DIRECTION('',(0.866025403784438,-0.500000000000001,0.));
#651=CARTESIAN_POINT('',(-2.5,1.44337567297407,11.55));
#652=CARTESIAN_POINT('',(-2.5,1.44337567297407,11.55));
#653=VECTOR('',#654,1.);
#654=DIRECTION('',(0.,-1.,0.));
#655=CARTESIAN_POINT('',(-5.79328827036049E-16,2.88675134594813,11.55));
#656=CARTESIAN_POINT('',(-5.83436237268225E-16,2.88675134594813,11.55));
#657=VECTOR('',#658,1.);
#658=DIRECTION('',(-0.866025403784439,-0.499999999999999,0.));
#659=CARTESIAN_POINT('',(2.5,1.44337567297406,11.55));
#660=CARTESIAN_POINT('',(2.5,1.44337567297406,11.55));
#661=VECTOR('',#662,1.);
#662=DIRECTION('',(-0.866025403784439,0.5,0.));
#663=CARTESIAN_POINT('',(2.5,-1.44337567297407,11.55));
#664=VECTOR('',#665,1.);
#665=DIRECTION('',(0.,1.,0.));
#666=CARTESIAN_POINT('',(1.4,0.774596669241482,3.55));
#667=CARTESIAN_POINT('',(1.6,-5.79769315035845E-16,3.75));
#668=CARTESIAN_POINT('',(1.4,0.774596669241482,3.55));
#669=CARTESIAN_POINT('',(1.53189151468337,0.536216970633266,3.68189151468337));
#670=CARTESIAN_POINT('',(1.6,0.272433941266533,3.75));
#671=CARTESIAN_POINT('',(1.6,-8.88178419700125E-16,3.75));
#672=CARTESIAN_POINT('',(1.37082039324994,0.82513723067747,3.55));
#673=AXIS2_PLACEMENT_3D('',#674,#675,#676);
#674=CARTESIAN_POINT('',(-4.00625875710996E-16,-2.17374806848655E-16,3.55));
#675=DIRECTION('',(-1.1285235935521E-16,-6.12323399573677E-17,1.));
#676=DIRECTION('',(0.875,0.484122918275927,1.28389793548833E-16));
#677=CARTESIAN_POINT('',(0.0291796067500594,1.59973389991896,3.55));
#678=CARTESIAN_POINT('',(1.37082039324994,0.825137230677468,3.55));
#679=CARTESIAN_POINT('',(1.08029832481816,1.30778855374097,3.82272727272727));
#680=CARTESIAN_POINT('',(0.592428947909112,1.58946006982879,3.82272727272727));
#681=CARTESIAN_POINT('',(0.0291796067500584,1.59973389991895,3.55));
#682=CARTESIAN_POINT('',(-0.0291796067500667,1.59973389991896,3.55));
#683=AXIS2_PLACEMENT_3D('',#684,#685,#686);
#684=CARTESIAN_POINT('',(-4.00625875710996E-16,-2.17374806848655E-16,3.55));
#685=DIRECTION('',(-1.1285235935521E-16,-6.12323399573677E-17,1.));
#686=DIRECTION('',(0.0182372542187868,0.999833687449347,6.32802734174778E-17));
#687=CARTESIAN_POINT('',(-1.37082039324994,0.825137230677475,3.55));
#688=CARTESIAN_POINT('',(-0.029179606750069,1.59973389991896,3.55));
#689=CARTESIAN_POINT('',(-0.592428947909116,1.58946006982878,3.82272727272727));
#690=CARTESIAN_POINT('',(-1.08029832481816,1.30778855374097,3.82272727272727));
#691=CARTESIAN_POINT('',(-1.37082039324993,0.825137230677477,3.55));
#692=CARTESIAN_POINT('',(-1.4,0.774596669241486,3.55));
#693=AXIS2_PLACEMENT_3D('',#694,#695,#696);
#694=CARTESIAN_POINT('',(-4.00625875710996E-16,-2.17374806848655E-16,3.55));
#695=DIRECTION('',(-1.1285235935521E-16,-6.12323399573677E-17,1.));
#696=DIRECTION('',(-0.856762745781209,0.515710769173423,-6.5109520131355E-17));
#697=CARTESIAN_POINT('',(-1.4,-0.774596669241487,3.55));
#698=CARTESIAN_POINT('',(-1.4,0.774596669241486,3.55));
#699=CARTESIAN_POINT('',(-1.67272727272727,0.281671516087812,3.82272727272728));
#700=CARTESIAN_POINT('',(-1.67272727272727,-0.281671516087817,3.82272727272727));
#701=CARTESIAN_POINT('',(-1.4,-0.774596669241491,3.55));
#702=CARTESIAN_POINT('',(-1.37082039324994,-0.825137230677469,3.55));
#703=AXIS2_PLACEMENT_3D('',#704,#705,#706);
#704=CARTESIAN_POINT('',(-4.00625875710996E-16,-2.17374806848655E-16,3.55));
#705=DIRECTION('',(-1.1285235935521E-16,-6.12323399573677E-17,1.));
#706=DIRECTION('',(-0.874999999999998,-0.484122918275931,-1.28389793548833E-16));
#707=CARTESIAN_POINT('',(-0.0291796067500614,-1.59973389991896,3.55));
#708=CARTESIAN_POINT('',(-1.37082039324994,-0.825137230677468,3.55));
#709=CARTESIAN_POINT('',(-1.08029832481816,-1.30778855374097,3.82272727272727));
#710=CARTESIAN_POINT('',(-0.592428947909115,-1.58946006982879,3.82272727272727));
#711=CARTESIAN_POINT('',(-0.0291796067500613,-1.59973389991896,3.55));
#712=CARTESIAN_POINT('',(0.0291796067500617,-1.59973389991896,3.55));
#713=AXIS2_PLACEMENT_3D('',#714,#715,#716);
#714=CARTESIAN_POINT('',(-4.00625875710996E-16,-2.17374806848655E-16,3.55));
#715=DIRECTION('',(-1.1285235935521E-16,-6.12323399573677E-17,1.));
#716=DIRECTION('',(-0.0182372542187869,-0.999833687449347,-6.32802734174778E-17));
#717=CARTESIAN_POINT('',(1.37082039324994,-0.82513723067747,3.55));
#718=CARTESIAN_POINT('',(0.0291796067500624,-1.59973389991896,3.55));
#719=CARTESIAN_POINT('',(0.592428947909115,-1.58946006982879,3.82272727272727));
#720=CARTESIAN_POINT('',(1.08029832481816,-1.30778855374097,3.82272727272727));
#721=CARTESIAN_POINT('',(1.37082039324994,-0.82513723067747,3.55));
#722=CARTESIAN_POINT('',(1.4,-0.774596669241483,3.55));
#723=AXIS2_PLACEMENT_3D('',#724,#725,#726);
#724=CARTESIAN_POINT('',(-4.00625875710996E-16,-2.17374806848655E-16,3.55));
#725=DIRECTION('',(-1.1285235935521E-16,-6.12323399573677E-17,1.));
#726=DIRECTION('',(0.856762745781212,-0.515710769173418,6.51095201313555E-17));
#727=CARTESIAN_POINT('',(1.4,-0.774596669241483,3.55));
#728=CARTESIAN_POINT('',(1.53189151468337,-0.536216970633266,3.68189151468337));
#729=CARTESIAN_POINT('',(1.6,-0.272433941266534,3.75));
#730=CARTESIAN_POINT('',(1.6,-1.28006539542728E-15,3.75));
#731=CARTESIAN_POINT('',(1.6,-1.19980782612949E-32,1.95943487863576E-16));
#732=AXIS2_PLACEMENT_3D('',#733,#734,#735);
#733=CARTESIAN_POINT('',(0.,0.,0.));
#734=DIRECTION('',(-1.1285235935521E-16,-6.12323399573677E-17,1.));
#735=DIRECTION('',(1.,-6.91021403302925E-33,1.1285235935521E-16));
#736=CARTESIAN_POINT('',(3.08963145068243E-16,-1.61658075373095,3.55));
#737=CARTESIAN_POINT('',(8.5202277622117E-16,-1.61658075373095,3.55));
#738=VECTOR('',#739,1.);
#739=DIRECTION('',(0.866025403784436,0.500000000000005,0.));
#740=CARTESIAN_POINT('',(-0.0291796067500623,-1.59973389991896,3.55));
#741=VECTOR('',#742,1.);
#742=DIRECTION('',(0.866025403784441,-0.499999999999997,0.));
#743=CARTESIAN_POINT('',(-2.5,-1.44337567297406,4.65));
#744=CARTESIAN_POINT('',(-8.75272574332814E-16,-2.88675134594813,4.65));
#745=CARTESIAN_POINT('',(-2.5,-1.44337567297406,4.65));
#746=VECTOR('',#747,1.);
#747=DIRECTION('',(0.866025403784438,-0.500000000000001,0.));
#748=CARTESIAN_POINT('',(-2.5,-1.44337567297406,4.65));
#749=VECTOR('',#750,1.);
#750=DIRECTION('',(-1.28721510101467E-16,-9.65411325761006E-17,1.));
#751=CARTESIAN_POINT('',(-1.07765995742936E-15,-2.88675134594813,4.65));
#752=VECTOR('',#753,1.);
#753=DIRECTION('',(-1.22764746622408E-16,-6.43607550507337E-17,1.));
#754=CARTESIAN_POINT('',(-2.5,1.44337567297407,4.65));
#755=CARTESIAN_POINT('',(-2.5,1.44337567297407,4.65));
#756=VECTOR('',#757,1.);
#757=DIRECTION('',(0.,-1.,0.));
#758=CARTESIAN_POINT('',(-2.5,1.44337567297407,4.65));
#759=VECTOR('',#760,1.);
#760=DIRECTION('',(-1.28721510101467E-16,-9.65411325761006E-17,1.));
#761=CARTESIAN_POINT('',(-5.24919696028226E-17,2.88675134594813,4.65));
#762=CARTESIAN_POINT('',(-3.28167400228286E-16,2.88675134594813,4.65));
#763=VECTOR('',#764,1.);
#764=DIRECTION('',(-0.866025403784439,-0.499999999999999,0.));
#765=CARTESIAN_POINT('',(4.4200478142477E-16,2.88675134594813,4.65));
#766=VECTOR('',#767,1.);
#767=DIRECTION('',(-8.45751107020925E-17,-1.28721510101467E-16,1.));
#768=CARTESIAN_POINT('',(2.5,1.44337567297406,4.65));
#769=CARTESIAN_POINT('',(2.5,1.44337567297406,4.65));
#770=VECTOR('',#771,1.);
#771=DIRECTION('',(-0.866025403784439,0.5,0.));
#772=CARTESIAN_POINT('',(2.5,1.44337567297406,4.65));
#773=VECTOR('',#774,1.);
#774=DIRECTION('',(-1.28721510101467E-16,-6.43607550507337E-17,1.));
#775=CARTESIAN_POINT('',(2.5,-1.44337567297406,4.65));
#776=CARTESIAN_POINT('',(2.5,-1.44337567297406,4.65));
#777=VECTOR('',#778,1.);
#778=DIRECTION('',(0.,1.,0.));
#779=CARTESIAN_POINT('',(2.5,-1.44337567297406,4.65));
#780=VECTOR('',#781,1.);
#781=DIRECTION('',(-6.43607550507337E-17,-6.43607550507337E-17,1.));
#782=CARTESIAN_POINT('',(-3.16658056659428E-16,-2.88675134594813,4.65));
#783=VECTOR('',#784,1.);
#784=DIRECTION('',(0.866025403784439,0.5,0.));
#785=CARTESIAN_POINT('',(5.05,-4.72411391604004E-16,7.7150635094611));
#786=AXIS2_PLACEMENT_3D('',#787,#788,#789);
#787=CARTESIAN_POINT('',(-8.70663119617972E-16,-4.72411391604004E-16,7.71506350946109));
#788=DIRECTION('',(-1.1285235935521E-16,-6.12323399573677E-17,1.));
#789=DIRECTION('',(1.,3.85914100417385E-33,1.1285235935521E-16));
#790=CARTESIAN_POINT('',(-2.9,2.9,0.));
#791=CARTESIAN_POINT('',(2.9,2.9,0.));
#792=CARTESIAN_POINT('',(-2.9,2.9,-1.49698056253743E-16));
#793=VECTOR('',#794,1.);
#794=DIRECTION('',(1.,-1.53134210293125E-16,1.1285235935521E-16));
#795=CARTESIAN_POINT('',(2.9,-2.9,0.));
#796=CARTESIAN_POINT('',(2.9,2.9,5.04845628006476E-16));
#797=VECTOR('',#798,1.);
#798=DIRECTION('',(-1.53134210293125E-16,-1.,-6.12323399573677E-17));
#799=CARTESIAN_POINT('',(-2.9,-2.9,0.));
#800=CARTESIAN_POINT('',(2.9,-2.9,1.49698056253743E-16));
#801=VECTOR('',#802,1.);
#802=DIRECTION('',(-1.,1.53134210293125E-16,-1.1285235935521E-16));
#803=CARTESIAN_POINT('',(-2.9,-2.9,-5.04845628006476E-16));
#804=VECTOR('',#805,1.);
#805=DIRECTION('',(1.53134210293125E-16,1.,6.12323399573677E-17));
#806=CARTESIAN_POINT('',(6.3,-3.39839486763391E-16,5.55));
#807=AXIS2_PLACEMENT_3D('',#808,#809,#810);
#808=CARTESIAN_POINT('',(-6.26330594421416E-16,-3.39839486763391E-16,5.55));
#809=DIRECTION('',(-1.1285235935521E-16,-6.12323399573677E-17,1.));
#810=DIRECTION('',(1.,1.72236421107799E-33,1.1285235935521E-16));
#811=CARTESIAN_POINT('',(-2.9,2.9,2.));
#812=CARTESIAN_POINT('',(-2.9,2.9,0.));
#813=VECTOR('',#814,1.);
#814=DIRECTION('',(0.,0.,1.));
#815=CARTESIAN_POINT('',(2.9,2.9,2.));
#816=CARTESIAN_POINT('',(2.9,2.9,2.));
#817=VECTOR('',#818,1.);
#818=DIRECTION('',(-1.,1.53134210293125E-16,0.));
#819=CARTESIAN_POINT('',(2.9,2.9,0.));
#820=VECTOR('',#821,1.);
#821=DIRECTION('',(0.,0.,1.));
#822=CARTESIAN_POINT('',(2.9,-2.9,2.));
#823=CARTESIAN_POINT('',(2.9,-2.9,2.));
#824=VECTOR('',#825,1.);
#825=DIRECTION('',(1.53134210293125E-16,1.,0.));
#826=CARTESIAN_POINT('',(2.9,-2.9,0.));
#827=VECTOR('',#828,1.);
#828=DIRECTION('',(0.,0.,1.));
#829=CARTESIAN_POINT('',(-2.9,-2.9,2.));
#830=CARTESIAN_POINT('',(-2.9,-2.9,2.));
#831=VECTOR('',#832,1.);
#832=DIRECTION('',(1.,-1.53134210293125E-16,0.));
#833=CARTESIAN_POINT('',(-2.9,-2.9,0.));
#834=VECTOR('',#835,1.);
#835=DIRECTION('',(0.,0.,1.));
#836=CARTESIAN_POINT('',(-2.9,2.9,2.));
#837=VECTOR('',#838,1.);
#838=DIRECTION('',(-1.53134210293125E-16,-1.,0.));
#839=CARTESIAN_POINT('',(6.3,-2.78607146806023E-16,4.55));
#840=AXIS2_PLACEMENT_3D('',#841,#842,#843);
#841=CARTESIAN_POINT('',(-5.13478235066206E-16,-2.78607146806023E-16,4.55));
#842=DIRECTION('',(-1.1285235935521E-16,-6.12323399573677E-17,1.));
#843=DIRECTION('',(1.,-6.10363683278125E-33,1.1285235935521E-16));
#844=CARTESIAN_POINT('',(4.9,-7.22541611496938E-16,2.));
#845=AXIS2_PLACEMENT_3D('',#846,#847,#848);
#846=CARTESIAN_POINT('',(-2.2570471871042E-16,-1.22464679914735E-16,2.));
#847=DIRECTION('',(0.,0.,1.));
#848=DIRECTION('',(1.,0.,0.));
#849=CARTESIAN_POINT('',(4.9,-2.78607146806023E-16,4.55));
#850=AXIS2_PLACEMENT_3D('',#851,#852,#853);
#851=CARTESIAN_POINT('',(-5.13478235066206E-16,-2.78607146806023E-16,4.55));
#852=DIRECTION('',(-1.1285235935521E-16,-6.12323399573677E-17,1.));
#853=DIRECTION('',(1.,-6.10363683278125E-33,1.1285235935521E-16));
#854=CARTESIAN_POINT('',(1.4,-0.808290376865476,3.55));
#855=CARTESIAN_POINT('',(1.37082039324994,-0.825137230677472,3.55));
#856=VECTOR('',#857,1.);
#857=DIRECTION('',(0.866025403784441,0.499999999999996,0.));
#858=CARTESIAN_POINT('',(1.4,-0.808290376865477,3.55));
#859=VECTOR('',#860,1.);
#860=DIRECTION('',(0.,1.,0.));
#861=CARTESIAN_POINT('',(1.4,0.808290376865475,3.55));
#862=CARTESIAN_POINT('',(1.4,0.774596669241482,3.55));
#863=VECTOR('',#864,1.);
#864=DIRECTION('',(0.,1.,0.));
#865=CARTESIAN_POINT('',(1.4,0.808290376865475,3.55));
#866=VECTOR('',#867,1.);
#867=DIRECTION('',(-0.866025403784439,0.5,0.));
#868=CARTESIAN_POINT('',(-9.65336656415633E-16,1.61658075373095,3.55));
#869=CARTESIAN_POINT('',(0.0291796067500614,1.59973389991896,3.55));
#870=VECTOR('',#871,1.);
#871=DIRECTION('',(-0.866025403784432,0.500000000000011,0.));
#872=CARTESIAN_POINT('',(-1.22596037969842E-15,1.61658075373095,3.55));
#873=VECTOR('',#874,1.);
#874=DIRECTION('',(-0.866025403784437,-0.500000000000003,0.));
#875=CARTESIAN_POINT('',(-1.4,0.808290376865477,3.55));
#876=CARTESIAN_POINT('',(-1.37082039324994,0.825137230677473,3.55));
#877=VECTOR('',#878,1.);
#878=DIRECTION('',(-0.866025403784437,-0.500000000000002,0.));
#879=CARTESIAN_POINT('',(-1.4,0.808290376865478,3.55));
#880=VECTOR('',#881,1.);
#881=DIRECTION('',(0.,-1.,0.));
#882=CARTESIAN_POINT('',(-1.4,-0.808290376865475,3.55));
#883=CARTESIAN_POINT('',(-1.4,-0.774596669241483,3.55));
#884=VECTOR('',#885,1.);
#885=DIRECTION('',(0.,-1.,0.));
#886=CARTESIAN_POINT('',(-1.4,-0.808290376865475,3.55));
#887=VECTOR('',#888,1.);
#888=DIRECTION('',(0.866025403784438,-0.5,0.));
#889=CARTESIAN_POINT('',(2.5,-1.44337567297406,4.65));
#890=VECTOR('',#891,1.);
#891=DIRECTION('',(-0.654653670707977,0.377964473009227,-0.654653670707978));
#892=CARTESIAN_POINT('',(-6.66133814775094E-16,-2.88675134594813,4.65));
#893=VECTOR('',#894,1.);
#894=DIRECTION('',(7.26811578375371E-16,0.755928946018454,-0.654653670707977));
#895=CARTESIAN_POINT('',(2.5,1.44337567297406,4.65));
#896=VECTOR('',#897,1.);
#897=DIRECTION('',(-0.654653670707977,-0.377964473009228,-0.654653670707977));
#898=CARTESIAN_POINT('',(-2.22044604925031E-16,2.88675134594813,4.65));
#899=VECTOR('',#900,1.);
#900=DIRECTION('',(-3.96442679113839E-16,-0.755928946018455,-0.654653670707977));
#901=CARTESIAN_POINT('',(-2.5,1.44337567297407,4.65));
#902=VECTOR('',#903,1.);
#903=DIRECTION('',(0.654653670707977,-0.377964473009228,-0.654653670707977));
#904=CARTESIAN_POINT('',(-2.5,-1.44337567297406,4.65));
#905=VECTOR('',#906,1.);
#906=DIRECTION('',(0.654653670707977,0.377964473009227,-0.654653670707977));
ENDSEC;
END-ISO-10303-21;
