ISO-10303-21;
HEADER;
FILE_DESCRIPTION(('STEP AP203'),
    '1');
FILE_NAME('Подставка под сонар',
    '',
    ('UNSPECIFIED'),
    ('UNSPECIFIED'),
    'C3D Converter',
    'C3D Toolkit',
    '');
FILE_SCHEMA(('CONFIG_CONTROL_DESIGN'));
ENDSEC;

DATA;
#1=PRODUCT_DEFINITION('','UNSPECIFIED',#28,#31);
#2=SHAPE_DEFINITION_REPRESENTATION(#26,#3);
#3=SHAPE_REPRESENTATION('NONE',(#4),#8);
#4=AXIS2_PLACEMENT_3D('',#5,#6,#7);
#5=CARTESIAN_POINT('',(0.,0.,0.));
#6=DIRECTION('',(0.,0.,1.));
#7=DIRECTION('',(1.,0.,0.));
#8=(GEOMETRIC_REPRESENTATION_CONTEXT(3)GLOBAL_UNCERTAINTY_ASSIGNED_CONTEXT((#10))
GLOBAL_UNIT_ASSIGNED_CONTEXT((#9,#11,#12))REPRESENTATION_CONTEXT('NONE','NONE'));
#9=(LENGTH_UNIT()NAMED_UNIT(*)SI_UNIT(.MILLI.,.METRE.));
#10=UNCERTAINTY_MEASURE_WITH_UNIT(LENGTH_MEASURE(1.E-5),#9,'NONE','NONE');
#11=(NAMED_UNIT(*)PLANE_ANGLE_UNIT()SI_UNIT($,.RADIAN.));
#12=(NAMED_UNIT(*)SI_UNIT($,.STERADIAN.)SOLID_ANGLE_UNIT());
#13=MANIFOLD_SOLID_BREP('',#14);
#14=CLOSED_SHELL('',(#53,#54,#55,#56,#57,#58,#59,#60));
#15=COLOUR_RGB('',0.564705882352941,0.564705882352941,0.564705882352941);
#16=FILL_AREA_STYLE_COLOUR('',#15);
#17=FILL_AREA_STYLE($,(#16));
#18=SURFACE_STYLE_FILL_AREA(#17);
#19=SURFACE_SIDE_STYLE('',(#18));
#20=SURFACE_STYLE_USAGE(.BOTH.,#19);
#21=PRESENTATION_STYLE_ASSIGNMENT((#20));
#22=MECHANICAL_DESIGN_GEOMETRIC_PRESENTATION_REPRESENTATION('NONE',(#23),#8);
#23=STYLED_ITEM('',(#21),#13);
#24=ADVANCED_BREP_SHAPE_REPRESENTATION('NONE',(#13),#8);
#25=SHAPE_REPRESENTATION_RELATIONSHIP('','',#3,#24);
#26=PRODUCT_DEFINITION_SHAPE('NONE','NONE',#1);
#27=MECHANICAL_CONTEXT('NONE',#32,'mechanical');
#28=PRODUCT_DEFINITION_FORMATION_WITH_SPECIFIED_SOURCE('ANY','UNSPECIFIED',#29,.NOT_KNOWN.);
#29=PRODUCT('','\X2\041F043E04340441044204300432043A0430\X0\ \X2\043F043E0434\X0\ \X2\0441043E043D04300440\X0\',
'NONE',(#27));
#30=PRODUCT_RELATED_PRODUCT_CATEGORY('detail','',(#29));
#31=DESIGN_CONTEXT('detailed design',#32,'design');
#32=APPLICATION_CONTEXT('configuration controlled 3d designs of mechanical parts and assemblies');
#33=APPLICATION_PROTOCOL_DEFINITION('international standard','config_control_design',
1994,#32);
#34=CC_DESIGN_DATE_AND_TIME_ASSIGNMENT(#35,#39,(#1));
#35=DATE_AND_TIME(#36,#37);
#36=CALENDAR_DATE(0,1,1);
#37=LOCAL_TIME(0,0,0.,#38);
#38=COORDINATED_UNIVERSAL_TIME_OFFSET(0,0,.AHEAD.);
#39=DATE_TIME_ROLE('creation_date');
#40=CC_DESIGN_APPROVAL(#41,(#1));
#41=APPROVAL(#42,'UNSPECIFIED');
#42=APPROVAL_STATUS('not_yet_approved');
#43=APPROVAL_DATE_TIME(#44,#41);
#44=DATE_AND_TIME(#45,#46);
#45=CALENDAR_DATE(0,1,1);
#46=LOCAL_TIME(0,0,0.,#47);
#47=COORDINATED_UNIVERSAL_TIME_OFFSET(0,0,.AHEAD.);
#48=PERSON('UNSPECIFIED','User','UNSPECIFIED',('UNSPECIFIED'),('UNSPECIFIED'),('UNSPECIFIED'));
#49=ORGANIZATION('UNSPECIFIED','UNSPECIFIED','UNSPECIFIED');
#50=PERSON_AND_ORGANIZATION(#48,#49);
#51=PERSON_AND_ORGANIZATION_ROLE('creator');
#52=CC_DESIGN_PERSON_AND_ORGANIZATION_ASSIGNMENT(#50,#51,(#28,#1));
#53=ADVANCED_FACE('',(#61,#63,#65),#67,.F.);
#54=ADVANCED_FACE('',(#72,#74,#76),#78,.T.);
#55=ADVANCED_FACE('',(#83,#85),#87,.F.);
#56=ADVANCED_FACE('',(#92,#94),#96,.F.);
#57=ADVANCED_FACE('',(#101),#103,.T.);
#58=ADVANCED_FACE('',(#108),#110,.T.);
#59=ADVANCED_FACE('',(#115),#117,.T.);
#60=ADVANCED_FACE('',(#122),#124,.T.);
#61=FACE_BOUND('',#62,.T.);
#62=EDGE_LOOP('',(#129,#130,#131,#132));
#63=FACE_BOUND('',#64,.T.);
#64=EDGE_LOOP('',(#133));
#65=FACE_BOUND('',#66,.T.);
#66=EDGE_LOOP('',(#134));
#67=PLANE('',#68);
#68=AXIS2_PLACEMENT_3D('',#69,#70,#71);
#69=CARTESIAN_POINT('',(-7.48641670873799E-16,1.17863203423708E-16,6.));
#70=DIRECTION('',(1.247736118123E-16,-1.96438672372847E-17,-1.));
#71=DIRECTION('',(-6.12323399573677E-17,-1.,1.96438672372847E-17));
#72=FACE_BOUND('',#73,.T.);
#73=EDGE_LOOP('',(#135,#136,#137,#138));
#74=FACE_BOUND('',#75,.T.);
#75=EDGE_LOOP('',(#139));
#76=FACE_BOUND('',#77,.T.);
#77=EDGE_LOOP('',(#140));
#78=PLANE('',#79);
#79=AXIS2_PLACEMENT_3D('',#80,#81,#82);
#80=CARTESIAN_POINT('',(6.0785601049174E-32,-9.5698462167208E-33,-4.87167119443615E-16));
#81=DIRECTION('',(1.247736118123E-16,-1.96438672372847E-17,-1.));
#82=DIRECTION('',(-6.12323399573677E-17,-1.,1.96438672372847E-17));
#83=FACE_OUTER_BOUND('',#84,.T.);
#84=EDGE_LOOP('',(#141));
#85=FACE_OUTER_BOUND('',#86,.T.);
#86=EDGE_LOOP('',(#142));
#87=CYLINDRICAL_SURFACE('',#88,1.6);
#88=AXIS2_PLACEMENT_3D('',#89,#90,#91);
#89=CARTESIAN_POINT('',(-7.25,3.26845831518296,6.));
#90=DIRECTION('',(1.247736118123E-16,-1.96438672372847E-17,-1.));
#91=DIRECTION('',(-6.12323399573677E-17,-1.,1.96438672372847E-17));
#92=FACE_OUTER_BOUND('',#93,.T.);
#93=EDGE_LOOP('',(#143));
#94=FACE_OUTER_BOUND('',#95,.T.);
#95=EDGE_LOOP('',(#144));
#96=CYLINDRICAL_SURFACE('',#97,1.6);
#97=AXIS2_PLACEMENT_3D('',#98,#99,#100);
#98=CARTESIAN_POINT('',(7.25,3.26845831518296,6.));
#99=DIRECTION('',(1.247736118123E-16,-1.96438672372847E-17,-1.));
#100=DIRECTION('',(-6.12323399573677E-17,-1.,1.96438672372847E-17));
#101=FACE_BOUND('',#102,.T.);
#102=EDGE_LOOP('',(#145,#146,#147,#148));
#103=PLANE('',#104);
#104=AXIS2_PLACEMENT_3D('',#105,#106,#107);
#105=CARTESIAN_POINT('',(-22.55,-2.,6.));
#106=DIRECTION('',(-1.,0.,0.));
#107=DIRECTION('',(0.,1.,0.));
#108=FACE_BOUND('',#109,.T.);
#109=EDGE_LOOP('',(#149,#150,#151,#152));
#110=PLANE('',#111);
#111=AXIS2_PLACEMENT_3D('',#112,#113,#114);
#112=CARTESIAN_POINT('',(22.55,-2.,6.));
#113=DIRECTION('',(-1.96935348048808E-17,-1.,3.70074341541719E-17));
#114=DIRECTION('',(-1.,1.96935348048808E-17,-1.18161208829285E-16));
#115=FACE_BOUND('',#116,.T.);
#116=EDGE_LOOP('',(#153,#154,#155,#156));
#117=PLANE('',#118);
#118=AXIS2_PLACEMENT_3D('',#119,#120,#121);
#119=CARTESIAN_POINT('',(22.55,5.53981112327973,6.));
#120=DIRECTION('',(1.,4.71193988909249E-16,0.));
#121=DIRECTION('',(4.71193988909249E-16,-1.,0.));
#122=FACE_BOUND('',#123,.T.);
#123=EDGE_LOOP('',(#157,#158,#159,#160));
#124=CYLINDRICAL_SURFACE('',#125,81.64);
#125=AXIS2_PLACEMENT_3D('',#126,#127,#128);
#126=CARTESIAN_POINT('',(-7.08531159583211E-16,-72.9241111595121,6.));
#127=DIRECTION('',(1.247736118123E-16,-1.96438672372847E-17,-1.));
#128=DIRECTION('',(-0.276212640862322,0.961096549274766,-5.33437018447715E-17));
#129=ORIENTED_EDGE('',*,*,#161,.F.);
#130=ORIENTED_EDGE('',*,*,#162,.F.);
#131=ORIENTED_EDGE('',*,*,#163,.F.);
#132=ORIENTED_EDGE('',*,*,#164,.F.);
#133=ORIENTED_EDGE('',*,*,#165,.T.);
#134=ORIENTED_EDGE('',*,*,#166,.T.);
#135=ORIENTED_EDGE('',*,*,#167,.T.);
#136=ORIENTED_EDGE('',*,*,#168,.T.);
#137=ORIENTED_EDGE('',*,*,#169,.T.);
#138=ORIENTED_EDGE('',*,*,#170,.T.);
#139=ORIENTED_EDGE('',*,*,#171,.T.);
#140=ORIENTED_EDGE('',*,*,#172,.T.);
#141=ORIENTED_EDGE('',*,*,#166,.F.);
#142=ORIENTED_EDGE('',*,*,#172,.F.);
#143=ORIENTED_EDGE('',*,*,#165,.F.);
#144=ORIENTED_EDGE('',*,*,#171,.F.);
#145=ORIENTED_EDGE('',*,*,#161,.T.);
#146=ORIENTED_EDGE('',*,*,#173,.T.);
#147=ORIENTED_EDGE('',*,*,#170,.F.);
#148=ORIENTED_EDGE('',*,*,#174,.F.);
#149=ORIENTED_EDGE('',*,*,#162,.T.);
#150=ORIENTED_EDGE('',*,*,#174,.T.);
#151=ORIENTED_EDGE('',*,*,#169,.F.);
#152=ORIENTED_EDGE('',*,*,#175,.F.);
#153=ORIENTED_EDGE('',*,*,#163,.T.);
#154=ORIENTED_EDGE('',*,*,#175,.T.);
#155=ORIENTED_EDGE('',*,*,#168,.F.);
#156=ORIENTED_EDGE('',*,*,#176,.F.);
#157=ORIENTED_EDGE('',*,*,#164,.T.);
#158=ORIENTED_EDGE('',*,*,#176,.T.);
#159=ORIENTED_EDGE('',*,*,#167,.F.);
#160=ORIENTED_EDGE('',*,*,#173,.F.);
#161=EDGE_CURVE('',#177,#178,#179,.T.);
#162=EDGE_CURVE('',#180,#177,#181,.T.);
#163=EDGE_CURVE('',#182,#180,#183,.T.);
#164=EDGE_CURVE('',#178,#182,#184,.T.);
#165=EDGE_CURVE('',#185,#185,#186,.T.);
#166=EDGE_CURVE('',#187,#187,#188,.T.);
#167=EDGE_CURVE('',#189,#190,#191,.T.);
#168=EDGE_CURVE('',#190,#192,#193,.T.);
#169=EDGE_CURVE('',#192,#194,#195,.T.);
#170=EDGE_CURVE('',#194,#189,#196,.T.);
#171=EDGE_CURVE('',#197,#197,#198,.F.);
#172=EDGE_CURVE('',#199,#199,#200,.F.);
#173=EDGE_CURVE('',#178,#189,#201,.T.);
#174=EDGE_CURVE('',#177,#194,#202,.T.);
#175=EDGE_CURVE('',#180,#192,#203,.T.);
#176=EDGE_CURVE('',#182,#190,#204,.T.);
#177=VERTEX_POINT('',#205);
#178=VERTEX_POINT('',#206);
#179=LINE('',#207,#208);
#180=VERTEX_POINT('',#210);
#181=LINE('',#211,#212);
#182=VERTEX_POINT('',#214);
#183=LINE('',#215,#216);
#184=CIRCLE('',#218,81.64);
#185=VERTEX_POINT('',#222);
#186=CIRCLE('',#223,1.6);
#187=VERTEX_POINT('',#227);
#188=CIRCLE('',#228,1.6);
#189=VERTEX_POINT('',#232);
#190=VERTEX_POINT('',#233);
#191=CIRCLE('',#234,81.64);
#192=VERTEX_POINT('',#238);
#193=LINE('',#239,#240);
#194=VERTEX_POINT('',#242);
#195=LINE('',#243,#244);
#196=LINE('',#246,#247);
#197=VERTEX_POINT('',#249);
#198=CIRCLE('',#250,1.6);
#199=VERTEX_POINT('',#254);
#200=CIRCLE('',#255,1.6);
#201=LINE('',#259,#260);
#202=LINE('',#262,#263);
#203=LINE('',#265,#266);
#204=LINE('',#268,#269);
#205=CARTESIAN_POINT('',(-22.55,-2.,6.));
#206=CARTESIAN_POINT('',(-22.55,5.53981112327974,6.));
#207=CARTESIAN_POINT('',(-22.55,-2.,6.));
#208=VECTOR('',#209,1.);
#209=DIRECTION('',(0.,1.,0.));
#210=CARTESIAN_POINT('',(22.55,-2.,6.));
#211=CARTESIAN_POINT('',(22.55,-2.,6.));
#212=VECTOR('',#213,1.);
#213=DIRECTION('',(-1.,1.96935348048808E-17,-1.18161208829285E-16));
#214=CARTESIAN_POINT('',(22.55,5.53981112327972,6.));
#215=CARTESIAN_POINT('',(22.55,5.53981112327973,6.));
#216=VECTOR('',#217,1.);
#217=DIRECTION('',(4.71193988909249E-16,-1.,0.));
#218=AXIS2_PLACEMENT_3D('',#219,#220,#221);
#219=CARTESIAN_POINT('',(-7.08531159583211E-16,-72.9241111595121,6.));
#220=DIRECTION('',(1.247736118123E-16,-1.96438672372847E-17,-1.));
#221=DIRECTION('',(-0.276212640862322,0.961096549274766,-5.33437018447715E-17));
#222=CARTESIAN_POINT('',(7.25,1.66845831518296,6.));
#223=AXIS2_PLACEMENT_3D('',#224,#225,#226);
#224=CARTESIAN_POINT('',(7.25,3.26845831518296,6.));
#225=DIRECTION('',(1.247736118123E-16,-1.96438672372847E-17,-1.));
#226=DIRECTION('',(-6.12323399573677E-17,-1.,1.96438672372847E-17));
#227=CARTESIAN_POINT('',(-7.25,1.66845831518296,6.));
#228=AXIS2_PLACEMENT_3D('',#229,#230,#231);
#229=CARTESIAN_POINT('',(-7.25,3.26845831518296,6.));
#230=DIRECTION('',(1.247736118123E-16,-1.96438672372847E-17,-1.));
#231=DIRECTION('',(-6.12323399573677E-17,-1.,1.96438672372847E-17));
#232=CARTESIAN_POINT('',(-22.55,5.53981112327974,-3.40963538003632E-15));
#233=CARTESIAN_POINT('',(22.55,5.53981112327972,2.21765451269841E-15));
#234=AXIS2_PLACEMENT_3D('',#235,#236,#237);
#235=CARTESIAN_POINT('',(4.0110511290588E-17,-72.9241111595121,9.45344438570833E-16));
#236=DIRECTION('',(1.247736118123E-16,-1.96438672372847E-17,-1.));
#237=DIRECTION('',(-0.276212640862322,0.961096549274766,-5.33437018447715E-17));
#238=CARTESIAN_POINT('',(22.55,-2.,2.36576556139832E-15));
#239=CARTESIAN_POINT('',(22.55,5.53981112327973,1.99700567604933E-15));
#240=VECTOR('',#241,1.);
#241=DIRECTION('',(4.71193988909249E-16,-1.,6.87211822322985E-17));
#242=CARTESIAN_POINT('',(-22.55,-2.,-3.26152433133641E-15));
#243=CARTESIAN_POINT('',(22.55,-2.,2.51515041024935E-15));
#244=VECTOR('',#245,1.);
#245=DIRECTION('',(-1.,1.96935348048808E-17,-1.31314177723233E-16));
#246=CARTESIAN_POINT('',(-22.55,-2.,-3.40711900506845E-15));
#247=VECTOR('',#248,1.);
#248=DIRECTION('',(0.,1.,-9.82193361864235E-18));
#249=CARTESIAN_POINT('',(7.25,1.66845831518296,3.84666592561161E-16));
#250=AXIS2_PLACEMENT_3D('',#251,#252,#253);
#251=CARTESIAN_POINT('',(7.25,3.26845831518296,3.53236404981506E-16));
#252=DIRECTION('',(1.247736118123E-16,-1.96438672372847E-17,-1.));
#253=DIRECTION('',(-6.12323399573677E-17,-1.,1.96438672372847E-17));
#254=CARTESIAN_POINT('',(-7.25,1.66845831518296,-1.42455077871719E-15));
#255=AXIS2_PLACEMENT_3D('',#256,#257,#258);
#256=CARTESIAN_POINT('',(-7.25,3.26845831518296,-1.45598096629684E-15));
#257=DIRECTION('',(1.247736118123E-16,-1.96438672372847E-17,-1.));
#258=DIRECTION('',(-6.12323399573677E-17,-1.,1.96438672372847E-17));
#259=CARTESIAN_POINT('',(-22.55,5.53981112327974,6.));
#260=VECTOR('',#261,1.);
#261=DIRECTION('',(0.,0.,-1.));
#262=CARTESIAN_POINT('',(-22.55,-2.,6.));
#263=VECTOR('',#264,1.);
#264=DIRECTION('',(0.,0.,-1.));
#265=CARTESIAN_POINT('',(22.55,-2.,6.));
#266=VECTOR('',#267,1.);
#267=DIRECTION('',(0.,-1.11022302462516E-16,-1.));
#268=CARTESIAN_POINT('',(22.55,5.53981112327973,6.));
#269=VECTOR('',#270,1.);
#270=DIRECTION('',(0.,0.,-1.));
ENDSEC;
END-ISO-10303-21;
