ISO-10303-21;
HEADER;
FILE_DESCRIPTION(('STEP AP203'),
    '1');
FILE_NAME('Сонар_Крышка',
    '',
    ('UNSPECIFIED'),
    ('UNSPECIFIED'),
    'C3D Converter',
    'C3D Toolkit',
    '');
FILE_SCHEMA(('CONFIG_CONTROL_DESIGN'));
ENDSEC;

DATA;
#1=PRODUCT_DEFINITION('','UNSPECIFIED',#28,#31);
#2=SHAPE_DEFINITION_REPRESENTATION(#26,#3);
#3=SHAPE_REPRESENTATION('NONE',(#4),#8);
#4=AXIS2_PLACEMENT_3D('',#5,#6,#7);
#5=CARTESIAN_POINT('',(0.,0.,0.));
#6=DIRECTION('',(0.,0.,1.));
#7=DIRECTION('',(1.,0.,0.));
#8=(GEOMETRIC_REPRESENTATION_CONTEXT(3)GLOBAL_UNCERTAINTY_ASSIGNED_CONTEXT((#10))
GLOBAL_UNIT_ASSIGNED_CONTEXT((#9,#11,#12))REPRESENTATION_CONTEXT('NONE','NONE'));
#9=(LENGTH_UNIT()NAMED_UNIT(*)SI_UNIT(.MILLI.,.METRE.));
#10=UNCERTAINTY_MEASURE_WITH_UNIT(LENGTH_MEASURE(1.E-5),#9,'NONE','NONE');
#11=(NAMED_UNIT(*)PLANE_ANGLE_UNIT()SI_UNIT($,.RADIAN.));
#12=(NAMED_UNIT(*)SI_UNIT($,.STERADIAN.)SOLID_ANGLE_UNIT());
#13=MANIFOLD_SOLID_BREP('',#14);
#14=CLOSED_SHELL('',(#53,#54,#55,#56,#57,#58,#59,#60,#61,#62,#63,#64,#65,#66,#67,
#68,#69,#70,#71,#72,#73,#74,#75,#76,#77,#78,#79,#80,#81));
#15=COLOUR_RGB('',0.564705882352941,0.564705882352941,0.564705882352941);
#16=FILL_AREA_STYLE_COLOUR('',#15);
#17=FILL_AREA_STYLE($,(#16));
#18=SURFACE_STYLE_FILL_AREA(#17);
#19=SURFACE_SIDE_STYLE('',(#18));
#20=SURFACE_STYLE_USAGE(.BOTH.,#19);
#21=PRESENTATION_STYLE_ASSIGNMENT((#20));
#22=MECHANICAL_DESIGN_GEOMETRIC_PRESENTATION_REPRESENTATION('NONE',(#23),#8);
#23=STYLED_ITEM('',(#21),#13);
#24=ADVANCED_BREP_SHAPE_REPRESENTATION('NONE',(#13),#8);
#25=SHAPE_REPRESENTATION_RELATIONSHIP('','',#3,#24);
#26=PRODUCT_DEFINITION_SHAPE('NONE','NONE',#1);
#27=MECHANICAL_CONTEXT('NONE',#32,'mechanical');
#28=PRODUCT_DEFINITION_FORMATION_WITH_SPECIFIED_SOURCE('ANY','UNSPECIFIED',#29,.NOT_KNOWN.);
#29=PRODUCT('','\X2\0421043E043D04300440\X0\_\X2\041A0440044B0448043A0430\X0\','NONE',
(#27));
#30=PRODUCT_RELATED_PRODUCT_CATEGORY('detail','',(#29));
#31=DESIGN_CONTEXT('detailed design',#32,'design');
#32=APPLICATION_CONTEXT('configuration controlled 3d designs of mechanical parts and assemblies');
#33=APPLICATION_PROTOCOL_DEFINITION('international standard','config_control_design',
1994,#32);
#34=CC_DESIGN_DATE_AND_TIME_ASSIGNMENT(#35,#39,(#1));
#35=DATE_AND_TIME(#36,#37);
#36=CALENDAR_DATE(0,1,1);
#37=LOCAL_TIME(0,0,0.,#38);
#38=COORDINATED_UNIVERSAL_TIME_OFFSET(0,0,.AHEAD.);
#39=DATE_TIME_ROLE('creation_date');
#40=CC_DESIGN_APPROVAL(#41,(#1));
#41=APPROVAL(#42,'UNSPECIFIED');
#42=APPROVAL_STATUS('not_yet_approved');
#43=APPROVAL_DATE_TIME(#44,#41);
#44=DATE_AND_TIME(#45,#46);
#45=CALENDAR_DATE(0,1,1);
#46=LOCAL_TIME(0,0,0.,#47);
#47=COORDINATED_UNIVERSAL_TIME_OFFSET(0,0,.AHEAD.);
#48=PERSON('UNSPECIFIED','User','UNSPECIFIED',('UNSPECIFIED'),('UNSPECIFIED'),('UNSPECIFIED'));
#49=ORGANIZATION('UNSPECIFIED','UNSPECIFIED','UNSPECIFIED');
#50=PERSON_AND_ORGANIZATION(#48,#49);
#51=PERSON_AND_ORGANIZATION_ROLE('creator');
#52=CC_DESIGN_PERSON_AND_ORGANIZATION_ASSIGNMENT(#50,#51,(#28,#1));
#53=ADVANCED_FACE('',(#82,#84),#86,.T.);
#54=ADVANCED_FACE('',(#91,#93),#95,.T.);
#55=ADVANCED_FACE('',(#100,#102),#104,.T.);
#56=ADVANCED_FACE('',(#109,#111),#113,.T.);
#57=ADVANCED_FACE('',(#118,#120),#122,.F.);
#58=ADVANCED_FACE('',(#127,#129),#131,.F.);
#59=ADVANCED_FACE('',(#136),#138,.T.);
#60=ADVANCED_FACE('',(#143),#145,.T.);
#61=ADVANCED_FACE('',(#150),#152,.T.);
#62=ADVANCED_FACE('',(#157),#159,.T.);
#63=ADVANCED_FACE('',(#164),#166,.T.);
#64=ADVANCED_FACE('',(#171),#173,.T.);
#65=ADVANCED_FACE('',(#178),#180,.T.);
#66=ADVANCED_FACE('',(#185),#187,.T.);
#67=ADVANCED_FACE('',(#192),#194,.T.);
#68=ADVANCED_FACE('',(#199,#201),#203,.T.);
#69=ADVANCED_FACE('',(#208),#210,.T.);
#70=ADVANCED_FACE('',(#215,#217),#219,.F.);
#71=ADVANCED_FACE('',(#224),#226,.T.);
#72=ADVANCED_FACE('',(#231),#233,.T.);
#73=ADVANCED_FACE('',(#238),#240,.F.);
#74=ADVANCED_FACE('',(#245),#247,.F.);
#75=ADVANCED_FACE('',(#252),#254,.T.);
#76=ADVANCED_FACE('',(#259),#261,.T.);
#77=ADVANCED_FACE('',(#266),#268,.F.);
#78=ADVANCED_FACE('',(#273),#275,.F.);
#79=ADVANCED_FACE('',(#280),#282,.F.);
#80=ADVANCED_FACE('',(#287),#289,.T.);
#81=ADVANCED_FACE('',(#294,#296),#298,.F.);
#82=FACE_BOUND('',#83,.T.);
#83=EDGE_LOOP('',(#303,#304,#305,#306));
#84=FACE_BOUND('',#85,.T.);
#85=EDGE_LOOP('',(#307));
#86=PLANE('',#87);
#87=AXIS2_PLACEMENT_3D('',#88,#89,#90);
#88=CARTESIAN_POINT('',(-22.55,-2.09999999999999,5.60999999999999));
#89=DIRECTION('',(1.,0.,0.));
#90=DIRECTION('',(0.,1.58320573921591E-16,-1.));
#91=FACE_BOUND('',#92,.T.);
#92=EDGE_LOOP('',(#308,#309,#310,#311));
#93=FACE_BOUND('',#94,.T.);
#94=EDGE_LOOP('',(#312));
#95=PLANE('',#96);
#96=AXIS2_PLACEMENT_3D('',#97,#98,#99);
#97=CARTESIAN_POINT('',(22.55,-2.1,2.48215161351994E-15));
#98=DIRECTION('',(-1.,0.,0.));
#99=DIRECTION('',(0.,-1.58320573921591E-16,1.));
#100=FACE_BOUND('',#101,.T.);
#101=EDGE_LOOP('',(#313,#314,#315,#316,#317,#318,#319,#320));
#102=FACE_BOUND('',#103,.T.);
#103=EDGE_LOOP('',(#321));
#104=PLANE('',#105);
#105=AXIS2_PLACEMENT_3D('',#106,#107,#108);
#106=CARTESIAN_POINT('',(-24.35,4.26129614005456,25.7));
#107=DIRECTION('',(-1.,0.,0.));
#108=DIRECTION('',(0.,-1.,0.));
#109=FACE_BOUND('',#110,.T.);
#110=EDGE_LOOP('',(#322,#323,#324,#325,#326,#327,#328,#329));
#111=FACE_BOUND('',#112,.T.);
#112=EDGE_LOOP('',(#330));
#113=PLANE('',#114);
#114=AXIS2_PLACEMENT_3D('',#115,#116,#117);
#115=CARTESIAN_POINT('',(24.35,-4.,25.7));
#116=DIRECTION('',(1.,0.,0.));
#117=DIRECTION('',(0.,1.,0.));
#118=FACE_OUTER_BOUND('',#119,.T.);
#119=EDGE_LOOP('',(#331));
#120=FACE_OUTER_BOUND('',#121,.T.);
#121=EDGE_LOOP('',(#332));
#122=CYLINDRICAL_SURFACE('',#123,1.35);
#123=AXIS2_PLACEMENT_3D('',#124,#125,#126);
#124=CARTESIAN_POINT('',(24.35,2.50000000000001,2.85500000000001));
#125=DIRECTION('',(-1.,0.,0.));
#126=DIRECTION('',(0.,-1.,-6.12323399573677E-17));
#127=FACE_OUTER_BOUND('',#128,.T.);
#128=EDGE_LOOP('',(#333));
#129=FACE_OUTER_BOUND('',#130,.T.);
#130=EDGE_LOOP('',(#334));
#131=CYLINDRICAL_SURFACE('',#132,1.35);
#132=AXIS2_PLACEMENT_3D('',#133,#134,#135);
#133=CARTESIAN_POINT('',(24.35,2.50000000000001,2.85500000000001));
#134=DIRECTION('',(-1.,0.,0.));
#135=DIRECTION('',(0.,-1.,-6.12323399573677E-17));
#136=FACE_BOUND('',#137,.T.);
#137=EDGE_LOOP('',(#335,#336,#337,#338,#339,#340,#341,#342,#343,#344,#345,#346,#347,
#348,#349,#350));
#138=PLANE('',#139);
#139=AXIS2_PLACEMENT_3D('',#140,#141,#142);
#140=CARTESIAN_POINT('',(24.35,-2.1,-1.));
#141=DIRECTION('',(1.55020874074971E-16,1.,1.33060437408258E-16));
#142=DIRECTION('',(-1.,1.55020874074971E-16,-1.27664249238211E-16));
#143=FACE_BOUND('',#144,.T.);
#144=EDGE_LOOP('',(#351,#352,#353,#354,#355,#356,#357));
#145=PLANE('',#146);
#146=AXIS2_PLACEMENT_3D('',#147,#148,#149);
#147=CARTESIAN_POINT('',(5.25000000000001,8.54690884146738,0.));
#148=DIRECTION('',(1.247736118123E-16,-1.96438672372847E-17,-1.));
#149=DIRECTION('',(0.997930181295682,-0.0643067123958844,1.25778585577536E-16));
#150=FACE_BOUND('',#151,.T.);
#151=EDGE_LOOP('',(#358,#359,#360,#361));
#152=CYLINDRICAL_SURFACE('',#153,81.64);
#153=AXIS2_PLACEMENT_3D('',#154,#155,#156);
#154=CARTESIAN_POINT('',(2.95024127370826E-15,-72.9241111595121,1.99999999999999));
#155=DIRECTION('',(6.12323399573754E-17,1.22464679914735E-16,-1.));
#156=DIRECTION('',(-0.298260656540911,0.954484458102794,9.86274357279253E-17));
#157=FACE_BOUND('',#158,.T.);
#158=EDGE_LOOP('',(#362,#363,#364,#365,#366));
#159=PLANE('',#160);
#160=AXIS2_PLACEMENT_3D('',#161,#162,#163);
#161=CARTESIAN_POINT('',(-24.35,-2.09999999999999,5.60999999999999));
#162=DIRECTION('',(-4.93432455388966E-16,-1.50336285604977E-16,1.));
#163=DIRECTION('',(1.,0.,4.93432455388966E-16));
#164=FACE_BOUND('',#165,.T.);
#165=EDGE_LOOP('',(#367,#368,#369,#370,#371));
#166=PLANE('',#167);
#167=AXIS2_PLACEMENT_3D('',#168,#169,#170);
#168=CARTESIAN_POINT('',(22.55,-2.1,5.61));
#169=DIRECTION('',(-3.70904012700604E-32,-1.50336285604977E-16,1.));
#170=DIRECTION('',(1.,-2.46716227694483E-16,0.));
#171=FACE_BOUND('',#172,.T.);
#172=EDGE_LOOP('',(#372,#373,#374,#375));
#173=CYLINDRICAL_SURFACE('',#174,81.64);
#174=AXIS2_PLACEMENT_3D('',#175,#176,#177);
#175=CARTESIAN_POINT('',(2.95024127370826E-15,-72.9241111595121,1.99999999999999));
#176=DIRECTION('',(6.12323399573754E-17,1.22464679914735E-16,-1.));
#177=DIRECTION('',(-0.298260656540911,0.954484458102794,9.86274357279253E-17));
#178=FACE_BOUND('',#179,.T.);
#179=EDGE_LOOP('',(#376,#377,#378,#379,#380,#381,#382));
#180=PLANE('',#181);
#181=AXIS2_PLACEMENT_3D('',#182,#183,#184);
#182=CARTESIAN_POINT('',(5.25000000000001,8.54690884146738,0.));
#183=DIRECTION('',(1.247736118123E-16,-1.96438672372847E-17,-1.));
#184=DIRECTION('',(0.997930181295682,-0.0643067123958844,1.25778585577536E-16));
#185=FACE_BOUND('',#186,.T.);
#186=EDGE_LOOP('',(#383,#384,#385,#386));
#187=CYLINDRICAL_SURFACE('',#188,1.);
#188=AXIS2_PLACEMENT_3D('',#189,#190,#191);
#189=CARTESIAN_POINT('',(-23.35,4.26129614005458,-2.));
#190=DIRECTION('',(3.69689248574454E-15,1.57117930644143E-15,-1.));
#191=DIRECTION('',(-1.,-1.86517468137018E-14,-3.69689248574457E-15));
#192=FACE_BOUND('',#193,.T.);
#193=EDGE_LOOP('',(#387,#388,#389,#390,#391,#392,#393,#394,#395,#396,#397,#398));
#194=PLANE('',#195);
#195=AXIS2_PLACEMENT_3D('',#196,#197,#198);
#196=CARTESIAN_POINT('',(-24.35,-4.,25.7));
#197=DIRECTION('',(0.,-1.,0.));
#198=DIRECTION('',(1.,0.,1.45901999129384E-16));
#199=FACE_BOUND('',#200,.T.);
#200=EDGE_LOOP('',(#399,#400,#401,#402,#403,#404));
#201=FACE_BOUND('',#202,.T.);
#202=EDGE_LOOP('',(#405));
#203=PLANE('',#204);
#204=AXIS2_PLACEMENT_3D('',#205,#206,#207);
#205=CARTESIAN_POINT('',(-2.2459250126214E-16,-2.20436423846524E-16,27.5));
#206=DIRECTION('',(-1.247736118123E-16,-1.22464679914735E-16,1.));
#207=DIRECTION('',(1.,-1.52803604323987E-32,1.247736118123E-16));
#208=FACE_BOUND('',#209,.T.);
#209=EDGE_LOOP('',(#406,#407,#408,#409));
#210=CYLINDRICAL_SURFACE('',#211,1.);
#211=AXIS2_PLACEMENT_3D('',#212,#213,#214);
#212=CARTESIAN_POINT('',(-23.35,4.26129614005456,25.7));
#213=DIRECTION('',(-1.247736118123E-16,-1.22464679914735E-16,1.));
#214=DIRECTION('',(-0.28955853174602,0.957160308774392,8.10890670041277E-17));
#215=FACE_BOUND('',#216,.T.);
#216=EDGE_LOOP('',(#410,#411,#412,#413,#414,#415));
#217=FACE_BOUND('',#218,.T.);
#218=EDGE_LOOP('',(#416));
#219=PLANE('',#220);
#220=AXIS2_PLACEMENT_3D('',#221,#222,#223);
#221=CARTESIAN_POINT('',(0.,0.,25.7));
#222=DIRECTION('',(-1.247736118123E-16,-1.22464679914735E-16,1.));
#223=DIRECTION('',(1.,-1.52803604323987E-32,1.247736118123E-16));
#224=FACE_BOUND('',#225,.T.);
#225=EDGE_LOOP('',(#417,#418,#419,#420));
#226=CYLINDRICAL_SURFACE('',#227,1.);
#227=AXIS2_PLACEMENT_3D('',#228,#229,#230);
#228=CARTESIAN_POINT('',(23.35,4.26129614005457,-2.));
#229=DIRECTION('',(0.,0.,1.));
#230=DIRECTION('',(1.,-1.77635683940026E-15,0.));
#231=FACE_BOUND('',#232,.T.);
#232=EDGE_LOOP('',(#421,#422,#423,#424));
#233=CYLINDRICAL_SURFACE('',#234,1.00000000000001);
#234=AXIS2_PLACEMENT_3D('',#235,#236,#237);
#235=CARTESIAN_POINT('',(23.35,4.26129614005456,25.7));
#236=DIRECTION('',(-1.247736118123E-16,-1.22464679914735E-16,1.));
#237=DIRECTION('',(1.,-1.52803604323987E-32,1.247736118123E-16));
#238=FACE_BOUND('',#239,.T.);
#239=EDGE_LOOP('',(#425,#426,#427,#428));
#240=CYLINDRICAL_SURFACE('',#241,1.5);
#241=AXIS2_PLACEMENT_3D('',#242,#243,#244);
#242=CARTESIAN_POINT('',(-3.75,3.90000000000002,6.9));
#243=DIRECTION('',(1.2779545607196E-16,1.,0.));
#244=DIRECTION('',(-1.,1.27795456071961E-16,1.1842378929335E-15));
#245=FACE_BOUND('',#246,.T.);
#246=EDGE_LOOP('',(#429,#430,#431,#432));
#247=PLANE('',#248);
#248=AXIS2_PLACEMENT_3D('',#249,#250,#251);
#249=CARTESIAN_POINT('',(-5.25,8.71588884048791,8.4));
#250=DIRECTION('',(-1.,0.,1.16309078770254E-15));
#251=DIRECTION('',(-1.16309078770254E-15,0.,-1.));
#252=FACE_BOUND('',#253,.T.);
#253=EDGE_LOOP('',(#433,#434,#435,#436));
#254=CYLINDRICAL_SURFACE('',#255,1.5);
#255=AXIS2_PLACEMENT_3D('',#256,#257,#258);
#256=CARTESIAN_POINT('',(-6.75000000000001,-10.,1.5));
#257=DIRECTION('',(1.2779545607196E-16,1.,-1.43769888080955E-16));
#258=DIRECTION('',(1.,-1.27795456071963E-16,-2.96059473233375E-16));
#259=FACE_BOUND('',#260,.T.);
#260=EDGE_LOOP('',(#437,#438,#439,#440));
#261=CYLINDRICAL_SURFACE('',#262,1.5);
#262=AXIS2_PLACEMENT_3D('',#263,#264,#265);
#263=CARTESIAN_POINT('',(6.75000000000001,3.90000000000002,1.5));
#264=DIRECTION('',(0.,-1.,6.38977280359801E-17));
#265=DIRECTION('',(-1.,2.10362908058936E-30,-2.96059473233375E-16));
#266=FACE_BOUND('',#267,.T.);
#267=EDGE_LOOP('',(#441,#442,#443,#444));
#268=PLANE('',#269);
#269=AXIS2_PLACEMENT_3D('',#270,#271,#272);
#270=CARTESIAN_POINT('',(5.25000000000001,8.71588884048791,-5.55111512312578E-16));
#271=DIRECTION('',(1.,0.,0.));
#272=DIRECTION('',(0.,0.,1.));
#273=FACE_BOUND('',#274,.T.);
#274=EDGE_LOOP('',(#445,#446,#447,#448));
#275=CYLINDRICAL_SURFACE('',#276,1.5);
#276=AXIS2_PLACEMENT_3D('',#277,#278,#279);
#277=CARTESIAN_POINT('',(3.75000000000001,3.9,6.90000000000001));
#278=DIRECTION('',(0.,1.,1.27795456071961E-16));
#279=DIRECTION('',(-5.92118946466751E-16,-1.27795456071961E-16,1.));
#280=FACE_BOUND('',#281,.T.);
#281=EDGE_LOOP('',(#449,#450,#451,#452));
#282=PLANE('',#283);
#283=AXIS2_PLACEMENT_3D('',#284,#285,#286);
#284=CARTESIAN_POINT('',(5.25000000000001,8.71588884048791,8.40000000000001));
#285=DIRECTION('',(-3.38353683695286E-16,0.,1.));
#286=DIRECTION('',(-1.,0.,-3.38353683695286E-16));
#287=FACE_BOUND('',#288,.T.);
#288=EDGE_LOOP('',(#453,#454,#455,#456));
#289=CYLINDRICAL_SURFACE('',#290,81.64);
#290=AXIS2_PLACEMENT_3D('',#291,#292,#293);
#291=CARTESIAN_POINT('',(7.25603228494611E-16,-72.9241111595121,25.7));
#292=DIRECTION('',(-1.247736118123E-16,-1.22464679914735E-16,1.));
#293=DIRECTION('',(0.289558531746035,0.957160308774387,1.53347594678164E-16));
#294=FACE_OUTER_BOUND('',#295,.T.);
#295=EDGE_LOOP('',(#457));
#296=FACE_OUTER_BOUND('',#297,.T.);
#297=EDGE_LOOP('',(#458));
#298=CYLINDRICAL_SURFACE('',#299,1.35);
#299=AXIS2_PLACEMENT_3D('',#300,#301,#302);
#300=CARTESIAN_POINT('',(6.75015598972095E-14,6.16588884048789,25.7));
#301=DIRECTION('',(-1.247736118123E-16,-1.22464679914735E-16,1.));
#302=DIRECTION('',(1.,-1.52803604323987E-32,1.247736118123E-16));
#303=ORIENTED_EDGE('',*,*,#459,.T.);
#304=ORIENTED_EDGE('',*,*,#460,.T.);
#305=ORIENTED_EDGE('',*,*,#461,.F.);
#306=ORIENTED_EDGE('',*,*,#462,.F.);
#307=ORIENTED_EDGE('',*,*,#463,.T.);
#308=ORIENTED_EDGE('',*,*,#464,.T.);
#309=ORIENTED_EDGE('',*,*,#465,.T.);
#310=ORIENTED_EDGE('',*,*,#466,.F.);
#311=ORIENTED_EDGE('',*,*,#467,.F.);
#312=ORIENTED_EDGE('',*,*,#468,.T.);
#313=ORIENTED_EDGE('',*,*,#469,.F.);
#314=ORIENTED_EDGE('',*,*,#470,.F.);
#315=ORIENTED_EDGE('',*,*,#471,.T.);
#316=ORIENTED_EDGE('',*,*,#472,.F.);
#317=ORIENTED_EDGE('',*,*,#473,.F.);
#318=ORIENTED_EDGE('',*,*,#474,.T.);
#319=ORIENTED_EDGE('',*,*,#475,.F.);
#320=ORIENTED_EDGE('',*,*,#476,.T.);
#321=ORIENTED_EDGE('',*,*,#477,.T.);
#322=ORIENTED_EDGE('',*,*,#478,.F.);
#323=ORIENTED_EDGE('',*,*,#479,.F.);
#324=ORIENTED_EDGE('',*,*,#480,.T.);
#325=ORIENTED_EDGE('',*,*,#481,.T.);
#326=ORIENTED_EDGE('',*,*,#482,.T.);
#327=ORIENTED_EDGE('',*,*,#483,.F.);
#328=ORIENTED_EDGE('',*,*,#484,.F.);
#329=ORIENTED_EDGE('',*,*,#485,.T.);
#330=ORIENTED_EDGE('',*,*,#486,.T.);
#331=ORIENTED_EDGE('',*,*,#486,.F.);
#332=ORIENTED_EDGE('',*,*,#468,.F.);
#333=ORIENTED_EDGE('',*,*,#463,.F.);
#334=ORIENTED_EDGE('',*,*,#477,.F.);
#335=ORIENTED_EDGE('',*,*,#487,.F.);
#336=ORIENTED_EDGE('',*,*,#488,.T.);
#337=ORIENTED_EDGE('',*,*,#489,.F.);
#338=ORIENTED_EDGE('',*,*,#490,.F.);
#339=ORIENTED_EDGE('',*,*,#459,.F.);
#340=ORIENTED_EDGE('',*,*,#491,.F.);
#341=ORIENTED_EDGE('',*,*,#475,.T.);
#342=ORIENTED_EDGE('',*,*,#492,.T.);
#343=ORIENTED_EDGE('',*,*,#480,.F.);
#344=ORIENTED_EDGE('',*,*,#493,.F.);
#345=ORIENTED_EDGE('',*,*,#464,.F.);
#346=ORIENTED_EDGE('',*,*,#494,.F.);
#347=ORIENTED_EDGE('',*,*,#495,.F.);
#348=ORIENTED_EDGE('',*,*,#496,.T.);
#349=ORIENTED_EDGE('',*,*,#497,.F.);
#350=ORIENTED_EDGE('',*,*,#498,.T.);
#351=ORIENTED_EDGE('',*,*,#499,.F.);
#352=ORIENTED_EDGE('',*,*,#500,.F.);
#353=ORIENTED_EDGE('',*,*,#460,.F.);
#354=ORIENTED_EDGE('',*,*,#490,.T.);
#355=ORIENTED_EDGE('',*,*,#501,.T.);
#356=ORIENTED_EDGE('',*,*,#502,.T.);
#357=ORIENTED_EDGE('',*,*,#470,.T.);
#358=ORIENTED_EDGE('',*,*,#503,.T.);
#359=ORIENTED_EDGE('',*,*,#504,.T.);
#360=ORIENTED_EDGE('',*,*,#461,.T.);
#361=ORIENTED_EDGE('',*,*,#500,.T.);
#362=ORIENTED_EDGE('',*,*,#505,.F.);
#363=ORIENTED_EDGE('',*,*,#476,.F.);
#364=ORIENTED_EDGE('',*,*,#491,.T.);
#365=ORIENTED_EDGE('',*,*,#462,.T.);
#366=ORIENTED_EDGE('',*,*,#504,.F.);
#367=ORIENTED_EDGE('',*,*,#506,.F.);
#368=ORIENTED_EDGE('',*,*,#507,.F.);
#369=ORIENTED_EDGE('',*,*,#465,.F.);
#370=ORIENTED_EDGE('',*,*,#493,.T.);
#371=ORIENTED_EDGE('',*,*,#479,.T.);
#372=ORIENTED_EDGE('',*,*,#508,.T.);
#373=ORIENTED_EDGE('',*,*,#509,.T.);
#374=ORIENTED_EDGE('',*,*,#466,.T.);
#375=ORIENTED_EDGE('',*,*,#507,.T.);
#376=ORIENTED_EDGE('',*,*,#510,.F.);
#377=ORIENTED_EDGE('',*,*,#485,.F.);
#378=ORIENTED_EDGE('',*,*,#511,.T.);
#379=ORIENTED_EDGE('',*,*,#512,.T.);
#380=ORIENTED_EDGE('',*,*,#494,.T.);
#381=ORIENTED_EDGE('',*,*,#467,.T.);
#382=ORIENTED_EDGE('',*,*,#509,.F.);
#383=ORIENTED_EDGE('',*,*,#503,.F.);
#384=ORIENTED_EDGE('',*,*,#499,.T.);
#385=ORIENTED_EDGE('',*,*,#469,.T.);
#386=ORIENTED_EDGE('',*,*,#505,.T.);
#387=ORIENTED_EDGE('',*,*,#513,.F.);
#388=ORIENTED_EDGE('',*,*,#514,.T.);
#389=ORIENTED_EDGE('',*,*,#515,.F.);
#390=ORIENTED_EDGE('',*,*,#516,.T.);
#391=ORIENTED_EDGE('',*,*,#517,.F.);
#392=ORIENTED_EDGE('',*,*,#511,.F.);
#393=ORIENTED_EDGE('',*,*,#484,.T.);
#394=ORIENTED_EDGE('',*,*,#518,.F.);
#395=ORIENTED_EDGE('',*,*,#471,.F.);
#396=ORIENTED_EDGE('',*,*,#502,.F.);
#397=ORIENTED_EDGE('',*,*,#519,.F.);
#398=ORIENTED_EDGE('',*,*,#520,.T.);
#399=ORIENTED_EDGE('',*,*,#521,.T.);
#400=ORIENTED_EDGE('',*,*,#522,.T.);
#401=ORIENTED_EDGE('',*,*,#472,.T.);
#402=ORIENTED_EDGE('',*,*,#518,.T.);
#403=ORIENTED_EDGE('',*,*,#483,.T.);
#404=ORIENTED_EDGE('',*,*,#523,.T.);
#405=ORIENTED_EDGE('',*,*,#524,.T.);
#406=ORIENTED_EDGE('',*,*,#525,.T.);
#407=ORIENTED_EDGE('',*,*,#473,.T.);
#408=ORIENTED_EDGE('',*,*,#522,.F.);
#409=ORIENTED_EDGE('',*,*,#526,.F.);
#410=ORIENTED_EDGE('',*,*,#492,.F.);
#411=ORIENTED_EDGE('',*,*,#474,.F.);
#412=ORIENTED_EDGE('',*,*,#525,.F.);
#413=ORIENTED_EDGE('',*,*,#527,.F.);
#414=ORIENTED_EDGE('',*,*,#528,.F.);
#415=ORIENTED_EDGE('',*,*,#481,.F.);
#416=ORIENTED_EDGE('',*,*,#529,.T.);
#417=ORIENTED_EDGE('',*,*,#508,.F.);
#418=ORIENTED_EDGE('',*,*,#506,.T.);
#419=ORIENTED_EDGE('',*,*,#478,.T.);
#420=ORIENTED_EDGE('',*,*,#510,.T.);
#421=ORIENTED_EDGE('',*,*,#528,.T.);
#422=ORIENTED_EDGE('',*,*,#530,.T.);
#423=ORIENTED_EDGE('',*,*,#523,.F.);
#424=ORIENTED_EDGE('',*,*,#482,.F.);
#425=ORIENTED_EDGE('',*,*,#531,.T.);
#426=ORIENTED_EDGE('',*,*,#513,.T.);
#427=ORIENTED_EDGE('',*,*,#532,.F.);
#428=ORIENTED_EDGE('',*,*,#487,.T.);
#429=ORIENTED_EDGE('',*,*,#532,.T.);
#430=ORIENTED_EDGE('',*,*,#520,.F.);
#431=ORIENTED_EDGE('',*,*,#533,.F.);
#432=ORIENTED_EDGE('',*,*,#488,.F.);
#433=ORIENTED_EDGE('',*,*,#501,.F.);
#434=ORIENTED_EDGE('',*,*,#489,.T.);
#435=ORIENTED_EDGE('',*,*,#533,.T.);
#436=ORIENTED_EDGE('',*,*,#519,.T.);
#437=ORIENTED_EDGE('',*,*,#512,.F.);
#438=ORIENTED_EDGE('',*,*,#517,.T.);
#439=ORIENTED_EDGE('',*,*,#534,.T.);
#440=ORIENTED_EDGE('',*,*,#495,.T.);
#441=ORIENTED_EDGE('',*,*,#535,.F.);
#442=ORIENTED_EDGE('',*,*,#496,.F.);
#443=ORIENTED_EDGE('',*,*,#534,.F.);
#444=ORIENTED_EDGE('',*,*,#516,.F.);
#445=ORIENTED_EDGE('',*,*,#535,.T.);
#446=ORIENTED_EDGE('',*,*,#515,.T.);
#447=ORIENTED_EDGE('',*,*,#536,.F.);
#448=ORIENTED_EDGE('',*,*,#497,.T.);
#449=ORIENTED_EDGE('',*,*,#531,.F.);
#450=ORIENTED_EDGE('',*,*,#498,.F.);
#451=ORIENTED_EDGE('',*,*,#536,.T.);
#452=ORIENTED_EDGE('',*,*,#514,.F.);
#453=ORIENTED_EDGE('',*,*,#527,.T.);
#454=ORIENTED_EDGE('',*,*,#526,.T.);
#455=ORIENTED_EDGE('',*,*,#521,.F.);
#456=ORIENTED_EDGE('',*,*,#530,.F.);
#457=ORIENTED_EDGE('',*,*,#524,.F.);
#458=ORIENTED_EDGE('',*,*,#529,.F.);
#459=EDGE_CURVE('',#537,#538,#539,.T.);
#460=EDGE_CURVE('',#538,#540,#541,.T.);
#461=EDGE_CURVE('',#542,#540,#543,.F.);
#462=EDGE_CURVE('',#537,#542,#544,.T.);
#463=EDGE_CURVE('',#545,#545,#546,.T.);
#464=EDGE_CURVE('',#547,#548,#549,.T.);
#465=EDGE_CURVE('',#548,#550,#551,.T.);
#466=EDGE_CURVE('',#552,#550,#553,.T.);
#467=EDGE_CURVE('',#547,#552,#554,.T.);
#468=EDGE_CURVE('',#555,#555,#556,.F.);
#469=EDGE_CURVE('',#557,#558,#559,.T.);
#470=EDGE_CURVE('',#560,#557,#561,.T.);
#471=EDGE_CURVE('',#560,#562,#563,.T.);
#472=EDGE_CURVE('',#564,#562,#565,.T.);
#473=EDGE_CURVE('',#566,#564,#567,.T.);
#474=EDGE_CURVE('',#566,#568,#569,.T.);
#475=EDGE_CURVE('',#570,#568,#571,.T.);
#476=EDGE_CURVE('',#570,#558,#572,.T.);
#477=EDGE_CURVE('',#573,#573,#574,.F.);
#478=EDGE_CURVE('',#575,#576,#577,.F.);
#479=EDGE_CURVE('',#578,#575,#579,.T.);
#480=EDGE_CURVE('',#578,#580,#581,.T.);
#481=EDGE_CURVE('',#580,#582,#583,.T.);
#482=EDGE_CURVE('',#582,#584,#585,.T.);
#483=EDGE_CURVE('',#586,#584,#587,.T.);
#484=EDGE_CURVE('',#588,#586,#589,.T.);
#485=EDGE_CURVE('',#588,#576,#590,.T.);
#486=EDGE_CURVE('',#591,#591,#592,.T.);
#487=EDGE_CURVE('',#593,#594,#595,.F.);
#488=EDGE_CURVE('',#593,#596,#597,.F.);
#489=EDGE_CURVE('',#598,#596,#599,.F.);
#490=EDGE_CURVE('',#538,#598,#600,.T.);
#491=EDGE_CURVE('',#570,#537,#601,.T.);
#492=EDGE_CURVE('',#568,#580,#602,.F.);
#493=EDGE_CURVE('',#548,#578,#603,.T.);
#494=EDGE_CURVE('',#604,#547,#605,.T.);
#495=EDGE_CURVE('',#606,#604,#607,.F.);
#496=EDGE_CURVE('',#606,#608,#609,.F.);
#497=EDGE_CURVE('',#610,#608,#611,.F.);
#498=EDGE_CURVE('',#610,#594,#612,.F.);
#499=EDGE_CURVE('',#613,#557,#614,.F.);
#500=EDGE_CURVE('',#540,#613,#615,.F.);
#501=EDGE_CURVE('',#598,#616,#617,.F.);
#502=EDGE_CURVE('',#616,#560,#618,.T.);
#503=EDGE_CURVE('',#613,#619,#620,.T.);
#504=EDGE_CURVE('',#619,#542,#621,.T.);
#505=EDGE_CURVE('',#558,#619,#622,.F.);
#506=EDGE_CURVE('',#623,#575,#624,.F.);
#507=EDGE_CURVE('',#550,#623,#625,.T.);
#508=EDGE_CURVE('',#623,#626,#627,.F.);
#509=EDGE_CURVE('',#626,#552,#628,.F.);
#510=EDGE_CURVE('',#576,#626,#629,.F.);
#511=EDGE_CURVE('',#588,#630,#631,.T.);
#512=EDGE_CURVE('',#630,#604,#632,.F.);
#513=EDGE_CURVE('',#633,#634,#635,.F.);
#514=EDGE_CURVE('',#633,#636,#637,.F.);
#515=EDGE_CURVE('',#638,#636,#639,.F.);
#516=EDGE_CURVE('',#638,#640,#641,.F.);
#517=EDGE_CURVE('',#630,#640,#642,.F.);
#518=EDGE_CURVE('',#562,#586,#643,.T.);
#519=EDGE_CURVE('',#644,#616,#645,.F.);
#520=EDGE_CURVE('',#644,#634,#646,.F.);
#521=EDGE_CURVE('',#647,#648,#649,.T.);
#522=EDGE_CURVE('',#648,#564,#650,.T.);
#523=EDGE_CURVE('',#584,#647,#651,.T.);
#524=EDGE_CURVE('',#652,#652,#653,.F.);
#525=EDGE_CURVE('',#654,#566,#655,.T.);
#526=EDGE_CURVE('',#654,#648,#656,.T.);
#527=EDGE_CURVE('',#657,#654,#658,.T.);
#528=EDGE_CURVE('',#582,#657,#659,.T.);
#529=EDGE_CURVE('',#660,#660,#661,.T.);
#530=EDGE_CURVE('',#657,#647,#662,.T.);
#531=EDGE_CURVE('',#594,#633,#663,.T.);
#532=EDGE_CURVE('',#593,#634,#664,.T.);
#533=EDGE_CURVE('',#596,#644,#665,.F.);
#534=EDGE_CURVE('',#640,#606,#666,.F.);
#535=EDGE_CURVE('',#608,#638,#667,.T.);
#536=EDGE_CURVE('',#610,#636,#668,.T.);
#537=VERTEX_POINT('',#669);
#538=VERTEX_POINT('',#670);
#539=LINE('',#671,#672);
#540=VERTEX_POINT('',#674);
#541=LINE('',#675,#676);
#542=VERTEX_POINT('',#678);
#543=LINE('',#679,#680);
#544=LINE('',#682,#683);
#545=VERTEX_POINT('',#685);
#546=CIRCLE('',#686,1.35);
#547=VERTEX_POINT('',#690);
#548=VERTEX_POINT('',#691);
#549=LINE('',#692,#693);
#550=VERTEX_POINT('',#695);
#551=LINE('',#696,#697);
#552=VERTEX_POINT('',#699);
#553=LINE('',#700,#701);
#554=LINE('',#703,#704);
#555=VERTEX_POINT('',#706);
#556=CIRCLE('',#707,1.35);
#557=VERTEX_POINT('',#711);
#558=VERTEX_POINT('',#712);
#559=LINE('',#713,#714);
#560=VERTEX_POINT('',#716);
#561=LINE('',#717,#718);
#562=VERTEX_POINT('',#720);
#563=LINE('',#721,#722);
#564=VERTEX_POINT('',#724);
#565=LINE('',#725,#726);
#566=VERTEX_POINT('',#728);
#567=LINE('',#729,#730);
#568=VERTEX_POINT('',#732);
#569=LINE('',#733,#734);
#570=VERTEX_POINT('',#736);
#571=LINE('',#737,#738);
#572=LINE('',#740,#741);
#573=VERTEX_POINT('',#743);
#574=CIRCLE('',#744,1.35);
#575=VERTEX_POINT('',#748);
#576=VERTEX_POINT('',#749);
#577=LINE('',#750,#751);
#578=VERTEX_POINT('',#753);
#579=LINE('',#754,#755);
#580=VERTEX_POINT('',#757);
#581=LINE('',#758,#759);
#582=VERTEX_POINT('',#761);
#583=LINE('',#762,#763);
#584=VERTEX_POINT('',#765);
#585=LINE('',#766,#767);
#586=VERTEX_POINT('',#769);
#587=LINE('',#770,#771);
#588=VERTEX_POINT('',#773);
#589=LINE('',#774,#775);
#590=LINE('',#777,#778);
#591=VERTEX_POINT('',#780);
#592=CIRCLE('',#781,1.35);
#593=VERTEX_POINT('',#785);
#594=VERTEX_POINT('',#786);
#595=CIRCLE('',#787,1.5);
#596=VERTEX_POINT('',#791);
#597=LINE('',#792,#793);
#598=VERTEX_POINT('',#795);
#599=CIRCLE('',#796,1.50000000000001);
#600=LINE('',#800,#801);
#601=LINE('',#803,#804);
#602=LINE('',#806,#807);
#603=LINE('',#809,#810);
#604=VERTEX_POINT('',#812);
#605=LINE('',#813,#814);
#606=VERTEX_POINT('',#816);
#607=CIRCLE('',#817,1.5);
#608=VERTEX_POINT('',#821);
#609=LINE('',#822,#823);
#610=VERTEX_POINT('',#825);
#611=CIRCLE('',#826,1.5);
#612=LINE('',#830,#831);
#613=VERTEX_POINT('',#833);
#614=CIRCLE('',#834,1.00000000000004);
#615=CIRCLE('',#838,81.64);
#616=VERTEX_POINT('',#842);
#617=LINE('',#843,#844);
#618=LINE('',#846,#847);
#619=VERTEX_POINT('',#849);
#620=LINE('',#850,#851);
#621=CIRCLE('',#853,81.64);
#622=CIRCLE('',#857,1.);
#623=VERTEX_POINT('',#861);
#624=CIRCLE('',#862,0.999999999999996);
#625=CIRCLE('',#866,81.64);
#626=VERTEX_POINT('',#870);
#627=LINE('',#871,#872);
#628=CIRCLE('',#874,81.64);
#629=CIRCLE('',#878,0.999999999999999);
#630=VERTEX_POINT('',#882);
#631=LINE('',#883,#884);
#632=LINE('',#886,#887);
#633=VERTEX_POINT('',#889);
#634=VERTEX_POINT('',#890);
#635=CIRCLE('',#891,1.5);
#636=VERTEX_POINT('',#895);
#637=LINE('',#896,#897);
#638=VERTEX_POINT('',#899);
#639=CIRCLE('',#900,1.5);
#640=VERTEX_POINT('',#904);
#641=LINE('',#905,#906);
#642=CIRCLE('',#908,1.5);
#643=LINE('',#912,#913);
#644=VERTEX_POINT('',#915);
#645=CIRCLE('',#916,1.5);
#646=LINE('',#920,#921);
#647=VERTEX_POINT('',#923);
#648=VERTEX_POINT('',#924);
#649=CIRCLE('',#925,81.64);
#650=CIRCLE('',#929,1.);
#651=CIRCLE('',#933,1.00000000000001);
#652=VERTEX_POINT('',#937);
#653=CIRCLE('',#938,1.35);
#654=VERTEX_POINT('',#942);
#655=CIRCLE('',#943,1.);
#656=LINE('',#947,#948);
#657=VERTEX_POINT('',#950);
#658=CIRCLE('',#951,81.64);
#659=CIRCLE('',#955,1.00000000000001);
#660=VERTEX_POINT('',#959);
#661=CIRCLE('',#960,1.35);
#662=LINE('',#964,#965);
#663=LINE('',#967,#968);
#664=LINE('',#970,#971);
#665=LINE('',#973,#974);
#666=LINE('',#976,#977);
#667=LINE('',#979,#980);
#668=LINE('',#982,#983);
#669=CARTESIAN_POINT('',(-22.55,-2.09999999999999,5.60999999999999));
#670=CARTESIAN_POINT('',(-22.55,-2.09999999999999,-3.38098089909622E-15));
#671=CARTESIAN_POINT('',(-22.55,-2.09999999999999,5.61));
#672=VECTOR('',#673,1.);
#673=DIRECTION('',(0.,1.58320573921591E-16,-1.));
#674=CARTESIAN_POINT('',(-22.55,5.53981112327974,-2.23932277021368E-15));
#675=CARTESIAN_POINT('',(-22.55,-2.09999999999999,-3.40613681170659E-15));
#676=VECTOR('',#677,1.);
#677=DIRECTION('',(0.,1.,6.93383533421532E-17));
#678=CARTESIAN_POINT('',(-22.55,5.53981112327974,5.60999999999999));
#679=CARTESIAN_POINT('',(-22.5500000000001,5.53981112327972,-1.06056489609264E-15));
#680=VECTOR('',#681,1.);
#681=DIRECTION('',(0.,0.,1.));
#682=CARTESIAN_POINT('',(-22.55,-2.09999999999999,5.60999999999999));
#683=VECTOR('',#684,1.);
#684=DIRECTION('',(0.,1.,1.16256593961296E-16));
#685=CARTESIAN_POINT('',(-22.55,1.15000000000001,2.85500000000001));
#686=AXIS2_PLACEMENT_3D('',#687,#688,#689);
#687=CARTESIAN_POINT('',(-22.55,2.50000000000001,2.85500000000001));
#688=DIRECTION('',(-1.,0.,0.));
#689=DIRECTION('',(0.,-1.,-6.12323399573676E-17));
#690=CARTESIAN_POINT('',(22.55,-2.1,2.35016571040667E-15));
#691=CARTESIAN_POINT('',(22.55,-2.1,5.61));
#692=CARTESIAN_POINT('',(22.55,-2.1,2.22044604925031E-15));
#693=VECTOR('',#694,1.);
#694=DIRECTION('',(0.,-1.58320573921591E-16,1.));
#695=CARTESIAN_POINT('',(22.55,5.53981112327973,5.61));
#696=CARTESIAN_POINT('',(22.55,-2.1,5.61));
#697=VECTOR('',#698,1.);
#698=DIRECTION('',(4.65026375845184E-16,1.,1.16256593961296E-16));
#699=CARTESIAN_POINT('',(22.55,5.53981112327973,3.49870822330002E-15));
#700=CARTESIAN_POINT('',(22.55,5.53981112327973,1.51277854021753E-15));
#701=VECTOR('',#702,1.);
#702=DIRECTION('',(-6.96610525255001E-15,1.26656459137273E-15,1.));
#703=CARTESIAN_POINT('',(22.55,-2.1,2.424940780821E-15));
#704=VECTOR('',#705,1.);
#705=DIRECTION('',(-4.65026375845184E-16,1.,5.67082850854869E-17));
#706=CARTESIAN_POINT('',(22.55,1.15000000000001,2.85500000000001));
#707=AXIS2_PLACEMENT_3D('',#708,#709,#710);
#708=CARTESIAN_POINT('',(22.55,2.50000000000001,2.85500000000001));
#709=DIRECTION('',(-1.,0.,0.));
#710=DIRECTION('',(0.,-1.,-6.12323399573676E-17));
#711=CARTESIAN_POINT('',(-24.35,4.26129614005456,-3.42348368348601E-15));
#712=CARTESIAN_POINT('',(-24.35,4.26129614005456,5.60999999999999));
#713=CARTESIAN_POINT('',(-24.35,4.26129614005456,-3.33066907387547E-15));
#714=VECTOR('',#715,1.);
#715=DIRECTION('',(-1.89984688705909E-15,-6.33282295686364E-16,1.));
#716=CARTESIAN_POINT('',(-24.35,-4.,-3.77475828372553E-15));
#717=CARTESIAN_POINT('',(-24.35,-4.,-3.49977138846224E-15));
#718=VECTOR('',#719,1.);
#719=DIRECTION('',(0.,1.,-9.82193361864229E-18));
#720=CARTESIAN_POINT('',(-24.35,-4.,27.5));
#721=CARTESIAN_POINT('',(-24.35,-4.,-3.5527136788005E-15));
#722=VECTOR('',#723,1.);
#723=DIRECTION('',(-1.29189588320018E-16,-6.45947941600091E-17,1.));
#724=CARTESIAN_POINT('',(-24.35,4.26129614005456,27.5));
#725=CARTESIAN_POINT('',(-24.35,4.26129614005456,27.5));
#726=VECTOR('',#727,1.);
#727=DIRECTION('',(0.,-1.,0.));
#728=CARTESIAN_POINT('',(-24.35,4.26129614005456,25.7));
#729=CARTESIAN_POINT('',(-24.35,4.26129614005455,25.7));
#730=VECTOR('',#731,1.);
#731=DIRECTION('',(0.,0.,1.));
#732=CARTESIAN_POINT('',(-24.35,-2.09999999999999,25.7));
#733=CARTESIAN_POINT('',(-24.35,4.26129614005456,25.7));
#734=VECTOR('',#735,1.);
#735=DIRECTION('',(0.,-1.,0.));
#736=CARTESIAN_POINT('',(-24.35,-2.09999999999999,5.60999999999999));
#737=CARTESIAN_POINT('',(-24.35,-2.09999999999999,5.60999999999999));
#738=VECTOR('',#739,1.);
#739=DIRECTION('',(0.,-1.32629928277769E-16,1.));
#740=CARTESIAN_POINT('',(-24.35,-2.09999999999999,5.60999999999999));
#741=VECTOR('',#742,1.);
#742=DIRECTION('',(0.,1.,0.));
#743=CARTESIAN_POINT('',(-24.35,1.15000000000001,2.85500000000001));
#744=AXIS2_PLACEMENT_3D('',#745,#746,#747);
#745=CARTESIAN_POINT('',(-24.35,2.50000000000001,2.855));
#746=DIRECTION('',(-1.,0.,0.));
#747=DIRECTION('',(0.,-1.,-6.12323399573677E-17));
#748=CARTESIAN_POINT('',(24.35,4.26129614005457,5.61));
#749=CARTESIAN_POINT('',(24.35,4.26129614005457,2.96888517845927E-15));
#750=CARTESIAN_POINT('',(24.35,4.26129614005457,3.21964677141295E-15));
#751=VECTOR('',#752,1.);
#752=DIRECTION('',(0.,-1.58320573921591E-16,1.));
#753=CARTESIAN_POINT('',(24.35,-2.1,5.61));
#754=CARTESIAN_POINT('',(24.35,-2.1,5.61));
#755=VECTOR('',#756,1.);
#756=DIRECTION('',(0.,1.,0.));
#757=CARTESIAN_POINT('',(24.35,-2.1,25.7));
#758=CARTESIAN_POINT('',(24.35,-2.1,5.61));
#759=VECTOR('',#760,1.);
#760=DIRECTION('',(-1.76839904370358E-16,-1.32629928277769E-16,1.));
#761=CARTESIAN_POINT('',(24.35,4.26129614005456,25.7));
#762=CARTESIAN_POINT('',(24.35,-2.1,25.7));
#763=VECTOR('',#764,1.);
#764=DIRECTION('',(5.58488962089105E-16,1.,0.));
#765=CARTESIAN_POINT('',(24.35,4.26129614005456,27.5));
#766=CARTESIAN_POINT('',(24.35,4.26129614005456,25.7));
#767=VECTOR('',#768,1.);
#768=DIRECTION('',(0.,0.,1.));
#769=CARTESIAN_POINT('',(24.35,-4.,27.5));
#770=CARTESIAN_POINT('',(24.35,-4.,27.5));
#771=VECTOR('',#772,1.);
#772=DIRECTION('',(0.,1.,0.));
#773=CARTESIAN_POINT('',(24.35,-4.,2.44249065417534E-15));
#774=CARTESIAN_POINT('',(24.35,-4.,3.5527136788005E-15));
#775=VECTOR('',#776,1.);
#776=DIRECTION('',(-1.29189588320018E-16,6.45947941600091E-17,1.));
#777=CARTESIAN_POINT('',(24.35,-4.,3.09117973796776E-15));
#778=VECTOR('',#779,1.);
#779=DIRECTION('',(0.,1.,-9.82193361864232E-18));
#780=CARTESIAN_POINT('',(24.35,1.15000000000001,2.85500000000001));
#781=AXIS2_PLACEMENT_3D('',#782,#783,#784);
#782=CARTESIAN_POINT('',(24.35,2.50000000000001,2.855));
#783=DIRECTION('',(-1.,0.,0.));
#784=DIRECTION('',(0.,-1.,-6.12323399573677E-17));
#785=CARTESIAN_POINT('',(-5.25,-2.1,6.9));
#786=CARTESIAN_POINT('',(-3.75,-2.1,8.4));
#787=AXIS2_PLACEMENT_3D('',#788,#789,#790);
#788=CARTESIAN_POINT('',(-3.75,-2.1,6.9));
#789=DIRECTION('',(-1.55020874074971E-16,-1.,-1.33060437408258E-16));
#790=DIRECTION('',(2.368475785867E-15,-1.33060437408259E-16,1.));
#791=CARTESIAN_POINT('',(-5.25,-2.1,1.5));
#792=CARTESIAN_POINT('',(-5.25,-2.09999999999999,1.5));
#793=VECTOR('',#794,1.);
#794=DIRECTION('',(1.15134239590757E-15,-8.22387425648263E-17,1.));
#795=CARTESIAN_POINT('',(-6.75000000000001,-2.1,-1.79865402303047E-15));
#796=AXIS2_PLACEMENT_3D('',#797,#798,#799);
#797=CARTESIAN_POINT('',(-6.75000000000001,-2.09999999999999,1.5));
#798=DIRECTION('',(1.55020874074971E-16,1.,1.33060437408258E-16));
#799=DIRECTION('',(1.,-1.5502087407497E-16,-1.48029736616687E-15));
#800=CARTESIAN_POINT('',(-22.55,-2.09999999999999,-3.18409220678156E-15));
#801=VECTOR('',#802,1.);
#802=DIRECTION('',(1.,-1.40534560079134E-16,1.18600629937803E-16));
#803=CARTESIAN_POINT('',(-24.35,-2.09999999999999,5.60999999999999));
#804=VECTOR('',#805,1.);
#805=DIRECTION('',(1.,-2.4671622769448E-16,9.86864910777919E-16));
#806=CARTESIAN_POINT('',(24.35,-2.1,25.7));
#807=VECTOR('',#808,1.);
#808=DIRECTION('',(-1.,1.55020874074971E-16,-1.45901999129384E-16));
#809=CARTESIAN_POINT('',(22.55,-2.1,5.61));
#810=VECTOR('',#811,1.);
#811=DIRECTION('',(1.,-2.46716227694479E-16,0.));
#812=CARTESIAN_POINT('',(6.75,-2.09999999999999,5.02176635370955E-16));
#813=CARTESIAN_POINT('',(6.75,-2.1,4.20198045668885E-16));
#814=VECTOR('',#815,1.);
#815=DIRECTION('',(1.,-1.6864147209496E-16,1.2562735794176E-16));
#816=CARTESIAN_POINT('',(5.25000000000001,-2.09999999999999,1.5));
#817=AXIS2_PLACEMENT_3D('',#818,#819,#820);
#818=CARTESIAN_POINT('',(6.75000000000001,-2.1,1.5));
#819=DIRECTION('',(1.55020874074971E-16,1.,1.33060437408258E-16));
#820=DIRECTION('',(-1.77635683940025E-15,1.33060437408259E-16,-1.));
#821=CARTESIAN_POINT('',(5.25000000000001,-2.1,6.90000000000001));
#822=CARTESIAN_POINT('',(5.25000000000001,-2.1,6.90000000000001));
#823=VECTOR('',#824,1.);
#824=DIRECTION('',(1.64477485129653E-16,1.64477485129653E-16,-1.));
#825=CARTESIAN_POINT('',(3.75,-2.1,8.40000000000001));
#826=AXIS2_PLACEMENT_3D('',#827,#828,#829);
#827=CARTESIAN_POINT('',(3.75000000000001,-2.1,6.90000000000001));
#828=DIRECTION('',(-1.55020874074971E-16,-1.,-1.33060437408258E-16));
#829=DIRECTION('',(1.,-1.55020874074971E-16,5.9211894646675E-16));
#830=CARTESIAN_POINT('',(-3.75,-2.1,8.4));
#831=VECTOR('',#832,1.);
#832=DIRECTION('',(1.,-1.77635683940025E-16,4.736951571734E-16));
#833=CARTESIAN_POINT('',(-23.639558531746,5.21845644882899,-6.98660317583156E-16));
#834=AXIS2_PLACEMENT_3D('',#835,#836,#837);
#835=CARTESIAN_POINT('',(-23.35,4.26129614005458,-3.4843392908948E-15));
#836=DIRECTION('',(1.247736118123E-16,-1.96438672372847E-17,-1.));
#837=DIRECTION('',(-1.,-1.9539925233402E-14,-1.24773611812299E-16));
#838=AXIS2_PLACEMENT_3D('',#839,#840,#841);
#839=CARTESIAN_POINT('',(4.44089209850063E-15,-72.9241111595121,9.45344438570833E-16));
#840=DIRECTION('',(1.247736118123E-16,-1.96438672372847E-17,-1.));
#841=DIRECTION('',(-0.28955853174603,0.957160308774389,-5.49315938673812E-17));
#842=CARTESIAN_POINT('',(-6.75000000000001,-4.,-1.67519060465101E-15));
#843=CARTESIAN_POINT('',(-6.75000000000001,-4.,-7.36429067576266E-16));
#844=VECTOR('',#845,1.);
#845=DIRECTION('',(4.67462326157959E-16,1.,-6.82547243883872E-17));
#846=CARTESIAN_POINT('',(-6.75000000000001,-4.,-2.401763604514E-15));
#847=VECTOR('',#848,1.);
#848=DIRECTION('',(-1.,1.00929365875014E-16,-6.23868059061499E-17));
#849=CARTESIAN_POINT('',(-23.639558531746,5.21845644882896,5.60999999999999));
#850=CARTESIAN_POINT('',(-23.6395585317459,5.21845644882899,3.10862446895044E-15));
#851=VECTOR('',#852,1.);
#852=DIRECTION('',(0.,0.,1.));
#853=AXIS2_PLACEMENT_3D('',#854,#855,#856);
#854=CARTESIAN_POINT('',(3.5527136788005E-15,-72.9241111595121,5.60999999999999));
#855=DIRECTION('',(4.93432455388966E-16,1.50336285604977E-16,-1.));
#856=DIRECTION('',(-0.289558531746031,0.957160308774388,1.01834825138652E-18));
#857=AXIS2_PLACEMENT_3D('',#858,#859,#860);
#858=CARTESIAN_POINT('',(-23.35,4.26129614005458,5.60999999999999));
#859=DIRECTION('',(-4.93432455388966E-16,-1.50336285604977E-16,1.));
#860=DIRECTION('',(-0.289558531746038,0.957160308774386,1.0183482513831E-18));
#861=CARTESIAN_POINT('',(23.639558531746,5.21845644882896,5.61));
#862=AXIS2_PLACEMENT_3D('',#863,#864,#865);
#863=CARTESIAN_POINT('',(23.35,4.26129614005457,5.61));
#864=DIRECTION('',(-3.70904012700604E-32,-1.50336285604977E-16,1.));
#865=DIRECTION('',(1.,-5.57603315853901E-48,3.70904012700604E-32));
#866=AXIS2_PLACEMENT_3D('',#867,#868,#869);
#867=CARTESIAN_POINT('',(3.5527136788005E-15,-72.9241111595121,5.60999999999999));
#868=DIRECTION('',(3.69778549322349E-32,1.50336285604977E-16,-1.));
#869=DIRECTION('',(0.276212640862322,0.961096549274765,1.44487685325729E-16));
#870=CARTESIAN_POINT('',(23.6395585317461,5.21845644882895,3.04409192158657E-15));
#871=CARTESIAN_POINT('',(23.639558531746,5.21845644882896,3.99680288865056E-15));
#872=VECTOR('',#873,1.);
#873=DIRECTION('',(0.,0.,1.));
#874=AXIS2_PLACEMENT_3D('',#875,#876,#877);
#875=CARTESIAN_POINT('',(4.44089209850063E-15,-72.9241111595121,9.45344438570833E-16));
#876=DIRECTION('',(1.247736118123E-16,-1.96438672372847E-17,-1.));
#877=DIRECTION('',(0.276212640862323,0.961096549274765,1.55843958124398E-17));
#878=AXIS2_PLACEMENT_3D('',#879,#880,#881);
#879=CARTESIAN_POINT('',(23.35,4.26129614005457,2.3425883807396E-15));
#880=DIRECTION('',(1.247736118123E-16,-1.96438672372847E-17,-1.));
#881=DIRECTION('',(0.289558531746128,0.957160308774359,1.73269338066689E-17));
#882=CARTESIAN_POINT('',(6.75,-4.,-2.25530931795536E-16));
#883=CARTESIAN_POINT('',(24.35,-4.,3.09117973796776E-15));
#884=VECTOR('',#885,1.);
#885=DIRECTION('',(-1.,0.,-1.63316171781164E-16));
#886=CARTESIAN_POINT('',(6.75000000000001,-2.09999999999999,5.31220348131401E-16));
#887=VECTOR('',#888,1.);
#888=DIRECTION('',(0.,-1.,9.82193361864234E-18));
#889=CARTESIAN_POINT('',(-3.75,-4.,8.4));
#890=CARTESIAN_POINT('',(-5.25,-4.,6.9));
#891=AXIS2_PLACEMENT_3D('',#892,#893,#894);
#892=CARTESIAN_POINT('',(-3.75,-4.,6.9));
#893=DIRECTION('',(0.,1.,0.));
#894=DIRECTION('',(-1.,0.,-5.92118946466752E-16));
#895=CARTESIAN_POINT('',(3.75,-4.,8.4));
#896=CARTESIAN_POINT('',(3.75,-4.,8.4));
#897=VECTOR('',#898,1.);
#898=DIRECTION('',(-1.,0.,-4.736951571734E-16));
#899=CARTESIAN_POINT('',(5.25,-4.,6.90000000000001));
#900=AXIS2_PLACEMENT_3D('',#901,#902,#903);
#901=CARTESIAN_POINT('',(3.75,-4.,6.90000000000001));
#902=DIRECTION('',(0.,1.,0.));
#903=DIRECTION('',(0.,0.,1.));
#904=CARTESIAN_POINT('',(5.25,-4.,1.5));
#905=CARTESIAN_POINT('',(5.25,-4.,1.5));
#906=VECTOR('',#907,1.);
#907=DIRECTION('',(-1.64477485129653E-16,0.,1.));
#908=AXIS2_PLACEMENT_3D('',#909,#910,#911);
#909=CARTESIAN_POINT('',(6.75,-4.,1.5));
#910=DIRECTION('',(0.,-1.,0.));
#911=DIRECTION('',(-1.,0.,0.));
#912=CARTESIAN_POINT('',(-24.35,-4.,27.5));
#913=VECTOR('',#914,1.);
#914=DIRECTION('',(1.,0.,1.45901999129384E-16));
#915=CARTESIAN_POINT('',(-5.25,-4.,1.5));
#916=AXIS2_PLACEMENT_3D('',#917,#918,#919);
#917=CARTESIAN_POINT('',(-6.75000000000001,-4.,1.5));
#918=DIRECTION('',(0.,-1.,0.));
#919=DIRECTION('',(0.,0.,-1.));
#920=CARTESIAN_POINT('',(-5.25,-4.,6.9));
#921=VECTOR('',#922,1.);
#922=DIRECTION('',(-1.15134239590757E-15,1.64477485129653E-16,-1.));
#923=CARTESIAN_POINT('',(23.6395585317462,5.21845644882889,27.5));
#924=CARTESIAN_POINT('',(-23.639558531746,5.21845644882896,27.5));
#925=AXIS2_PLACEMENT_3D('',#926,#927,#928);
#926=CARTESIAN_POINT('',(5.01010727232471E-16,-72.9241111595121,27.5));
#927=DIRECTION('',(-1.247736118123E-16,-1.22464679914735E-16,1.));
#928=DIRECTION('',(0.289558531746035,0.957160308774387,1.53347594678164E-16));
#929=AXIS2_PLACEMENT_3D('',#930,#931,#932);
#930=CARTESIAN_POINT('',(-23.35,4.26129614005456,27.5));
#931=DIRECTION('',(-1.247736118123E-16,-1.22464679914735E-16,1.));
#932=DIRECTION('',(-0.28955853174602,0.957160308774392,8.10890670041277E-17));
#933=AXIS2_PLACEMENT_3D('',#934,#935,#936);
#934=CARTESIAN_POINT('',(23.35,4.26129614005456,27.5));
#935=DIRECTION('',(-1.247736118123E-16,-1.22464679914735E-16,1.));
#936=DIRECTION('',(1.,-1.52803604323987E-32,1.247736118123E-16));
#937=CARTESIAN_POINT('',(1.35000000000007,6.16588884048789,27.5));
#938=AXIS2_PLACEMENT_3D('',#939,#940,#941);
#939=CARTESIAN_POINT('',(6.72769673959474E-14,6.16588884048789,27.5));
#940=DIRECTION('',(-1.247736118123E-16,-1.22464679914735E-16,1.));
#941=DIRECTION('',(1.,-1.52803604323987E-32,1.247736118123E-16));
#942=CARTESIAN_POINT('',(-23.639558531746,5.21845644882896,25.7));
#943=AXIS2_PLACEMENT_3D('',#944,#945,#946);
#944=CARTESIAN_POINT('',(-23.35,4.26129614005456,25.7));
#945=DIRECTION('',(-1.247736118123E-16,-1.22464679914735E-16,1.));
#946=DIRECTION('',(-0.28955853174602,0.957160308774392,8.10890670041277E-17));
#947=CARTESIAN_POINT('',(-23.639558531746,5.21845644882896,25.7));
#948=VECTOR('',#949,1.);
#949=DIRECTION('',(0.,0.,1.));
#950=CARTESIAN_POINT('',(23.6395585317462,5.21845644882889,25.7));
#951=AXIS2_PLACEMENT_3D('',#952,#953,#954);
#952=CARTESIAN_POINT('',(7.25603228494611E-16,-72.9241111595121,25.7));
#953=DIRECTION('',(-1.247736118123E-16,-1.22464679914735E-16,1.));
#954=DIRECTION('',(0.289558531746035,0.957160308774387,1.53347594678164E-16));
#955=AXIS2_PLACEMENT_3D('',#956,#957,#958);
#956=CARTESIAN_POINT('',(23.35,4.26129614005456,25.7));
#957=DIRECTION('',(-1.247736118123E-16,-1.22464679914735E-16,1.));
#958=DIRECTION('',(1.,-1.52803604323987E-32,1.247736118123E-16));
#959=CARTESIAN_POINT('',(1.35000000000007,6.16588884048789,25.7));
#960=AXIS2_PLACEMENT_3D('',#961,#962,#963);
#961=CARTESIAN_POINT('',(6.75015598972095E-14,6.16588884048789,25.7));
#962=DIRECTION('',(-1.247736118123E-16,-1.22464679914735E-16,1.));
#963=DIRECTION('',(1.,-1.52803604323987E-32,1.247736118123E-16));
#964=CARTESIAN_POINT('',(23.6395585317462,5.2184564488289,25.7));
#965=VECTOR('',#966,1.);
#966=DIRECTION('',(0.,0.,1.));
#967=CARTESIAN_POINT('',(-3.75,-2.1,8.4));
#968=VECTOR('',#969,1.);
#969=DIRECTION('',(-2.3373116307898E-16,-1.,0.));
#970=CARTESIAN_POINT('',(-5.25,-2.1,6.9));
#971=VECTOR('',#972,1.);
#972=DIRECTION('',(0.,-1.,0.));
#973=CARTESIAN_POINT('',(-5.25000000000001,-4.00000000000001,1.5));
#974=VECTOR('',#975,1.);
#975=DIRECTION('',(0.,1.,0.));
#976=CARTESIAN_POINT('',(5.25000000000001,-2.09999999999999,1.5));
#977=VECTOR('',#978,1.);
#978=DIRECTION('',(0.,-1.,1.1686558153949E-16));
#979=CARTESIAN_POINT('',(5.25000000000001,-2.1,6.90000000000001));
#980=VECTOR('',#981,1.);
#981=DIRECTION('',(0.,-1.,0.));
#982=CARTESIAN_POINT('',(3.75,-2.1,8.40000000000001));
#983=VECTOR('',#984,1.);
#984=DIRECTION('',(0.,-1.,0.));
ENDSEC;
END-ISO-10303-21;
