ISO-10303-21;
HEADER;
FILE_DESCRIPTION(('STEP AP203'),
    '1');
FILE_NAME('Сонар_Крепление',
    '',
    ('UNSPECIFIED'),
    ('UNSPECIFIED'),
    'C3D Converter',
    'C3D Toolkit',
    '');
FILE_SCHEMA(('CONFIG_CONTROL_DESIGN'));
ENDSEC;

DATA;
#1=PRODUCT_DEFINITION('','UNSPECIFIED',#28,#31);
#2=SHAPE_DEFINITION_REPRESENTATION(#26,#3);
#3=SHAPE_REPRESENTATION('NONE',(#4),#8);
#4=AXIS2_PLACEMENT_3D('',#5,#6,#7);
#5=CARTESIAN_POINT('',(0.,0.,0.));
#6=DIRECTION('',(0.,0.,1.));
#7=DIRECTION('',(1.,0.,0.));
#8=(GEOMETRIC_REPRESENTATION_CONTEXT(3)GLOBAL_UNCERTAINTY_ASSIGNED_CONTEXT((#10))
GLOBAL_UNIT_ASSIGNED_CONTEXT((#9,#11,#12))REPRESENTATION_CONTEXT('NONE','NONE'));
#9=(LENGTH_UNIT()NAMED_UNIT(*)SI_UNIT(.MILLI.,.METRE.));
#10=UNCERTAINTY_MEASURE_WITH_UNIT(LENGTH_MEASURE(1.E-5),#9,'NONE','NONE');
#11=(NAMED_UNIT(*)PLANE_ANGLE_UNIT()SI_UNIT($,.RADIAN.));
#12=(NAMED_UNIT(*)SI_UNIT($,.STERADIAN.)SOLID_ANGLE_UNIT());
#13=MANIFOLD_SOLID_BREP('',#14);
#14=CLOSED_SHELL('',(#53,#54,#55,#56,#57,#58,#59,#60,#61,#62,#63,#64,#65,#66,#67,
#68,#69,#70,#71,#72,#73,#74,#75,#76,#77,#78,#79,#80,#81,#82,#83,#84,#85,#86,#87,
#88,#89,#90,#91));
#15=COLOUR_RGB('',0.,0.501960784313725,1.);
#16=FILL_AREA_STYLE_COLOUR('',#15);
#17=FILL_AREA_STYLE($,(#16));
#18=SURFACE_STYLE_FILL_AREA(#17);
#19=SURFACE_SIDE_STYLE('',(#18));
#20=SURFACE_STYLE_USAGE(.BOTH.,#19);
#21=PRESENTATION_STYLE_ASSIGNMENT((#20));
#22=MECHANICAL_DESIGN_GEOMETRIC_PRESENTATION_REPRESENTATION('NONE',(#23),#8);
#23=STYLED_ITEM('',(#21),#13);
#24=ADVANCED_BREP_SHAPE_REPRESENTATION('NONE',(#13),#8);
#25=SHAPE_REPRESENTATION_RELATIONSHIP('','',#3,#24);
#26=PRODUCT_DEFINITION_SHAPE('NONE','NONE',#1);
#27=MECHANICAL_CONTEXT('NONE',#32,'mechanical');
#28=PRODUCT_DEFINITION_FORMATION_WITH_SPECIFIED_SOURCE('ANY','UNSPECIFIED',#29,.NOT_KNOWN.);
#29=PRODUCT('-01','\X2\0421043E043D04300440\X0\_\X2\041A04400435043F043B0435043D04380435\X0\',
'NONE',(#27));
#30=PRODUCT_RELATED_PRODUCT_CATEGORY('detail','',(#29));
#31=DESIGN_CONTEXT('detailed design',#32,'design');
#32=APPLICATION_CONTEXT('configuration controlled 3d designs of mechanical parts and assemblies');
#33=APPLICATION_PROTOCOL_DEFINITION('international standard','config_control_design',
1994,#32);
#34=CC_DESIGN_DATE_AND_TIME_ASSIGNMENT(#35,#39,(#1));
#35=DATE_AND_TIME(#36,#37);
#36=CALENDAR_DATE(0,1,1);
#37=LOCAL_TIME(0,0,0.,#38);
#38=COORDINATED_UNIVERSAL_TIME_OFFSET(0,0,.AHEAD.);
#39=DATE_TIME_ROLE('creation_date');
#40=CC_DESIGN_APPROVAL(#41,(#1));
#41=APPROVAL(#42,'UNSPECIFIED');
#42=APPROVAL_STATUS('not_yet_approved');
#43=APPROVAL_DATE_TIME(#44,#41);
#44=DATE_AND_TIME(#45,#46);
#45=CALENDAR_DATE(0,1,1);
#46=LOCAL_TIME(0,0,0.,#47);
#47=COORDINATED_UNIVERSAL_TIME_OFFSET(0,0,.AHEAD.);
#48=PERSON('UNSPECIFIED','User','UNSPECIFIED',('UNSPECIFIED'),('UNSPECIFIED'),('UNSPECIFIED'));
#49=ORGANIZATION('UNSPECIFIED','UNSPECIFIED','UNSPECIFIED');
#50=PERSON_AND_ORGANIZATION(#48,#49);
#51=PERSON_AND_ORGANIZATION_ROLE('creator');
#52=CC_DESIGN_PERSON_AND_ORGANIZATION_ASSIGNMENT(#50,#51,(#28,#1));
#53=ADVANCED_FACE('',(#92,#94),#96,.T.);
#54=ADVANCED_FACE('',(#101,#103),#105,.F.);
#55=ADVANCED_FACE('',(#110,#112,#114),#116,.T.);
#56=ADVANCED_FACE('',(#121),#123,.T.);
#57=ADVANCED_FACE('',(#128),#130,.F.);
#58=ADVANCED_FACE('',(#135),#137,.T.);
#59=ADVANCED_FACE('',(#142),#144,.F.);
#60=ADVANCED_FACE('',(#149,#151),#153,.F.);
#61=ADVANCED_FACE('',(#158,#160,#162),#164,.T.);
#62=ADVANCED_FACE('',(#169,#171),#173,.F.);
#63=ADVANCED_FACE('',(#178),#180,.F.);
#64=ADVANCED_FACE('',(#185),#187,.F.);
#65=ADVANCED_FACE('',(#192,#194),#196,.F.);
#66=ADVANCED_FACE('',(#201,#203),#205,.F.);
#67=ADVANCED_FACE('',(#210),#212,.T.);
#68=ADVANCED_FACE('',(#217),#219,.F.);
#69=ADVANCED_FACE('',(#224),#226,.T.);
#70=ADVANCED_FACE('',(#231,#233,#235,#237),#239,.F.);
#71=ADVANCED_FACE('',(#244),#246,.T.);
#72=ADVANCED_FACE('',(#251),#253,.F.);
#73=ADVANCED_FACE('',(#258,#260),#262,.F.);
#74=ADVANCED_FACE('',(#267,#269),#271,.F.);
#75=ADVANCED_FACE('',(#276,#278),#280,.F.);
#76=ADVANCED_FACE('',(#285,#287),#289,.F.);
#77=ADVANCED_FACE('',(#294),#296,.F.);
#78=ADVANCED_FACE('',(#301),#303,.T.);
#79=ADVANCED_FACE('',(#308),#310,.T.);
#80=ADVANCED_FACE('',(#315),#317,.T.);
#81=ADVANCED_FACE('',(#322),#324,.T.);
#82=ADVANCED_FACE('',(#329),#331,.T.);
#83=ADVANCED_FACE('',(#336),#338,.T.);
#84=ADVANCED_FACE('',(#343),#345,.F.);
#85=ADVANCED_FACE('',(#350),#352,.T.);
#86=ADVANCED_FACE('',(#357),#359,.T.);
#87=ADVANCED_FACE('',(#364),#366,.T.);
#88=ADVANCED_FACE('',(#371),#373,.F.);
#89=ADVANCED_FACE('',(#378),#380,.T.);
#90=ADVANCED_FACE('',(#385),#387,.T.);
#91=ADVANCED_FACE('',(#392),#394,.T.);
#92=FACE_BOUND('',#93,.T.);
#93=EDGE_LOOP('',(#399,#400,#401,#402,#403,#404));
#94=FACE_BOUND('',#95,.T.);
#95=EDGE_LOOP('',(#405));
#96=PLANE('',#97);
#97=AXIS2_PLACEMENT_3D('',#98,#99,#100);
#98=CARTESIAN_POINT('',(24.35,7.25603228494807E-16,-11.85));
#99=DIRECTION('',(1.8600595176966E-16,0.,-1.));
#100=DIRECTION('',(-1.,1.03254045185996E-32,-1.8600595176966E-16));
#101=FACE_OUTER_BOUND('',#102,.T.);
#102=EDGE_LOOP('',(#406));
#103=FACE_OUTER_BOUND('',#104,.T.);
#104=EDGE_LOOP('',(#407));
#105=CYLINDRICAL_SURFACE('',#106,1.65);
#106=AXIS2_PLACEMENT_3D('',#107,#108,#109);
#107=CARTESIAN_POINT('',(-6.35210325293388E-14,6.16588884048789,-11.85));
#108=DIRECTION('',(-3.08470631684395E-16,3.03858167864314E-64,1.));
#109=DIRECTION('',(1.,9.37313209835678E-80,3.08470631684395E-16));
#110=FACE_BOUND('',#111,.T.);
#111=EDGE_LOOP('',(#408,#409,#410,#411,#412,#413,#414,#415));
#112=FACE_BOUND('',#113,.T.);
#113=EDGE_LOOP('',(#416));
#114=FACE_BOUND('',#115,.T.);
#115=EDGE_LOOP('',(#417));
#116=CYLINDRICAL_SURFACE('',#117,81.64);
#117=AXIS2_PLACEMENT_3D('',#118,#119,#120);
#118=CARTESIAN_POINT('',(-1.23130823402576E-16,-72.9241111595121,11.85));
#119=DIRECTION('',(-1.22464679914735E-16,0.,1.));
#120=DIRECTION('',(0.298260656540911,0.954484458102794,3.65263958344415E-17));
#121=FACE_BOUND('',#122,.T.);
#122=EDGE_LOOP('',(#418,#419,#420,#421));
#123=PLANE('',#124);
#124=AXIS2_PLACEMENT_3D('',#125,#126,#127);
#125=CARTESIAN_POINT('',(24.35,-7.25603228494807E-16,11.85));
#126=DIRECTION('',(1.,0.,0.));
#127=DIRECTION('',(0.,6.12323399573677E-17,-1.));
#128=FACE_BOUND('',#129,.T.);
#129=EDGE_LOOP('',(#422,#423,#424,#425,#426,#427,#428,#429));
#130=PLANE('',#131);
#131=AXIS2_PLACEMENT_3D('',#132,#133,#134);
#132=CARTESIAN_POINT('',(0.,-2.,-1.22464679914735E-16));
#133=DIRECTION('',(0.,1.,6.12323399573677E-17));
#134=DIRECTION('',(-1.,7.49879891330929E-33,-1.22464679914735E-16));
#135=FACE_BOUND('',#136,.T.);
#136=EDGE_LOOP('',(#430,#431,#432,#433));
#137=PLANE('',#138);
#138=AXIS2_PLACEMENT_3D('',#139,#140,#141);
#139=CARTESIAN_POINT('',(-24.35,7.25603228494807E-16,-11.85));
#140=DIRECTION('',(-1.,0.,0.));
#141=DIRECTION('',(0.,-6.12323399573677E-17,1.));
#142=FACE_BOUND('',#143,.T.);
#143=EDGE_LOOP('',(#434));
#144=PLANE('',#145);
#145=AXIS2_PLACEMENT_3D('',#146,#147,#148);
#146=CARTESIAN_POINT('',(6.61817370048494E-16,-2.08142844987055E-63,-6.85));
#147=DIRECTION('',(-3.08470631684395E-16,3.03858167864314E-64,1.));
#148=DIRECTION('',(1.,9.37313209835678E-80,3.08470631684395E-16));
#149=FACE_BOUND('',#150,.T.);
#150=EDGE_LOOP('',(#435,#436,#437,#438,#439,#440));
#151=FACE_BOUND('',#152,.T.);
#152=EDGE_LOOP('',(#441));
#153=PLANE('',#154);
#154=AXIS2_PLACEMENT_3D('',#155,#156,#157);
#155=CARTESIAN_POINT('',(-22.55,8.71588884048789,8.14));
#156=DIRECTION('',(1.,0.,0.));
#157=DIRECTION('',(0.,0.,1.));
#158=FACE_BOUND('',#159,.T.);
#159=EDGE_LOOP('',(#442,#443,#444,#445));
#160=FACE_BOUND('',#161,.T.);
#161=EDGE_LOOP('',(#446));
#162=FACE_BOUND('',#163,.T.);
#163=EDGE_LOOP('',(#447));
#164=PLANE('',#165);
#165=AXIS2_PLACEMENT_3D('',#166,#167,#168);
#166=CARTESIAN_POINT('',(-5.25000000000001,8.54690884146737,13.85));
#167=DIRECTION('',(-1.8600595176966E-16,-1.4210854715202E-16,1.));
#168=DIRECTION('',(-0.997930181295682,-0.0643067123958844,-1.94759486642274E-16));
#169=FACE_BOUND('',#170,.T.);
#170=EDGE_LOOP('',(#448,#449,#450,#451,#452,#453));
#171=FACE_BOUND('',#172,.T.);
#172=EDGE_LOOP('',(#454));
#173=PLANE('',#174);
#174=AXIS2_PLACEMENT_3D('',#175,#176,#177);
#175=CARTESIAN_POINT('',(22.55,8.71588884048789,13.85));
#176=DIRECTION('',(-1.,0.,0.));
#177=DIRECTION('',(0.,0.,-1.));
#178=FACE_BOUND('',#179,.T.);
#179=EDGE_LOOP('',(#455,#456,#457,#458,#459,#460));
#180=PLANE('',#181);
#181=AXIS2_PLACEMENT_3D('',#182,#183,#184);
#182=CARTESIAN_POINT('',(22.55,8.71588884048789,8.14));
#183=DIRECTION('',(9.86864910777913E-16,0.,-1.));
#184=DIRECTION('',(1.,0.,9.86864910777913E-16));
#185=FACE_BOUND('',#186,.T.);
#186=EDGE_LOOP('',(#461,#462,#463,#464,#465,#466));
#187=PLANE('',#188);
#188=AXIS2_PLACEMENT_3D('',#189,#190,#191);
#189=CARTESIAN_POINT('',(-24.35,8.71588884048789,8.14));
#190=DIRECTION('',(-9.86864910777913E-16,0.,-1.));
#191=DIRECTION('',(1.,0.,-9.86864910777913E-16));
#192=FACE_OUTER_BOUND('',#193,.T.);
#193=EDGE_LOOP('',(#467));
#194=FACE_OUTER_BOUND('',#195,.T.);
#195=EDGE_LOOP('',(#468));
#196=CYLINDRICAL_SURFACE('',#197,8.14);
#197=AXIS2_PLACEMENT_3D('',#198,#199,#200);
#198=CARTESIAN_POINT('',(-13.,9.74843858730207E-32,-1.59204083889156E-15));
#199=DIRECTION('',(0.,1.,6.12323399573677E-17));
#200=DIRECTION('',(-1.,7.49879891330929E-33,-1.22464679914735E-16));
#201=FACE_OUTER_BOUND('',#202,.T.);
#202=EDGE_LOOP('',(#469));
#203=FACE_OUTER_BOUND('',#204,.T.);
#204=EDGE_LOOP('',(#470));
#205=CYLINDRICAL_SURFACE('',#206,8.14);
#206=AXIS2_PLACEMENT_3D('',#207,#208,#209);
#207=CARTESIAN_POINT('',(13.,-9.74843858730208E-32,1.59204083889156E-15));
#208=DIRECTION('',(0.,1.,6.12323399573677E-17));
#209=DIRECTION('',(-1.,7.49879891330929E-33,-1.22464679914735E-16));
#210=FACE_BOUND('',#211,.T.);
#211=EDGE_LOOP('',(#471,#472,#473,#474));
#212=PLANE('',#213);
#213=AXIS2_PLACEMENT_3D('',#214,#215,#216);
#214=CARTESIAN_POINT('',(22.55,-2.,-10.05));
#215=DIRECTION('',(-1.,0.,0.));
#216=DIRECTION('',(0.,-5.52349763495103E-17,1.));
#217=FACE_BOUND('',#218,.T.);
#218=EDGE_LOOP('',(#475,#476,#477,#478,#479,#480,#481,#482));
#219=PLANE('',#220);
#220=AXIS2_PLACEMENT_3D('',#221,#222,#223);
#221=CARTESIAN_POINT('',(1.86935981528508E-15,0.,-10.05));
#222=DIRECTION('',(1.8600595176966E-16,0.,-1.));
#223=DIRECTION('',(1.,1.22464679914735E-16,1.8600595176966E-16));
#224=FACE_BOUND('',#225,.T.);
#225=EDGE_LOOP('',(#483,#484,#485,#486));
#226=PLANE('',#227);
#227=AXIS2_PLACEMENT_3D('',#228,#229,#230);
#228=CARTESIAN_POINT('',(-22.55,-2.,10.05));
#229=DIRECTION('',(1.,0.,0.));
#230=DIRECTION('',(0.,5.52349763495103E-17,-1.));
#231=FACE_BOUND('',#232,.T.);
#232=EDGE_LOOP('',(#487,#488,#489,#490,#491,#492,#493,#494,#495,#496));
#233=FACE_BOUND('',#234,.T.);
#234=EDGE_LOOP('',(#497));
#235=FACE_BOUND('',#236,.T.);
#236=EDGE_LOOP('',(#498));
#237=FACE_BOUND('',#238,.T.);
#238=EDGE_LOOP('',(#499,#500,#501,#502));
#239=PLANE('',#240);
#240=AXIS2_PLACEMENT_3D('',#241,#242,#243);
#241=CARTESIAN_POINT('',(0.,0.,0.));
#242=DIRECTION('',(0.,1.,6.12323399573677E-17));
#243=DIRECTION('',(-1.,7.49879891330929E-33,-1.22464679914735E-16));
#244=FACE_BOUND('',#245,.T.);
#245=EDGE_LOOP('',(#503,#504,#505,#506));
#246=PLANE('',#247);
#247=AXIS2_PLACEMENT_3D('',#248,#249,#250);
#248=CARTESIAN_POINT('',(22.55,-2.,10.05));
#249=DIRECTION('',(1.026795860925E-16,8.88178419700125E-16,-1.));
#250=DIRECTION('',(-1.,0.,-1.026795860925E-16));
#251=FACE_BOUND('',#252,.T.);
#252=EDGE_LOOP('',(#507,#508,#509,#510));
#253=PLANE('',#254);
#254=AXIS2_PLACEMENT_3D('',#255,#256,#257);
#255=CARTESIAN_POINT('',(0.,-2.,-1.22464679914735E-16));
#256=DIRECTION('',(0.,1.,6.12323399573677E-17));
#257=DIRECTION('',(-1.,7.49879891330929E-33,-1.22464679914735E-16));
#258=FACE_OUTER_BOUND('',#259,.T.);
#259=EDGE_LOOP('',(#511));
#260=FACE_OUTER_BOUND('',#261,.T.);
#261=EDGE_LOOP('',(#512));
#262=CYLINDRICAL_SURFACE('',#263,1.65);
#263=AXIS2_PLACEMENT_3D('',#264,#265,#266);
#264=CARTESIAN_POINT('',(-24.35,2.50000000000001,10.995));
#265=DIRECTION('',(-1.,2.81689734769955E-30,-1.2246467991472E-16));
#266=DIRECTION('',(-2.80939854878624E-30,-1.,-6.12323399573677E-17));
#267=FACE_OUTER_BOUND('',#268,.T.);
#268=EDGE_LOOP('',(#513));
#269=FACE_OUTER_BOUND('',#270,.T.);
#270=EDGE_LOOP('',(#514));
#271=CYLINDRICAL_SURFACE('',#272,2.);
#272=AXIS2_PLACEMENT_3D('',#273,#274,#275);
#273=CARTESIAN_POINT('',(-7.25,3.26845831518296,8.85));
#274=DIRECTION('',(-1.8600595176966E-16,-1.4210854715202E-16,1.));
#275=DIRECTION('',(1.,-2.64330355676151E-32,1.8600595176966E-16));
#276=FACE_OUTER_BOUND('',#277,.T.);
#277=EDGE_LOOP('',(#515));
#278=FACE_OUTER_BOUND('',#279,.T.);
#279=EDGE_LOOP('',(#516));
#280=CYLINDRICAL_SURFACE('',#281,2.);
#281=AXIS2_PLACEMENT_3D('',#282,#283,#284);
#282=CARTESIAN_POINT('',(7.25,3.26845831518296,8.85000000000001));
#283=DIRECTION('',(-1.8600595176966E-16,-1.4210854715202E-16,1.));
#284=DIRECTION('',(1.,-2.64330355676151E-32,1.8600595176966E-16));
#285=FACE_OUTER_BOUND('',#286,.T.);
#286=EDGE_LOOP('',(#517));
#287=FACE_OUTER_BOUND('',#288,.T.);
#288=EDGE_LOOP('',(#518));
#289=CYLINDRICAL_SURFACE('',#290,1.65);
#290=AXIS2_PLACEMENT_3D('',#291,#292,#293);
#291=CARTESIAN_POINT('',(24.35,2.50000000000001,10.995));
#292=DIRECTION('',(-1.,0.,1.22464679914735E-16));
#293=DIRECTION('',(-7.49879891330929E-33,-1.,-6.12323399573677E-17));
#294=FACE_BOUND('',#295,.T.);
#295=EDGE_LOOP('',(#519,#520,#521,#522));
#296=PLANE('',#297);
#297=AXIS2_PLACEMENT_3D('',#298,#299,#300);
#298=CARTESIAN_POINT('',(5.25,3.61588884048789,-10.05));
#299=DIRECTION('',(-3.5914450499477E-32,1.,1.93082265152201E-16));
#300=DIRECTION('',(-1.,0.,-1.8600595176966E-16));
#301=FACE_BOUND('',#302,.T.);
#302=EDGE_LOOP('',(#523,#524,#525,#526));
#303=PLANE('',#304);
#304=AXIS2_PLACEMENT_3D('',#305,#306,#307);
#305=CARTESIAN_POINT('',(-5.25,3.33716252767654E-16,-5.45));
#306=DIRECTION('',(1.,-9.86076131526265E-33,1.38777878078145E-16));
#307=DIRECTION('',(1.38777878078145E-16,6.12323399573677E-17,-1.));
#308=FACE_BOUND('',#309,.T.);
#309=EDGE_LOOP('',(#527,#528,#529,#530));
#310=PLANE('',#311);
#311=AXIS2_PLACEMENT_3D('',#312,#313,#314);
#312=CARTESIAN_POINT('',(5.25,7.25603228494807E-16,-11.85));
#313=DIRECTION('',(-1.,1.97215226305253E-32,-1.38777878078145E-16));
#314=DIRECTION('',(-1.38777878078145E-16,-6.12323399573677E-17,1.));
#315=FACE_BOUND('',#316,.T.);
#316=EDGE_LOOP('',(#531,#532,#533,#534));
#317=PLANE('',#318);
#318=AXIS2_PLACEMENT_3D('',#319,#320,#321);
#319=CARTESIAN_POINT('',(5.25,3.33716252767654E-16,-5.45));
#320=DIRECTION('',(1.69176841847643E-16,7.105427357601E-17,-1.));
#321=DIRECTION('',(-1.,9.39120125263109E-33,-1.69176841847643E-16));
#322=FACE_BOUND('',#323,.T.);
#323=EDGE_LOOP('',(#535,#536,#537,#538));
#324=PLANE('',#325);
#325=AXIS2_PLACEMENT_3D('',#326,#327,#328);
#326=CARTESIAN_POINT('',(5.25,-3.33716252767654E-16,5.45));
#327=DIRECTION('',(-1.,9.86076131526265E-33,-1.38777878078145E-16));
#328=DIRECTION('',(-1.38777878078145E-16,-6.12323399573677E-17,1.));
#329=FACE_BOUND('',#330,.T.);
#330=EDGE_LOOP('',(#539,#540,#541,#542));
#331=PLANE('',#332);
#332=AXIS2_PLACEMENT_3D('',#333,#334,#335);
#333=CARTESIAN_POINT('',(-5.25,-3.33716252767654E-16,5.45));
#334=DIRECTION('',(-1.69176841847643E-16,-7.105427357601E-17,1.));
#335=DIRECTION('',(1.,-9.39120125263109E-33,1.69176841847643E-16));
#336=FACE_BOUND('',#337,.T.);
#337=EDGE_LOOP('',(#543,#544,#545,#546));
#338=PLANE('',#339);
#339=AXIS2_PLACEMENT_3D('',#340,#341,#342);
#340=CARTESIAN_POINT('',(-5.25,-7.25603228494807E-16,11.85));
#341=DIRECTION('',(1.,0.,1.38777878078145E-16));
#342=DIRECTION('',(1.38777878078145E-16,6.12323399573677E-17,-1.));
#343=FACE_BOUND('',#344,.T.);
#344=EDGE_LOOP('',(#547,#548,#549,#550));
#345=PLANE('',#346);
#346=AXIS2_PLACEMENT_3D('',#347,#348,#349);
#347=CARTESIAN_POINT('',(7.44023807078639E-16,5.6843418860808E-16,9.85));
#348=DIRECTION('',(-1.8600595176966E-16,-1.4210854715202E-16,1.));
#349=DIRECTION('',(1.,-2.64330355676151E-32,1.8600595176966E-16));
#350=FACE_BOUND('',#351,.T.);
#351=EDGE_LOOP('',(#551));
#352=PLANE('',#353);
#353=AXIS2_PLACEMENT_3D('',#354,#355,#356);
#354=CARTESIAN_POINT('',(-17.55,4.94365484521272E-29,8.32759823420473E-16));
#355=DIRECTION('',(-1.,2.81689734769955E-30,-1.2246467991472E-16));
#356=DIRECTION('',(-2.80939854878624E-30,-1.,-6.12323399573677E-17));
#357=FACE_BOUND('',#358,.T.);
#358=EDGE_LOOP('',(#552));
#359=PLANE('',#360);
#360=AXIS2_PLACEMENT_3D('',#361,#362,#363);
#361=CARTESIAN_POINT('',(9.30029758848299E-16,7.105427357601E-16,8.85));
#362=DIRECTION('',(-1.8600595176966E-16,-1.4210854715202E-16,1.));
#363=DIRECTION('',(1.,-2.64330355676151E-32,1.8600595176966E-16));
#364=FACE_BOUND('',#365,.T.);
#365=EDGE_LOOP('',(#553));
#366=PLANE('',#367);
#367=AXIS2_PLACEMENT_3D('',#368,#369,#370);
#368=CARTESIAN_POINT('',(9.30029758848299E-16,7.105427357601E-16,8.85));
#369=DIRECTION('',(-1.8600595176966E-16,-1.4210854715202E-16,1.));
#370=DIRECTION('',(1.,-2.64330355676151E-32,1.8600595176966E-16));
#371=FACE_BOUND('',#372,.T.);
#372=EDGE_LOOP('',(#554));
#373=PLANE('',#374);
#374=AXIS2_PLACEMENT_3D('',#375,#376,#377);
#375=CARTESIAN_POINT('',(17.55,0.,8.327598234202E-16));
#376=DIRECTION('',(-1.,0.,1.22464679914735E-16));
#377=DIRECTION('',(-7.49879891330929E-33,-1.,-6.12323399573677E-17));
#378=FACE_BOUND('',#379,.T.);
#379=EDGE_LOOP('',(#555,#556,#557,#558));
#380=PLANE('',#381);
#381=AXIS2_PLACEMENT_3D('',#382,#383,#384);
#382=CARTESIAN_POINT('',(5.25,6.41588884048789,9.85000000000001));
#383=DIRECTION('',(5.56515629785545E-32,-1.,-1.64477485129653E-16));
#384=DIRECTION('',(-1.,0.,-3.38353683695286E-16));
#385=FACE_BOUND('',#386,.T.);
#386=EDGE_LOOP('',(#559,#560,#561,#562));
#387=CYLINDRICAL_SURFACE('',#388,1.);
#388=AXIS2_PLACEMENT_3D('',#389,#390,#391);
#389=CARTESIAN_POINT('',(23.35,4.26129614005457,10.14));
#390=DIRECTION('',(-1.48091441383931E-16,-3.70228603459827E-17,-1.));
#391=DIRECTION('',(0.28955853174603,0.957160308774389,-7.83179527717562E-17));
#392=FACE_BOUND('',#393,.T.);
#393=EDGE_LOOP('',(#563,#564,#565,#566));
#394=CYLINDRICAL_SURFACE('',#395,1.);
#395=AXIS2_PLACEMENT_3D('',#396,#397,#398);
#396=CARTESIAN_POINT('',(-23.35,4.26129614005456,10.14));
#397=DIRECTION('',(0.,7.40457206919654E-17,1.));
#398=DIRECTION('',(-0.289558531746029,0.957160308774389,-7.08736248809438E-17));
#399=ORIENTED_EDGE('',*,*,#567,.F.);
#400=ORIENTED_EDGE('',*,*,#568,.T.);
#401=ORIENTED_EDGE('',*,*,#569,.F.);
#402=ORIENTED_EDGE('',*,*,#570,.F.);
#403=ORIENTED_EDGE('',*,*,#571,.T.);
#404=ORIENTED_EDGE('',*,*,#572,.T.);
#405=ORIENTED_EDGE('',*,*,#573,.T.);
#406=ORIENTED_EDGE('',*,*,#574,.T.);
#407=ORIENTED_EDGE('',*,*,#573,.F.);
#408=ORIENTED_EDGE('',*,*,#575,.F.);
#409=ORIENTED_EDGE('',*,*,#576,.T.);
#410=ORIENTED_EDGE('',*,*,#577,.T.);
#411=ORIENTED_EDGE('',*,*,#578,.F.);
#412=ORIENTED_EDGE('',*,*,#579,.T.);
#413=ORIENTED_EDGE('',*,*,#580,.T.);
#414=ORIENTED_EDGE('',*,*,#581,.F.);
#415=ORIENTED_EDGE('',*,*,#568,.F.);
#416=ORIENTED_EDGE('',*,*,#582,.F.);
#417=ORIENTED_EDGE('',*,*,#583,.F.);
#418=ORIENTED_EDGE('',*,*,#584,.T.);
#419=ORIENTED_EDGE('',*,*,#585,.T.);
#420=ORIENTED_EDGE('',*,*,#586,.T.);
#421=ORIENTED_EDGE('',*,*,#570,.T.);
#422=ORIENTED_EDGE('',*,*,#587,.T.);
#423=ORIENTED_EDGE('',*,*,#588,.F.);
#424=ORIENTED_EDGE('',*,*,#571,.F.);
#425=ORIENTED_EDGE('',*,*,#586,.F.);
#426=ORIENTED_EDGE('',*,*,#589,.T.);
#427=ORIENTED_EDGE('',*,*,#590,.F.);
#428=ORIENTED_EDGE('',*,*,#591,.F.);
#429=ORIENTED_EDGE('',*,*,#592,.F.);
#430=ORIENTED_EDGE('',*,*,#593,.T.);
#431=ORIENTED_EDGE('',*,*,#572,.F.);
#432=ORIENTED_EDGE('',*,*,#588,.T.);
#433=ORIENTED_EDGE('',*,*,#594,.T.);
#434=ORIENTED_EDGE('',*,*,#574,.F.);
#435=ORIENTED_EDGE('',*,*,#577,.F.);
#436=ORIENTED_EDGE('',*,*,#595,.T.);
#437=ORIENTED_EDGE('',*,*,#596,.F.);
#438=ORIENTED_EDGE('',*,*,#597,.F.);
#439=ORIENTED_EDGE('',*,*,#598,.F.);
#440=ORIENTED_EDGE('',*,*,#599,.F.);
#441=ORIENTED_EDGE('',*,*,#600,.F.);
#442=ORIENTED_EDGE('',*,*,#599,.T.);
#443=ORIENTED_EDGE('',*,*,#601,.T.);
#444=ORIENTED_EDGE('',*,*,#602,.T.);
#445=ORIENTED_EDGE('',*,*,#578,.T.);
#446=ORIENTED_EDGE('',*,*,#603,.T.);
#447=ORIENTED_EDGE('',*,*,#604,.T.);
#448=ORIENTED_EDGE('',*,*,#602,.F.);
#449=ORIENTED_EDGE('',*,*,#605,.F.);
#450=ORIENTED_EDGE('',*,*,#606,.F.);
#451=ORIENTED_EDGE('',*,*,#607,.F.);
#452=ORIENTED_EDGE('',*,*,#608,.F.);
#453=ORIENTED_EDGE('',*,*,#579,.F.);
#454=ORIENTED_EDGE('',*,*,#609,.F.);
#455=ORIENTED_EDGE('',*,*,#610,.F.);
#456=ORIENTED_EDGE('',*,*,#580,.F.);
#457=ORIENTED_EDGE('',*,*,#608,.T.);
#458=ORIENTED_EDGE('',*,*,#611,.F.);
#459=ORIENTED_EDGE('',*,*,#589,.F.);
#460=ORIENTED_EDGE('',*,*,#585,.F.);
#461=ORIENTED_EDGE('',*,*,#612,.F.);
#462=ORIENTED_EDGE('',*,*,#594,.F.);
#463=ORIENTED_EDGE('',*,*,#587,.F.);
#464=ORIENTED_EDGE('',*,*,#613,.F.);
#465=ORIENTED_EDGE('',*,*,#595,.F.);
#466=ORIENTED_EDGE('',*,*,#576,.F.);
#467=ORIENTED_EDGE('',*,*,#582,.T.);
#468=ORIENTED_EDGE('',*,*,#614,.F.);
#469=ORIENTED_EDGE('',*,*,#583,.T.);
#470=ORIENTED_EDGE('',*,*,#615,.F.);
#471=ORIENTED_EDGE('',*,*,#611,.T.);
#472=ORIENTED_EDGE('',*,*,#616,.T.);
#473=ORIENTED_EDGE('',*,*,#617,.F.);
#474=ORIENTED_EDGE('',*,*,#590,.T.);
#475=ORIENTED_EDGE('',*,*,#618,.F.);
#476=ORIENTED_EDGE('',*,*,#619,.T.);
#477=ORIENTED_EDGE('',*,*,#620,.T.);
#478=ORIENTED_EDGE('',*,*,#621,.F.);
#479=ORIENTED_EDGE('',*,*,#591,.T.);
#480=ORIENTED_EDGE('',*,*,#617,.T.);
#481=ORIENTED_EDGE('',*,*,#622,.T.);
#482=ORIENTED_EDGE('',*,*,#623,.T.);
#483=ORIENTED_EDGE('',*,*,#613,.T.);
#484=ORIENTED_EDGE('',*,*,#592,.T.);
#485=ORIENTED_EDGE('',*,*,#621,.T.);
#486=ORIENTED_EDGE('',*,*,#624,.T.);
#487=ORIENTED_EDGE('',*,*,#596,.T.);
#488=ORIENTED_EDGE('',*,*,#624,.F.);
#489=ORIENTED_EDGE('',*,*,#620,.F.);
#490=ORIENTED_EDGE('',*,*,#625,.F.);
#491=ORIENTED_EDGE('',*,*,#626,.F.);
#492=ORIENTED_EDGE('',*,*,#627,.F.);
#493=ORIENTED_EDGE('',*,*,#622,.F.);
#494=ORIENTED_EDGE('',*,*,#616,.F.);
#495=ORIENTED_EDGE('',*,*,#607,.T.);
#496=ORIENTED_EDGE('',*,*,#628,.F.);
#497=ORIENTED_EDGE('',*,*,#615,.T.);
#498=ORIENTED_EDGE('',*,*,#614,.T.);
#499=ORIENTED_EDGE('',*,*,#629,.F.);
#500=ORIENTED_EDGE('',*,*,#630,.F.);
#501=ORIENTED_EDGE('',*,*,#631,.F.);
#502=ORIENTED_EDGE('',*,*,#632,.T.);
#503=ORIENTED_EDGE('',*,*,#597,.T.);
#504=ORIENTED_EDGE('',*,*,#628,.T.);
#505=ORIENTED_EDGE('',*,*,#606,.T.);
#506=ORIENTED_EDGE('',*,*,#633,.T.);
#507=ORIENTED_EDGE('',*,*,#598,.T.);
#508=ORIENTED_EDGE('',*,*,#633,.F.);
#509=ORIENTED_EDGE('',*,*,#605,.T.);
#510=ORIENTED_EDGE('',*,*,#601,.F.);
#511=ORIENTED_EDGE('',*,*,#634,.F.);
#512=ORIENTED_EDGE('',*,*,#600,.T.);
#513=ORIENTED_EDGE('',*,*,#603,.F.);
#514=ORIENTED_EDGE('',*,*,#635,.F.);
#515=ORIENTED_EDGE('',*,*,#604,.F.);
#516=ORIENTED_EDGE('',*,*,#636,.F.);
#517=ORIENTED_EDGE('',*,*,#609,.T.);
#518=ORIENTED_EDGE('',*,*,#637,.T.);
#519=ORIENTED_EDGE('',*,*,#618,.T.);
#520=ORIENTED_EDGE('',*,*,#638,.T.);
#521=ORIENTED_EDGE('',*,*,#639,.T.);
#522=ORIENTED_EDGE('',*,*,#640,.T.);
#523=ORIENTED_EDGE('',*,*,#640,.F.);
#524=ORIENTED_EDGE('',*,*,#641,.F.);
#525=ORIENTED_EDGE('',*,*,#625,.T.);
#526=ORIENTED_EDGE('',*,*,#619,.F.);
#527=ORIENTED_EDGE('',*,*,#638,.F.);
#528=ORIENTED_EDGE('',*,*,#623,.F.);
#529=ORIENTED_EDGE('',*,*,#627,.T.);
#530=ORIENTED_EDGE('',*,*,#642,.T.);
#531=ORIENTED_EDGE('',*,*,#639,.F.);
#532=ORIENTED_EDGE('',*,*,#642,.F.);
#533=ORIENTED_EDGE('',*,*,#626,.T.);
#534=ORIENTED_EDGE('',*,*,#641,.T.);
#535=ORIENTED_EDGE('',*,*,#643,.F.);
#536=ORIENTED_EDGE('',*,*,#644,.F.);
#537=ORIENTED_EDGE('',*,*,#629,.T.);
#538=ORIENTED_EDGE('',*,*,#645,.F.);
#539=ORIENTED_EDGE('',*,*,#646,.F.);
#540=ORIENTED_EDGE('',*,*,#647,.F.);
#541=ORIENTED_EDGE('',*,*,#630,.T.);
#542=ORIENTED_EDGE('',*,*,#644,.T.);
#543=ORIENTED_EDGE('',*,*,#648,.F.);
#544=ORIENTED_EDGE('',*,*,#649,.F.);
#545=ORIENTED_EDGE('',*,*,#631,.T.);
#546=ORIENTED_EDGE('',*,*,#647,.T.);
#547=ORIENTED_EDGE('',*,*,#650,.F.);
#548=ORIENTED_EDGE('',*,*,#645,.T.);
#549=ORIENTED_EDGE('',*,*,#632,.F.);
#550=ORIENTED_EDGE('',*,*,#649,.T.);
#551=ORIENTED_EDGE('',*,*,#634,.T.);
#552=ORIENTED_EDGE('',*,*,#635,.T.);
#553=ORIENTED_EDGE('',*,*,#636,.T.);
#554=ORIENTED_EDGE('',*,*,#637,.F.);
#555=ORIENTED_EDGE('',*,*,#648,.T.);
#556=ORIENTED_EDGE('',*,*,#646,.T.);
#557=ORIENTED_EDGE('',*,*,#643,.T.);
#558=ORIENTED_EDGE('',*,*,#650,.T.);
#559=ORIENTED_EDGE('',*,*,#584,.F.);
#560=ORIENTED_EDGE('',*,*,#569,.T.);
#561=ORIENTED_EDGE('',*,*,#581,.T.);
#562=ORIENTED_EDGE('',*,*,#610,.T.);
#563=ORIENTED_EDGE('',*,*,#593,.F.);
#564=ORIENTED_EDGE('',*,*,#612,.T.);
#565=ORIENTED_EDGE('',*,*,#575,.T.);
#566=ORIENTED_EDGE('',*,*,#567,.T.);
#567=EDGE_CURVE('',#651,#652,#653,.F.);
#568=EDGE_CURVE('',#651,#654,#655,.F.);
#569=EDGE_CURVE('',#656,#654,#657,.F.);
#570=EDGE_CURVE('',#658,#656,#659,.T.);
#571=EDGE_CURVE('',#658,#660,#661,.T.);
#572=EDGE_CURVE('',#660,#652,#662,.T.);
#573=EDGE_CURVE('',#663,#663,#664,.T.);
#574=EDGE_CURVE('',#665,#665,#666,.T.);
#575=EDGE_CURVE('',#667,#651,#668,.T.);
#576=EDGE_CURVE('',#667,#669,#670,.F.);
#577=EDGE_CURVE('',#669,#671,#672,.F.);
#578=EDGE_CURVE('',#673,#671,#674,.T.);
#579=EDGE_CURVE('',#673,#675,#676,.T.);
#580=EDGE_CURVE('',#675,#677,#678,.F.);
#581=EDGE_CURVE('',#654,#677,#679,.F.);
#582=EDGE_CURVE('',#680,#680,#681,.T.);
#583=EDGE_CURVE('',#682,#682,#683,.T.);
#584=EDGE_CURVE('',#656,#684,#685,.F.);
#585=EDGE_CURVE('',#684,#686,#687,.F.);
#586=EDGE_CURVE('',#686,#658,#688,.T.);
#587=EDGE_CURVE('',#689,#690,#691,.T.);
#588=EDGE_CURVE('',#660,#690,#692,.T.);
#589=EDGE_CURVE('',#686,#693,#694,.T.);
#590=EDGE_CURVE('',#695,#693,#696,.T.);
#591=EDGE_CURVE('',#697,#695,#698,.T.);
#592=EDGE_CURVE('',#689,#697,#699,.T.);
#593=EDGE_CURVE('',#700,#652,#701,.T.);
#594=EDGE_CURVE('',#690,#700,#702,.F.);
#595=EDGE_CURVE('',#669,#703,#704,.T.);
#596=EDGE_CURVE('',#705,#703,#706,.T.);
#597=EDGE_CURVE('',#707,#705,#708,.F.);
#598=EDGE_CURVE('',#709,#707,#710,.T.);
#599=EDGE_CURVE('',#671,#709,#711,.F.);
#600=EDGE_CURVE('',#712,#712,#713,.T.);
#601=EDGE_CURVE('',#709,#714,#715,.T.);
#602=EDGE_CURVE('',#714,#673,#716,.F.);
#603=EDGE_CURVE('',#717,#717,#718,.F.);
#604=EDGE_CURVE('',#719,#719,#720,.F.);
#605=EDGE_CURVE('',#721,#714,#722,.T.);
#606=EDGE_CURVE('',#723,#721,#724,.F.);
#607=EDGE_CURVE('',#725,#723,#726,.T.);
#608=EDGE_CURVE('',#675,#725,#727,.T.);
#609=EDGE_CURVE('',#728,#728,#729,.F.);
#610=EDGE_CURVE('',#677,#684,#730,.F.);
#611=EDGE_CURVE('',#693,#725,#731,.F.);
#612=EDGE_CURVE('',#700,#667,#732,.F.);
#613=EDGE_CURVE('',#703,#689,#733,.F.);
#614=EDGE_CURVE('',#734,#734,#735,.T.);
#615=EDGE_CURVE('',#736,#736,#737,.T.);
#616=EDGE_CURVE('',#725,#738,#739,.F.);
#617=EDGE_CURVE('',#695,#738,#740,.T.);
#618=EDGE_CURVE('',#741,#742,#743,.T.);
#619=EDGE_CURVE('',#741,#744,#745,.F.);
#620=EDGE_CURVE('',#744,#746,#747,.F.);
#621=EDGE_CURVE('',#697,#746,#748,.T.);
#622=EDGE_CURVE('',#738,#749,#750,.F.);
#623=EDGE_CURVE('',#749,#742,#751,.F.);
#624=EDGE_CURVE('',#746,#703,#752,.F.);
#625=EDGE_CURVE('',#753,#744,#754,.T.);
#626=EDGE_CURVE('',#755,#753,#756,.T.);
#627=EDGE_CURVE('',#749,#755,#757,.T.);
#628=EDGE_CURVE('',#705,#723,#758,.F.);
#629=EDGE_CURVE('',#759,#760,#761,.T.);
#630=EDGE_CURVE('',#762,#759,#763,.T.);
#631=EDGE_CURVE('',#764,#762,#765,.T.);
#632=EDGE_CURVE('',#764,#760,#766,.T.);
#633=EDGE_CURVE('',#721,#707,#767,.T.);
#634=EDGE_CURVE('',#768,#768,#769,.T.);
#635=EDGE_CURVE('',#770,#770,#771,.T.);
#636=EDGE_CURVE('',#772,#772,#773,.T.);
#637=EDGE_CURVE('',#774,#774,#775,.T.);
#638=EDGE_CURVE('',#742,#776,#777,.F.);
#639=EDGE_CURVE('',#776,#778,#779,.F.);
#640=EDGE_CURVE('',#778,#741,#780,.F.);
#641=EDGE_CURVE('',#753,#778,#781,.T.);
#642=EDGE_CURVE('',#755,#776,#782,.T.);
#643=EDGE_CURVE('',#783,#784,#785,.T.);
#644=EDGE_CURVE('',#759,#783,#786,.T.);
#645=EDGE_CURVE('',#784,#760,#787,.F.);
#646=EDGE_CURVE('',#788,#783,#789,.T.);
#647=EDGE_CURVE('',#762,#788,#790,.T.);
#648=EDGE_CURVE('',#791,#788,#792,.T.);
#649=EDGE_CURVE('',#764,#791,#793,.F.);
#650=EDGE_CURVE('',#784,#791,#794,.F.);
#651=VERTEX_POINT('',#795);
#652=VERTEX_POINT('',#796);
#653=CIRCLE('',#797,1.00000000000001);
#654=VERTEX_POINT('',#801);
#655=CIRCLE('',#802,81.64);
#656=VERTEX_POINT('',#806);
#657=CIRCLE('',#807,1.);
#658=VERTEX_POINT('',#811);
#659=LINE('',#812,#813);
#660=VERTEX_POINT('',#815);
#661=LINE('',#816,#817);
#662=LINE('',#819,#820);
#663=VERTEX_POINT('',#822);
#664=CIRCLE('',#823,1.65);
#665=VERTEX_POINT('',#827);
#666=CIRCLE('',#828,1.65);
#667=VERTEX_POINT('',#832);
#668=LINE('',#833,#834);
#669=VERTEX_POINT('',#836);
#670=CIRCLE('',#837,81.64);
#671=VERTEX_POINT('',#841);
#672=LINE('',#842,#843);
#673=VERTEX_POINT('',#845);
#674=CIRCLE('',#846,81.64);
#675=VERTEX_POINT('',#850);
#676=LINE('',#851,#852);
#677=VERTEX_POINT('',#854);
#678=CIRCLE('',#855,81.64);
#679=LINE('',#859,#860);
#680=VERTEX_POINT('',#862);
#681=B_SPLINE_CURVE_WITH_KNOTS('',3,
(#863,#864,#865,#866,#867,#868,#869,#870,#871,#872,#873,#874,#875,#876,#877,#878,
#879,#880,#881,#882,#883,#884,#885,#886,#887,#888,#889,#890,#891,#892,#893,#894,
#895,#896,#897,#898,#899,#900,#901,#902,#903,#904,#905,#906,#907,#908,#909,#910,
#911,#912,#913,#914,#915,#916,#917,#918,#919,#920,#921,#922,#923,#924,#925,#926,
#927,#928,#929,#930,#931,#932,#933,#934,#935,#936,#937,#938,#939,#940,#941,#942,
#943,#944,#945,#946,#947,#948,#949,#950,#951,#952,#953,#954,#955,#956,#957,#958,
#959,#960,#961,#962,#963,#964,#965,#966,#967,#968,#969,#970,#971,#972,#973,#974,
#975,#976,#977,#978,#979,#980,#981,#982,#983,#984,#985,#986,#987,#988,#989,#990,
#991,#992,#993,#994,#995,#996,#997,#998,#999,#1000,#1001,#1002,#1003,#1004,#1005,
#1006,#1007,#1008,#1009,#1010,#1011,#1012,#1013,#1014,#1015,#1016,#1017,#1018,#1019,
#1020,#1021,#1022,#1023,#1024,#1025,#1026,#1027,#1028,#1029,#1030,#1031,#1032,#1033,
#1034,#1035,#1036,#1037,#1038,#1039,#1040,#1041,#1042,#1043,#1044,#1045,#1046,#1047,
#1048,#1049,#1050,#1051,#1052,#1053,#1054,#1055,#1056,#1057,#1058,#1059,#1060,#1061,
#1062,#1063,#1064,#1065,#1066,#1067,#1068,#1069,#1070,#1071,#1072,#1073,#1074,#1075,
#1076,#1077,#1078,#1079,#1080,#1081,#1082,#1083,#1084,#1085,#1086,#1087),
.UNSPECIFIED.,.T.,.F.,
(4,1,1,1,1,1,1,1,1,1,1,1,1,1,1,1,1,1,1,1,1,1,1,1,1,1,1,1,1,1,1,1,1,1,1,1,1,1,1,1,
1,1,1,1,1,1,1,1,1,1,1,1,1,1,1,1,1,1,1,1,1,1,1,1,1,1,1,1,1,1,1,1,1,1,1,1,1,1,1,1,
1,1,1,1,1,1,1,1,1,1,1,1,1,1,1,1,1,1,1,1,1,1,1,1,1,1,1,1,1,1,1,1,1,1,1,1,1,1,1,1,
1,1,1,1,1,1,1,1,1,1,1,1,1,1,1,1,1,1,1,1,1,1,1,1,1,1,1,1,1,1,1,1,1,1,1,1,1,1,1,1,
1,1,1,1,1,1,1,1,1,1,1,1,1,1,1,1,1,1,1,1,1,1,1,1,1,1,1,1,1,1,1,1,1,1,1,1,1,1,1,1,
1,1,1,1,1,1,1,1,1,1,1,1,1,1,1,1,1,1,1,1,1,1,4),
(0.,0.00638050502841086,0.0123466815037445,0.0178900463508565,0.0226029734356978,
0.0269125527051471,0.030821166512053,0.0347347081742062,0.0386438773745818,0.042547012973872,
0.0464340510689853,0.0503090516685699,0.0553840284960058,0.0603990751571348,0.0653641677119382,
0.0690415252595246,0.0726988174386754,0.076335757748323,0.0799730368094499,0.0840698821111283,
0.0886231785118329,0.0953886533204019,0.10224511750088,0.109201589431053,0.114083994872549,
0.118559175001022,0.122637496776986,0.126717738274292,0.130825923356106,0.134960148843343,
0.139156700071078,0.143388741968448,0.148225219518394,0.15363024099576,0.160139255579277,
0.167190944633402,0.174766836326439,0.182335461873626,0.189350823853478,0.195808682240564,
0.202492483131891,0.20983385257465,0.216821428506729,0.222695698495955,0.227890463943563,
0.233400132388451,0.239179004278146,0.24491900391546,0.250193585491706,0.250882084210521,
0.255043097282577,0.259113836990049,0.262824679800463,0.266177446635628,0.269533492858369,
0.272900013761251,0.276273395855308,0.280797739352283,0.285363066832554,0.289965962363897,
0.293494479285627,0.297051402196274,0.300697085666208,0.304400556841451,0.308184055507737,
0.311989321066033,0.316511590707001,0.321734819476279,0.32980027703379,0.338030357858774,
0.346442545991695,0.352265053949163,0.357469621524995,0.362034701016726,0.366570561028764,
0.370979738989111,0.375291285401643,0.379452630337072,0.383553245107541,0.387589855079052,
0.391624984397809,0.395717328212808,0.399875954417118,0.404771319826068,0.410336469395682,
0.418612255907142,0.426860145792686,0.435062324956788,0.440479697492647,0.445190750274893,
0.449110045746859,0.452944322478566,0.456552439000046,0.460017626961845,0.463270139815966,
0.466454519550961,0.469849055896363,0.473519899792915,0.478855712591941,0.484257200974661,
0.489717917416633,0.493542735693744,0.497059630050962,0.499999606892243,0.50027526963921,
0.503498502846992,0.506727693496697,0.509954562939975,0.513173358624931,0.516389143186152,
0.519585041415958,0.522764714900373,0.525913573321171,0.529047598974881,0.532129616995397,
0.535176261540345,0.53816622441161,0.5411343750025,0.54404284840945,0.546913755396001,
0.549733124107074,0.55253717665178,0.555391679666827,0.558310355467617,0.561365705227714,
0.564494516990552,0.568088777656,0.572072552231247,0.577796698372441,0.583407332450277,
0.588896786928126,0.592431867832694,0.595482228314328,0.597941218643834,0.600294500825209,
0.602662949769983,0.605152655951181,0.608874029145912,0.612835600897671,0.61704187915962,
0.620314175942356,0.623518801111627,0.626689678922288,0.629893767589691,0.633210466009477,
0.63660811652596,0.640125202097649,0.64368219986837,0.647638828119013,0.651953094363635,
0.658153430750604,0.664315338128403,0.670429218413985,0.674673542160239,0.678616464495957,
0.682293230170974,0.686007126498919,0.689810136200488,0.693665822052405,0.697595980082754,
0.701544611838898,0.705553094244905,0.709602152394726,0.713724006177946,0.717880368564082,
0.72259939129882,0.727846552501887,0.735569118048738,0.743320895886742,0.749113866505594,
0.751086847501729,0.756420420131632,0.761251004336927,0.76697821443665,0.772622012395475,
0.778193801039683,0.782239018246912,0.786237086966457,0.790113080874177,0.793916762798749,
0.797623590310836,0.801304236641775,0.80503792950508,0.80884995238648,0.812852905204328,
0.816971237268991,0.821437712417679,0.826137584291132,0.831193156539688,0.836377915702738,
0.841843141332525,0.847457404852556,0.855198806444077,0.862891305243065,0.870521567789117,
0.877769369433001,0.88470664761498,0.891327620259984,0.895904916673572,0.900394681452565,
0.904708336348634,0.908932803645081,0.91447082770118,0.920016930993644,0.925564643016694,
0.929708911723391,0.933849401282791,0.937960202137276,0.942045946768079,0.94608802447439,
0.950112532768743,0.955329666068464,0.961644075210058,0.967742267135075,0.972431904638587,
0.975782247756964,0.979095879320094,0.982296056416591,0.985418449674144,0.98940939586925,
0.993329108182753,0.997174412922398,1.),
.UNSPECIFIED.);
#682=VERTEX_POINT('',#1088);
#683=B_SPLINE_CURVE_WITH_KNOTS('',3,
(#1089,#1090,#1091,#1092,#1093,#1094,#1095,#1096,#1097,#1098,#1099,#1100,#1101,#1102,
#1103,#1104,#1105,#1106,#1107,#1108,#1109,#1110,#1111,#1112,#1113,#1114,#1115,#1116,
#1117,#1118,#1119,#1120,#1121,#1122,#1123,#1124,#1125,#1126,#1127,#1128,#1129,#1130,
#1131,#1132,#1133,#1134,#1135,#1136,#1137,#1138,#1139,#1140,#1141,#1142,#1143,#1144,
#1145,#1146,#1147,#1148,#1149,#1150,#1151,#1152,#1153,#1154,#1155,#1156,#1157,#1158,
#1159,#1160,#1161),
.UNSPECIFIED.,.T.,.F.,
(4,1,1,1,1,1,1,1,1,1,1,1,1,1,1,1,1,1,1,1,1,1,1,1,1,1,1,1,1,1,1,1,1,1,1,1,1,1,1,1,
1,1,1,1,1,1,1,1,1,1,1,1,1,1,1,1,1,1,1,1,1,1,1,1,1,1,1,1,1,1,4),
(0.,0.0157894186712121,0.0307161803170576,0.0447851728306909,0.0571471767834923,
0.0686444859050552,0.0820162360300527,0.095151019186649,0.108031837920175,0.118110595048541,
0.128351169291342,0.139087456382082,0.150153962439409,0.161709612595633,0.17343791527083,
0.185815810611039,0.198692148872525,0.211689611983061,0.224307825198603,0.237334012417369,
0.24911560686896,0.251132684734097,0.269265982348967,0.288048979681864,0.307485056024619,
0.323278519299863,0.338341762116744,0.353034585253482,0.368083506919371,0.387030537903112,
0.405847479289165,0.424533812189329,0.43954760837377,0.454560905764391,0.469640905773382,
0.484786348692636,0.499999228629372,0.503464332126067,0.522004112361754,0.540409067724475,
0.5552862378904,0.570239395243569,0.585451492039585,0.600846727149129,0.615597587333383,
0.629521035233019,0.643266560878243,0.657655073744123,0.673354366130673,0.689718178247306,
0.70644109206018,0.722856542795823,0.738515527300719,0.750879953486426,0.753725973633877,
0.768014664304027,0.781827313902657,0.796356073218305,0.812085545451304,0.828384842304435,
0.844054552908852,0.858477760485565,0.872285550120425,0.88769507043084,0.90530664789298,
0.925118230640536,0.942488031052909,0.957410334406278,0.970744539967354,0.984945403712246,
1.),
.UNSPECIFIED.);
#684=VERTEX_POINT('',#1162);
#685=LINE('',#1163,#1164);
#686=VERTEX_POINT('',#1166);
#687=LINE('',#1167,#1168);
#688=LINE('',#1170,#1171);
#689=VERTEX_POINT('',#1173);
#690=VERTEX_POINT('',#1174);
#691=LINE('',#1175,#1176);
#692=LINE('',#1178,#1179);
#693=VERTEX_POINT('',#1181);
#694=LINE('',#1182,#1183);
#695=VERTEX_POINT('',#1185);
#696=LINE('',#1186,#1187);
#697=VERTEX_POINT('',#1189);
#698=LINE('',#1190,#1191);
#699=LINE('',#1193,#1194);
#700=VERTEX_POINT('',#1196);
#701=LINE('',#1197,#1198);
#702=LINE('',#1200,#1201);
#703=VERTEX_POINT('',#1203);
#704=LINE('',#1204,#1205);
#705=VERTEX_POINT('',#1207);
#706=LINE('',#1208,#1209);
#707=VERTEX_POINT('',#1211);
#708=LINE('',#1212,#1213);
#709=VERTEX_POINT('',#1215);
#710=LINE('',#1216,#1217);
#711=LINE('',#1219,#1220);
#712=VERTEX_POINT('',#1222);
#713=CIRCLE('',#1223,1.65);
#714=VERTEX_POINT('',#1227);
#715=LINE('',#1228,#1229);
#716=LINE('',#1231,#1232);
#717=VERTEX_POINT('',#1234);
#718=CIRCLE('',#1235,2.);
#719=VERTEX_POINT('',#1239);
#720=CIRCLE('',#1240,2.);
#721=VERTEX_POINT('',#1244);
#722=LINE('',#1245,#1246);
#723=VERTEX_POINT('',#1248);
#724=LINE('',#1249,#1250);
#725=VERTEX_POINT('',#1252);
#726=LINE('',#1253,#1254);
#727=LINE('',#1256,#1257);
#728=VERTEX_POINT('',#1259);
#729=CIRCLE('',#1260,1.65);
#730=CIRCLE('',#1264,0.999999999999994);
#731=LINE('',#1268,#1269);
#732=CIRCLE('',#1271,1.);
#733=LINE('',#1275,#1276);
#734=VERTEX_POINT('',#1278);
#735=CIRCLE('',#1279,8.14);
#736=VERTEX_POINT('',#1283);
#737=CIRCLE('',#1284,8.14);
#738=VERTEX_POINT('',#1288);
#739=LINE('',#1289,#1290);
#740=LINE('',#1292,#1293);
#741=VERTEX_POINT('',#1295);
#742=VERTEX_POINT('',#1296);
#743=LINE('',#1297,#1298);
#744=VERTEX_POINT('',#1300);
#745=LINE('',#1301,#1302);
#746=VERTEX_POINT('',#1304);
#747=LINE('',#1305,#1306);
#748=LINE('',#1308,#1309);
#749=VERTEX_POINT('',#1311);
#750=LINE('',#1312,#1313);
#751=LINE('',#1315,#1316);
#752=LINE('',#1318,#1319);
#753=VERTEX_POINT('',#1321);
#754=LINE('',#1322,#1323);
#755=VERTEX_POINT('',#1325);
#756=LINE('',#1326,#1327);
#757=LINE('',#1329,#1330);
#758=LINE('',#1332,#1333);
#759=VERTEX_POINT('',#1335);
#760=VERTEX_POINT('',#1336);
#761=LINE('',#1337,#1338);
#762=VERTEX_POINT('',#1340);
#763=LINE('',#1341,#1342);
#764=VERTEX_POINT('',#1344);
#765=LINE('',#1345,#1346);
#766=LINE('',#1348,#1349);
#767=LINE('',#1351,#1352);
#768=VERTEX_POINT('',#1354);
#769=CIRCLE('',#1355,1.65);
#770=VERTEX_POINT('',#1359);
#771=CIRCLE('',#1360,2.);
#772=VERTEX_POINT('',#1364);
#773=CIRCLE('',#1365,2.);
#774=VERTEX_POINT('',#1369);
#775=CIRCLE('',#1370,1.65);
#776=VERTEX_POINT('',#1374);
#777=LINE('',#1375,#1376);
#778=VERTEX_POINT('',#1378);
#779=LINE('',#1379,#1380);
#780=LINE('',#1382,#1383);
#781=LINE('',#1385,#1386);
#782=LINE('',#1388,#1389);
#783=VERTEX_POINT('',#1391);
#784=VERTEX_POINT('',#1392);
#785=LINE('',#1393,#1394);
#786=LINE('',#1396,#1397);
#787=LINE('',#1399,#1400);
#788=VERTEX_POINT('',#1402);
#789=LINE('',#1403,#1404);
#790=LINE('',#1406,#1407);
#791=VERTEX_POINT('',#1409);
#792=LINE('',#1410,#1411);
#793=LINE('',#1413,#1414);
#794=LINE('',#1416,#1417);
#795=CARTESIAN_POINT('',(-23.6395585317461,5.21845644882893,-11.85));
#796=CARTESIAN_POINT('',(-24.35,4.26129614005456,-11.85));
#797=AXIS2_PLACEMENT_3D('',#798,#799,#800);
#798=CARTESIAN_POINT('',(-23.35,4.26129614005456,-11.85));
#799=DIRECTION('',(1.8600595176966E-16,0.,-1.));
#800=DIRECTION('',(-1.,0.,-1.8600595176966E-16));
#801=CARTESIAN_POINT('',(23.639558531746,5.21845644882896,-11.85));
#802=AXIS2_PLACEMENT_3D('',#803,#804,#805);
#803=CARTESIAN_POINT('',(3.5527136788005E-15,-72.9241111595121,-11.85));
#804=DIRECTION('',(-1.8600595176966E-16,-6.16297582203915E-33,1.));
#805=DIRECTION('',(0.289558531746032,0.957160308774388,5.38596102904459E-17));
#806=CARTESIAN_POINT('',(24.35,4.26129614005456,-11.85));
#807=AXIS2_PLACEMENT_3D('',#808,#809,#810);
#808=CARTESIAN_POINT('',(23.35,4.26129614005457,-11.85));
#809=DIRECTION('',(1.8600595176966E-16,0.,-1.));
#810=DIRECTION('',(0.28955853174602,0.957160308774392,5.38596102904437E-17));
#811=CARTESIAN_POINT('',(24.35,-2.,-11.85));
#812=CARTESIAN_POINT('',(24.35,-2.,-11.85));
#813=VECTOR('',#814,1.);
#814=DIRECTION('',(0.,1.,0.));
#815=CARTESIAN_POINT('',(-24.35,-2.,-11.85));
#816=CARTESIAN_POINT('',(24.35,-2.,-11.85));
#817=VECTOR('',#818,1.);
#818=DIRECTION('',(-1.,0.,-1.45901999129384E-16));
#819=CARTESIAN_POINT('',(-24.35,-2.,-11.85));
#820=VECTOR('',#821,1.);
#821=DIRECTION('',(0.,1.,0.));
#822=CARTESIAN_POINT('',(1.64999999999994,6.16588884048789,-11.85));
#823=AXIS2_PLACEMENT_3D('',#824,#825,#826);
#824=CARTESIAN_POINT('',(-6.3948846218409E-14,6.16588884048789,-11.85));
#825=DIRECTION('',(-1.8600595176966E-16,0.,1.));
#826=DIRECTION('',(1.,-2.73691106313441E-48,1.8600595176966E-16));
#827=CARTESIAN_POINT('',(1.64999999999993,6.16588884048789,-6.85));
#828=AXIS2_PLACEMENT_3D('',#829,#830,#831);
#829=CARTESIAN_POINT('',(-6.50633856877608E-14,6.16588884048789,-6.85));
#830=DIRECTION('',(-3.08470631684395E-16,3.03858167864314E-64,1.));
#831=DIRECTION('',(1.,9.37313209835678E-80,3.08470631684395E-16));
#832=CARTESIAN_POINT('',(-23.639558531746,5.21845644882895,8.14));
#833=CARTESIAN_POINT('',(-23.639558531746,5.21845644882895,8.14));
#834=VECTOR('',#835,1.);
#835=DIRECTION('',(1.77724546213132E-16,0.,-1.));
#836=CARTESIAN_POINT('',(-22.55,5.53981112327975,8.14));
#837=AXIS2_PLACEMENT_3D('',#838,#839,#840);
#838=CARTESIAN_POINT('',(0.,-72.9241111595121,8.13999999999998));
#839=DIRECTION('',(9.86864910777913E-16,-4.93038065763132E-32,1.));
#840=DIRECTION('',(-0.276212640862322,0.961096549274765,2.72584563180327E-16));
#841=CARTESIAN_POINT('',(-22.55,5.53981112327974,13.85));
#842=CARTESIAN_POINT('',(-22.55,5.53981112327975,13.85));
#843=VECTOR('',#844,1.);
#844=DIRECTION('',(0.,0.,-1.));
#845=CARTESIAN_POINT('',(22.55,5.53981112327974,13.85));
#846=AXIS2_PLACEMENT_3D('',#847,#848,#849);
#847=CARTESIAN_POINT('',(2.66453525910038E-15,-72.9241111595121,13.85));
#848=DIRECTION('',(-1.8600595176966E-16,-1.4210854715202E-16,1.));
#849=DIRECTION('',(0.276212640862322,0.961096549274765,1.87957229444664E-16));
#850=CARTESIAN_POINT('',(22.55,5.53981112327974,8.14));
#851=CARTESIAN_POINT('',(22.55,5.53981112327975,13.85));
#852=VECTOR('',#853,1.);
#853=DIRECTION('',(0.,0.,-1.));
#854=CARTESIAN_POINT('',(23.639558531746,5.21845644882896,8.14));
#855=AXIS2_PLACEMENT_3D('',#856,#857,#858);
#856=CARTESIAN_POINT('',(0.,-72.9241111595121,8.13999999999998));
#857=DIRECTION('',(-9.86864910777913E-16,4.93038065763132E-32,1.));
#858=DIRECTION('',(0.289558531746032,0.957160308774388,2.85755154596531E-16));
#859=CARTESIAN_POINT('',(23.639558531746,5.21845644882896,8.14));
#860=VECTOR('',#861,1.);
#861=DIRECTION('',(1.77724546213132E-16,0.,-1.));
#862=CARTESIAN_POINT('',(-21.14,5.93138959979091,-3.22257296350946E-15));
#863=CARTESIAN_POINT('',(-21.1399999999993,5.93138959978971,-1.39602773785441E-11));
#864=CARTESIAN_POINT('',(-21.1399999324353,5.93138963371623,0.109545756515782));
#865=CARTESIAN_POINT('',(-21.1357201019125,5.93253716901899,0.321535932698195));
#866=CARTESIAN_POINT('',(-21.1175277104343,5.93741184255463,0.628209100468514));
#867=CARTESIAN_POINT('',(-21.0909233362888,5.94453198795448,0.905459859948573));
#868=CARTESIAN_POINT('',(-21.0589831470474,5.95306691048518,1.15342228860284));
#869=CARTESIAN_POINT('',(-21.0243701353019,5.96230034317819,1.37259017484063));
#870=CARTESIAN_POINT('',(-20.9865794352834,5.97236293604665,1.57722719060492));
#871=CARTESIAN_POINT('',(-20.9451711292081,5.98336688190282,1.77407561241829));
#872=CARTESIAN_POINT('',(-20.8989507147432,5.995622114329,1.96967505613948));
#873=CARTESIAN_POINT('',(-20.8480553197568,6.00908336368238,2.16355793360672));
#874=CARTESIAN_POINT('',(-20.7925942662725,6.02371217353358,2.35548764025216));
#875=CARTESIAN_POINT('',(-20.7264373953149,6.041110472329,2.56504751537961));
#876=CARTESIAN_POINT('',(-20.6480998945348,6.06163676316441,2.7907896259836));
#877=CARTESIAN_POINT('',(-20.5560133496044,6.08565497903471,3.03118573824666));
#878=CARTESIAN_POINT('',(-20.4657273057812,6.10908723970798,3.24637915117479));
#879=CARTESIAN_POINT('',(-20.3792361370482,6.13142988972295,3.43776544442013));
#880=CARTESIAN_POINT('',(-20.2982102965621,6.15227399322661,3.60656928635961));
#881=CARTESIAN_POINT('',(-20.2136909781954,6.1739225507771,3.77277109937521));
#882=CARTESIAN_POINT('',(-20.1218950917307,6.19732828512874,3.94350812304344));
#883=CARTESIAN_POINT('',(-20.0183098094381,6.22360707839785,4.12543599302621));
#884=CARTESIAN_POINT('',(-19.882294962632,6.25790900666788,4.34992061076274));
#885=CARTESIAN_POINT('',(-19.7127682317834,6.30031714851514,4.608533182654));
#886=CARTESIAN_POINT('',(-19.5087236574634,6.35082242979115,4.8925867093777));
#887=CARTESIAN_POINT('',(-19.312558358348,6.39882253150917,5.14215764464746));
#888=CARTESIAN_POINT('',(-19.1335946946828,6.44215261419811,5.35327144144809));
#889=CARTESIAN_POINT('',(-18.9812729753551,6.47871354519673,5.5226577663325));
#890=CARTESIAN_POINT('',(-18.8339168906934,6.51379249283516,5.67796991990265));
#891=CARTESIAN_POINT('',(-18.6871129216249,6.54845770039613,5.82501227393394));
#892=CARTESIAN_POINT('',(-18.5359779216038,6.58384691231665,5.96884817869512));
#893=CARTESIAN_POINT('',(-18.3797968897417,6.62009986219134,6.11001546234552));
#894=CARTESIAN_POINT('',(-18.2184720491308,6.65720779048334,6.24839127414989));
#895=CARTESIAN_POINT('',(-18.044412743408,6.69686707746079,6.38992652033021));
#896=CARTESIAN_POINT('',(-17.8502751122442,6.74063940609475,6.5388783363827));
#897=CARTESIAN_POINT('',(-17.6202939133236,6.79186228011311,6.70395151429724));
#898=CARTESIAN_POINT('',(-17.3532336715726,6.85047296623193,6.88101195718345));
#899=CARTESIAN_POINT('',(-17.0476474677078,6.91637541007355,7.06554490864431));
#900=CARTESIAN_POINT('',(-16.7183292404459,6.98601076435832,7.24449152624915));
#901=CARTESIAN_POINT('',(-16.3815372829927,7.05572459230553,7.40744835005087));
#902=CARTESIAN_POINT('',(-16.055049531224,7.12187403357516,7.54752295531585));
#903=CARTESIAN_POINT('',(-15.7369057628567,7.18502326343933,7.66849955255199));
#904=CARTESIAN_POINT('',(-15.4087818963456,7.2488198185924,7.77814200873233));
#905=CARTESIAN_POINT('',(-15.0674592818438,7.31368481476104,7.87586131353486));
#906=CARTESIAN_POINT('',(-14.7352974150247,7.37530190964764,7.95511702386473));
#907=CARTESIAN_POINT('',(-14.4357252543452,7.42964280002481,8.01402552189153));
#908=CARTESIAN_POINT('',(-14.1588716526185,7.47887884916886,8.05861143181109));
#909=CARTESIAN_POINT('',(-13.8821661416422,7.52713451801761,8.09374851385195));
#910=CARTESIAN_POINT('',(-13.5950677779819,7.57615548977078,8.11997715611765));
#911=CARTESIAN_POINT('',(-13.3110398253614,7.62359293358152,8.13566152407752));
#912=CARTESIAN_POINT('',(-13.1127463375645,7.65600360769773,8.13978262048136));
#913=CARTESIAN_POINT('',(-12.9411404256252,7.68372079926883,8.1401516885265));
#914=CARTESIAN_POINT('',(-12.7899021665122,7.70791088711377,8.13818630668654));
#915=CARTESIAN_POINT('',(-12.5874696377866,7.73975047584553,8.13034446221734));
#916=CARTESIAN_POINT('',(-12.3988953552361,7.76893672378997,8.11843967556454));
#917=CARTESIAN_POINT('',(-12.2226498852262,7.79581385407827,8.10339793946717));
#918=CARTESIAN_POINT('',(-12.0525097588513,7.82139317512397,8.08527307509548));
#919=CARTESIAN_POINT('',(-11.8823789144357,7.84660464519186,8.06352027754742));
#920=CARTESIAN_POINT('',(-11.6930445820996,7.87425432589145,8.03523982402025));
#921=CARTESIAN_POINT('',(-11.4842965244297,7.90421424622702,7.99876028984003));
#922=CARTESIAN_POINT('',(-11.2560719642593,7.9363130302011,7.95214234664656));
#923=CARTESIAN_POINT('',(-11.0456699735845,7.96529870762888,7.90282543974928));
#924=CARTESIAN_POINT('',(-10.8531246941438,7.99133624560609,7.85248026579398));
#925=CARTESIAN_POINT('',(-10.6773541462795,8.0147192329021,7.80232075548424));
#926=CARTESIAN_POINT('',(-10.4998497462968,8.03793916389072,7.74729722725726));
#927=CARTESIAN_POINT('',(-10.3199343471905,8.06107039181474,7.68694143049614));
#928=CARTESIAN_POINT('',(-10.1388612517473,8.08393954321327,7.6214204212521));
#929=CARTESIAN_POINT('',(-9.94631620203913,8.10781871507619,7.54650869817261));
#930=CARTESIAN_POINT('',(-9.73305846069491,8.13373795527925,7.45704249718184));
#931=CARTESIAN_POINT('',(-9.45635835797148,8.16657506515734,7.33085401877569));
#932=CARTESIAN_POINT('',(-9.12847142608046,8.20422083319706,7.16442928399327));
#933=CARTESIAN_POINT('',(-8.76204670042114,8.24460821816745,6.95414358682978));
#934=CARTESIAN_POINT('',(-8.43916157030524,8.27872760328848,6.74561663016812));
#935=CARTESIAN_POINT('',(-8.16805778535438,8.306362703647,6.55276142937609));
#936=CARTESIAN_POINT('',(-7.95604923853419,8.32737444588267,6.39055375674627));
#937=CARTESIAN_POINT('',(-7.76616431320263,8.34572997714485,6.23576660104476));
#938=CARTESIAN_POINT('',(-7.59106370216652,8.36226696434249,6.08445726756252));
#939=CARTESIAN_POINT('',(-7.42347029552482,8.37773781585176,5.93116037068716));
#940=CARTESIAN_POINT('',(-7.26474079401619,8.39206904789895,5.77773466117833));
#941=CARTESIAN_POINT('',(-7.1138466907888,8.40540387527516,5.62386358850796));
#942=CARTESIAN_POINT('',(-6.97020442595503,8.417836716806,5.46953031952323));
#943=CARTESIAN_POINT('',(-6.83198756486616,8.42955936795162,5.31315247705505));
#944=CARTESIAN_POINT('',(-6.69787479819512,8.4407089629323,5.15338607607653));
#945=CARTESIAN_POINT('',(-6.56658724223068,8.45140857132077,4.9885689851349));
#946=CARTESIAN_POINT('',(-6.43073581967619,8.46226141752341,4.80858593179833));
#947=CARTESIAN_POINT('',(-6.28543005061215,8.4736209833069,4.60416533006022));
#948=CARTESIAN_POINT('',(-6.10793512715275,8.48716121941383,4.33611453073112));
#949=CARTESIAN_POINT('',(-5.91263620747521,8.50159133701394,4.01113503856923));
#950=CARTESIAN_POINT('',(-5.71328650869581,8.51580483155708,3.63637420298187));
#951=CARTESIAN_POINT('',(-5.55443782612051,8.52675986100611,3.29617607470019));
#952=CARTESIAN_POINT('',(-5.43369849774127,8.53488216092441,3.00556044091541));
#953=CARTESIAN_POINT('',(-5.34834888952862,8.54052331239625,2.77999037784764));
#954=CARTESIAN_POINT('',(-5.2781084459428,8.54510085576099,2.57784439495307));
#955=CARTESIAN_POINT('',(-5.21861927295516,8.54893143106292,2.39206264985234));
#956=CARTESIAN_POINT('',(-5.16572131542884,8.55230101187111,2.21240616386593));
#957=CARTESIAN_POINT('',(-5.11946194953913,8.55521956596379,2.04124998264653));
#958=CARTESIAN_POINT('',(-5.07859866901803,8.55777592411255,1.87620970981673));
#959=CARTESIAN_POINT('',(-5.04137196783853,8.56008728086153,1.71155299561306));
#960=CARTESIAN_POINT('',(-5.00614223483348,8.56225910671624,1.53911726718931));
#961=CARTESIAN_POINT('',(-4.96819155064345,8.56458245431551,1.32958473258698));
#962=CARTESIAN_POINT('',(-4.93105097931716,8.56683795192047,1.08496873190925));
#963=CARTESIAN_POINT('',(-4.89866165540022,8.56879017503989,0.808708171610985));
#964=CARTESIAN_POINT('',(-4.87791772731047,8.57003337482128,0.557353795048914));
#965=CARTESIAN_POINT('',(-4.86628015652213,8.57072877693018,0.337827811789734));
#966=CARTESIAN_POINT('',(-4.86103144223621,8.57104192088708,0.161353600991076));
#967=CARTESIAN_POINT('',(-4.85995596574504,8.57110604993349,0.0457495912418441));
#968=CARTESIAN_POINT('',(-4.86005240540493,8.57110029862724,-0.0648138775746154));
#969=CARTESIAN_POINT('',(-4.86143229180016,8.57101801965015,-0.180343471247253));
#970=CARTESIAN_POINT('',(-4.8668104773556,8.57069709174052,-0.346478068844804));
#971=CARTESIAN_POINT('',(-4.87557749439129,8.5701731801097,-0.512394744523695));
#972=CARTESIAN_POINT('',(-4.88770990351941,8.56944659210477,-0.677869663068297));
#973=CARTESIAN_POINT('',(-4.90315924645529,8.56851873216398,-0.842533412104393));
#974=CARTESIAN_POINT('',(-4.92186957023833,8.56739108029883,-1.00618043539997));
#975=CARTESIAN_POINT('',(-4.94372339191199,8.56606850532449,-1.16827435114234));
#976=CARTESIAN_POINT('',(-4.96865484215179,8.56455248229643,-1.32884337135483));
#977=CARTESIAN_POINT('',(-4.99648204441237,8.56285131568961,-1.48722723667896));
#978=CARTESIAN_POINT('',(-5.02707999608999,8.56096972243304,-1.64330518880654));
#979=CARTESIAN_POINT('',(-5.0601745834211,8.55892159715988,-1.79633786544252));
#980=CARTESIAN_POINT('',(-5.0957350402694,8.55670581528373,-1.94680354413529));
#981=CARTESIAN_POINT('',(-5.13353534432085,8.55433336759801,-2.09427053358911));
#982=CARTESIAN_POINT('',(-5.17352549174315,8.5518042694679,-2.23903572451606));
#983=CARTESIAN_POINT('',(-5.21542984310157,8.54913295513573,-2.38059353585073));
#984=CARTESIAN_POINT('',(-5.25933511529971,8.54631087555262,-2.51966221575112));
#985=CARTESIAN_POINT('',(-5.30561721852182,8.54331044303185,-2.65765907228986));
#986=CARTESIAN_POINT('',(-5.35493216429158,8.54008449361699,-2.79640936969266));
#987=CARTESIAN_POINT('',(-5.40829028167018,8.5365604924231,-2.93827045864594));
#988=CARTESIAN_POINT('',(-5.4660587275021,8.53270573426266,-3.08346910572274));
#989=CARTESIAN_POINT('',(-5.53115103049377,8.52831389557735,-3.2381939431497));
#990=CARTESIAN_POINT('',(-5.60600700998524,8.52320007098112,-3.40604880238267));
#991=CARTESIAN_POINT('',(-5.70397373885636,8.51640918639439,-3.61229114471756));
#992=CARTESIAN_POINT('',(-5.82402643111839,8.50792607045345,-3.84621707957735));
#993=CARTESIAN_POINT('',(-5.96498461550163,8.49772557810055,-4.09821605616758));
#994=CARTESIAN_POINT('',(-6.09521763755486,8.48806960783234,-4.31298610122009));
#995=CARTESIAN_POINT('',(-6.20766650886904,8.47955842449936,-4.48702572868209));
#996=CARTESIAN_POINT('',(-6.29458386716988,8.47287896512374,-4.61559552292788));
#997=CARTESIAN_POINT('',(-6.37207264447054,8.46684672781828,-4.72602286923765));
#998=CARTESIAN_POINT('',(-6.4443607569115,8.46115504011591,-4.82577609936897));
#999=CARTESIAN_POINT('',(-6.51843606207836,8.45525666848276,-4.92484900838852));
#1000=CARTESIAN_POINT('',(-6.60834884908886,8.44801318982153,-5.04133083657738));
#1001=CARTESIAN_POINT('',(-6.71762406232843,8.43907718319736,-5.17729357958306));
#1002=CARTESIAN_POINT('',(-6.84911725955939,8.42812013055846,-5.33300527986413));
#1003=CARTESIAN_POINT('',(-6.97944861201367,8.41703824047844,-5.47950230395273));
#1004=CARTESIAN_POINT('',(-7.10433981093027,8.40621765487971,-5.6133796732029));
#1005=CARTESIAN_POINT('',(-7.21957162697352,8.39606997714349,-5.73194561405332));
#1006=CARTESIAN_POINT('',(-7.33633489230055,8.38562039559458,-5.84734547177018));
#1007=CARTESIAN_POINT('',(-7.4567931401886,8.37466434483499,-5.96169642231874));
#1008=CARTESIAN_POINT('',(-7.5824471601547,8.36304448012524,-6.07615418496139));
#1009=CARTESIAN_POINT('',(-7.71452290142277,8.35061970256047,-6.19143430550645));
#1010=CARTESIAN_POINT('',(-7.85221457333005,8.33743567939212,-6.30641863061876));
#1011=CARTESIAN_POINT('',(-7.99987927170663,8.32303851094115,-6.42423679047676));
#1012=CARTESIAN_POINT('',(-8.16111708503765,8.30701327905252,-6.54674377843981));
#1013=CARTESIAN_POINT('',(-8.36216569960804,8.28660489107155,-6.69138504327858));
#1014=CARTESIAN_POINT('',(-8.59917188151874,8.26189657239507,-6.8502439686564));
#1015=CARTESIAN_POINT('',(-8.86827749542352,8.23294695940089,-7.0158037305596));
#1016=CARTESIAN_POINT('',(-9.11432911980507,8.20564477420008,-7.1543631747649));
#1017=CARTESIAN_POINT('',(-9.33102582260267,8.1809652471043,-7.26724872369608));
#1018=CARTESIAN_POINT('',(-9.51308754358404,8.15980395156883,-7.35620447365275));
#1019=CARTESIAN_POINT('',(-9.68893945471266,8.13897635616187,-7.4369628453731));
#1020=CARTESIAN_POINT('',(-9.86437069721389,8.11781907169228,-7.51264073388635));
#1021=CARTESIAN_POINT('',(-10.0443119904714,8.09571778181959,-7.58526933026318));
#1022=CARTESIAN_POINT('',(-10.2293360816107,8.07256876385526,-7.65481827272905));
#1023=CARTESIAN_POINT('',(-10.4182788878185,8.04848565048839,-7.72061161480632));
#1024=CARTESIAN_POINT('',(-10.6111934416057,8.0234335196899,-7.78247968126272));
#1025=CARTESIAN_POINT('',(-10.8074564237019,7.99746705058859,-7.84005597108014));
#1026=CARTESIAN_POINT('',(-11.0078794797807,7.97045037505331,-7.8933876752281));
#1027=CARTESIAN_POINT('',(-11.2119651128968,7.94242009275329,-7.94212910434648));
#1028=CARTESIAN_POINT('',(-11.428308421955,7.91214409851805,-7.98789722203579));
#1029=CARTESIAN_POINT('',(-11.6645675973707,7.87841888363366,-8.03105049760452));
#1030=CARTESIAN_POINT('',(-11.9618753238827,7.83503776248043,-8.0758138619928));
#1031=CARTESIAN_POINT('',(-12.3118043367642,7.78252857077363,-8.11404712484949));
#1032=CARTESIAN_POINT('',(-12.6721253728391,7.72666482526756,-8.13584470218954));
#1033=CARTESIAN_POINT('',(-12.9352542271088,7.68471720913258,-8.14060524457025));
#1034=CARTESIAN_POINT('',(-13.157292032313,7.64876209277552,-8.13923663932933));
#1035=CARTESIAN_POINT('',(-13.3628848516165,7.61498327646924,-8.13327544962394));
#1036=CARTESIAN_POINT('',(-13.6315486056902,7.56995734372768,-8.11694371843118));
#1037=CARTESIAN_POINT('',(-13.9046340139248,7.52325679584644,-8.09129247586167));
#1038=CARTESIAN_POINT('',(-14.188930984335,7.47359455560431,-8.05438008580058));
#1039=CARTESIAN_POINT('',(-14.443568294543,7.4281937235964,-8.01222232463678));
#1040=CARTESIAN_POINT('',(-14.6694224526659,7.38722906317473,-7.96784109577107));
#1041=CARTESIAN_POINT('',(-14.8660588728343,7.35105876702269,-7.92405858987605));
#1042=CARTESIAN_POINT('',(-15.05755600981,7.31535445993895,-7.87646429376002));
#1043=CARTESIAN_POINT('',(-15.2430766244218,7.28031373492343,-7.82561686725698));
#1044=CARTESIAN_POINT('',(-15.4241642163981,7.24568235729173,-7.77140291520273));
#1045=CARTESIAN_POINT('',(-15.6028062617847,7.21110578315767,-7.71341409282611));
#1046=CARTESIAN_POINT('',(-15.7817170174486,7.17606475637878,-7.65074019782566));
#1047=CARTESIAN_POINT('',(-15.9641808424959,7.1399026948624,-7.58197145712676));
#1048=CARTESIAN_POINT('',(-16.1509237744882,7.10244531485868,-7.50635587303971));
#1049=CARTESIAN_POINT('',(-16.3458192126505,7.06287186881836,-7.42164769661703));
#1050=CARTESIAN_POINT('',(-16.5490409917968,7.0210827302311,-7.32679125731049));
#1051=CARTESIAN_POINT('',(-16.7636199453807,6.97637302607883,-7.21907999668048));
#1052=CARTESIAN_POINT('',(-16.9855147362481,6.92950314318061,-7.09913317536337));
#1053=CARTESIAN_POINT('',(-17.2146689302199,6.88042117273414,-6.96566054243228));
#1054=CARTESIAN_POINT('',(-17.447313749486,6.82988665060397,-6.81962359051415));
#1055=CARTESIAN_POINT('',(-17.7106211366391,6.77187766703789,-6.64139762305605));
#1056=CARTESIAN_POINT('',(-17.9967233844564,6.70779838395826,-6.42988565449901));
#1057=CARTESIAN_POINT('',(-18.2989367431216,6.63887717191082,-6.18314502792828));
#1058=CARTESIAN_POINT('',(-18.5830194484448,6.57298023411625,-5.92765583228788));
#1059=CARTESIAN_POINT('',(-18.8460357815211,6.51101126892031,-5.66805135180383));
#1060=CARTESIAN_POINT('',(-19.0858580499729,6.45370750946741,-5.40939825202726));
#1061=CARTESIAN_POINT('',(-19.2853186886616,6.4054396213623,-5.17510978095492));
#1062=CARTESIAN_POINT('',(-19.4507574814684,6.3650094253947,-4.96639787911774));
#1063=CARTESIAN_POINT('',(-19.5868393940129,6.33149724379525,-4.78434220235691));
#1064=CARTESIAN_POINT('',(-19.7144756083537,6.29983984804842,-4.60339247094747));
#1065=CARTESIAN_POINT('',(-19.8471866977797,6.26670481015858,-4.40413976268649));
#1066=CARTESIAN_POINT('',(-19.9849338101971,6.23206056163615,-4.18294383592663));
#1067=CARTESIAN_POINT('',(-20.1262690851624,6.19623746819837,-3.9373471873529));
#1068=CARTESIAN_POINT('',(-20.2479484899963,6.16517171370125,-3.70776026713616));
#1069=CARTESIAN_POINT('',(-20.3520726724213,6.13843171377922,-3.49594385635725));
#1070=CARTESIAN_POINT('',(-20.4404570691879,6.11562523443884,-3.30364824323715));
#1071=CARTESIAN_POINT('',(-20.5234744891138,6.09410753044468,-3.10992682890092));
#1072=CARTESIAN_POINT('',(-20.6008876981135,6.07395848522996,-2.91557720775463));
#1073=CARTESIAN_POINT('',(-20.6728294625982,6.05516096195192,-2.72058280103398));
#1074=CARTESIAN_POINT('',(-20.7460649923245,6.03595685075217,-2.50538381585891));
#1075=CARTESIAN_POINT('',(-20.8244979454014,6.01531077923663,-2.25081736365134));
#1076=CARTESIAN_POINT('',(-20.902886193514,5.99458771401611,-1.9590664166611));
#1077=CARTESIAN_POINT('',(-20.9678158469715,5.977355317066,-1.67311803895852));
#1078=CARTESIAN_POINT('',(-21.0134195713528,5.96521798921369,-1.43495750870855));
#1079=CARTESIAN_POINT('',(-21.0451759318284,5.95675099181504,-1.24279804497463));
#1080=CARTESIAN_POINT('',(-21.06924729091,5.95032444582941,-1.07527573860006));
#1081=CARTESIAN_POINT('',(-21.0893901143435,5.94494070564754,-0.911151538248601));
#1082=CARTESIAN_POINT('',(-21.1074349535225,5.94011325692423,-0.735073173337181));
#1083=CARTESIAN_POINT('',(-21.1224991576576,5.93607964723177,-0.546293789711559));
#1084=CARTESIAN_POINT('',(-21.1335141809988,5.93312821640329,-0.344782618226785));
#1085=CARTESIAN_POINT('',(-21.1389760990474,5.93166410375394,-0.163040439685549));
#1086=CARTESIAN_POINT('',(-21.1400000299198,5.93138958476545,-0.0485120022266818));
#1087=CARTESIAN_POINT('',(-21.1399999999993,5.93138959978971,-1.39602773785441E-11));
#1088=CARTESIAN_POINT('',(4.86,8.57110342392225,1.23144568543034E-16));
#1089=CARTESIAN_POINT('',(4.85999999999999,8.57110342392221,-4.68456384794536E-11));
#1090=CARTESIAN_POINT('',(4.86000068119759,8.57110347604261,0.271098315999504));
#1091=CARTESIAN_POINT('',(4.88636984520726,8.56953756180209,0.798531388838833));
#1092=CARTESIAN_POINT('',(4.99925588388642,8.5627211313612,1.56010134170232));
#1093=CARTESIAN_POINT('',(5.16745361641372,8.55226070657146,2.25069854187788));
#1094=CARTESIAN_POINT('',(5.37399388446511,8.53892110148535,2.86873125610413));
#1095=CARTESIAN_POINT('',(5.62185205070117,8.52224217916815,3.45826440878062));
#1096=CARTESIAN_POINT('',(5.9213730916037,8.50110168996187,4.0383153062685));
#1097=CARTESIAN_POINT('',(6.28091510490822,8.47421764311768,4.61118877983754));
#1098=CARTESIAN_POINT('',(6.65231112224027,8.44470115117764,5.1071912862473));
#1099=CARTESIAN_POINT('',(7.02583815413046,8.41326978722994,5.53715141092782));
#1100=CARTESIAN_POINT('',(7.40012843135152,8.3801268243765,5.91591108299034));
#1101=CARTESIAN_POINT('',(7.81114357927083,8.34173836978664,6.28012754314035));
#1102=CARTESIAN_POINT('',(8.26384011437718,8.29702940668682,6.62879406459407));
#1103=CARTESIAN_POINT('',(8.75408273465317,8.24573122343345,6.9534728548708));
#1104=CARTESIAN_POINT('',(9.28592622312266,8.1866972362492,7.25207602009495));
#1105=CARTESIAN_POINT('',(9.85881333615978,8.11917251738223,7.51877642793888));
#1106=CARTESIAN_POINT('',(10.4706733901803,8.04247972218517,7.74648987678776));
#1107=CARTESIAN_POINT('',(11.1021422730214,7.9583330388477,7.92467400556738));
#1108=CARTESIAN_POINT('',(11.747478142065,7.86715495044468,8.05192220384469));
#1109=CARTESIAN_POINT('',(12.3795268070671,7.77268375917913,8.12451935454343));
#1110=CARTESIAN_POINT('',(12.8345029451855,7.70103535765708,8.14125814248768));
#1111=CARTESIAN_POINT('',(13.3757236103654,7.61338677322586,8.1378484065117));
#1112=CARTESIAN_POINT('',(14.0344300912738,7.5023926186372,8.09214624414347));
#1113=CARTESIAN_POINT('',(14.972648459454,7.33307452477038,7.91718206980643));
#1114=CARTESIAN_POINT('',(15.8446777155292,7.16507478814418,7.64422089553057));
#1115=CARTESIAN_POINT('',(16.6231514280411,7.00667670804267,7.30316057834835));
#1116=CARTESIAN_POINT('',(17.2953878585334,6.86374824749775,6.92812066796959));
#1117=CARTESIAN_POINT('',(17.9200387769866,6.72567746320805,6.49942639095933));
#1118=CARTESIAN_POINT('',(18.5535577805282,6.58060235385782,5.97220901986712));
#1119=CARTESIAN_POINT('',(19.1778927286367,6.43228215779944,5.32931844552283));
#1120=CARTESIAN_POINT('',(19.7612079685785,6.28880234388409,4.56634513554218));
#1121=CARTESIAN_POINT('',(20.2181371480988,6.17311591988162,3.7956929442332));
#1122=CARTESIAN_POINT('',(20.5646499777848,6.08357153576077,3.03866530310883));
#1123=CARTESIAN_POINT('',(20.8184381407613,6.01700051242795,2.30892142906598));
#1124=CARTESIAN_POINT('',(21.0027224852012,5.96811178615123,1.55494361545948));
#1125=CARTESIAN_POINT('',(21.1148828058674,5.93812933741794,0.782491894344982));
#1126=CARTESIAN_POINT('',(21.1428642902022,5.93062166874993,0.201730438150295));
#1127=CARTESIAN_POINT('',(21.1358582026695,5.93249971240125,-0.437362750501671));
#1128=CARTESIAN_POINT('',(21.0798830391575,5.94751608763121,-1.13021057389703));
#1129=CARTESIAN_POINT('',(20.9052087403405,5.99406601871198,-2.00311890934631));
#1130=CARTESIAN_POINT('',(20.6588904930611,6.05895112817237,-2.79221994939333));
#1131=CARTESIAN_POINT('',(20.3613020321796,6.13628261913389,-3.50284880459772));
#1132=CARTESIAN_POINT('',(19.994327809938,6.23000124751717,-4.18843741498584));
#1133=CARTESIAN_POINT('',(19.5662632055669,6.33700599284479,-4.83123127531728));
#1134=CARTESIAN_POINT('',(19.0943980748636,6.45206193567505,-5.41252831114589));
#1135=CARTESIAN_POINT('',(18.5929200563852,6.57107723426151,-5.92820212142271));
#1136=CARTESIAN_POINT('',(18.0542975531037,6.69524333467476,-6.39402684244389));
#1137=CARTESIAN_POINT('',(17.4532810161436,6.82935044807212,-6.82802544162257));
#1138=CARTESIAN_POINT('',(16.7765551431544,6.9746818683013,-7.22615333792111));
#1139=CARTESIAN_POINT('',(16.027832874062,7.12842445449938,-7.57140523573351));
#1140=CARTESIAN_POINT('',(15.2358309982274,7.28302764494587,-7.84194323814224));
#1141=CARTESIAN_POINT('',(14.4310572315502,7.43169676934938,-8.02699950139662));
#1142=CARTESIAN_POINT('',(13.6842475592658,7.56194308610986,-8.12165176933095));
#1143=CARTESIAN_POINT('',(13.1613577122311,7.64837847080344,-8.14186286522626));
#1144=CARTESIAN_POINT('',(12.6613040617073,7.72857352841392,-8.13741870542375));
#1145=CARTESIAN_POINT('',(12.1367379273541,7.80978692678043,-8.10465363727566));
#1146=CARTESIAN_POINT('',(11.4196970078406,7.91431923854781,-7.99604888710938));
#1147=CARTESIAN_POINT('',(10.6900819876587,8.01413253036585,-7.81815583784154));
#1148=CARTESIAN_POINT('',(9.93930199694573,8.10980831774964,-7.55751918196014));
#1149=CARTESIAN_POINT('',(9.19973717315521,8.19698353809033,-7.21399775398783));
#1150=CARTESIAN_POINT('',(8.51682594858103,8.27128961002246,-6.80881037195864));
#1151=CARTESIAN_POINT('',(7.90926710509335,8.33252463367931,-6.36549613285183));
#1152=CARTESIAN_POINT('',(7.34644431276193,8.38529131128416,-5.87242356385985));
#1153=CARTESIAN_POINT('',(6.79329634574447,8.4333994523326,-5.28938907852223));
#1154=CARTESIAN_POINT('',(6.24063518806299,8.47763124411292,-4.56955212338049));
#1155=CARTESIAN_POINT('',(5.75914675397775,8.51288838626171,-3.75981530206504));
#1156=CARTESIAN_POINT('',(5.39485999392911,8.53762110874091,-2.94155836231508));
#1157=CARTESIAN_POINT('',(5.15062647228749,8.55332682422097,-2.19633492639134));
#1158=CARTESIAN_POINT('',(4.98620928782751,8.56351299957428,-1.48547549250236));
#1159=CARTESIAN_POINT('',(4.88394322014454,8.56968114932057,-0.760743292365277));
#1160=CARTESIAN_POINT('',(4.85999935050459,8.57110337422743,-0.258481695120835));
#1161=CARTESIAN_POINT('',(4.85999999999999,8.57110342392221,-4.68456384794536E-11));
#1162=CARTESIAN_POINT('',(24.35,4.26129614005456,8.14));
#1163=CARTESIAN_POINT('',(24.35,4.26129614005456,8.14));
#1164=VECTOR('',#1165,1.);
#1165=DIRECTION('',(0.,-8.88622731065658E-17,-1.));
#1166=CARTESIAN_POINT('',(24.35,-2.,8.14));
#1167=CARTESIAN_POINT('',(24.35,-2.,8.14));
#1168=VECTOR('',#1169,1.);
#1169=DIRECTION('',(0.,1.,0.));
#1170=CARTESIAN_POINT('',(24.35,-2.,8.14));
#1171=VECTOR('',#1172,1.);
#1172=DIRECTION('',(-1.77724546213132E-16,5.55389206916036E-17,-1.));
#1173=CARTESIAN_POINT('',(-22.55,-2.,8.14));
#1174=CARTESIAN_POINT('',(-24.35,-2.,8.14));
#1175=CARTESIAN_POINT('',(-22.55,-2.,8.14));
#1176=VECTOR('',#1177,1.);
#1177=DIRECTION('',(-1.,0.,9.86864910777915E-16));
#1178=CARTESIAN_POINT('',(-24.35,-2.,-11.85));
#1179=VECTOR('',#1180,1.);
#1180=DIRECTION('',(0.,-5.55389206916036E-17,1.));
#1181=CARTESIAN_POINT('',(22.55,-2.,8.14));
#1182=CARTESIAN_POINT('',(24.35,-2.,8.14));
#1183=VECTOR('',#1184,1.);
#1184=DIRECTION('',(-1.,0.,-9.86864910777915E-16));
#1185=CARTESIAN_POINT('',(22.55,-2.,-10.05));
#1186=CARTESIAN_POINT('',(22.55,-2.,-10.05));
#1187=VECTOR('',#1188,1.);
#1188=DIRECTION('',(0.,-6.10348006940713E-17,1.));
#1189=CARTESIAN_POINT('',(-22.55,-2.,-10.05));
#1190=CARTESIAN_POINT('',(-22.55,-2.,-10.05));
#1191=VECTOR('',#1192,1.);
#1192=DIRECTION('',(1.,-4.9233837012202E-18,1.57548278439047E-16));
#1193=CARTESIAN_POINT('',(-22.55,-2.,8.14));
#1194=VECTOR('',#1195,1.);
#1195=DIRECTION('',(0.,6.10348006940713E-17,-1.));
#1196=CARTESIAN_POINT('',(-24.35,4.26129614005456,8.14));
#1197=CARTESIAN_POINT('',(-24.35,4.26129614005456,8.14000000000001));
#1198=VECTOR('',#1199,1.);
#1199=DIRECTION('',(0.,-8.88622731065657E-17,-1.));
#1200=CARTESIAN_POINT('',(-24.35,4.26129614005456,8.14));
#1201=VECTOR('',#1202,1.);
#1202=DIRECTION('',(0.,-1.,0.));
#1203=CARTESIAN_POINT('',(-22.55,-2.63385689891388E-16,8.14));
#1204=CARTESIAN_POINT('',(-22.55,5.53981112327975,8.14));
#1205=VECTOR('',#1206,1.);
#1206=DIRECTION('',(0.,-1.,0.));
#1207=CARTESIAN_POINT('',(-22.55,-6.15385016571545E-16,10.05));
#1208=CARTESIAN_POINT('',(-22.55,-3.07692508285772E-16,10.05));
#1209=VECTOR('',#1210,1.);
#1210=DIRECTION('',(0.,3.06161699786838E-17,-1.));
#1211=CARTESIAN_POINT('',(-22.55,-2.,10.05));
#1212=CARTESIAN_POINT('',(-22.55,-2.22044604925031E-16,10.05));
#1213=VECTOR('',#1214,1.);
#1214=DIRECTION('',(0.,-1.,-8.88178419700125E-16));
#1215=CARTESIAN_POINT('',(-22.55,-2.,13.85));
#1216=CARTESIAN_POINT('',(-22.55,-2.,13.85));
#1217=VECTOR('',#1218,1.);
#1218=DIRECTION('',(0.,1.1686558153949E-16,-1.));
#1219=CARTESIAN_POINT('',(-22.55,-2.,13.85));
#1220=VECTOR('',#1221,1.);
#1221=DIRECTION('',(4.71193988909249E-16,1.,2.35596994454624E-16));
#1222=CARTESIAN_POINT('',(-22.55,0.850000000000007,10.995));
#1223=AXIS2_PLACEMENT_3D('',#1224,#1225,#1226);
#1224=CARTESIAN_POINT('',(-22.55,2.50000000000001,10.995));
#1225=DIRECTION('',(-1.,0.,0.));
#1226=DIRECTION('',(0.,-1.,-6.12323399573677E-17));
#1227=CARTESIAN_POINT('',(22.55,-2.,13.85));
#1228=CARTESIAN_POINT('',(-22.55,-2.,13.85));
#1229=VECTOR('',#1230,1.);
#1230=DIRECTION('',(1.,0.,1.96935348048808E-16));
#1231=CARTESIAN_POINT('',(22.55,5.53981112327974,13.85));
#1232=VECTOR('',#1233,1.);
#1233=DIRECTION('',(0.,-1.,-2.35596994454624E-16));
#1234=CARTESIAN_POINT('',(-5.25,3.26845831518296,13.85));
#1235=AXIS2_PLACEMENT_3D('',#1236,#1237,#1238);
#1236=CARTESIAN_POINT('',(-7.25,3.26845831518296,13.85));
#1237=DIRECTION('',(-1.8600595176966E-16,-1.4210854715202E-16,1.));
#1238=DIRECTION('',(1.,0.,1.8600595176966E-16));
#1239=CARTESIAN_POINT('',(9.25,3.26845831518296,13.85));
#1240=AXIS2_PLACEMENT_3D('',#1241,#1242,#1243);
#1241=CARTESIAN_POINT('',(7.25,3.26845831518296,13.85));
#1242=DIRECTION('',(-1.8600595176966E-16,-1.4210854715202E-16,1.));
#1243=DIRECTION('',(1.,0.,1.8600595176966E-16));
#1244=CARTESIAN_POINT('',(22.55,-2.,10.05));
#1245=CARTESIAN_POINT('',(22.55,-2.,10.05));
#1246=VECTOR('',#1247,1.);
#1247=DIRECTION('',(0.,-1.1686558153949E-16,1.));
#1248=CARTESIAN_POINT('',(22.55,-6.15385016571545E-16,10.05));
#1249=CARTESIAN_POINT('',(22.55,-2.,10.05));
#1250=VECTOR('',#1251,1.);
#1251=DIRECTION('',(0.,1.,8.88178419700125E-16));
#1252=CARTESIAN_POINT('',(22.55,-2.63385689891388E-16,8.14));
#1253=CARTESIAN_POINT('',(22.55,-2.49215623626486E-16,8.14));
#1254=VECTOR('',#1255,1.);
#1255=DIRECTION('',(0.,-3.06161699786838E-17,1.));
#1256=CARTESIAN_POINT('',(22.55,5.53981112327974,8.14));
#1257=VECTOR('',#1258,1.);
#1258=DIRECTION('',(0.,-1.,0.));
#1259=CARTESIAN_POINT('',(22.55,0.850000000000007,10.995));
#1260=AXIS2_PLACEMENT_3D('',#1261,#1262,#1263);
#1261=CARTESIAN_POINT('',(22.55,2.50000000000001,10.995));
#1262=DIRECTION('',(-1.,0.,0.));
#1263=DIRECTION('',(0.,-1.,-6.12323399573677E-17));
#1264=AXIS2_PLACEMENT_3D('',#1265,#1266,#1267);
#1265=CARTESIAN_POINT('',(23.35,4.26129614005457,8.14));
#1266=DIRECTION('',(-9.86864910777913E-16,0.,1.));
#1267=DIRECTION('',(1.,0.,9.86864910777913E-16));
#1268=CARTESIAN_POINT('',(22.55,-2.22044604925031E-16,8.14));
#1269=VECTOR('',#1270,1.);
#1270=DIRECTION('',(0.,-1.,0.));
#1271=AXIS2_PLACEMENT_3D('',#1272,#1273,#1274);
#1272=CARTESIAN_POINT('',(-23.35,4.26129614005456,8.14));
#1273=DIRECTION('',(9.86864910777913E-16,-4.93038065763132E-32,1.));
#1274=DIRECTION('',(-0.289558531746031,0.957160308774389,2.8575515459653E-16));
#1275=CARTESIAN_POINT('',(-22.55,-2.,8.14));
#1276=VECTOR('',#1277,1.);
#1277=DIRECTION('',(0.,1.,0.));
#1278=CARTESIAN_POINT('',(-21.14,2.19564832181696E-31,-3.58576582790345E-15));
#1279=AXIS2_PLACEMENT_3D('',#1280,#1281,#1282);
#1280=CARTESIAN_POINT('',(-13.,9.74843858730207E-32,-1.59204083889156E-15));
#1281=DIRECTION('',(0.,1.,6.12323399573677E-17));
#1282=DIRECTION('',(-1.,7.49879891330929E-33,-1.22464679914735E-16));
#1283=CARTESIAN_POINT('',(4.86,2.45960604356544E-32,-4.01684150120331E-16));
#1284=AXIS2_PLACEMENT_3D('',#1285,#1286,#1287);
#1285=CARTESIAN_POINT('',(13.,-9.74843858730208E-32,1.59204083889156E-15));
#1286=DIRECTION('',(0.,1.,6.12323399573677E-17));
#1287=DIRECTION('',(-1.,7.49879891330929E-33,-1.22464679914735E-16));
#1288=CARTESIAN_POINT('',(22.55,6.15385016571545E-16,-10.05));
#1289=CARTESIAN_POINT('',(22.55,6.40759415673319E-16,-10.05));
#1290=VECTOR('',#1291,1.);
#1291=DIRECTION('',(1.95311362221028E-16,-6.72370503951266E-17,1.));
#1292=CARTESIAN_POINT('',(22.55,-2.,-10.05));
#1293=VECTOR('',#1294,1.);
#1294=DIRECTION('',(0.,1.,0.));
#1295=CARTESIAN_POINT('',(-5.25,3.61588884048789,-10.05));
#1296=CARTESIAN_POINT('',(5.25,3.61588884048789,-10.05));
#1297=CARTESIAN_POINT('',(-5.25,3.61588884048789,-10.05));
#1298=VECTOR('',#1299,1.);
#1299=DIRECTION('',(1.,0.,3.38353683695286E-16));
#1300=CARTESIAN_POINT('',(-5.25,2.70736655851316E-16,-10.05));
#1301=CARTESIAN_POINT('',(-5.25,-9.52162886337067E-16,-10.05));
#1302=VECTOR('',#1303,1.);
#1303=DIRECTION('',(2.45632113950794E-16,1.,0.));
#1304=CARTESIAN_POINT('',(-22.55,6.15385016571545E-16,-10.05));
#1305=CARTESIAN_POINT('',(-22.55,5.92237779184866E-16,-10.05));
#1306=VECTOR('',#1307,1.);
#1307=DIRECTION('',(1.,-2.94240135044486E-18,2.05359172185E-16));
#1308=CARTESIAN_POINT('',(-22.55,-2.,-10.05));
#1309=VECTOR('',#1310,1.);
#1310=DIRECTION('',(0.,1.,0.));
#1311=CARTESIAN_POINT('',(5.25,4.85049845702103E-16,-10.05));
#1312=CARTESIAN_POINT('',(5.25,6.29162293061953E-16,-10.05));
#1313=VECTOR('',#1314,1.);
#1314=DIRECTION('',(1.,-2.94240135044488E-18,1.026795860925E-16));
#1315=CARTESIAN_POINT('',(5.25,3.61588884048789,-10.05));
#1316=VECTOR('',#1317,1.);
#1317=DIRECTION('',(0.,-1.,0.));
#1318=CARTESIAN_POINT('',(-22.55,-5.82282531014033E-16,8.14));
#1319=VECTOR('',#1320,1.);
#1320=DIRECTION('',(-1.95311362221028E-16,6.11335703257194E-17,-1.));
#1321=CARTESIAN_POINT('',(-5.25,3.33716252767654E-16,-5.45));
#1322=CARTESIAN_POINT('',(-5.25,3.33716252767654E-16,-5.45));
#1323=VECTOR('',#1324,1.);
#1324=DIRECTION('',(0.,6.12323399573677E-17,-1.));
#1325=CARTESIAN_POINT('',(5.25,3.33716252767654E-16,-5.45));
#1326=CARTESIAN_POINT('',(5.25,3.33716252767654E-16,-5.45));
#1327=VECTOR('',#1328,1.);
#1328=DIRECTION('',(-1.,9.39120125263109E-33,-1.69176841847643E-16));
#1329=CARTESIAN_POINT('',(5.25,6.15385016571545E-16,-10.05));
#1330=VECTOR('',#1331,1.);
#1331=DIRECTION('',(-1.93082265152201E-16,-6.12323399573676E-17,1.));
#1332=CARTESIAN_POINT('',(22.55,-6.4075941567332E-16,10.05));
#1333=VECTOR('',#1334,1.);
#1334=DIRECTION('',(-1.,8.74568631065423E-33,-1.57548278439047E-16));
#1335=CARTESIAN_POINT('',(5.25,-3.33716252767654E-16,5.45));
#1336=CARTESIAN_POINT('',(5.25,-1.87271923367691E-16,9.85));
#1337=CARTESIAN_POINT('',(5.25,-3.33716252767654E-16,5.45));
#1338=VECTOR('',#1339,1.);
#1339=DIRECTION('',(-2.01858731750028E-16,-6.12323399573676E-17,1.));
#1340=CARTESIAN_POINT('',(-5.25,-3.33716252767654E-16,5.45));
#1341=CARTESIAN_POINT('',(-5.25,-3.33716252767654E-16,5.45));
#1342=VECTOR('',#1343,1.);
#1343=DIRECTION('',(1.,-1.40868018789466E-32,1.69176841847643E-16));
#1344=CARTESIAN_POINT('',(-5.25,-1.87271923367691E-16,9.85));
#1345=CARTESIAN_POINT('',(-5.25,-6.03138548580072E-16,9.85));
#1346=VECTOR('',#1347,1.);
#1347=DIRECTION('',(0.,6.12323399573676E-17,-1.));
#1348=CARTESIAN_POINT('',(-5.25,-1.87271923367691E-16,9.85));
#1349=VECTOR('',#1350,1.);
#1350=DIRECTION('',(1.,-2.81736037578933E-32,1.69176841847643E-16));
#1351=CARTESIAN_POINT('',(22.55,-2.,10.05));
#1352=VECTOR('',#1353,1.);
#1353=DIRECTION('',(-1.,0.,-1.18161208829285E-16));
#1354=CARTESIAN_POINT('',(-17.55,0.850000000000007,10.995));
#1355=AXIS2_PLACEMENT_3D('',#1356,#1357,#1358);
#1356=CARTESIAN_POINT('',(-17.55,2.50000000000001,10.995));
#1357=DIRECTION('',(-1.,2.81689734769955E-30,-1.2246467991472E-16));
#1358=DIRECTION('',(-2.80939854878624E-30,-1.,-6.12323399573677E-17));
#1359=CARTESIAN_POINT('',(-5.25,3.26845831518296,8.85));
#1360=AXIS2_PLACEMENT_3D('',#1361,#1362,#1363);
#1361=CARTESIAN_POINT('',(-7.25,3.26845831518296,8.85));
#1362=DIRECTION('',(-1.8600595176966E-16,-1.4210854715202E-16,1.));
#1363=DIRECTION('',(1.,-2.64330355676151E-32,1.8600595176966E-16));
#1364=CARTESIAN_POINT('',(9.25,3.26845831518296,8.85000000000001));
#1365=AXIS2_PLACEMENT_3D('',#1366,#1367,#1368);
#1366=CARTESIAN_POINT('',(7.25,3.26845831518296,8.85000000000001));
#1367=DIRECTION('',(-1.8600595176966E-16,-1.4210854715202E-16,1.));
#1368=DIRECTION('',(1.,-2.64330355676151E-32,1.8600595176966E-16));
#1369=CARTESIAN_POINT('',(17.55,0.850000000000007,10.995));
#1370=AXIS2_PLACEMENT_3D('',#1371,#1372,#1373);
#1371=CARTESIAN_POINT('',(17.55,2.50000000000001,10.995));
#1372=DIRECTION('',(-1.,0.,1.22464679914735E-16));
#1373=DIRECTION('',(-7.49879891330929E-33,-1.,-6.12323399573677E-17));
#1374=CARTESIAN_POINT('',(5.25,3.61588884048789,-5.45));
#1375=CARTESIAN_POINT('',(5.25,3.61588884048789,-5.45));
#1376=VECTOR('',#1377,1.);
#1377=DIRECTION('',(1.93082265152201E-16,1.93082265152201E-16,-1.));
#1378=CARTESIAN_POINT('',(-5.25,3.61588884048789,-5.45));
#1379=CARTESIAN_POINT('',(-5.25,3.61588884048789,-5.45));
#1380=VECTOR('',#1381,1.);
#1381=DIRECTION('',(1.,0.,1.69176841847643E-16));
#1382=CARTESIAN_POINT('',(-5.25,3.61588884048789,-10.05));
#1383=VECTOR('',#1384,1.);
#1384=DIRECTION('',(-1.93082265152201E-16,-1.93082265152201E-16,1.));
#1385=CARTESIAN_POINT('',(-5.25,3.33716252767654E-16,-5.45));
#1386=VECTOR('',#1387,1.);
#1387=DIRECTION('',(0.,1.,0.));
#1388=CARTESIAN_POINT('',(5.25,3.33716252767654E-16,-5.45));
#1389=VECTOR('',#1390,1.);
#1390=DIRECTION('',(0.,1.,-2.45632113950794E-16));
#1391=CARTESIAN_POINT('',(5.25,6.41588884048789,5.45));
#1392=CARTESIAN_POINT('',(5.25,6.41588884048789,9.85000000000001));
#1393=CARTESIAN_POINT('',(5.25,6.41588884048789,5.45));
#1394=VECTOR('',#1395,1.);
#1395=DIRECTION('',(-2.01858731750028E-16,-2.01858731750028E-16,1.));
#1396=CARTESIAN_POINT('',(5.25,-3.33716252767654E-16,5.45));
#1397=VECTOR('',#1398,1.);
#1398=DIRECTION('',(0.,1.,1.3843419700404E-16));
#1399=CARTESIAN_POINT('',(5.25,2.2859470184469E-16,9.85));
#1400=VECTOR('',#1401,1.);
#1401=DIRECTION('',(0.,1.,2.76868394008081E-16));
#1402=CARTESIAN_POINT('',(-5.25,6.41588884048789,5.45));
#1403=CARTESIAN_POINT('',(-5.25,6.41588884048789,5.45));
#1404=VECTOR('',#1405,1.);
#1405=DIRECTION('',(1.,0.,1.69176841847643E-16));
#1406=CARTESIAN_POINT('',(-5.25,-3.33716252767654E-16,5.45));
#1407=VECTOR('',#1408,1.);
#1408=DIRECTION('',(0.,1.,1.3843419700404E-16));
#1409=CARTESIAN_POINT('',(-5.25,6.41588884048789,9.85));
#1410=CARTESIAN_POINT('',(-5.25,6.41588884048789,9.85));
#1411=VECTOR('',#1412,1.);
#1412=DIRECTION('',(2.01858731750028E-16,4.03717463500056E-16,-1.));
#1413=CARTESIAN_POINT('',(-5.25,6.41588884048789,9.85));
#1414=VECTOR('',#1415,1.);
#1415=DIRECTION('',(0.,-1.,0.));
#1416=CARTESIAN_POINT('',(-5.25,6.41588884048789,9.85));
#1417=VECTOR('',#1418,1.);
#1418=DIRECTION('',(1.,0.,3.38353683695286E-16));
ENDSEC;
END-ISO-10303-21;
